<?xml version="1.0" encoding="UTF-8" standalone="no"?>
<!-- Created with Inkscape (http://www.inkscape.org/) -->

<svg
   xmlns:dc="http://purl.org/dc/elements/1.1/"
   xmlns:cc="http://creativecommons.org/ns#"
   xmlns:rdf="http://www.w3.org/1999/02/22-rdf-syntax-ns#"
   xmlns:svg="http://www.w3.org/2000/svg"
   xmlns="http://www.w3.org/2000/svg"
   xmlns:sodipodi="http://sodipodi.sourceforge.net/DTD/sodipodi-0.dtd"
   xmlns:inkscape="http://www.inkscape.org/namespaces/inkscape"
   width="95.287415mm"
   height="116.75158mm"
   viewBox="0 0 337.63257 413.6867"
   id="svg4228"
   version="1.1"
   inkscape:version="0.91 r13725"
   sodipodi:docname="ctl_query.svg">
  <defs
     id="defs4230" />
  <sodipodi:namedview
     id="base"
     pagecolor="#ffffff"
     bordercolor="#666666"
     borderopacity="1.0"
     inkscape:pageopacity="0.0"
     inkscape:pageshadow="2"
     inkscape:zoom="0.98994949"
     inkscape:cx="-192.50901"
     inkscape:cy="227.95056"
     inkscape:document-units="px"
     inkscape:current-layer="g5519"
     showgrid="false"
     fit-margin-top="0"
     fit-margin-left="0"
     fit-margin-right="0"
     fit-margin-bottom="0"
     inkscape:window-width="1680"
     inkscape:window-height="1000"
     inkscape:window-x="1050"
     inkscape:window-y="27"
     inkscape:window-maximized="1"
     showborder="false" />
  <metadata
     id="metadata4233">
    <rdf:RDF>
      <cc:Work
         rdf:about="">
        <dc:format>image/svg+xml</dc:format>
        <dc:type
           rdf:resource="http://purl.org/dc/dcmitype/StillImage" />
        <dc:title />
      </cc:Work>
    </rdf:RDF>
  </metadata>
  <g
     inkscape:label="Layer 1"
     inkscape:groupmode="layer"
     id="layer1"
     transform="translate(-225.46943,-419.80456)">
    <g
       transform="translate(465.71428,285.71428)"
       id="g5519">
      <path
         id="path5056"
         d="m 96.88771,311.21868 0,0 c 0,92.95856 -75.35779,168.31635 -168.31628,168.31635 -92.95852,0 -168.31628,-75.35779 -168.31628,-168.31635 0,-92.95856 75.35776,-168.31636 168.31628,-168.31636 l 0,168.31636 z"
         inkscape:connector-curvature="0"
         style="fill:#ffc000;fill-rule:nonzero;stroke:none;stroke-linecap:square;stroke-miterlimit:10" />
      <path
         id="path5058"
         d="m 96.88771,311.21868 0,0 c 0,92.95856 -75.35779,168.31635 -168.31628,168.31635 -92.95852,0 -168.31628,-75.35779 -168.31628,-168.31635 0,-92.95856 75.35776,-168.31636 168.31628,-168.31636 l 0,168.31636 z"
         inkscape:connector-curvature="0"
         style="fill:none;fill-rule:nonzero;stroke:#000000;stroke-width:1;stroke-linecap:butt;stroke-linejoin:round;stroke-miterlimit:10" />
      <path
         id="path5060"
         d="M 27.18853,396.48921 -83.95148,332.57329"
         inkscape:connector-curvature="0"
         style="fill:#000000;fill-opacity:0;fill-rule:nonzero;stroke:none;stroke-linecap:square;stroke-miterlimit:10" />
      <path
         id="path5068"
         d="m 15.306503,395.6051 0,0 c 0,-6.07407 4.655743,-10.99806 10.398907,-10.99806 l 0,0 c 2.757958,0 5.402989,1.15873 7.353146,3.22126 1.950187,2.06254 3.045781,4.85995 3.045781,7.7768 l 0,0 c 0,6.07405 -4.655743,10.99805 -10.398927,10.99805 l 0,0 c -5.743164,0 -10.398907,-4.92399 -10.398907,-10.99805 z"
         style="fill:#000000;fill-opacity:1;fill-rule:nonzero;stroke:#000000;stroke-width:0.96366537;stroke-linecap:butt;stroke-linejoin:round;stroke-miterlimit:10"
         inkscape:connector-curvature="0" />
      <path
         id="path5070"
         d="m -106.53167,345.09266 45.1604,0 0,49.41571 -45.1604,0 z"
         inkscape:connector-curvature="0"
         style="fill:#000000;fill-opacity:0;fill-rule:nonzero;stroke:none;stroke-linecap:square;stroke-miterlimit:10" />
      <path
         id="path5074"
         d="m -5.04576,394.85798 36.23816,0 0,49.41571 -36.23816,0 z"
         inkscape:connector-curvature="0"
         style="fill:#000000;fill-opacity:0;fill-rule:nonzero;stroke:none;stroke-linecap:square;stroke-miterlimit:10" />
      <path
         id="path5076"
         d="m 0.35660726,403.90928 5.45313004,-0.9375 q 1.48437,2.32812 2.09375,5.125 1.5312502,-2.26563 2.3124997,-3.17188 1.04687,-1.21875 1.71875,-1.57812 0.6875,-0.375 1.45312,-0.375 0.85938,0 1.3125,0.46875 0.46875,0.46875 0.46875,1.26562 0,0.75 -0.46875,1.23438 -0.45312,0.46875 -1.14062,0.46875 -0.5,0 -1.15625,-0.17188 -0.64063,-0.1875 -0.89063,-0.1875 -0.65625,0 -1.25,0.46875 -0.8124995,0.64063 -1.9999997,2.73438 1.3281302,4.6875 2.1249997,5.71875 0.46875,0.60937 0.95313,0.60937 0.40625,0 0.70312,-0.20312 0.45313,-0.32813 1.39063,-1.64063 l 0.5625,0.32813 q -1.375,2.21875 -2.6875,3.125 -1,0.70312 -1.9687495,0.70312 -1.0000002,0 -1.6718802,-0.4375 -0.65625,-0.45312 -1.17187,-1.45312 -0.51563,-1.01563 -1.21875,-3.23438 -1.82813,2.32813 -2.875,3.40625 -1.03125,1.0625 -1.71875004,1.39063 -0.6875,0.32812 -1.46874998,0.32812 -0.81249998,0 -1.28124998,-0.46875 -0.48438,-0.46875 -0.48438,-1.21875 0,-0.79687 0.51563,-1.3125 0.51562,-0.51562 1.31249998,-0.51562 0.42187,0 0.95311998,0.25 0.78125004,0.375 1.12500004,0.375 0.45313,0 0.8125,-0.1875 0.46875,-0.23438 1.1875,-1.01563 0.4375,-0.48437 1.60938,-2.0625 -1.5,-5.5625 -2.34375,-6.65625 -0.53125,-0.70312 -1.34375,-0.70312 -0.42188004,0 -1.03125004,0.125 l 0.10937,-0.59375 z"
         style="fill:#000000;fill-opacity:1;fill-rule:nonzero;stroke:none;stroke-linecap:square;stroke-miterlimit:10"
         inkscape:connector-curvature="0" />
      <path
         id="path5078"
         d="m -207.4701,134.09028 41.72876,0 0,49.41573 -41.72876,0 z"
         inkscape:connector-curvature="0"
         style="fill:#000000;fill-opacity:0;fill-rule:nonzero;stroke:none;stroke-linecap:square;stroke-miterlimit:10" />
      <path
         id="path5082"
         d="m -117.70291,242.26093 36.23814,0 0,49.41571 -36.23814,0 z"
         inkscape:connector-curvature="0"
         style="fill:#000000;fill-opacity:0;fill-rule:nonzero;stroke:none;stroke-linecap:square;stroke-miterlimit:10" />
      <path
         id="path5084"
         d="m 79.089199,413.10567 -5.07813,17.48438 q -0.48437,1.64062 -0.48437,1.98437 0,0.17188 0.125,0.29688 0.125,0.125 0.26562,0.125 0.26563,0 0.60938,-0.26563 0.57812,-0.4375 1.40625,-1.65625 l 0.5625,0.29688 q -2.20313,3.84375 -4.84375,3.84375 -0.9375,0 -1.45313,-0.48438 -0.5,-0.5 -0.5,-1.26562 0,-0.73438 0.40625,-2.09375 l 0.46875,-1.59375 q -1.95312,3.45312 -3.39062,4.59375 -1.09375,0.84375 -2.125,0.84375 -1.17188,0 -1.98438,-0.95313 -0.79687,-0.95312 -0.79687,-2.78125 0,-2.32812 1.03125,-4.59375 1.03125,-2.26562 2.375,-3.78125 1.35937,-1.51562 2.57812,-2.15625 1.23438,-0.65625 2.42188,-0.65625 0.60937,0 1.07812,0.25 0.48438,0.25 1.09375,0.9375 l 1.15625,-3.89062 q 0.42188,-1.4375 0.42188,-2.0625 0,-0.375 -0.28125,-0.64063 -0.28125,-0.26562 -0.75,-0.26562 -0.21875,0 -0.54688,0.0469 l 0.15625,-0.60937 5.14063,-0.95313 0.9375,0 z m -6.875,9.90625 q 0,-0.95312 -0.375,-1.39062 -0.375,-0.4375 -0.875,-0.4375 -0.5,0 -1.07813,0.51562 -1.10937,1 -2.32812,4.03125 -1.20313,3.01563 -1.20313,5.07813 0,0.75 0.26563,1.10937 0.26562,0.35938 0.59375,0.35938 0.54687,0 1.09375,-0.5 1.32812,-1.1875 2.60937,-4.07813 1.29688,-2.90625 1.29688,-4.6875 z"
         inkscape:connector-curvature="0"
         style="fill:#000000;fill-rule:nonzero;stroke:none;stroke-linecap:square;stroke-miterlimit:10" />
      <path
         id="path5086"
         d="M 36.08617,384.62522 -219.87313,229.8039"
         inkscape:connector-curvature="0"
         style="fill:#000000;fill-opacity:0;fill-rule:nonzero;stroke:none;stroke-linecap:square;stroke-miterlimit:10" />
      <path
         id="path5090"
         d="m 55.388488,416.37795 -1.563566,0.39173 3.266086,0.65616 -2.087489,-2.63894 z"
         inkscape:connector-curvature="0"
         style="fill:#000000;fill-rule:evenodd;stroke:#000000;stroke-width:1.02134836;stroke-linecap:butt;stroke-miterlimit:10" />
      <path
         id="path5164"
         d="m -224.67251,499.30818 307.49387,0 0,48.46881 -307.49387,0 z"
         inkscape:connector-curvature="0"
         style="fill:#000000;fill-opacity:0;fill-rule:nonzero;stroke:none;stroke-linecap:square;stroke-miterlimit:10" />
      <ellipse
         style="fill:none;fill-opacity:0.98284314;stroke:#105dc7;stroke-width:1;stroke-linecap:round;stroke-linejoin:round;stroke-miterlimit:4;stroke-dasharray:2, 2;stroke-dashoffset:0;stroke-opacity:1"
         id="path8586"
         cx="25.70542"
         cy="396.48898"
         rx="38.869686"
         ry="40.326263" />
      <path
         id="path5092-1"
         d="m 37.131639,404.40685 1.563576,-0.39173 -3.266076,-0.65616 2.087468,2.63894 z"
         inkscape:connector-curvature="0"
         style="fill:#000000;fill-rule:evenodd;stroke:#000000;stroke-width:1.02134836;stroke-linecap:butt;stroke-miterlimit:10" />
      <path
         style="fill:none;fill-rule:evenodd;stroke:#000000;stroke-width:1.02134836px;stroke-linecap:butt;stroke-linejoin:miter;stroke-opacity:1"
         d="m 37.086706,404.31449 18.281981,11.83848"
         id="path8603"
         inkscape:connector-curvature="0" />
      <text
         xml:space="preserve"
         style="font-style:italic;font-variant:normal;font-weight:normal;font-stretch:normal;font-size:30px;line-height:124.00000095%;font-family:'Tinos for Powerline';-inkscape-font-specification:'Tinos for Powerline Italic';letter-spacing:0px;word-spacing:0px;writing-mode:lr-tb;fill:#000000;fill-opacity:1;stroke:none;stroke-width:1px;stroke-linecap:butt;stroke-linejoin:miter;stroke-opacity:1"
         x="96.783089"
         y="365.63318"
         id="text10367"
         sodipodi:linespacing="124%"><tspan
           sodipodi:role="line"
           id="tspan10369"
           x="96.783089"
           y="365.63318"
           style="font-style:italic;font-variant:normal;font-weight:normal;font-stretch:normal;font-family:'Tinos for Powerline';-inkscape-font-specification:'Tinos for Powerline Italic'">S</tspan></text>
    </g>
  </g>
</svg>
