<?xml version="1.0" encoding="UTF-8" standalone="no"?>
<!-- Created with Inkscape (http://www.inkscape.org/) -->

<svg
   xmlns:dc="http://purl.org/dc/elements/1.1/"
   xmlns:cc="http://creativecommons.org/ns#"
   xmlns:rdf="http://www.w3.org/1999/02/22-rdf-syntax-ns#"
   xmlns:svg="http://www.w3.org/2000/svg"
   xmlns="http://www.w3.org/2000/svg"
   xmlns:sodipodi="http://sodipodi.sourceforge.net/DTD/sodipodi-0.dtd"
   xmlns:inkscape="http://www.inkscape.org/namespaces/inkscape"
   width="95.005188mm"
   height="95.005234mm"
   viewBox="0 0 336.63256 336.63272"
   id="svg4435"
   version="1.1"
   inkscape:version="0.91 r13725"
   sodipodi:docname="dtb_query.svg">
  <defs
     id="defs4437" />
  <sodipodi:namedview
     id="base"
     pagecolor="#ffffff"
     bordercolor="#666666"
     borderopacity="1.0"
     inkscape:pageopacity="0.0"
     inkscape:pageshadow="2"
     inkscape:zoom="1.979899"
     inkscape:cx="91.354814"
     inkscape:cy="165.05565"
     inkscape:document-units="px"
     inkscape:current-layer="g5519"
     showgrid="false"
     fit-margin-top="0"
     fit-margin-left="0"
     fit-margin-right="0"
     fit-margin-bottom="0"
     inkscape:window-width="1680"
     inkscape:window-height="1000"
     inkscape:window-x="1050"
     inkscape:window-y="27"
     inkscape:window-maximized="1" />
  <metadata
     id="metadata4440">
    <rdf:RDF>
      <cc:Work
         rdf:about="">
        <dc:format>image/svg+xml</dc:format>
        <dc:type
           rdf:resource="http://purl.org/dc/dcmitype/StillImage" />
        <dc:title></dc:title>
      </cc:Work>
    </rdf:RDF>
  </metadata>
  <g
     inkscape:label="Layer 1"
     inkscape:groupmode="layer"
     id="layer1"
     transform="translate(239.74485,-142.90232)">
    <g
       id="g5519">
      <path
         id="path5056"
         d="m 96.88771,311.21868 0,0 c 0,92.95856 -75.35779,168.31635 -168.31628,168.31635 -92.95852,0 -168.31628,-75.35779 -168.31628,-168.31635 0,-92.95856 75.35776,-168.31636 168.31628,-168.31636 l 0,168.31636 z"
         inkscape:connector-curvature="0"
         style="fill:#ffc000;fill-rule:nonzero;stroke:none;stroke-linecap:square;stroke-miterlimit:10" />
      <path
         id="path5058"
         d="m 96.88771,311.21868 0,0 c 0,92.95856 -75.35779,168.31635 -168.31628,168.31635 -92.95852,0 -168.31628,-75.35779 -168.31628,-168.31635 0,-92.95856 75.35776,-168.31636 168.31628,-168.31636 l 0,168.31636 z"
         inkscape:connector-curvature="0"
         style="fill:none;fill-rule:nonzero;stroke:#000000;stroke-width:1;stroke-linecap:butt;stroke-linejoin:round;stroke-miterlimit:10" />
      <path
         id="path5060"
         d="M 27.18853,396.48921 -83.95148,332.57329"
         inkscape:connector-curvature="0"
         style="fill:#000000;fill-opacity:0;fill-rule:nonzero;stroke:none;stroke-linecap:square;stroke-miterlimit:10" />
      <path
         id="path5062"
         d="M 27.18851,396.48921 -72.0681,339.40736"
         style="fill:#4948d5;fill-opacity:1;fill-rule:evenodd;stroke:#4948d5;stroke-width:4;stroke-linecap:butt;stroke-linejoin:round;stroke-miterlimit:10;stroke-opacity:1"
         inkscape:connector-curvature="0" />
      <path
         id="path5064"
         d="m -72.06811,339.40733 6.14204,-1.65689 -12.95628,-2.26193 8.47115,10.06088 z"
         style="fill:#4948d5;fill-opacity:1;fill-rule:evenodd;stroke:#4948d5;stroke-width:4;stroke-linecap:butt;stroke-miterlimit:10;stroke-opacity:1"
         inkscape:connector-curvature="0" />
      <path
         id="path5066"
         d="m 15.32467,396.48898 0,0 c 0,-6.55219 4.64761,-11.86377 10.38074,-11.86377 l 0,0 c 2.75314,0 5.39355,1.24994 7.3403,3.47482 1.94678,2.22489 3.04046,5.2425 3.04046,8.38895 l 0,0 c 0,6.55218 -4.64761,11.86377 -10.38076,11.86377 l 0,0 c -5.73313,0 -10.38074,-5.31158 -10.38074,-11.86377 z"
         inkscape:connector-curvature="0"
         style="fill:#76923c;fill-rule:nonzero;stroke:none;stroke-linecap:square;stroke-miterlimit:10" />
      <path
         id="path5068"
         d="m 15.32467,396.48898 0,0 c 0,-6.55219 4.64761,-11.86377 10.38074,-11.86377 l 0,0 c 2.75314,0 5.39355,1.24994 7.3403,3.47482 1.94678,2.22489 3.04046,5.2425 3.04046,8.38895 l 0,0 c 0,6.55218 -4.64761,11.86377 -10.38076,11.86377 l 0,0 c -5.73313,0 -10.38074,-5.31158 -10.38074,-11.86377 z"
         style="fill:#000000;fill-opacity:1;fill-rule:nonzero;stroke:#000000;stroke-width:1;stroke-linecap:butt;stroke-linejoin:round;stroke-miterlimit:10"
         inkscape:connector-curvature="0" />
      <path
         id="path5070"
         d="m -106.53167,345.09266 45.1604,0 0,49.41571 -45.1604,0 z"
         inkscape:connector-curvature="0"
         style="fill:#000000;fill-opacity:0;fill-rule:nonzero;stroke:none;stroke-linecap:square;stroke-miterlimit:10" />
      <path
         id="path5072"
         d="m -97.25042,379.81266 0.79687,-3.70312 5.25,0 q -2.98437,-2.78125 -2.98437,-7.21875 0,-4.8125 3.32812,-8.59375 3.34375,-3.78125 8.89063,-3.78125 4.17187,0 6.76562,2.625 2.60938,2.60937 2.60938,7.01562 0,5.73438 -5.46875,9.95313 l 4.76562,0 -0.78125,3.70312 -10.60937,0 0.6875,-3.23437 q 3.39062,-0.78125 5.03125,-4.17188 1.65625,-3.40625 1.65625,-6.5 0,-2.40625 -1.375,-3.92187 -1.35938,-1.53125 -3.75,-1.53125 -3.45313,0 -5.4375,3.20312 -1.98438,3.20313 -1.98438,7.07813 0,4.09375 3.5,5.84375 l -0.70312,3.23437 -10.1875,0 z"
         style="fill:#4948d5;fill-opacity:1;fill-rule:nonzero;stroke:#4948d5;stroke-linecap:square;stroke-miterlimit:10;stroke-opacity:1"
         inkscape:connector-curvature="0" />
      <path
         id="path5074"
         d="m -5.04576,394.85798 36.23816,0 0,49.41571 -36.23816,0 z"
         inkscape:connector-curvature="0"
         style="fill:#000000;fill-opacity:0;fill-rule:nonzero;stroke:none;stroke-linecap:square;stroke-miterlimit:10" />
      <path
         id="path5076"
         d="m 5.40737,416.03111 5.45313,-0.9375 q 1.48437,2.32812 2.09375,5.125 1.53125,-2.26563 2.3125,-3.17188 1.04687,-1.21875 1.71875,-1.57812 0.6875,-0.375 1.45312,-0.375 0.85938,0 1.3125,0.46875 0.46875,0.46875 0.46875,1.26562 0,0.75 -0.46875,1.23438 -0.45312,0.46875 -1.14062,0.46875 -0.5,0 -1.15625,-0.17188 -0.64063,-0.1875 -0.89063,-0.1875 -0.65625,0 -1.25,0.46875 -0.8125,0.64063 -2,2.73438 1.32813,4.6875 2.125,5.71875 0.46875,0.60937 0.95313,0.60937 0.40625,0 0.70312,-0.20312 0.45313,-0.32813 1.39063,-1.64063 l 0.5625,0.32813 q -1.375,2.21875 -2.6875,3.125 -1,0.70312 -1.96875,0.70312 -1,0 -1.67188,-0.4375 -0.65625,-0.45312 -1.17187,-1.45312 -0.51563,-1.01563 -1.21875,-3.23438 -1.82813,2.32813 -2.875,3.40625 -1.03125,1.0625 -1.71875,1.39063 -0.6875,0.32812 -1.46875,0.32812 -0.8125,0 -1.28125,-0.46875 -0.48438,-0.46875 -0.48438,-1.21875 0,-0.79687 0.51563,-1.3125 0.51562,-0.51562 1.3125,-0.51562 0.42187,0 0.95312,0.25 0.78125,0.375 1.125,0.375 0.45313,0 0.8125,-0.1875 0.46875,-0.23438 1.1875,-1.01563 0.4375,-0.48437 1.60938,-2.0625 -1.5,-5.5625 -2.34375,-6.65625 -0.53125,-0.70312 -1.34375,-0.70312 -0.42188,0 -1.03125,0.125 l 0.10937,-0.59375 z"
         style="fill:#000000;fill-opacity:1;fill-rule:nonzero;stroke:none;stroke-linecap:square;stroke-miterlimit:10"
         inkscape:connector-curvature="0" />
      <path
         id="path5078"
         d="m -207.4701,134.09028 41.72876,0 0,49.41573 -41.72876,0 z"
         inkscape:connector-curvature="0"
         style="fill:#000000;fill-opacity:0;fill-rule:nonzero;stroke:none;stroke-linecap:square;stroke-miterlimit:10" />
      <path
         id="path5082"
         d="m -117.70291,242.26093 36.23814,0 0,49.41571 -36.23814,0 z"
         inkscape:connector-curvature="0"
         style="fill:#000000;fill-opacity:0;fill-rule:nonzero;stroke:none;stroke-linecap:square;stroke-miterlimit:10" />
      <path
         id="path5084"
         d="m -91.24978,255.30906 -5.07813,17.48438 q -0.48437,1.64062 -0.48437,1.98437 0,0.17188 0.125,0.29688 0.125,0.125 0.26562,0.125 0.26563,0 0.60938,-0.26563 0.57812,-0.4375 1.40625,-1.65625 l 0.5625,0.29688 q -2.20313,3.84375 -4.84375,3.84375 -0.9375,0 -1.45313,-0.48438 -0.5,-0.5 -0.5,-1.26562 0,-0.73438 0.40625,-2.09375 l 0.46875,-1.59375 q -1.95312,3.45312 -3.39062,4.59375 -1.09375,0.84375 -2.125,0.84375 -1.17188,0 -1.98438,-0.95313 -0.79687,-0.95312 -0.79687,-2.78125 0,-2.32812 1.03125,-4.59375 1.03125,-2.26562 2.375,-3.78125 1.35937,-1.51562 2.57812,-2.15625 1.23438,-0.65625 2.42188,-0.65625 0.60937,0 1.07812,0.25 0.48438,0.25 1.09375,0.9375 l 1.15625,-3.89062 q 0.42188,-1.4375 0.42188,-2.0625 0,-0.375 -0.28125,-0.64063 -0.28125,-0.26562 -0.75,-0.26562 -0.21875,0 -0.54688,0.0469 l 0.15625,-0.60937 5.14063,-0.95313 0.9375,0 z m -6.875,9.90625 q 0,-0.95312 -0.375,-1.39062 -0.375,-0.4375 -0.875,-0.4375 -0.5,0 -1.07813,0.51562 -1.10937,1 -2.32812,4.03125 -1.20313,3.01563 -1.20313,5.07813 0,0.75 0.26563,1.10937 0.26562,0.35938 0.59375,0.35938 0.54687,0 1.09375,-0.5 1.32812,-1.1875 2.60937,-4.07813 1.29688,-2.90625 1.29688,-4.6875 z"
         inkscape:connector-curvature="0"
         style="fill:#000000;fill-rule:nonzero;stroke:none;stroke-linecap:square;stroke-miterlimit:10" />
      <path
         id="path5086"
         d="M 36.08617,384.62522 -219.87313,229.8039"
         inkscape:connector-curvature="0"
         style="fill:#000000;fill-opacity:0;fill-rule:nonzero;stroke:none;stroke-linecap:square;stroke-miterlimit:10" />
      <path
         id="path5088"
         d="M 33.15377,382.85154 -216.94074,231.57761"
         inkscape:connector-curvature="0"
         style="fill:none;fill-rule:evenodd;stroke:#000000;stroke-width:1;stroke-linecap:butt;stroke-linejoin:round;stroke-miterlimit:10" />
      <path
         id="path5090"
         d="m 33.15377,382.85154 -1.54428,0.38022 3.2258,0.63687 -2.06174,-2.56137 z"
         inkscape:connector-curvature="0"
         style="fill:#000000;fill-rule:evenodd;stroke:#000000;stroke-width:1;stroke-linecap:butt;stroke-miterlimit:10" />
      <path
         id="path5092"
         d="m -216.94075,231.57761 1.54429,-0.38022 -3.22579,-0.63687 2.06172,2.56137 z"
         inkscape:connector-curvature="0"
         style="fill:#000000;fill-rule:evenodd;stroke:#000000;stroke-width:1;stroke-linecap:butt;stroke-miterlimit:10" />
      <path
         id="path5164"
         d="m -224.67251,499.30818 307.49387,0 0,48.46881 -307.49387,0 z"
         inkscape:connector-curvature="0"
         style="fill:#000000;fill-opacity:0;fill-rule:nonzero;stroke:none;stroke-linecap:square;stroke-miterlimit:10" />
      <path
         id="path5128"
         d="m -79.864642,471.68316 0.6875,-17.71875 q 0.0469,-1.54688 0.0469,-1.625 0,-0.85938 -0.42187,-1.26563 -0.40625,-0.40625 -1.51563,-0.48437 l 0.1875,-0.57813 8.90625,0 -0.17187,0.57813 q -1.14063,0 -1.73438,0.6875 -0.57812,0.6875 -0.67187,2.84375 l -0.5,11.04687 8.26562,-9.59375 q 1.60938,-1.85937 1.98438,-2.57812 0.375,-0.71875 0.375,-1.25 0,-0.39063 -0.34375,-0.6875 -0.34375,-0.3125 -1.3125,-0.46875 l 0.21875,-0.57813 5.84375,0 0,0.57813 q -0.75,0.1875 -1.21875,0.54687 -0.6875,0.51563 -2.125,2.1875 l -15.8125,18.35938 -0.6875,0 z"
         inkscape:connector-curvature="0"
         style="fill:#000000;fill-rule:nonzero;stroke:none;stroke-linecap:square;stroke-miterlimit:10" />
      <text
         xml:space="preserve"
         style="font-style:italic;font-variant:normal;font-weight:normal;font-stretch:normal;font-size:30px;line-height:124.00000095%;font-family:'Tinos for Powerline';-inkscape-font-specification:'Tinos for Powerline Italic';letter-spacing:0px;word-spacing:0px;writing-mode:lr-tb;fill:#000000;fill-opacity:1;stroke:none;stroke-width:1px;stroke-linecap:butt;stroke-linejoin:miter;stroke-opacity:1"
         x="-211.54179"
         y="190.5705"
         id="text10367"
         sodipodi:linespacing="124%"><tspan
           sodipodi:role="line"
           id="tspan10369"
           x="-211.54179"
           y="190.5705"
           style="font-style:italic;font-variant:normal;font-weight:normal;font-stretch:normal;font-family:'Tinos for Powerline';-inkscape-font-specification:'Tinos for Powerline Italic'">S</tspan></text>
    </g>
  </g>
</svg>
