<svg class="main-svg" xmlns="http://www.w3.org/2000/svg" xmlns:xlink="http://www.w3.org/1999/xlink" width="900" height="600" viewBox="0 0 900 600"><rect x="0" y="0" width="900" height="600" style="fill: rgb(255, 255, 255); fill-opacity: 1;"/><defs id="defs-bb0d8d"><g class="clips"><clipPath id="clipbb0d8dxyplot" class="plotclip"><rect width="740" height="420"/></clipPath><clipPath class="axesclip" id="clipbb0d8dx"><rect x="80" y="0" width="740" height="600"/></clipPath><clipPath class="axesclip" id="clipbb0d8dy"><rect x="0" y="100" width="900" height="420"/></clipPath><clipPath class="axesclip" id="clipbb0d8dxy"><rect x="80" y="100" width="740" height="420"/></clipPath></g><g class="gradients"/></defs><g class="bglayer"><rect class="bg" x="80" y="100" width="740" height="420" style="fill: rgb(255, 255, 255); fill-opacity: 1; stroke-width: 0;"/></g><g class="layer-below"><g class="imagelayer"/><g class="shapelayer"/></g><g class="cartesianlayer"><g class="subplot xy"><g class="layer-subplot"><g class="shapelayer"/><g class="imagelayer"/></g><g class="gridlayer"><g class="x"><path class="xgrid crisp" d="M0,100v420" transform="translate(208.41,0)" style="stroke: rgb(127, 127, 127); stroke-opacity: 1; stroke-width: 1px;"/><path class="xgrid crisp" d="M0,100v420" transform="translate(336.82,0)" style="stroke: rgb(127, 127, 127); stroke-opacity: 1; stroke-width: 1px;"/><path class="xgrid crisp" d="M0,100v420" transform="translate(465.22,0)" style="stroke: rgb(127, 127, 127); stroke-opacity: 1; stroke-width: 1px;"/><path class="xgrid crisp" d="M0,100v420" transform="translate(593.63,0)" style="stroke: rgb(127, 127, 127); stroke-opacity: 1; stroke-width: 1px;"/><path class="xgrid crisp" d="M0,100v420" transform="translate(722.04,0)" style="stroke: rgb(127, 127, 127); stroke-opacity: 1; stroke-width: 1px;"/></g><g class="y"><path class="ygrid crisp" d="M80,0h740" transform="translate(0,423.32)" style="stroke: rgb(127, 127, 127); stroke-opacity: 1; stroke-width: 1px;"/><path class="ygrid crisp" d="M80,0h740" transform="translate(0,347.65)" style="stroke: rgb(127, 127, 127); stroke-opacity: 1; stroke-width: 1px;"/><path class="ygrid crisp" d="M80,0h740" transform="translate(0,271.97)" style="stroke: rgb(127, 127, 127); stroke-opacity: 1; stroke-width: 1px;"/><path class="ygrid crisp" d="M80,0h740" transform="translate(0,196.3)" style="stroke: rgb(127, 127, 127); stroke-opacity: 1; stroke-width: 1px;"/><path class="ygrid crisp" d="M80,0h740" transform="translate(0,120.62)" style="stroke: rgb(127, 127, 127); stroke-opacity: 1; stroke-width: 1px;"/></g></g><g class="zerolinelayer"><path class="xzl zl crisp" d="M0,100v420" transform="translate(80,0)" style="stroke: rgb(68, 68, 68); stroke-opacity: 1; stroke-width: 1px;"/><path class="yzl zl crisp" d="M80,0h740" transform="translate(0,499)" style="stroke: rgb(68, 68, 68); stroke-opacity: 1; stroke-width: 1px;"/></g><path class="xlines-below"/><path class="ylines-below"/><g class="overlines-below"/><g class="xaxislayer-below"/><g class="yaxislayer-below"/><g class="overaxes-below"/><g class="plot" transform="translate(80, 100)" clip-path="url(#clipbb0d8dxyplot)"><g class="scatterlayer mlayer"><g class="trace scatter tracec8b5a8" style="stroke-miterlimit: 2; opacity: 1;"><path class="js-line" d="M0,399L0.75,330.89L0.77,330.89L18.49,330.14L18.5,329.76L19.94,329.38L19.95,329L20.97,326.73L20.99,326.73L21.24,326.35L21.25,325.97L23.19,325.22L23.21,324.84L23.52,324.46L23.53,324.08L23.75,323.7L23.77,323.32L24.73,321.81L24.75,321.81L26.71,316.14L26.73,316.14L26.92,315.76L26.94,315.38L27.37,315L27.38,314.62L28.22,312.73L28.24,312.73L29.56,309.7L29.57,309.7L30.37,308.57L30.39,308.57L32.74,308.19L32.75,307.43L33.73,306.68L33.74,306.3L35.71,301.38L35.73,301.38L38.18,290.41L38.2,290.41L39.04,286.62L39.06,286.62L40.36,279.43L40.38,279.43L41.72,277.92L41.74,277.92L41.97,277.54L41.99,277.16L42.77,274.14L42.79,274.14L43.6,271.86L43.62,271.86L44.37,271.49L44.39,270.73L44.65,270.35L44.67,269.97L45.3,269.22L45.32,268.84L45.72,268.46L45.73,268.08L46.65,267.32L46.67,267.32L48.23,261.27L48.25,261.27L48.65,260.89L48.66,260.51L48.94,259.76L48.96,259.38L49.17,259L49.18,258.62L49.64,258.24L49.65,257.86L50.59,257.11L50.6,256.73L51.42,256.35L51.43,255.59L52.39,254.46L52.41,254.46L53.95,254.08L53.96,253.7L54.86,252.57L54.88,252.57L55.86,252.19L55.87,251.81L56.74,249.54L56.76,249.54L57.35,249.16L57.37,248.78L58.77,245.76L58.79,245.76L60.04,245.38L60.06,245L60.95,244.62L60.96,244.24L64.13,243.49L64.14,243.11L64.51,242.73L64.53,242.35L65.28,241.97L65.3,241.97L68.61,241.22L68.63,240.84L69.75,240.46L69.77,240.08L70.63,239.7L70.64,239.32L72.68,234.03L72.7,234.03L73.51,232.14L73.53,232.14L74,231.76L74.02,231.38L74.31,231L74.33,230.62L75.14,228.73L75.16,228.73L75.47,228.35L75.48,227.97L77.76,221.54L77.78,221.54L79.18,221.16L79.2,220.78L80.29,220.03L80.31,219.65L80.59,219.27L80.6,218.89L81.96,216.62L81.98,216.62L82.6,216.24L82.62,215.86L84.75,215.11L84.76,214.73L85.65,212.08L85.66,212.08L86.77,210.57L86.79,210.57L87.81,209.81L87.82,209.81L88.3,209.43L88.31,209.05L90.16,208.3L90.18,207.92L90.95,207.54L90.96,207.16L92.03,206.03L92.04,206.03L93.42,205.65L93.43,205.27L93.89,204.89L93.91,204.51L95.03,202.24L95.05,202.24L95.98,199.97L95.99,199.97L96.82,198.84L96.84,198.84L97.98,197.7L97.99,197.7L100.49,196.95L100.51,196.57L100.98,196.19L101,195.43L102.09,194.68L102.11,194.3L102.74,193.92L102.76,193.16L103.59,192.41L103.6,192.41L106.19,192.03L106.21,191.65L107.01,189.38L107.02,189.38L107.23,189L107.24,188.62L108.87,185.59L108.89,185.59L111.61,185.22L111.62,184.46L112.6,182.95L112.62,182.95L113.09,182.57L113.1,182.19L114.11,181.43L114.13,181.43L114.97,181.05L114.98,181.05L115.83,180.3L115.84,180.3L116.92,178.78L116.94,178.78L117.69,178.03L117.71,177.65L118.68,176.89L118.7,176.89L119.94,173.49L119.96,173.49L120.86,172.35L120.87,172.35L121.7,171.97L121.72,171.59L122.47,171.22L122.49,171.22L123.24,170.84L123.26,170.46L125.31,170.08L125.33,169.7L127.21,168.95L127.22,168.57L128.11,168.19L128.13,168.19L128.44,167.81L128.45,167.43L132.73,166.68L132.74,166.3L133.54,165.54L133.56,165.54L134.89,165.16L134.9,164.78L136.52,164.03L136.53,163.65L137.42,161L137.44,161L139.29,160.62L139.3,160.24L140.68,158.35L140.69,158.35L141.93,156.84L141.95,156.84L143.3,156.46L143.31,156.08L144.26,154.57L144.27,154.57L145.35,153.81L145.37,153.81L146.32,153.43L146.33,153.43L147.19,153.05L147.2,153.05L148.45,152.3L148.46,151.92L148.91,151.54L148.92,151.16L150.62,148.89L150.64,148.89L151.78,148.14L151.79,147.76L152.46,147.38L152.47,147L153.3,146.24L153.32,146.24L154.41,145.11L154.43,145.11L155.06,144.73L155.08,144.35L156.41,141.32L156.42,141.32L156.94,140.57L156.96,140.19L157.95,139.81L157.96,139.43L159.25,138.68L159.27,138.3L160.17,136.41L160.18,136.41L161.43,135.27L161.44,135.27L162.06,134.89L162.08,134.51L162.98,133L163,133L163.71,132.62L163.72,132.24L164.56,130.35L164.58,130.35L165.93,129.97L165.94,129.59L166.65,128.84L166.67,128.46L167.24,128.08L167.26,127.7L168.6,125.05L168.62,125.05L169.48,120.89L169.49,120.89L171.14,120.14L171.15,119.76L172.2,118.24L172.22,118.24L172.97,117.49L172.99,116.73L174.97,112.95L174.98,112.95L175.81,112.57L175.83,112.19L176.79,109.54L176.8,109.54L178.39,109.16L178.4,108.78L179.19,108.03L179.2,107.65L179.45,107.27L179.47,106.89L180.34,106.51L180.36,106.51L184.19,105.76L184.2,105.38L184.5,105L184.52,104.62L185.36,100.84L185.37,100.84L186.54,97.43L186.56,97.43L187.73,96.68L187.74,96.3L188.14,95.92L188.16,95.54L189.53,93.65L189.55,93.65L192.18,93.27L192.2,92.89L194.82,92.14L194.83,91.76L196.64,91.38L196.65,91L200.48,90.62L200.5,90.24L201.46,89.11L201.48,89.11L202.35,88.35L202.36,88.35L203.22,87.97L203.24,87.97L204.07,87.59L204.08,87.59L207.03,86.84L207.04,86.46L207.94,86.08L207.96,86.08L210.62,85.7L210.64,85.32L212.44,84.57L212.46,84.19L213.36,83.43L213.38,83.43L215.77,82.68L215.79,82.3L216.72,81.92L216.74,81.54L222.66,81.16L222.67,80.78L225.07,80.03L225.08,79.65L225.51,79.27L225.53,78.89L229.11,78.14L229.12,77.76L230.04,77.38L230.06,77.38L231.82,77L231.83,76.62L234.01,76.24L234.02,75.86L238.52,75.11L238.54,74.73L240.93,74.35L240.95,73.97L243.05,73.22L243.07,72.84L245.58,72.46L245.6,72.08L251.01,71.7L251.03,71.32L259.76,70.57L259.77,69.81L262.35,69.43L262.36,69.05L263.25,68.68L263.27,68.68L266.09,68.3L266.11,67.92L272.24,67.54L272.25,67.16L273.72,66.41L273.73,66.03L283.38,65.65L283.4,65.27L284.21,64.89L284.22,64.51L292.01,64.14L292.02,63.76L295.98,63.38L295.99,63L298.91,62.62L298.92,62.24L300.36,61.49L300.37,61.11L302.22,60.73L302.24,60.35L304.62,59.97L304.63,59.59L305.06,58.84L305.08,58.46L306.47,58.08L306.48,57.7L315.42,56.95L315.44,56.57L317.76,56.19L317.78,55.81L320.71,55.43L320.72,55.05L321.58,53.54L321.6,53.54L325.1,53.16L325.12,52.78L326.07,52.03L326.08,52.03L327.99,51.65L328,51.27L328.86,50.51L328.88,50.51L331.22,49.76L331.23,49.38L334.4,49L334.41,48.62L335.74,46.73L335.76,46.73L338.62,46.35L338.63,45.97L339.53,44.84L339.55,44.84L340.32,44.08L340.33,44.08L342.46,43.7L342.48,43.32L348.58,42.57L348.59,42.19L350.75,41.81L350.77,41.43L356.66,40.68L356.67,40.3L360.46,39.92L360.48,39.54L368.66,39.16L368.68,38.78L370.9,38.03L370.91,37.65L376.52,37.27L376.53,36.89L384.39,36.14L384.41,35.76L397.33,35.38L397.34,35L404.15,34.62L404.17,34.24L409.11,33.49L409.12,33.11L439.82,32.73L439.84,32.35L453.23,31.97L453.24,31.59L488.16,30.84L488.17,30.46L489.24,29.7L489.25,29.7L504.91,28.95L504.93,28.57L507.01,28.19L507.03,27.81L507.84,26.68L507.86,26.68L516.01,26.3L516.03,25.92L538.04,25.54L538.05,25.16L606.15,24.41L606.16,24.03L609.51,23.65L609.52,23.27L637.37,22.89L637.39,22.51L668.09,21.76L668.1,21.38L740,21" style="vector-effect: non-scaling-stroke; fill: none; stroke: rgb(31, 119, 180); stroke-opacity: 1; stroke-width: 2.5px; opacity: 1;"/><g class="points"/></g></g></g><g class="overplot"/><path class="xlines-above crisp" d="M0,0" style="fill: none;"/><path class="ylines-above crisp" d="M0,0" style="fill: none;"/><g class="overlines-above"/><g class="xaxislayer-above"><g class="xtick"><text text-anchor="middle" x="0" y="535" transform="translate(80,0)" style="font-family: 'Open Sans', verdana, arial, sans-serif; font-size: 14px; fill: rgb(68, 68, 68); fill-opacity: 1; white-space: pre;">0</text></g><g class="xtick"><text text-anchor="middle" x="0" y="535" transform="translate(208.41,0)" style="font-family: 'Open Sans', verdana, arial, sans-serif; font-size: 14px; fill: rgb(68, 68, 68); fill-opacity: 1; white-space: pre;">0.005</text></g><g class="xtick"><text text-anchor="middle" x="0" y="535" transform="translate(336.82,0)" style="font-family: 'Open Sans', verdana, arial, sans-serif; font-size: 14px; fill: rgb(68, 68, 68); fill-opacity: 1; white-space: pre;">0.01</text></g><g class="xtick"><text text-anchor="middle" x="0" y="535" transform="translate(465.22,0)" style="font-family: 'Open Sans', verdana, arial, sans-serif; font-size: 14px; fill: rgb(68, 68, 68); fill-opacity: 1; white-space: pre;">0.015</text></g><g class="xtick"><text text-anchor="middle" x="0" y="535" transform="translate(593.63,0)" style="font-family: 'Open Sans', verdana, arial, sans-serif; font-size: 14px; fill: rgb(68, 68, 68); fill-opacity: 1; white-space: pre;">0.02</text></g><g class="xtick"><text text-anchor="middle" x="0" y="535" transform="translate(722.04,0)" style="font-family: 'Open Sans', verdana, arial, sans-serif; font-size: 14px; fill: rgb(68, 68, 68); fill-opacity: 1; white-space: pre;">0.025</text></g></g><g class="yaxislayer-above"><g class="ytick"><text text-anchor="end" x="79" y="4.8999999999999995" transform="translate(0,499)" style="font-family: 'Open Sans', verdana, arial, sans-serif; font-size: 14px; fill: rgb(68, 68, 68); fill-opacity: 1; white-space: pre;">0</text></g><g class="ytick"><text text-anchor="end" x="79" y="4.8999999999999995" transform="translate(0,423.32)" style="font-family: 'Open Sans', verdana, arial, sans-serif; font-size: 14px; fill: rgb(68, 68, 68); fill-opacity: 1; white-space: pre;">0.2</text></g><g class="ytick"><text text-anchor="end" x="79" y="4.8999999999999995" transform="translate(0,347.65)" style="font-family: 'Open Sans', verdana, arial, sans-serif; font-size: 14px; fill: rgb(68, 68, 68); fill-opacity: 1; white-space: pre;">0.4</text></g><g class="ytick"><text text-anchor="end" x="79" y="4.8999999999999995" transform="translate(0,271.97)" style="font-family: 'Open Sans', verdana, arial, sans-serif; font-size: 14px; fill: rgb(68, 68, 68); fill-opacity: 1; white-space: pre;">0.6</text></g><g class="ytick"><text text-anchor="end" x="79" y="4.8999999999999995" transform="translate(0,196.3)" style="font-family: 'Open Sans', verdana, arial, sans-serif; font-size: 14px; fill: rgb(68, 68, 68); fill-opacity: 1; white-space: pre;">0.8</text></g><g class="ytick"><text text-anchor="end" x="79" y="4.8999999999999995" transform="translate(0,120.62)" style="font-family: 'Open Sans', verdana, arial, sans-serif; font-size: 14px; fill: rgb(68, 68, 68); fill-opacity: 1; white-space: pre;">1</text></g></g><g class="overaxes-above"/></g></g><g class="polarlayer"/><g class="ternarylayer"/><g class="geolayer"/><g class="pielayer"/><g class="glimages"/><defs id="topdefs-bb0d8d"><g class="clips"/></defs><g class="layer-above"><g class="imagelayer"/><g class="shapelayer"/></g><g class="infolayer"><g class="g-gtitle"><text class="gtitle" x="450" y="50" text-anchor="middle" style="font-family: 'Open Sans', verdana, arial, sans-serif; font-size: 18px; fill: rgb(68, 68, 68); opacity: 1; font-weight: normal; white-space: pre;">FNG Meshtal Difference</text></g><g class="g-xtitle"><text class="xtitle" x="450" y="578" text-anchor="middle" style="font-family: 'Open Sans', verdana, arial, sans-serif; font-size: 16px; fill: rgb(68, 68, 68); opacity: 1; font-weight: normal; white-space: pre;">Standard Deviations</text></g><g class="g-ytitle"><text class="ytitle" transform="rotate(-90,38,310)" x="38" y="310" text-anchor="middle" style="font-family: 'Open Sans', verdana, arial, sans-serif; font-size: 16px; fill: rgb(68, 68, 68); opacity: 1; font-weight: normal; white-space: pre;">Relative Number of Tally Values</text></g></g></svg>