<?xml version="1.0" encoding="UTF-8" standalone="no"?>
<svg
   xmlns:dc="http://purl.org/dc/elements/1.1/"
   xmlns:cc="http://creativecommons.org/ns#"
   xmlns:rdf="http://www.w3.org/1999/02/22-rdf-syntax-ns#"
   xmlns:svg="http://www.w3.org/2000/svg"
   xmlns="http://www.w3.org/2000/svg"
   xmlns:sodipodi="http://sodipodi.sourceforge.net/DTD/sodipodi-0.dtd"
   xmlns:inkscape="http://www.inkscape.org/namespaces/inkscape"
   version="1.1"
   viewBox="0 0 717.53809 157.70604"
   stroke-miterlimit="10"
   id="svg4241"
   inkscape:version="0.91 r13725"
   sodipodi:docname="leaf_encoding.svg"
   width="717.53809"
   height="157.70604"
   style="fill:none;stroke:none;stroke-linecap:square;stroke-miterlimit:10">
  <metadata
     id="metadata4306">
    <rdf:RDF>
      <cc:Work
         rdf:about="">
        <dc:format>image/svg+xml</dc:format>
        <dc:type
           rdf:resource="http://purl.org/dc/dcmitype/StillImage" />
        <dc:title></dc:title>
      </cc:Work>
    </rdf:RDF>
  </metadata>
  <defs
     id="defs4304" />
  <sodipodi:namedview
     pagecolor="#ffffff"
     bordercolor="#666666"
     borderopacity="1"
     objecttolerance="10"
     gridtolerance="10"
     guidetolerance="10"
     inkscape:pageopacity="0"
     inkscape:pageshadow="2"
     inkscape:window-width="1600"
     inkscape:window-height="827"
     id="namedview4302"
     showgrid="false"
     fit-margin-top="0"
     fit-margin-left="0"
     fit-margin-right="0"
     fit-margin-bottom="0"
     inkscape:zoom="0.5703125"
     inkscape:cx="348.17647"
     inkscape:cy="-160.0332"
     inkscape:window-x="0"
     inkscape:window-y="27"
     inkscape:window-maximized="1"
     inkscape:current-layer="g4246" />
  <clipPath
     id="g3857675270_0_0.0">
    <path
       d="M 0,0 960,0 960,540 0,540 0,0 Z"
       id="path4244"
       inkscape:connector-curvature="0"
       style="clip-rule:nonzero" />
  </clipPath>
  <g
     clip-path="url(#g3857675270_0_0.0)"
     id="g4246"
     transform="translate(-121.23097,-182.77559)">
    <path
       d="m 513.1496,194.4147 61.23441,0 0,35.65353 -61.23441,0 z"
       id="path4250"
       inkscape:connector-curvature="0"
       style="fill:#eeeeee;fill-rule:evenodd" />
    <path
       d="m 520.53176,194.42699 54.19613,0 0,35.62895 -54.19613,0 z"
       id="path4252"
       inkscape:connector-curvature="0"
       style="fill-rule:evenodd;stroke:#595959;stroke-width:1.02458763;stroke-linecap:butt;stroke-linejoin:round" />
    <path
       d="m 490.40945,194.4147 22.74014,0 0,35.65353 -22.74014,0 z"
       id="path4254"
       inkscape:connector-curvature="0"
       style="fill:#eeeeee;fill-rule:evenodd" />
    <path
       d="m 500.3807,194.38595 20.16751,0 0,35.71103 -20.16751,0 z"
       id="path4256"
       inkscape:connector-curvature="0"
       style="fill-rule:evenodd;stroke:#595959;stroke-width:0.94249594;stroke-linecap:butt;stroke-linejoin:round" />
    <path
       d="m 295.10236,194.4147 195.3071,0 0,35.65353 -195.3071,0 z"
       id="path4258"
       inkscape:connector-curvature="0"
       style="fill:#eeeeee;fill-rule:evenodd" />
    <path
       d="m 289.4232,194.43417 211.04898,0 0,35.61459 -211.04898,0 z"
       id="path4260"
       inkscape:connector-curvature="0"
       style="fill-rule:evenodd;stroke:#595959;stroke-width:1.0389514;stroke-linecap:butt;stroke-linejoin:round" />
    <path
       d="m 121.23097,182.77559 617.98425,0 0,95.59056 -617.98425,0 z"
       id="path4262"
       inkscape:connector-curvature="0"
       style="fill:#000000;fill-opacity:0;fill-rule:evenodd" />
    <path
       d="m 299.76996,222.49559 -2.8125,0 0,-17.92188 q -1.01562,0.96875 -2.67187,1.9375 -1.64063,0.96875 -2.95313,1.45313 l 0,-2.71875 q 2.35938,-1.10938 4.125,-2.6875 1.76563,-1.57813 2.5,-3.0625 l 1.8125,0 0,23 z m 17.79688,0 -2.8125,0 0,-17.92188 q -1.01563,0.96875 -2.67188,1.9375 -1.64062,0.96875 -2.95312,1.45313 l 0,-2.71875 q 2.35937,-1.10938 4.125,-2.6875 1.76562,-1.57813 2.5,-3.0625 l 1.8125,0 0,23 z m 17.79687,0 -2.8125,0 0,-17.92188 q -1.01562,0.96875 -2.67187,1.9375 -1.64063,0.96875 -2.95313,1.45313 l 0,-2.71875 q 2.35938,-1.10938 4.125,-2.6875 1.76563,-1.57813 2.5,-3.0625 l 1.8125,0 0,23 z m 17.79688,0 -2.8125,0 0,-17.92188 q -1.01563,0.96875 -2.67188,1.9375 -1.64062,0.96875 -2.95312,1.45313 l 0,-2.71875 q 2.35937,-1.10938 4.125,-2.6875 1.76562,-1.57813 2.5,-3.0625 l 1.8125,0 0,23 z m 17.79687,0 -2.8125,0 0,-17.92188 q -1.01562,0.96875 -2.67187,1.9375 -1.64063,0.96875 -2.95313,1.45313 l 0,-2.71875 q 2.35938,-1.10938 4.125,-2.6875 1.76563,-1.57813 2.5,-3.0625 l 1.8125,0 0,23 z m 17.79688,0 -2.8125,0 0,-17.92188 q -1.01563,0.96875 -2.67188,1.9375 -1.64062,0.96875 -2.95312,1.45313 l 0,-2.71875 q 2.35937,-1.10938 4.125,-2.6875 1.76562,-1.57813 2.5,-3.0625 l 1.8125,0 0,23 z m 17.79687,0 -2.8125,0 0,-17.92188 q -1.01562,0.96875 -2.67187,1.9375 -1.64063,0.96875 -2.95313,1.45313 l 0,-2.71875 q 2.35938,-1.10938 4.125,-2.6875 1.76563,-1.57813 2.5,-3.0625 l 1.8125,0 0,23 z m 17.79688,0 -2.8125,0 0,-17.92188 q -1.01563,0.96875 -2.67188,1.9375 -1.64062,0.96875 -2.95312,1.45313 l 0,-2.71875 q 2.35937,-1.10938 4.125,-2.6875 1.76562,-1.57813 2.5,-3.0625 l 1.8125,0 0,23 z m 7.20312,-11.29688 q 0,-4.0625 0.82813,-6.53125 0.84375,-2.48437 2.48437,-3.82812 1.65625,-1.34375 4.15625,-1.34375 1.84375,0 3.23438,0.75 1.39062,0.73437 2.29687,2.14062 0.90625,1.39063 1.42188,3.40625 0.51562,2 0.51562,5.40625 0,4.03125 -0.82812,6.51563 -0.82813,2.46875 -2.48438,3.82812 -1.64062,1.34375 -4.15625,1.34375 -3.3125,0 -5.20312,-2.375 -2.26563,-2.85937 -2.26563,-9.3125 z m 2.89063,0 q 0,5.64063 1.3125,7.51563 1.32812,1.85937 3.26562,1.85937 1.9375,0 3.25,-1.875 1.32813,-1.875 1.32813,-7.5 0,-5.65625 -1.32813,-7.51562 -1.3125,-1.85938 -3.28125,-1.85938 -1.9375,0 -3.09375,1.64063 -1.45312,2.09375 -1.45312,7.73437 z m 25.5,11.29688 -2.8125,0 0,-17.92188 q -1.01563,0.96875 -2.67188,1.9375 -1.64062,0.96875 -2.95312,1.45313 l 0,-2.71875 q 2.35937,-1.10938 4.125,-2.6875 1.76562,-1.57813 2.5,-3.0625 l 1.8125,0 0,23 z m 7.20312,-11.29688 q 0,-4.0625 0.82813,-6.53125 0.84375,-2.48437 2.48437,-3.82812 1.65625,-1.34375 4.15625,-1.34375 1.84375,0 3.23438,0.75 1.39062,0.73437 2.29687,2.14062 0.90625,1.39063 1.42188,3.40625 0.51562,2 0.51562,5.40625 0,4.03125 -0.82812,6.51563 -0.82813,2.46875 -2.48438,3.82812 -1.64062,1.34375 -4.15625,1.34375 -3.3125,0 -5.20312,-2.375 -2.26563,-2.85937 -2.26563,-9.3125 z m 2.89063,0 q 0,5.64063 1.3125,7.51563 1.32812,1.85937 3.26562,1.85937 1.9375,0 3.25,-1.875 1.32813,-1.875 1.32813,-7.5 0,-5.65625 -1.32813,-7.51562 -1.3125,-1.85938 -3.28125,-1.85938 -1.9375,0 -3.09375,1.64063 -1.45312,2.09375 -1.45312,7.73437 z m 25.5,11.29688 -2.8125,0 0,-17.92188 q -1.01563,0.96875 -2.67188,1.9375 -1.64062,0.96875 -2.95312,1.45313 l 0,-2.71875 q 2.35937,-1.10938 4.125,-2.6875 1.76562,-1.57813 2.5,-3.0625 l 1.8125,0 0,23 z"
       id="path4264"
       inkscape:connector-curvature="0"
       style="fill:#e69138;fill-rule:nonzero" />
    <path
       d="m 513.33246,222.49559 -2.8125,0 0,-17.92188 q -1.01563,0.96875 -2.67188,1.9375 -1.64062,0.96875 -2.95312,1.45313 l 0,-2.71875 q 2.35937,-1.10938 4.125,-2.6875 1.76562,-1.57813 2.5,-3.0625 l 1.8125,0 0,23 z"
       id="path4266"
       inkscape:connector-curvature="0"
       style="fill:#990000;fill-rule:nonzero" />
    <path
       d="m 531.12933,222.49559 -2.8125,0 0,-17.92188 q -1.01563,0.96875 -2.67188,1.9375 -1.64062,0.96875 -2.95312,1.45313 l 0,-2.71875 q 2.35937,-1.10938 4.125,-2.6875 1.76562,-1.57813 2.5,-3.0625 l 1.8125,0 0,23 z m 7.20312,-11.29688 q 0,-4.0625 0.82813,-6.53125 0.84375,-2.48437 2.48437,-3.82812 1.65625,-1.34375 4.15625,-1.34375 1.84375,0 3.23438,0.75 1.39062,0.73437 2.29687,2.14062 0.90625,1.39063 1.42188,3.40625 0.51562,2 0.51562,5.40625 0,4.03125 -0.82812,6.51563 -0.82813,2.46875 -2.48438,3.82812 -1.64062,1.34375 -4.15625,1.34375 -3.3125,0 -5.20312,-2.375 -2.26563,-2.85937 -2.26563,-9.3125 z m 2.89063,0 q 0,5.64063 1.3125,7.51563 1.32812,1.85937 3.26562,1.85937 1.9375,0 3.25,-1.875 1.32813,-1.875 1.32813,-7.5 0,-5.65625 -1.32813,-7.51562 -1.3125,-1.85938 -3.28125,-1.85938 -1.9375,0 -3.09375,1.64063 -1.45312,2.09375 -1.45312,7.73437 z m 25.5,11.29688 -2.8125,0 0,-17.92188 q -1.01563,0.96875 -2.67188,1.9375 -1.64062,0.96875 -2.95312,1.45313 l 0,-2.71875 q 2.35937,-1.10938 4.125,-2.6875 1.76562,-1.57813 2.5,-3.0625 l 1.8125,0 0,23 z"
       id="path4268"
       inkscape:connector-curvature="0"
       style="fill:#6aa84f;fill-rule:nonzero" />
    <path
       d="m 270.5538,282.32745 64.94489,-40.88188"
       id="path4270"
       inkscape:connector-curvature="0"
       style="fill:#000000;fill-opacity:0;fill-rule:evenodd" />
    <path
       d="m 270.5538,282.32745 59.86716,-37.68552"
       id="path4272"
       inkscape:connector-curvature="0"
       style="fill-rule:evenodd;stroke:#595959;stroke-width:1;stroke-linecap:butt;stroke-linejoin:round" />
    <path
       d="m 331.30087,246.03978 2.96063,-3.81541 -4.72046,1.01973 z"
       id="path4274"
       inkscape:connector-curvature="0"
       style="fill:#595959;fill-rule:evenodd;stroke:#595959;stroke-width:1;stroke-linecap:butt" />
    <path
       d="m 198.11285,282.32745 144.8819,0 0,40.8819 -144.8819,0 z"
       id="path4276"
       inkscape:connector-curvature="0"
       style="fill:#000000;fill-opacity:0;fill-rule:evenodd" />
    <path
       d="m 208.55035,309.24747 0,-13.35937 5.04687,0 q 1.32813,0 2.03125,0.125 0.96875,0.17187 1.64063,0.64062 0.67187,0.45313 1.07812,1.28125 0.40625,0.82813 0.40625,1.82813 0,1.70312 -1.09375,2.89062 -1.07812,1.17188 -3.92187,1.17188 l -3.42188,0 0,5.42187 -1.76562,0 z m 1.76562,-7 3.45313,0 q 1.71875,0 2.4375,-0.64062 0.71875,-0.64063 0.71875,-1.79688 0,-0.84375 -0.42188,-1.4375 -0.42187,-0.59375 -1.125,-0.78125 -0.4375,-0.125 -1.64062,-0.125 l -3.42188,0 0,4.78125 z m 9.86545,2.15625 q 0,-2.6875 1.48438,-3.96875 1.25,-1.07812 3.04687,-1.07812 2,0 3.26563,1.3125 1.26562,1.29687 1.26562,3.60937 0,1.85938 -0.5625,2.9375 -0.5625,1.0625 -1.64062,1.65625 -1.0625,0.59375 -2.32813,0.59375 -2.03125,0 -3.28125,-1.29687 -1.25,-1.3125 -1.25,-3.76563 z m 1.6875,0 q 0,1.85938 0.79688,2.79688 0.8125,0.92187 2.04687,0.92187 1.21875,0 2.03125,-0.92187 0.8125,-0.9375 0.8125,-2.84375 0,-1.79688 -0.8125,-2.71875 -0.8125,-0.92188 -2.03125,-0.92188 -1.23437,0 -2.04687,0.92188 -0.79688,0.90625 -0.79688,2.76562 z m 9.29759,-6.625 0,-1.89062 1.64063,0 0,1.89062 -1.64063,0 z m 0,11.46875 0,-9.67187 1.64063,0 0,9.67187 -1.64063,0 z m 4.14483,0 0,-9.67187 1.46875,0 0,1.375 q 1.0625,-1.59375 3.07812,-1.59375 0.875,0 1.60938,0.3125 0.73437,0.3125 1.09375,0.82812 0.375,0.5 0.51562,1.20313 0.0937,0.45312 0.0937,1.59375 l 0,5.95312 -1.64062,0 0,-5.89062 q 0,-1 -0.20313,-1.48438 -0.1875,-0.5 -0.67187,-0.79687 -0.48438,-0.29688 -1.14063,-0.29688 -1.04687,0 -1.8125,0.67188 -0.75,0.65625 -0.75,2.51562 l 0,5.28125 -1.64062,0 z m 13.95384,-1.46875 0.23437,1.45313 q -0.6875,0.14062 -1.23437,0.14062 -0.89063,0 -1.39063,-0.28125 -0.48437,-0.28125 -0.6875,-0.73437 -0.20312,-0.46875 -0.20312,-1.9375 l 0,-5.57813 -1.20313,0 0,-1.26562 1.20313,0 0,-2.39063 1.625,-0.98437 0,3.375 1.65625,0 0,1.26562 -1.65625,0 0,5.67188 q 0,0.6875 0.0781,0.89062 0.0937,0.20313 0.28125,0.32813 0.20313,0.10937 0.57813,0.10937 0.26562,0 0.71875,-0.0625 z m 8.23018,-1.64062 1.6875,0.20312 q -0.40625,1.48438 -1.48438,2.3125 -1.07812,0.8125 -2.76562,0.8125 -2.125,0 -3.375,-1.29687 -1.23438,-1.3125 -1.23438,-3.67188 0,-2.45312 1.25,-3.79687 1.26563,-1.34375 3.26563,-1.34375 1.9375,0 3.15625,1.32812 1.23437,1.3125 1.23437,3.70313 0,0.15625 0,0.4375 l -7.21875,0 q 0.0937,1.59375 0.90625,2.45312 0.8125,0.84375 2.01563,0.84375 0.90625,0 1.54687,-0.46875 0.64063,-0.48437 1.01563,-1.51562 z m -5.39063,-2.65625 5.40625,0 q -0.10937,-1.21875 -0.625,-1.82813 -0.78125,-0.95312 -2.03125,-0.95312 -1.125,0 -1.90625,0.76562 -0.76562,0.75 -0.84375,2.01563 z m 9.12573,5.76562 0,-9.67187 1.46875,0 0,1.46875 q 0.5625,-1.03125 1.03125,-1.35938 0.48438,-0.32812 1.0625,-0.32812 0.82813,0 1.6875,0.53125 l -0.5625,1.51562 q -0.60937,-0.35937 -1.20312,-0.35937 -0.54688,0 -0.96875,0.32812 -0.42188,0.32813 -0.60938,0.89063 -0.28125,0.875 -0.28125,1.92187 l 0,5.0625 -1.625,0 z m 15.42722,0 -5.17188,-13.35937 1.92188,0 3.46875,9.70312 q 0.42187,1.17188 0.70312,2.1875 0.3125,-1.09375 0.71875,-2.1875 l 3.60938,-9.70312 1.79687,0 -5.23437,13.35937 -1.8125,0 z m 14.74045,-1.1875 q -0.92188,0.76563 -1.76563,1.09375 -0.82812,0.3125 -1.79687,0.3125 -1.59375,0 -2.45313,-0.78125 -0.85937,-0.78125 -0.85937,-1.98437 0,-0.71875 0.32812,-1.29688 0.32813,-0.59375 0.84375,-0.9375 0.53125,-0.35937 1.1875,-0.54687 0.46875,-0.125 1.45313,-0.25 1.98437,-0.23438 2.92187,-0.5625 0.0156,-0.34375 0.0156,-0.42188 0,-1 -0.46875,-1.42187 -0.625,-0.54688 -1.875,-0.54688 -1.15625,0 -1.70313,0.40625 -0.54687,0.40625 -0.8125,1.42188 l -1.60937,-0.21875 q 0.21875,-1.01563 0.71875,-1.64063 0.5,-0.64062 1.45312,-0.98437 0.95313,-0.34375 2.1875,-0.34375 1.25,0 2.01563,0.29687 0.78125,0.28125 1.14062,0.73438 0.375,0.4375 0.51563,1.10937 0.0781,0.42188 0.0781,1.51563 l 0,2.1875 q 0,2.28125 0.10938,2.89062 0.10937,0.59375 0.40625,1.15625 l -1.70313,0 q -0.26562,-0.51562 -0.32812,-1.1875 z m -0.14063,-3.67187 q -0.89062,0.375 -2.67187,0.625 -1.01563,0.14062 -1.4375,0.32812 -0.42188,0.1875 -0.65625,0.53125 -0.21875,0.34375 -0.21875,0.78125 0,0.65625 0.5,1.09375 0.5,0.4375 1.45312,0.4375 0.9375,0 1.67188,-0.40625 0.75,-0.42187 1.09375,-1.14062 0.26562,-0.5625 0.26562,-1.64063 l 0,-0.60937 z m 4.15699,4.85937 0,-13.35937 1.64062,0 0,13.35937 -1.64062,0 z m 10.5198,0 0,-1.42187 q -1.125,1.64062 -3.0625,1.64062 -0.85937,0 -1.60937,-0.32812 -0.73438,-0.32813 -1.09375,-0.82813 -0.35938,-0.5 -0.5,-1.21875 -0.10938,-0.46875 -0.10938,-1.53125 l 0,-5.98437 1.64063,0 0,5.35937 q 0,1.28125 0.10937,1.73438 0.15625,0.64062 0.65625,1.01562 0.5,0.375 1.23438,0.375 0.73437,0 1.375,-0.375 0.65625,-0.39062 0.92187,-1.03125 0.26563,-0.65625 0.26563,-1.89062 l 0,-5.1875 1.64062,0 0,9.67187 -1.46875,0 z m 10.67261,-3.10937 1.6875,0.20312 q -0.40625,1.48438 -1.48438,2.3125 -1.07812,0.8125 -2.76562,0.8125 -2.125,0 -3.375,-1.29687 -1.23438,-1.3125 -1.23438,-3.67188 0,-2.45312 1.25,-3.79687 1.26563,-1.34375 3.26563,-1.34375 1.9375,0 3.15625,1.32812 1.23437,1.3125 1.23437,3.70313 0,0.15625 0,0.4375 l -7.21875,0 q 0.0937,1.59375 0.90625,2.45312 0.8125,0.84375 2.01563,0.84375 0.90625,0 1.54687,-0.46875 0.64063,-0.48437 1.01563,-1.51562 z m -5.39063,-2.65625 5.40625,0 q -0.10937,-1.21875 -0.625,-1.82813 -0.78125,-0.95312 -2.03125,-0.95312 -1.125,0 -1.90625,0.76562 -0.76562,0.75 -0.84375,2.01563 z"
       id="path4278"
       inkscape:connector-curvature="0"
       style="fill:#e69138;fill-rule:nonzero" />
    <path
       d="m 506.11172,292.94095 -2.99213,-61.44882"
       id="path4280"
       inkscape:connector-curvature="0"
       style="fill:#000000;fill-opacity:0;fill-rule:evenodd" />
    <path
       d="m 506.11176,292.94095 -2.70029,-55.45592"
       id="path4282"
       inkscape:connector-curvature="0"
       style="fill-rule:evenodd;stroke:#595959;stroke-width:1;stroke-linecap:butt;stroke-linejoin:round" />
    <path
       d="m 505.06122,237.4047 -1.87048,-4.45239 -1.42908,4.61305 z"
       id="path4284"
       inkscape:connector-curvature="0"
       style="fill:#595959;fill-rule:evenodd;stroke:#595959;stroke-width:1;stroke-linecap:butt" />
    <path
       d="m 453.5133,292.1824 107.43304,0 0,34.48819 -107.43304,0 z"
       id="path4286"
       inkscape:connector-curvature="0"
       style="fill:#000000;fill-opacity:0;fill-rule:evenodd" />
    <path
       d="m 463.87268,319.10242 0,-13.35938 1.78125,0 0,11.78125 6.5625,0 0,1.57813 -8.34375,0 z m 16.87573,-3.10938 1.6875,0.20313 q -0.40625,1.48437 -1.48437,2.3125 -1.07813,0.8125 -2.76563,0.8125 -2.125,0 -3.375,-1.29688 -1.23437,-1.3125 -1.23437,-3.67187 0,-2.45313 1.25,-3.79688 1.26562,-1.34375 3.26562,-1.34375 1.9375,0 3.15625,1.32813 1.23438,1.3125 1.23438,3.70312 0,0.15625 0,0.4375 l -7.21875,0 q 0.0937,1.59375 0.90625,2.45313 0.8125,0.84375 2.01562,0.84375 0.90625,0 1.54688,-0.46875 0.64062,-0.48438 1.01562,-1.51563 z m -5.39062,-2.65625 5.40625,0 q -0.10938,-1.21875 -0.625,-1.82812 -0.78125,-0.95313 -2.03125,-0.95313 -1.125,0 -1.90625,0.76563 -0.76563,0.75 -0.84375,2.01562 z m 15.45382,4.57813 q -0.92187,0.76562 -1.76562,1.09375 -0.82813,0.3125 -1.79688,0.3125 -1.59375,0 -2.45312,-0.78125 -0.85938,-0.78125 -0.85938,-1.98438 0,-0.71875 0.32813,-1.29687 0.32812,-0.59375 0.84375,-0.9375 0.53125,-0.35938 1.1875,-0.54688 0.46875,-0.125 1.45312,-0.25 1.98438,-0.23437 2.92188,-0.5625 0.0156,-0.34375 0.0156,-0.42187 0,-1 -0.46875,-1.42188 -0.625,-0.54687 -1.875,-0.54687 -1.15625,0 -1.70312,0.40625 -0.54688,0.40625 -0.8125,1.42187 l -1.60938,-0.21875 q 0.21875,-1.01562 0.71875,-1.64062 0.5,-0.64063 1.45313,-0.98438 0.95312,-0.34375 2.1875,-0.34375 1.25,0 2.01562,0.29688 0.78125,0.28125 1.14063,0.73437 0.375,0.4375 0.51562,1.10938 0.0781,0.42187 0.0781,1.51562 l 0,2.1875 q 0,2.28125 0.10937,2.89063 0.10938,0.59375 0.40625,1.15625 l -1.70312,0 q -0.26563,-0.51563 -0.32813,-1.1875 z m -0.14062,-3.67188 q -0.89063,0.375 -2.67188,0.625 -1.01562,0.14063 -1.4375,0.32813 -0.42187,0.1875 -0.65625,0.53125 -0.21875,0.34375 -0.21875,0.78125 0,0.65625 0.5,1.09375 0.5,0.4375 1.45313,0.4375 0.9375,0 1.67187,-0.40625 0.75,-0.42188 1.09375,-1.14063 0.26563,-0.5625 0.26563,-1.64062 l 0,-0.60938 z m 4.59448,4.85938 0,-8.40625 -1.45312,0 0,-1.26563 1.45312,0 0,-1.03125 q 0,-0.96875 0.17188,-1.45312 0.23437,-0.64063 0.82812,-1.03125 0.59375,-0.39063 1.67188,-0.39063 0.6875,0 1.53125,0.15625 l -0.25,1.4375 q -0.5,-0.0937 -0.95313,-0.0937 -0.75,0 -1.0625,0.32813 -0.3125,0.3125 -0.3125,1.1875 l 0,0.89062 1.89063,0 0,1.26563 -1.89063,0 0,8.40625 -1.625,0 z m 10.13223,0 0,-13.35938 2.65625,0 3.15625,9.45313 q 0.4375,1.32812 0.64063,1.98437 0.23437,-0.73437 0.70312,-2.14062 l 3.20313,-9.29688 2.375,0 0,13.35938 -1.70313,0 0,-11.17188 -3.875,11.17188 -1.59375,0 -3.85937,-11.375 0,11.375 -1.70313,0 z m 21.69703,-1.1875 q -0.92188,0.76562 -1.76563,1.09375 -0.82812,0.3125 -1.79687,0.3125 -1.59375,0 -2.45313,-0.78125 -0.85937,-0.78125 -0.85937,-1.98438 0,-0.71875 0.32812,-1.29687 0.32813,-0.59375 0.84375,-0.9375 0.53125,-0.35938 1.1875,-0.54688 0.46875,-0.125 1.45313,-0.25 1.98437,-0.23437 2.92187,-0.5625 0.0156,-0.34375 0.0156,-0.42187 0,-1 -0.46875,-1.42188 -0.625,-0.54687 -1.875,-0.54687 -1.15625,0 -1.70313,0.40625 -0.54687,0.40625 -0.8125,1.42187 l -1.60937,-0.21875 q 0.21875,-1.01562 0.71875,-1.64062 0.5,-0.64063 1.45312,-0.98438 0.95313,-0.34375 2.1875,-0.34375 1.25,0 2.01563,0.29688 0.78125,0.28125 1.14062,0.73437 0.375,0.4375 0.51563,1.10938 0.0781,0.42187 0.0781,1.51562 l 0,2.1875 q 0,2.28125 0.10938,2.89063 0.10937,0.59375 0.40625,1.15625 l -1.70313,0 q -0.26562,-0.51563 -0.32812,-1.1875 z m -0.14063,-3.67188 q -0.89062,0.375 -2.67187,0.625 -1.01563,0.14063 -1.4375,0.32813 -0.42188,0.1875 -0.65625,0.53125 -0.21875,0.34375 -0.21875,0.78125 0,0.65625 0.5,1.09375 0.5,0.4375 1.45312,0.4375 0.9375,0 1.67188,-0.40625 0.75,-0.42188 1.09375,-1.14063 0.26562,-0.5625 0.26562,-1.64062 l 0,-0.60938 z m 4.18823,4.85938 0,-9.67188 1.46875,0 0,1.46875 q 0.5625,-1.03125 1.03125,-1.35937 0.48438,-0.32813 1.0625,-0.32813 0.82813,0 1.6875,0.53125 l -0.5625,1.51563 q -0.60937,-0.35938 -1.20312,-0.35938 -0.54688,0 -0.96875,0.32813 -0.42188,0.32812 -0.60938,0.89062 -0.28125,0.875 -0.28125,1.92188 l 0,5.0625 -1.625,0 z m 6.22834,0 0,-13.35938 1.64062,0 0,7.625 3.89063,-3.9375 2.10937,0 -3.6875,3.59375 4.0625,6.07813 -2.01562,0 -3.20313,-4.95313 -1.15625,1.125 0,3.82813 -1.64062,0 z"
       id="path4288"
       inkscape:connector-curvature="0"
       style="fill:#990000;fill-rule:nonzero" />
    <path
       d="M 630.80054,284.2953 564.7533,235.98033"
       id="path4290"
       inkscape:connector-curvature="0"
       style="fill:#000000;fill-opacity:0;fill-rule:evenodd" />
    <path
       d="M 630.80054,284.2953 569.59589,239.52279"
       id="path4292"
       inkscape:connector-curvature="0"
       style="fill-rule:evenodd;stroke:#595959;stroke-width:1;stroke-linecap:butt;stroke-linejoin:round" />
    <path
       d="m 570.5711,238.18967 -4.63794,-1.34622 2.6875,4.01246 z"
       id="path4294"
       inkscape:connector-curvature="0"
       style="fill:#595959;fill-rule:evenodd;stroke:#595959;stroke-width:1;stroke-linecap:butt" />
    <path
       d="m 630.80054,278.3714 207.9685,0 0,62.11023 -207.9685,0 z"
       id="path4296"
       inkscape:connector-curvature="0"
       style="fill:#000000;fill-opacity:0;fill-rule:evenodd" />
    <path
       d="m 641.2224,305.29138 0,-13.35938 1.8125,0 7.01562,10.48438 0,-10.48438 1.6875,0 0,13.35938 -1.8125,0 -7.01562,-10.5 0,10.5 -1.6875,0 z m 19.61359,0 0,-1.42188 q -1.125,1.64063 -3.0625,1.64063 -0.85938,0 -1.60938,-0.32813 -0.73437,-0.32812 -1.09375,-0.82812 -0.35937,-0.5 -0.5,-1.21875 -0.10937,-0.46875 -0.10937,-1.53125 l 0,-5.98438 1.64062,0 0,5.35938 q 0,1.28125 0.10938,1.73437 0.15625,0.64063 0.65625,1.01563 0.5,0.375 1.23437,0.375 0.73438,0 1.375,-0.375 0.65625,-0.39063 0.92188,-1.03125 0.26562,-0.65625 0.26562,-1.89063 l 0,-5.1875 1.64063,0 0,9.67188 -1.46875,0 z m 4.04754,0 0,-9.67188 1.46875,0 0,1.35938 q 0.45313,-0.71875 1.20313,-1.14063 0.76562,-0.4375 1.71875,-0.4375 1.07812,0 1.76562,0.45313 0.6875,0.4375 0.96875,1.23437 1.15625,-1.6875 2.98438,-1.6875 1.45312,0 2.21875,0.79688 0.78125,0.79687 0.78125,2.45312 l 0,6.64063 -1.64063,0 0,-6.09375 q 0,-0.98438 -0.15625,-1.40625 -0.15625,-0.4375 -0.57812,-0.70313 -0.42188,-0.26562 -0.98438,-0.26562 -1.01562,0 -1.6875,0.6875 -0.67187,0.67187 -0.67187,2.15625 l 0,5.625 -1.64063,0 0,-6.28125 q 0,-1.09375 -0.40625,-1.64063 -0.40625,-0.54687 -1.3125,-0.54687 -0.6875,0 -1.28125,0.35937 -0.59375,0.35938 -0.85937,1.0625 -0.25,0.70313 -0.25,2.03125 l 0,5.01563 -1.64063,0 z m 17.04084,0 -1.51563,0 0,-13.35938 1.64063,0 0,4.76563 q 1.04687,-1.29688 2.65625,-1.29688 0.89062,0 1.6875,0.35938 0.79687,0.35937 1.3125,1.01562 0.51562,0.64063 0.79687,1.5625 0.29688,0.92188 0.29688,1.96875 0,2.48438 -1.23438,3.84375 -1.21875,1.35938 -2.95312,1.35938 -1.70313,0 -2.6875,-1.4375 l 0,1.21875 z m -0.0156,-4.90625 q 0,1.73437 0.48438,2.51562 0.76562,1.26563 2.09375,1.26563 1.07812,0 1.85937,-0.9375 0.78125,-0.9375 0.78125,-2.78125 0,-1.89063 -0.75,-2.79688 -0.75,-0.90625 -1.82812,-0.90625 -1.0625,0 -1.85938,0.9375 -0.78125,0.9375 -0.78125,2.70313 z m 15.51636,1.79687 1.6875,0.20313 q -0.40625,1.48437 -1.48438,2.3125 -1.07812,0.8125 -2.76562,0.8125 -2.125,0 -3.375,-1.29688 -1.23438,-1.3125 -1.23438,-3.67187 0,-2.45313 1.25,-3.79688 1.26563,-1.34375 3.26563,-1.34375 1.9375,0 3.15625,1.32813 1.23437,1.3125 1.23437,3.70312 0,0.15625 0,0.4375 l -7.21875,0 q 0.0937,1.59375 0.90625,2.45313 0.8125,0.84375 2.01563,0.84375 0.90625,0 1.54687,-0.46875 0.64063,-0.48438 1.01563,-1.51563 z m -5.39063,-2.65625 5.40625,0 q -0.10937,-1.21875 -0.625,-1.82812 -0.78125,-0.95313 -2.03125,-0.95313 -1.125,0 -1.90625,0.76563 -0.76562,0.75 -0.84375,2.01562 z m 9.12567,5.76563 0,-9.67188 1.46875,0 0,1.46875 q 0.5625,-1.03125 1.03125,-1.35937 0.48438,-0.32813 1.0625,-0.32813 0.82813,0 1.6875,0.53125 l -0.5625,1.51563 q -0.60937,-0.35938 -1.20312,-0.35938 -0.54688,0 -0.96875,0.32813 -0.42188,0.32812 -0.60938,0.89062 -0.28125,0.875 -0.28125,1.92188 l 0,5.0625 -1.625,0 z m 10.80225,-4.84375 q 0,-2.6875 1.48437,-3.96875 1.25,-1.07813 3.04688,-1.07813 2,0 3.26562,1.3125 1.26563,1.29688 1.26563,3.60938 0,1.85937 -0.5625,2.9375 -0.5625,1.0625 -1.64063,1.65625 -1.0625,0.59375 -2.32812,0.59375 -2.03125,0 -3.28125,-1.29688 -1.25,-1.3125 -1.25,-3.76562 z m 1.6875,0 q 0,1.85937 0.79687,2.79687 0.8125,0.92188 2.04688,0.92188 1.21875,0 2.03125,-0.92188 0.8125,-0.9375 0.8125,-2.84375 0,-1.79687 -0.8125,-2.71875 -0.8125,-0.92187 -2.03125,-0.92187 -1.23438,0 -2.04688,0.92187 -0.79687,0.90625 -0.79687,2.76563 z m 9.68823,4.84375 0,-8.40625 -1.45312,0 0,-1.26563 1.45312,0 0,-1.03125 q 0,-0.96875 0.17188,-1.45312 0.23437,-0.64063 0.82812,-1.03125 0.59375,-0.39063 1.67188,-0.39063 0.6875,0 1.53125,0.15625 l -0.25,1.4375 q -0.5,-0.0937 -0.95313,-0.0937 -0.75,0 -1.0625,0.32813 -0.3125,0.3125 -0.3125,1.1875 l 0,0.89062 1.89063,0 0,1.26563 -1.89063,0 0,8.40625 -1.625,0 z m 10.17908,0 0,-13.35938 5.04687,0 q 1.32813,0 2.03125,0.125 0.96875,0.17188 1.64063,0.64063 0.67187,0.45312 1.07812,1.28125 0.40625,0.82812 0.40625,1.82812 0,1.70313 -1.09375,2.89063 -1.07812,1.17187 -3.92187,1.17187 l -3.42188,0 0,5.42188 -1.76562,0 z m 1.76562,-7 3.45313,0 q 1.71875,0 2.4375,-0.64063 0.71875,-0.64062 0.71875,-1.79687 0,-0.84375 -0.42188,-1.4375 -0.42187,-0.59375 -1.125,-0.78125 -0.4375,-0.125 -1.64062,-0.125 l -3.42188,0 0,4.78125 z m 10.45923,7 0,-9.67188 1.46875,0 0,1.46875 q 0.5625,-1.03125 1.03125,-1.35937 0.48438,-0.32813 1.0625,-0.32813 0.82813,0 1.6875,0.53125 l -0.5625,1.51563 q -0.60937,-0.35938 -1.20312,-0.35938 -0.54688,0 -0.96875,0.32813 -0.42188,0.32812 -0.60938,0.89062 -0.28125,0.875 -0.28125,1.92188 l 0,5.0625 -1.625,0 z m 6.22827,-11.46875 0,-1.89063 1.64063,0 0,1.89063 -1.64063,0 z m 0,11.46875 0,-9.67188 1.64063,0 0,9.67188 -1.64063,0 z m 4.14484,0 0,-9.67188 1.46875,0 0,1.35938 q 0.45312,-0.71875 1.20312,-1.14063 0.76563,-0.4375 1.71875,-0.4375 1.07813,0 1.76563,0.45313 0.6875,0.4375 0.96875,1.23437 1.15625,-1.6875 2.98437,-1.6875 1.45313,0 2.21875,0.79688 0.78125,0.79687 0.78125,2.45312 l 0,6.64063 -1.64062,0 0,-6.09375 q 0,-0.98438 -0.15625,-1.40625 -0.15625,-0.4375 -0.57813,-0.70313 -0.42187,-0.26562 -0.98437,-0.26562 -1.01563,0 -1.6875,0.6875 -0.67188,0.67187 -0.67188,2.15625 l 0,5.625 -1.64062,0 0,-6.28125 q 0,-1.09375 -0.40625,-1.64063 -0.40625,-0.54687 -1.3125,-0.54687 -0.6875,0 -1.28125,0.35937 -0.59375,0.35938 -0.85938,1.0625 -0.25,0.70313 -0.25,2.03125 l 0,5.01563 -1.64062,0 z m 15.54083,-11.46875 0,-1.89063 1.64063,0 0,1.89063 -1.64063,0 z m 0,11.46875 0,-9.67188 1.64063,0 0,9.67188 -1.64063,0 z m 7.7229,-1.46875 0.23438,1.45312 q -0.6875,0.14063 -1.23438,0.14063 -0.89062,0 -1.39062,-0.28125 -0.48438,-0.28125 -0.6875,-0.73438 -0.20313,-0.46875 -0.20313,-1.9375 l 0,-5.57812 -1.20312,0 0,-1.26563 1.20312,0 0,-2.39062 1.625,-0.98438 0,3.375 1.65625,0 0,1.26563 -1.65625,0 0,5.67187 q 0,0.6875 0.0781,0.89063 0.0937,0.20312 0.28125,0.32812 0.20312,0.10938 0.57812,0.10938 0.26563,0 0.71875,-0.0625 z m 1.60523,-10 0,-1.89063 1.64062,0 0,1.89063 -1.64062,0 z m 0,11.46875 0,-9.67188 1.64062,0 0,9.67188 -1.64062,0 z m 6.83227,0 -3.6875,-9.67188 1.73438,0 2.07812,5.79688 q 0.32813,0.9375 0.625,1.9375 0.20313,-0.76563 0.60938,-1.82813 l 2.14062,-5.90625 1.6875,0 -3.65625,9.67188 -1.53125,0 z m 13.26563,-3.10938 1.6875,0.20313 q -0.40625,1.48437 -1.48438,2.3125 -1.07812,0.8125 -2.76562,0.8125 -2.125,0 -3.375,-1.29688 -1.23438,-1.3125 -1.23438,-3.67187 0,-2.45313 1.25,-3.79688 1.26563,-1.34375 3.26563,-1.34375 1.9375,0 3.15625,1.32813 1.23437,1.3125 1.23437,3.70312 0,0.15625 0,0.4375 l -7.21875,0 q 0.0937,1.59375 0.90625,2.45313 0.8125,0.84375 2.01563,0.84375 0.90625,0 1.54687,-0.46875 0.64063,-0.48438 1.01563,-1.51563 z m -5.39063,-2.65625 5.40625,0 q -0.10937,-1.21875 -0.625,-1.82812 -0.78125,-0.95313 -2.03125,-0.95313 -1.125,0 -1.90625,0.76563 -0.76562,0.75 -0.84375,2.01562 z m 8.48511,2.875 1.625,-0.25 q 0.125,0.96875 0.75,1.5 0.625,0.51563 1.75,0.51563 1.125,0 1.67187,-0.45313 0.54688,-0.46875 0.54688,-1.09375 0,-0.54687 -0.48438,-0.875 -0.32812,-0.21875 -1.67187,-0.54687 -1.8125,-0.46875 -2.51563,-0.79688 -0.6875,-0.32812 -1.04687,-0.90625 -0.35938,-0.59375 -0.35938,-1.3125 0,-0.64062 0.29688,-1.1875 0.29687,-0.5625 0.8125,-0.92187 0.375,-0.28125 1.03125,-0.46875 0.67187,-0.20313 1.42187,-0.20313 1.14063,0 2,0.32813 0.85938,0.32812 1.26563,0.89062 0.42187,0.5625 0.57812,1.5 l -1.60937,0.21875 q -0.10938,-0.75 -0.64063,-1.17187 -0.51562,-0.42188 -1.46875,-0.42188 -1.14062,0 -1.625,0.375 -0.46875,0.375 -0.46875,0.875 0,0.3125 0.1875,0.57813 0.20313,0.26562 0.64063,0.4375 0.23437,0.0937 1.4375,0.42187 1.75,0.45313 2.4375,0.75 0.6875,0.29688 1.07812,0.85938 0.39063,0.5625 0.39063,1.40625 0,0.82812 -0.48438,1.54687 -0.46875,0.71875 -1.375,1.125 -0.90625,0.39063 -2.04687,0.39063 -1.875,0 -2.875,-0.78125 -0.98438,-0.78125 -1.25,-2.32813 z"
       id="path4298"
       inkscape:connector-curvature="0"
       style="fill:#6aa84f;fill-rule:nonzero" />
    <path
       d="m 644.1599,331.21326 q -1.35938,-1.70313 -2.29688,-4 -0.9375,-2.29688 -0.9375,-4.76563 0,-2.15625 0.70313,-4.14062 0.82812,-2.3125 2.53125,-4.59375 l 1.17187,0 q -1.09375,1.89062 -1.45312,2.70312 -0.54688,1.25 -0.875,2.625 -0.39063,1.70313 -0.39063,3.42188 0,4.375 2.71875,8.75 l -1.17187,0 z m 2.63452,-7.42188 1.71875,-0.14062 q 0.1875,1.25 0.875,1.89062 0.70313,0.625 1.6875,0.625 1.1875,0 2,-0.89062 0.82813,-0.89063 0.82813,-2.35938 0,-1.40625 -0.79688,-2.21875 -0.78125,-0.8125 -2.0625,-0.8125 -0.78125,0 -1.42187,0.35938 -0.64063,0.35937 -1,0.9375 l -1.54688,-0.20313 1.29688,-6.85937 6.64062,0 0,1.5625 -5.32812,0 -0.71875,3.59375 q 1.20312,-0.84375 2.51562,-0.84375 1.75,0 2.95313,1.21875 1.20312,1.20312 1.20312,3.10937 0,1.8125 -1.04687,3.14063 -1.29688,1.625 -3.51563,1.625 -1.8125,0 -2.96875,-1.01563 -1.15625,-1.03125 -1.3125,-2.71875 z m 14.26636,1.34375 0,-3.67187 -3.64063,0 0,-1.51563 3.64063,0 0,-3.64062 1.54687,0 0,3.64062 3.64063,0 0,1.51563 -3.64063,0 0,3.67187 -1.54687,0 z m 13.17621,2.15625 -1.64063,0 0,-10.45312 q -0.59375,0.5625 -1.5625,1.14062 -0.95312,0.5625 -1.71875,0.84375 l 0,-1.59375 q 1.375,-0.64062 2.40625,-1.5625 1.03125,-0.92187 1.45313,-1.78125 l 1.0625,0 0,13.40625 z m 22.77777,-7.98437 q 1.20312,1.32812 2.07812,2.01562 0.89063,0.6875 1.67188,1.01563 l 0,0.42187 q -0.89063,0.4375 -1.75,1.125 -0.84375,0.67188 -2.01563,1.96875 l -0.70312,0 q 0.85937,-1.82812 1.79687,-2.8125 l -14.53125,0 0,-0.92187 14.53125,0 q -0.6875,-0.875 -0.96875,-1.29688 -0.26562,-0.4375 -0.8125,-1.51562 l 0.70313,0 z m 18.94891,-2.09375 -1.625,0.125 q -0.21875,-0.96875 -0.625,-1.40625 -0.65625,-0.70313 -1.64062,-0.70313 -0.78125,0 -1.375,0.4375 -0.76563,0.5625 -1.21875,1.65625 -0.45313,1.07813 -0.46875,3.07813 0.59375,-0.89063 1.45312,-1.32813 0.85938,-0.4375 1.79688,-0.4375 1.64062,0 2.78125,1.20313 1.15625,1.20312 1.15625,3.10937 0,1.26563 -0.54688,2.34375 -0.53125,1.07813 -1.48437,1.65625 -0.9375,0.57813 -2.14063,0.57813 -2.0625,0 -3.35937,-1.5 -1.28125,-1.51563 -1.28125,-4.98438 0,-3.875 1.42187,-5.625 1.25,-1.53125 3.375,-1.53125 1.5625,0 2.5625,0.89063 1.01563,0.875 1.21875,2.4375 z m -6.6875,5.75 q 0,0.84375 0.35938,1.625 0.35937,0.76562 1,1.17187 0.64062,0.40625 1.35937,0.40625 1.03125,0 1.78125,-0.82812 0.75,-0.84375 0.75,-2.28125 0,-1.39063 -0.73437,-2.1875 -0.73438,-0.79688 -1.85938,-0.79688 -1.10937,0 -1.89062,0.79688 -0.76563,0.79687 -0.76563,2.09375 z m 10.09448,8.25 -1.1875,0 q 2.73438,-4.375 2.73438,-8.75 0,-1.71875 -0.39063,-3.39063 -0.3125,-1.375 -0.875,-2.625 -0.35937,-0.82812 -1.46875,-2.73437 l 1.1875,0 q 1.70313,2.28125 2.53125,4.59375 0.6875,1.98437 0.6875,4.14062 0,2.46875 -0.9375,4.76563 -0.9375,2.29687 -2.28125,4 z"
       id="path4300"
       inkscape:connector-curvature="0"
       style="fill:#6aa84f;fill-rule:nonzero" />
  </g>
</svg>
