<?xml version="1.0" encoding="UTF-8" standalone="no"?>
<!-- Created with Inkscape (http://www.inkscape.org/) -->

<svg
   xmlns:dc="http://purl.org/dc/elements/1.1/"
   xmlns:cc="http://creativecommons.org/ns#"
   xmlns:rdf="http://www.w3.org/1999/02/22-rdf-syntax-ns#"
   xmlns:svg="http://www.w3.org/2000/svg"
   xmlns="http://www.w3.org/2000/svg"
   xmlns:sodipodi="http://sodipodi.sourceforge.net/DTD/sodipodi-0.dtd"
   xmlns:inkscape="http://www.inkscape.org/namespaces/inkscape"
   width="382.51581mm"
   height="116.75158mm"
   viewBox="0 0 1355.371 413.6867"
   id="svg4435"
   version="1.1"
   inkscape:version="0.91 r13725"
   sodipodi:docname="mc_geom_queries.svg">
  <defs
     id="defs4437" />
  <sodipodi:namedview
     id="base"
     pagecolor="#ffffff"
     bordercolor="#666666"
     borderopacity="1.0"
     inkscape:pageopacity="0.0"
     inkscape:pageshadow="2"
     inkscape:zoom="0.49497475"
     inkscape:cx="686.95244"
     inkscape:cy="-65.793043"
     inkscape:document-units="px"
     inkscape:current-layer="layer1"
     showgrid="false"
     fit-margin-top="0"
     fit-margin-left="0"
     fit-margin-right="0"
     fit-margin-bottom="0"
     inkscape:window-width="1680"
     inkscape:window-height="1013"
     inkscape:window-x="0"
     inkscape:window-y="0"
     inkscape:window-maximized="1" />
  <metadata
     id="metadata4440">
    <rdf:RDF>
      <cc:Work
         rdf:about="">
        <dc:format>image/svg+xml</dc:format>
        <dc:type
           rdf:resource="http://purl.org/dc/dcmitype/StillImage" />
        <dc:title></dc:title>
      </cc:Work>
    </rdf:RDF>
  </metadata>
  <g
     inkscape:label="Layer 1"
     inkscape:groupmode="layer"
     id="layer1"
     transform="translate(240.24485,-134.09028)">
    <g
       id="g5519">
      <path
         id="path5056"
         d="m 96.88771,311.21868 0,0 c 0,92.95856 -75.35779,168.31635 -168.31628,168.31635 -92.95852,0 -168.31628,-75.35779 -168.31628,-168.31635 0,-92.95856 75.35776,-168.31636 168.31628,-168.31636 l 0,168.31636 z"
         inkscape:connector-curvature="0"
         style="fill:#ffc000;fill-rule:nonzero;stroke:none;stroke-linecap:square;stroke-miterlimit:10" />
      <path
         id="path5058"
         d="m 96.88771,311.21868 0,0 c 0,92.95856 -75.35779,168.31635 -168.31628,168.31635 -92.95852,0 -168.31628,-75.35779 -168.31628,-168.31635 0,-92.95856 75.35776,-168.31636 168.31628,-168.31636 l 0,168.31636 z"
         inkscape:connector-curvature="0"
         style="fill:none;fill-rule:nonzero;stroke:#000000;stroke-width:1;stroke-linecap:butt;stroke-linejoin:round;stroke-miterlimit:10" />
      <path
         id="path5060"
         d="M 27.18853,396.48921 -83.95148,332.57329"
         inkscape:connector-curvature="0"
         style="fill:#000000;fill-opacity:0;fill-rule:nonzero;stroke:none;stroke-linecap:square;stroke-miterlimit:10" />
      <path
         id="path5062"
         d="M 27.18851,396.48921 -72.0681,339.40736"
         style="fill:#4948d5;fill-opacity:1;fill-rule:evenodd;stroke:#4948d5;stroke-width:4;stroke-linecap:butt;stroke-linejoin:round;stroke-miterlimit:10;stroke-opacity:1"
         inkscape:connector-curvature="0" />
      <path
         id="path5064"
         d="m -72.06811,339.40733 6.14204,-1.65689 -12.95628,-2.26193 8.47115,10.06088 z"
         style="fill:#4948d5;fill-opacity:1;fill-rule:evenodd;stroke:#4948d5;stroke-width:4;stroke-linecap:butt;stroke-miterlimit:10;stroke-opacity:1"
         inkscape:connector-curvature="0" />
      <path
         id="path5066"
         d="m 15.32467,396.48898 0,0 c 0,-6.55219 4.64761,-11.86377 10.38074,-11.86377 l 0,0 c 2.75314,0 5.39355,1.24994 7.3403,3.47482 1.94678,2.22489 3.04046,5.2425 3.04046,8.38895 l 0,0 c 0,6.55218 -4.64761,11.86377 -10.38076,11.86377 l 0,0 c -5.73313,0 -10.38074,-5.31158 -10.38074,-11.86377 z"
         inkscape:connector-curvature="0"
         style="fill:#76923c;fill-rule:nonzero;stroke:none;stroke-linecap:square;stroke-miterlimit:10" />
      <path
         id="path5068"
         d="m 15.32467,396.48898 0,0 c 0,-6.55219 4.64761,-11.86377 10.38074,-11.86377 l 0,0 c 2.75314,0 5.39355,1.24994 7.3403,3.47482 1.94678,2.22489 3.04046,5.2425 3.04046,8.38895 l 0,0 c 0,6.55218 -4.64761,11.86377 -10.38076,11.86377 l 0,0 c -5.73313,0 -10.38074,-5.31158 -10.38074,-11.86377 z"
         style="fill:#000000;fill-opacity:1;fill-rule:nonzero;stroke:#000000;stroke-width:1;stroke-linecap:butt;stroke-linejoin:round;stroke-miterlimit:10"
         inkscape:connector-curvature="0" />
      <path
         id="path5070"
         d="m -106.53167,345.09266 45.1604,0 0,49.41571 -45.1604,0 z"
         inkscape:connector-curvature="0"
         style="fill:#000000;fill-opacity:0;fill-rule:nonzero;stroke:none;stroke-linecap:square;stroke-miterlimit:10" />
      <path
         id="path5072"
         d="m -97.25042,379.81266 0.79687,-3.70312 5.25,0 q -2.98437,-2.78125 -2.98437,-7.21875 0,-4.8125 3.32812,-8.59375 3.34375,-3.78125 8.89063,-3.78125 4.17187,0 6.76562,2.625 2.60938,2.60937 2.60938,7.01562 0,5.73438 -5.46875,9.95313 l 4.76562,0 -0.78125,3.70312 -10.60937,0 0.6875,-3.23437 q 3.39062,-0.78125 5.03125,-4.17188 1.65625,-3.40625 1.65625,-6.5 0,-2.40625 -1.375,-3.92187 -1.35938,-1.53125 -3.75,-1.53125 -3.45313,0 -5.4375,3.20312 -1.98438,3.20313 -1.98438,7.07813 0,4.09375 3.5,5.84375 l -0.70312,3.23437 -10.1875,0 z"
         style="fill:#4948d5;fill-opacity:1;fill-rule:nonzero;stroke:#4948d5;stroke-linecap:square;stroke-miterlimit:10;stroke-opacity:1"
         inkscape:connector-curvature="0" />
      <path
         id="path5074"
         d="m -5.04576,394.85798 36.23816,0 0,49.41571 -36.23816,0 z"
         inkscape:connector-curvature="0"
         style="fill:#000000;fill-opacity:0;fill-rule:nonzero;stroke:none;stroke-linecap:square;stroke-miterlimit:10" />
      <path
         id="path5076"
         d="m 5.40737,416.03111 5.45313,-0.9375 q 1.48437,2.32812 2.09375,5.125 1.53125,-2.26563 2.3125,-3.17188 1.04687,-1.21875 1.71875,-1.57812 0.6875,-0.375 1.45312,-0.375 0.85938,0 1.3125,0.46875 0.46875,0.46875 0.46875,1.26562 0,0.75 -0.46875,1.23438 -0.45312,0.46875 -1.14062,0.46875 -0.5,0 -1.15625,-0.17188 -0.64063,-0.1875 -0.89063,-0.1875 -0.65625,0 -1.25,0.46875 -0.8125,0.64063 -2,2.73438 1.32813,4.6875 2.125,5.71875 0.46875,0.60937 0.95313,0.60937 0.40625,0 0.70312,-0.20312 0.45313,-0.32813 1.39063,-1.64063 l 0.5625,0.32813 q -1.375,2.21875 -2.6875,3.125 -1,0.70312 -1.96875,0.70312 -1,0 -1.67188,-0.4375 -0.65625,-0.45312 -1.17187,-1.45312 -0.51563,-1.01563 -1.21875,-3.23438 -1.82813,2.32813 -2.875,3.40625 -1.03125,1.0625 -1.71875,1.39063 -0.6875,0.32812 -1.46875,0.32812 -0.8125,0 -1.28125,-0.46875 -0.48438,-0.46875 -0.48438,-1.21875 0,-0.79687 0.51563,-1.3125 0.51562,-0.51562 1.3125,-0.51562 0.42187,0 0.95312,0.25 0.78125,0.375 1.125,0.375 0.45313,0 0.8125,-0.1875 0.46875,-0.23438 1.1875,-1.01563 0.4375,-0.48437 1.60938,-2.0625 -1.5,-5.5625 -2.34375,-6.65625 -0.53125,-0.70312 -1.34375,-0.70312 -0.42188,0 -1.03125,0.125 l 0.10937,-0.59375 z"
         style="fill:#000000;fill-opacity:1;fill-rule:nonzero;stroke:none;stroke-linecap:square;stroke-miterlimit:10"
         inkscape:connector-curvature="0" />
      <path
         id="path5078"
         d="m -207.4701,134.09028 41.72876,0 0,49.41573 -41.72876,0 z"
         inkscape:connector-curvature="0"
         style="fill:#000000;fill-opacity:0;fill-rule:nonzero;stroke:none;stroke-linecap:square;stroke-miterlimit:10" />
      <path
         id="path5080"
         d="m -193.51698,147.62278 8.375,0 q 2.79687,0 4,0.29687 1.57812,0.375 2.4375,1.46875 0.875,1.07813 0.875,2.45313 0,1.125 -0.6875,2.29687 -0.6875,1.17188 -2.0625,1.9375 -1.35938,0.75 -4.1875,1.39063 2.9375,0.82812 4.07812,2.125 1.14063,1.29687 1.14063,3.01562 0,1.60938 -1.125,3.1875 -1.125,1.5625 -2.98438,2.29688 -1.85937,0.71875 -6.8125,0.71875 l -8.8125,0 0.20313,-0.57813 q 1.28125,0 1.82812,-0.23437 0.5625,-0.23438 0.89063,-0.71875 0.34375,-0.5 0.79687,-2.0625 l 3.78125,-13.03125 q 0.57813,-1.98438 0.57813,-2.65625 0,-0.54688 -0.46875,-0.90625 -0.45313,-0.35938 -2,-0.42188 l 0.15625,-0.57812 z m 4.79687,9.35937 q 2.125,-0.0312 3.34375,-0.67187 1.23438,-0.64063 1.96875,-2.09375 0.75,-1.46875 0.75,-2.76563 0,-1.21875 -0.76562,-1.98437 -0.76563,-0.76563 -2.04688,-0.73438 l -0.85937,0.0312 -2.39063,8.21875 z m -0.375,1.17188 -2.70312,9.42187 q 0.78125,0.0312 1.17187,0.0312 3.48438,0 4.84375,-1.9375 1.35938,-1.95312 1.35938,-4.17187 0,-1.0625 -0.53125,-1.875 -0.51563,-0.82813 -1.34375,-1.14063 -0.82813,-0.32812 -2.79688,-0.32812 z"
         inkscape:connector-curvature="0"
         style="fill:#000000;fill-rule:nonzero;stroke:none;stroke-linecap:square;stroke-miterlimit:10" />
      <path
         id="path5082"
         d="m -117.70291,242.26093 36.23814,0 0,49.41571 -36.23814,0 z"
         inkscape:connector-curvature="0"
         style="fill:#000000;fill-opacity:0;fill-rule:nonzero;stroke:none;stroke-linecap:square;stroke-miterlimit:10" />
      <path
         id="path5084"
         d="m -91.24978,255.30906 -5.07813,17.48438 q -0.48437,1.64062 -0.48437,1.98437 0,0.17188 0.125,0.29688 0.125,0.125 0.26562,0.125 0.26563,0 0.60938,-0.26563 0.57812,-0.4375 1.40625,-1.65625 l 0.5625,0.29688 q -2.20313,3.84375 -4.84375,3.84375 -0.9375,0 -1.45313,-0.48438 -0.5,-0.5 -0.5,-1.26562 0,-0.73438 0.40625,-2.09375 l 0.46875,-1.59375 q -1.95312,3.45312 -3.39062,4.59375 -1.09375,0.84375 -2.125,0.84375 -1.17188,0 -1.98438,-0.95313 -0.79687,-0.95312 -0.79687,-2.78125 0,-2.32812 1.03125,-4.59375 1.03125,-2.26562 2.375,-3.78125 1.35937,-1.51562 2.57812,-2.15625 1.23438,-0.65625 2.42188,-0.65625 0.60937,0 1.07812,0.25 0.48438,0.25 1.09375,0.9375 l 1.15625,-3.89062 q 0.42188,-1.4375 0.42188,-2.0625 0,-0.375 -0.28125,-0.64063 -0.28125,-0.26562 -0.75,-0.26562 -0.21875,0 -0.54688,0.0469 l 0.15625,-0.60937 5.14063,-0.95313 0.9375,0 z m -6.875,9.90625 q 0,-0.95312 -0.375,-1.39062 -0.375,-0.4375 -0.875,-0.4375 -0.5,0 -1.07813,0.51562 -1.10937,1 -2.32812,4.03125 -1.20313,3.01563 -1.20313,5.07813 0,0.75 0.26563,1.10937 0.26562,0.35938 0.59375,0.35938 0.54687,0 1.09375,-0.5 1.32812,-1.1875 2.60937,-4.07813 1.29688,-2.90625 1.29688,-4.6875 z"
         inkscape:connector-curvature="0"
         style="fill:#000000;fill-rule:nonzero;stroke:none;stroke-linecap:square;stroke-miterlimit:10" />
      <path
         id="path5086"
         d="M 36.08617,384.62522 -219.87313,229.8039"
         inkscape:connector-curvature="0"
         style="fill:#000000;fill-opacity:0;fill-rule:nonzero;stroke:none;stroke-linecap:square;stroke-miterlimit:10" />
      <path
         id="path5088"
         d="M 33.15377,382.85154 -216.94074,231.57761"
         inkscape:connector-curvature="0"
         style="fill:none;fill-rule:evenodd;stroke:#000000;stroke-width:1;stroke-linecap:butt;stroke-linejoin:round;stroke-miterlimit:10" />
      <path
         id="path5090"
         d="m 33.15377,382.85154 -1.54428,0.38022 3.2258,0.63687 -2.06174,-2.56137 z"
         inkscape:connector-curvature="0"
         style="fill:#000000;fill-rule:evenodd;stroke:#000000;stroke-width:1;stroke-linecap:butt;stroke-miterlimit:10" />
      <path
         id="path5092"
         d="m -216.94075,231.57761 1.54429,-0.38022 -3.22579,-0.63687 2.06172,2.56137 z"
         inkscape:connector-curvature="0"
         style="fill:#000000;fill-rule:evenodd;stroke:#000000;stroke-width:1;stroke-linecap:butt;stroke-miterlimit:10" />
      <path
         id="path5164"
         d="m -224.67251,499.30818 307.49387,0 0,48.46881 -307.49387,0 z"
         inkscape:connector-curvature="0"
         style="fill:#000000;fill-opacity:0;fill-rule:nonzero;stroke:none;stroke-linecap:square;stroke-miterlimit:10" />
      <path
         id="path5166"
         d="m -196.41293,508.61245 q 0,2.78125 -0.73438,4.76563 -0.71875,1.96875 -2.07812,3.21875 -1.35938,1.25 -3.3125,1.84375 -1.9375,0.57812 -4.625,0.57812 l -4.82813,0 q -0.51562,0 -0.875,-0.29687 -0.34375,-0.3125 -0.34375,-1 l 0,-17.625 q 0,-0.6875 0.34375,-0.98438 0.35938,-0.3125 0.875,-0.3125 l 5.1875,0 q 2.70313,0 4.57813,0.64063 1.89062,0.625 3.17187,1.875 1.29688,1.23437 1.96875,3.0625 0.67188,1.82812 0.67188,4.23437 z m -4.25,0.14063 q 0,-1.4375 -0.34375,-2.67188 -0.32813,-1.23437 -1.07813,-2.14062 -0.73437,-0.90625 -1.90625,-1.40625 -1.15625,-0.51563 -3.04687,-0.51563 l -2.07813,0 0,13.75 2.14063,0 q 1.6875,0 2.84375,-0.4375 1.15625,-0.4375 1.92187,-1.3125 0.78125,-0.89062 1.15625,-2.20312 0.39063,-1.3125 0.39063,-3.0625 z m 11.32812,9.73437 q 0,0.15625 -0.0937,0.28125 -0.0937,0.10938 -0.32812,0.1875 -0.21875,0.0781 -0.59375,0.10938 -0.375,0.0469 -0.95313,0.0469 -0.57812,0 -0.95312,-0.0469 -0.375,-0.0312 -0.60938,-0.10938 -0.21875,-0.0781 -0.3125,-0.1875 -0.0937,-0.125 -0.0937,-0.28125 l 0,-13.90625 q 0,-0.15625 0.0937,-0.26562 0.0937,-0.125 0.3125,-0.20313 0.23438,-0.0937 0.60938,-0.14062 0.375,-0.0469 0.95312,-0.0469 0.57813,0 0.95313,0.0469 0.375,0.0469 0.59375,0.14062 0.23437,0.0781 0.32812,0.20313 0.0937,0.10937 0.0937,0.26562 l 0,13.90625 z m 0.29688,-18.65625 q 0,1.1875 -0.48438,1.64063 -0.48437,0.45312 -1.79687,0.45312 -1.32813,0 -1.79688,-0.4375 -0.45312,-0.4375 -0.45312,-1.57812 0,-1.1875 0.46875,-1.64063 0.48437,-0.46875 1.8125,-0.46875 1.3125,0 1.78125,0.45313 0.46875,0.4375 0.46875,1.57812 z m 13.4375,14.71875 q 0,1.1875 -0.45313,2.09375 -0.4375,0.90625 -1.25,1.51563 -0.8125,0.60937 -1.92187,0.90625 -1.10938,0.3125 -2.40625,0.3125 -0.78125,0 -1.5,-0.125 -0.70313,-0.10938 -1.26563,-0.28125 -0.5625,-0.1875 -0.9375,-0.375 -0.375,-0.1875 -0.54687,-0.34375 -0.17188,-0.17188 -0.26563,-0.51563 -0.0937,-0.35937 -0.0937,-1.04687 0,-0.45313 0.0312,-0.71875 0.0312,-0.28125 0.0937,-0.4375 0.0625,-0.17188 0.15625,-0.21875 0.0937,-0.0625 0.23438,-0.0625 0.17187,0 0.5,0.20312 0.34375,0.1875 0.84375,0.42188 0.5,0.23437 1.15625,0.4375 0.67187,0.20312 1.51562,0.20312 0.53125,0 0.9375,-0.10937 0.42188,-0.10938 0.71875,-0.3125 0.3125,-0.20313 0.46875,-0.51563 0.15625,-0.3125 0.15625,-0.71875 0,-0.46875 -0.29687,-0.79687 -0.28125,-0.34375 -0.76563,-0.59375 -0.46875,-0.25 -1.07812,-0.46875 -0.59375,-0.21875 -1.23438,-0.48438 -0.625,-0.26562 -1.23437,-0.60937 -0.59375,-0.34375 -1.07813,-0.84375 -0.46875,-0.5 -0.76562,-1.20313 -0.28125,-0.70312 -0.28125,-1.6875 0,-1 0.39062,-1.82812 0.39063,-0.84375 1.125,-1.4375 0.73438,-0.59375 1.78125,-0.92188 1.0625,-0.32812 2.375,-0.32812 0.65625,0 1.26563,0.0937 0.625,0.0937 1.125,0.23437 0.5,0.14063 0.84375,0.3125 0.34375,0.15625 0.48437,0.28125 0.15625,0.10938 0.21875,0.23438 0.0625,0.10937 0.0937,0.28125 0.0312,0.15625 0.0469,0.40625 0.0312,0.23437 0.0312,0.59375 0,0.42187 -0.0312,0.6875 -0.0156,0.26562 -0.0781,0.42187 -0.0469,0.15625 -0.14062,0.21875 -0.0937,0.0469 -0.21875,0.0469 -0.14063,0 -0.4375,-0.15625 -0.29688,-0.17188 -0.75,-0.35938 -0.4375,-0.1875 -1.03125,-0.34375 -0.57813,-0.17187 -1.32813,-0.17187 -0.53125,0 -0.92187,0.10937 -0.39063,0.10938 -0.64063,0.3125 -0.25,0.20313 -0.375,0.48438 -0.125,0.26562 -0.125,0.57812 0,0.48438 0.29688,0.8125 0.29687,0.32813 0.78125,0.57813 0.48437,0.25 1.09375,0.46875 0.625,0.21875 1.25,0.48437 0.64062,0.25 1.25,0.59375 0.625,0.34375 1.10937,0.84375 0.48438,0.5 0.78125,1.20313 0.29688,0.6875 0.29688,1.64062 z m 11.20312,2.5625 q 0,0.6875 -0.0937,1.0625 -0.0781,0.35938 -0.21875,0.51563 -0.14062,0.14062 -0.42187,0.26562 -0.26563,0.10938 -0.64063,0.1875 -0.35937,0.0937 -0.79687,0.14063 -0.42188,0.0469 -0.85938,0.0469 -1.17187,0 -2.03125,-0.29687 -0.85937,-0.29688 -1.42187,-0.90625 -0.5625,-0.625 -0.82813,-1.5625 -0.26562,-0.9375 -0.26562,-2.21875 l 0,-7.14063 -1.67188,0 q -0.29687,0 -0.45312,-0.35937 -0.15625,-0.375 -0.15625,-1.23438 0,-0.45312 0.0312,-0.76562 0.0469,-0.3125 0.125,-0.48438 0.0781,-0.1875 0.1875,-0.26562 0.125,-0.0781 0.28125,-0.0781 l 1.65625,0 0,-3.10937 q 0,-0.15625 0.0781,-0.28125 0.0937,-0.125 0.3125,-0.20313 0.23438,-0.0937 0.60938,-0.125 0.39062,-0.0469 0.95312,-0.0469 0.57813,0 0.95313,0.0469 0.39062,0.0312 0.60937,0.125 0.21875,0.0781 0.3125,0.20313 0.0937,0.125 0.0937,0.28125 l 0,3.10937 3.03125,0 q 0.15625,0 0.26563,0.0781 0.125,0.0781 0.20312,0.26562 0.0781,0.17188 0.10938,0.48438 0.0469,0.3125 0.0469,0.76562 0,0.85938 -0.15625,1.23438 -0.15625,0.35937 -0.45312,0.35937 l -3.04688,0 0,6.54688 q 0,1.14062 0.35938,1.71875 0.35937,0.5625 1.28125,0.5625 0.3125,0 0.5625,-0.0469 0.25,-0.0625 0.4375,-0.125 0.20312,-0.0781 0.32812,-0.125 0.14063,-0.0625 0.25,-0.0625 0.0937,0 0.17188,0.0625 0.0937,0.0469 0.14062,0.21875 0.0469,0.15625 0.0781,0.4375 0.0469,0.28125 0.0469,0.71875 z m 14.71875,1.42188 q 0,0.21875 -0.15625,0.34375 -0.15625,0.125 -0.5,0.17187 -0.32813,0.0625 -0.98438,0.0625 -0.70312,0 -1.03125,-0.0625 -0.3125,-0.0469 -0.45312,-0.17187 -0.125,-0.125 -0.125,-0.34375 l 0,-1.10938 q -0.85937,0.92188 -1.96875,1.4375 -1.09375,0.51563 -2.4375,0.51563 -1.10937,0 -2.04687,-0.29688 -0.92188,-0.28125 -1.60938,-0.84375 -0.67187,-0.57812 -1.04687,-1.42187 -0.375,-0.84375 -0.375,-1.96875 0,-1.21875 0.46875,-2.10938 0.48437,-0.90625 1.42187,-1.48437 0.95313,-0.59375 2.35938,-0.875 1.40625,-0.28125 3.26562,-0.28125 l 1.35938,0 0,-0.84375 q 0,-0.65625 -0.14063,-1.14063 -0.125,-0.5 -0.4375,-0.82812 -0.29687,-0.32813 -0.8125,-0.48438 -0.5,-0.15625 -1.25,-0.15625 -0.98437,0 -1.76562,0.21875 -0.76563,0.21875 -1.35938,0.48438 -0.59375,0.26562 -1,0.48437 -0.39062,0.21875 -0.64062,0.21875 -0.17188,0 -0.3125,-0.10937 -0.125,-0.10938 -0.21875,-0.3125 -0.0781,-0.20313 -0.125,-0.5 -0.0469,-0.29688 -0.0469,-0.65625 0,-0.48438 0.0781,-0.76563 0.0781,-0.28125 0.29687,-0.5 0.21875,-0.23437 0.76563,-0.5 0.54687,-0.28125 1.28125,-0.51562 0.73437,-0.23438 1.59375,-0.375 0.875,-0.15625 1.79687,-0.15625 1.64063,0 2.79687,0.32812 1.17188,0.3125 1.92188,0.98438 0.75,0.65625 1.09375,1.70312 0.34375,1.04688 0.34375,2.48438 l 0,9.375 z m -3.85937,-5.96875 -1.5,0 q -0.95313,0 -1.625,0.14062 -0.67188,0.14063 -1.09375,0.42188 -0.42188,0.28125 -0.625,0.6875 -0.1875,0.39062 -0.1875,0.90625 0,0.875 0.54687,1.375 0.5625,0.5 1.54688,0.5 0.82812,0 1.51562,-0.42188 0.70313,-0.42187 1.42188,-1.23437 l 0,-2.375 z m 21.09374,5.92187 q 0,0.15625 -0.0937,0.28125 -0.0937,0.10938 -0.3125,0.1875 -0.21875,0.0781 -0.60937,0.10938 -0.375,0.0469 -0.9375,0.0469 -0.57813,0 -0.96875,-0.0469 -0.375,-0.0312 -0.59375,-0.10938 -0.21875,-0.0781 -0.3125,-0.1875 -0.0937,-0.125 -0.0937,-0.28125 l 0,-7.95312 q 0,-1.01563 -0.15625,-1.59375 -0.14063,-0.57813 -0.42188,-0.98438 -0.28125,-0.42187 -0.73437,-0.64062 -0.4375,-0.23438 -1.03125,-0.23438 -0.75,0 -1.51563,0.54688 -0.76562,0.54687 -1.59375,1.59375 l 0,9.26562 q 0,0.15625 -0.0937,0.28125 -0.0937,0.10938 -0.32812,0.1875 -0.21875,0.0781 -0.59375,0.10938 -0.375,0.0469 -0.95313,0.0469 -0.57812,0 -0.95312,-0.0469 -0.375,-0.0312 -0.60938,-0.10938 -0.21875,-0.0781 -0.3125,-0.1875 -0.0937,-0.125 -0.0937,-0.28125 l 0,-13.9375 q 0,-0.15625 0.0781,-0.26562 0.0781,-0.125 0.28125,-0.20313 0.20312,-0.0781 0.51562,-0.10937 0.32813,-0.0469 0.8125,-0.0469 0.5,0 0.82813,0.0469 0.32812,0.0312 0.5,0.10937 0.1875,0.0781 0.26562,0.20313 0.0781,0.10937 0.0781,0.26562 l 0,1.60938 q 1.15625,-1.25 2.34375,-1.875 1.20312,-0.625 2.5,-0.625 1.42187,0 2.39062,0.46875 0.98438,0.46875 1.57813,1.28125 0.60937,0.79687 0.875,1.875 0.26562,1.07812 0.26562,2.59375 l 0,8.60937 z m 14.40625,-2.21875 q 0,0.40625 -0.0312,0.6875 -0.0156,0.26563 -0.0625,0.45313 -0.0312,0.1875 -0.0937,0.3125 -0.0469,0.10937 -0.23437,0.29687 -0.1875,0.17188 -0.64063,0.4375 -0.45312,0.25 -1.03125,0.45313 -0.57812,0.20312 -1.26562,0.32812 -0.67188,0.125 -1.39063,0.125 -1.60937,0 -2.85937,-0.5 -1.23438,-0.5 -2.07813,-1.46875 -0.84375,-0.98437 -1.28125,-2.39062 -0.42187,-1.40625 -0.42187,-3.21875 0,-2.09375 0.51562,-3.60938 0.53125,-1.53125 1.46875,-2.53125 0.9375,-1 2.21875,-1.48437 1.28125,-0.48438 2.8125,-0.48438 0.625,0 1.21875,0.10938 0.60938,0.10937 1.125,0.29687 0.53125,0.1875 0.9375,0.42188 0.42188,0.23437 0.59375,0.40625 0.17188,0.17187 0.23438,0.29687 0.0781,0.10938 0.10937,0.29688 0.0469,0.1875 0.0625,0.46875 0.0312,0.26562 0.0312,0.65625 0,0.90625 -0.15625,1.28125 -0.15625,0.35937 -0.40625,0.35937 -0.26562,0 -0.5625,-0.21875 -0.29687,-0.21875 -0.70312,-0.48437 -0.40625,-0.26563 -0.96875,-0.48438 -0.5625,-0.21875 -1.34375,-0.21875 -1.53125,0 -2.34375,1.1875 -0.8125,1.17188 -0.8125,3.45313 0,1.125 0.20312,1.98437 0.20313,0.85938 0.59375,1.4375 0.40625,0.57813 1,0.875 0.60938,0.28125 1.40625,0.28125 0.8125,0 1.39063,-0.23437 0.59375,-0.25 1.03125,-0.54688 0.4375,-0.29687 0.73437,-0.53125 0.29688,-0.25 0.5,-0.25 0.14063,0 0.23438,0.0781 0.0937,0.0781 0.14062,0.29687 0.0625,0.20313 0.0937,0.53125 0.0312,0.32813 0.0312,0.84375 z m 15.71875,-5.15625 q 0,0.71875 -0.32812,1.0625 -0.3125,0.34375 -0.875,0.34375 l -8.48438,0 q 0,0.89063 0.20313,1.625 0.21875,0.71875 0.67187,1.23438 0.46875,0.5 1.1875,0.76562 0.73438,0.26563 1.75,0.26563 1.03125,0 1.8125,-0.14063 0.78125,-0.15625 1.34375,-0.32812 0.57813,-0.1875 0.95313,-0.32813 0.375,-0.15625 0.60937,-0.15625 0.14063,0 0.23438,0.0625 0.0937,0.0469 0.15625,0.1875 0.0625,0.14063 0.0781,0.40625 0.0312,0.25 0.0312,0.64063 0,0.34375 -0.0156,0.59375 -0.0156,0.23437 -0.0469,0.40625 -0.0312,0.17187 -0.0937,0.29687 -0.0625,0.10938 -0.17187,0.21875 -0.0937,0.10938 -0.54688,0.29688 -0.45312,0.1875 -1.15625,0.375 -0.70312,0.17187 -1.60937,0.29687 -0.90625,0.14063 -1.9375,0.14063 -1.85938,0 -3.26563,-0.46875 -1.39062,-0.46875 -2.32812,-1.42188 -0.9375,-0.95312 -1.40625,-2.40625 -0.45313,-1.45312 -0.45313,-3.40625 0,-1.85937 0.48438,-3.34375 0.48437,-1.5 1.40625,-2.53125 0.92187,-1.04687 2.23437,-1.59375 1.32813,-0.54687 2.98438,-0.54687 1.75,0 2.98437,0.51562 1.25,0.51563 2.04688,1.4375 0.79687,0.90625 1.17187,2.15625 0.375,1.25 0.375,2.71875 l 0,0.625 z m -3.8125,-1.125 q 0.0469,-1.65625 -0.67187,-2.59375 -0.70313,-0.95312 -2.1875,-0.95312 -0.75,0 -1.3125,0.28125 -0.54688,0.28125 -0.92188,0.76562 -0.35937,0.46875 -0.5625,1.125 -0.1875,0.64063 -0.21875,1.375 l 5.875,0 z m 22.53125,7.125 q 0,0.6875 -0.0937,1.0625 -0.0781,0.35938 -0.21875,0.51563 -0.14062,0.14062 -0.42187,0.26562 -0.26563,0.10938 -0.64063,0.1875 -0.35937,0.0937 -0.79687,0.14063 -0.42188,0.0469 -0.85938,0.0469 -1.17187,0 -2.03125,-0.29687 -0.85937,-0.29688 -1.42187,-0.90625 -0.5625,-0.625 -0.82813,-1.5625 -0.26562,-0.9375 -0.26562,-2.21875 l 0,-7.14063 -1.67188,0 q -0.29687,0 -0.45312,-0.35937 -0.15625,-0.375 -0.15625,-1.23438 0,-0.45312 0.0312,-0.76562 0.0469,-0.3125 0.125,-0.48438 0.0781,-0.1875 0.1875,-0.26562 0.125,-0.0781 0.28125,-0.0781 l 1.65625,0 0,-3.10937 q 0,-0.15625 0.0781,-0.28125 0.0937,-0.125 0.3125,-0.20313 0.23438,-0.0937 0.60938,-0.125 0.39062,-0.0469 0.95312,-0.0469 0.57813,0 0.95313,0.0469 0.39062,0.0312 0.60937,0.125 0.21875,0.0781 0.3125,0.20313 0.0937,0.125 0.0937,0.28125 l 0,3.10937 3.03125,0 q 0.15625,0 0.26563,0.0781 0.125,0.0781 0.20312,0.26562 0.0781,0.17188 0.10938,0.48438 0.0469,0.3125 0.0469,0.76562 0,0.85938 -0.15625,1.23438 -0.15625,0.35937 -0.45312,0.35937 l -3.04688,0 0,6.54688 q 0,1.14062 0.35938,1.71875 0.35937,0.5625 1.28125,0.5625 0.3125,0 0.5625,-0.0469 0.25,-0.0625 0.4375,-0.125 0.20312,-0.0781 0.32812,-0.125 0.14063,-0.0625 0.25,-0.0625 0.0937,0 0.17188,0.0625 0.0937,0.0469 0.14062,0.21875 0.0469,0.15625 0.0781,0.4375 0.0469,0.28125 0.0469,0.71875 z m 16.9375,-5.73437 q 0,1.78125 -0.46875,3.25 -0.46875,1.46875 -1.42187,2.53125 -0.95313,1.0625 -2.39063,1.64062 -1.4375,0.57813 -3.35937,0.57813 -1.85938,0 -3.23438,-0.51563 -1.375,-0.51562 -2.28125,-1.5 -0.90625,-0.98437 -1.34375,-2.42187 -0.4375,-1.4375 -0.4375,-3.28125 0,-1.78125 0.46875,-3.25 0.48438,-1.48438 1.4375,-2.53125 0.95313,-1.0625 2.375,-1.64063 1.4375,-0.57812 3.35938,-0.57812 1.875,0 3.25,0.51562 1.375,0.5 2.26562,1.48438 0.90625,0.98437 1.34375,2.42187 0.4375,1.4375 0.4375,3.29688 z m -4.04687,0.15625 q 0,-1.03125 -0.17188,-1.89063 -0.15625,-0.875 -0.54687,-1.51562 -0.39063,-0.64063 -1.04688,-1 -0.64062,-0.35938 -1.625,-0.35938 -0.875,0 -1.53125,0.32813 -0.65625,0.3125 -1.07812,0.9375 -0.42188,0.60937 -0.64063,1.48437 -0.20312,0.85938 -0.20312,1.96875 0,1.03125 0.17187,1.90625 0.17188,0.85938 0.54688,1.5 0.39062,0.64063 1.04687,1 0.65625,0.34375 1.625,0.34375 0.89063,0 1.54688,-0.3125 0.65625,-0.32812 1.07812,-0.9375 0.42188,-0.60937 0.625,-1.46875 0.20313,-0.875 0.20313,-1.98437 z m 29.26562,1.42187 q 0,1.07813 -0.29687,1.95313 -0.29688,0.875 -0.82813,1.54687 -0.51562,0.67188 -1.25,1.15625 -0.71875,0.48438 -1.59375,0.79688 -0.875,0.3125 -1.875,0.46875 -0.98437,0.14062 -2.20312,0.14062 l -5.375,0 q -0.51563,0 -0.875,-0.29687 -0.34375,-0.3125 -0.34375,-1 l 0,-17.625 q 0,-0.6875 0.34375,-0.98438 0.35937,-0.3125 0.875,-0.3125 l 5.07812,0 q 1.85938,0 3.14063,0.3125 1.29687,0.3125 2.17187,0.95313 0.89063,0.625 1.35938,1.59375 0.46875,0.96875 0.46875,2.28125 0,0.73437 -0.1875,1.39062 -0.1875,0.64063 -0.54688,1.17188 -0.35937,0.53125 -0.89062,0.9375 -0.51563,0.40625 -1.1875,0.65625 0.85937,0.15625 1.57812,0.54687 0.73438,0.39063 1.26563,1.01563 0.54687,0.60937 0.85937,1.4375 0.3125,0.82812 0.3125,1.85937 z m -5.3125,-8.51562 q 0,-0.60938 -0.1875,-1.09375 -0.1875,-0.48438 -0.5625,-0.79688 -0.375,-0.32812 -0.95312,-0.5 -0.5625,-0.17187 -1.51563,-0.17187 l -2.07812,0 0,5.25 2.29687,0 q 0.89063,0 1.42188,-0.20313 0.53125,-0.21875 0.875,-0.57812 0.35937,-0.375 0.53125,-0.85938 0.17187,-0.5 0.17187,-1.04687 z m 1.04688,8.65625 q 0,-0.70313 -0.23438,-1.25 -0.23437,-0.5625 -0.6875,-0.9375 -0.45312,-0.375 -1.15625,-0.57813 -0.70312,-0.20312 -1.82812,-0.20312 l -2.4375,0 0,5.75 2.96875,0 q 0.85937,0 1.4375,-0.17188 0.59375,-0.1875 1.01562,-0.53125 0.4375,-0.35937 0.67188,-0.875 0.25,-0.53125 0.25,-1.20312 z m 21.42189,-1.71875 q 0,1.78125 -0.46875,3.25 -0.46875,1.46875 -1.42189,2.53125 -0.95313,1.0625 -2.39063,1.64062 -1.4375,0.57813 -3.35937,0.57813 -1.85938,0 -3.23438,-0.51563 -1.375,-0.51562 -2.28125,-1.5 -0.90625,-0.98437 -1.34375,-2.42187 -0.4375,-1.4375 -0.4375,-3.28125 0,-1.78125 0.46875,-3.25 0.48438,-1.48438 1.4375,-2.53125 0.95313,-1.0625 2.375,-1.64063 1.4375,-0.57812 3.35938,-0.57812 1.875,0 3.25,0.51562 1.375,0.5 2.26562,1.48438 0.90627,0.98437 1.34377,2.42187 0.4375,1.4375 0.4375,3.29688 z m -4.04689,0.15625 q 0,-1.03125 -0.17188,-1.89063 -0.15625,-0.875 -0.54687,-1.51562 -0.39063,-0.64063 -1.04688,-1 -0.64062,-0.35938 -1.625,-0.35938 -0.875,0 -1.53125,0.32813 -0.65625,0.3125 -1.07812,0.9375 -0.42188,0.60937 -0.64063,1.48437 -0.20312,0.85938 -0.20312,1.96875 0,1.03125 0.17187,1.90625 0.17188,0.85938 0.54688,1.5 0.39062,0.64063 1.04687,1 0.65625,0.34375 1.625,0.34375 0.89063,0 1.54688,-0.3125 0.65625,-0.32812 1.07812,-0.9375 0.42188,-0.60937 0.625,-1.46875 0.20313,-0.875 0.20313,-1.98437 z m 20.37501,6.95312 q 0,0.15625 -0.0781,0.28125 -0.0781,0.10938 -0.28125,0.1875 -0.1875,0.0781 -0.51563,0.10938 -0.3125,0.0469 -0.79687,0.0469 -0.51563,0 -0.84375,-0.0469 -0.3125,-0.0312 -0.5,-0.10938 -0.1875,-0.0781 -0.26563,-0.1875 -0.0781,-0.125 -0.0781,-0.28125 l 0,-1.60937 q -1.15625,1.25 -2.35938,1.875 -1.1875,0.625 -2.46875,0.625 -1.4375,0 -2.42187,-0.46875 -0.96875,-0.46875 -1.57813,-1.28125 -0.59375,-0.8125 -0.85937,-1.875 -0.25,-1.07813 -0.25,-2.67188 l 0,-8.53125 q 0,-0.15625 0.0781,-0.26562 0.0937,-0.125 0.3125,-0.20313 0.23438,-0.0781 0.60938,-0.10937 0.39062,-0.0469 0.95312,-0.0469 0.57813,0 0.95313,0.0469 0.375,0.0312 0.59375,0.10937 0.23437,0.0781 0.32812,0.20313 0.0937,0.10937 0.0937,0.26562 l 0,7.875 q 0,1.09375 0.14063,1.67188 0.14062,0.57812 0.42187,1 0.29688,0.40625 0.73438,0.64062 0.45312,0.21875 1.04687,0.21875 0.75,0 1.5,-0.54687 0.76563,-0.54688 1.625,-1.59375 l 0,-9.26563 q 0,-0.15625 0.0781,-0.26562 0.0937,-0.125 0.3125,-0.20313 0.23437,-0.0781 0.60937,-0.10937 0.375,-0.0469 0.95313,-0.0469 0.57812,0 0.95312,0.0469 0.375,0.0312 0.59375,0.10937 0.21875,0.0781 0.3125,0.20313 0.0937,0.10937 0.0937,0.26562 l 0,13.9375 z m 17.26563,0 q 0,0.15625 -0.0937,0.28125 -0.0937,0.10938 -0.3125,0.1875 -0.21875,0.0781 -0.60938,0.10938 -0.375,0.0469 -0.9375,0.0469 -0.57812,0 -0.96875,-0.0469 -0.375,-0.0312 -0.59375,-0.10938 -0.21875,-0.0781 -0.3125,-0.1875 -0.0937,-0.125 -0.0937,-0.28125 l 0,-7.95312 q 0,-1.01563 -0.15625,-1.59375 -0.14062,-0.57813 -0.42187,-0.98438 -0.28125,-0.42187 -0.73438,-0.64062 -0.4375,-0.23438 -1.03125,-0.23438 -0.75,0 -1.51562,0.54688 -0.76563,0.54687 -1.59375,1.59375 l 0,9.26562 q 0,0.15625 -0.0937,0.28125 -0.0937,0.10938 -0.32813,0.1875 -0.21875,0.0781 -0.59375,0.10938 -0.375,0.0469 -0.95312,0.0469 -0.57813,0 -0.95313,-0.0469 -0.375,-0.0312 -0.60937,-0.10938 -0.21875,-0.0781 -0.3125,-0.1875 -0.0937,-0.125 -0.0937,-0.28125 l 0,-13.9375 q 0,-0.15625 0.0781,-0.26562 0.0781,-0.125 0.28125,-0.20313 0.20313,-0.0781 0.51563,-0.10937 0.32812,-0.0469 0.8125,-0.0469 0.5,0 0.82812,0.0469 0.32813,0.0312 0.5,0.10937 0.1875,0.0781 0.26563,0.20313 0.0781,0.10937 0.0781,0.26562 l 0,1.60938 q 1.15625,-1.25 2.34375,-1.875 1.20313,-0.625 2.5,-0.625 1.42188,0 2.39063,0.46875 0.98437,0.46875 1.57812,1.28125 0.60938,0.79687 0.875,1.875 0.26563,1.07812 0.26563,2.59375 l 0,8.60937 z m 17.07812,0 q 0,0.17188 -0.0781,0.29688 -0.0781,0.10937 -0.26563,0.1875 -0.1875,0.0781 -0.51562,0.10937 -0.3125,0.0312 -0.78125,0.0312 -0.5,0 -0.8125,-0.0312 -0.3125,-0.0312 -0.51563,-0.10937 -0.1875,-0.0781 -0.28125,-0.1875 -0.0781,-0.125 -0.0781,-0.29688 l 0,-1.54687 q -1.07813,1.15625 -2.26563,1.79687 -1.17187,0.64063 -2.60937,0.64063 -1.59375,0 -2.70313,-0.60938 -1.09375,-0.625 -1.79687,-1.67187 -0.6875,-1.04688 -1,-2.4375 -0.3125,-1.40625 -0.3125,-2.95313 0,-1.85937 0.39062,-3.34375 0.40625,-1.48437 1.17188,-2.53125 0.76562,-1.04687 1.90625,-1.60937 1.14062,-0.5625 2.625,-0.5625 1.17187,0 2.125,0.48437 0.95312,0.46875 1.89062,1.39063 l 0,-7.54688 q 0,-0.15625 0.0781,-0.28125 0.0937,-0.125 0.3125,-0.20312 0.23437,-0.0937 0.60937,-0.14063 0.375,-0.0469 0.95313,-0.0469 0.57812,0 0.95312,0.0469 0.375,0.0469 0.59375,0.14063 0.21875,0.0781 0.3125,0.20312 0.0937,0.125 0.0937,0.28125 l 0,20.5 z m -3.90625,-9.3125 q -0.84375,-1.0625 -1.625,-1.625 -0.76562,-0.5625 -1.60937,-0.5625 -0.76563,0 -1.32813,0.39063 -0.54687,0.375 -0.89062,1.01562 -0.32813,0.64063 -0.5,1.4375 -0.15625,0.78125 -0.15625,1.60938 0,0.875 0.14062,1.70312 0.14063,0.82813 0.45313,1.48438 0.32812,0.64062 0.85937,1.03125 0.53125,0.39062 1.34375,0.39062 0.40625,0 0.78125,-0.10937 0.39063,-0.125 0.78125,-0.39063 0.40625,-0.26562 0.82813,-0.6875 0.42187,-0.4375 0.92187,-1.0625 l 0,-4.625 z m 19.73438,9.35938 q 0,0.21875 -0.15625,0.34375 -0.15625,0.125 -0.5,0.17187 -0.32813,0.0625 -0.98438,0.0625 -0.70312,0 -1.03125,-0.0625 -0.3125,-0.0469 -0.45312,-0.17187 -0.125,-0.125 -0.125,-0.34375 l 0,-1.10938 q -0.85938,0.92188 -1.96875,1.4375 -1.09375,0.51563 -2.4375,0.51563 -1.10938,0 -2.04688,-0.29688 -0.92187,-0.28125 -1.60937,-0.84375 -0.67188,-0.57812 -1.04688,-1.42187 -0.375,-0.84375 -0.375,-1.96875 0,-1.21875 0.46875,-2.10938 0.48438,-0.90625 1.42188,-1.48437 0.95312,-0.59375 2.35937,-0.875 1.40625,-0.28125 3.26563,-0.28125 l 1.35937,0 0,-0.84375 q 0,-0.65625 -0.14062,-1.14063 -0.125,-0.5 -0.4375,-0.82812 -0.29688,-0.32813 -0.8125,-0.48438 -0.5,-0.15625 -1.25,-0.15625 -0.98438,0 -1.76563,0.21875 -0.76562,0.21875 -1.35937,0.48438 -0.59375,0.26562 -1,0.48437 -0.39063,0.21875 -0.64063,0.21875 -0.17187,0 -0.3125,-0.10937 -0.125,-0.10938 -0.21875,-0.3125 -0.0781,-0.20313 -0.125,-0.5 -0.0469,-0.29688 -0.0469,-0.65625 0,-0.48438 0.0781,-0.76563 0.0781,-0.28125 0.29688,-0.5 0.21875,-0.23437 0.76562,-0.5 0.54688,-0.28125 1.28125,-0.51562 0.73438,-0.23438 1.59375,-0.375 0.875,-0.15625 1.79688,-0.15625 1.64062,0 2.79687,0.32812 1.17188,0.3125 1.92188,0.98438 0.75,0.65625 1.09375,1.70312 0.34375,1.04688 0.34375,2.48438 l 0,9.375 z m -3.85938,-5.96875 -1.5,0 q -0.95312,0 -1.625,0.14062 -0.67187,0.14063 -1.09375,0.42188 -0.42187,0.28125 -0.625,0.6875 -0.1875,0.39062 -0.1875,0.90625 0,0.875 0.54688,1.375 0.5625,0.5 1.54687,0.5 0.82813,0 1.51563,-0.42188 0.70312,-0.42187 1.42187,-1.23437 l 0,-2.375 z m 16.73438,-6.71875 q 0,0.5625 -0.0312,0.92187 -0.0312,0.35938 -0.0937,0.5625 -0.0625,0.20313 -0.17188,0.28125 -0.0937,0.0781 -0.25,0.0781 -0.125,0 -0.28125,-0.0469 -0.15625,-0.0625 -0.35937,-0.125 -0.1875,-0.0625 -0.42188,-0.10937 -0.23437,-0.0625 -0.51562,-0.0625 -0.32813,0 -0.65625,0.14062 -0.32813,0.125 -0.6875,0.40625 -0.34375,0.28125 -0.73438,0.75 -0.375,0.46875 -0.8125,1.15625 l 0,8.6875 q 0,0.15625 -0.0937,0.28125 -0.0937,0.10938 -0.32812,0.1875 -0.21875,0.0781 -0.59375,0.10938 -0.375,0.0469 -0.95313,0.0469 -0.57812,0 -0.95312,-0.0469 -0.375,-0.0312 -0.60938,-0.10938 -0.21875,-0.0781 -0.3125,-0.1875 -0.0937,-0.125 -0.0937,-0.28125 l 0,-13.9375 q 0,-0.15625 0.0781,-0.26562 0.0781,-0.125 0.28125,-0.20313 0.20312,-0.0781 0.51562,-0.10937 0.32813,-0.0469 0.8125,-0.0469 0.5,0 0.82813,0.0469 0.32812,0.0312 0.5,0.10937 0.1875,0.0781 0.26562,0.20313 0.0781,0.10937 0.0781,0.26562 l 0,1.73438 q 0.54687,-0.78125 1.03125,-1.28125 0.48437,-0.51563 0.92187,-0.8125 0.4375,-0.29688 0.875,-0.40625 0.4375,-0.125 0.875,-0.125 0.20313,0 0.4375,0.0312 0.23438,0.0156 0.48438,0.0781 0.25,0.0469 0.4375,0.125 0.1875,0.0625 0.26562,0.14063 0.0937,0.0781 0.125,0.17187 0.0469,0.0937 0.0781,0.26563 0.0312,0.15625 0.0469,0.48437 0.0156,0.32813 0.0156,0.89063 z m 10.5,13.17187 -1.6875,4.9375 q -0.14063,0.39063 -0.76563,0.5625 -0.625,0.17188 -1.82812,0.17188 -0.625,0 -1,-0.0625 -0.375,-0.0469 -0.5625,-0.17188 -0.1875,-0.125 -0.20313,-0.3125 -0.0156,-0.1875 0.0937,-0.45312 l 1.85938,-4.67188 q -0.20313,-0.0937 -0.375,-0.28125 -0.15625,-0.20312 -0.23438,-0.42187 l -4.79687,-12.8125 q -0.20313,-0.54688 -0.20313,-0.82813 0,-0.29687 0.1875,-0.45312 0.1875,-0.17188 0.625,-0.23438 0.45313,-0.0625 1.1875,-0.0625 0.67188,0 1.0625,0.0312 0.39063,0.0156 0.60938,0.10938 0.21875,0.0937 0.32812,0.29687 0.10938,0.1875 0.21875,0.54688 l 3.28125,9.32812 0.0469,0 3,-9.51562 q 0.0937,-0.40625 0.23437,-0.53125 0.15625,-0.14063 0.5,-0.20313 0.34375,-0.0625 1.20313,-0.0625 0.67187,0 1.10937,0.0625 0.45313,0.0625 0.65625,0.23438 0.21875,0.17187 0.21875,0.46875 0,0.28125 -0.125,0.67187 l -4.64062,13.65625 z"
         inkscape:connector-curvature="0"
         style="fill:#000000;fill-rule:nonzero;stroke:none;stroke-linecap:square;stroke-miterlimit:10" />
    </g>
    <g
       id="g5542">
      <path
         id="path5094"
         d="m 192.30453,298.10868 102.71182,0 0,102.71179 -102.71182,0 z"
         inkscape:connector-curvature="0"
         style="fill:#ffc000;fill-rule:nonzero;stroke:none;stroke-linecap:square;stroke-miterlimit:10" />
      <path
         id="path5096"
         d="m 192.30453,298.10868 102.71182,0 0,102.71179 -102.71182,0 z"
         inkscape:connector-curvature="0"
         style="fill:none;fill-rule:nonzero;stroke:#000000;stroke-width:1;stroke-linecap:butt;stroke-linejoin:round;stroke-miterlimit:10" />
      <path
         id="path5098"
         d="m 295.01635,244.185 102.71179,0 0,102.71179 -102.71179,0 z"
         inkscape:connector-curvature="0"
         style="fill:#c00000;fill-rule:nonzero;stroke:none;stroke-linecap:square;stroke-miterlimit:10" />
      <path
         id="path5100"
         d="m 295.01635,244.185 102.71179,0 0,102.71179 -102.71179,0 z"
         inkscape:connector-curvature="0"
         style="fill:none;fill-rule:nonzero;stroke:#000000;stroke-width:1;stroke-linecap:butt;stroke-linejoin:round;stroke-miterlimit:10" />
      <path
         id="path5102"
         d="m 295.01635,359.73572 102.71179,0 0,102.71176 -102.71179,0 z"
         inkscape:connector-curvature="0"
         style="fill:#008000;fill-rule:nonzero;stroke:none;stroke-linecap:square;stroke-miterlimit:10" />
      <path
         id="path5104"
         d="m 295.01635,359.73572 102.71179,0 0,102.71176 -102.71179,0 z"
         inkscape:connector-curvature="0"
         style="fill:none;fill-rule:nonzero;stroke:#000000;stroke-width:1;stroke-linecap:butt;stroke-linejoin:round;stroke-miterlimit:10" />
      <path
         id="path5106"
         d="m 399.01195,303.24425 102.71179,0 0,102.71178 -102.71179,0 z"
         inkscape:connector-curvature="0"
         style="fill:#0070c0;fill-rule:nonzero;stroke:none;stroke-linecap:square;stroke-miterlimit:10" />
      <path
         id="path5108"
         d="m 399.01195,303.24425 102.71179,0 0,102.71178 -102.71179,0 z"
         inkscape:connector-curvature="0"
         style="fill:none;fill-rule:nonzero;stroke:#000000;stroke-width:1;stroke-linecap:butt;stroke-linejoin:round;stroke-miterlimit:10" />
      <path
         id="path5110"
         d="m 503.87222,244.9143 102.71179,0 0,102.71179 -102.71179,0 z"
         inkscape:connector-curvature="0"
         style="fill:#c00000;fill-rule:nonzero;stroke:none;stroke-linecap:square;stroke-miterlimit:10" />
      <path
         id="path5112"
         d="m 503.87222,244.9143 102.71179,0 0,102.71179 -102.71179,0 z"
         inkscape:connector-curvature="0"
         style="fill:none;fill-rule:nonzero;stroke:#000000;stroke-width:1;stroke-linecap:butt;stroke-linejoin:round;stroke-miterlimit:10" />
      <path
         id="path5114"
         d="m 504.98369,371.11603 102.71179,0 0,102.71176 -102.71179,0 z"
         inkscape:connector-curvature="0"
         style="fill:#ffc000;fill-rule:nonzero;stroke:none;stroke-linecap:square;stroke-miterlimit:10" />
      <path
         id="path5116"
         d="m 504.98369,371.11603 102.71179,0 0,102.71176 -102.71179,0 z"
         inkscape:connector-curvature="0"
         style="fill:none;fill-rule:nonzero;stroke:#000000;stroke-width:1;stroke-linecap:butt;stroke-linejoin:round;stroke-miterlimit:10" />
      <path
         id="path5118"
         d="m 516.54129,394.22724 0,0 c 0,-3.54541 2.87408,-6.41953 6.41949,-6.41953 l 0,0 c 1.70258,0 3.33539,0.67637 4.53931,1.88025 1.20386,1.20389 1.88025,2.83673 1.88025,4.53928 l 0,0 c 0,3.54541 -2.87415,6.41949 -6.41956,6.41949 l 0,0 c -3.54541,0 -6.41949,-2.87408 -6.41949,-6.41949 z"
         inkscape:connector-curvature="0"
         style="fill:#000000;fill-opacity:1;fill-rule:nonzero;stroke:none;stroke-linecap:square;stroke-miterlimit:10" />
      <path
         id="path5120"
         d="m 516.54129,394.22724 0,0 c 0,-3.54541 2.87408,-6.41953 6.41949,-6.41953 l 0,0 c 1.70258,0 3.33539,0.67637 4.53931,1.88025 1.20386,1.20389 1.88025,2.83673 1.88025,4.53928 l 0,0 c 0,3.54541 -2.87415,6.41949 -6.41956,6.41949 l 0,0 c -3.54541,0 -6.41949,-2.87408 -6.41949,-6.41949 z"
         inkscape:connector-curvature="0"
         style="fill:none;fill-rule:nonzero;stroke:#000000;stroke-width:1;stroke-linecap:butt;stroke-linejoin:round;stroke-miterlimit:10" />
      <path
         id="path5122"
         d="m 520.90659,384.34122 31.37372,0 0,42.78238 -31.37372,0 z"
         inkscape:connector-curvature="0"
         style="fill:#000000;fill-opacity:0;fill-rule:nonzero;stroke:none;stroke-linecap:square;stroke-miterlimit:10" />
      <path
         id="path5124"
         d="m 531.35974,405.51435 5.45313,-0.9375 q 1.48437,2.32812 2.09375,5.125 1.53125,-2.26563 2.3125,-3.17188 1.04687,-1.21875 1.71875,-1.57812 0.6875,-0.375 1.45312,-0.375 0.85938,0 1.3125,0.46875 0.46875,0.46875 0.46875,1.26562 0,0.75 -0.46875,1.23438 -0.45312,0.46875 -1.14062,0.46875 -0.5,0 -1.15625,-0.17188 -0.64063,-0.1875 -0.89063,-0.1875 -0.65625,0 -1.25,0.46875 -0.8125,0.64063 -2,2.73438 1.32813,4.6875 2.125,5.71875 0.46875,0.60937 0.95313,0.60937 0.40625,0 0.70312,-0.20312 0.45313,-0.32813 1.39063,-1.64063 l 0.5625,0.32813 q -1.375,2.21875 -2.6875,3.125 -1,0.70312 -1.96875,0.70312 -1,0 -1.67188,-0.4375 -0.65625,-0.45312 -1.17187,-1.45312 -0.51563,-1.01563 -1.21875,-3.23438 -1.82813,2.32813 -2.875,3.40625 -1.03125,1.0625 -1.71875,1.39063 -0.6875,0.32812 -1.46875,0.32812 -0.8125,0 -1.28125,-0.46875 -0.48438,-0.46875 -0.48438,-1.21875 0,-0.79687 0.51563,-1.3125 0.51562,-0.51562 1.3125,-0.51562 0.42187,0 0.95312,0.25 0.78125,0.375 1.125,0.375 0.45313,0 0.8125,-0.1875 0.46875,-0.23438 1.1875,-1.01563 0.4375,-0.48437 1.60938,-2.0625 -1.5,-5.5625 -2.34375,-6.65625 -0.53125,-0.70312 -1.34375,-0.70312 -0.42188,0 -1.03125,0.125 l 0.10937,-0.59375 z"
         inkscape:connector-curvature="0"
         style="fill:#000000;fill-opacity:1;fill-rule:nonzero;stroke:none;stroke-linecap:square;stroke-miterlimit:10" />
      <path
         id="path5126"
         d="m 571.74633,431.04549 36.12732,0 0,42.78235 -36.12732,0 z"
         inkscape:connector-curvature="0"
         style="fill:#000000;fill-opacity:0;fill-rule:nonzero;stroke:none;stroke-linecap:square;stroke-miterlimit:10" />
      <path
         id="path5128"
         d="m 585.74633,466.24985 0.6875,-17.71875 q 0.0469,-1.54688 0.0469,-1.625 0,-0.85938 -0.42187,-1.26563 -0.40625,-0.40625 -1.51563,-0.48437 l 0.1875,-0.57813 8.90625,0 -0.17187,0.57813 q -1.14063,0 -1.73438,0.6875 -0.57812,0.6875 -0.67187,2.84375 l -0.5,11.04687 8.26562,-9.59375 q 1.60938,-1.85937 1.98438,-2.57812 0.375,-0.71875 0.375,-1.25 0,-0.39063 -0.34375,-0.6875 -0.34375,-0.3125 -1.3125,-0.46875 l 0.21875,-0.57813 5.84375,0 0,0.57813 q -0.75,0.1875 -1.21875,0.54687 -0.6875,0.51563 -2.125,2.1875 l -15.8125,18.35938 -0.6875,0 z"
         inkscape:connector-curvature="0"
         style="fill:#000000;fill-rule:nonzero;stroke:none;stroke-linecap:square;stroke-miterlimit:10" />
      <path
         id="path5168"
         d="m 363.21099,193.39394 210.60352,0 0,48.46877 -210.60352,0 z"
         inkscape:connector-curvature="0"
         style="fill:#000000;fill-opacity:0;fill-rule:nonzero;stroke:none;stroke-linecap:square;stroke-miterlimit:10" />
      <path
         id="path5170"
         d="m 320.46866,507.35463 q 0,1.70312 -0.53125,3.01562 -0.53125,1.3125 -1.54687,2.21875 -1.01563,0.89063 -2.5,1.35938 -1.46875,0.46875 -3.46875,0.46875 l -1.6875,0 0,6.45312 q 0,0.15625 -0.10938,0.28125 -0.0937,0.125 -0.32812,0.20313 -0.23438,0.0781 -0.625,0.125 -0.39063,0.0469 -1,0.0469 -0.59375,0 -1,-0.0469 -0.39063,-0.0469 -0.625,-0.125 -0.23438,-0.0781 -0.32813,-0.20313 -0.0937,-0.125 -0.0937,-0.28125 l 0,-18.1875 q 0,-0.73437 0.375,-1.09375 0.39063,-0.375 1.01563,-0.375 l 4.76562,0 q 0.71875,0 1.35938,0.0625 0.65625,0.0469 1.5625,0.23438 0.90625,0.17187 1.82812,0.65625 0.9375,0.48437 1.59375,1.23437 0.65625,0.73438 1,1.73438 0.34375,0.98437 0.34375,2.21875 z m -4.29687,0.29687 q 0,-1.0625 -0.375,-1.75 -0.375,-0.6875 -0.92188,-1.01562 -0.54687,-0.32813 -1.15625,-0.40625 -0.59375,-0.0937 -1.23437,-0.0937 l -1.75,0 0,6.85937 1.84375,0 q 0.98437,0 1.64062,-0.26562 0.67188,-0.26563 1.09375,-0.73438 0.42188,-0.48437 0.64063,-1.14062 0.21875,-0.67188 0.21875,-1.45313 z m 21.34375,6.14063 q 0,1.78125 -0.46875,3.25 -0.46875,1.46875 -1.42188,2.53125 -0.95312,1.0625 -2.39062,1.64062 -1.4375,0.57813 -3.35938,0.57813 -1.85937,0 -3.23437,-0.51563 -1.375,-0.51562 -2.28125,-1.5 -0.90625,-0.98437 -1.34375,-2.42187 -0.4375,-1.4375 -0.4375,-3.28125 0,-1.78125 0.46875,-3.25 0.48437,-1.48438 1.4375,-2.53125 0.95312,-1.0625 2.375,-1.64063 1.4375,-0.57812 3.35937,-0.57812 1.875,0 3.25,0.51562 1.375,0.5 2.26563,1.48438 0.90625,0.98437 1.34375,2.42187 0.4375,1.4375 0.4375,3.29688 z m -4.04688,0.15625 q 0,-1.03125 -0.17187,-1.89063 -0.15625,-0.875 -0.54688,-1.51562 -0.39062,-0.64063 -1.04687,-1 -0.64063,-0.35938 -1.625,-0.35938 -0.875,0 -1.53125,0.32813 -0.65625,0.3125 -1.07813,0.9375 -0.42187,0.60937 -0.64062,1.48437 -0.20313,0.85938 -0.20313,1.96875 0,1.03125 0.17188,1.90625 0.17187,0.85938 0.54687,1.5 0.39063,0.64063 1.04688,1 0.65625,0.34375 1.625,0.34375 0.89062,0 1.54687,-0.3125 0.65625,-0.32812 1.07813,-0.9375 0.42187,-0.60937 0.625,-1.46875 0.20312,-0.875 0.20312,-1.98437 z m 11.09375,6.95312 q 0,0.15625 -0.0937,0.28125 -0.0937,0.10938 -0.32812,0.1875 -0.21875,0.0781 -0.59375,0.10938 -0.375,0.0469 -0.95313,0.0469 -0.57812,0 -0.95312,-0.0469 -0.375,-0.0312 -0.60938,-0.10938 -0.21875,-0.0781 -0.3125,-0.1875 -0.0937,-0.125 -0.0937,-0.28125 l 0,-13.90625 q 0,-0.15625 0.0937,-0.26562 0.0937,-0.125 0.3125,-0.20313 0.23438,-0.0937 0.60938,-0.14062 0.375,-0.0469 0.95312,-0.0469 0.57813,0 0.95313,0.0469 0.375,0.0469 0.59375,0.14062 0.23437,0.0781 0.32812,0.20313 0.0937,0.10937 0.0937,0.26562 l 0,13.90625 z m 0.29688,-18.65625 q 0,1.1875 -0.48438,1.64063 -0.48437,0.45312 -1.79687,0.45312 -1.32813,0 -1.79688,-0.4375 -0.45312,-0.4375 -0.45312,-1.57812 0,-1.1875 0.46875,-1.64063 0.48437,-0.46875 1.8125,-0.46875 1.3125,0 1.78125,0.45313 0.46875,0.4375 0.46875,1.57812 z m 16.9375,18.65625 q 0,0.15625 -0.0937,0.28125 -0.0937,0.10938 -0.3125,0.1875 -0.21875,0.0781 -0.60938,0.10938 -0.375,0.0469 -0.9375,0.0469 -0.57812,0 -0.96875,-0.0469 -0.375,-0.0312 -0.59375,-0.10938 -0.21875,-0.0781 -0.3125,-0.1875 -0.0937,-0.125 -0.0937,-0.28125 l 0,-7.95312 q 0,-1.01563 -0.15625,-1.59375 -0.14062,-0.57813 -0.42187,-0.98438 -0.28125,-0.42187 -0.73438,-0.64062 -0.4375,-0.23438 -1.03125,-0.23438 -0.75,0 -1.51562,0.54688 -0.76563,0.54687 -1.59375,1.59375 l 0,9.26562 q 0,0.15625 -0.0937,0.28125 -0.0937,0.10938 -0.32813,0.1875 -0.21875,0.0781 -0.59375,0.10938 -0.375,0.0469 -0.95312,0.0469 -0.57813,0 -0.95313,-0.0469 -0.375,-0.0312 -0.60937,-0.10938 -0.21875,-0.0781 -0.3125,-0.1875 -0.0937,-0.125 -0.0937,-0.28125 l 0,-13.9375 q 0,-0.15625 0.0781,-0.26562 0.0781,-0.125 0.28125,-0.20313 0.20313,-0.0781 0.51563,-0.10937 0.32812,-0.0469 0.8125,-0.0469 0.5,0 0.82812,0.0469 0.32813,0.0312 0.5,0.10937 0.1875,0.0781 0.26563,0.20313 0.0781,0.10937 0.0781,0.26562 l 0,1.60938 q 1.15625,-1.25 2.34375,-1.875 1.20313,-0.625 2.5,-0.625 1.42188,0 2.39063,0.46875 0.98437,0.46875 1.57812,1.28125 0.60938,0.79687 0.875,1.875 0.26563,1.07812 0.26563,2.59375 l 0,8.60937 z m 12.10937,-1.375 q 0,0.6875 -0.0937,1.0625 -0.0781,0.35938 -0.21875,0.51563 -0.14062,0.14062 -0.42187,0.26562 -0.26563,0.10938 -0.64063,0.1875 -0.35937,0.0937 -0.79687,0.14063 -0.42188,0.0469 -0.85938,0.0469 -1.17187,0 -2.03125,-0.29687 -0.85937,-0.29688 -1.42187,-0.90625 -0.5625,-0.625 -0.82813,-1.5625 -0.26562,-0.9375 -0.26562,-2.21875 l 0,-7.14063 -1.67188,0 q -0.29687,0 -0.45312,-0.35937 -0.15625,-0.375 -0.15625,-1.23438 0,-0.45312 0.0312,-0.76562 0.0469,-0.3125 0.125,-0.48438 0.0781,-0.1875 0.1875,-0.26562 0.125,-0.0781 0.28125,-0.0781 l 1.65625,0 0,-3.10937 q 0,-0.15625 0.0781,-0.28125 0.0937,-0.125 0.3125,-0.20313 0.23438,-0.0937 0.60938,-0.125 0.39062,-0.0469 0.95312,-0.0469 0.57813,0 0.95313,0.0469 0.39062,0.0312 0.60937,0.125 0.21875,0.0781 0.3125,0.20313 0.0937,0.125 0.0937,0.28125 l 0,3.10937 3.03125,0 q 0.15625,0 0.26563,0.0781 0.125,0.0781 0.20312,0.26562 0.0781,0.17188 0.10938,0.48438 0.0469,0.3125 0.0469,0.76562 0,0.85938 -0.15625,1.23438 -0.15625,0.35937 -0.45312,0.35937 l -3.04688,0 0,6.54688 q 0,1.14062 0.35938,1.71875 0.35937,0.5625 1.28125,0.5625 0.3125,0 0.5625,-0.0469 0.25,-0.0625 0.4375,-0.125 0.20312,-0.0781 0.32812,-0.125 0.14063,-0.0625 0.25,-0.0625 0.0937,0 0.17188,0.0625 0.0937,0.0469 0.14062,0.21875 0.0469,0.15625 0.0781,0.4375 0.0469,0.28125 0.0469,0.71875 z m 21.42188,0.1875 q 0,0.46875 -0.0469,0.79688 -0.0312,0.3125 -0.10937,0.53125 -0.0781,0.20312 -0.20313,0.29687 -0.10937,0.0937 -0.26562,0.0937 l -9.26563,0 q -0.51562,0 -0.875,-0.29687 -0.34375,-0.3125 -0.34375,-1 l 0,-18.35938 q 0,-0.15625 0.0937,-0.28125 0.10938,-0.125 0.34375,-0.20312 0.23438,-0.0781 0.625,-0.125 0.40625,-0.0469 1,-0.0469 0.60938,0 1,0.0469 0.39063,0.0469 0.625,0.125 0.23438,0.0781 0.32813,0.20312 0.10937,0.125 0.10937,0.28125 l 0,16.26563 6.35938,0 q 0.15625,0 0.26562,0.0937 0.125,0.0781 0.20313,0.28125 0.0781,0.1875 0.10937,0.51562 0.0469,0.3125 0.0469,0.78125 z m 16.28125,-5.92187 q 0,1.78125 -0.46875,3.25 -0.46875,1.46875 -1.42188,2.53125 -0.95312,1.0625 -2.39062,1.64062 -1.4375,0.57813 -3.35938,0.57813 -1.85937,0 -3.23437,-0.51563 -1.375,-0.51562 -2.28125,-1.5 -0.90625,-0.98437 -1.34375,-2.42187 -0.4375,-1.4375 -0.4375,-3.28125 0,-1.78125 0.46875,-3.25 0.48437,-1.48438 1.4375,-2.53125 0.95312,-1.0625 2.375,-1.64063 1.4375,-0.57812 3.35937,-0.57812 1.875,0 3.25,0.51562 1.375,0.5 2.26563,1.48438 0.90625,0.98437 1.34375,2.42187 0.4375,1.4375 0.4375,3.29688 z m -4.04688,0.15625 q 0,-1.03125 -0.17187,-1.89063 -0.15625,-0.875 -0.54688,-1.51562 -0.39062,-0.64063 -1.04687,-1 -0.64063,-0.35938 -1.625,-0.35938 -0.875,0 -1.53125,0.32813 -0.65625,0.3125 -1.07813,0.9375 -0.42187,0.60937 -0.64062,1.48437 -0.20313,0.85938 -0.20313,1.96875 0,1.03125 0.17188,1.90625 0.17187,0.85938 0.54687,1.5 0.39063,0.64063 1.04688,1 0.65625,0.34375 1.625,0.34375 0.89062,0 1.54687,-0.3125 0.65625,-0.32812 1.07813,-0.9375 0.42187,-0.60937 0.625,-1.46875 0.20312,-0.875 0.20312,-1.98437 z m 17.70313,4.73437 q 0,0.40625 -0.0312,0.6875 -0.0156,0.26563 -0.0625,0.45313 -0.0312,0.1875 -0.0937,0.3125 -0.0469,0.10937 -0.23438,0.29687 -0.1875,0.17188 -0.64062,0.4375 -0.45313,0.25 -1.03125,0.45313 -0.57813,0.20312 -1.26563,0.32812 -0.67187,0.125 -1.39062,0.125 -1.60938,0 -2.85938,-0.5 -1.23437,-0.5 -2.07812,-1.46875 -0.84375,-0.98437 -1.28125,-2.39062 -0.42188,-1.40625 -0.42188,-3.21875 0,-2.09375 0.51563,-3.60938 0.53125,-1.53125 1.46875,-2.53125 0.9375,-1 2.21875,-1.48437 1.28125,-0.48438 2.8125,-0.48438 0.625,0 1.21875,0.10938 0.60937,0.10937 1.125,0.29687 0.53125,0.1875 0.9375,0.42188 0.42187,0.23437 0.59375,0.40625 0.17187,0.17187 0.23437,0.29687 0.0781,0.10938 0.10938,0.29688 0.0469,0.1875 0.0625,0.46875 0.0312,0.26562 0.0312,0.65625 0,0.90625 -0.15625,1.28125 -0.15625,0.35937 -0.40625,0.35937 -0.26563,0 -0.5625,-0.21875 -0.29688,-0.21875 -0.70313,-0.48437 -0.40625,-0.26563 -0.96875,-0.48438 -0.5625,-0.21875 -1.34375,-0.21875 -1.53125,0 -2.34375,1.1875 -0.8125,1.17188 -0.8125,3.45313 0,1.125 0.20313,1.98437 0.20312,0.85938 0.59375,1.4375 0.40625,0.57813 1,0.875 0.60937,0.28125 1.40625,0.28125 0.8125,0 1.39062,-0.23437 0.59375,-0.25 1.03125,-0.54688 0.4375,-0.29687 0.73438,-0.53125 0.29687,-0.25 0.5,-0.25 0.14062,0 0.23437,0.0781 0.0937,0.0781 0.14063,0.29687 0.0625,0.20313 0.0937,0.53125 0.0312,0.32813 0.0312,0.84375 z m 14.71875,2.26563 q 0,0.21875 -0.15625,0.34375 -0.15625,0.125 -0.5,0.17187 -0.32813,0.0625 -0.98438,0.0625 -0.70312,0 -1.03125,-0.0625 -0.3125,-0.0469 -0.45312,-0.17187 -0.125,-0.125 -0.125,-0.34375 l 0,-1.10938 q -0.85938,0.92188 -1.96875,1.4375 -1.09375,0.51563 -2.4375,0.51563 -1.10938,0 -2.04688,-0.29688 -0.92187,-0.28125 -1.60937,-0.84375 -0.67188,-0.57812 -1.04688,-1.42187 -0.375,-0.84375 -0.375,-1.96875 0,-1.21875 0.46875,-2.10938 0.48438,-0.90625 1.42188,-1.48437 0.95312,-0.59375 2.35937,-0.875 1.40625,-0.28125 3.26563,-0.28125 l 1.35937,0 0,-0.84375 q 0,-0.65625 -0.14062,-1.14063 -0.125,-0.5 -0.4375,-0.82812 -0.29688,-0.32813 -0.8125,-0.48438 -0.5,-0.15625 -1.25,-0.15625 -0.98438,0 -1.76563,0.21875 -0.76562,0.21875 -1.35937,0.48438 -0.59375,0.26562 -1,0.48437 -0.39063,0.21875 -0.64063,0.21875 -0.17187,0 -0.3125,-0.10937 -0.125,-0.10938 -0.21875,-0.3125 -0.0781,-0.20313 -0.125,-0.5 -0.0469,-0.29688 -0.0469,-0.65625 0,-0.48438 0.0781,-0.76563 0.0781,-0.28125 0.29688,-0.5 0.21875,-0.23437 0.76562,-0.5 0.54688,-0.28125 1.28125,-0.51562 0.73438,-0.23438 1.59375,-0.375 0.875,-0.15625 1.79688,-0.15625 1.64062,0 2.79687,0.32812 1.17188,0.3125 1.92188,0.98438 0.75,0.65625 1.09375,1.70312 0.34375,1.04688 0.34375,2.48438 l 0,9.375 z m -3.85938,-5.96875 -1.5,0 q -0.95312,0 -1.625,0.14062 -0.67187,0.14063 -1.09375,0.42188 -0.42187,0.28125 -0.625,0.6875 -0.1875,0.39062 -0.1875,0.90625 0,0.875 0.54688,1.375 0.5625,0.5 1.54687,0.5 0.82813,0 1.51563,-0.42188 0.70312,-0.42187 1.42187,-1.23437 l 0,-2.375 z m 16.03125,4.54687 q 0,0.6875 -0.0937,1.0625 -0.0781,0.35938 -0.21875,0.51563 -0.14062,0.14062 -0.42187,0.26562 -0.26563,0.10938 -0.64063,0.1875 -0.35937,0.0937 -0.79687,0.14063 -0.42188,0.0469 -0.85938,0.0469 -1.17187,0 -2.03125,-0.29687 -0.85937,-0.29688 -1.42187,-0.90625 -0.5625,-0.625 -0.82813,-1.5625 -0.26562,-0.9375 -0.26562,-2.21875 l 0,-7.14063 -1.67188,0 q -0.29687,0 -0.45312,-0.35937 -0.15625,-0.375 -0.15625,-1.23438 0,-0.45312 0.0312,-0.76562 0.0469,-0.3125 0.125,-0.48438 0.0781,-0.1875 0.1875,-0.26562 0.125,-0.0781 0.28125,-0.0781 l 1.65625,0 0,-3.10937 q 0,-0.15625 0.0781,-0.28125 0.0937,-0.125 0.3125,-0.20313 0.23438,-0.0937 0.60938,-0.125 0.39062,-0.0469 0.95312,-0.0469 0.57813,0 0.95313,0.0469 0.39062,0.0312 0.60937,0.125 0.21875,0.0781 0.3125,0.20313 0.0937,0.125 0.0937,0.28125 l 0,3.10937 3.03125,0 q 0.15625,0 0.26563,0.0781 0.125,0.0781 0.20312,0.26562 0.0781,0.17188 0.10938,0.48438 0.0469,0.3125 0.0469,0.76562 0,0.85938 -0.15625,1.23438 -0.15625,0.35937 -0.45312,0.35937 l -3.04688,0 0,6.54688 q 0,1.14062 0.35938,1.71875 0.35937,0.5625 1.28125,0.5625 0.3125,0 0.5625,-0.0469 0.25,-0.0625 0.4375,-0.125 0.20312,-0.0781 0.32812,-0.125 0.14063,-0.0625 0.25,-0.0625 0.0937,0 0.17188,0.0625 0.0937,0.0469 0.14062,0.21875 0.0469,0.15625 0.0781,0.4375 0.0469,0.28125 0.0469,0.71875 z m 6.78125,1.375 q 0,0.15625 -0.0937,0.28125 -0.0937,0.10938 -0.32812,0.1875 -0.21875,0.0781 -0.59375,0.10938 -0.375,0.0469 -0.95313,0.0469 -0.57812,0 -0.95312,-0.0469 -0.375,-0.0312 -0.60938,-0.10938 -0.21875,-0.0781 -0.3125,-0.1875 -0.0937,-0.125 -0.0937,-0.28125 l 0,-13.90625 q 0,-0.15625 0.0937,-0.26562 0.0937,-0.125 0.3125,-0.20313 0.23438,-0.0937 0.60938,-0.14062 0.375,-0.0469 0.95312,-0.0469 0.57813,0 0.95313,0.0469 0.375,0.0469 0.59375,0.14062 0.23437,0.0781 0.32812,0.20313 0.0937,0.10937 0.0937,0.26562 l 0,13.90625 z m 0.29688,-18.65625 q 0,1.1875 -0.48438,1.64063 -0.48437,0.45312 -1.79687,0.45312 -1.32813,0 -1.79688,-0.4375 -0.45312,-0.4375 -0.45312,-1.57812 0,-1.1875 0.46875,-1.64063 0.48437,-0.46875 1.8125,-0.46875 1.3125,0 1.78125,0.45313 0.46875,0.4375 0.46875,1.57812 z m 17.71875,11.54688 q 0,1.78125 -0.46875,3.25 -0.46875,1.46875 -1.42188,2.53125 -0.95312,1.0625 -2.39062,1.64062 -1.4375,0.57813 -3.35938,0.57813 -1.85937,0 -3.23437,-0.51563 -1.375,-0.51562 -2.28125,-1.5 -0.90625,-0.98437 -1.34375,-2.42187 -0.4375,-1.4375 -0.4375,-3.28125 0,-1.78125 0.46875,-3.25 0.48437,-1.48438 1.4375,-2.53125 0.95312,-1.0625 2.375,-1.64063 1.4375,-0.57812 3.35937,-0.57812 1.875,0 3.25,0.51562 1.375,0.5 2.26563,1.48438 0.90625,0.98437 1.34375,2.42187 0.4375,1.4375 0.4375,3.29688 z m -4.04688,0.15625 q 0,-1.03125 -0.17187,-1.89063 -0.15625,-0.875 -0.54688,-1.51562 -0.39062,-0.64063 -1.04687,-1 -0.64063,-0.35938 -1.625,-0.35938 -0.875,0 -1.53125,0.32813 -0.65625,0.3125 -1.07813,0.9375 -0.42187,0.60937 -0.64062,1.48437 -0.20313,0.85938 -0.20313,1.96875 0,1.03125 0.17188,1.90625 0.17187,0.85938 0.54687,1.5 0.39063,0.64063 1.04688,1 0.65625,0.34375 1.625,0.34375 0.89062,0 1.54687,-0.3125 0.65625,-0.32812 1.07813,-0.9375 0.42187,-0.60937 0.625,-1.46875 0.20312,-0.875 0.20312,-1.98437 z m 20.46875,6.95312 q 0,0.15625 -0.0937,0.28125 -0.0937,0.10938 -0.3125,0.1875 -0.21875,0.0781 -0.60937,0.10938 -0.375,0.0469 -0.9375,0.0469 -0.57813,0 -0.96875,-0.0469 -0.375,-0.0312 -0.59375,-0.10938 -0.21875,-0.0781 -0.3125,-0.1875 -0.0937,-0.125 -0.0937,-0.28125 l 0,-7.95312 q 0,-1.01563 -0.15625,-1.59375 -0.14063,-0.57813 -0.42188,-0.98438 -0.28125,-0.42187 -0.73437,-0.64062 -0.4375,-0.23438 -1.03125,-0.23438 -0.75,0 -1.51563,0.54688 -0.76562,0.54687 -1.59375,1.59375 l 0,9.26562 q 0,0.15625 -0.0937,0.28125 -0.0937,0.10938 -0.32812,0.1875 -0.21875,0.0781 -0.59375,0.10938 -0.375,0.0469 -0.95313,0.0469 -0.57812,0 -0.95312,-0.0469 -0.375,-0.0312 -0.60938,-0.10938 -0.21875,-0.0781 -0.3125,-0.1875 -0.0937,-0.125 -0.0937,-0.28125 l 0,-13.9375 q 0,-0.15625 0.0781,-0.26562 0.0781,-0.125 0.28125,-0.20313 0.20312,-0.0781 0.51562,-0.10937 0.32813,-0.0469 0.8125,-0.0469 0.5,0 0.82813,0.0469 0.32812,0.0312 0.5,0.10937 0.1875,0.0781 0.26562,0.20313 0.0781,0.10937 0.0781,0.26562 l 0,1.60938 q 1.15625,-1.25 2.34375,-1.875 1.20312,-0.625 2.5,-0.625 1.42187,0 2.39062,0.46875 0.98438,0.46875 1.57813,1.28125 0.60937,0.79687 0.875,1.875 0.26562,1.07812 0.26562,2.59375 l 0,8.60937 z"
         inkscape:connector-curvature="0"
         style="fill:#000000;fill-rule:nonzero;stroke:none;stroke-linecap:square;stroke-miterlimit:10" />
    </g>
    <g
       id="g5564">
      <path
         style="fill:#ffc000;fill-rule:nonzero;stroke:none;stroke-linecap:square;stroke-miterlimit:10"
         inkscape:connector-curvature="0"
         id="path5138"
         d="m 759.65957,388.41519 0,0 c 0,-43.26721 37.86856,-78.34222 84.58196,-78.34222 l 0,0 c 46.7132,0 84.5818,35.07501 84.5818,78.34222 l 0,0 c 0,43.26715 -37.8686,78.34216 -84.5818,78.34216 l 0,0 c -46.7134,0 -84.58196,-35.07501 -84.58196,-78.34216 z" />
      <path
         style="fill:#000000;fill-rule:nonzero;stroke:none;stroke-linecap:square;stroke-miterlimit:10"
         inkscape:connector-curvature="0"
         id="path5174"
         d="m 835.92353,513.0265 q 0,1.59375 -0.5937,2.79688 -0.5938,1.20312 -1.6094,2.01562 -1.0156,0.79688 -2.375,1.20313 -1.3594,0.40625 -2.9063,0.40625 -1.0468,0 -1.9531,-0.17188 -0.8906,-0.17187 -1.5781,-0.40625 -0.6875,-0.25 -1.1563,-0.51562 -0.4531,-0.26563 -0.6562,-0.46875 -0.2031,-0.20313 -0.2969,-0.57813 -0.078,-0.39062 -0.078,-1.10937 0,-0.48438 0.031,-0.8125 0.031,-0.32813 0.094,-0.53125 0.078,-0.20313 0.1875,-0.28125 0.125,-0.0937 0.2813,-0.0937 0.2187,0 0.6094,0.26562 0.4062,0.25 1.0312,0.5625 0.625,0.3125 1.4844,0.57813 0.875,0.25 2.0156,0.25 0.75,0 1.3438,-0.17188 0.5937,-0.1875 1,-0.51562 0.4218,-0.32813 0.6406,-0.8125 0.2187,-0.48438 0.2187,-1.07813 0,-0.6875 -0.375,-1.17187 -0.375,-0.5 -0.9843,-0.875 -0.5938,-0.39063 -1.3594,-0.71875 -0.7656,-0.34375 -1.5781,-0.71875 -0.8125,-0.375 -1.5782,-0.84375 -0.7656,-0.48438 -1.375,-1.14063 -0.5937,-0.67187 -0.9687,-1.57812 -0.375,-0.90625 -0.375,-2.17188 0,-1.45312 0.5312,-2.54687 0.5469,-1.10938 1.4532,-1.82813 0.9218,-0.73437 2.1562,-1.09375 1.25,-0.35937 2.6406,-0.35937 0.7188,0 1.4375,0.10937 0.7188,0.10938 1.3438,0.29688 0.625,0.1875 1.1094,0.42187 0.4843,0.23438 0.6406,0.39063 0.1562,0.15625 0.2031,0.26562 0.062,0.10938 0.094,0.29688 0.047,0.17187 0.062,0.45312 0.016,0.26563 0.016,0.67188 0,0.45312 -0.031,0.76562 -0.016,0.3125 -0.078,0.51563 -0.047,0.20312 -0.1562,0.29687 -0.094,0.0937 -0.2657,0.0937 -0.1718,0 -0.5468,-0.21875 -0.375,-0.21875 -0.9219,-0.46875 -0.5469,-0.26562 -1.2656,-0.46875 -0.7188,-0.21875 -1.5782,-0.21875 -0.6718,0 -1.1718,0.17188 -0.5,0.15625 -0.8438,0.45312 -0.3281,0.28125 -0.5,0.6875 -0.1562,0.40625 -0.1562,0.85938 0,0.67187 0.3593,1.17187 0.375,0.48438 0.9844,0.875 0.625,0.375 1.4063,0.71875 0.7812,0.32813 1.5937,0.70313 0.8125,0.375 1.5938,0.85937 0.7812,0.46875 1.3906,1.14063 0.6094,0.65625 0.9844,1.5625 0.375,0.89062 0.375,2.10937 z m 16.125,5.53125 q 0,0.15625 -0.078,0.28125 -0.078,0.10938 -0.2812,0.1875 -0.1875,0.0781 -0.5156,0.10938 -0.3125,0.0469 -0.7969,0.0469 -0.5156,0 -0.8438,-0.0469 -0.3125,-0.0312 -0.5,-0.10938 -0.1875,-0.0781 -0.2656,-0.1875 -0.078,-0.125 -0.078,-0.28125 l 0,-1.60937 q -1.1562,1.25 -2.3594,1.875 -1.1875,0.625 -2.4687,0.625 -1.4375,0 -2.4219,-0.46875 -0.9687,-0.46875 -1.5781,-1.28125 -0.5938,-0.8125 -0.8594,-1.875 -0.25,-1.07813 -0.25,-2.67188 l 0,-8.53125 q 0,-0.15625 0.078,-0.26562 0.094,-0.125 0.3125,-0.20313 0.2344,-0.0781 0.6094,-0.10937 0.3906,-0.0469 0.9531,-0.0469 0.5781,0 0.9531,0.0469 0.375,0.0312 0.5938,0.10937 0.2344,0.0781 0.3281,0.20313 0.094,0.10937 0.094,0.26562 l 0,7.875 q 0,1.09375 0.1406,1.67188 0.1407,0.57812 0.4219,1 0.2969,0.40625 0.7344,0.64062 0.4531,0.21875 1.0469,0.21875 0.75,0 1.5,-0.54687 0.7656,-0.54688 1.625,-1.59375 l 0,-9.26563 q 0,-0.15625 0.078,-0.26562 0.094,-0.125 0.3125,-0.20313 0.2343,-0.0781 0.6093,-0.10937 0.375,-0.0469 0.9532,-0.0469 0.5781,0 0.9531,0.0469 0.375,0.0312 0.5937,0.10937 0.2188,0.0781 0.3125,0.20313 0.094,0.10937 0.094,0.26562 l 0,13.9375 z m 12.9063,-12.64062 q 0,0.5625 -0.031,0.92187 -0.031,0.35938 -0.094,0.5625 -0.062,0.20313 -0.1719,0.28125 -0.094,0.0781 -0.25,0.0781 -0.125,0 -0.2813,-0.0469 -0.1562,-0.0625 -0.3593,-0.125 -0.1875,-0.0625 -0.4219,-0.10937 -0.2344,-0.0625 -0.5156,-0.0625 -0.3282,0 -0.6563,0.14062 -0.3281,0.125 -0.6875,0.40625 -0.3437,0.28125 -0.7344,0.75 -0.375,0.46875 -0.8125,1.15625 l 0,8.6875 q 0,0.15625 -0.094,0.28125 -0.094,0.10938 -0.3281,0.1875 -0.2187,0.0781 -0.5937,0.10938 -0.375,0.0469 -0.9532,0.0469 -0.5781,0 -0.9531,-0.0469 -0.375,-0.0312 -0.6094,-0.10938 -0.2187,-0.0781 -0.3125,-0.1875 -0.094,-0.125 -0.094,-0.28125 l 0,-13.9375 q 0,-0.15625 0.078,-0.26562 0.078,-0.125 0.2813,-0.20313 0.2031,-0.0781 0.5156,-0.10937 0.3281,-0.0469 0.8125,-0.0469 0.5,0 0.8281,0.0469 0.3282,0.0312 0.5,0.10937 0.1875,0.0781 0.2657,0.20313 0.078,0.10937 0.078,0.26562 l 0,1.73438 q 0.5468,-0.78125 1.0312,-1.28125 0.4844,-0.51563 0.9219,-0.8125 0.4375,-0.29688 0.875,-0.40625 0.4375,-0.125 0.875,-0.125 0.2031,0 0.4375,0.0312 0.2344,0.0156 0.4844,0.0781 0.25,0.0469 0.4375,0.125 0.1875,0.0625 0.2656,0.14063 0.094,0.0781 0.125,0.17187 0.047,0.0937 0.078,0.26563 0.031,0.15625 0.047,0.48437 0.016,0.32813 0.016,0.89063 z m 10.8281,-6.60938 q 0,0.45313 -0.031,0.73438 -0.031,0.26562 -0.094,0.42187 -0.062,0.14063 -0.1406,0.20313 -0.078,0.0469 -0.1719,0.0469 -0.1094,0 -0.25,-0.0469 -0.125,-0.0625 -0.3281,-0.125 -0.1875,-0.0625 -0.4532,-0.10938 -0.2656,-0.0625 -0.625,-0.0625 -0.4218,0 -0.7343,0.14063 -0.2969,0.125 -0.5,0.42187 -0.2032,0.28125 -0.2969,0.75 -0.094,0.45313 -0.094,1.125 l 0,1.28125 2.5469,0 q 0.1406,0 0.25,0.0781 0.125,0.0781 0.2031,0.26562 0.078,0.17188 0.1094,0.48438 0.047,0.3125 0.047,0.76562 0,0.85938 -0.1563,1.23438 -0.1562,0.35937 -0.4531,0.35937 l -2.5469,0 0,11.28125 q 0,0.15625 -0.094,0.28125 -0.094,0.10938 -0.3125,0.1875 -0.2187,0.0781 -0.6093,0.10938 -0.3907,0.0469 -0.9532,0.0469 -0.5625,0 -0.9531,-0.0469 -0.375,-0.0312 -0.6094,-0.10938 -0.2187,-0.0781 -0.3125,-0.1875 -0.078,-0.125 -0.078,-0.28125 l 0,-11.28125 -1.75,0 q -0.2969,0 -0.4531,-0.35937 -0.1406,-0.375 -0.1406,-1.23438 0,-0.45312 0.031,-0.76562 0.047,-0.3125 0.1093,-0.48438 0.078,-0.1875 0.1875,-0.26562 0.125,-0.0781 0.2813,-0.0781 l 1.7344,0 0,-1.17187 q 0,-1.42188 0.2812,-2.48438 0.2813,-1.07812 0.875,-1.78125 0.6094,-0.71875 1.5313,-1.07812 0.9375,-0.35938 2.2031,-0.35938 0.6094,0 1.1562,0.10938 0.5469,0.0937 0.8594,0.21875 0.3125,0.10937 0.4219,0.21875 0.1094,0.0937 0.1719,0.29687 0.078,0.1875 0.1093,0.5 0.031,0.29688 0.031,0.75 z m 13.5937,19.29688 q 0,0.21875 -0.1562,0.34375 -0.1563,0.125 -0.5,0.17187 -0.3281,0.0625 -0.9844,0.0625 -0.7031,0 -1.0312,-0.0625 -0.3125,-0.0469 -0.4532,-0.17187 -0.125,-0.125 -0.125,-0.34375 l 0,-1.10938 q -0.8593,0.92188 -1.9687,1.4375 -1.0938,0.51563 -2.4375,0.51563 -1.1094,0 -2.0469,-0.29688 -0.9219,-0.28125 -1.6094,-0.84375 -0.6718,-0.57812 -1.0468,-1.42187 -0.375,-0.84375 -0.375,-1.96875 0,-1.21875 0.4687,-2.10938 0.4844,-0.90625 1.4219,-1.48437 0.9531,-0.59375 2.3594,-0.875 1.4062,-0.28125 3.2656,-0.28125 l 1.3594,0 0,-0.84375 q 0,-0.65625 -0.1407,-1.14063 -0.125,-0.5 -0.4375,-0.82812 -0.2968,-0.32813 -0.8125,-0.48438 -0.5,-0.15625 -1.25,-0.15625 -0.9843,0 -1.7656,0.21875 -0.7656,0.21875 -1.3594,0.48438 -0.5937,0.26562 -1,0.48437 -0.3906,0.21875 -0.6406,0.21875 -0.1719,0 -0.3125,-0.10937 -0.125,-0.10938 -0.2187,-0.3125 -0.078,-0.20313 -0.125,-0.5 -0.047,-0.29688 -0.047,-0.65625 0,-0.48438 0.078,-0.76563 0.078,-0.28125 0.2968,-0.5 0.2188,-0.23437 0.7657,-0.5 0.5468,-0.28125 1.2812,-0.51562 0.7344,-0.23438 1.5938,-0.375 0.875,-0.15625 1.7968,-0.15625 1.6407,0 2.7969,0.32812 1.1719,0.3125 1.9219,0.98438 0.75,0.65625 1.0937,1.70312 0.3438,1.04688 0.3438,2.48438 l 0,9.375 z m -3.8593,-5.96875 -1.5,0 q -0.9532,0 -1.625,0.14062 -0.6719,0.14063 -1.0938,0.42188 -0.4219,0.28125 -0.625,0.6875 -0.1875,0.39062 -0.1875,0.90625 0,0.875 0.5469,1.375 0.5625,0.5 1.5469,0.5 0.8281,0 1.5156,-0.42188 0.7031,-0.42187 1.4219,-1.23437 l 0,-2.375 z m 18.3281,3.70312 q 0,0.40625 -0.031,0.6875 -0.016,0.26563 -0.062,0.45313 -0.031,0.1875 -0.094,0.3125 -0.047,0.10937 -0.2344,0.29687 -0.1875,0.17188 -0.6406,0.4375 -0.4531,0.25 -1.0313,0.45313 -0.5781,0.20312 -1.2656,0.32812 -0.6719,0.125 -1.3906,0.125 -1.6094,0 -2.8594,-0.5 -1.2344,-0.5 -2.0781,-1.46875 -0.8438,-0.98437 -1.2813,-2.39062 -0.4218,-1.40625 -0.4218,-3.21875 0,-2.09375 0.5156,-3.60938 0.5312,-1.53125 1.4687,-2.53125 0.9375,-1 2.2188,-1.48437 1.2812,-0.48438 2.8125,-0.48438 0.625,0 1.2187,0.10938 0.6094,0.10937 1.125,0.29687 0.5313,0.1875 0.9375,0.42188 0.4219,0.23437 0.5938,0.40625 0.1719,0.17187 0.2344,0.29687 0.078,0.10938 0.1093,0.29688 0.047,0.1875 0.062,0.46875 0.031,0.26562 0.031,0.65625 0,0.90625 -0.1562,1.28125 -0.1563,0.35937 -0.4063,0.35937 -0.2656,0 -0.5625,-0.21875 -0.2968,-0.21875 -0.7031,-0.48437 -0.4062,-0.26563 -0.9687,-0.48438 -0.5625,-0.21875 -1.3438,-0.21875 -1.5312,0 -2.3437,1.1875 -0.8125,1.17188 -0.8125,3.45313 0,1.125 0.2031,1.98437 0.2031,0.85938 0.5937,1.4375 0.4063,0.57813 1,0.875 0.6094,0.28125 1.4063,0.28125 0.8125,0 1.3906,-0.23437 0.5938,-0.25 1.0313,-0.54688 0.4375,-0.29687 0.7343,-0.53125 0.2969,-0.25 0.5,-0.25 0.1407,0 0.2344,0.0781 0.094,0.0781 0.1406,0.29687 0.062,0.20313 0.094,0.53125 0.031,0.32813 0.031,0.84375 z m 15.7187,-5.15625 q 0,0.71875 -0.3281,1.0625 -0.3125,0.34375 -0.875,0.34375 l -8.4844,0 q 0,0.89063 0.2032,1.625 0.2187,0.71875 0.6718,1.23438 0.4688,0.5 1.1875,0.76562 0.7344,0.26563 1.75,0.26563 1.0313,0 1.8125,-0.14063 0.7813,-0.15625 1.3438,-0.32812 0.5781,-0.1875 0.9531,-0.32813 0.375,-0.15625 0.6094,-0.15625 0.1406,0 0.2344,0.0625 0.094,0.0469 0.1562,0.1875 0.062,0.14063 0.078,0.40625 0.031,0.25 0.031,0.64063 0,0.34375 -0.016,0.59375 -0.016,0.23437 -0.047,0.40625 -0.031,0.17187 -0.094,0.29687 -0.062,0.10938 -0.1718,0.21875 -0.094,0.10938 -0.5469,0.29688 -0.4531,0.1875 -1.1563,0.375 -0.7031,0.17187 -1.6093,0.29687 -0.9063,0.14063 -1.9375,0.14063 -1.8594,0 -3.2657,-0.46875 -1.3906,-0.46875 -2.3281,-1.42188 -0.9375,-0.95312 -1.4062,-2.40625 -0.4532,-1.45312 -0.4532,-3.40625 0,-1.85937 0.4844,-3.34375 0.4844,-1.5 1.4063,-2.53125 0.9218,-1.04687 2.2343,-1.59375 1.3282,-0.54687 2.9844,-0.54687 1.75,0 2.9844,0.51562 1.25,0.51563 2.0469,1.4375 0.7968,0.90625 1.1718,2.15625 0.375,1.25 0.375,2.71875 l 0,0.625 z m -3.8125,-1.125 q 0.047,-1.65625 -0.6718,-2.59375 -0.7032,-0.95312 -2.1875,-0.95312 -0.75,0 -1.3125,0.28125 -0.5469,0.28125 -0.9219,0.76562 -0.3594,0.46875 -0.5625,1.125 -0.1875,0.64063 -0.2188,1.375 l 5.875,0 z m 28.5,5.96875 q 0,0.39063 -0.031,0.67188 -0.016,0.26562 -0.062,0.46875 -0.047,0.1875 -0.125,0.32812 -0.078,0.14063 -0.25,0.32813 -0.1718,0.17187 -0.6718,0.45312 -0.4844,0.28125 -1.2032,0.54688 -0.7031,0.25 -1.625,0.42187 -0.9062,0.17188 -1.9687,0.17188 -2.0781,0 -3.75,-0.64063 -1.6719,-0.64062 -2.8438,-1.90625 -1.1718,-1.28125 -1.7968,-3.1875 -0.625,-1.90625 -0.625,-4.4375 0,-2.57812 0.6875,-4.57812 0.6875,-2 1.9218,-3.35938 1.2344,-1.35937 2.9532,-2.0625 1.7343,-0.70312 3.8125,-0.70312 0.8437,0 1.625,0.14062 0.7812,0.14063 1.4375,0.375 0.6718,0.21875 1.2031,0.51563 0.5312,0.29687 0.7344,0.51562 0.2187,0.20313 0.2968,0.34375 0.078,0.14063 0.125,0.35938 0.047,0.21875 0.062,0.51562 0.031,0.29688 0.031,0.73438 0,0.46875 -0.031,0.79687 -0.031,0.32813 -0.1093,0.53125 -0.078,0.20313 -0.1875,0.29688 -0.1094,0.0937 -0.25,0.0937 -0.2344,0 -0.5938,-0.26563 -0.3594,-0.28125 -0.9375,-0.60937 -0.5625,-0.34375 -1.3594,-0.60938 -0.7812,-0.28125 -1.875,-0.28125 -1.2031,0 -2.1562,0.5 -0.9375,0.48438 -1.6094,1.40625 -0.6562,0.90625 -1,2.20313 -0.3437,1.29687 -0.3437,2.92187 0,1.78125 0.3593,3.09375 0.375,1.29688 1.0469,2.14063 0.6875,0.84375 1.6406,1.26562 0.9688,0.40625 2.1719,0.40625 1.0938,0 1.8906,-0.25 0.7969,-0.26562 1.3594,-0.57812 0.5781,-0.3125 0.9375,-0.5625 0.375,-0.25 0.5781,-0.25 0.1563,0 0.25,0.0625 0.094,0.0625 0.1563,0.25 0.062,0.1875 0.094,0.53125 0.031,0.32812 0.031,0.89062 z m 11.6719,-10.10937 q 0,0.5625 -0.031,0.92187 -0.031,0.35938 -0.094,0.5625 -0.062,0.20313 -0.1719,0.28125 -0.094,0.0781 -0.25,0.0781 -0.125,0 -0.2812,-0.0469 -0.1563,-0.0625 -0.3594,-0.125 -0.1875,-0.0625 -0.4219,-0.10937 -0.2343,-0.0625 -0.5156,-0.0625 -0.3281,0 -0.6562,0.14062 -0.3282,0.125 -0.6875,0.40625 -0.3438,0.28125 -0.7344,0.75 -0.375,0.46875 -0.8125,1.15625 l 0,8.6875 q 0,0.15625 -0.094,0.28125 -0.094,0.10938 -0.3281,0.1875 -0.2188,0.0781 -0.5938,0.10938 -0.375,0.0469 -0.9531,0.0469 -0.5781,0 -0.9531,-0.0469 -0.375,-0.0312 -0.6094,-0.10938 -0.2188,-0.0781 -0.3125,-0.1875 -0.094,-0.125 -0.094,-0.28125 l 0,-13.9375 q 0,-0.15625 0.078,-0.26562 0.078,-0.125 0.2812,-0.20313 0.2032,-0.0781 0.5157,-0.10937 0.3281,-0.0469 0.8125,-0.0469 0.5,0 0.8281,0.0469 0.3281,0.0312 0.5,0.10937 0.1875,0.0781 0.2656,0.20313 0.078,0.10937 0.078,0.26562 l 0,1.73438 q 0.5469,-0.78125 1.0313,-1.28125 0.4843,-0.51563 0.9218,-0.8125 0.4375,-0.29688 0.875,-0.40625 0.4375,-0.125 0.875,-0.125 0.2032,0 0.4375,0.0312 0.2344,0.0156 0.4844,0.0781 0.25,0.0469 0.4375,0.125 0.1875,0.0625 0.2656,0.14063 0.094,0.0781 0.125,0.17187 0.047,0.0937 0.078,0.26563 0.031,0.15625 0.047,0.48437 0.016,0.32813 0.016,0.89063 z m 16.5156,5.53125 q 0,1.78125 -0.4687,3.25 -0.4688,1.46875 -1.4219,2.53125 -0.9531,1.0625 -2.3906,1.64062 -1.4375,0.57813 -3.3594,0.57813 -1.8594,0 -3.2344,-0.51563 -1.375,-0.51562 -2.2812,-1.5 -0.9063,-0.98437 -1.3438,-2.42187 -0.4375,-1.4375 -0.4375,-3.28125 0,-1.78125 0.4688,-3.25 0.4844,-1.48438 1.4375,-2.53125 0.9531,-1.0625 2.375,-1.64063 1.4375,-0.57812 3.3594,-0.57812 1.875,0 3.25,0.51562 1.375,0.5 2.2656,1.48438 0.9062,0.98437 1.3437,2.42187 0.4375,1.4375 0.4375,3.29688 z m -4.0468,0.15625 q 0,-1.03125 -0.1719,-1.89063 -0.1563,-0.875 -0.5469,-1.51562 -0.3906,-0.64063 -1.0469,-1 -0.6406,-0.35938 -1.625,-0.35938 -0.875,0 -1.5312,0.32813 -0.6563,0.3125 -1.0781,0.9375 -0.4219,0.60937 -0.6407,1.48437 -0.2031,0.85938 -0.2031,1.96875 0,1.03125 0.1719,1.90625 0.1719,0.85938 0.5469,1.5 0.3906,0.64063 1.0468,1 0.6563,0.34375 1.625,0.34375 0.8907,0 1.5469,-0.3125 0.6563,-0.32812 1.0781,-0.9375 0.4219,-0.60937 0.625,-1.46875 0.2032,-0.875 0.2032,-1.98437 z m 16.9687,3.01562 q 0,1.1875 -0.4531,2.09375 -0.4375,0.90625 -1.25,1.51563 -0.8125,0.60937 -1.9219,0.90625 -1.1094,0.3125 -2.4062,0.3125 -0.7813,0 -1.5,-0.125 -0.7032,-0.10938 -1.2657,-0.28125 -0.5625,-0.1875 -0.9375,-0.375 -0.375,-0.1875 -0.5468,-0.34375 -0.1719,-0.17188 -0.2657,-0.51563 -0.094,-0.35937 -0.094,-1.04687 0,-0.45313 0.031,-0.71875 0.031,-0.28125 0.094,-0.4375 0.062,-0.17188 0.1563,-0.21875 0.094,-0.0625 0.2344,-0.0625 0.1718,0 0.5,0.20312 0.3437,0.1875 0.8437,0.42188 0.5,0.23437 1.1563,0.4375 0.6718,0.20312 1.5156,0.20312 0.5312,0 0.9375,-0.10937 0.4219,-0.10938 0.7187,-0.3125 0.3125,-0.20313 0.4688,-0.51563 0.1562,-0.3125 0.1562,-0.71875 0,-0.46875 -0.2968,-0.79687 -0.2813,-0.34375 -0.7657,-0.59375 -0.4687,-0.25 -1.0781,-0.46875 -0.5937,-0.21875 -1.2344,-0.48438 -0.625,-0.26562 -1.2343,-0.60937 -0.5938,-0.34375 -1.0782,-0.84375 -0.4687,-0.5 -0.7656,-1.20313 -0.2812,-0.70312 -0.2812,-1.6875 0,-1 0.3906,-1.82812 0.3906,-0.84375 1.125,-1.4375 0.7344,-0.59375 1.7812,-0.92188 1.0625,-0.32812 2.375,-0.32812 0.6563,0 1.2657,0.0937 0.625,0.0937 1.125,0.23437 0.5,0.14063 0.8437,0.3125 0.3438,0.15625 0.4844,0.28125 0.1562,0.10938 0.2187,0.23438 0.062,0.10937 0.094,0.28125 0.031,0.15625 0.047,0.40625 0.031,0.23437 0.031,0.59375 0,0.42187 -0.031,0.6875 -0.016,0.26562 -0.078,0.42187 -0.047,0.15625 -0.1406,0.21875 -0.094,0.0469 -0.2187,0.0469 -0.1407,0 -0.4375,-0.15625 -0.2969,-0.17188 -0.75,-0.35938 -0.4375,-0.1875 -1.0313,-0.34375 -0.5781,-0.17187 -1.3281,-0.17187 -0.5313,0 -0.9219,0.10937 -0.3906,0.10938 -0.6406,0.3125 -0.25,0.20313 -0.375,0.48438 -0.125,0.26562 -0.125,0.57812 0,0.48438 0.2969,0.8125 0.2968,0.32813 0.7812,0.57813 0.4844,0.25 1.0938,0.46875 0.625,0.21875 1.25,0.48437 0.6406,0.25 1.25,0.59375 0.625,0.34375 1.1093,0.84375 0.4844,0.5 0.7813,1.20313 0.2969,0.6875 0.2969,1.64062 z m 12.7656,0 q 0,1.1875 -0.4531,2.09375 -0.4375,0.90625 -1.25,1.51563 -0.8125,0.60937 -1.9219,0.90625 -1.1093,0.3125 -2.4062,0.3125 -0.7813,0 -1.5,-0.125 -0.7031,-0.10938 -1.2656,-0.28125 -0.5625,-0.1875 -0.9375,-0.375 -0.375,-0.1875 -0.5469,-0.34375 -0.1719,-0.17188 -0.2656,-0.51563 -0.094,-0.35937 -0.094,-1.04687 0,-0.45313 0.031,-0.71875 0.031,-0.28125 0.094,-0.4375 0.062,-0.17188 0.1562,-0.21875 0.094,-0.0625 0.2344,-0.0625 0.1719,0 0.5,0.20312 0.3437,0.1875 0.8437,0.42188 0.5,0.23437 1.1563,0.4375 0.6719,0.20312 1.5156,0.20312 0.5313,0 0.9375,-0.10937 0.4219,-0.10938 0.7188,-0.3125 0.3125,-0.20313 0.4687,-0.51563 0.1563,-0.3125 0.1563,-0.71875 0,-0.46875 -0.2969,-0.79687 -0.2813,-0.34375 -0.7656,-0.59375 -0.4688,-0.25 -1.0782,-0.46875 -0.5937,-0.21875 -1.2343,-0.48438 -0.625,-0.26562 -1.2344,-0.60937 -0.5938,-0.34375 -1.0781,-0.84375 -0.4688,-0.5 -0.7657,-1.20313 -0.2812,-0.70312 -0.2812,-1.6875 0,-1 0.3906,-1.82812 0.3906,-0.84375 1.125,-1.4375 0.7344,-0.59375 1.7813,-0.92188 1.0625,-0.32812 2.375,-0.32812 0.6562,0 1.2656,0.0937 0.625,0.0937 1.125,0.23437 0.5,0.14063 0.8437,0.3125 0.3438,0.15625 0.4844,0.28125 0.1563,0.10938 0.2188,0.23438 0.062,0.10937 0.094,0.28125 0.031,0.15625 0.047,0.40625 0.031,0.23437 0.031,0.59375 0,0.42187 -0.031,0.6875 -0.016,0.26562 -0.078,0.42187 -0.047,0.15625 -0.1407,0.21875 -0.094,0.0469 -0.2187,0.0469 -0.1406,0 -0.4375,-0.15625 -0.2969,-0.17188 -0.75,-0.35938 -0.4375,-0.1875 -1.0313,-0.34375 -0.5781,-0.17187 -1.3281,-0.17187 -0.5312,0 -0.9219,0.10937 -0.3906,0.10938 -0.6406,0.3125 -0.25,0.20313 -0.375,0.48438 -0.125,0.26562 -0.125,0.57812 0,0.48438 0.2969,0.8125 0.2969,0.32813 0.7812,0.57813 0.4844,0.25 1.0938,0.46875 0.625,0.21875 1.25,0.48437 0.6406,0.25 1.25,0.59375 0.625,0.34375 1.1094,0.84375 0.4843,0.5 0.7812,1.20313 0.2969,0.6875 0.2969,1.64062 z m 6.89067,3.9375 q 0,0.15625 -0.094,0.28125 -0.094,0.10938 -0.3282,0.1875 -0.2187,0.0781 -0.5937,0.10938 -0.375,0.0469 -0.9531,0.0469 -0.5782,0 -0.9532,-0.0469 -0.375,-0.0312 -0.6093,-0.10938 -0.2188,-0.0781 -0.3125,-0.1875 -0.094,-0.125 -0.094,-0.28125 l 0,-13.90625 q 0,-0.15625 0.094,-0.26562 0.094,-0.125 0.3125,-0.20313 0.2343,-0.0937 0.6093,-0.14062 0.375,-0.0469 0.9532,-0.0469 0.5781,0 0.9531,0.0469 0.375,0.0469 0.5937,0.14062 0.2344,0.0781 0.3282,0.20313 0.094,0.10937 0.094,0.26562 l 0,13.90625 z m 0.2968,-18.65625 q 0,1.1875 -0.4843,1.64063 -0.4844,0.45312 -1.7969,0.45312 -1.3281,0 -1.7969,-0.4375 -0.4531,-0.4375 -0.4531,-1.57812 0,-1.1875 0.4687,-1.64063 0.4844,-0.46875 1.8125,-0.46875 1.3125,0 1.7813,0.45313 0.4687,0.4375 0.4687,1.57812 z m 16.9375,18.65625 q 0,0.15625 -0.094,0.28125 -0.094,0.10938 -0.3125,0.1875 -0.2187,0.0781 -0.6093,0.10938 -0.375,0.0469 -0.9375,0.0469 -0.5782,0 -0.9688,-0.0469 -0.375,-0.0312 -0.5937,-0.10938 -0.2188,-0.0781 -0.3125,-0.1875 -0.094,-0.125 -0.094,-0.28125 l 0,-7.95312 q 0,-1.01563 -0.1563,-1.59375 -0.1406,-0.57813 -0.4219,-0.98438 -0.2812,-0.42187 -0.7343,-0.64062 -0.4375,-0.23438 -1.0313,-0.23438 -0.75,0 -1.5156,0.54688 -0.7656,0.54687 -1.5938,1.59375 l 0,9.26562 q 0,0.15625 -0.094,0.28125 -0.094,0.10938 -0.3281,0.1875 -0.2187,0.0781 -0.5937,0.10938 -0.375,0.0469 -0.9532,0.0469 -0.5781,0 -0.9531,-0.0469 -0.375,-0.0312 -0.6094,-0.10938 -0.2187,-0.0781 -0.3125,-0.1875 -0.094,-0.125 -0.094,-0.28125 l 0,-13.9375 q 0,-0.15625 0.078,-0.26562 0.078,-0.125 0.2813,-0.20313 0.2031,-0.0781 0.5156,-0.10937 0.3281,-0.0469 0.8125,-0.0469 0.5,0 0.8281,0.0469 0.3282,0.0312 0.5,0.10937 0.1875,0.0781 0.2657,0.20313 0.078,0.10937 0.078,0.26562 l 0,1.60938 q 1.1562,-1.25 2.3437,-1.875 1.2031,-0.625 2.5,-0.625 1.4219,0 2.3906,0.46875 0.9844,0.46875 1.5782,1.28125 0.6093,0.79687 0.875,1.875 0.2656,1.07812 0.2656,2.59375 l 0,8.60937 z m 16.4219,-12.96875 q 0,0.75 -0.1719,1.10938 -0.1718,0.35937 -0.4218,0.35937 l -1.6407,0 q 0.3438,0.375 0.4844,0.85938 0.1563,0.46875 0.1563,0.98437 0,1.21875 -0.4063,2.17188 -0.4062,0.9375 -1.1719,1.59375 -0.75,0.64062 -1.8281,0.98437 -1.0625,0.32813 -2.375,0.32813 -0.6719,0 -1.2812,-0.15625 -0.6094,-0.17188 -0.9375,-0.39063 -0.1875,0.20313 -0.3438,0.48438 -0.1406,0.28125 -0.1406,0.625 0,0.45312 0.3906,0.75 0.4063,0.28125 1.125,0.3125 l 3.3906,0.125 q 1.1875,0.0469 2.1094,0.34375 0.9375,0.28125 1.5625,0.8125 0.6406,0.51562 0.9688,1.25 0.3437,0.73437 0.3437,1.67187 0,1.03125 -0.4531,1.9375 -0.4531,0.92188 -1.3594,1.59375 -0.9062,0.67188 -2.2812,1.0625 -1.3594,0.39063 -3.1875,0.39063 -1.7813,0 -3.0469,-0.28125 -1.25,-0.28125 -2.0625,-0.78125 -0.7969,-0.5 -1.1719,-1.20313 -0.3594,-0.6875 -0.3594,-1.51562 0,-0.51563 0.125,-0.98438 0.1407,-0.46875 0.3907,-0.90625 0.2656,-0.42187 0.6406,-0.8125 0.375,-0.39062 0.8594,-0.75 -0.6719,-0.35937 -1.0469,-0.96875 -0.3594,-0.625 -0.3594,-1.35937 0,-0.92188 0.4219,-1.67188 0.4219,-0.76562 1.0937,-1.375 -0.5468,-0.54687 -0.875,-1.3125 -0.3281,-0.76562 -0.3281,-1.90625 0,-1.21875 0.4219,-2.17187 0.4375,-0.96875 1.2031,-1.625 0.7656,-0.67188 1.8281,-1.01563 1.0625,-0.35937 2.3438,-0.35937 0.6562,0 1.25,0.0781 0.6094,0.0781 1.125,0.21875 l 4.4219,0 q 0.2656,0 0.4218,0.34375 0.1719,0.34375 0.1719,1.15625 z m -5.0469,3.29688 q 0,-1.125 -0.625,-1.75 -0.625,-0.625 -1.7656,-0.625 -0.5781,0 -1.0156,0.20312 -0.4375,0.1875 -0.7344,0.53125 -0.2812,0.32813 -0.4219,0.78125 -0.1406,0.4375 -0.1406,0.92188 0,1.0625 0.625,1.6875 0.625,0.60937 1.7344,0.60937 0.5937,0 1.0312,-0.1875 0.4375,-0.1875 0.7188,-0.51562 0.2969,-0.32813 0.4375,-0.75 0.1562,-0.4375 0.1562,-0.90625 z m 0.9219,11.125 q 0,-0.70313 -0.5625,-1.07813 -0.5625,-0.375 -1.5469,-0.40625 l -2.7968,-0.0781 q -0.4063,0.29687 -0.6563,0.57812 -0.2344,0.26563 -0.3906,0.51563 -0.1406,0.25 -0.1875,0.48437 -0.047,0.23438 -0.047,0.48438 0,0.78125 0.7812,1.1875 0.7969,0.40625 2.2344,0.40625 0.8906,0 1.5,-0.1875 0.6094,-0.17188 0.9844,-0.46875 0.375,-0.29688 0.5312,-0.67188 0.1563,-0.35937 0.1563,-0.76562 z" />
      <path
         style="fill:#c00000;fill-rule:nonzero;stroke:none;stroke-linecap:square;stroke-miterlimit:10"
         inkscape:connector-curvature="0"
         id="path5130"
         d="M 862.26723,436.25243 988.44673,225.49105 1114.6262,436.25243 Z" />
      <path
         style="fill:none;fill-rule:nonzero;stroke:#000000;stroke-width:1;stroke-linecap:butt;stroke-linejoin:round;stroke-miterlimit:10"
         inkscape:connector-curvature="0"
         id="path5132"
         d="M 862.26723,436.25243 988.44673,225.49105 1114.6262,436.25243 Z" />
      <path
         style="fill:#0070c0;fill-rule:nonzero;stroke:none;stroke-linecap:square;stroke-miterlimit:10"
         inkscape:connector-curvature="0"
         id="path5134"
         d="m 784.61804,222.71798 202.44189,0 0,145.59174 -202.44189,0 z" />
      <path
         style="fill:none;fill-rule:nonzero;stroke:#000000;stroke-width:1;stroke-linecap:butt;stroke-linejoin:round;stroke-miterlimit:10"
         inkscape:connector-curvature="0"
         id="path5136"
         d="m 784.61804,222.71798 202.44189,0 0,145.59174 -202.44189,0 z" />
      <path
         style="fill:none;fill-rule:nonzero;stroke:#000000;stroke-width:1;stroke-linecap:butt;stroke-linejoin:round;stroke-miterlimit:10"
         inkscape:connector-curvature="0"
         id="path5140"
         d="m 759.65957,388.41519 0,0 c 0,-43.26721 37.86856,-78.34222 84.58196,-78.34222 l 0,0 c 46.7132,0 84.5818,35.07501 84.5818,78.34222 l 0,0 c 0,43.26715 -37.8686,78.34216 -84.5818,78.34216 l 0,0 c -46.7134,0 -84.58196,-35.07501 -84.58196,-78.34216 z" />
      <path
         inkscape:connector-curvature="0"
         style="fill:#000000;fill-opacity:1;fill-rule:nonzero;stroke:none;stroke-linecap:square;stroke-miterlimit:10"
         id="path5142"
         d="m 912.23623,354.40798 0,0 c 0,-3.82898 3.104,-6.93292 6.9329,-6.93292 l 0,0 c 1.8388,0 3.6022,0.73041 4.9024,2.03058 1.3002,1.30023 2.0306,3.06359 2.0306,4.90234 l 0,0 c 0,3.82898 -3.104,6.93298 -6.933,6.93298 l 0,0 c -3.8289,0 -6.9329,-3.104 -6.9329,-6.93298 z" />
      <path
         style="fill:none;fill-rule:nonzero;stroke:#000000;stroke-width:1;stroke-linecap:butt;stroke-linejoin:round;stroke-miterlimit:10"
         inkscape:connector-curvature="0"
         id="path5144"
         d="m 912.23623,354.40798 0,0 c 0,-3.82898 3.104,-6.93292 6.9329,-6.93292 l 0,0 c 1.8388,0 3.6022,0.73041 4.9024,2.03058 1.3002,1.30023 2.0306,3.06359 2.0306,4.90234 l 0,0 c 0,3.82898 -3.104,6.93298 -6.933,6.93298 l 0,0 c -3.8289,0 -6.9329,-3.104 -6.9329,-6.93298 z" />
      <path
         style="fill:#000000;fill-opacity:0;fill-rule:nonzero;stroke:none;stroke-linecap:square;stroke-miterlimit:10"
         inkscape:connector-curvature="0"
         id="path5146"
         d="m 888.04313,348.30703 33.8832,0 0,46.20429 -33.8832,0 z" />
      <path
         inkscape:connector-curvature="0"
         style="fill:#000000;fill-opacity:1;fill-rule:nonzero;stroke:none;stroke-linecap:square;stroke-miterlimit:10"
         id="path5148"
         d="m 898.49633,369.48019 5.4531,-0.9375 q 1.4844,2.32813 2.0938,5.125 1.5312,-2.26562 2.3125,-3.17187 1.0468,-1.21875 1.7187,-1.57813 0.6875,-0.375 1.4531,-0.375 0.8594,0 1.3125,0.46875 0.4688,0.46875 0.4688,1.26563 0,0.75 -0.4688,1.23437 -0.4531,0.46875 -1.1406,0.46875 -0.5,0 -1.1562,-0.17187 -0.6407,-0.1875 -0.8907,-0.1875 -0.6562,0 -1.25,0.46875 -0.8125,0.64062 -2,2.73437 1.3282,4.6875 2.125,5.71875 0.4688,0.60938 0.9532,0.60938 0.4062,0 0.7031,-0.20313 0.4531,-0.32812 1.3906,-1.64062 l 0.5625,0.32812 q -1.375,2.21875 -2.6875,3.125 -1,0.70313 -1.9687,0.70313 -1,0 -1.6719,-0.4375 -0.6563,-0.45313 -1.1719,-1.45313 -0.5156,-1.01562 -1.2187,-3.23437 -1.8282,2.32812 -2.875,3.40625 -1.0313,1.0625 -1.7188,1.39062 -0.6875,0.32813 -1.4687,0.32813 -0.8125,0 -1.2813,-0.46875 -0.4844,-0.46875 -0.4844,-1.21875 0,-0.79688 0.5157,-1.3125 0.5156,-0.51563 1.3125,-0.51563 0.4218,0 0.9531,0.25 0.7812,0.375 1.125,0.375 0.4531,0 0.8125,-0.1875 0.4687,-0.23437 1.1875,-1.01562 0.4375,-0.48438 1.6094,-2.0625 -1.5,-5.5625 -2.3438,-6.65625 -0.5312,-0.70313 -1.3437,-0.70313 -0.4219,0 -1.0313,0.125 l 0.1094,-0.59375 z" />
      <path
         style="fill:#000000;fill-opacity:0;fill-rule:nonzero;stroke:none;stroke-linecap:square;stroke-miterlimit:10"
         inkscape:connector-curvature="0"
         id="path5150"
         d="m 889.80653,233.47448 47.5198,0 0,46.20425 -47.5198,0 z" />
      <path
         style="fill:#000000;fill-rule:nonzero;stroke:none;stroke-linecap:square;stroke-miterlimit:10"
         inkscape:connector-curvature="0"
         id="path5152"
         d="m 903.80653,268.67886 0.6875,-17.71875 q 0.047,-1.54688 0.047,-1.625 0,-0.85938 -0.4219,-1.26563 -0.4063,-0.40625 -1.5156,-0.48437 l 0.1875,-0.57813 8.9062,0 -0.1719,0.57813 q -1.1406,0 -1.7343,0.6875 -0.5782,0.6875 -0.6719,2.84375 l -0.5,11.04687 8.2656,-9.59375 q 1.6094,-1.85937 1.9844,-2.57812 0.375,-0.71875 0.375,-1.25 0,-0.39063 -0.3438,-0.6875 -0.3437,-0.3125 -1.3125,-0.46875 l 0.2188,-0.57813 5.8437,0 0,0.57813 q -0.75,0.1875 -1.2187,0.54687 -0.6875,0.51563 -2.125,2.1875 l -15.8125,18.35938 -0.6875,0 z" />
      <path
         style="fill:#000000;fill-opacity:0;fill-rule:nonzero;stroke:none;stroke-linecap:square;stroke-miterlimit:10"
         inkscape:connector-curvature="0"
         id="path5156"
         d="m 791.14583,394.51133 39.0169,0 0,46.20422 -39.0169,0 z" />
      <path
         style="fill:#000000;fill-rule:nonzero;stroke:none;stroke-linecap:square;stroke-miterlimit:10"
         inkscape:connector-curvature="0"
         id="path5158"
         d="m 805.14583,429.71566 0.6875,-17.71875 q 0.047,-1.54687 0.047,-1.625 0,-0.85937 -0.4219,-1.26562 -0.4062,-0.40625 -1.5156,-0.48438 l 0.1875,-0.57812 8.9063,0 -0.1719,0.57812 q -1.1406,0 -1.7344,0.6875 -0.5781,0.6875 -0.6719,2.84375 l -0.5,11.04688 8.2657,-9.59375 q 1.6093,-1.85938 1.9843,-2.57813 0.375,-0.71875 0.375,-1.25 0,-0.39062 -0.3437,-0.6875 -0.3438,-0.3125 -1.3125,-0.46875 l 0.2187,-0.57812 5.8438,0 0,0.57812 q -0.75,0.1875 -1.2188,0.54688 -0.6875,0.51562 -2.125,2.1875 l -15.8125,18.35937 -0.6875,0 z" />
      <path
         style="fill:#000000;fill-opacity:0;fill-rule:nonzero;stroke:none;stroke-linecap:square;stroke-miterlimit:10"
         inkscape:connector-curvature="0"
         id="path5160"
         d="m 823.25043,279.67873 39.0168,0 0,46.20428 -39.0168,0 z" />
      <path
         style="fill:#000000;fill-rule:nonzero;stroke:none;stroke-linecap:square;stroke-miterlimit:10"
         inkscape:connector-curvature="0"
         id="path5162"
         d="m 837.20353,293.21123 8.375,0 q 2.7969,0 4,0.29687 1.5781,0.375 2.4375,1.46875 0.875,1.07813 0.875,2.4531 0,1.125 -0.6875,2.29687 -0.6875,1.17188 -2.0625,1.9375 -1.3594,0.75 -4.1875,1.39063 2.9375,0.82812 4.0781,2.125 1.1407,1.29687 1.1407,3.01562 0,1.60938 -1.125,3.1875 -1.125,1.5625 -2.9844,2.29688 -1.8594,0.71875 -6.8125,0.71875 l -8.8125,0 0.2031,-0.57813 q 1.2813,0 1.8281,-0.23437 0.5625,-0.23438 0.8907,-0.71875 0.3437,-0.5 0.7968,-2.0625 l 3.7813,-13.03125 q 0.5781,-1.98435 0.5781,-2.65622 0,-0.54688 -0.4687,-0.90625 -0.4532,-0.35938 -2,-0.42188 l 0.1562,-0.57812 z m 4.7969,9.35934 q 2.125,-0.0312 3.3437,-0.67187 1.2344,-0.64063 1.9688,-2.09375 0.75,-1.46875 0.75,-2.7656 0,-1.21875 -0.7656,-1.98437 -0.7657,-0.76563 -2.0469,-0.73438 l -0.8594,0.0312 -2.3906,8.21872 z m -0.375,1.17188 -2.7031,9.42187 q 0.7812,0.0312 1.1718,0.0312 3.4844,0 4.8438,-1.9375 1.3594,-1.95312 1.3594,-4.17187 0,-1.0625 -0.5313,-1.875 -0.5156,-0.82813 -1.3437,-1.14063 -0.8282,-0.32812 -2.7969,-0.32812 z" />
      <g
         id="p16.3"
         style="fill:none;stroke:none;stroke-linecap:square;stroke-miterlimit:10"
         transform="translate(254.45034,-214.90177)">
        <path
           style="fill:#000000;fill-opacity:0;fill-rule:nonzero"
           inkscape:connector-curvature="0"
           id="path5196"
           d="M 664.71875,569.3097 708.6759,540.7848" />
        <path
           style="fill-rule:evenodd;stroke:#000000;stroke-width:2.66666675;stroke-linecap:butt;stroke-linejoin:round"
           inkscape:connector-curvature="0"
           id="path5198"
           d="m 664.71875,569.3097 36.29102,-23.55011" />
        <path
           style="fill:#000000;fill-rule:evenodd;stroke:#000000;stroke-width:2.66666675;stroke-linecap:butt"
           inkscape:connector-curvature="0"
           id="path5200"
           d="m 701.0097,545.7596 -0.88318,4.14807 5.27924,-7.00073 -8.54413,1.96948 z" />
      </g>
    </g>
  </g>
</svg>
