<?xml version="1.0" encoding="UTF-8" standalone="no"?>
<svg
   xmlns:dc="http://purl.org/dc/elements/1.1/"
   xmlns:cc="http://creativecommons.org/ns#"
   xmlns:rdf="http://www.w3.org/1999/02/22-rdf-syntax-ns#"
   xmlns:svg="http://www.w3.org/2000/svg"
   xmlns="http://www.w3.org/2000/svg"
   xmlns:sodipodi="http://sodipodi.sourceforge.net/DTD/sodipodi-0.dtd"
   xmlns:inkscape="http://www.inkscape.org/namespaces/inkscape"
   version="1.1"
   viewBox="0 0 795.66931 398.69556"
   stroke-miterlimit="10"
   id="svg4515"
   inkscape:version="0.91 r13725"
   sodipodi:docname="mesh_based_topology.svg"
   width="795.66931"
   height="398.69556"
   style="fill:none;stroke:none;stroke-linecap:square;stroke-miterlimit:10">
  <metadata
     id="metadata4652">
    <rdf:RDF>
      <cc:Work
         rdf:about="">
        <dc:format>image/svg+xml</dc:format>
        <dc:type
           rdf:resource="http://purl.org/dc/dcmitype/StillImage" />
        <dc:title></dc:title>
      </cc:Work>
    </rdf:RDF>
  </metadata>
  <defs
     id="defs4650" />
  <sodipodi:namedview
     pagecolor="#ffffff"
     bordercolor="#666666"
     borderopacity="1"
     objecttolerance="10"
     gridtolerance="10"
     guidetolerance="10"
     inkscape:pageopacity="0"
     inkscape:pageshadow="2"
     inkscape:window-width="1680"
     inkscape:window-height="1000"
     id="namedview4648"
     showgrid="false"
     fit-margin-top="0"
     fit-margin-left="0"
     fit-margin-right="0"
     fit-margin-bottom="0"
     inkscape:zoom="0.64166667"
     inkscape:cx="165.90471"
     inkscape:cy="175.48477"
     inkscape:window-x="1050"
     inkscape:window-y="27"
     inkscape:window-maximized="1"
     inkscape:current-layer="svg4515" />
  <clipPath
     id="p.0">
    <path
       d="M 0,0 960,0 960,720 0,720 0,0 Z"
       id="path4518"
       inkscape:connector-curvature="0"
       style="clip-rule:nonzero" />
  </clipPath>
  <path
     style="fill:#000000;fill-opacity:0;fill-rule:evenodd"
     inkscape:connector-curvature="0"
     id="path4522"
     d="m -75.125984,-40.87139 960.000004,0 0,720 -960.000004,0 z" />
  <path
     style="fill:#000000;fill-opacity:0;fill-rule:evenodd"
     inkscape:connector-curvature="0"
     id="path4524"
     d="m 122.07748,380.93046 0,0" />
  <path
     style="fill-rule:evenodd;stroke:#ff0000;stroke-width:1;stroke-linecap:butt;stroke-linejoin:round"
     inkscape:connector-curvature="0"
     id="path4526"
     d="m 122.07748,380.93046 0,0" />
  <path
     style="fill:#000000;fill-opacity:0;fill-rule:evenodd"
     inkscape:connector-curvature="0"
     id="path4528"
     d="m 303.9017,510.45936 0,0" />
  <path
     style="fill-rule:evenodd;stroke:#00ff00;stroke-width:1;stroke-linecap:butt;stroke-linejoin:round"
     inkscape:connector-curvature="0"
     id="path4530"
     d="m 303.9017,510.45936 0,0" />
  <path
     style="fill:#000000;fill-opacity:0;fill-rule:evenodd"
     inkscape:connector-curvature="0"
     id="path4532"
     d="m 101.73228,275.98689 78.26773,-95.24411" />
  <path
     style="fill-rule:evenodd;stroke:#000000;stroke-width:1;stroke-linecap:butt;stroke-linejoin:round"
     inkscape:connector-curvature="0"
     id="path4534"
     d="m 103.90812,273.33911 73.91605,-89.94858" />
  <path
     style="fill:#000000;fill-rule:evenodd;stroke:#000000;stroke-width:1;stroke-linecap:butt"
     inkscape:connector-curvature="0"
     id="path4536"
     d="m 103.90812,273.33911 -0.15488,-1.58286 -1.0928,3.10114 2.83052,-1.67316 z" />
  <path
     style="fill:#000000;fill-rule:evenodd;stroke:#000000;stroke-width:1;stroke-linecap:butt"
     inkscape:connector-curvature="0"
     id="path4538"
     d="m 177.82417,183.39056 0.15488,1.58284 1.0928,-3.10115 -2.83052,1.67317 z" />
  <path
     style="fill:#000000;fill-opacity:0;fill-rule:evenodd"
     inkscape:connector-curvature="0"
     id="path4540"
     d="m 330.98832,293.95713 -7.1181,-113.19684" />
  <path
     style="fill-rule:evenodd;stroke:#000000;stroke-width:1;stroke-linecap:butt;stroke-linejoin:round"
     inkscape:connector-curvature="0"
     id="path4542"
     d="M 330.77325,290.53681 324.08526,184.18062" />
  <path
     style="fill:#000000;fill-rule:evenodd;stroke:#000000;stroke-width:1;stroke-linecap:butt"
     inkscape:connector-curvature="0"
     id="path4544"
     d="m 330.77325,290.53681 -1.19296,-1.05179 1.31628,3.01309 0.92847,-3.15423 z" />
  <path
     style="fill:#000000;fill-rule:evenodd;stroke:#000000;stroke-width:1;stroke-linecap:butt"
     inkscape:connector-curvature="0"
     id="path4546"
     d="m 324.08529,184.18063 1.19293,1.05179 -1.31628,-3.01311 -0.92844,3.15427 z" />
  <path
     style="fill:#000000;fill-opacity:0;fill-rule:evenodd"
     inkscape:connector-curvature="0"
     id="path4548"
     d="m 251.94626,380.92915 0,0" />
  <path
     style="fill-rule:evenodd;stroke:#000000;stroke-width:1;stroke-linecap:butt;stroke-linejoin:round"
     inkscape:connector-curvature="0"
     id="path4550"
     d="m 251.94626,380.92915 0,0" />
  <path
     style="fill:#e06666;fill-rule:evenodd"
     inkscape:connector-curvature="0"
     id="path4552"
     d="m 0,337.34121 0,0 C 0,303.45617 45.547096,275.9869 101.73228,275.9869 l 0,0 c 56.1852,0 101.73229,27.46927 101.73229,61.35431 l 0,0 c 0,33.88507 -45.54709,61.35434 -101.73229,61.35434 l 0,0 C 45.547096,398.69555 0,371.22628 0,337.34121 Z" />
  <path
     style="fill:#000000;fill-rule:nonzero"
     inkscape:connector-curvature="0"
     id="path4554"
     d="m 50.117046,311.36558 2.14063,-0.1875 q 0.15625,1.28125 0.70313,2.10937 0.5625,0.82813 1.73438,1.34375 1.17187,0.5 2.64062,0.5 1.29688,0 2.29688,-0.375 1,-0.39062 1.48437,-1.0625 0.48438,-0.6875 0.48438,-1.48437 0,-0.79688 -0.46875,-1.40625 -0.46875,-0.60938 -1.54688,-1.01563 -0.6875,-0.26562 -3.0625,-0.82812 -2.35937,-0.57813 -3.3125,-1.07813 -1.23438,-0.64062 -1.84376,-1.59375 -0.59375,-0.96875 -0.59375,-2.14062 0,-1.3125 0.73438,-2.4375 0.75,-1.125 2.15626,-1.70313 1.42187,-0.59375 3.15625,-0.59375 1.90625,0 3.35937,0.60938 1.46875,0.60937 2.25,1.8125 0.79688,1.1875 0.84375,2.70312 l -2.17187,0.17188 q -0.17188,-1.64063 -1.1875,-2.46875 -1.01563,-0.82813 -3,-0.82813 -2.0625,0 -3.01563,0.76563 -0.9375,0.75 -0.9375,1.8125 0,0.92187 0.67188,1.51562 0.65625,0.60938 3.42187,1.23438 2.78125,0.625 3.8125,1.09375 1.5,0.6875 2.20313,1.75 0.71875,1.0625 0.71875,2.4375 0,1.375 -0.78125,2.59375 -0.78125,1.20312 -2.25,1.89062 -1.46875,0.67188 -3.3125,0.67188 -2.32813,0 -3.90625,-0.67188 -1.57814,-0.6875 -2.48439,-2.04687 -0.89062,-1.375 -0.9375,-3.09375 z m 24.66407,5.51562 0,-1.82812 q -1.45312,2.10937 -3.9375,2.10937 -1.10937,0 -2.0625,-0.42187 -0.95312,-0.42188 -1.42187,-1.0625 -0.45313,-0.64063 -0.64063,-1.5625 -0.14062,-0.625 -0.14062,-1.96875 l 0,-7.71875 2.10937,0 0,6.90625 q 0,1.65625 0.14063,2.23437 0.1875,0.82813 0.82812,1.3125 0.65625,0.46875 1.60938,0.46875 0.9375,0 1.76562,-0.48437 0.84375,-0.5 1.1875,-1.32813 0.34375,-0.84375 0.34375,-2.4375 l 0,-6.67187 2.10938,0 0,12.45312 -1.89063,0 z m 5.17579,0 0,-12.45312 1.89062,0 0,1.89062 q 0.73438,-1.32812 1.34375,-1.75 0.625,-0.42187 1.35938,-0.42187 1.0625,0 2.17187,0.6875 l -0.73437,1.95312 q -0.76563,-0.45312 -1.54688,-0.45312 -0.6875,0 -1.25,0.42187 -0.54687,0.40625 -0.78125,1.14063 -0.34375,1.125 -0.34375,2.46875 l 0,6.51562 -2.10937,0 z m 8.52343,0 0,-10.8125 -1.875,0 0,-1.64062 1.875,0 0,-1.3125 q 0,-1.26563 0.21875,-1.875 0.29688,-0.8125 1.0625,-1.3125 0.78125,-0.51563 2.15625,-0.51563 0.89063,0 1.96875,0.20313 l -0.3125,1.84375 q -0.65625,-0.125 -1.25,-0.125 -0.95312,0 -1.35937,0.42187 -0.39063,0.40625 -0.39063,1.53125 l 0,1.14063 2.42188,0 0,1.64062 -2.42188,0 0,10.8125 -2.09375,0 z m 14.277354,-1.53125 q -1.17188,0.98438 -2.26563,1.40625 -1.078124,0.40625 -2.312504,0.40625 -2.04687,0 -3.15625,-1 -1.09375,-1 -1.09375,-2.5625 0,-0.92187 0.40625,-1.67187 0.42188,-0.75 1.09375,-1.20313 0.67188,-0.46875 1.51563,-0.70312 0.625,-0.15625 1.875,-0.3125 2.562504,-0.3125 3.765624,-0.73438 0.0156,-0.42187 0.0156,-0.54687 0,-1.28125 -0.60938,-1.8125 -0.79687,-0.71875 -2.390624,-0.71875 -1.5,0 -2.20313,0.53125 -0.70312,0.51562 -1.04687,1.84375 l -2.0625,-0.28125 q 0.28125,-1.32813 0.92187,-2.14063 0.64063,-0.8125 1.85938,-1.25 1.21875,-0.45312 2.82812,-0.45312 1.593754,0 2.593754,0.375 1,0.375 1.46875,0.95312 0.46875,0.5625 0.65625,1.4375 0.0937,0.53125 0.0937,1.9375 l 0,2.8125 q 0,2.9375 0.14063,3.71875 0.14062,0.78125 0.53125,1.5 l -2.20313,0 q -0.32812,-0.65625 -0.42187,-1.53125 z m -0.17188,-4.71875 q -1.15625,0.46875 -3.453124,0.79688 -1.29688,0.1875 -1.84375,0.42187 -0.53125,0.23438 -0.82813,0.6875 -0.28125,0.45313 -0.28125,1 0,0.84375 0.625,1.40625 0.64063,0.5625 1.875,0.5625 1.21875,0 2.171884,-0.53125 0.95312,-0.53125 1.39062,-1.45312 0.34375,-0.71875 0.34375,-2.10938 l 0,-0.78125 z m 13.51953,1.6875 2.07813,0.26563 q -0.34375,2.15625 -1.75,3.375 -1.39063,1.20312 -3.4375,1.20312 -2.54688,0 -4.10938,-1.67187 -1.54687,-1.67188 -1.54687,-4.78125 0,-2.01563 0.67187,-3.53125 0.67188,-1.51563 2.03125,-2.26563 1.35938,-0.76562 2.96875,-0.76562 2.03125,0 3.3125,1.03125 1.29688,1.03125 1.65625,2.90625 l -2.04687,0.32812 q -0.29688,-1.26562 -1.04688,-1.89062 -0.73437,-0.64063 -1.79687,-0.64063 -1.59375,0 -2.59375,1.15625 -0.98438,1.14063 -0.98438,3.60938 0,2.5 0.95313,3.64062 0.96875,1.14063 2.51562,1.14063 1.23438,0 2.0625,-0.76563 0.84375,-0.76562 1.0625,-2.34375 z m 12.40625,0.54688 2.17188,0.28125 q -0.51563,1.90625 -1.90625,2.96875 -1.39063,1.04687 -3.5625,1.04687 -2.73438,0 -4.34375,-1.67187 -1.59375,-1.6875 -1.59375,-4.73438 0,-3.14062 1.60937,-4.875 1.625,-1.73437 4.20313,-1.73437 2.5,0 4.07812,1.70312 1.59375,1.70313 1.59375,4.78125 0,0.1875 -0.0156,0.5625 l -9.28125,0 q 0.10937,2.04688 1.15625,3.14063 1.04687,1.09375 2.60937,1.09375 1.15625,0 1.96875,-0.60938 0.82813,-0.60937 1.3125,-1.95312 z m -6.9375,-3.40625 6.95313,0 q -0.14063,-1.5625 -0.79688,-2.35938 -1,-1.21875 -2.60937,-1.21875 -1.45313,0 -2.45313,0.98438 -0.98437,0.96875 -1.09375,2.59375 z m 16.8125,7.42187 6.59375,-17.1875 2.45313,0 7.03125,17.1875 -2.59375,0 -2,-5.20312 -7.1875,0 -1.89063,5.20312 -2.40625,0 z m 4.95313,-7.0625 5.82812,0 -1.79687,-4.75 q -0.8125,-2.17187 -1.21875,-3.5625 -0.32813,1.65625 -0.92188,3.28125 l -1.89062,5.03125 z" />
  <path
     style="fill:#000000;fill-rule:nonzero"
     inkscape:connector-curvature="0"
     id="path4556"
     d="m 58.597526,374.88121 0,-15.15625 -5.65625,0 0,-2.03125 13.625,0 0,2.03125 -5.6875,0 0,15.15625 -2.28125,0 z m 10.00391,0 0,-12.45313 1.89062,0 0,1.89063 q 0.73438,-1.32813 1.34375,-1.75 0.625,-0.42188 1.35938,-0.42188 1.0625,0 2.17187,0.6875 l -0.73437,1.95313 q -0.76563,-0.45313 -1.54688,-0.45313 -0.6875,0 -1.25,0.42188 -0.54687,0.40625 -0.78125,1.14062 -0.34375,1.125 -0.34375,2.46875 l 0,6.51563 -2.10937,0 z m 8.02343,-14.75 0,-2.4375 2.10938,0 0,2.4375 -2.10938,0 z m 0,14.75 0,-12.45313 2.10938,0 0,12.45313 -2.10938,0 z m 13.44141,-1.53125 q -1.17188,0.98437 -2.26563,1.40625 -1.07812,0.40625 -2.3125,0.40625 -2.04687,0 -3.15625,-1 -1.09375,-1 -1.09375,-2.5625 0,-0.92188 0.40625,-1.67188 0.42188,-0.75 1.09375,-1.20312 0.67188,-0.46875 1.51563,-0.70313 0.625,-0.15625 1.875,-0.3125 2.5625,-0.3125 3.76562,-0.73437 0.0156,-0.42188 0.0156,-0.54688 0,-1.28125 -0.60938,-1.8125 -0.79687,-0.71875 -2.39062,-0.71875 -1.5,0 -2.20313,0.53125 -0.70312,0.51563 -1.04687,1.84375 l -2.0625,-0.28125 q 0.28125,-1.32812 0.92187,-2.14062 0.64063,-0.8125 1.85938,-1.25 1.21875,-0.45313 2.82812,-0.45313 1.59375,0 2.59375,0.375 1,0.375 1.46875,0.95313 0.46875,0.5625 0.65625,1.4375 0.0937,0.53125 0.0937,1.9375 l 0,2.8125 q 0,2.9375 0.14063,3.71875 0.14062,0.78125 0.53125,1.5 l -2.20313,0 q -0.32812,-0.65625 -0.42187,-1.53125 z m -0.17188,-4.71875 q -1.15625,0.46875 -3.45312,0.79687 -1.29688,0.1875 -1.84375,0.42188 -0.53125,0.23437 -0.82813,0.6875 -0.28125,0.45312 -0.28125,1 0,0.84375 0.625,1.40625 0.64063,0.5625 1.875,0.5625 1.21875,0 2.17188,-0.53125 0.95312,-0.53125 1.39062,-1.45313 0.34375,-0.71875 0.34375,-2.10937 l 0,-0.78125 z m 5.39454,6.25 0,-12.45313 1.90625,0 0,1.78125 q 1.375,-2.0625 3.953124,-2.0625 1.125,0 2.0625,0.40625 0.95313,0.40625 1.42188,1.0625 0.46875,0.65625 0.65625,1.5625 0.125,0.57813 0.125,2.04688 l 0,7.65625 -2.10938,0 0,-7.57813 q 0,-1.28125 -0.25,-1.92187 -0.25,-0.64063 -0.875,-1.01563 -0.625,-0.39062 -1.46875,-0.39062 -1.343754,0 -2.328124,0.85937 -0.98438,0.85938 -0.98438,3.25 l 0,6.79688 -2.10937,0 z m 12.972654,1.03125 2.04688,0.3125 q 0.125,0.9375 0.71875,1.375 0.78125,0.59375 2.14062,0.59375 1.46875,0 2.26563,-0.59375 0.79687,-0.57813 1.07812,-1.64063 0.15625,-0.64062 0.14063,-2.70312 -1.375,1.625 -3.4375,1.625 -2.5625,0 -3.96875,-1.84375 -1.40625,-1.85938 -1.40625,-4.45313 0,-1.78125 0.64062,-3.28125 0.64063,-1.51562 1.85938,-2.32812 1.23437,-0.82813 2.89062,-0.82813 2.20313,0 3.625,1.78125 l 0,-1.5 1.95313,0 0,10.76563 q 0,2.90625 -0.59375,4.10937 -0.59375,1.21875 -1.875,1.92188 -1.28125,0.70312 -3.15625,0.70312 -2.23438,0 -3.60938,-1 -1.35937,-1 -1.3125,-3.01562 z m 1.73438,-7.48438 q 0,2.45313 0.96875,3.57813 0.98437,1.125 2.45312,1.125 1.45313,0 2.4375,-1.10938 0.98438,-1.125 0.98438,-3.51562 0,-2.28125 -1.01563,-3.4375 -1.01562,-1.17188 -2.45312,-1.17188 -1.40625,0 -2.39063,1.14063 -0.98437,1.14062 -0.98437,3.39062 z m 11.9414,6.45313 0,-17.1875 2.10938,0 0,17.1875 -2.10938,0 z m 13.91016,-4.01563 2.17187,0.28125 q -0.51562,1.90625 -1.90625,2.96875 -1.39062,1.04688 -3.5625,1.04688 -2.73437,0 -4.34375,-1.67188 -1.59375,-1.6875 -1.59375,-4.73437 0,-3.14063 1.60938,-4.875 1.625,-1.73438 4.20312,-1.73438 2.5,0 4.07813,1.70313 1.59375,1.70312 1.59375,4.78125 0,0.1875 -0.0156,0.5625 l -9.28125,0 q 0.10938,2.04687 1.15625,3.14062 1.04688,1.09375 2.60938,1.09375 1.15625,0 1.96875,-0.60937 0.82812,-0.60938 1.3125,-1.95313 z m -6.9375,-3.40625 6.95312,0 q -0.14062,-1.5625 -0.79687,-2.35937 -1,-1.21875 -2.60938,-1.21875 -1.45312,0 -2.45312,0.98437 -0.98438,0.96875 -1.09375,2.59375 z m 10.91015,3.70313 2.09375,-0.32813 q 0.17188,1.25 0.96875,1.92188 0.8125,0.67187 2.25,0.67187 1.45313,0 2.15625,-0.59375 0.70313,-0.59375 0.70313,-1.39062 0,-0.71875 -0.625,-1.125 -0.42188,-0.28125 -2.15625,-0.71875 -2.3125,-0.57813 -3.21875,-1 -0.89063,-0.4375 -1.35938,-1.1875 -0.45312,-0.76563 -0.45312,-1.67188 0,-0.82812 0.375,-1.53125 0.39062,-0.71875 1.04687,-1.1875 0.48438,-0.35937 1.32813,-0.60937 0.85937,-0.26563 1.82812,-0.26563 1.46875,0 2.57813,0.42188 1.10937,0.42187 1.625,1.15625 0.53125,0.71875 0.73437,1.92187 l -2.0625,0.28125 q -0.14062,-0.96875 -0.8125,-1.5 -0.67187,-0.54687 -1.90625,-0.54687 -1.45312,0 -2.07812,0.48437 -0.625,0.48438 -0.625,1.125 0,0.40625 0.26562,0.73438 0.25,0.34375 0.8125,0.5625 0.3125,0.125 1.85938,0.54687 2.23437,0.59375 3.10937,0.98438 0.89063,0.375 1.39063,1.10937 0.51562,0.71875 0.51562,1.79688 0,1.04687 -0.625,1.98437 -0.60937,0.9375 -1.76562,1.45313 -1.15625,0.5 -2.625,0.5 -2.42188,0 -3.70313,-1 -1.26562,-1.01563 -1.625,-3 z" />
  <path
     style="fill:#000000;fill-opacity:0;fill-rule:evenodd"
     inkscape:connector-curvature="0"
     id="path4558"
     d="m 185.03149,0 439.68506,0 0,122.70866 -439.68506,0 z" />
  <path
     style="fill:#000000;fill-rule:nonzero"
     inkscape:connector-curvature="0"
     id="path4560"
     d="m 207.73535,29.399995 0,-28.640621 5.70312,0 6.78125,20.281246 q 0.9375,2.828125 1.35938,4.234375 0.5,-1.5625 1.53125,-4.59375 l 6.85937,-19.921871 5.09375,0 0,28.640621 -3.65625,0 0,-23.96875 -8.3125,23.96875 -3.42187,0 -8.28125,-24.374996 0,24.374996 -3.65625,0 z m 47.19531,-6.6875 3.625,0.453125 q -0.85937,3.1875 -3.1875,4.953125 -2.3125,1.75 -5.9375,1.75 -4.54687,0 -7.21875,-2.796875 -2.65625,-2.8125 -2.65625,-7.875 0,-5.234375 2.6875,-8.125 2.70313,-2.890625 7,-2.890625 4.15625,0 6.79688,2.84375 2.64062,2.828125 2.64062,7.96875 0,0.3125 -0.0312,0.9375 l -15.46875,0 q 0.20313,3.40625 1.9375,5.234375 1.73438,1.8125 4.34375,1.8125 1.92188,0 3.28125,-1.015625 1.375,-1.015625 2.1875,-3.25 z m -11.54687,-5.671875 11.57812,0 q -0.23437,-2.625 -1.32812,-3.9375 -1.67188,-2.03125 -4.35938,-2.03125 -2.42187,0 -4.07812,1.625 -1.64063,1.625 -1.8125,4.34375 z m 18.18359,6.171875 3.46875,-0.546875 q 0.29688,2.078125 1.625,3.203125 1.34375,1.109375 3.75,1.109375 2.42188,0 3.59375,-0.984375 1.17188,-0.984375 1.17188,-2.3125 0,-1.203125 -1.03125,-1.875 -0.71875,-0.46875 -3.59375,-1.203125 -3.875,-0.96875 -5.375,-1.671875 -1.48438,-0.71875 -2.26563,-1.984375 -0.76562,-1.265625 -0.76562,-2.78125 0,-1.390625 0.64062,-2.5625 0.64063,-1.1875 1.73438,-1.96875 0.8125,-0.609375 2.21875,-1.03125 1.42187,-0.421875 3.04687,-0.421875 2.4375,0 4.28125,0.703125 1.85938,0.703125 2.73438,1.90625 0.875,1.203125 1.20312,3.21875 l -3.4375,0.46875 q -0.23437,-1.609375 -1.35937,-2.5 -1.10938,-0.90625 -3.17188,-0.90625 -2.42187,0 -3.45312,0.8125 -1.03125,0.796875 -1.03125,1.875 0,0.671875 0.42187,1.21875 0.4375,0.578125 1.35938,0.9375 0.51562,0.203125 3.09375,0.90625 3.73437,1 5.20312,1.640625 1.48438,0.625 2.3125,1.84375 0.84375,1.203125 0.84375,3 0,1.75 -1.03125,3.3125 -1.01562,1.546875 -2.95312,2.40625 -1.92188,0.84375 -4.375,0.84375 -4.03125,0 -6.15625,-1.671875 -2.125,-1.6875 -2.70313,-4.984375 z m 21.40625,6.1875 0,-28.640621 3.51563,0 0,10.281246 q 2.45312,-2.859375 6.20312,-2.859375 2.3125,0 4,0.921875 1.70313,0.90625 2.4375,2.515625 0.73438,1.59375 0.73438,4.640625 l 0,13.140625 -3.51563,0 0,-13.140625 q 0,-2.640625 -1.14062,-3.84375 -1.14063,-1.203125 -3.23438,-1.203125 -1.5625,0 -2.9375,0.8125 -1.375,0.8125 -1.96875,2.203125 -0.57812,1.375 -0.57812,3.828125 l 0,11.34375 -3.51563,0 z m 20.87109,-8.59375 0,-3.53125 10.8125,0 0,3.53125 -10.8125,0 z m 14.99219,8.59375 0,-28.640621 10.73438,0 q 3.28125,0 5.26562,0.875 1.98438,0.875 3.10938,2.6875 1.125,1.796871 1.125,3.765621 0,1.84375 -1,3.46875 -1,1.609375 -3.01563,2.609375 2.60938,0.765625 4,2.609375 1.39063,1.828125 1.39063,4.328125 0,2 -0.84375,3.734375 -0.84375,1.734375 -2.09375,2.671875 -1.25,0.9375 -3.14063,1.421875 -1.89062,0.46875 -4.625,0.46875 l -10.90625,0 z m 3.78125,-16.609375 6.1875,0 q 2.53125,0 3.625,-0.328125 1.4375,-0.421875 2.17188,-1.421875 0.73437,-1 0.73437,-2.5 0,-1.421875 -0.6875,-2.5 -0.6875,-1.093746 -1.95312,-1.484371 -1.26563,-0.40625 -4.35938,-0.40625 l -5.71875,0 0,8.640621 z m 0,13.234375 7.125,0 q 1.84375,0 2.57813,-0.140625 1.3125,-0.234375 2.1875,-0.78125 0.89062,-0.546875 1.45312,-1.59375 0.5625,-1.046875 0.5625,-2.40625 0,-1.609375 -0.82812,-2.78125 -0.8125,-1.1875 -2.26563,-1.65625 -1.45312,-0.484375 -4.1875,-0.484375 l -6.625,0 0,9.84375 z m 36.13281,0.8125 q -1.95312,1.65625 -3.76562,2.34375 -1.79688,0.6875 -3.875,0.6875 -3.40625,0 -5.25,-1.671875 -1.82813,-1.671875 -1.82813,-4.265625 0,-1.53125 0.6875,-2.78125 0.6875,-1.265625 1.8125,-2.015625 1.125,-0.765625 2.53125,-1.15625 1.03125,-0.28125 3.125,-0.53125 4.26563,-0.515625 6.26563,-1.21875 0.0312,-0.71875 0.0312,-0.90625 0,-2.15625 -1,-3.03125 -1.34375,-1.1875 -4,-1.1875 -2.48438,0 -3.67188,0.875 -1.17187,0.859375 -1.75,3.0625 l -3.4375,-0.46875 q 0.46875,-2.203125 1.54688,-3.5625 1.07812,-1.359375 3.10937,-2.09375 2.03125,-0.734375 4.70313,-0.734375 2.65625,0 4.3125,0.625 1.67187,0.625 2.45312,1.578125 0.78125,0.953125 1.09375,2.390625 0.17188,0.90625 0.17188,3.25 l 0,4.6875 q 0,4.890625 0.21875,6.203125 0.23437,1.296875 0.89062,2.484375 l -3.67187,0 q -0.54688,-1.09375 -0.70313,-2.5625 z m -0.29687,-7.84375 q -1.90625,0.78125 -5.73438,1.328125 -2.17187,0.3125 -3.07812,0.703125 -0.89063,0.390625 -1.375,1.140625 -0.48438,0.75 -0.48438,1.671875 0,1.40625 1.0625,2.34375 1.0625,0.9375 3.10938,0.9375 2.03125,0 3.60937,-0.890625 1.59375,-0.890625 2.32813,-2.4375 0.5625,-1.1875 0.5625,-3.515625 l 0,-1.28125 z m 7.60547,4.21875 3.46875,-0.546875 q 0.29687,2.078125 1.625,3.203125 1.34375,1.109375 3.75,1.109375 2.42187,0 3.59375,-0.984375 1.17187,-0.984375 1.17187,-2.3125 0,-1.203125 -1.03125,-1.875 -0.71875,-0.46875 -3.59375,-1.203125 -3.875,-0.96875 -5.375,-1.671875 -1.48437,-0.71875 -2.26562,-1.984375 -0.76563,-1.265625 -0.76563,-2.78125 0,-1.390625 0.64063,-2.5625 0.64062,-1.1875 1.73437,-1.96875 0.8125,-0.609375 2.21875,-1.03125 1.42188,-0.421875 3.04688,-0.421875 2.4375,0 4.28125,0.703125 1.85937,0.703125 2.73437,1.90625 0.875,1.203125 1.20313,3.21875 l -3.4375,0.46875 q -0.23438,-1.609375 -1.35938,-2.5 -1.10937,-0.90625 -3.17187,-0.90625 -2.42188,0 -3.45313,0.8125 -1.03125,0.796875 -1.03125,1.875 0,0.671875 0.42188,1.21875 0.4375,0.578125 1.35937,0.9375 0.51563,0.203125 3.09375,0.90625 3.73438,1 5.20313,1.640625 1.48437,0.625 2.3125,1.84375 0.84375,1.203125 0.84375,3 0,1.75 -1.03125,3.3125 -1.01563,1.546875 -2.95313,2.40625 -1.92187,0.84375 -4.375,0.84375 -4.03125,0 -6.15625,-1.671875 -2.125,-1.6875 -2.70312,-4.984375 z m 35.60937,-0.5 3.625,0.453125 q -0.85937,3.1875 -3.1875,4.953125 -2.3125,1.75 -5.9375,1.75 -4.54687,0 -7.21875,-2.796875 -2.65625,-2.8125 -2.65625,-7.875 0,-5.234375 2.6875,-8.125 2.70313,-2.890625 7,-2.890625 4.15625,0 6.79688,2.84375 2.64062,2.828125 2.64062,7.96875 0,0.3125 -0.0312,0.9375 l -15.46875,0 q 0.20313,3.40625 1.9375,5.234375 1.73438,1.8125 4.34375,1.8125 1.92188,0 3.28125,-1.015625 1.375,-1.015625 2.1875,-3.25 z m -11.54687,-5.671875 11.57812,0 q -0.23437,-2.625 -1.32812,-3.9375 -1.67188,-2.03125 -4.35938,-2.03125 -2.42187,0 -4.07812,1.625 -1.64063,1.625 -1.8125,4.34375 z m 33.04297,12.359375 0,-2.625 q -1.96875,3.09375 -5.79688,3.09375 -2.48437,0 -4.5625,-1.359375 -2.07812,-1.375 -3.21875,-3.828125 -1.14062,-2.453125 -1.14062,-5.640625 0,-3.09375 1.03125,-5.625 1.03125,-2.53125 3.09375,-3.875 2.07812,-1.359375 4.64062,-1.359375 1.875,0 3.32813,0.796875 1.46875,0.796875 2.39062,2.0625 l 0,-10.281246 3.5,0 0,28.640621 -3.26562,0 z M 412.05566,19.04062 q 0,3.984375 1.67188,5.96875 1.6875,1.96875 3.96875,1.96875 2.3125,0 3.92187,-1.875 1.60938,-1.890625 1.60938,-5.765625 0,-4.25 -1.64063,-6.234375 -1.64062,-2 -4.04687,-2 -2.34375,0 -3.92188,1.921875 -1.5625,1.90625 -1.5625,6.015625 z m 38.75,10.359375 0,-25.249996 -9.4375,0 0,-3.390625 22.70313,0 0,3.390625 -9.48438,0 0,25.249996 -3.78125,0 z m 15.38672,-10.375 q 0,-5.765625 3.20313,-8.53125 2.67187,-2.3125 6.53125,-2.3125 4.26562,0 6.98437,2.8125 2.71875,2.796875 2.71875,7.734375 0,4.015625 -1.20312,6.3125 -1.20313,2.28125 -3.5,3.5625 -2.29688,1.265625 -5,1.265625 -4.35938,0 -7.04688,-2.796875 -2.6875,-2.796875 -2.6875,-8.046875 z m 3.60938,0 q 0,3.984375 1.73437,5.96875 1.75,1.984375 4.39063,1.984375 2.60937,0 4.34375,-1.984375 1.75,-2 1.75,-6.078125 0,-3.859375 -1.75,-5.828125 -1.75,-1.984375 -4.34375,-1.984375 -2.64063,0 -4.39063,1.96875 -1.73437,1.96875 -1.73437,5.953125 z m 19.94922,18.328125 0,-28.703125 3.20312,0 0,2.703125 q 1.125,-1.578125 2.54688,-2.375 1.4375,-0.796875 3.46875,-0.796875 2.65625,0 4.6875,1.375 2.03125,1.359375 3.0625,3.859375 1.03125,2.484375 1.03125,5.453125 0,3.1875 -1.14063,5.734375 -1.14062,2.546875 -3.32812,3.90625 -2.17188,1.359375 -4.5625,1.359375 -1.76563,0 -3.17188,-0.734375 -1.39062,-0.75 -2.28125,-1.890625 l 0,10.109375 -3.51562,0 z m 3.1875,-18.203125 q 0,4 1.60937,5.921875 1.625,1.90625 3.9375,1.90625 2.34375,0 4,-1.984375 1.67188,-1.984375 1.67188,-6.140625 0,-3.96875 -1.625,-5.9375 -1.625,-1.96875 -3.89063,-1.96875 -2.25,0 -3.98437,2.09375 -1.71875,2.09375 -1.71875,6.109375 z m 17.74609,-0.125 q 0,-5.765625 3.20313,-8.53125 2.67187,-2.3125 6.53125,-2.3125 4.26562,0 6.98437,2.8125 2.71875,2.796875 2.71875,7.734375 0,4.015625 -1.20312,6.3125 -1.20313,2.28125 -3.5,3.5625 -2.29688,1.265625 -5,1.265625 -4.35938,0 -7.04688,-2.796875 -2.6875,-2.796875 -2.6875,-8.046875 z m 3.60938,0 q 0,3.984375 1.73437,5.96875 1.75,1.984375 4.39063,1.984375 2.60937,0 4.34375,-1.984375 1.75,-2 1.75,-6.078125 0,-3.859375 -1.75,-5.828125 -1.75,-1.984375 -4.34375,-1.984375 -2.64063,0 -4.39063,1.96875 -1.73437,1.96875 -1.73437,5.953125 z m 19.87109,10.375 0,-28.640621 3.51562,0 0,28.640621 -3.51562,0 z m 7.65234,-10.375 q 0,-5.765625 3.20313,-8.53125 2.67187,-2.3125 6.53125,-2.3125 4.26562,0 6.98437,2.8125 2.71875,2.796875 2.71875,7.734375 0,4.015625 -1.20312,6.3125 -1.20313,2.28125 -3.5,3.5625 -2.29688,1.265625 -5,1.265625 -4.35938,0 -7.04688,-2.796875 -2.6875,-2.796875 -2.6875,-8.046875 z m 3.60938,0 q 0,3.984375 1.73437,5.96875 1.75,1.984375 4.39063,1.984375 2.60937,0 4.34375,-1.984375 1.75,-2 1.75,-6.078125 0,-3.859375 -1.75,-5.828125 -1.75,-1.984375 -4.34375,-1.984375 -2.64063,0 -4.39063,1.96875 -1.73437,1.96875 -1.73437,5.953125 z m 19.30859,12.09375 3.40625,0.515625 q 0.21875,1.578125 1.20313,2.296875 1.29687,0.984375 3.5625,0.984375 2.45312,0 3.78125,-0.984375 1.32812,-0.96875 1.79687,-2.734375 0.26563,-1.078125 0.25,-4.515625 -2.3125,2.71875 -5.75,2.71875 -4.26562,0 -6.60937,-3.078125 -2.34375,-3.09375 -2.34375,-7.40625 0,-2.96875 1.0625,-5.484375 1.07812,-2.515625 3.10937,-3.875 2.04688,-1.375 4.8125,-1.375 3.67188,0 6.04688,2.96875 l 0,-2.5 3.25,0 0,17.9375 q 0,4.84375 -1,6.859375 -0.98438,2.03125 -3.125,3.203125 -2.125,1.171875 -5.25,1.171875 -3.71875,0 -6,-1.671875 -2.28125,-1.671875 -2.20313,-5.03125 z m 2.90625,-12.46875 q 0,4.09375 1.60938,5.96875 1.625,1.875 4.07812,1.875 2.42188,0 4.0625,-1.859375 1.64063,-1.875 1.64063,-5.859375 0,-3.8125 -1.70313,-5.734375 -1.6875,-1.9375 -4.0625,-1.9375 -2.34375,0 -3.98437,1.90625 -1.64063,1.890625 -1.64063,5.640625 z m 19.82422,18.734375 -0.39062,-3.296875 q 1.15625,0.3125 2.01562,0.3125 1.17188,0 1.875,-0.390625 0.70313,-0.390625 1.14063,-1.09375 0.34375,-0.53125 1.07812,-2.609375 0.0937,-0.296875 0.3125,-0.859375 l -7.875,-20.796875 3.79688,0 4.3125,12.015625 q 0.84375,2.28125 1.5,4.8125 0.60937,-2.421875 1.45312,-4.734375 l 4.4375,-12.09375 3.51563,0 -7.89063,21.109375 q -1.28125,3.40625 -1.98437,4.703125 -0.9375,1.734375 -2.15625,2.546875 -1.20313,0.8125 -2.875,0.8125 -1.01563,0 -2.26563,-0.4375 z" />
  <path
     style="fill:#000000;fill-opacity:0;fill-rule:evenodd"
     inkscape:connector-curvature="0"
     id="path4562"
     d="m 0,337.34121 203.46457,0" />
  <path
     style="fill-rule:evenodd;stroke:#000000;stroke-width:1;stroke-linecap:butt;stroke-linejoin:round"
     inkscape:connector-curvature="0"
     id="path4564"
     d="m 0,337.34121 203.46457,0" />
  <path
     style="fill:#000000;fill-opacity:0;fill-rule:evenodd"
     inkscape:connector-curvature="0"
     id="path4566"
     d="m 327.2691,380.93046 0,0" />
  <path
     style="fill-rule:evenodd;stroke:#ff0000;stroke-width:1;stroke-linecap:butt;stroke-linejoin:round"
     inkscape:connector-curvature="0"
     id="path4568"
     d="m 327.2691,380.93046 0,0" />
  <path
     style="fill:#000000;fill-opacity:0;fill-rule:evenodd"
     inkscape:connector-curvature="0"
     id="path4570"
     d="m 457.13787,380.92915 0,0" />
  <path
     style="fill-rule:evenodd;stroke:#000000;stroke-width:1;stroke-linecap:butt;stroke-linejoin:round"
     inkscape:connector-curvature="0"
     id="path4572"
     d="m 457.13787,380.92915 0,0" />
  <path
     style="fill:#93c47d;fill-rule:evenodd"
     inkscape:connector-curvature="0"
     id="path4574"
     d="m 301.19162,337.34121 0,0 c 0,-33.88504 45.54709,-61.35431 101.73227,-61.35431 l 0,0 c 56.18518,0 101.7323,27.46927 101.7323,61.35431 l 0,0 c 0,33.88507 -45.54712,61.35434 -101.7323,61.35434 l 0,0 c -56.18518,0 -101.73227,-27.46927 -101.73227,-61.35434 z" />
  <path
     style="fill:#000000;fill-rule:nonzero"
     inkscape:connector-curvature="0"
     id="path4576"
     d="m 351.30865,311.36558 2.14063,-0.1875 q 0.15625,1.28125 0.70312,2.10937 0.5625,0.82813 1.73438,1.34375 1.17187,0.5 2.64062,0.5 1.29688,0 2.29688,-0.375 1,-0.39062 1.48437,-1.0625 0.48438,-0.6875 0.48438,-1.48437 0,-0.79688 -0.46875,-1.40625 -0.46875,-0.60938 -1.54688,-1.01563 -0.6875,-0.26562 -3.0625,-0.82812 -2.35937,-0.57813 -3.3125,-1.07813 -1.23437,-0.64062 -1.84375,-1.59375 -0.59375,-0.96875 -0.59375,-2.14062 0,-1.3125 0.73438,-2.4375 0.75,-1.125 2.15625,-1.70313 1.42187,-0.59375 3.15625,-0.59375 1.90625,0 3.35937,0.60938 1.46875,0.60937 2.25,1.8125 0.79688,1.1875 0.84375,2.70312 l -2.17187,0.17188 q -0.17188,-1.64063 -1.1875,-2.46875 -1.01563,-0.82813 -3,-0.82813 -2.0625,0 -3.01563,0.76563 -0.9375,0.75 -0.9375,1.8125 0,0.92187 0.67188,1.51562 0.65625,0.60938 3.42187,1.23438 2.78125,0.625 3.8125,1.09375 1.5,0.6875 2.20313,1.75 0.71875,1.0625 0.71875,2.4375 0,1.375 -0.78125,2.59375 -0.78125,1.20312 -2.25,1.89062 -1.46875,0.67188 -3.3125,0.67188 -2.32813,0 -3.90625,-0.67188 -1.57813,-0.6875 -2.48438,-2.04687 -0.89062,-1.375 -0.9375,-3.09375 z m 24.66406,5.51562 0,-1.82812 q -1.45312,2.10937 -3.9375,2.10937 -1.10937,0 -2.0625,-0.42187 -0.95312,-0.42188 -1.42187,-1.0625 -0.45313,-0.64063 -0.64063,-1.5625 -0.14062,-0.625 -0.14062,-1.96875 l 0,-7.71875 2.10937,0 0,6.90625 q 0,1.65625 0.14063,2.23437 0.1875,0.82813 0.82812,1.3125 0.65625,0.46875 1.60938,0.46875 0.9375,0 1.76562,-0.48437 0.84375,-0.5 1.1875,-1.32813 0.34375,-0.84375 0.34375,-2.4375 l 0,-6.67187 2.10938,0 0,12.45312 -1.89063,0 z m 5.17578,0 0,-12.45312 1.89063,0 0,1.89062 q 0.73437,-1.32812 1.34375,-1.75 0.625,-0.42187 1.35937,-0.42187 1.0625,0 2.17188,0.6875 l -0.73438,1.95312 q -0.76562,-0.45312 -1.54687,-0.45312 -0.6875,0 -1.25,0.42187 -0.54688,0.40625 -0.78125,1.14063 -0.34375,1.125 -0.34375,2.46875 l 0,6.51562 -2.10938,0 z m 8.52344,0 0,-10.8125 -1.875,0 0,-1.64062 1.875,0 0,-1.3125 q 0,-1.26563 0.21875,-1.875 0.29688,-0.8125 1.0625,-1.3125 0.78125,-0.51563 2.15625,-0.51563 0.89063,0 1.96875,0.20313 l -0.3125,1.84375 q -0.65625,-0.125 -1.25,-0.125 -0.95312,0 -1.35937,0.42187 -0.39063,0.40625 -0.39063,1.53125 l 0,1.14063 2.42188,0 0,1.64062 -2.42188,0 0,10.8125 -2.09375,0 z m 14.27734,-1.53125 q -1.17187,0.98438 -2.26562,1.40625 -1.07813,0.40625 -2.3125,0.40625 -2.04688,0 -3.15625,-1 -1.09375,-1 -1.09375,-2.5625 0,-0.92187 0.40625,-1.67187 0.42187,-0.75 1.09375,-1.20313 0.67187,-0.46875 1.51562,-0.70312 0.625,-0.15625 1.875,-0.3125 2.5625,-0.3125 3.76563,-0.73438 0.0156,-0.42187 0.0156,-0.54687 0,-1.28125 -0.60937,-1.8125 -0.79688,-0.71875 -2.39063,-0.71875 -1.5,0 -2.20312,0.53125 -0.70313,0.51562 -1.04688,1.84375 l -2.0625,-0.28125 q 0.28125,-1.32813 0.92188,-2.14063 0.64062,-0.8125 1.85937,-1.25 1.21875,-0.45312 2.82813,-0.45312 1.59375,0 2.59375,0.375 1,0.375 1.46875,0.95312 0.46875,0.5625 0.65625,1.4375 0.0937,0.53125 0.0937,1.9375 l 0,2.8125 q 0,2.9375 0.14062,3.71875 0.14063,0.78125 0.53125,1.5 l -2.20312,0 q -0.32813,-0.65625 -0.42188,-1.53125 z m -0.17187,-4.71875 q -1.15625,0.46875 -3.45313,0.79688 -1.29687,0.1875 -1.84375,0.42187 -0.53125,0.23438 -0.82812,0.6875 -0.28125,0.45313 -0.28125,1 0,0.84375 0.625,1.40625 0.64062,0.5625 1.875,0.5625 1.21875,0 2.17187,-0.53125 0.95313,-0.53125 1.39063,-1.45312 0.34375,-0.71875 0.34375,-2.10938 l 0,-0.78125 z m 13.51953,1.6875 2.07813,0.26563 q -0.34375,2.15625 -1.75,3.375 -1.39063,1.20312 -3.4375,1.20312 -2.54688,0 -4.10938,-1.67187 -1.54687,-1.67188 -1.54687,-4.78125 0,-2.01563 0.67187,-3.53125 0.67188,-1.51563 2.03125,-2.26563 1.35938,-0.76562 2.96875,-0.76562 2.03125,0 3.3125,1.03125 1.29688,1.03125 1.65625,2.90625 l -2.04687,0.32812 q -0.29688,-1.26562 -1.04688,-1.89062 -0.73437,-0.64063 -1.79687,-0.64063 -1.59375,0 -2.59375,1.15625 -0.98438,1.14063 -0.98438,3.60938 0,2.5 0.95313,3.64062 0.96875,1.14063 2.51562,1.14063 1.23438,0 2.0625,-0.76563 0.84375,-0.76562 1.0625,-2.34375 z m 12.40625,0.54688 2.17188,0.28125 q -0.51563,1.90625 -1.90625,2.96875 -1.39063,1.04687 -3.5625,1.04687 -2.73438,0 -4.34375,-1.67187 -1.59375,-1.6875 -1.59375,-4.73438 0,-3.14062 1.60937,-4.875 1.625,-1.73437 4.20313,-1.73437 2.5,0 4.07812,1.70312 1.59375,1.70313 1.59375,4.78125 0,0.1875 -0.0156,0.5625 l -9.28125,0 q 0.10937,2.04688 1.15625,3.14063 1.04687,1.09375 2.60937,1.09375 1.15625,0 1.96875,-0.60938 0.82813,-0.60937 1.3125,-1.95312 z m -6.9375,-3.40625 6.95313,0 q -0.14063,-1.5625 -0.79688,-2.35938 -1,-1.21875 -2.60937,-1.21875 -1.45313,0 -2.45313,0.98438 -0.98437,0.96875 -1.09375,2.59375 z m 18.60938,7.42187 0,-17.1875 6.4375,0 q 1.96875,0 3.15625,0.53125 1.1875,0.51563 1.85937,1.60938 0.6875,1.07812 0.6875,2.26562 0,1.09375 -0.60937,2.07813 -0.59375,0.96875 -1.79688,1.5625 1.5625,0.45312 2.39063,1.5625 0.84375,1.09375 0.84375,2.59375 0,1.20312 -0.51563,2.25 -0.5,1.03125 -1.25,1.59375 -0.75,0.5625 -1.89062,0.85937 -1.125,0.28125 -2.76563,0.28125 l -6.54687,0 z m 2.26562,-9.96875 3.71875,0 q 1.51563,0 2.17188,-0.1875 0.85937,-0.26562 1.29687,-0.85937 0.4375,-0.59375 0.4375,-1.5 0,-0.85938 -0.40625,-1.5 -0.40625,-0.65625 -1.17187,-0.89063 -0.76563,-0.25 -2.60938,-0.25 l -3.4375,0 0,5.1875 z m 0,7.9375 4.28125,0 q 1.09375,0 1.54688,-0.0781 0.78125,-0.14063 1.3125,-0.46875 0.53125,-0.32813 0.85937,-0.95313 0.34375,-0.625 0.34375,-1.45312 0,-0.95313 -0.5,-1.65625 -0.48437,-0.71875 -1.35937,-1 -0.875,-0.29688 -2.51563,-0.29688 l -3.96875,0 0,5.90625 z" />
  <path
     style="fill:#000000;fill-rule:nonzero"
     inkscape:connector-curvature="0"
     id="path4578"
     d="m 359.78912,374.88121 0,-15.15625 -5.65625,0 0,-2.03125 13.625,0 0,2.03125 -5.6875,0 0,15.15625 -2.28125,0 z m 10.00391,0 0,-12.45313 1.89062,0 0,1.89063 q 0.73438,-1.32813 1.34375,-1.75 0.625,-0.42188 1.35938,-0.42188 1.0625,0 2.17187,0.6875 l -0.73437,1.95313 q -0.76563,-0.45313 -1.54688,-0.45313 -0.6875,0 -1.25,0.42188 -0.54687,0.40625 -0.78125,1.14062 -0.34375,1.125 -0.34375,2.46875 l 0,6.51563 -2.10937,0 z m 8.02343,-14.75 0,-2.4375 2.10938,0 0,2.4375 -2.10938,0 z m 0,14.75 0,-12.45313 2.10938,0 0,12.45313 -2.10938,0 z m 13.44141,-1.53125 q -1.17188,0.98437 -2.26563,1.40625 -1.07812,0.40625 -2.3125,0.40625 -2.04687,0 -3.15625,-1 -1.09375,-1 -1.09375,-2.5625 0,-0.92188 0.40625,-1.67188 0.42188,-0.75 1.09375,-1.20312 0.67188,-0.46875 1.51563,-0.70313 0.625,-0.15625 1.875,-0.3125 2.5625,-0.3125 3.76562,-0.73437 0.0156,-0.42188 0.0156,-0.54688 0,-1.28125 -0.60938,-1.8125 -0.79687,-0.71875 -2.39062,-0.71875 -1.5,0 -2.20313,0.53125 -0.70312,0.51563 -1.04687,1.84375 l -2.0625,-0.28125 q 0.28125,-1.32812 0.92187,-2.14062 0.64063,-0.8125 1.85938,-1.25 1.21875,-0.45313 2.82812,-0.45313 1.59375,0 2.59375,0.375 1,0.375 1.46875,0.95313 0.46875,0.5625 0.65625,1.4375 0.0937,0.53125 0.0937,1.9375 l 0,2.8125 q 0,2.9375 0.14063,3.71875 0.14062,0.78125 0.53125,1.5 l -2.20313,0 q -0.32812,-0.65625 -0.42187,-1.53125 z m -0.17188,-4.71875 q -1.15625,0.46875 -3.45312,0.79687 -1.29688,0.1875 -1.84375,0.42188 -0.53125,0.23437 -0.82813,0.6875 -0.28125,0.45312 -0.28125,1 0,0.84375 0.625,1.40625 0.64063,0.5625 1.875,0.5625 1.21875,0 2.17188,-0.53125 0.95312,-0.53125 1.39062,-1.45313 0.34375,-0.71875 0.34375,-2.10937 l 0,-0.78125 z m 5.39454,6.25 0,-12.45313 1.90625,0 0,1.78125 q 1.375,-2.0625 3.95312,-2.0625 1.125,0 2.0625,0.40625 0.95313,0.40625 1.42188,1.0625 0.46875,0.65625 0.65625,1.5625 0.125,0.57813 0.125,2.04688 l 0,7.65625 -2.10938,0 0,-7.57813 q 0,-1.28125 -0.25,-1.92187 -0.25,-0.64063 -0.875,-1.01563 -0.625,-0.39062 -1.46875,-0.39062 -1.34375,0 -2.32812,0.85937 -0.98438,0.85938 -0.98438,3.25 l 0,6.79688 -2.10937,0 z m 12.97265,1.03125 2.04688,0.3125 q 0.125,0.9375 0.71875,1.375 0.78125,0.59375 2.14062,0.59375 1.46875,0 2.26563,-0.59375 0.79687,-0.57813 1.07812,-1.64063 0.15625,-0.64062 0.14063,-2.70312 -1.375,1.625 -3.4375,1.625 -2.5625,0 -3.96875,-1.84375 -1.40625,-1.85938 -1.40625,-4.45313 0,-1.78125 0.64062,-3.28125 0.64063,-1.51562 1.85938,-2.32812 1.23437,-0.82813 2.89062,-0.82813 2.20313,0 3.625,1.78125 l 0,-1.5 1.95313,0 0,10.76563 q 0,2.90625 -0.59375,4.10937 -0.59375,1.21875 -1.875,1.92188 -1.28125,0.70312 -3.15625,0.70312 -2.23438,0 -3.60938,-1 -1.35937,-1 -1.3125,-3.01562 z m 1.73438,-7.48438 q 0,2.45313 0.96875,3.57813 0.98437,1.125 2.45312,1.125 1.45313,0 2.4375,-1.10938 0.98438,-1.125 0.98438,-3.51562 0,-2.28125 -1.01563,-3.4375 -1.01562,-1.17188 -2.45312,-1.17188 -1.40625,0 -2.39063,1.14063 -0.98437,1.14062 -0.98437,3.39062 z m 11.9414,6.45313 0,-17.1875 2.10938,0 0,17.1875 -2.10938,0 z m 13.91016,-4.01563 2.17187,0.28125 q -0.51562,1.90625 -1.90625,2.96875 -1.39062,1.04688 -3.5625,1.04688 -2.73437,0 -4.34375,-1.67188 -1.59375,-1.6875 -1.59375,-4.73437 0,-3.14063 1.60938,-4.875 1.625,-1.73438 4.20312,-1.73438 2.5,0 4.07813,1.70313 1.59375,1.70312 1.59375,4.78125 0,0.1875 -0.0156,0.5625 l -9.28125,0 q 0.10938,2.04687 1.15625,3.14062 1.04688,1.09375 2.60938,1.09375 1.15625,0 1.96875,-0.60937 0.82812,-0.60938 1.3125,-1.95313 z m -6.9375,-3.40625 6.95312,0 q -0.14062,-1.5625 -0.79687,-2.35937 -1,-1.21875 -2.60938,-1.21875 -1.45312,0 -2.45312,0.98437 -0.98438,0.96875 -1.09375,2.59375 z m 10.91015,3.70313 2.09375,-0.32813 q 0.17188,1.25 0.96875,1.92188 0.8125,0.67187 2.25,0.67187 1.45313,0 2.15625,-0.59375 0.70313,-0.59375 0.70313,-1.39062 0,-0.71875 -0.625,-1.125 -0.42188,-0.28125 -2.15625,-0.71875 -2.3125,-0.57813 -3.21875,-1 -0.89063,-0.4375 -1.35938,-1.1875 -0.45312,-0.76563 -0.45312,-1.67188 0,-0.82812 0.375,-1.53125 0.39062,-0.71875 1.04687,-1.1875 0.48438,-0.35937 1.32813,-0.60937 0.85937,-0.26563 1.82812,-0.26563 1.46875,0 2.57813,0.42188 1.10937,0.42187 1.625,1.15625 0.53125,0.71875 0.73437,1.92187 l -2.0625,0.28125 q -0.14062,-0.96875 -0.8125,-1.5 -0.67187,-0.54687 -1.90625,-0.54687 -1.45312,0 -2.07812,0.48437 -0.625,0.48438 -0.625,1.125 0,0.40625 0.26562,0.73438 0.25,0.34375 0.8125,0.5625 0.3125,0.125 1.85938,0.54687 2.23437,0.59375 3.10937,0.98438 0.89063,0.375 1.39063,1.10937 0.51562,0.71875 0.51562,1.79688 0,1.04687 -0.625,1.98437 -0.60937,0.9375 -1.76562,1.45313 -1.15625,0.5 -2.625,0.5 -2.42188,0 -3.70313,-1 -1.26562,-1.01563 -1.625,-3 z" />
  <path
     style="fill:#000000;fill-opacity:0;fill-rule:evenodd"
     inkscape:connector-curvature="0"
     id="path4580"
     d="m 301.19162,337.34121 203.46457,0" />
  <path
     style="fill-rule:evenodd;stroke:#000000;stroke-width:1;stroke-linecap:butt;stroke-linejoin:round"
     inkscape:connector-curvature="0"
     id="path4582"
     d="m 301.19162,337.34121 203.46457,0" />
  <path
     style="fill:#6d9eeb;fill-rule:evenodd"
     inkscape:connector-curvature="0"
     id="path4584"
     d="m 592.20472,335.58531 0,0 c 0,-33.88507 45.54712,-61.35434 101.7323,-61.35434 l 0,0 c 56.18518,0 101.7323,27.46927 101.7323,61.35434 l 0,0 c 0,33.88507 -45.54712,61.35434 -101.7323,61.35434 l 0,0 c -56.18518,0 -101.7323,-27.46927 -101.7323,-61.35434 z" />
  <path
     style="fill:#000000;fill-rule:nonzero"
     inkscape:connector-curvature="0"
     id="path4586"
     d="m 641.65966,309.60969 2.14062,-0.1875 q 0.15625,1.28125 0.70313,2.10938 0.5625,0.82812 1.73437,1.34375 1.17188,0.5 2.64063,0.5 1.29687,0 2.29687,-0.375 1,-0.39063 1.48438,-1.0625 0.48437,-0.6875 0.48437,-1.48438 0,-0.79687 -0.46875,-1.40625 -0.46875,-0.60937 -1.54687,-1.01562 -0.6875,-0.26563 -3.0625,-0.82813 -2.35938,-0.57812 -3.3125,-1.07812 -1.23438,-0.64063 -1.84375,-1.59375 -0.59375,-0.96875 -0.59375,-2.14063 0,-1.3125 0.73437,-2.4375 0.75,-1.125 2.15625,-1.70312 1.42188,-0.59375 3.15625,-0.59375 1.90625,0 3.35938,0.60937 1.46875,0.60938 2.25,1.8125 0.79687,1.1875 0.84375,2.70313 l -2.17188,0.17187 q -0.17187,-1.64062 -1.1875,-2.46875 -1.01562,-0.82812 -3,-0.82812 -2.0625,0 -3.01562,0.76562 -0.9375,0.75 -0.9375,1.8125 0,0.92188 0.67187,1.51563 0.65625,0.60937 3.42188,1.23437 2.78125,0.625 3.8125,1.09375 1.5,0.6875 2.20312,1.75 0.71875,1.0625 0.71875,2.4375 0,1.375 -0.78125,2.59375 -0.78125,1.20313 -2.25,1.89063 -1.46875,0.67187 -3.3125,0.67187 -2.32812,0 -3.90625,-0.67187 -1.57812,-0.6875 -2.48437,-2.04688 -0.89063,-1.375 -0.9375,-3.09375 z m 24.66406,5.51563 0,-1.82813 q -1.45312,2.10938 -3.9375,2.10938 -1.10937,0 -2.0625,-0.42188 -0.95312,-0.42187 -1.42187,-1.0625 -0.45313,-0.64062 -0.64063,-1.5625 -0.14062,-0.625 -0.14062,-1.96875 l 0,-7.71875 2.10937,0 0,6.90625 q 0,1.65625 0.14063,2.23438 0.1875,0.82812 0.82812,1.3125 0.65625,0.46875 1.60938,0.46875 0.9375,0 1.76562,-0.48438 0.84375,-0.5 1.1875,-1.32812 0.34375,-0.84375 0.34375,-2.4375 l 0,-6.67188 2.10938,0 0,12.45313 -1.89063,0 z m 5.17578,0 0,-12.45313 1.89063,0 0,1.89063 q 0.73437,-1.32813 1.34375,-1.75 0.625,-0.42188 1.35937,-0.42188 1.0625,0 2.17188,0.6875 l -0.73438,1.95313 q -0.76562,-0.45313 -1.54687,-0.45313 -0.6875,0 -1.25,0.42188 -0.54688,0.40625 -0.78125,1.14062 -0.34375,1.125 -0.34375,2.46875 l 0,6.51563 -2.10938,0 z m 8.52344,0 0,-10.8125 -1.875,0 0,-1.64063 1.875,0 0,-1.3125 q 0,-1.26562 0.21875,-1.875 0.29688,-0.8125 1.0625,-1.3125 0.78125,-0.51562 2.15625,-0.51562 0.89063,0 1.96875,0.20312 l -0.3125,1.84375 q -0.65625,-0.125 -1.25,-0.125 -0.95312,0 -1.35937,0.42188 -0.39063,0.40625 -0.39063,1.53125 l 0,1.14062 2.42188,0 0,1.64063 -2.42188,0 0,10.8125 -2.09375,0 z m 14.27734,-1.53125 q -1.17187,0.98437 -2.26562,1.40625 -1.07813,0.40625 -2.3125,0.40625 -2.04688,0 -3.15625,-1 -1.09375,-1 -1.09375,-2.5625 0,-0.92188 0.40625,-1.67188 0.42187,-0.75 1.09375,-1.20312 0.67187,-0.46875 1.51562,-0.70313 0.625,-0.15625 1.875,-0.3125 2.5625,-0.3125 3.76563,-0.73437 0.0156,-0.42188 0.0156,-0.54688 0,-1.28125 -0.60937,-1.8125 -0.79688,-0.71875 -2.39063,-0.71875 -1.5,0 -2.20312,0.53125 -0.70313,0.51563 -1.04688,1.84375 l -2.0625,-0.28125 q 0.28125,-1.32812 0.92188,-2.14062 0.64062,-0.8125 1.85937,-1.25 1.21875,-0.45313 2.82813,-0.45313 1.59375,0 2.59375,0.375 1,0.375 1.46875,0.95313 0.46875,0.5625 0.65625,1.4375 0.0937,0.53125 0.0937,1.9375 l 0,2.8125 q 0,2.9375 0.14062,3.71875 0.14063,0.78125 0.53125,1.5 l -2.20312,0 q -0.32813,-0.65625 -0.42188,-1.53125 z m -0.17187,-4.71875 q -1.15625,0.46875 -3.45313,0.79687 -1.29687,0.1875 -1.84375,0.42188 -0.53125,0.23437 -0.82812,0.6875 -0.28125,0.45312 -0.28125,1 0,0.84375 0.625,1.40625 0.64062,0.5625 1.875,0.5625 1.21875,0 2.17187,-0.53125 0.95313,-0.53125 1.39063,-1.45313 0.34375,-0.71875 0.34375,-2.10937 l 0,-0.78125 z m 13.51953,1.6875 2.07813,0.26562 q -0.34375,2.15625 -1.75,3.375 -1.39063,1.20313 -3.4375,1.20313 -2.54688,0 -4.10938,-1.67188 -1.54687,-1.67187 -1.54687,-4.78125 0,-2.01562 0.67187,-3.53125 0.67188,-1.51562 2.03125,-2.26562 1.35938,-0.76563 2.96875,-0.76563 2.03125,0 3.3125,1.03125 1.29688,1.03125 1.65625,2.90625 l -2.04687,0.32813 q -0.29688,-1.26563 -1.04688,-1.89063 -0.73437,-0.64062 -1.79687,-0.64062 -1.59375,0 -2.59375,1.15625 -0.98438,1.14062 -0.98438,3.60937 0,2.5 0.95313,3.64063 0.96875,1.14062 2.51562,1.14062 1.23438,0 2.0625,-0.76562 0.84375,-0.76563 1.0625,-2.34375 z m 12.40625,0.54687 2.17188,0.28125 q -0.51563,1.90625 -1.90625,2.96875 -1.39063,1.04688 -3.5625,1.04688 -2.73438,0 -4.34375,-1.67188 -1.59375,-1.6875 -1.59375,-4.73437 0,-3.14063 1.60937,-4.875 1.625,-1.73438 4.20313,-1.73438 2.5,0 4.07812,1.70313 1.59375,1.70312 1.59375,4.78125 0,0.1875 -0.0156,0.5625 l -9.28125,0 q 0.10937,2.04687 1.15625,3.14062 1.04687,1.09375 2.60937,1.09375 1.15625,0 1.96875,-0.60937 0.82813,-0.60938 1.3125,-1.95313 z m -6.9375,-3.40625 6.95313,0 q -0.14063,-1.5625 -0.79688,-2.35937 -1,-1.21875 -2.60937,-1.21875 -1.45313,0 -2.45313,0.98437 -0.98437,0.96875 -1.09375,2.59375 z m 30.95313,1.39063 2.28125,0.57812 q -0.71875,2.79688 -2.57813,4.28125 -1.85937,1.46875 -4.54687,1.46875 -2.76563,0 -4.51563,-1.125 -1.73437,-1.14062 -2.64062,-3.28125 -0.90625,-2.15625 -0.90625,-4.60937 0,-2.6875 1.01562,-4.6875 1.03125,-2 2.92188,-3.03125 1.89062,-1.03125 4.17187,-1.03125 2.57813,0 4.32813,1.3125 1.76562,1.3125 2.45312,3.6875 l -2.23437,0.53125 q -0.60938,-1.875 -1.75,-2.73438 -1.125,-0.85937 -2.84375,-0.85937 -1.98438,0 -3.3125,0.95312 -1.32813,0.95313 -1.875,2.54688 -0.53125,1.59375 -0.53125,3.29687 0,2.1875 0.625,3.82813 0.64062,1.64062 1.98437,2.45312 1.35938,0.79688 2.92188,0.79688 1.92187,0 3.23437,-1.09375 1.32813,-1.10938 1.79688,-3.28125 z" />
  <path
     style="fill:#000000;fill-rule:nonzero"
     inkscape:connector-curvature="0"
     id="path4588"
     d="m 650.80222,373.12531 0,-15.15625 -5.65625,0 0,-2.03125 13.625,0 0,2.03125 -5.6875,0 0,15.15625 -2.28125,0 z m 10.00391,0 0,-12.45313 1.89062,0 0,1.89063 q 0.73438,-1.32813 1.34375,-1.75 0.625,-0.42188 1.35938,-0.42188 1.0625,0 2.17187,0.6875 l -0.73437,1.95313 q -0.76563,-0.45313 -1.54688,-0.45313 -0.6875,0 -1.25,0.42188 -0.54687,0.40625 -0.78125,1.14062 -0.34375,1.125 -0.34375,2.46875 l 0,6.51563 -2.10937,0 z m 8.02343,-14.75 0,-2.4375 2.10938,0 0,2.4375 -2.10938,0 z m 0,14.75 0,-12.45313 2.10938,0 0,12.45313 -2.10938,0 z m 13.44141,-1.53125 q -1.17188,0.98437 -2.26563,1.40625 -1.07812,0.40625 -2.3125,0.40625 -2.04687,0 -3.15625,-1 -1.09375,-1 -1.09375,-2.5625 0,-0.92188 0.40625,-1.67188 0.42188,-0.75 1.09375,-1.20312 0.67188,-0.46875 1.51563,-0.70313 0.625,-0.15625 1.875,-0.3125 2.5625,-0.3125 3.76562,-0.73437 0.0156,-0.42188 0.0156,-0.54688 0,-1.28125 -0.60938,-1.8125 -0.79687,-0.71875 -2.39062,-0.71875 -1.5,0 -2.20313,0.53125 -0.70312,0.51563 -1.04687,1.84375 l -2.0625,-0.28125 q 0.28125,-1.32812 0.92187,-2.14062 0.64063,-0.8125 1.85938,-1.25 1.21875,-0.45313 2.82812,-0.45313 1.59375,0 2.59375,0.375 1,0.375 1.46875,0.95313 0.46875,0.5625 0.65625,1.4375 0.0937,0.53125 0.0937,1.9375 l 0,2.8125 q 0,2.9375 0.14063,3.71875 0.14062,0.78125 0.53125,1.5 l -2.20313,0 q -0.32812,-0.65625 -0.42187,-1.53125 z m -0.17188,-4.71875 q -1.15625,0.46875 -3.45312,0.79687 -1.29688,0.1875 -1.84375,0.42188 -0.53125,0.23437 -0.82813,0.6875 -0.28125,0.45312 -0.28125,1 0,0.84375 0.625,1.40625 0.64063,0.5625 1.875,0.5625 1.21875,0 2.17188,-0.53125 0.95312,-0.53125 1.39062,-1.45313 0.34375,-0.71875 0.34375,-2.10937 l 0,-0.78125 z m 5.39454,6.25 0,-12.45313 1.90625,0 0,1.78125 q 1.375,-2.0625 3.95312,-2.0625 1.125,0 2.0625,0.40625 0.95313,0.40625 1.42188,1.0625 0.46875,0.65625 0.65625,1.5625 0.125,0.57813 0.125,2.04688 l 0,7.65625 -2.10938,0 0,-7.57813 q 0,-1.28125 -0.25,-1.92187 -0.25,-0.64063 -0.875,-1.01563 -0.625,-0.39062 -1.46875,-0.39062 -1.34375,0 -2.32812,0.85937 -0.98438,0.85938 -0.98438,3.25 l 0,6.79688 -2.10937,0 z m 12.97265,1.03125 2.04688,0.3125 q 0.125,0.9375 0.71875,1.375 0.78125,0.59375 2.14062,0.59375 1.46875,0 2.26563,-0.59375 0.79687,-0.57813 1.07812,-1.64063 0.15625,-0.64062 0.14063,-2.70312 -1.375,1.625 -3.4375,1.625 -2.5625,0 -3.96875,-1.84375 -1.40625,-1.85938 -1.40625,-4.45313 0,-1.78125 0.64062,-3.28125 0.64063,-1.51562 1.85938,-2.32812 1.23437,-0.82813 2.89062,-0.82813 2.20313,0 3.625,1.78125 l 0,-1.5 1.95313,0 0,10.76563 q 0,2.90625 -0.59375,4.10937 -0.59375,1.21875 -1.875,1.92188 -1.28125,0.70312 -3.15625,0.70312 -2.23438,0 -3.60938,-1 -1.35937,-1 -1.3125,-3.01562 z m 1.73438,-7.48438 q 0,2.45313 0.96875,3.57813 0.98437,1.125 2.45312,1.125 1.45313,0 2.4375,-1.10938 0.98438,-1.125 0.98438,-3.51562 0,-2.28125 -1.01563,-3.4375 -1.01562,-1.17188 -2.45312,-1.17188 -1.40625,0 -2.39063,1.14063 -0.98437,1.14062 -0.98437,3.39062 z m 11.9414,6.45313 0,-17.1875 2.10938,0 0,17.1875 -2.10938,0 z m 13.91016,-4.01563 2.17187,0.28125 q -0.51562,1.90625 -1.90625,2.96875 -1.39062,1.04688 -3.5625,1.04688 -2.73437,0 -4.34375,-1.67188 -1.59375,-1.6875 -1.59375,-4.73437 0,-3.14063 1.60938,-4.875 1.625,-1.73438 4.20312,-1.73438 2.5,0 4.07813,1.70313 1.59375,1.70312 1.59375,4.78125 0,0.1875 -0.0156,0.5625 l -9.28125,0 q 0.10938,2.04687 1.15625,3.14062 1.04688,1.09375 2.60938,1.09375 1.15625,0 1.96875,-0.60937 0.82812,-0.60938 1.3125,-1.95313 z m -6.9375,-3.40625 6.95312,0 q -0.14062,-1.5625 -0.79687,-2.35937 -1,-1.21875 -2.60938,-1.21875 -1.45312,0 -2.45312,0.98437 -0.98438,0.96875 -1.09375,2.59375 z m 10.91015,3.70313 2.09375,-0.32813 q 0.17188,1.25 0.96875,1.92188 0.8125,0.67187 2.25,0.67187 1.45313,0 2.15625,-0.59375 0.70313,-0.59375 0.70313,-1.39062 0,-0.71875 -0.625,-1.125 -0.42188,-0.28125 -2.15625,-0.71875 -2.3125,-0.57813 -3.21875,-1 -0.89063,-0.4375 -1.35938,-1.1875 -0.45312,-0.76563 -0.45312,-1.67188 0,-0.82812 0.375,-1.53125 0.39062,-0.71875 1.04687,-1.1875 0.48438,-0.35937 1.32813,-0.60937 0.85937,-0.26563 1.82812,-0.26563 1.46875,0 2.57813,0.42188 1.10937,0.42187 1.625,1.15625 0.53125,0.71875 0.73437,1.92187 l -2.0625,0.28125 q -0.14062,-0.96875 -0.8125,-1.5 -0.67187,-0.54687 -1.90625,-0.54687 -1.45312,0 -2.07812,0.48437 -0.625,0.48438 -0.625,1.125 0,0.40625 0.26562,0.73438 0.25,0.34375 0.8125,0.5625 0.3125,0.125 1.85938,0.54687 2.23437,0.59375 3.10937,0.98438 0.89063,0.375 1.39063,1.10937 0.51562,0.71875 0.51562,1.79688 0,1.04687 -0.625,1.98437 -0.60937,0.9375 -1.76562,1.45313 -1.15625,0.5 -2.625,0.5 -2.42188,0 -3.70313,-1 -1.26562,-1.01563 -1.625,-3 z" />
  <path
     style="fill:#000000;fill-opacity:0;fill-rule:evenodd"
     inkscape:connector-curvature="0"
     id="path4590"
     d="m 592.20472,335.58531 203.4646,0" />
  <path
     style="fill-rule:evenodd;stroke:#000000;stroke-width:1;stroke-linecap:butt;stroke-linejoin:round"
     inkscape:connector-curvature="0"
     id="path4592"
     d="m 592.20472,335.58531 203.4646,0" />
  <path
     style="fill:#ffffff;fill-rule:evenodd"
     inkscape:connector-curvature="0"
     id="path4594"
     d="m 150.21522,137.37271 0,0 c 0,-33.88506 45.5471,-61.35433 101.73228,-61.35433 l 0,0 c 56.18518,0 101.73231,27.46927 101.73231,61.35433 l 0,0 c 0,33.88506 -45.54713,61.35432 -101.73231,61.35432 l 0,0 c -56.18518,0 -101.73228,-27.46927 -101.73228,-61.35432 z" />
  <path
     style="fill-rule:evenodd;stroke:#000000;stroke-width:1;stroke-linecap:butt;stroke-linejoin:round"
     inkscape:connector-curvature="0"
     id="path4596"
     d="m 150.21522,137.37271 0,0 c 0,-33.88506 45.5471,-61.35433 101.73228,-61.35433 l 0,0 c 56.18518,0 101.73231,27.46927 101.73231,61.35433 l 0,0 c 0,33.88506 -45.54713,61.35432 -101.73231,61.35432 l 0,0 c -56.18518,0 -101.73228,-27.46927 -101.73228,-61.35432 z" />
  <path
     style="fill:#000000;fill-rule:nonzero"
     inkscape:connector-curvature="0"
     id="path4598"
     d="m 206.68774,116.9127 -6.65625,-17.1875 2.45312,0 4.46875,12.48437 q 0.54688,1.5 0.90625,2.8125 0.39063,-1.40625 0.92188,-2.8125 l 4.64062,-12.48437 2.32813,0 -6.73438,17.1875 -2.32812,0 z m 10.03906,-6.21875 q 0,-3.46875 1.92188,-5.125 1.60937,-1.39063 3.92187,-1.39063 2.5625,0 4.1875,1.6875 1.625,1.6875 1.625,4.64063 0,2.40625 -0.71875,3.78125 -0.71875,1.375 -2.09375,2.14062 -1.375,0.76563 -3,0.76563 -2.625,0 -4.23437,-1.67188 -1.60938,-1.6875 -1.60938,-4.82812 z m 2.17188,0 q 0,2.39062 1.03125,3.57812 1.04687,1.1875 2.64062,1.1875 1.5625,0 2.60938,-1.1875 1.04687,-1.20312 1.04687,-3.65625 0,-2.3125 -1.0625,-3.5 -1.04687,-1.1875 -2.59375,-1.1875 -1.59375,0 -2.64062,1.1875 -1.03125,1.1875 -1.03125,3.57813 z m 11.91015,6.21875 0,-17.1875 2.10938,0 0,17.1875 -2.10938,0 z m 13.53516,0 0,-1.82813 q -1.45313,2.10938 -3.9375,2.10938 -1.10938,0 -2.0625,-0.42188 -0.95313,-0.42187 -1.42188,-1.0625 -0.45312,-0.64062 -0.64062,-1.5625 -0.14063,-0.625 -0.14063,-1.96875 l 0,-7.71875 2.10938,0 0,6.90625 q 0,1.65625 0.14062,2.23438 0.1875,0.82812 0.82813,1.3125 0.65625,0.46875 1.60937,0.46875 0.9375,0 1.76563,-0.48438 0.84375,-0.5 1.1875,-1.32812 0.34375,-0.84375 0.34375,-2.4375 l 0,-6.67188 2.10937,0 0,12.45313 -1.89062,0 z m 5.19141,0 0,-12.45313 1.89062,0 0,1.75 q 0.59375,-0.90625 1.5625,-1.46875 0.96875,-0.5625 2.21875,-0.5625 1.375,0 2.25,0.57813 0.89063,0.57812 1.26563,1.60937 1.46875,-2.1875 3.84375,-2.1875 1.84375,0 2.84375,1.03125 1,1.03125 1,3.15625 l 0,8.54688 -2.10938,0 0,-7.84375 q 0,-1.26563 -0.20312,-1.8125 -0.20313,-0.5625 -0.75,-0.90625 -0.53125,-0.34375 -1.25,-0.34375 -1.3125,0 -2.1875,0.875 -0.85938,0.875 -0.85938,2.79687 l 0,7.23438 -2.10937,0 0,-8.09375 q 0,-1.40625 -0.51563,-2.10938 -0.51562,-0.70312 -1.6875,-0.70312 -0.89062,0 -1.65625,0.46875 -0.75,0.46875 -1.09375,1.375 -0.34375,0.90625 -0.34375,2.60937 l 0,6.45313 -2.10937,0 z m 28.52343,-4.01563 2.17188,0.28125 q -0.51563,1.90625 -1.90625,2.96875 -1.39063,1.04688 -3.5625,1.04688 -2.73438,0 -4.34375,-1.67188 -1.59375,-1.6875 -1.59375,-4.73437 0,-3.14063 1.60937,-4.875 1.625,-1.73438 4.20313,-1.73438 2.5,0 4.07812,1.70313 1.59375,1.70312 1.59375,4.78125 0,0.1875 -0.0156,0.5625 l -9.28125,0 q 0.10937,2.04687 1.15625,3.14062 1.04687,1.09375 2.60937,1.09375 1.15625,0 1.96875,-0.60937 0.82813,-0.60938 1.3125,-1.95313 z m -6.9375,-3.40625 6.95313,0 q -0.14063,-1.5625 -0.79688,-2.35937 -1,-1.21875 -2.60937,-1.21875 -1.45313,0 -2.45313,0.98437 -0.98437,0.96875 -1.09375,2.59375 z m 16.8125,7.42188 6.59375,-17.1875 2.45313,0 7.03125,17.1875 -2.59375,0 -2,-5.20313 -7.1875,0 -1.89063,5.20313 -2.40625,0 z m 4.95313,-7.0625 5.82812,0 -1.79687,-4.75 q -0.8125,-2.17188 -1.21875,-3.5625 -0.32813,1.65625 -0.92188,3.28125 l -1.89062,5.03125 z" />
  <path
     style="fill:#000000;fill-rule:nonzero"
     inkscape:connector-curvature="0"
     id="path4600"
     d="m 219.01782,174.91271 3.59375,-17.1875 12.40625,0 -0.40625,1.96875 -10.10938,0 -1.125,5.34375 9.84375,0 -0.40625,1.95312 -9.84375,0 -1.25,5.96875 10.82813,0 -0.42188,1.95313 -13.10937,0 z m 15.71094,0 2.60937,-12.45313 2.125,0 -0.4375,2.0625 q 1.1875,-1.32812 2.10938,-1.82812 0.9375,-0.51563 2.03125,-0.51563 1.15625,0 1.9375,0.625 0.78125,0.60938 1.01562,1.71875 0.95313,-1.17187 2,-1.75 1.04688,-0.59375 2.21875,-0.59375 1.54688,0 2.32813,0.75 0.78125,0.73438 0.78125,2.0625 0,0.57813 -0.26563,1.90625 l -1.67187,8.01563 -2.125,0 1.70312,-8.23438 q 0.23438,-1 0.23438,-1.4375 0,-0.60937 -0.39063,-0.95312 -0.39062,-0.35938 -1.09375,-0.35938 -0.95312,0 -1.9375,0.57813 -0.98437,0.57812 -1.53125,1.51562 -0.53125,0.92188 -0.95312,2.85938 l -1.26563,6.03125 -2.10937,0 1.75,-8.40625 q 0.1875,-0.85938 0.1875,-1.21875 0,-0.60938 -0.39063,-0.98438 -0.375,-0.375 -0.98437,-0.375 -0.89063,0 -1.89063,0.57813 -0.98437,0.57812 -1.60937,1.60937 -0.625,1.01563 -1.01563,2.90625 l -1.23437,5.89063 -2.125,0 z m 18.96094,4.76562 3.60937,-17.21875 1.95313,0 -0.35938,1.73438 q 1.07813,-1.125 1.9375,-1.5625 0.875,-0.45313 1.82813,-0.45313 1.78125,0 2.95312,1.29688 1.17188,1.29687 1.17188,3.71875 0,1.9375 -0.64063,3.54687 -0.64062,1.59375 -1.57812,2.5625 -0.9375,0.96875 -1.90625,1.4375 -0.95313,0.45313 -1.96875,0.45313 -2.23438,0 -3.46875,-2.28125 l -1.40625,6.76562 -2.125,0 z m 4.20312,-9.85937 q 0,1.40625 0.20313,1.9375 0.28125,0.76562 0.95312,1.23437 0.67188,0.46875 1.54688,0.46875 1.82812,0 2.95312,-2.04687 1.125,-2.0625 1.125,-4.21875 0,-1.57813 -0.76562,-2.4375 -0.75,-0.85938 -1.875,-0.85938 -0.79688,0 -1.5,0.4375 -0.6875,0.42188 -1.28125,1.26563 -0.59375,0.84375 -0.98438,2.07812 -0.375,1.23438 -0.375,2.14063 z m 15.14453,3.375 -0.34375,1.73437 q -0.76562,0.20313 -1.48437,0.20313 -1.26563,0 -2.01563,-0.625 -0.5625,-0.46875 -0.5625,-1.28125 0,-0.40625 0.3125,-1.89063 l 1.51563,-7.23437 -1.6875,0 0.34375,-1.64063 1.67187,0 0.65625,-3.04687 2.42188,-1.46875 -0.95313,4.51562 2.09375,0 -0.35937,1.64063 -2.07813,0 -1.4375,6.89062 q -0.26562,1.3125 -0.26562,1.5625 0,0.375 0.21875,0.57813 0.21875,0.20312 0.70312,0.20312 0.70313,0 1.25,-0.14062 z m 0.91797,6.53125 0.125,-2 q 0.65625,0.1875 1.28125,0.1875 0.64063,0 1.04688,-0.29688 0.51562,-0.375 1.125,-1.45312 l 0.67187,-1.21875 -2.0625,-12.48438 2.07813,0 0.9375,6.29688 q 0.28125,1.85937 0.48437,3.73437 l 5.5625,-10.03125 2.21875,0 -7.9375,14.10938 q -1.14062,2.0625 -2.03125,2.71875 -0.89062,0.67187 -2.0625,0.67187 -0.73437,0 -1.4375,-0.23437 z" />
  <path
     style="fill:#ffffff;fill-rule:evenodd"
     inkscape:connector-curvature="0"
     id="path4602"
     d="m 457.13912,137.37271 0,0 c 0,-33.88506 45.54712,-61.35433 101.7323,-61.35433 l 0,0 c 56.18518,0 101.7323,27.46927 101.7323,61.35433 l 0,0 c 0,33.88506 -45.54712,61.35432 -101.7323,61.35432 l 0,0 c -56.18518,0 -101.7323,-27.46927 -101.7323,-61.35432 z" />
  <path
     style="fill-rule:evenodd;stroke:#000000;stroke-width:1;stroke-linecap:butt;stroke-linejoin:round"
     inkscape:connector-curvature="0"
     id="path4604"
     d="m 457.13912,137.37271 0,0 c 0,-33.88506 45.54712,-61.35433 101.7323,-61.35433 l 0,0 c 56.18518,0 101.7323,27.46927 101.7323,61.35433 l 0,0 c 0,33.88506 -45.54712,61.35432 -101.7323,61.35432 l 0,0 c -56.18518,0 -101.7323,-27.46927 -101.7323,-61.35432 z" />
  <path
     style="fill:#000000;fill-rule:nonzero"
     inkscape:connector-curvature="0"
     id="path4606"
     d="m 513.61162,116.9127 -6.65625,-17.1875 2.45313,0 4.46875,12.48437 q 0.54687,1.5 0.90625,2.8125 0.39062,-1.40625 0.92187,-2.8125 l 4.64063,-12.48437 2.32812,0 -6.73437,17.1875 -2.32813,0 z m 10.03906,-6.21875 q 0,-3.46875 1.92188,-5.125 1.60937,-1.39063 3.92187,-1.39063 2.5625,0 4.1875,1.6875 1.625,1.6875 1.625,4.64063 0,2.40625 -0.71875,3.78125 -0.71875,1.375 -2.09375,2.14062 -1.375,0.76563 -3,0.76563 -2.625,0 -4.23437,-1.67188 -1.60938,-1.6875 -1.60938,-4.82812 z m 2.17188,0 q 0,2.39062 1.03125,3.57812 1.04687,1.1875 2.64062,1.1875 1.5625,0 2.60938,-1.1875 1.04687,-1.20312 1.04687,-3.65625 0,-2.3125 -1.0625,-3.5 -1.04687,-1.1875 -2.59375,-1.1875 -1.59375,0 -2.64062,1.1875 -1.03125,1.1875 -1.03125,3.57813 z m 11.91015,6.21875 0,-17.1875 2.10938,0 0,17.1875 -2.10938,0 z m 13.53516,0 0,-1.82813 q -1.45313,2.10938 -3.9375,2.10938 -1.10938,0 -2.0625,-0.42188 -0.95313,-0.42187 -1.42188,-1.0625 -0.45312,-0.64062 -0.64062,-1.5625 -0.14063,-0.625 -0.14063,-1.96875 l 0,-7.71875 2.10938,0 0,6.90625 q 0,1.65625 0.14062,2.23438 0.1875,0.82812 0.82813,1.3125 0.65625,0.46875 1.60937,0.46875 0.9375,0 1.76563,-0.48438 0.84375,-0.5 1.1875,-1.32812 0.34375,-0.84375 0.34375,-2.4375 l 0,-6.67188 2.10937,0 0,12.45313 -1.89062,0 z m 5.19141,0 0,-12.45313 1.89062,0 0,1.75 q 0.59375,-0.90625 1.5625,-1.46875 0.96875,-0.5625 2.21875,-0.5625 1.375,0 2.25,0.57813 0.89063,0.57812 1.26563,1.60937 1.46875,-2.1875 3.84375,-2.1875 1.84375,0 2.84375,1.03125 1,1.03125 1,3.15625 l 0,8.54688 -2.10938,0 0,-7.84375 q 0,-1.26563 -0.20312,-1.8125 -0.20313,-0.5625 -0.75,-0.90625 -0.53125,-0.34375 -1.25,-0.34375 -1.3125,0 -2.1875,0.875 -0.85938,0.875 -0.85938,2.79687 l 0,7.23438 -2.10937,0 0,-8.09375 q 0,-1.40625 -0.51563,-2.10938 -0.51562,-0.70312 -1.6875,-0.70312 -0.89062,0 -1.65625,0.46875 -0.75,0.46875 -1.09375,1.375 -0.34375,0.90625 -0.34375,2.60937 l 0,6.45313 -2.10937,0 z m 28.52343,-4.01563 2.17188,0.28125 q -0.51563,1.90625 -1.90625,2.96875 -1.39063,1.04688 -3.5625,1.04688 -2.73438,0 -4.34375,-1.67188 -1.59375,-1.6875 -1.59375,-4.73437 0,-3.14063 1.60937,-4.875 1.625,-1.73438 4.20313,-1.73438 2.5,0 4.07812,1.70313 1.59375,1.70312 1.59375,4.78125 0,0.1875 -0.0156,0.5625 l -9.28125,0 q 0.10937,2.04687 1.15625,3.14062 1.04687,1.09375 2.60937,1.09375 1.15625,0 1.96875,-0.60937 0.82813,-0.60938 1.3125,-1.95313 z m -6.9375,-3.40625 6.95313,0 q -0.14063,-1.5625 -0.79688,-2.35937 -1,-1.21875 -2.60937,-1.21875 -1.45313,0 -2.45313,0.98437 -0.98437,0.96875 -1.09375,2.59375 z m 18.60938,7.42188 0,-17.1875 6.4375,0 q 1.96875,0 3.15625,0.53125 1.1875,0.51562 1.85937,1.60937 0.6875,1.07813 0.6875,2.26563 0,1.09375 -0.60937,2.07812 -0.59375,0.96875 -1.79688,1.5625 1.5625,0.45313 2.39063,1.5625 0.84375,1.09375 0.84375,2.59375 0,1.20313 -0.51563,2.25 -0.5,1.03125 -1.25,1.59375 -0.75,0.5625 -1.89062,0.85938 -1.125,0.28125 -2.76563,0.28125 l -6.54687,0 z m 2.26562,-9.96875 3.71875,0 q 1.51563,0 2.17188,-0.1875 0.85937,-0.26563 1.29687,-0.85938 0.4375,-0.59375 0.4375,-1.5 0,-0.85937 -0.40625,-1.5 -0.40625,-0.65625 -1.17187,-0.89062 -0.76563,-0.25 -2.60938,-0.25 l -3.4375,0 0,5.1875 z m 0,7.9375 4.28125,0 q 1.09375,0 1.54688,-0.0781 0.78125,-0.14062 1.3125,-0.46875 0.53125,-0.32812 0.85937,-0.95312 0.34375,-0.625 0.34375,-1.45313 0,-0.95312 -0.5,-1.65625 -0.48437,-0.71875 -1.35937,-1 -0.875,-0.29687 -2.51563,-0.29687 l -3.96875,0 0,5.90625 z" />
  <path
     style="fill:#000000;fill-rule:nonzero"
     inkscape:connector-curvature="0"
     id="path4608"
     d="m 525.94172,174.91271 3.59375,-17.1875 12.40625,0 -0.40625,1.96875 -10.10938,0 -1.125,5.34375 9.84375,0 -0.40625,1.95312 -9.84375,0 -1.25,5.96875 10.82813,0 -0.42188,1.95313 -13.10937,0 z m 15.71094,0 2.60937,-12.45313 2.125,0 -0.4375,2.0625 q 1.1875,-1.32812 2.10938,-1.82812 0.9375,-0.51563 2.03125,-0.51563 1.15625,0 1.9375,0.625 0.78125,0.60938 1.01562,1.71875 0.95313,-1.17187 2,-1.75 1.04688,-0.59375 2.21875,-0.59375 1.54688,0 2.32813,0.75 0.78125,0.73438 0.78125,2.0625 0,0.57813 -0.26563,1.90625 l -1.67187,8.01563 -2.125,0 1.70312,-8.23438 q 0.23438,-1 0.23438,-1.4375 0,-0.60937 -0.39063,-0.95312 -0.39062,-0.35938 -1.09375,-0.35938 -0.95312,0 -1.9375,0.57813 -0.98437,0.57812 -1.53125,1.51562 -0.53125,0.92188 -0.95312,2.85938 l -1.26563,6.03125 -2.10937,0 1.75,-8.40625 q 0.1875,-0.85938 0.1875,-1.21875 0,-0.60938 -0.39063,-0.98438 -0.375,-0.375 -0.98437,-0.375 -0.89063,0 -1.89063,0.57813 -0.98437,0.57812 -1.60937,1.60937 -0.625,1.01563 -1.01563,2.90625 l -1.23437,5.89063 -2.125,0 z m 18.96094,4.76562 3.60937,-17.21875 1.95313,0 -0.35938,1.73438 q 1.07813,-1.125 1.9375,-1.5625 0.875,-0.45313 1.82813,-0.45313 1.78125,0 2.95312,1.29688 1.17188,1.29687 1.17188,3.71875 0,1.9375 -0.64063,3.54687 -0.64062,1.59375 -1.57812,2.5625 -0.9375,0.96875 -1.90625,1.4375 -0.95313,0.45313 -1.96875,0.45313 -2.23438,0 -3.46875,-2.28125 l -1.40625,6.76562 -2.125,0 z m 4.20312,-9.85937 q 0,1.40625 0.20313,1.9375 0.28125,0.76562 0.95312,1.23437 0.67188,0.46875 1.54688,0.46875 1.82812,0 2.95312,-2.04687 1.125,-2.0625 1.125,-4.21875 0,-1.57813 -0.76562,-2.4375 -0.75,-0.85938 -1.875,-0.85938 -0.79688,0 -1.5,0.4375 -0.6875,0.42188 -1.28125,1.26563 -0.59375,0.84375 -0.98438,2.07812 -0.375,1.23438 -0.375,2.14063 z m 15.14453,3.375 -0.34375,1.73437 q -0.76562,0.20313 -1.48437,0.20313 -1.26563,0 -2.01563,-0.625 -0.5625,-0.46875 -0.5625,-1.28125 0,-0.40625 0.3125,-1.89063 l 1.51563,-7.23437 -1.6875,0 0.34375,-1.64063 1.67187,0 0.65625,-3.04687 2.42188,-1.46875 -0.95313,4.51562 2.09375,0 -0.35937,1.64063 -2.07813,0 -1.4375,6.89062 q -0.26562,1.3125 -0.26562,1.5625 0,0.375 0.21875,0.57813 0.21875,0.20312 0.70312,0.20312 0.70313,0 1.25,-0.14062 z m 0.91797,6.53125 0.125,-2 q 0.65625,0.1875 1.28125,0.1875 0.64063,0 1.04688,-0.29688 0.51562,-0.375 1.125,-1.45312 l 0.67187,-1.21875 -2.0625,-12.48438 2.07813,0 0.9375,6.29688 q 0.28125,1.85937 0.48437,3.73437 l 5.5625,-10.03125 2.21875,0 -7.9375,14.10938 q -1.14062,2.0625 -2.03125,2.71875 -0.89062,0.67187 -2.0625,0.67187 -0.73437,0 -1.4375,-0.23437 z" />
  <path
     style="fill:#000000;fill-opacity:0;fill-rule:evenodd"
     inkscape:connector-curvature="0"
     id="path4610"
     d="M 486.93579,180.75677 474.8728,293.95362" />
  <path
     style="fill-rule:evenodd;stroke:#000000;stroke-width:1;stroke-linecap:butt;stroke-linejoin:round"
     inkscape:connector-curvature="0"
     id="path4612"
     d="M 486.57269,184.16456 475.23596,290.54582" />
  <path
     style="fill:#000000;fill-rule:evenodd;stroke:#000000;stroke-width:1;stroke-linecap:butt"
     inkscape:connector-curvature="0"
     id="path4614"
     d="m 486.57269,184.16456 0.99908,1.23743 -0.79089,-3.19155 -1.44562,2.9532 z" />
  <path
     style="fill:#000000;fill-rule:evenodd;stroke:#000000;stroke-width:1;stroke-linecap:butt"
     inkscape:connector-curvature="0"
     id="path4616"
     d="m 475.23596,290.54581 -0.99908,-1.2374 0.79089,3.19153 1.44562,-2.95321 z" />
  <path
     style="fill:#000000;fill-opacity:0;fill-rule:evenodd"
     inkscape:connector-curvature="0"
     id="path4618"
     d="m 630.80702,180.75677 63.1181,93.4803" />
  <path
     style="fill-rule:evenodd;stroke:#000000;stroke-width:1;stroke-linecap:butt;stroke-linejoin:round"
     inkscape:connector-curvature="0"
     id="path4620"
     d="m 632.72472,183.59702 59.28265,87.7998" />
  <path
     style="fill:#000000;fill-rule:evenodd;stroke:#000000;stroke-width:1;stroke-linecap:butt"
     inkscape:connector-curvature="0"
     id="path4622"
     d="m 632.72479,183.59704 1.56128,0.30272 -2.66101,-1.93141 0.797,3.19002 z" />
  <path
     style="fill:#000000;fill-rule:evenodd;stroke:#000000;stroke-width:1;stroke-linecap:butt"
     inkscape:connector-curvature="0"
     id="path4624"
     d="m 692.00738,271.39681 -1.56134,-0.3027 2.66101,1.93139 -0.797,-3.19 z" />
  <path
     style="fill:#000000;fill-opacity:0;fill-rule:evenodd"
     inkscape:connector-curvature="0"
     id="path4626"
     d="m 150.21522,137.37271 203.46458,0" />
  <path
     style="fill-rule:evenodd;stroke:#000000;stroke-width:1;stroke-linecap:butt;stroke-linejoin:round"
     inkscape:connector-curvature="0"
     id="path4628"
     d="m 150.21522,137.37271 203.46458,0" />
  <path
     style="fill:#000000;fill-opacity:0;fill-rule:evenodd"
     inkscape:connector-curvature="0"
     id="path4630"
     d="m 457.13912,137.37271 203.4646,0" />
  <path
     style="fill-rule:evenodd;stroke:#000000;stroke-width:1;stroke-linecap:butt;stroke-linejoin:round"
     inkscape:connector-curvature="0"
     id="path4632"
     d="m 457.13912,137.37271 203.4646,0" />
  <path
     style="fill:#000000;fill-opacity:0;fill-rule:evenodd"
     inkscape:connector-curvature="0"
     id="path4634"
     d="m 85.952756,82.51706 109.826784,0 0,22.26772 -109.826784,0 z" />
  <path
     style="fill:#000000;fill-rule:nonzero"
     inkscape:connector-curvature="0"
     id="path4636"
     d="m 96.140256,106.87707 0,-11.45313 2.28125,0 2.718754,8.10938 q 0.375,1.125 0.54687,1.6875 0.1875,-0.625 0.60938,-1.82813 l 2.73437,-7.96875 2.04688,0 0,11.45313 -1.46875,0 0,-9.59375 -3.32813,9.59375 -1.35937,0 -3.312504,-9.75 0,9.75 -1.46875,0 z m 18.875004,-2.67188 1.45312,0.17188 q -0.34375,1.28125 -1.28125,1.98437 -0.92187,0.70313 -2.35937,0.70313 -1.82813,0 -2.89063,-1.125 -1.0625,-1.125 -1.0625,-3.14063 0,-2.09375 1.07813,-3.25 1.07812,-1.15625 2.79687,-1.15625 1.65625,0 2.70313,1.14063 1.0625,1.125 1.0625,3.17187 0,0.125 0,0.375 l -6.1875,0 q 0.0781,1.375 0.76562,2.10938 0.70313,0.71875 1.73438,0.71875 0.78125,0 1.32812,-0.40625 0.54688,-0.40625 0.85938,-1.29688 z m -4.60938,-2.28125 4.625,0 q -0.0937,-1.04687 -0.53125,-1.5625 -0.67187,-0.8125 -1.73437,-0.8125 -0.96875,0 -1.64063,0.65625 -0.65625,0.64063 -0.71875,1.71875 z m 7.27344,2.46875 1.39063,-0.21875 q 0.10937,0.84375 0.64062,1.29688 0.54688,0.4375 1.5,0.4375 0.96875,0 1.4375,-0.39063 0.46875,-0.40625 0.46875,-0.9375 0,-0.46875 -0.40625,-0.75 -0.29687,-0.1875 -1.4375,-0.46875 -1.54687,-0.39062 -2.15625,-0.67187 -0.59375,-0.29688 -0.90625,-0.79688 -0.29687,-0.5 -0.29687,-1.10937 0,-0.5625 0.25,-1.03125 0.25,-0.46875 0.6875,-0.78125 0.32812,-0.25 0.89062,-0.40625 0.57813,-0.17188 1.21875,-0.17188 0.98438,0 1.71875,0.28125 0.73438,0.28125 1.07813,0.76563 0.35937,0.46875 0.5,1.28125 l -1.375,0.1875 q -0.0937,-0.64063 -0.54688,-1 -0.45312,-0.35938 -1.26562,-0.35938 -0.96875,0 -1.39063,0.32813 -0.40625,0.3125 -0.40625,0.73437 0,0.28125 0.17188,0.5 0.17187,0.21875 0.53125,0.375 0.21875,0.0781 1.25,0.35938 1.48437,0.39062 2.07812,0.65625 0.59375,0.25 0.92188,0.73437 0.34375,0.48438 0.34375,1.20313 0,0.70312 -0.42188,1.32812 -0.40625,0.60938 -1.1875,0.95313 -0.76562,0.34375 -1.73437,0.34375 -1.625,0 -2.46875,-0.67188 -0.84375,-0.67187 -1.07813,-2 z m 8.5625,2.48438 0,-11.45313 1.40625,0 0,4.10938 q 0.98438,-1.14063 2.48438,-1.14063 0.92187,0 1.59375,0.35938 0.6875,0.35937 0.96875,1 0.29687,0.64062 0.29687,1.85937 l 0,5.26563 -1.40625,0 0,-5.26563 q 0,-1.04687 -0.45312,-1.53125 -0.45313,-0.48437 -1.29688,-0.48437 -0.625,0 -1.17187,0.32812 -0.54688,0.32813 -0.78125,0.89063 -0.23438,0.54687 -0.23438,1.51562 l 0,4.54688 -1.40625,0 z m 8.33594,-2.48438 1.39062,-0.21875 q 0.10938,0.84375 0.64063,1.29688 0.54687,0.4375 1.5,0.4375 0.96875,0 1.4375,-0.39063 0.46875,-0.40625 0.46875,-0.9375 0,-0.46875 -0.40625,-0.75 -0.29688,-0.1875 -1.4375,-0.46875 -1.54688,-0.39062 -2.15625,-0.67187 -0.59375,-0.29688 -0.90625,-0.79688 -0.29688,-0.5 -0.29688,-1.10937 0,-0.5625 0.25,-1.03125 0.25,-0.46875 0.6875,-0.78125 0.32813,-0.25 0.89063,-0.40625 0.57812,-0.17188 1.21875,-0.17188 0.98437,0 1.71875,0.28125 0.73437,0.28125 1.07812,0.76563 0.35938,0.46875 0.5,1.28125 l -1.375,0.1875 q -0.0937,-0.64063 -0.54687,-1 -0.45313,-0.35938 -1.26563,-0.35938 -0.96875,0 -1.39062,0.32813 -0.40625,0.3125 -0.40625,0.73437 0,0.28125 0.17187,0.5 0.17188,0.21875 0.53125,0.375 0.21875,0.0781 1.25,0.35938 1.48438,0.39062 2.07813,0.65625 0.59375,0.25 0.92187,0.73437 0.34375,0.48438 0.34375,1.20313 0,0.70312 -0.42187,1.32812 -0.40625,0.60938 -1.1875,0.95313 -0.76563,0.34375 -1.73438,0.34375 -1.625,0 -2.46875,-0.67188 -0.84375,-0.67187 -1.07812,-2 z m 14.23437,-0.1875 1.45313,0.17188 q -0.34375,1.28125 -1.28125,1.98437 -0.92188,0.70313 -2.35938,0.70313 -1.82812,0 -2.89062,-1.125 -1.0625,-1.125 -1.0625,-3.14063 0,-2.09375 1.07812,-3.25 1.07813,-1.15625 2.79688,-1.15625 1.65625,0 2.70312,1.14063 1.0625,1.125 1.0625,3.17187 0,0.125 0,0.375 l -6.1875,0 q 0.0781,1.375 0.76563,2.10938 0.70312,0.71875 1.73437,0.71875 0.78125,0 1.32813,-0.40625 0.54687,-0.40625 0.85937,-1.29688 z m -4.60937,-2.28125 4.625,0 q -0.0937,-1.04687 -0.53125,-1.5625 -0.67188,-0.8125 -1.73438,-0.8125 -0.96875,0 -1.64062,0.65625 -0.65625,0.64063 -0.71875,1.71875 z m 10.89844,3.6875 0.20312,1.25 q -0.59375,0.125 -1.0625,0.125 -0.76562,0 -1.1875,-0.23437 -0.42187,-0.25 -0.59375,-0.64063 -0.17187,-0.40625 -0.17187,-1.67187 l 0,-4.76563 -1.03125,0 0,-1.09375 1.03125,0 0,-2.0625 1.40625,-0.84375 0,2.90625 1.40625,0 0,1.09375 -1.40625,0 0,4.84375 q 0,0.60938 0.0625,0.78125 0.0781,0.17188 0.25,0.28125 0.17187,0.0937 0.48437,0.0937 0.23438,0 0.60938,-0.0625 z" />
  <path
     style="fill:#000000;fill-opacity:0;fill-rule:evenodd"
     inkscape:connector-curvature="0"
     id="path4638"
     d="m 87.716526,154.61418 106.299214,0 0,22.26771 -106.299214,0 z" />
  <path
     style="fill:#000000;fill-rule:nonzero"
     inkscape:connector-curvature="0"
     id="path4640"
     d="m 106.12278,174.95855 1.51562,0.375 q -0.46875,1.875 -1.71875,2.85937 -1.23437,0.98438 -3.01562,0.98438 -1.85938,0 -3.015634,-0.75 -1.15625,-0.76563 -1.76562,-2.1875 -0.60938,-1.4375 -0.60938,-3.07813 0,-1.79687 0.6875,-3.125 0.6875,-1.32812 1.937504,-2.01562 1.26563,-0.70313 2.78125,-0.70313 1.71875,0 2.89063,0.875 1.17187,0.875 1.64062,2.46875 l -1.5,0.34375 q -0.39062,-1.25 -1.15625,-1.8125 -0.75,-0.57812 -1.90625,-0.57812 -1.3125,0 -2.20312,0.64062 -0.890634,0.625 -1.250004,1.70313 -0.35938,1.0625 -0.35938,2.1875 0,1.46875 0.42188,2.5625 0.4375,1.07812 1.328124,1.625 0.90625,0.53125 1.95313,0.53125 1.26562,0 2.14062,-0.73438 0.89063,-0.73437 1.20313,-2.17187 z m 2.67969,-0.14063 q 0,-2.29687 1.28125,-3.40625 1.07812,-0.92187 2.60937,-0.92187 1.71875,0 2.79688,1.125 1.09375,1.10937 1.09375,3.09375 0,1.59375 -0.48438,2.51562 -0.48437,0.92188 -1.40625,1.4375 -0.90625,0.5 -2,0.5 -1.73437,0 -2.8125,-1.10937 -1.07812,-1.125 -1.07812,-3.23438 z m 1.45312,0 q 0,1.59375 0.6875,2.39063 0.70313,0.79687 1.75,0.79687 1.04688,0 1.73438,-0.79687 0.70312,-0.79688 0.70312,-2.4375 0,-1.53125 -0.70312,-2.32813 -0.6875,-0.79687 -1.73438,-0.79687 -1.04687,0 -1.75,0.79687 -0.6875,0.78125 -0.6875,2.375 z m 7.97656,4.15625 0,-8.29687 1.26563,0 0,1.17187 q 0.90625,-1.35937 2.64062,-1.35937 0.75,0 1.375,0.26562 0.625,0.26563 0.9375,0.70313 0.3125,0.4375 0.4375,1.04687 0.0781,0.39063 0.0781,1.35938 l 0,5.10937 -1.40625,0 0,-5.04687 q 0,-0.85938 -0.17188,-1.28125 -0.15625,-0.4375 -0.57812,-0.6875 -0.40625,-0.25 -0.96875,-0.25 -0.90625,0 -1.5625,0.57812 -0.64063,0.5625 -0.64063,2.15625 l 0,4.53125 -1.40625,0 z m 11.96094,-1.26562 0.20313,1.25 q -0.59375,0.125 -1.0625,0.125 -0.76563,0 -1.1875,-0.23438 -0.42188,-0.25 -0.59375,-0.64062 -0.17188,-0.40625 -0.17188,-1.67188 l 0,-4.76562 -1.03125,0 0,-1.09375 1.03125,0 0,-2.0625 1.40625,-0.84375 0,2.90625 1.40625,0 0,1.09375 -1.40625,0 0,4.84375 q 0,0.60937 0.0625,0.78125 0.0781,0.17187 0.25,0.28125 0.17188,0.0937 0.48438,0.0937 0.23437,0 0.60937,-0.0625 z m 7.05469,-1.40625 1.45312,0.17187 q -0.34375,1.28125 -1.28125,1.98438 -0.92187,0.70312 -2.35937,0.70312 -1.82813,0 -2.89063,-1.125 -1.0625,-1.125 -1.0625,-3.14062 0,-2.09375 1.07813,-3.25 1.07812,-1.15625 2.79687,-1.15625 1.65625,0 2.70313,1.14062 1.0625,1.125 1.0625,3.17188 0,0.125 0,0.375 l -6.1875,0 q 0.0781,1.375 0.76562,2.10937 0.70313,0.71875 1.73438,0.71875 0.78125,0 1.32812,-0.40625 0.54688,-0.40625 0.85938,-1.29687 z m -4.60938,-2.28125 4.625,0 q -0.0937,-1.04688 -0.53125,-1.5625 -0.67187,-0.8125 -1.73437,-0.8125 -0.96875,0 -1.64063,0.65625 -0.65625,0.64062 -0.71875,1.71875 z m 7.83594,4.95312 0,-8.29687 1.26563,0 0,1.17187 q 0.90625,-1.35937 2.64062,-1.35937 0.75,0 1.375,0.26562 0.625,0.26563 0.9375,0.70313 0.3125,0.4375 0.4375,1.04687 0.0781,0.39063 0.0781,1.35938 l 0,5.10937 -1.40625,0 0,-5.04687 q 0,-0.85938 -0.17188,-1.28125 -0.15625,-0.4375 -0.57812,-0.6875 -0.40625,-0.25 -0.96875,-0.25 -0.90625,0 -1.5625,0.57812 -0.64063,0.5625 -0.64063,2.15625 l 0,4.53125 -1.40625,0 z m 11.96094,-1.26562 0.20312,1.25 q -0.59375,0.125 -1.0625,0.125 -0.76562,0 -1.1875,-0.23438 -0.42187,-0.25 -0.59375,-0.64062 -0.17187,-0.40625 -0.17187,-1.67188 l 0,-4.76562 -1.03125,0 0,-1.09375 1.03125,0 0,-2.0625 1.40625,-0.84375 0,2.90625 1.40625,0 0,1.09375 -1.40625,0 0,4.84375 q 0,0.60937 0.0625,0.78125 0.0781,0.17187 0.25,0.28125 0.17187,0.0937 0.48437,0.0937 0.23438,0 0.60938,-0.0625 z m 0.82031,-1.21875 1.39063,-0.21875 q 0.10937,0.84375 0.64062,1.29687 0.54688,0.4375 1.5,0.4375 0.96875,0 1.4375,-0.39062 0.46875,-0.40625 0.46875,-0.9375 0,-0.46875 -0.40625,-0.75 -0.29687,-0.1875 -1.4375,-0.46875 -1.54687,-0.39063 -2.15625,-0.67188 -0.59375,-0.29687 -0.90625,-0.79687 -0.29687,-0.5 -0.29687,-1.10938 0,-0.5625 0.25,-1.03125 0.25,-0.46875 0.6875,-0.78125 0.32812,-0.25 0.89062,-0.40625 0.57813,-0.17187 1.21875,-0.17187 0.98438,0 1.71875,0.28125 0.73438,0.28125 1.07813,0.76562 0.35937,0.46875 0.5,1.28125 l -1.375,0.1875 q -0.0937,-0.64062 -0.54688,-1 -0.45312,-0.35937 -1.26562,-0.35937 -0.96875,0 -1.39063,0.32812 -0.40625,0.3125 -0.40625,0.73438 0,0.28125 0.17188,0.5 0.17187,0.21875 0.53125,0.375 0.21875,0.0781 1.25,0.35937 1.48437,0.39063 2.07812,0.65625 0.59375,0.25 0.92188,0.73438 0.34375,0.48437 0.34375,1.20312 0,0.70313 -0.42188,1.32813 -0.40625,0.60937 -1.1875,0.95312 -0.76562,0.34375 -1.73437,0.34375 -1.625,0 -2.46875,-0.67187 -0.84375,-0.67188 -1.07813,-2 z" />
  <path
     style="fill:#000000;fill-opacity:0;fill-rule:evenodd"
     inkscape:connector-curvature="0"
     id="path4642"
     d="m 660.60372,191.38845 126.77167,0 0,32.91338 -126.77167,0 z" />
  <path
     style="fill:#000000;fill-rule:nonzero"
     inkscape:connector-curvature="0"
     id="path4644"
     d="m 670.83807,215.74845 0,-11.45313 4.32813,0 q 1.14062,0 1.73437,0.10938 0.84375,0.14062 1.40625,0.53125 0.57813,0.39062 0.92188,1.10937 0.35937,0.70313 0.35937,1.5625 0,1.45313 -0.9375,2.46875 -0.92187,1.01563 -3.35937,1.01563 l -2.9375,0 0,4.65625 -1.51563,0 z m 1.51563,-6.01563 2.96875,0 q 1.46875,0 2.07812,-0.54687 0.625,-0.54688 0.625,-1.53125 0,-0.71875 -0.375,-1.23438 -0.35937,-0.51562 -0.95312,-0.67187 -0.375,-0.10938 -1.40625,-0.10938 l -2.9375,0 0,4.09375 z m 14.39062,4.98438 q -0.78125,0.67187 -1.5,0.95312 -0.71875,0.26563 -1.54687,0.26563 -1.375,0 -2.10938,-0.67188 -0.73437,-0.67187 -0.73437,-1.70312 0,-0.60938 0.28125,-1.10938 0.28125,-0.51562 0.71875,-0.8125 0.45312,-0.3125 1.01562,-0.46875 0.42188,-0.10937 1.25,-0.20312 1.70313,-0.20313 2.51563,-0.48438 0,-0.29687 0,-0.375 0,-0.85937 -0.39063,-1.20312 -0.54687,-0.48438 -1.60937,-0.48438 -0.98438,0 -1.46875,0.35938 -0.46875,0.34375 -0.6875,1.21875 l -1.375,-0.1875 q 0.1875,-0.875 0.60937,-1.42188 0.4375,-0.54687 1.25,-0.82812 0.8125,-0.29688 1.875,-0.29688 1.0625,0 1.71875,0.25 0.67188,0.25 0.98438,0.625 0.3125,0.375 0.4375,0.95313 0.0781,0.35937 0.0781,1.29687 l 0,1.875 q 0,1.96875 0.0781,2.48438 0.0937,0.51562 0.35937,1 l -1.46875,0 q -0.21875,-0.4375 -0.28125,-1.03125 z m -0.10937,-3.14063 q -0.76563,0.3125 -2.29688,0.53125 -0.875,0.125 -1.23437,0.28125 -0.35938,0.15625 -0.5625,0.46875 -0.1875,0.29688 -0.1875,0.65625 0,0.5625 0.42187,0.9375 0.4375,0.375 1.25,0.375 0.8125,0 1.4375,-0.34375 0.64063,-0.35937 0.9375,-0.98437 0.23438,-0.46875 0.23438,-1.40625 l 0,-0.51563 z m 3.58593,4.17188 0,-8.29688 1.26563,0 0,1.25 q 0.48437,-0.875 0.89062,-1.15625 0.40625,-0.28125 0.90625,-0.28125 0.70313,0 1.4375,0.45313 l -0.48437,1.29687 q -0.51563,-0.29687 -1.03125,-0.29687 -0.45313,0 -0.82813,0.28125 -0.35937,0.26562 -0.51562,0.76562 -0.23438,0.75 -0.23438,1.64063 l 0,4.34375 -1.40625,0 z m 11.01563,-2.67188 1.45312,0.17188 q -0.34375,1.28125 -1.28125,1.98437 -0.92187,0.70313 -2.35937,0.70313 -1.82813,0 -2.89063,-1.125 -1.0625,-1.125 -1.0625,-3.14063 0,-2.09375 1.07813,-3.25 1.07812,-1.15625 2.79687,-1.15625 1.65625,0 2.70313,1.14063 1.0625,1.125 1.0625,3.17187 0,0.125 0,0.375 l -6.1875,0 q 0.0781,1.375 0.76562,2.10938 0.70313,0.71875 1.73438,0.71875 0.78125,0 1.32812,-0.40625 0.54688,-0.40625 0.85938,-1.29688 z m -4.60938,-2.28125 4.625,0 q -0.0937,-1.04687 -0.53125,-1.5625 -0.67187,-0.8125 -1.73437,-0.8125 -0.96875,0 -1.64063,0.65625 -0.65625,0.64063 -0.71875,1.71875 z m 7.83594,4.95313 0,-8.29688 1.26563,0 0,1.17188 q 0.90625,-1.35938 2.64062,-1.35938 0.75,0 1.375,0.26563 0.625,0.26562 0.9375,0.70312 0.3125,0.4375 0.4375,1.04688 0.0781,0.39062 0.0781,1.35937 l 0,5.10938 -1.40625,0 0,-5.04688 q 0,-0.85937 -0.17188,-1.28125 -0.15625,-0.4375 -0.57812,-0.6875 -0.40625,-0.25 -0.96875,-0.25 -0.90625,0 -1.5625,0.57813 -0.64063,0.5625 -0.64063,2.15625 l 0,4.53125 -1.40625,0 z m 11.96094,-1.26563 0.20312,1.25 q -0.59375,0.125 -1.0625,0.125 -0.76562,0 -1.1875,-0.23437 -0.42187,-0.25 -0.59375,-0.64063 -0.17187,-0.40625 -0.17187,-1.67187 l 0,-4.76563 -1.03125,0 0,-1.09375 1.03125,0 0,-2.0625 1.40625,-0.84375 0,2.90625 1.40625,0 0,1.09375 -1.40625,0 0,4.84375 q 0,0.60938 0.0625,0.78125 0.0781,0.17188 0.25,0.28125 0.17187,0.0937 0.48437,0.0937 0.23438,0 0.60938,-0.0625 z m 0.32031,1.46875 3.32813,-11.85937 1.125,0 -3.3125,11.85937 -1.14063,0 z m 13.85156,-4.21875 1.51563,0.375 q -0.46875,1.875 -1.71875,2.85938 -1.23438,0.98437 -3.01563,0.98437 -1.85937,0 -3.01562,-0.75 -1.15625,-0.76562 -1.76563,-2.1875 -0.60937,-1.4375 -0.60937,-3.07812 0,-1.79688 0.6875,-3.125 0.6875,-1.32813 1.9375,-2.01563 1.26562,-0.70312 2.78125,-0.70312 1.71875,0 2.89062,0.875 1.17188,0.875 1.64063,2.46875 l -1.5,0.34375 q -0.39063,-1.25 -1.15625,-1.8125 -0.75,-0.57813 -1.90625,-0.57813 -1.3125,0 -2.20313,0.64063 -0.89062,0.625 -1.25,1.70312 -0.35937,1.0625 -0.35937,2.1875 0,1.46875 0.42187,2.5625 0.4375,1.07813 1.32813,1.625 0.90625,0.53125 1.95312,0.53125 1.26563,0 2.14063,-0.73437 0.89062,-0.73438 1.20312,-2.17188 z m 3.21094,4.01563 0,-11.45313 1.40625,0 0,4.10938 q 0.98438,-1.14063 2.48438,-1.14063 0.92187,0 1.59375,0.35938 0.6875,0.35937 0.96875,1 0.29687,0.64062 0.29687,1.85937 l 0,5.26563 -1.40625,0 0,-5.26563 q 0,-1.04687 -0.45312,-1.53125 -0.45313,-0.48437 -1.29688,-0.48437 -0.625,0 -1.17187,0.32812 -0.54688,0.32813 -0.78125,0.89063 -0.23438,0.54687 -0.23438,1.51562 l 0,4.54688 -1.40625,0 z m 8.89844,-9.84375 0,-1.60938 1.40625,0 0,1.60938 -1.40625,0 z m 0,9.84375 0,-8.29688 1.40625,0 0,8.29688 -1.40625,0 z m 3.52344,0 0,-11.45313 1.40625,0 0,11.45313 -1.40625,0 z m 8.96093,0 0,-1.04688 q -0.78125,1.23438 -2.3125,1.23438 -1,0 -1.82812,-0.54688 -0.82813,-0.54687 -1.29688,-1.53125 -0.45312,-0.98437 -0.45312,-2.25 0,-1.25 0.40625,-2.25 0.42187,-1.01562 1.25,-1.54687 0.82812,-0.54688 1.85937,-0.54688 0.75,0 1.32813,0.3125 0.59375,0.3125 0.95312,0.82813 l 0,-4.10938 1.40625,0 0,11.45313 -1.3125,0 z m -4.4375,-4.14063 q 0,1.59375 0.67188,2.39063 0.67187,0.78125 1.57812,0.78125 0.92188,0 1.5625,-0.75 0.65625,-0.76563 0.65625,-2.3125 0,-1.70313 -0.65625,-2.5 -0.65625,-0.79688 -1.625,-0.79688 -0.9375,0 -1.5625,0.76563 -0.625,0.76562 -0.625,2.42187 z" />
  <path
     style="fill:#000000;fill-rule:nonzero"
     inkscape:connector-curvature="0"
     id="path4646"
     d="m 670.86932,234.74845 0,-11.45313 5.07813,0 q 1.53125,0 2.32812,0.3125 0.79688,0.29688 1.26563,1.07813 0.48437,0.78125 0.48437,1.73437 0,1.21875 -0.79687,2.0625 -0.78125,0.82813 -2.4375,1.04688 0.60937,0.29687 0.92187,0.57812 0.65625,0.60938 1.25,1.51563 l 2,3.125 -1.90625,0 -1.51562,-2.39063 q -0.67188,-1.03125 -1.10938,-1.57812 -0.42187,-0.54688 -0.76562,-0.76563 -0.32813,-0.21875 -0.6875,-0.29687 -0.25,-0.0625 -0.84375,-0.0625 l -1.75,0 0,5.09375 -1.51563,0 z m 1.51563,-6.40625 3.25,0 q 1.04687,0 1.625,-0.20313 0.59375,-0.21875 0.89062,-0.6875 0.3125,-0.48437 0.3125,-1.03125 0,-0.8125 -0.59375,-1.32812 -0.59375,-0.53125 -1.85937,-0.53125 l -3.625,0 0,3.78125 z m 15.50781,3.73437 1.45312,0.17188 q -0.34375,1.28125 -1.28125,1.98437 -0.92187,0.70313 -2.35937,0.70313 -1.82813,0 -2.89063,-1.125 -1.0625,-1.125 -1.0625,-3.14063 0,-2.09375 1.07813,-3.25 1.07812,-1.15625 2.79687,-1.15625 1.65625,0 2.70313,1.14063 1.0625,1.125 1.0625,3.17187 0,0.125 0,0.375 l -6.1875,0 q 0.0781,1.375 0.76562,2.10938 0.70313,0.71875 1.73438,0.71875 0.78125,0 1.32812,-0.40625 0.54688,-0.40625 0.85938,-1.29688 z m -4.60938,-2.28125 4.625,0 q -0.0937,-1.04687 -0.53125,-1.5625 -0.67187,-0.8125 -1.73437,-0.8125 -0.96875,0 -1.64063,0.65625 -0.65625,0.64063 -0.71875,1.71875 z m 7.80469,4.95313 0,-11.45313 1.40625,0 0,11.45313 -1.40625,0 z m 8.99219,-1.03125 q -0.78125,0.67187 -1.5,0.95312 -0.71875,0.26563 -1.54688,0.26563 -1.375,0 -2.10937,-0.67188 -0.73438,-0.67187 -0.73438,-1.70312 0,-0.60938 0.28125,-1.10938 0.28125,-0.51562 0.71875,-0.8125 0.45313,-0.3125 1.01563,-0.46875 0.42187,-0.10937 1.25,-0.20312 1.70312,-0.20313 2.51562,-0.48438 0,-0.29687 0,-0.375 0,-0.85937 -0.39062,-1.20312 -0.54688,-0.48438 -1.60938,-0.48438 -0.98437,0 -1.46875,0.35938 -0.46875,0.34375 -0.6875,1.21875 l -1.375,-0.1875 q 0.1875,-0.875 0.60938,-1.42188 0.4375,-0.54687 1.25,-0.82812 0.8125,-0.29688 1.875,-0.29688 1.0625,0 1.71875,0.25 0.67187,0.25 0.98437,0.625 0.3125,0.375 0.4375,0.95313 0.0781,0.35937 0.0781,1.29687 l 0,1.875 q 0,1.96875 0.0781,2.48438 0.0937,0.51562 0.35938,1 l -1.46875,0 q -0.21875,-0.4375 -0.28125,-1.03125 z m -0.10938,-3.14063 q -0.76562,0.3125 -2.29687,0.53125 -0.875,0.125 -1.23438,0.28125 -0.35937,0.15625 -0.5625,0.46875 -0.1875,0.29688 -0.1875,0.65625 0,0.5625 0.42188,0.9375 0.4375,0.375 1.25,0.375 0.8125,0 1.4375,-0.34375 0.64062,-0.35937 0.9375,-0.98437 0.23437,-0.46875 0.23437,-1.40625 l 0,-0.51563 z m 6.66407,2.90625 0.20312,1.25 q -0.59375,0.125 -1.0625,0.125 -0.76562,0 -1.1875,-0.23437 -0.42187,-0.25 -0.59375,-0.64063 -0.17187,-0.40625 -0.17187,-1.67187 l 0,-4.76563 -1.03125,0 0,-1.09375 1.03125,0 0,-2.0625 1.40625,-0.84375 0,2.90625 1.40625,0 0,1.09375 -1.40625,0 0,4.84375 q 0,0.60938 0.0625,0.78125 0.0781,0.17188 0.25,0.28125 0.17187,0.0937 0.48437,0.0937 0.23438,0 0.60938,-0.0625 z m 1.38281,-8.57812 0,-1.60938 1.40625,0 0,1.60938 -1.40625,0 z m 0,9.84375 0,-8.29688 1.40625,0 0,8.29688 -1.40625,0 z m 3.02344,-4.15625 q 0,-2.29688 1.28125,-3.40625 1.07812,-0.92188 2.60937,-0.92188 1.71875,0 2.79688,1.125 1.09375,1.10938 1.09375,3.09375 0,1.59375 -0.48438,2.51563 -0.48437,0.92187 -1.40625,1.4375 -0.90625,0.5 -2,0.5 -1.73437,0 -2.8125,-1.10938 -1.07812,-1.125 -1.07812,-3.23437 z m 1.45312,0 q 0,1.59375 0.6875,2.39062 0.70313,0.79688 1.75,0.79688 1.04688,0 1.73438,-0.79688 0.70312,-0.79687 0.70312,-2.4375 0,-1.53125 -0.70312,-2.32812 -0.6875,-0.79688 -1.73438,-0.79688 -1.04687,0 -1.75,0.79688 -0.6875,0.78125 -0.6875,2.375 z m 7.97656,4.15625 0,-8.29688 1.26563,0 0,1.17188 q 0.90625,-1.35938 2.64062,-1.35938 0.75,0 1.375,0.26563 0.625,0.26562 0.9375,0.70312 0.3125,0.4375 0.4375,1.04688 0.0781,0.39062 0.0781,1.35937 l 0,5.10938 -1.40625,0 0,-5.04688 q 0,-0.85937 -0.17188,-1.28125 -0.15625,-0.4375 -0.57812,-0.6875 -0.40625,-0.25 -0.96875,-0.25 -0.90625,0 -1.5625,0.57813 -0.64063,0.5625 -0.64063,2.15625 l 0,4.53125 -1.40625,0 z m 8.33594,-2.48438 1.39063,-0.21875 q 0.10937,0.84375 0.64062,1.29688 0.54688,0.4375 1.5,0.4375 0.96875,0 1.4375,-0.39063 0.46875,-0.40625 0.46875,-0.9375 0,-0.46875 -0.40625,-0.75 -0.29687,-0.1875 -1.4375,-0.46875 -1.54687,-0.39062 -2.15625,-0.67187 -0.59375,-0.29688 -0.90625,-0.79688 -0.29687,-0.5 -0.29687,-1.10937 0,-0.5625 0.25,-1.03125 0.25,-0.46875 0.6875,-0.78125 0.32812,-0.25 0.89062,-0.40625 0.57813,-0.17188 1.21875,-0.17188 0.98438,0 1.71875,0.28125 0.73438,0.28125 1.07813,0.76563 0.35937,0.46875 0.5,1.28125 l -1.375,0.1875 q -0.0937,-0.64063 -0.54688,-1 -0.45312,-0.35938 -1.26562,-0.35938 -0.96875,0 -1.39063,0.32813 -0.40625,0.3125 -0.40625,0.73437 0,0.28125 0.17188,0.5 0.17187,0.21875 0.53125,0.375 0.21875,0.0781 1.25,0.35938 1.48437,0.39062 2.07812,0.65625 0.59375,0.25 0.92188,0.73437 0.34375,0.48438 0.34375,1.20313 0,0.70312 -0.42188,1.32812 -0.40625,0.60938 -1.1875,0.95313 -0.76562,0.34375 -1.73437,0.34375 -1.625,0 -2.46875,-0.67188 -0.84375,-0.67187 -1.07813,-2 z m 8.5625,2.48438 0,-11.45313 1.40625,0 0,4.10938 q 0.98438,-1.14063 2.48438,-1.14063 0.92187,0 1.59375,0.35938 0.6875,0.35937 0.96875,1 0.29687,0.64062 0.29687,1.85937 l 0,5.26563 -1.40625,0 0,-5.26563 q 0,-1.04687 -0.45312,-1.53125 -0.45313,-0.48437 -1.29688,-0.48437 -0.625,0 -1.17187,0.32812 -0.54688,0.32813 -0.78125,0.89063 -0.23438,0.54687 -0.23438,1.51562 l 0,4.54688 -1.40625,0 z m 8.89844,-9.84375 0,-1.60938 1.40625,0 0,1.60938 -1.40625,0 z m 0,9.84375 0,-8.29688 1.40625,0 0,8.29688 -1.40625,0 z m 3.55469,3.1875 0,-11.48438 1.28125,0 0,1.07813 q 0.45312,-0.64063 1.01562,-0.95313 0.57813,-0.3125 1.39063,-0.3125 1.0625,0 1.875,0.54688 0.8125,0.54687 1.21875,1.54687 0.42187,0.98438 0.42187,2.17188 0,1.28125 -0.46875,2.29687 -0.45312,1.01563 -1.32812,1.5625 -0.85938,0.54688 -1.82813,0.54688 -0.70312,0 -1.26562,-0.29688 -0.54688,-0.29687 -0.90625,-0.75 l 0,4.04688 -1.40625,0 z m 1.26562,-7.29688 q 0,1.60938 0.64063,2.375 0.65625,0.76563 1.57812,0.76563 0.9375,0 1.60938,-0.79688 0.67187,-0.79687 0.67187,-2.45312 0,-1.59375 -0.65625,-2.375 -0.65625,-0.79688 -1.5625,-0.79688 -0.89062,0 -1.59375,0.84375 -0.6875,0.84375 -0.6875,2.4375 z" />
</svg>
