<?xml version="1.0" encoding="UTF-8" standalone="no"?>
<svg
   xmlns:dc="http://purl.org/dc/elements/1.1/"
   xmlns:cc="http://creativecommons.org/ns#"
   xmlns:rdf="http://www.w3.org/1999/02/22-rdf-syntax-ns#"
   xmlns:svg="http://www.w3.org/2000/svg"
   xmlns="http://www.w3.org/2000/svg"
   xmlns:sodipodi="http://sodipodi.sourceforge.net/DTD/sodipodi-0.dtd"
   xmlns:inkscape="http://www.inkscape.org/namespaces/inkscape"
   version="1.1"
   viewBox="0 0 617.98425 284.43375"
   stroke-miterlimit="10"
   id="svg4864"
   inkscape:version="0.91 r13725"
   sodipodi:docname="mixed_node_encoding.svg"
   width="617.98425"
   height="284.43375"
   style="fill:none;stroke:none;stroke-linecap:square;stroke-miterlimit:10">
  <metadata
     id="metadata4969">
    <rdf:RDF>
      <cc:Work
         rdf:about="">
        <dc:format>image/svg+xml</dc:format>
        <dc:type
           rdf:resource="http://purl.org/dc/dcmitype/StillImage" />
        <dc:title />
      </cc:Work>
    </rdf:RDF>
  </metadata>
  <defs
     id="defs4967" />
  <sodipodi:namedview
     pagecolor="#ffffff"
     bordercolor="#666666"
     borderopacity="1"
     objecttolerance="10"
     gridtolerance="10"
     guidetolerance="10"
     inkscape:pageopacity="0"
     inkscape:pageshadow="2"
     inkscape:window-width="1600"
     inkscape:window-height="827"
     id="namedview4965"
     showgrid="false"
     fit-margin-top="0"
     fit-margin-left="0"
     fit-margin-right="0"
     fit-margin-bottom="0"
     inkscape:zoom="1.1802083"
     inkscape:cx="458.19398"
     inkscape:cy="203.23207"
     inkscape:window-x="0"
     inkscape:window-y="27"
     inkscape:window-maximized="1"
     inkscape:current-layer="g4869" />
  <clipPath
     id="g387d54985d_0_0.0">
    <path
       d="M 0,0 960,0 960,540 0,540 0,0 Z"
       id="path4867"
       inkscape:connector-curvature="0"
       style="clip-rule:nonzero" />
  </clipPath>
  <g
     clip-path="url(#g387d54985d_0_0.0)"
     id="g4869"
     transform="translate(-171.00764,-127.78215)">
    <path
       d="m 584.87665,283.42126 39.02362,0 0,35.65353 -39.02362,0 z"
       id="path4873"
       inkscape:connector-curvature="0"
       style="fill:#eeeeee;fill-rule:evenodd" />
    <path
       d="m 584.87665,283.42126 39.02362,0 0,35.65353 -39.02362,0 z"
       id="path4875"
       inkscape:connector-curvature="0"
       style="fill-rule:evenodd;stroke:#595959;stroke-width:1;stroke-linecap:butt;stroke-linejoin:round" />
    <path
       d="m 550.9239,283.42126 18.42517,0 0,35.65353 -18.42517,0 z"
       id="path4877"
       inkscape:connector-curvature="0"
       style="fill:#eeeeee;fill-rule:evenodd" />
    <path
       d="m 550.9239,283.42126 18.42517,0 0,35.65353 -18.42517,0 z"
       id="path4879"
       inkscape:connector-curvature="0"
       style="fill-rule:evenodd;stroke:#595959;stroke-width:1;stroke-linecap:butt;stroke-linejoin:round" />
    <path
       d="m 335.0971,283.42126 217.41736,0 0,35.65353 -217.41736,0 z"
       id="path4881"
       inkscape:connector-curvature="0"
       style="fill:#eeeeee;fill-rule:evenodd" />
    <path
       d="m 335.0971,283.42126 217.41736,0 0,35.65353 -217.41736,0 z"
       id="path4883"
       inkscape:connector-curvature="0"
       style="fill-rule:evenodd;stroke:#595959;stroke-width:1;stroke-linecap:butt;stroke-linejoin:round" />
    <path
       d="m 319.9475,371.334 64.94488,-40.88187"
       id="path4885"
       inkscape:connector-curvature="0"
       style="fill:#000000;fill-opacity:0;fill-rule:evenodd" />
    <path
       d="M 319.9475,371.33405 379.81466,333.6485"
       id="path4887"
       inkscape:connector-curvature="0"
       style="fill-rule:evenodd;stroke:#595959;stroke-width:1;stroke-linecap:butt;stroke-linejoin:round" />
    <path
       d="m 380.69458,335.04633 2.96063,-3.8154 -4.72046,1.01975 z"
       id="path4889"
       inkscape:connector-curvature="0"
       style="fill:#595959;fill-rule:evenodd;stroke:#595959;stroke-width:1;stroke-linecap:butt" />
    <path
       d="m 247.50656,371.334 144.8819,0 0,40.8819 -144.8819,0 z"
       id="path4891"
       inkscape:connector-curvature="0"
       style="fill:#000000;fill-opacity:0;fill-rule:evenodd" />
    <path
       d="m 257.94406,398.25403 0,-13.35938 5.04687,0 q 1.32813,0 2.03125,0.125 0.96875,0.17188 1.64063,0.64063 0.67187,0.45312 1.07812,1.28125 0.40625,0.82812 0.40625,1.82812 0,1.70313 -1.09375,2.89063 -1.07812,1.17187 -3.92187,1.17187 l -3.42188,0 0,5.42188 -1.76562,0 z m 1.76562,-7 3.45313,0 q 1.71875,0 2.4375,-0.64063 0.71875,-0.64062 0.71875,-1.79687 0,-0.84375 -0.42188,-1.4375 -0.42187,-0.59375 -1.125,-0.78125 -0.4375,-0.125 -1.64062,-0.125 l -3.42188,0 0,4.78125 z m 9.86545,2.15625 q 0,-2.6875 1.48438,-3.96875 1.25,-1.07813 3.04687,-1.07813 2,0 3.26563,1.3125 1.26562,1.29688 1.26562,3.60938 0,1.85937 -0.5625,2.9375 -0.5625,1.0625 -1.64062,1.65625 -1.0625,0.59375 -2.32813,0.59375 -2.03125,0 -3.28125,-1.29688 -1.25,-1.3125 -1.25,-3.76562 z m 1.6875,0 q 0,1.85937 0.79688,2.79687 0.8125,0.92188 2.04687,0.92188 1.21875,0 2.03125,-0.92188 0.8125,-0.9375 0.8125,-2.84375 0,-1.79687 -0.8125,-2.71875 -0.8125,-0.92187 -2.03125,-0.92187 -1.23437,0 -2.04687,0.92187 -0.79688,0.90625 -0.79688,2.76563 z m 9.29761,-6.625 0,-1.89063 1.64063,0 0,1.89063 -1.64063,0 z m 0,11.46875 0,-9.67188 1.64063,0 0,9.67188 -1.64063,0 z m 4.14481,0 0,-9.67188 1.46875,0 0,1.375 q 1.0625,-1.59375 3.07812,-1.59375 0.875,0 1.60938,0.3125 0.73437,0.3125 1.09375,0.82813 0.375,0.5 0.51562,1.20312 0.0937,0.45313 0.0937,1.59375 l 0,5.95313 -1.64062,0 0,-5.89063 q 0,-1 -0.20313,-1.48437 -0.1875,-0.5 -0.67187,-0.79688 -0.48438,-0.29687 -1.14063,-0.29687 -1.04687,0 -1.8125,0.67187 -0.75,0.65625 -0.75,2.51563 l 0,5.28125 -1.64062,0 z m 13.95385,-1.46875 0.23438,1.45312 q -0.6875,0.14063 -1.23438,0.14063 -0.89062,0 -1.39062,-0.28125 -0.48438,-0.28125 -0.6875,-0.73438 -0.20313,-0.46875 -0.20313,-1.9375 l 0,-5.57812 -1.20312,0 0,-1.26563 1.20312,0 0,-2.39062 1.625,-0.98438 0,3.375 1.65625,0 0,1.26563 -1.65625,0 0,5.67187 q 0,0.6875 0.0781,0.89063 0.0937,0.20312 0.28125,0.32812 0.20312,0.10938 0.57812,0.10938 0.26563,0 0.71875,-0.0625 z m 8.23017,-1.64063 1.6875,0.20313 q -0.40625,1.48437 -1.48438,2.3125 -1.07812,0.8125 -2.76562,0.8125 -2.125,0 -3.375,-1.29688 -1.23438,-1.3125 -1.23438,-3.67187 0,-2.45313 1.25,-3.79688 1.26563,-1.34375 3.26563,-1.34375 1.9375,0 3.15625,1.32813 1.23437,1.3125 1.23437,3.70312 0,0.15625 0,0.4375 l -7.21875,0 q 0.0937,1.59375 0.90625,2.45313 0.8125,0.84375 2.01563,0.84375 0.90625,0 1.54687,-0.46875 0.64063,-0.48438 1.01563,-1.51563 z m -5.39063,-2.65625 5.40625,0 q -0.10937,-1.21875 -0.625,-1.82812 -0.78125,-0.95313 -2.03125,-0.95313 -1.125,0 -1.90625,0.76563 -0.76562,0.75 -0.84375,2.01562 z m 9.12573,5.76563 0,-9.67188 1.46875,0 0,1.46875 q 0.5625,-1.03125 1.03125,-1.35937 0.48438,-0.32813 1.0625,-0.32813 0.82813,0 1.6875,0.53125 l -0.5625,1.51563 q -0.60937,-0.35938 -1.20312,-0.35938 -0.54688,0 -0.96875,0.32813 -0.42188,0.32812 -0.60938,0.89062 -0.28125,0.875 -0.28125,1.92188 l 0,5.0625 -1.625,0 z m 15.42722,0 -5.17187,-13.35938 1.92187,0 3.46875,9.70313 q 0.42188,1.17187 0.70313,2.1875 0.3125,-1.09375 0.71875,-2.1875 l 3.60937,-9.70313 1.79688,0 -5.23438,13.35938 -1.8125,0 z m 14.74045,-1.1875 q -0.92188,0.76562 -1.76563,1.09375 -0.82812,0.3125 -1.79687,0.3125 -1.59375,0 -2.45313,-0.78125 -0.85937,-0.78125 -0.85937,-1.98438 0,-0.71875 0.32812,-1.29687 0.32813,-0.59375 0.84375,-0.9375 0.53125,-0.35938 1.1875,-0.54688 0.46875,-0.125 1.45313,-0.25 1.98437,-0.23437 2.92187,-0.5625 0.0156,-0.34375 0.0156,-0.42187 0,-1 -0.46875,-1.42188 -0.625,-0.54687 -1.875,-0.54687 -1.15625,0 -1.70313,0.40625 -0.54687,0.40625 -0.8125,1.42187 l -1.60937,-0.21875 q 0.21875,-1.01562 0.71875,-1.64062 0.5,-0.64063 1.45312,-0.98438 0.95313,-0.34375 2.1875,-0.34375 1.25,0 2.01563,0.29688 0.78125,0.28125 1.14062,0.73437 0.375,0.4375 0.51563,1.10938 0.0781,0.42187 0.0781,1.51562 l 0,2.1875 q 0,2.28125 0.10938,2.89063 0.10937,0.59375 0.40625,1.15625 l -1.70313,0 q -0.26562,-0.51563 -0.32812,-1.1875 z m -0.14063,-3.67188 q -0.89062,0.375 -2.67187,0.625 -1.01563,0.14063 -1.4375,0.32813 -0.42188,0.1875 -0.65625,0.53125 -0.21875,0.34375 -0.21875,0.78125 0,0.65625 0.5,1.09375 0.5,0.4375 1.45312,0.4375 0.9375,0 1.67188,-0.40625 0.75,-0.42188 1.09375,-1.14063 0.26562,-0.5625 0.26562,-1.64062 l 0,-0.60938 z m 4.15699,4.85938 0,-13.35938 1.64062,0 0,13.35938 -1.64062,0 z m 10.5198,0 0,-1.42188 q -1.125,1.64063 -3.0625,1.64063 -0.85937,0 -1.60937,-0.32813 -0.73438,-0.32812 -1.09375,-0.82812 -0.35938,-0.5 -0.5,-1.21875 -0.10938,-0.46875 -0.10938,-1.53125 l 0,-5.98438 1.64063,0 0,5.35938 q 0,1.28125 0.10937,1.73437 0.15625,0.64063 0.65625,1.01563 0.5,0.375 1.23438,0.375 0.73437,0 1.375,-0.375 0.65625,-0.39063 0.92187,-1.03125 0.26563,-0.65625 0.26563,-1.89063 l 0,-5.1875 1.64062,0 0,9.67188 -1.46875,0 z m 10.67261,-3.10938 1.6875,0.20313 q -0.40625,1.48437 -1.48438,2.3125 -1.07812,0.8125 -2.76562,0.8125 -2.125,0 -3.375,-1.29688 -1.23438,-1.3125 -1.23438,-3.67187 0,-2.45313 1.25,-3.79688 1.26563,-1.34375 3.26563,-1.34375 1.9375,0 3.15625,1.32813 1.23437,1.3125 1.23437,3.70312 0,0.15625 0,0.4375 l -7.21875,0 q 0.0937,1.59375 0.90625,2.45313 0.8125,0.84375 2.01563,0.84375 0.90625,0 1.54687,-0.46875 0.64063,-0.48438 1.01563,-1.51563 z m -5.39063,-2.65625 5.40625,0 q -0.10937,-1.21875 -0.625,-1.82812 -0.78125,-0.95313 -2.03125,-0.95313 -1.125,0 -1.90625,0.76563 -0.76562,0.75 -0.84375,2.01562 z"
       id="path4893"
       inkscape:connector-curvature="0"
       style="fill:#e69138;fill-rule:nonzero" />
    <path
       d="M 648.1942,373.30185 582.14696,324.98688"
       id="path4895"
       inkscape:connector-curvature="0"
       style="fill:#000000;fill-opacity:0;fill-rule:evenodd" />
    <path
       d="M 648.1942,373.30185 586.98955,328.52936"
       id="path4897"
       inkscape:connector-curvature="0"
       style="fill-rule:evenodd;stroke:#595959;stroke-width:1;stroke-linecap:butt;stroke-linejoin:round" />
    <path
       d="m 587.9648,327.19623 -4.63788,-1.34622 2.6875,4.01245 z"
       id="path4899"
       inkscape:connector-curvature="0"
       style="fill:#595959;fill-rule:evenodd;stroke:#595959;stroke-width:1;stroke-linecap:butt" />
    <path
       d="m 576.1942,374.5315 198.20471,0 0,34.48819 -198.20471,0 z"
       id="path4901"
       inkscape:connector-curvature="0"
       style="fill:#000000;fill-opacity:0;fill-rule:evenodd" />
    <path
       d="m 586.10046,394.9515 q 0,-3.32813 1.78125,-5.20313 1.78125,-1.89062 4.60937,-1.89062 1.84375,0 3.32813,0.89062 1.48437,0.875 2.26562,2.46875 0.78125,1.57813 0.78125,3.57813 0,2.03125 -0.82812,3.64062 -0.8125,1.59375 -2.3125,2.42188 -1.5,0.82812 -3.25,0.82812 -1.875,0 -3.35938,-0.90625 -1.48437,-0.92187 -2.25,-2.5 -0.76562,-1.57812 -0.76562,-3.32812 z m 1.8125,0.0156 q 0,2.42188 1.29687,3.8125 1.29688,1.39063 3.26563,1.39063 2,0 3.28125,-1.40625 1.28125,-1.40625 1.28125,-3.98438 0,-1.625 -0.54688,-2.84375 -0.54687,-1.21875 -1.60937,-1.875 -1.0625,-0.67187 -2.375,-0.67187 -1.89063,0 -3.25,1.29687 -1.34375,1.28125 -1.34375,4.28125 z m 13.01141,6.48438 0,-9.67188 1.46875,0 0,1.46875 q 0.5625,-1.03125 1.03125,-1.35937 0.48438,-0.32813 1.0625,-0.32813 0.82813,0 1.6875,0.53125 l -0.5625,1.51563 q -0.60937,-0.35938 -1.20312,-0.35938 -0.54688,0 -0.96875,0.32813 -0.42188,0.32812 -0.60938,0.89062 -0.28125,0.875 -0.28125,1.92188 l 0,5.0625 -1.625,0 z m 6.22834,-11.46875 0,-1.89063 1.64062,0 0,1.89063 -1.64062,0 z m 0,11.46875 0,-9.67188 1.64062,0 0,9.67188 -1.64062,0 z m 10.76983,-3.10938 1.6875,0.20313 q -0.40625,1.48437 -1.48437,2.3125 -1.07813,0.8125 -2.76563,0.8125 -2.125,0 -3.375,-1.29688 -1.23437,-1.3125 -1.23437,-3.67187 0,-2.45313 1.25,-3.79688 1.26562,-1.34375 3.26562,-1.34375 1.9375,0 3.15625,1.32813 1.23438,1.3125 1.23438,3.70312 0,0.15625 0,0.4375 l -7.21875,0 q 0.0937,1.59375 0.90625,2.45313 0.8125,0.84375 2.01562,0.84375 0.90625,0 1.54688,-0.46875 0.64062,-0.48438 1.01562,-1.51563 z m -5.39062,-2.65625 5.40625,0 q -0.10938,-1.21875 -0.625,-1.82812 -0.78125,-0.95313 -2.03125,-0.95313 -1.125,0 -1.90625,0.76563 -0.76563,0.75 -0.84375,2.01562 z m 9.14129,5.76563 0,-9.67188 1.46875,0 0,1.375 q 1.0625,-1.59375 3.07813,-1.59375 0.875,0 1.60937,0.3125 0.73438,0.3125 1.09375,0.82813 0.375,0.5 0.51563,1.20312 0.0937,0.45313 0.0937,1.59375 l 0,5.95313 -1.64063,0 0,-5.89063 q 0,-1 -0.20312,-1.48437 -0.1875,-0.5 -0.67188,-0.79688 -0.48437,-0.29687 -1.14062,-0.29687 -1.04688,0 -1.8125,0.67187 -0.75,0.65625 -0.75,2.51563 l 0,5.28125 -1.64063,0 z m 13.95386,-1.46875 0.23438,1.45312 q -0.6875,0.14063 -1.23438,0.14063 -0.89062,0 -1.39062,-0.28125 -0.48438,-0.28125 -0.6875,-0.73438 -0.20313,-0.46875 -0.20313,-1.9375 l 0,-5.57812 -1.20312,0 0,-1.26563 1.20312,0 0,-2.39062 1.625,-0.98438 0,3.375 1.65625,0 0,1.26563 -1.65625,0 0,5.67187 q 0,0.6875 0.0781,0.89063 0.0937,0.20312 0.28125,0.32812 0.20312,0.10938 0.57812,0.10938 0.26563,0 0.71875,-0.0625 z m 8.23016,-1.64063 1.6875,0.20313 q -0.40625,1.48437 -1.48437,2.3125 -1.07813,0.8125 -2.76563,0.8125 -2.125,0 -3.375,-1.29688 -1.23437,-1.3125 -1.23437,-3.67187 0,-2.45313 1.25,-3.79688 1.26562,-1.34375 3.26562,-1.34375 1.9375,0 3.15625,1.32813 1.23438,1.3125 1.23438,3.70312 0,0.15625 0,0.4375 l -7.21875,0 q 0.0937,1.59375 0.90625,2.45313 0.8125,0.84375 2.01562,0.84375 0.90625,0 1.54688,-0.46875 0.64062,-0.48438 1.01562,-1.51563 z m -5.39062,-2.65625 5.40625,0 q -0.10938,-1.21875 -0.625,-1.82812 -0.78125,-0.95313 -2.03125,-0.95313 -1.125,0 -1.90625,0.76563 -0.76563,0.75 -0.84375,2.01562 z m 15.40698,5.76563 0,-1.21875 q -0.90625,1.4375 -2.70312,1.4375 -1.15625,0 -2.125,-0.64063 -0.96875,-0.64062 -1.5,-1.78125 -0.53125,-1.14062 -0.53125,-2.625 0,-1.45312 0.48437,-2.625 0.48438,-1.1875 1.4375,-1.8125 0.96875,-0.625 2.17188,-0.625 0.875,0 1.54687,0.375 0.6875,0.35938 1.10938,0.95313 l 0,-4.79688 1.64062,0 0,13.35938 -1.53125,0 z m -5.17187,-4.82813 q 0,1.85938 0.78125,2.78125 0.78125,0.92188 1.84375,0.92188 1.07812,0 1.82812,-0.875 0.75,-0.89063 0.75,-2.6875 0,-1.98438 -0.76562,-2.90625 -0.76563,-0.9375 -1.89063,-0.9375 -1.07812,0 -1.8125,0.89062 -0.73437,0.89063 -0.73437,2.8125 z m 14.65277,4.82813 0,-13.35938 1.8125,0 7.01562,10.48438 0,-10.48438 1.6875,0 0,13.35938 -1.8125,0 -7.01562,-10.5 0,10.5 -1.6875,0 z m 12.67608,-4.84375 q 0,-2.6875 1.48438,-3.96875 1.25,-1.07813 3.04687,-1.07813 2,0 3.26563,1.3125 1.26562,1.29688 1.26562,3.60938 0,1.85937 -0.5625,2.9375 -0.5625,1.0625 -1.64062,1.65625 -1.0625,0.59375 -2.32813,0.59375 -2.03125,0 -3.28125,-1.29688 -1.25,-1.3125 -1.25,-3.76562 z m 1.6875,0 q 0,1.85937 0.79688,2.79687 0.8125,0.92188 2.04687,0.92188 1.21875,0 2.03125,-0.92188 0.8125,-0.9375 0.8125,-2.84375 0,-1.79687 -0.8125,-2.71875 -0.8125,-0.92187 -2.03125,-0.92187 -1.23437,0 -2.04687,0.92187 -0.79688,0.90625 -0.79688,2.76563 z m 15.56324,4.84375 0,-1.21875 q -0.90625,1.4375 -2.70313,1.4375 -1.15625,0 -2.125,-0.64063 -0.96875,-0.64062 -1.5,-1.78125 -0.53125,-1.14062 -0.53125,-2.625 0,-1.45312 0.48438,-2.625 0.48437,-1.1875 1.4375,-1.8125 0.96875,-0.625 2.17187,-0.625 0.875,0 1.54688,0.375 0.6875,0.35938 1.10937,0.95313 l 0,-4.79688 1.64063,0 0,13.35938 -1.53125,0 z m -5.17188,-4.82813 q 0,1.85938 0.78125,2.78125 0.78125,0.92188 1.84375,0.92188 1.07813,0 1.82813,-0.875 0.75,-0.89063 0.75,-2.6875 0,-1.98438 -0.76563,-2.90625 -0.76562,-0.9375 -1.89062,-0.9375 -1.07813,0 -1.8125,0.89062 -0.73438,0.89063 -0.73438,2.8125 z m 15.90692,1.71875 1.6875,0.20313 q -0.40625,1.48437 -1.48437,2.3125 -1.07813,0.8125 -2.76563,0.8125 -2.125,0 -3.375,-1.29688 -1.23437,-1.3125 -1.23437,-3.67187 0,-2.45313 1.25,-3.79688 1.26562,-1.34375 3.26562,-1.34375 1.9375,0 3.15625,1.32813 1.23438,1.3125 1.23438,3.70312 0,0.15625 0,0.4375 l -7.21875,0 q 0.0937,1.59375 0.90625,2.45313 0.8125,0.84375 2.01562,0.84375 0.90625,0 1.54688,-0.46875 0.64062,-0.48438 1.01562,-1.51563 z m -5.39062,-2.65625 5.40625,0 q -0.10938,-1.21875 -0.625,-1.82812 -0.78125,-0.95313 -2.03125,-0.95313 -1.125,0 -1.90625,0.76563 -0.76563,0.75 -0.84375,2.01562 z m 14.48089,5.76563 0,-13.35938 2.65625,0 3.15625,9.45313 q 0.4375,1.32812 0.64063,1.98437 0.23437,-0.73437 0.70312,-2.14062 l 3.20313,-9.29688 2.375,0 0,13.35938 -1.70313,0 0,-11.17188 -3.875,11.17188 -1.59375,0 -3.85937,-11.375 0,11.375 -1.70313,0 z m 21.69709,-1.1875 q -0.92188,0.76562 -1.76563,1.09375 -0.82812,0.3125 -1.79687,0.3125 -1.59375,0 -2.45313,-0.78125 -0.85937,-0.78125 -0.85937,-1.98438 0,-0.71875 0.32812,-1.29687 0.32813,-0.59375 0.84375,-0.9375 0.53125,-0.35938 1.1875,-0.54688 0.46875,-0.125 1.45313,-0.25 1.98437,-0.23437 2.92187,-0.5625 0.0156,-0.34375 0.0156,-0.42187 0,-1 -0.46875,-1.42188 -0.625,-0.54687 -1.875,-0.54687 -1.15625,0 -1.70313,0.40625 -0.54687,0.40625 -0.8125,1.42187 l -1.60937,-0.21875 q 0.21875,-1.01562 0.71875,-1.64062 0.5,-0.64063 1.45312,-0.98438 0.95313,-0.34375 2.1875,-0.34375 1.25,0 2.01563,0.29688 0.78125,0.28125 1.14062,0.73437 0.375,0.4375 0.51563,1.10938 0.0781,0.42187 0.0781,1.51562 l 0,2.1875 q 0,2.28125 0.10938,2.89063 0.10937,0.59375 0.40625,1.15625 l -1.70313,0 q -0.26562,-0.51563 -0.32812,-1.1875 z m -0.14063,-3.67188 q -0.89062,0.375 -2.67187,0.625 -1.01563,0.14063 -1.4375,0.32813 -0.42188,0.1875 -0.65625,0.53125 -0.21875,0.34375 -0.21875,0.78125 0,0.65625 0.5,1.09375 0.5,0.4375 1.45312,0.4375 0.9375,0 1.67188,-0.40625 0.75,-0.42188 1.09375,-1.14063 0.26562,-0.5625 0.26562,-1.64062 l 0,-0.60938 z m 4.18823,4.85938 0,-9.67188 1.46875,0 0,1.46875 q 0.5625,-1.03125 1.03125,-1.35937 0.48438,-0.32813 1.0625,-0.32813 0.82813,0 1.6875,0.53125 l -0.5625,1.51563 q -0.60937,-0.35938 -1.20312,-0.35938 -0.54688,0 -0.96875,0.32813 -0.42188,0.32812 -0.60938,0.89062 -0.28125,0.875 -0.28125,1.92188 l 0,5.0625 -1.625,0 z m 6.22827,0 0,-13.35938 1.64063,0 0,7.625 3.89062,-3.9375 2.10938,0 -3.6875,3.59375 4.0625,6.07813 -2.01563,0 -3.20312,-4.95313 -1.15625,1.125 0,3.82813 -1.64063,0 z"
       id="path4903"
       inkscape:connector-curvature="0"
       style="fill:#990000;fill-rule:nonzero" />
    <path
       d="m 569.34906,283.42126 15.52759,0 0,35.65353 -15.52759,0 z"
       id="path4905"
       inkscape:connector-curvature="0"
       style="fill:#eeeeee;fill-rule:evenodd" />
    <path
       d="m 569.34906,283.42126 15.52759,0 0,35.65353 -15.52759,0 z"
       id="path4907"
       inkscape:connector-curvature="0"
       style="fill-rule:evenodd;stroke:#595959;stroke-width:1;stroke-linecap:butt;stroke-linejoin:round" />
    <path
       d="m 171.00764,271.78217 617.98425,0 0,95.59055 -617.98425,0 z"
       id="path4909"
       inkscape:connector-curvature="0"
       style="fill:#000000;fill-opacity:0;fill-rule:evenodd" />
    <path
       d="m 349.54666,311.50217 -2.8125,0 0,-17.92188 q -1.01563,0.96875 -2.67188,1.9375 -1.64062,0.96875 -2.95312,1.45313 l 0,-2.71875 q 2.35937,-1.10938 4.125,-2.6875 1.76562,-1.57813 2.5,-3.0625 l 1.8125,0 0,23 z m 17.79687,0 -2.8125,0 0,-17.92188 q -1.01562,0.96875 -2.67187,1.9375 -1.64063,0.96875 -2.95313,1.45313 l 0,-2.71875 q 2.35938,-1.10938 4.125,-2.6875 1.76563,-1.57813 2.5,-3.0625 l 1.8125,0 0,23 z m 17.79688,0 -2.8125,0 0,-17.92188 q -1.01563,0.96875 -2.67188,1.9375 -1.64062,0.96875 -2.95312,1.45313 l 0,-2.71875 q 2.35937,-1.10938 4.125,-2.6875 1.76562,-1.57813 2.5,-3.0625 l 1.8125,0 0,23 z m 17.79687,0 -2.8125,0 0,-17.92188 q -1.01562,0.96875 -2.67187,1.9375 -1.64063,0.96875 -2.95313,1.45313 l 0,-2.71875 q 2.35938,-1.10938 4.125,-2.6875 1.76563,-1.57813 2.5,-3.0625 l 1.8125,0 0,23 z m 17.79688,0 -2.8125,0 0,-17.92188 q -1.01563,0.96875 -2.67188,1.9375 -1.64062,0.96875 -2.95312,1.45313 l 0,-2.71875 q 2.35937,-1.10938 4.125,-2.6875 1.76562,-1.57813 2.5,-3.0625 l 1.8125,0 0,23 z m 17.79687,0 -2.8125,0 0,-17.92188 q -1.01562,0.96875 -2.67187,1.9375 -1.64063,0.96875 -2.95313,1.45313 l 0,-2.71875 q 2.35938,-1.10938 4.125,-2.6875 1.76563,-1.57813 2.5,-3.0625 l 1.8125,0 0,23 z m 17.79688,0 -2.8125,0 0,-17.92188 q -1.01563,0.96875 -2.67188,1.9375 -1.64062,0.96875 -2.95312,1.45313 l 0,-2.71875 q 2.35937,-1.10938 4.125,-2.6875 1.76562,-1.57813 2.5,-3.0625 l 1.8125,0 0,23 z m 17.79687,0 -2.8125,0 0,-17.92188 q -1.01562,0.96875 -2.67187,1.9375 -1.64063,0.96875 -2.95313,1.45313 l 0,-2.71875 q 2.35938,-1.10938 4.125,-2.6875 1.76563,-1.57813 2.5,-3.0625 l 1.8125,0 0,23 z m 7.20313,-11.29688 q 0,-4.0625 0.82812,-6.53125 0.84375,-2.48437 2.48438,-3.82812 1.65625,-1.34375 4.15625,-1.34375 1.84375,0 3.23437,0.75 1.39063,0.73437 2.29688,2.14062 0.90625,1.39063 1.42187,3.40625 0.51563,2 0.51563,5.40625 0,4.03125 -0.82813,6.51563 -0.82812,2.46875 -2.48437,3.82812 -1.64063,1.34375 -4.15625,1.34375 -3.3125,0 -5.20313,-2.375 -2.26562,-2.85937 -2.26562,-9.3125 z m 2.89062,0 q 0,5.64063 1.3125,7.51563 1.32813,1.85937 3.26563,1.85937 1.9375,0 3.25,-1.875 1.32812,-1.875 1.32812,-7.5 0,-5.65625 -1.32812,-7.51562 -1.3125,-1.85938 -3.28125,-1.85938 -1.9375,0 -3.09375,1.64063 -1.45313,2.09375 -1.45313,7.73437 z m 25.5,11.29688 -2.8125,0 0,-17.92188 q -1.01562,0.96875 -2.67187,1.9375 -1.64063,0.96875 -2.95313,1.45313 l 0,-2.71875 q 2.35938,-1.10938 4.125,-2.6875 1.76563,-1.57813 2.5,-3.0625 l 1.8125,0 0,23 z m 7.2031,-11.29688 q 0,-4.0625 0.82812,-6.53125 0.84375,-2.48437 2.48438,-3.82812 1.65625,-1.34375 4.15625,-1.34375 1.84375,0 3.23437,0.75 1.39063,0.73437 2.29688,2.14062 0.90625,1.39063 1.42187,3.40625 0.51563,2 0.51563,5.40625 0,4.03125 -0.82813,6.51563 -0.82812,2.46875 -2.48437,3.82812 -1.64063,1.34375 -4.15625,1.34375 -3.3125,0 -5.20313,-2.375 -2.26562,-2.85937 -2.26562,-9.3125 z m 2.89062,0 q 0,5.64063 1.3125,7.51563 1.32813,1.85937 3.26563,1.85937 1.9375,0 3.25,-1.875 1.32812,-1.875 1.32812,-7.5 0,-5.65625 -1.32812,-7.51562 -1.3125,-1.85938 -3.28125,-1.85938 -1.9375,0 -3.09375,1.64063 -1.45313,2.09375 -1.45313,7.73437 z m 25.5,11.29688 -2.8125,0 0,-17.92188 q -1.01562,0.96875 -2.67187,1.9375 -1.64063,0.96875 -2.95313,1.45313 l 0,-2.71875 q 2.35938,-1.10938 4.125,-2.6875 1.76563,-1.57813 2.5,-3.0625 l 1.8125,0 0,23 z"
       id="path4911"
       inkscape:connector-curvature="0"
       style="fill:#e69138;fill-rule:nonzero" />
    <path
       d="m 552.5154,300.2053 q 0,-4.0625 0.82812,-6.53125 0.84375,-2.48437 2.48438,-3.82812 1.65625,-1.34375 4.15625,-1.34375 1.84375,0 3.23437,0.75 1.39063,0.73437 2.29688,2.14062 0.90625,1.39063 1.42187,3.40625 0.51563,2 0.51563,5.40625 0,4.03125 -0.82813,6.51563 -0.82812,2.46875 -2.48437,3.82812 -1.64063,1.34375 -4.15625,1.34375 -3.3125,0 -5.20313,-2.375 -2.26562,-2.85937 -2.26562,-9.3125 z m 2.89062,0 q 0,5.64063 1.3125,7.51563 1.32813,1.85937 3.26563,1.85937 1.9375,0 3.25,-1.875 1.32812,-1.875 1.32812,-7.5 0,-5.65625 -1.32812,-7.51562 -1.3125,-1.85938 -3.28125,-1.85938 -1.9375,0 -3.09375,1.64063 -1.45313,2.09375 -1.45313,7.73437 z"
       id="path4913"
       inkscape:connector-curvature="0"
       style="fill:#6aa84f;fill-rule:nonzero" />
    <path
       d="m 580.906,311.50217 -2.8125,0 0,-17.92188 q -1.01563,0.96875 -2.67188,1.9375 -1.64062,0.96875 -2.95312,1.45313 l 0,-2.71875 q 2.35937,-1.10938 4.125,-2.6875 1.76562,-1.57813 2.5,-3.0625 l 1.8125,0 0,23 z"
       id="path4915"
       inkscape:connector-curvature="0"
       style="fill:#990000;fill-rule:nonzero" />
    <path
       d="m 588.10913,300.2053 q 0,-4.0625 0.82813,-6.53125 0.84375,-2.48437 2.48437,-3.82812 1.65625,-1.34375 4.15625,-1.34375 1.84375,0 3.23438,0.75 1.39062,0.73437 2.29687,2.14062 0.90625,1.39063 1.42188,3.40625 0.51562,2 0.51562,5.40625 0,4.03125 -0.82812,6.51563 -0.82813,2.46875 -2.48438,3.82812 -1.64062,1.34375 -4.15625,1.34375 -3.3125,0 -5.20312,-2.375 -2.26563,-2.85937 -2.26563,-9.3125 z m 2.89063,0 q 0,5.64063 1.3125,7.51563 1.32812,1.85937 3.26562,1.85937 1.9375,0 3.25,-1.875 1.32813,-1.875 1.32813,-7.5 0,-5.65625 -1.32813,-7.51562 -1.3125,-1.85938 -3.28125,-1.85938 -1.9375,0 -3.09375,1.64063 -1.45312,2.09375 -1.45312,7.73437 z m 14.90625,0 q 0,-4.0625 0.82812,-6.53125 0.84375,-2.48437 2.48438,-3.82812 1.65625,-1.34375 4.15625,-1.34375 1.84375,0 3.23437,0.75 1.39063,0.73437 2.29688,2.14062 0.90625,1.39063 1.42187,3.40625 0.51563,2 0.51563,5.40625 0,4.03125 -0.82813,6.51563 -0.82812,2.46875 -2.48437,3.82812 -1.64063,1.34375 -4.15625,1.34375 -3.3125,0 -5.20313,-2.375 -2.26562,-2.85937 -2.26562,-9.3125 z m 2.89062,0 q 0,5.64063 1.3125,7.51563 1.32813,1.85937 3.26563,1.85937 1.9375,0 3.25,-1.875 1.32812,-1.875 1.32812,-7.5 0,-5.65625 -1.32812,-7.51562 -1.3125,-1.85938 -3.28125,-1.85938 -1.9375,0 -3.09375,1.64063 -1.45313,2.09375 -1.45313,7.73437 z"
       id="path4917"
       inkscape:connector-curvature="0"
       style="fill:#6aa84f;fill-rule:nonzero" />
    <path
       d="m 551.1916,139.42126 37.32288,0 0,35.65353 -37.32288,0 z"
       id="path4919"
       inkscape:connector-curvature="0"
       style="fill:#eeeeee;fill-rule:evenodd" />
    <path
       d="m 551.1916,139.42126 37.32288,0 0,35.65353 -37.32288,0 z"
       id="path4921"
       inkscape:connector-curvature="0"
       style="fill-rule:evenodd;stroke:#595959;stroke-width:1;stroke-linecap:butt;stroke-linejoin:round" />
    <path
       d="m 604.042,139.42126 18.42517,0 0,35.65353 -18.42517,0 z"
       id="path4923"
       inkscape:connector-curvature="0"
       style="fill:#eeeeee;fill-rule:evenodd" />
    <path
       d="m 604.042,139.42126 18.42517,0 0,35.65353 -18.42517,0 z"
       id="path4925"
       inkscape:connector-curvature="0"
       style="fill-rule:evenodd;stroke:#595959;stroke-width:1;stroke-linecap:butt;stroke-linejoin:round" />
    <path
       d="m 335.0971,139.42126 216.09448,0 0,35.65353 -216.09448,0 z"
       id="path4927"
       inkscape:connector-curvature="0"
       style="fill:#eeeeee;fill-rule:evenodd" />
    <path
       d="m 335.0971,139.42126 216.09448,0 0,35.65353 -216.09448,0 z"
       id="path4929"
       inkscape:connector-curvature="0"
       style="fill-rule:evenodd;stroke:#595959;stroke-width:1;stroke-linecap:butt;stroke-linejoin:round" />
    <path
       d="m 319.9475,227.33403 64.94488,-40.8819"
       id="path4931"
       inkscape:connector-curvature="0"
       style="fill:#000000;fill-opacity:0;fill-rule:evenodd" />
    <path
       d="M 319.9475,227.33403 379.81466,189.6485"
       id="path4933"
       inkscape:connector-curvature="0"
       style="fill-rule:evenodd;stroke:#595959;stroke-width:1;stroke-linecap:butt;stroke-linejoin:round" />
    <path
       d="m 380.69458,191.04634 2.96063,-3.8154 -4.72046,1.01972 z"
       id="path4935"
       inkscape:connector-curvature="0"
       style="fill:#595959;fill-rule:evenodd;stroke:#595959;stroke-width:1;stroke-linecap:butt" />
    <path
       d="m 247.50656,227.33403 144.8819,0 0,40.88188 -144.8819,0 z"
       id="path4937"
       inkscape:connector-curvature="0"
       style="fill:#000000;fill-opacity:0;fill-rule:evenodd" />
    <path
       d="m 257.94406,254.25403 0,-13.35938 5.04687,0 q 1.32813,0 2.03125,0.125 0.96875,0.17188 1.64063,0.64063 0.67187,0.45312 1.07812,1.28125 0.40625,0.82812 0.40625,1.82812 0,1.70313 -1.09375,2.89063 -1.07812,1.17187 -3.92187,1.17187 l -3.42188,0 0,5.42188 -1.76562,0 z m 1.76562,-7 3.45313,0 q 1.71875,0 2.4375,-0.64063 0.71875,-0.64062 0.71875,-1.79687 0,-0.84375 -0.42188,-1.4375 -0.42187,-0.59375 -1.125,-0.78125 -0.4375,-0.125 -1.64062,-0.125 l -3.42188,0 0,4.78125 z m 9.86545,2.15625 q 0,-2.6875 1.48438,-3.96875 1.25,-1.07813 3.04687,-1.07813 2,0 3.26563,1.3125 1.26562,1.29688 1.26562,3.60938 0,1.85937 -0.5625,2.9375 -0.5625,1.0625 -1.64062,1.65625 -1.0625,0.59375 -2.32813,0.59375 -2.03125,0 -3.28125,-1.29688 -1.25,-1.3125 -1.25,-3.76562 z m 1.6875,0 q 0,1.85937 0.79688,2.79687 0.8125,0.92188 2.04687,0.92188 1.21875,0 2.03125,-0.92188 0.8125,-0.9375 0.8125,-2.84375 0,-1.79687 -0.8125,-2.71875 -0.8125,-0.92187 -2.03125,-0.92187 -1.23437,0 -2.04687,0.92187 -0.79688,0.90625 -0.79688,2.76563 z m 9.29761,-6.625 0,-1.89063 1.64063,0 0,1.89063 -1.64063,0 z m 0,11.46875 0,-9.67188 1.64063,0 0,9.67188 -1.64063,0 z m 4.14481,0 0,-9.67188 1.46875,0 0,1.375 q 1.0625,-1.59375 3.07812,-1.59375 0.875,0 1.60938,0.3125 0.73437,0.3125 1.09375,0.82813 0.375,0.5 0.51562,1.20312 0.0937,0.45313 0.0937,1.59375 l 0,5.95313 -1.64062,0 0,-5.89063 q 0,-1 -0.20313,-1.48437 -0.1875,-0.5 -0.67187,-0.79688 -0.48438,-0.29687 -1.14063,-0.29687 -1.04687,0 -1.8125,0.67187 -0.75,0.65625 -0.75,2.51563 l 0,5.28125 -1.64062,0 z m 13.95385,-1.46875 0.23438,1.45312 q -0.6875,0.14063 -1.23438,0.14063 -0.89062,0 -1.39062,-0.28125 -0.48438,-0.28125 -0.6875,-0.73438 -0.20313,-0.46875 -0.20313,-1.9375 l 0,-5.57812 -1.20312,0 0,-1.26563 1.20312,0 0,-2.39062 1.625,-0.98438 0,3.375 1.65625,0 0,1.26563 -1.65625,0 0,5.67187 q 0,0.6875 0.0781,0.89063 0.0937,0.20312 0.28125,0.32812 0.20312,0.10938 0.57812,0.10938 0.26563,0 0.71875,-0.0625 z m 8.23017,-1.64063 1.6875,0.20313 q -0.40625,1.48437 -1.48438,2.3125 -1.07812,0.8125 -2.76562,0.8125 -2.125,0 -3.375,-1.29688 -1.23438,-1.3125 -1.23438,-3.67187 0,-2.45313 1.25,-3.79688 1.26563,-1.34375 3.26563,-1.34375 1.9375,0 3.15625,1.32813 1.23437,1.3125 1.23437,3.70312 0,0.15625 0,0.4375 l -7.21875,0 q 0.0937,1.59375 0.90625,2.45313 0.8125,0.84375 2.01563,0.84375 0.90625,0 1.54687,-0.46875 0.64063,-0.48438 1.01563,-1.51563 z m -5.39063,-2.65625 5.40625,0 q -0.10937,-1.21875 -0.625,-1.82812 -0.78125,-0.95313 -2.03125,-0.95313 -1.125,0 -1.90625,0.76563 -0.76562,0.75 -0.84375,2.01562 z m 9.12573,5.76563 0,-9.67188 1.46875,0 0,1.46875 q 0.5625,-1.03125 1.03125,-1.35937 0.48438,-0.32813 1.0625,-0.32813 0.82813,0 1.6875,0.53125 l -0.5625,1.51563 q -0.60937,-0.35938 -1.20312,-0.35938 -0.54688,0 -0.96875,0.32813 -0.42188,0.32812 -0.60938,0.89062 -0.28125,0.875 -0.28125,1.92188 l 0,5.0625 -1.625,0 z m 15.42722,0 -5.17187,-13.35938 1.92187,0 3.46875,9.70313 q 0.42188,1.17187 0.70313,2.1875 0.3125,-1.09375 0.71875,-2.1875 l 3.60937,-9.70313 1.79688,0 -5.23438,13.35938 -1.8125,0 z m 14.74045,-1.1875 q -0.92188,0.76562 -1.76563,1.09375 -0.82812,0.3125 -1.79687,0.3125 -1.59375,0 -2.45313,-0.78125 -0.85937,-0.78125 -0.85937,-1.98438 0,-0.71875 0.32812,-1.29687 0.32813,-0.59375 0.84375,-0.9375 0.53125,-0.35938 1.1875,-0.54688 0.46875,-0.125 1.45313,-0.25 1.98437,-0.23437 2.92187,-0.5625 0.0156,-0.34375 0.0156,-0.42187 0,-1 -0.46875,-1.42188 -0.625,-0.54687 -1.875,-0.54687 -1.15625,0 -1.70313,0.40625 -0.54687,0.40625 -0.8125,1.42187 l -1.60937,-0.21875 q 0.21875,-1.01562 0.71875,-1.64062 0.5,-0.64063 1.45312,-0.98438 0.95313,-0.34375 2.1875,-0.34375 1.25,0 2.01563,0.29688 0.78125,0.28125 1.14062,0.73437 0.375,0.4375 0.51563,1.10938 0.0781,0.42187 0.0781,1.51562 l 0,2.1875 q 0,2.28125 0.10938,2.89063 0.10937,0.59375 0.40625,1.15625 l -1.70313,0 q -0.26562,-0.51563 -0.32812,-1.1875 z m -0.14063,-3.67188 q -0.89062,0.375 -2.67187,0.625 -1.01563,0.14063 -1.4375,0.32813 -0.42188,0.1875 -0.65625,0.53125 -0.21875,0.34375 -0.21875,0.78125 0,0.65625 0.5,1.09375 0.5,0.4375 1.45312,0.4375 0.9375,0 1.67188,-0.40625 0.75,-0.42188 1.09375,-1.14063 0.26562,-0.5625 0.26562,-1.64062 l 0,-0.60938 z m 4.15699,4.85938 0,-13.35938 1.64062,0 0,13.35938 -1.64062,0 z m 10.5198,0 0,-1.42188 q -1.125,1.64063 -3.0625,1.64063 -0.85937,0 -1.60937,-0.32813 -0.73438,-0.32812 -1.09375,-0.82812 -0.35938,-0.5 -0.5,-1.21875 -0.10938,-0.46875 -0.10938,-1.53125 l 0,-5.98438 1.64063,0 0,5.35938 q 0,1.28125 0.10937,1.73437 0.15625,0.64063 0.65625,1.01563 0.5,0.375 1.23438,0.375 0.73437,0 1.375,-0.375 0.65625,-0.39063 0.92187,-1.03125 0.26563,-0.65625 0.26563,-1.89063 l 0,-5.1875 1.64062,0 0,9.67188 -1.46875,0 z m 10.67261,-3.10938 1.6875,0.20313 q -0.40625,1.48437 -1.48438,2.3125 -1.07812,0.8125 -2.76562,0.8125 -2.125,0 -3.375,-1.29688 -1.23438,-1.3125 -1.23438,-3.67187 0,-2.45313 1.25,-3.79688 1.26563,-1.34375 3.26563,-1.34375 1.9375,0 3.15625,1.32813 1.23437,1.3125 1.23437,3.70312 0,0.15625 0,0.4375 l -7.21875,0 q 0.0937,1.59375 0.90625,2.45313 0.8125,0.84375 2.01563,0.84375 0.90625,0 1.54687,-0.46875 0.64063,-0.48438 1.01563,-1.51563 z m -5.39063,-2.65625 5.40625,0 q -0.10937,-1.21875 -0.625,-1.82812 -0.78125,-0.95313 -2.03125,-0.95313 -1.125,0 -1.90625,0.76563 -0.76562,0.75 -0.84375,2.01562 z"
       id="path4939"
       inkscape:connector-curvature="0"
       style="fill:#e69138;fill-rule:nonzero" />
    <path
       d="M 648.1942,229.30183 582.14696,180.98687"
       id="path4941"
       inkscape:connector-curvature="0"
       style="fill:#000000;fill-opacity:0;fill-rule:evenodd" />
    <path
       d="M 653.90971,234.89275 600.26775,181.29121"
       id="path4943"
       inkscape:connector-curvature="0"
       style="fill-rule:evenodd;stroke:#595959;stroke-width:1;stroke-linecap:butt;stroke-linejoin:round" />
    <path
       d="m 601.4353,180.12284 -4.37761,-2.03931 2.04261,4.3761 z"
       id="path4945"
       inkscape:connector-curvature="0"
       style="fill:#595959;fill-rule:evenodd;stroke:#595959;stroke-width:1;stroke-linecap:butt" />
    <path
       d="m 544.1942,230.5315 227.77954,0 0,34.48819 -227.77954,0 z"
       id="path4947"
       inkscape:connector-curvature="0"
       style="fill:#000000;fill-opacity:0;fill-rule:evenodd" />
    <path
       d="m 553.16296,257.4515 5.125,-13.35939 1.90625,0 5.46875,13.35939 -2.01563,0 -1.54687,-4.04689 -5.59375,0 -1.46875,4.04689 -1.875,0 z m 3.85937,-5.48439 4.53125,0 -1.40625,-3.70313 q -0.625,-1.6875 -0.9375,-2.76562 -0.26562,1.28125 -0.71875,2.54687 l -1.46875,3.92188 z m 8.75611,5.48439 3.53125,-5.03127 -3.26563,-4.64062 2.04688,0 1.48437,2.26562 q 0.42188,0.64063 0.67188,1.07813 0.40625,-0.59375 0.73437,-1.0625 l 1.64063,-2.28125 1.95312,0 -3.34375,4.54687 3.59375,5.12502 -2.01562,0 -1.98438,-3.00002 -0.51562,-0.8125 -2.54688,3.81252 -1.98437,0 z m 10.42187,-11.46876 0,-1.89063 1.64063,0 0,1.89063 -1.64063,0 z m 0,11.46876 0,-9.67189 1.64063,0 0,9.67189 -1.64063,0 z m 3.48853,-2.89064 1.625,-0.25 q 0.125,0.96875 0.75,1.5 0.625,0.51564 1.75,0.51564 1.125,0 1.67187,-0.45314 0.54688,-0.46875 0.54688,-1.09375 0,-0.54688 -0.48438,-0.875 -0.32812,-0.21875 -1.67187,-0.54688 -1.8125,-0.46875 -2.51563,-0.79687 -0.6875,-0.32813 -1.04687,-0.90625 -0.35938,-0.59375 -0.35938,-1.3125 0,-0.64063 0.29688,-1.1875 0.29687,-0.5625 0.8125,-0.92188 0.375,-0.28125 1.03125,-0.46875 0.67187,-0.20312 1.42187,-0.20312 1.14063,0 2,0.32812 0.85938,0.32813 1.26563,0.89063 0.42187,0.5625 0.57812,1.5 l -1.60937,0.21875 q -0.10938,-0.75 -0.64063,-1.17188 -0.51562,-0.42187 -1.46875,-0.42187 -1.14062,0 -1.625,0.375 -0.46875,0.375 -0.46875,0.875 0,0.3125 0.1875,0.57812 0.20313,0.26563 0.64063,0.4375 0.23437,0.0937 1.4375,0.42188 1.75,0.45312 2.4375,0.75 0.6875,0.29687 1.07812,0.85937 0.39063,0.5625 0.39063,1.40625 0,0.82813 -0.48438,1.54689 -0.46875,0.71875 -1.375,1.125 -0.90625,0.39063 -2.04687,0.39063 -1.875,0 -2.875,-0.78125 -0.98438,-0.78125 -1.25,-2.32814 z m 9.34375,-1.125 0,-1.64063 5.03125,0 0,1.64063 -5.03125,0 z m 5.58771,4.01564 5.125,-13.35939 1.90625,0 5.46875,13.35939 -2.01563,0 -1.54687,-4.04689 -5.59375,0 -1.46875,4.04689 -1.875,0 z m 3.85937,-5.48439 4.53125,0 -1.40625,-3.70313 q -0.625,-1.6875 -0.9375,-2.76562 -0.26562,1.28125 -0.71875,2.54687 l -1.46875,3.92188 z m 9.80292,5.48439 0,-13.35939 1.64062,0 0,13.35939 -1.64062,0 z m 4.19171,-11.46876 0,-1.89063 1.64063,0 0,1.89063 -1.64063,0 z m 0,11.46876 0,-9.67189 1.64063,0 0,9.67189 -1.64063,0 z m 3.83234,0.79687 1.59375,0.23438 q 0.10937,0.75 0.5625,1.07812 0.60937,0.45313 1.67187,0.45313 1.14063,0 1.75,-0.45313 0.625,-0.45312 0.84375,-1.26562 0.125,-0.5 0.10938,-2.10938 -1.0625,1.26563 -2.67188,1.26563 -2,0 -3.09375,-1.4375 -1.09375,-1.43752 -1.09375,-3.45314 0,-1.39063 0.5,-2.5625 0.51563,-1.17188 1.45313,-1.79688 0.95312,-0.64062 2.25,-0.64062 1.70312,0 2.8125,1.375 l 0,-1.15625 1.51562,0 0,8.35939 q 0,2.26562 -0.46875,3.20312 -0.45312,0.9375 -1.45312,1.48438 -0.98438,0.54687 -2.45313,0.54687 -1.71875,0 -2.79687,-0.78125 -1.0625,-0.76562 -1.03125,-2.34375 z m 1.35937,-5.81251 q 0,1.90625 0.75,2.78125 0.76563,0.87501 1.90625,0.87501 1.125,0 1.89063,-0.85939 0.76562,-0.875 0.76562,-2.73437 0,-1.78125 -0.79687,-2.67188 -0.78125,-0.90625 -1.89063,-0.90625 -1.09375,0 -1.85937,0.89063 -0.76563,0.875 -0.76563,2.625 z m 9.32886,5.01564 0,-9.67189 1.46875,0 0,1.375 q 1.0625,-1.59375 3.07812,-1.59375 0.875,0 1.60938,0.3125 0.73437,0.3125 1.09375,0.82813 0.375,0.5 0.51562,1.20312 0.0937,0.45313 0.0937,1.59375 l 0,5.95314 -1.64062,0 0,-5.89064 q 0,-1 -0.20313,-1.48437 -0.1875,-0.5 -0.67187,-0.79688 -0.48438,-0.29687 -1.14063,-0.29687 -1.04687,0 -1.8125,0.67187 -0.75,0.65625 -0.75,2.51563 l 0,5.28126 -1.64062,0 z m 17.00067,-3.10939 1.6875,0.20312 q -0.40625,1.48439 -1.48438,2.31252 -1.07812,0.8125 -2.76562,0.8125 -2.125,0 -3.375,-1.29688 -1.23438,-1.31251 -1.23438,-3.67189 0,-2.45312 1.25,-3.79687 1.26563,-1.34375 3.26563,-1.34375 1.9375,0 3.15625,1.32812 1.23437,1.3125 1.23437,3.70313 0,0.15625 0,0.4375 l -7.21875,0 q 0.0937,1.59375 0.90625,2.45312 0.8125,0.84377 2.01563,0.84377 0.90625,0 1.54687,-0.46877 0.64063,-0.48437 1.01563,-1.51562 z m -5.39063,-2.65625 5.40625,0 q -0.10937,-1.21875 -0.625,-1.82813 -0.78125,-0.95312 -2.03125,-0.95312 -1.125,0 -1.90625,0.76562 -0.76562,0.75 -0.84375,2.01563 z m 15.40699,5.76564 0,-1.21875 q -0.90625,1.4375 -2.70313,1.4375 -1.15625,0 -2.125,-0.64063 -0.96875,-0.64062 -1.5,-1.78126 -0.53125,-1.14063 -0.53125,-2.625 0,-1.45313 0.48438,-2.625 0.48437,-1.1875 1.4375,-1.8125 0.96875,-0.625 2.17187,-0.625 0.875,0 1.54688,0.375 0.6875,0.35937 1.10937,0.95312 l 0,-4.79687 1.64063,0 0,13.35939 -1.53125,0 z m -5.17188,-4.82814 q 0,1.85937 0.78125,2.78125 0.78125,0.92189 1.84375,0.92189 1.07813,0 1.82813,-0.87502 0.75,-0.89062 0.75,-2.6875 0,-1.98437 -0.76563,-2.90625 -0.76562,-0.9375 -1.89062,-0.9375 -1.07813,0 -1.8125,0.89063 -0.73438,0.89062 -0.73438,2.8125 z m 14.65277,4.82814 0,-13.35939 1.8125,0 7.01563,10.48438 0,-10.48438 1.6875,0 0,13.35939 -1.8125,0 -7.01563,-10.50001 0,10.50001 -1.6875,0 z m 12.67609,-4.84377 q 0,-2.6875 1.48437,-3.96875 1.25,-1.07812 3.04688,-1.07812 2,0 3.26562,1.3125 1.26563,1.29687 1.26563,3.60937 0,1.85938 -0.5625,2.9375 -0.5625,1.06252 -1.64063,1.65627 -1.0625,0.59375 -2.32812,0.59375 -2.03125,0 -3.28125,-1.29688 -1.25,-1.31251 -1.25,-3.76564 z m 1.6875,0 q 0,1.85938 0.79687,2.79688 0.8125,0.92189 2.04688,0.92189 1.21875,0 2.03125,-0.92189 0.8125,-0.9375 0.8125,-2.84375 0,-1.79688 -0.8125,-2.71875 -0.8125,-0.92188 -2.03125,-0.92188 -1.23438,0 -2.04688,0.92188 -0.79687,0.90625 -0.79687,2.76562 z m 15.56323,4.84377 0,-1.21875 q -0.90625,1.4375 -2.70312,1.4375 -1.15625,0 -2.125,-0.64063 -0.96875,-0.64062 -1.5,-1.78126 -0.53125,-1.14063 -0.53125,-2.625 0,-1.45313 0.48437,-2.625 0.48438,-1.1875 1.4375,-1.8125 0.96875,-0.625 2.17188,-0.625 0.875,0 1.54687,0.375 0.6875,0.35937 1.10938,0.95312 l 0,-4.79687 1.64062,0 0,13.35939 -1.53125,0 z m -5.17187,-4.82814 q 0,1.85937 0.78125,2.78125 0.78125,0.92189 1.84375,0.92189 1.07812,0 1.82812,-0.87502 0.75,-0.89062 0.75,-2.6875 0,-1.98437 -0.76562,-2.90625 -0.76563,-0.9375 -1.89063,-0.9375 -1.07812,0 -1.8125,0.89063 -0.73437,0.89062 -0.73437,2.8125 z m 15.90692,1.71875 1.6875,0.20312 q -0.40625,1.48439 -1.48438,2.31252 -1.07812,0.8125 -2.76562,0.8125 -2.125,0 -3.375,-1.29688 -1.23438,-1.31251 -1.23438,-3.67189 0,-2.45312 1.25,-3.79687 1.26563,-1.34375 3.26563,-1.34375 1.9375,0 3.15625,1.32812 1.23437,1.3125 1.23437,3.70313 0,0.15625 0,0.4375 l -7.21875,0 q 0.0937,1.59375 0.90625,2.45312 0.8125,0.84377 2.01563,0.84377 0.90625,0 1.54687,-0.46877 0.64063,-0.48437 1.01563,-1.51562 z m -5.39063,-2.65625 5.40625,0 q -0.10937,-1.21875 -0.625,-1.82813 -0.78125,-0.95312 -2.03125,-0.95312 -1.125,0 -1.90625,0.76562 -0.76562,0.75 -0.84375,2.01563 z m 14.4809,5.76564 0,-13.35939 2.65625,0 3.15625,9.45313 q 0.4375,1.32812 0.64062,1.98437 0.23438,-0.73437 0.70313,-2.14062 l 3.20312,-9.29688 2.375,0 0,13.35939 -1.70312,0 0,-11.17189 -3.875,11.17189 -1.59375,0 -3.85938,-11.37501 0,11.37501 -1.70312,0 z m 21.69708,-1.1875 q -0.92187,0.76562 -1.76562,1.09375 -0.82813,0.3125 -1.79688,0.3125 -1.59375,0 -2.45312,-0.78125 -0.85938,-0.78125 -0.85938,-1.98439 0,-0.71875 0.32813,-1.29688 0.32812,-0.59375 0.84375,-0.9375 0.53125,-0.35937 1.1875,-0.54687 0.46875,-0.125 1.45312,-0.25 1.98438,-0.23438 2.92188,-0.5625 0.0156,-0.34375 0.0156,-0.42188 0,-1 -0.46875,-1.42187 -0.625,-0.54688 -1.875,-0.54688 -1.15625,0 -1.70312,0.40625 -0.54688,0.40625 -0.8125,1.42188 l -1.60938,-0.21875 q 0.21875,-1.01563 0.71875,-1.64063 0.5,-0.64062 1.45313,-0.98437 0.95312,-0.34375 2.1875,-0.34375 1.25,0 2.01562,0.29687 0.78125,0.28125 1.14063,0.73438 0.375,0.4375 0.51562,1.10937 0.0781,0.42188 0.0781,1.51563 l 0,2.1875 q 0,2.28125 0.10937,2.89064 0.10938,0.59375 0.40625,1.15625 l -1.70312,0 q -0.26563,-0.51563 -0.32813,-1.1875 z m -0.14062,-3.67189 q -0.89063,0.375 -2.67188,0.625 -1.01562,0.14062 -1.4375,0.32812 -0.42187,0.1875 -0.65625,0.53125 -0.21875,0.34375 -0.21875,0.78125 0,0.65625 0.5,1.09375 0.5,0.43752 1.45313,0.43752 0.9375,0 1.67187,-0.40627 0.75,-0.42187 1.09375,-1.14062 0.26563,-0.5625 0.26563,-1.64063 l 0,-0.60937 z m 4.18823,4.85939 0,-9.67189 1.46875,0 0,1.46875 q 0.5625,-1.03125 1.03125,-1.35937 0.48437,-0.32813 1.0625,-0.32813 0.82812,0 1.6875,0.53125 l -0.5625,1.51563 q -0.60938,-0.35938 -1.20313,-0.35938 -0.54687,0 -0.96875,0.32813 -0.42187,0.32812 -0.60937,0.89062 -0.28125,0.875 -0.28125,1.92188 l 0,5.06251 -1.625,0 z m 6.22827,0 0,-13.35939 1.64062,0 0,7.625 3.89063,-3.9375 2.10937,0 -3.6875,3.59375 4.0625,6.07814 -2.01562,0 -3.20313,-4.95314 -1.15625,1.125 0,3.82814 -1.64062,0 z"
       id="path4949"
       inkscape:connector-curvature="0"
       style="fill:#990000;fill-rule:nonzero" />
    <path
       d="m 588.51447,139.42126 15.52753,0 0,35.65353 -15.52753,0 z"
       id="path4951"
       inkscape:connector-curvature="0"
       style="fill:#eeeeee;fill-rule:evenodd" />
    <path
       d="m 588.51447,139.42126 15.52753,0 0,35.65353 -15.52753,0 z"
       id="path4953"
       inkscape:connector-curvature="0"
       style="fill-rule:evenodd;stroke:#595959;stroke-width:1;stroke-linecap:butt;stroke-linejoin:round" />
    <path
       d="m 171.00764,127.78215 617.98425,0 0,95.59055 -617.98425,0 z"
       id="path4955"
       inkscape:connector-curvature="0"
       style="fill:#000000;fill-opacity:0;fill-rule:evenodd" />
    <path
       d="m 349.54666,167.50215 -2.8125,0 0,-17.92188 q -1.01563,0.96875 -2.67188,1.9375 -1.64062,0.96875 -2.95312,1.45313 l 0,-2.71875 q 2.35937,-1.10938 4.125,-2.6875 1.76562,-1.57813 2.5,-3.0625 l 1.8125,0 0,23 z m 17.79687,0 -2.8125,0 0,-17.92188 q -1.01562,0.96875 -2.67187,1.9375 -1.64063,0.96875 -2.95313,1.45313 l 0,-2.71875 q 2.35938,-1.10938 4.125,-2.6875 1.76563,-1.57813 2.5,-3.0625 l 1.8125,0 0,23 z m 17.79688,0 -2.8125,0 0,-17.92188 q -1.01563,0.96875 -2.67188,1.9375 -1.64062,0.96875 -2.95312,1.45313 l 0,-2.71875 q 2.35937,-1.10938 4.125,-2.6875 1.76562,-1.57813 2.5,-3.0625 l 1.8125,0 0,23 z m 17.79687,0 -2.8125,0 0,-17.92188 q -1.01562,0.96875 -2.67187,1.9375 -1.64063,0.96875 -2.95313,1.45313 l 0,-2.71875 q 2.35938,-1.10938 4.125,-2.6875 1.76563,-1.57813 2.5,-3.0625 l 1.8125,0 0,23 z m 17.79688,0 -2.8125,0 0,-17.92188 q -1.01563,0.96875 -2.67188,1.9375 -1.64062,0.96875 -2.95312,1.45313 l 0,-2.71875 q 2.35937,-1.10938 4.125,-2.6875 1.76562,-1.57813 2.5,-3.0625 l 1.8125,0 0,23 z m 17.79687,0 -2.8125,0 0,-17.92188 q -1.01562,0.96875 -2.67187,1.9375 -1.64063,0.96875 -2.95313,1.45313 l 0,-2.71875 q 2.35938,-1.10938 4.125,-2.6875 1.76563,-1.57813 2.5,-3.0625 l 1.8125,0 0,23 z m 17.79688,0 -2.8125,0 0,-17.92188 q -1.01563,0.96875 -2.67188,1.9375 -1.64062,0.96875 -2.95312,1.45313 l 0,-2.71875 q 2.35937,-1.10938 4.125,-2.6875 1.76562,-1.57813 2.5,-3.0625 l 1.8125,0 0,23 z m 17.79687,0 -2.8125,0 0,-17.92188 q -1.01562,0.96875 -2.67187,1.9375 -1.64063,0.96875 -2.95313,1.45313 l 0,-2.71875 q 2.35938,-1.10938 4.125,-2.6875 1.76563,-1.57813 2.5,-3.0625 l 1.8125,0 0,23 z m 7.20313,-11.29688 q 0,-4.0625 0.82812,-6.53125 0.84375,-2.48437 2.48438,-3.82812 1.65625,-1.34375 4.15625,-1.34375 1.84375,0 3.23437,0.75 1.39063,0.73437 2.29688,2.14062 0.90625,1.39063 1.42187,3.40625 0.51563,2 0.51563,5.40625 0,4.03125 -0.82813,6.51563 -0.82812,2.46875 -2.48437,3.82812 -1.64063,1.34375 -4.15625,1.34375 -3.3125,0 -5.20313,-2.375 -2.26562,-2.85937 -2.26562,-9.3125 z m 2.89062,0 q 0,5.64063 1.3125,7.51563 1.32813,1.85937 3.26563,1.85937 1.9375,0 3.25,-1.875 1.32812,-1.875 1.32812,-7.5 0,-5.65625 -1.32812,-7.51562 -1.3125,-1.85938 -3.28125,-1.85938 -1.9375,0 -3.09375,1.64063 -1.45313,2.09375 -1.45313,7.73437 z m 25.5,11.29688 -2.8125,0 0,-17.92188 q -1.01562,0.96875 -2.67187,1.9375 -1.64063,0.96875 -2.95313,1.45313 l 0,-2.71875 q 2.35938,-1.10938 4.125,-2.6875 1.76563,-1.57813 2.5,-3.0625 l 1.8125,0 0,23 z m 7.2031,-11.29688 q 0,-4.0625 0.82812,-6.53125 0.84375,-2.48437 2.48438,-3.82812 1.65625,-1.34375 4.15625,-1.34375 1.84375,0 3.23437,0.75 1.39063,0.73437 2.29688,2.14062 0.90625,1.39063 1.42187,3.40625 0.51563,2 0.51563,5.40625 0,4.03125 -0.82813,6.51563 -0.82812,2.46875 -2.48437,3.82812 -1.64063,1.34375 -4.15625,1.34375 -3.3125,0 -5.20313,-2.375 -2.26562,-2.85937 -2.26562,-9.3125 z m 2.89062,0 q 0,5.64063 1.3125,7.51563 1.32813,1.85937 3.26563,1.85937 1.9375,0 3.25,-1.875 1.32812,-1.875 1.32812,-7.5 0,-5.65625 -1.32812,-7.51562 -1.3125,-1.85938 -3.28125,-1.85938 -1.9375,0 -3.09375,1.64063 -1.45313,2.09375 -1.45313,7.73437 z m 25.5,11.29688 -2.8125,0 0,-17.92188 q -1.01562,0.96875 -2.67187,1.9375 -1.64063,0.96875 -2.95313,1.45313 l 0,-2.71875 q 2.35938,-1.10938 4.125,-2.6875 1.76563,-1.57813 2.5,-3.0625 l 1.8125,0 0,23 z"
       id="path4957"
       inkscape:connector-curvature="0"
       style="fill:#e69138;fill-rule:nonzero" />
    <path
       d="m 552.5154,156.20528 q 0,-4.0625 0.82812,-6.53125 0.84375,-2.48438 2.48438,-3.82813 1.65625,-1.34375 4.15625,-1.34375 1.84375,0 3.23437,0.75 1.39063,0.73438 2.29688,2.14063 0.90625,1.39062 1.42187,3.40625 0.51563,2 0.51563,5.40625 0,4.03125 -0.82813,6.51562 -0.82812,2.46875 -2.48437,3.82813 -1.64063,1.34375 -4.15625,1.34375 -3.3125,0 -5.20313,-2.375 -2.26562,-2.85938 -2.26562,-9.3125 z m 2.89062,0 q 0,5.64062 1.3125,7.51562 1.32813,1.85938 3.26563,1.85938 1.9375,0 3.25,-1.875 1.32812,-1.875 1.32812,-7.5 0,-5.65625 -1.32812,-7.51563 -1.3125,-1.85937 -3.28125,-1.85937 -1.9375,0 -3.09375,1.64062 -1.45313,2.09375 -1.45313,7.73438 z m 14.90625,0 q 0,-4.0625 0.82813,-6.53125 0.84375,-2.48438 2.48437,-3.82813 1.65625,-1.34375 4.15625,-1.34375 1.84375,0 3.23438,0.75 1.39062,0.73438 2.29687,2.14063 0.90625,1.39062 1.42188,3.40625 0.51562,2 0.51562,5.40625 0,4.03125 -0.82812,6.51562 -0.82813,2.46875 -2.48438,3.82813 -1.64062,1.34375 -4.15625,1.34375 -3.3125,0 -5.20312,-2.375 -2.26563,-2.85938 -2.26563,-9.3125 z m 2.89063,0 q 0,5.64062 1.3125,7.51562 1.32812,1.85938 3.26562,1.85938 1.9375,0 3.25,-1.875 1.32813,-1.875 1.32813,-7.5 0,-5.65625 -1.32813,-7.51563 -1.3125,-1.85937 -3.28125,-1.85937 -1.9375,0 -3.09375,1.64062 -1.45312,2.09375 -1.45312,7.73438 z"
       id="path4959"
       inkscape:connector-curvature="0"
       style="fill:#6aa84f;fill-rule:nonzero" />
    <path
       d="m 598.7029,167.50215 -2.8125,0 0,-17.92188 q -1.01563,0.96875 -2.67188,1.9375 -1.64062,0.96875 -2.95312,1.45313 l 0,-2.71875 q 2.35937,-1.10938 4.125,-2.6875 1.76562,-1.57813 2.5,-3.0625 l 1.8125,0 0,23 z"
       id="path4961"
       inkscape:connector-curvature="0"
       style="fill:#990000;fill-rule:nonzero" />
    <path
       d="m 605.906,156.20528 q 0,-4.0625 0.82812,-6.53125 0.84375,-2.48438 2.48438,-3.82813 1.65625,-1.34375 4.15625,-1.34375 1.84375,0 3.23437,0.75 1.39063,0.73438 2.29688,2.14063 0.90625,1.39062 1.42187,3.40625 0.51563,2 0.51563,5.40625 0,4.03125 -0.82813,6.51562 -0.82812,2.46875 -2.48437,3.82813 -1.64063,1.34375 -4.15625,1.34375 -3.3125,0 -5.20313,-2.375 -2.26562,-2.85938 -2.26562,-9.3125 z m 2.89062,0 q 0,5.64062 1.3125,7.51562 1.32813,1.85938 3.26563,1.85938 1.9375,0 3.25,-1.875 1.32812,-1.875 1.32812,-7.5 0,-5.65625 -1.32812,-7.51563 -1.3125,-1.85937 -3.28125,-1.85937 -1.9375,0 -3.09375,1.64062 -1.45313,2.09375 -1.45313,7.73438 z"
       id="path4963"
       inkscape:connector-curvature="0"
       style="fill:#6aa84f;fill-rule:nonzero" />
  </g>
</svg>
