<?xml version="1.0" encoding="UTF-8" standalone="no"?>
<svg
   xmlns:dc="http://purl.org/dc/elements/1.1/"
   xmlns:cc="http://creativecommons.org/ns#"
   xmlns:rdf="http://www.w3.org/1999/02/22-rdf-syntax-ns#"
   xmlns:svg="http://www.w3.org/2000/svg"
   xmlns="http://www.w3.org/2000/svg"
   xmlns:sodipodi="http://sodipodi.sourceforge.net/DTD/sodipodi-0.dtd"
   xmlns:inkscape="http://www.inkscape.org/namespaces/inkscape"
   version="1.1"
   viewBox="0 0 777 549.99999"
   stroke-miterlimit="10"
   id="svg4740"
   inkscape:version="0.91 r13725"
   sodipodi:docname="moab_geom_2d.svg"
   width="777"
   height="550"
   style="fill:none;stroke:none;stroke-linecap:square;stroke-miterlimit:10">
  <metadata
     id="metadata4821">
    <rdf:RDF>
      <cc:Work
         rdf:about="">
        <dc:format>image/svg+xml</dc:format>
        <dc:type
           rdf:resource="http://purl.org/dc/dcmitype/StillImage" />
        <dc:title />
      </cc:Work>
    </rdf:RDF>
  </metadata>
  <defs
     id="defs4819" />
  <sodipodi:namedview
     pagecolor="#ffffff"
     bordercolor="#666666"
     borderopacity="1"
     objecttolerance="10"
     gridtolerance="10"
     guidetolerance="10"
     inkscape:pageopacity="0"
     inkscape:pageshadow="2"
     inkscape:window-width="1680"
     inkscape:window-height="1000"
     id="namedview4817"
     showgrid="false"
     fit-margin-top="0"
     fit-margin-left="0"
     fit-margin-right="0"
     fit-margin-bottom="0"
     inkscape:zoom="0.64166667"
     inkscape:cx="227.07201"
     inkscape:cy="209.15398"
     inkscape:window-x="1050"
     inkscape:window-y="27"
     inkscape:window-maximized="1"
     inkscape:current-layer="svg4740"
     units="mm" />
  <clipPath
     id="p.0">
    <path
       d="M 0,0 960,0 960,720 0,720 0,0 Z"
       id="path4743"
       inkscape:connector-curvature="0"
       style="clip-rule:nonzero" />
  </clipPath>
  <path
     style="fill:#000000;fill-opacity:0;fill-rule:evenodd"
     inkscape:connector-curvature="0"
     id="path4747"
     d="m -196.46037,-30.880635 960,0 0,719.999995 -960,0 z" />
  <path
     style="fill:#000000;fill-opacity:0;fill-rule:evenodd"
     inkscape:connector-curvature="0"
     id="path4749"
     d="m 377.46523,184.78127 165.22833,25.60629 -35.49609,310.6457 -165.22833,-25.60632 z" />
  <path
     style="fill-rule:evenodd;stroke:#4a86e8;stroke-width:2;stroke-linecap:butt;stroke-linejoin:round"
     inkscape:connector-curvature="0"
     id="path4751"
     d="m 377.46523,184.78127 165.22833,25.60629 -35.49609,310.6457 -165.22833,-25.60632 z" />
  <path
     style="fill:#000000;fill-opacity:0;fill-rule:evenodd"
     inkscape:connector-curvature="0"
     id="path4753"
     d="M 341.95323,487.34256 529.03984,307.40558 566.07921,359.56305 378.9926,539.50003 Z" />
  <path
     style="fill-rule:evenodd;stroke:#4a86e8;stroke-width:1;stroke-linecap:butt;stroke-linejoin:round;stroke-dasharray:4, 3"
     inkscape:connector-curvature="0"
     id="path4755"
     d="M 341.95323,487.34256 529.03984,307.40558 566.07921,359.56305 378.9926,539.50003 Z" />
  <path
     style="fill:#000000;fill-opacity:0;fill-rule:evenodd"
     inkscape:connector-curvature="0"
     id="path4757"
     d="m 398.21373,158.41903 141.7323,131.1811 -20.28345,29.66928 -141.7323,-131.18109 z" />
  <path
     style="fill-rule:evenodd;stroke:#4a86e8;stroke-width:1;stroke-linecap:butt;stroke-linejoin:round;stroke-dasharray:4, 3"
     inkscape:connector-curvature="0"
     id="path4759"
     d="m 398.21373,158.41903 141.7323,131.1811 -20.28345,29.66928 -141.7323,-131.18109 z" />
  <path
     style="fill:#000000;fill-opacity:0;fill-rule:evenodd"
     inkscape:connector-curvature="0"
     id="path4761"
     d="m 52.24591,436.48844 75.14961,56.53546" />
  <path
     style="fill-rule:evenodd;stroke:#ff0000;stroke-width:3;stroke-linecap:butt;stroke-linejoin:round"
     inkscape:connector-curvature="0"
     id="path4763"
     d="m 52.24591,436.48844 75.14961,56.53546" />
  <path
     style="fill:#000000;fill-opacity:0;fill-rule:evenodd"
     inkscape:connector-curvature="0"
     id="path4765"
     d="m 127.42556,492.99096 89.29132,-32.75592" />
  <path
     style="fill-rule:evenodd;stroke:#ff0000;stroke-width:3;stroke-linecap:butt;stroke-linejoin:round"
     inkscape:connector-curvature="0"
     id="path4767"
     d="m 127.42556,492.99096 89.29132,-32.75592" />
  <path
     style="fill:#000000;fill-opacity:0;fill-rule:evenodd"
     inkscape:connector-curvature="0"
     id="path4769"
     d="m 216.69905,458.38352 125.25983,36.44092" />
  <path
     style="fill-rule:evenodd;stroke:#ff0000;stroke-width:3;stroke-linecap:butt;stroke-linejoin:round"
     inkscape:connector-curvature="0"
     id="path4771"
     d="m 216.69905,458.38352 125.25983,36.44092" />
  <path
     style="fill:#000000;fill-opacity:0;fill-rule:evenodd"
     inkscape:connector-curvature="0"
     id="path4773"
     d="M 341.95323,494.79876 478.20524,441.91689" />
  <path
     style="fill-rule:evenodd;stroke:#0000ff;stroke-width:3;stroke-linecap:butt;stroke-linejoin:round"
     inkscape:connector-curvature="0"
     id="path4775"
     d="M 341.95323,494.79876 478.20524,441.91689" />
  <path
     style="fill:#000000;fill-opacity:0;fill-rule:evenodd"
     inkscape:connector-curvature="0"
     id="path4777"
     d="m 478.1816,441.94068 48.53546,-129.3858" />
  <path
     style="fill-rule:evenodd;stroke:#0000ff;stroke-width:3;stroke-linecap:butt;stroke-linejoin:round"
     inkscape:connector-curvature="0"
     id="path4779"
     d="m 478.1816,441.94068 48.53546,-129.3858" />
  <path
     style="fill:#000000;fill-opacity:0;fill-rule:evenodd"
     inkscape:connector-curvature="0"
     id="path4781"
     d="M 0.99997006,349.51081 325.15744,98.73914 377.09445,189.69977 52.93698,440.47144 Z" />
  <path
     style="fill-rule:evenodd;stroke:#93c47d;stroke-width:2;stroke-linecap:butt;stroke-linejoin:round"
     inkscape:connector-curvature="0"
     id="path4783"
     d="M 0.99997006,349.51081 325.15744,98.73914 377.09445,189.69977 52.93698,440.47144 Z" />
  <path
     style="fill:#000000;fill-opacity:0;fill-rule:evenodd"
     inkscape:connector-curvature="0"
     id="path4785"
     d="M 528.3055,312.57902 468.77791,230.27983" />
  <path
     style="fill-rule:evenodd;stroke:#0000ff;stroke-width:3;stroke-linecap:butt;stroke-linejoin:round"
     inkscape:connector-curvature="0"
     id="path4787"
     d="M 528.3055,312.57902 468.77791,230.27983" />
  <path
     style="fill:#000000;fill-opacity:0;fill-rule:evenodd"
     inkscape:connector-curvature="0"
     id="path4789"
     d="M 468.79803,230.58016 377.93188,188.69039" />
  <path
     style="fill-rule:evenodd;stroke:#0000ff;stroke-width:3;stroke-linecap:butt;stroke-linejoin:round"
     inkscape:connector-curvature="0"
     id="path4791"
     d="M 468.79803,230.58016 377.93188,188.69039" />
  <path
     style="fill:#000000;fill-opacity:0;fill-rule:evenodd"
     inkscape:connector-curvature="0"
     id="path4793"
     d="M 52.24591,436.4741 89.85222,283.40324" />
  <path
     style="fill-rule:evenodd;stroke:#38761d;stroke-width:3;stroke-linecap:butt;stroke-linejoin:round"
     inkscape:connector-curvature="0"
     id="path4795"
     d="M 52.24591,436.4741 89.85222,283.40324" />
  <path
     style="fill:#000000;fill-opacity:0;fill-rule:evenodd"
     inkscape:connector-curvature="0"
     id="path4797"
     d="M 89.82958,283.40952 379.53036,186.84258" />
  <path
     style="fill-rule:evenodd;stroke:#38761d;stroke-width:3;stroke-linecap:butt;stroke-linejoin:round"
     inkscape:connector-curvature="0"
     id="path4799"
     d="M 89.82958,283.40952 379.53036,186.84258" />
  <path
     style="fill:#000000;fill-opacity:0;fill-rule:evenodd"
     inkscape:connector-curvature="0"
     id="path4801"
     d="m 50.79091,427.05226 293.92126,49.98422 -6.80316,54.14173 -293.92126,-49.98426 z" />
  <path
     style="fill-rule:evenodd;stroke:#e06666;stroke-width:2;stroke-linecap:butt;stroke-linejoin:round"
     inkscape:connector-curvature="0"
     id="path4803"
     d="m 50.79091,427.05226 293.92126,49.98422 -6.80316,54.14173 -293.92126,-49.98426 z" />
  <path
     style="fill:#000000;fill-opacity:0;fill-rule:evenodd"
     inkscape:connector-curvature="0"
     id="path4805"
     d="m 46.94796,432.88233 176.44095,14.55118 -3.52756,57.07086 L 43.4204,489.95316 Z" />
  <path
     style="fill-rule:evenodd;stroke:#e06666;stroke-width:1;stroke-linecap:butt;stroke-linejoin:round;stroke-dasharray:4, 3"
     inkscape:connector-curvature="0"
     id="path4807"
     d="m 46.94796,432.88233 176.44095,14.55118 -3.52756,57.07086 L 43.4204,489.95316 Z" />
  <path
     style="fill:#000000;fill-opacity:0;fill-rule:evenodd"
     inkscape:connector-curvature="0"
     id="path4809"
     d="m 220.58327,448.70316 122.86615,36.22046 -4.78741,22.11023 -122.86612,-36.22046 z" />
  <path
     style="fill-rule:evenodd;stroke:#e06666;stroke-width:1;stroke-linecap:butt;stroke-linejoin:round;stroke-dasharray:4, 3"
     inkscape:connector-curvature="0"
     id="path4811"
     d="m 220.58327,448.70316 122.86615,36.22046 -4.78741,22.11023 -122.86612,-36.22046 z" />
  <path
     style="fill:#000000;fill-opacity:0;fill-rule:evenodd"
     inkscape:connector-curvature="0"
     id="path4813"
     d="m 59.30341,0.47894574 495.1181,0 0,108.25195426 -495.1181,0 z" />
  <path
     style="fill:#000000;fill-rule:nonzero"
     inkscape:connector-curvature="0"
     id="path4815"
     d="m 145.78828,47.798715 0,-28.418656 19.16283,0 0,3.364348 -15.39538,0 0,8.790714 13.33336,0 0,3.34884 -13.33336,0 0,12.914754 -3.76745,0 z m 37.03496,-2.54264 q -1.938,1.643414 -3.73646,2.325586 -1.78293,0.682172 -3.84496,0.682172 -3.37986,0 -5.20931,-1.658918 -1.81396,-1.658918 -1.81396,-4.232566 0,-1.519384 0.68217,-2.759696 0.68218,-1.255817 1.79845,-2.000004 1.11629,-0.759691 2.51165,-1.147289 1.02325,-0.27907 3.10078,-0.527133 4.23255,-0.511628 6.21705,-1.209305 0.031,-0.71318 0.031,-0.899226 0,-2.139535 -0.99225,-3.007753 -1.33334,-1.178298 -3.969,-1.178298 -2.46511,0 -3.64341,0.868219 -1.1628,0.852714 -1.73644,3.038762 l -3.41086,-0.465113 q 0.46513,-2.186052 1.53488,-3.534892 1.06978,-1.348839 3.08529,-2.077522 2.01551,-0.728684 4.66666,-0.728684 2.63567,0 4.27909,0.620156 1.65892,0.620156 2.43412,1.565894 0.77519,0.945738 1.08528,2.372098 0.17053,0.899227 0.17053,3.224809 l 0,4.651172 q 0,4.852722 0.21704,6.155051 0.23258,1.286824 0.88374,2.46512 l -3.64342,0 q -0.54263,-1.085272 -0.69767,-2.54264 z m -0.29459,-7.782961 q -1.89147,0.775195 -5.68993,1.317832 -2.15504,0.310078 -3.05427,0.697676 -0.88371,0.387598 -1.36435,1.131785 -0.48061,0.744188 -0.48061,1.658918 0,1.395352 1.05427,2.325586 1.05426,0.930234 3.08527,0.930234 2.0155,0 3.58141,-0.883723 1.58139,-0.883722 2.31007,-2.418609 0.55814,-1.178297 0.55814,-3.488379 l 0,-1.27132 z m 22.36827,2.790704 3.42636,0.434109 q -0.55814,3.550394 -2.88372,5.565901 -2.31009,2.000005 -5.67443,2.000005 -4.23257,0 -6.80622,-2.759695 -2.55815,-2.759695 -2.55815,-7.922497 0,-3.333339 1.10078,-5.829465 1.11629,-2.496129 3.36435,-3.751945 2.26358,-1.255816 4.91473,-1.255816 3.34885,0 5.47289,1.70543 2.13954,1.689925 2.74419,4.806207 l -3.39536,0.527132 q -0.48062,-2.077519 -1.72093,-3.116281 -1.2248,-1.054265 -2.96124,-1.054265 -2.63567,0 -4.2946,1.891476 -1.6434,1.891472 -1.6434,5.984503 0,4.139544 1.58139,6.031021 1.5969,1.875972 4.15505,1.875972 2.06202,0 3.42637,-1.255816 1.37985,-1.27132 1.75194,-3.875976 z m 20.51167,0.899226 3.5969,0.449613 q -0.85271,3.162796 -3.16279,4.914738 -2.29458,1.736438 -5.89148,1.736438 -4.51164,0 -7.16282,-2.7752 -2.63566,-2.790703 -2.63566,-7.813968 0,-5.193805 2.66668,-8.062027 2.68217,-2.868223 6.94575,-2.868223 4.12403,0 6.74419,2.821711 2.62017,2.806207 2.62017,7.906988 0,0.310079 -0.031,0.930235 l -15.34887,0 q 0.20155,3.379851 1.92248,5.193808 1.72093,1.798453 4.31009,1.798453 1.90698,0 3.25582,-1.007754 1.36434,-1.007754 2.17055,-3.224812 z m -11.45739,-5.627918 11.48839,0 q -0.23255,-2.604652 -1.31782,-3.906981 -1.65893,-2.015507 -4.32559,-2.015507 -2.40312,0 -4.04653,1.612406 -1.62791,1.612406 -1.79845,4.310082 z m 27.05044,9.147304 0.51163,3.069773 q -1.47287,0.325583 -2.63565,0.325583 -1.90699,0 -2.96126,-0.604653 -1.03876,-0.604652 -1.47287,-1.581398 -0.41861,-0.976746 -0.41861,-4.124039 l 0,-11.844981 -2.55814,0 0,-2.713183 2.55814,0 0,-5.085281 3.47288,-2.093027 0,7.178308 3.50388,0 0,2.713183 -3.50388,0 0,12.046532 q 0,1.488375 0.18605,1.922484 0.18604,0.418605 0.58914,0.666668 0.41862,0.248062 1.19381,0.248062 0.58914,0 1.53488,-0.124031 z m 17.50778,-3.519386 3.5969,0.449613 q -0.8527,3.162796 -3.16278,4.914738 -2.29459,1.736438 -5.89149,1.736438 -4.51163,0 -7.16281,-2.7752 -2.63567,-2.790703 -2.63567,-7.813968 0,-5.193805 2.66668,-8.062027 2.68218,-2.868223 6.94575,-2.868223 4.12404,0 6.7442,2.821711 2.62016,2.806207 2.62016,7.906988 0,0.310079 -0.031,0.930235 l -15.34886,0 q 0.20155,3.379851 1.92249,5.193808 1.72092,1.798453 4.31008,1.798453 1.90698,0 3.25582,-1.007754 1.36435,-1.007754 2.17055,-3.224812 z m -11.45738,-5.627918 11.48839,0 q -0.23255,-2.604652 -1.31782,-3.906981 -1.65893,-2.015507 -4.32559,-2.015507 -2.40312,0 -4.04653,1.612406 -1.62792,1.612406 -1.79845,4.310082 z m 32.78688,12.263589 0,-2.604656 q -1.95348,3.069774 -5.75195,3.069774 -2.4651,0 -4.52714,-1.348841 -2.06201,-1.364343 -3.19379,-3.798456 -1.13179,-2.434114 -1.13179,-5.59691 0,-3.069774 1.02326,-5.581402 1.02326,-2.511634 3.06977,-3.844969 2.06202,-1.34884 4.60466,-1.34884 1.86047,0 3.30233,0.790699 1.45737,0.790699 2.3721,2.046516 l 0,-10.201571 3.47288,0 0,28.418656 -3.24033,0 z M 268.81565,37.519626 q 0,3.953496 1.65892,5.922491 1.67442,1.953493 3.938,1.953493 2.29457,0 3.89146,-1.860469 1.59692,-1.875972 1.59692,-5.720941 0,-4.217062 -1.62791,-6.186055 -1.62791,-1.9845 -4.01552,-1.9845 -2.32558,0 -3.89149,1.906981 -1.55038,1.891473 -1.55038,5.969 z m 44.51171,-0.868219 0,-3.333339 12.03102,-0.01551 0,10.542656 q -2.75971,2.201555 -5.70544,3.317837 -2.94575,1.116281 -6.0465,1.116281 -4.18605,0 -7.61243,-1.782949 -3.42636,-1.798454 -5.1783,-5.193809 -1.73644,-3.395356 -1.73644,-7.58141 0,-4.13954 1.73644,-7.736446 1.73644,-3.596907 4.99227,-5.333344 3.2558,-1.751941 7.50388,-1.751941 3.08525,0 5.56588,1.007753 2.49612,0.99225 3.90698,2.775201 1.41085,1.782948 2.15503,4.651171 l -3.39534,0.930235 q -0.63567,-2.170547 -1.5969,-3.41086 -0.94574,-1.240312 -2.71318,-1.9845 -1.75192,-0.744187 -3.90697,-0.744187 -2.57364,0 -4.46512,0.790699 -1.87598,0.775195 -3.02327,2.062019 -1.14728,1.27132 -1.79845,2.806207 -1.08527,2.635664 -1.08527,5.705435 0,3.798455 1.30233,6.356601 1.31783,2.558144 3.81395,3.798457 2.51165,1.240312 5.31786,1.240312 2.43406,0 4.75966,-0.930235 2.32558,-0.945738 3.53489,-2.015507 l 0,-5.286832 -8.35658,0 z m 31.22871,4.511637 3.59691,0.449613 q -0.85271,3.162796 -3.16279,4.914738 -2.29458,1.736438 -5.89149,1.736438 -4.51163,0 -7.1628,-2.7752 -2.63567,-2.790703 -2.63567,-7.813968 0,-5.193805 2.66667,-8.062027 2.68218,-2.868223 6.94575,-2.868223 4.12404,0 6.7442,2.821711 2.62016,2.806207 2.62016,7.906988 0,0.310079 -0.031,0.930235 l -15.34887,0 q 0.20154,3.379851 1.92248,5.193808 1.72094,1.798453 4.31009,1.798453 1.90697,0 3.25582,-1.007754 1.36434,-1.007754 2.17054,-3.224812 z m -11.45738,-5.627918 11.4884,0 q -0.23256,-2.604652 -1.31783,-3.906981 -1.65892,-2.015507 -4.32559,-2.015507 -2.40311,0 -4.04653,1.612406 -1.62791,1.612406 -1.79845,4.310082 z m 18.13569,1.968996 q 0,-5.720938 3.17831,-8.46513 2.65116,-2.294577 6.48064,-2.294577 4.23255,0 6.93024,2.790702 2.69767,2.775201 2.69767,7.67443 0,3.984505 -1.19379,6.263579 -1.19381,2.26357 -3.47287,3.53489 -2.27909,1.255817 -4.96125,1.255817 -4.3256,0 -6.99228,-2.7752 -2.66667,-2.775199 -2.66667,-7.984511 z m 3.58141,0 q 0,3.953495 1.72093,5.922492 1.73644,1.968996 4.35661,1.968996 2.58914,0 4.31008,-1.968996 1.73644,-1.9845 1.73644,-6.031019 0,-3.829465 -1.73644,-5.782954 -1.73644,-1.968996 -4.31008,-1.968996 -2.62017,0 -4.35661,1.953493 -1.72093,1.953488 -1.72093,5.906984 z m 19.79461,10.294593 0,-20.589183 3.11629,0 0,2.899231 q 0.97674,-1.519383 2.57365,-2.434115 1.6124,-0.930233 3.67442,-0.930233 2.27908,0 3.73644,0.961242 1.47288,0.945738 2.07753,2.651168 2.43411,-3.61241 6.35659,-3.61241 3.05429,0 4.69769,1.70543 1.65892,1.689925 1.65892,5.224812 l 0,14.124058 -3.47288,0 0,-12.961265 q 0,-2.093024 -0.34109,-3.007754 -0.34108,-0.930235 -1.24031,-1.488375 -0.88372,-0.573645 -2.07752,-0.573645 -2.17054,0 -3.6124,1.457368 -1.42636,1.441863 -1.42636,4.620159 l 0,11.953512 -3.48839,0 0,-13.37987 q 0,-2.325582 -0.85271,-3.488375 -0.85272,-1.162794 -2.7907,-1.162794 -1.47288,0 -2.72869,0.775195 -1.25582,0.775197 -1.81397,2.279075 -0.55814,1.488372 -0.55814,4.294578 l 0,10.682191 -3.48837,0 z m 47.15513,-6.635671 3.59692,0.449613 q -0.85272,3.162796 -3.1628,4.914738 -2.29458,1.736438 -5.89149,1.736438 -4.51164,0 -7.16281,-2.7752 -2.63565,-2.790703 -2.63565,-7.813968 0,-5.193805 2.66667,-8.062027 2.68217,-2.868223 6.94575,-2.868223 4.12403,0 6.74419,2.821711 2.62016,2.806207 2.62016,7.906988 0,0.310079 -0.031,0.930235 l -15.34888,0 q 0.20156,3.379851 1.92248,5.193808 1.72094,1.798453 4.3101,1.798453 1.90698,0 3.25582,-1.007754 1.36433,-1.007754 2.17054,-3.224812 z m -11.45739,-5.627918 11.4884,0 q -0.23256,-2.604652 -1.31783,-3.906981 -1.65892,-2.015507 -4.32559,-2.015507 -2.40311,0 -4.04651,1.612406 -1.62791,1.612406 -1.79847,4.310082 z m 27.05045,9.147304 0.51161,3.069773 q -1.47285,0.325583 -2.63565,0.325583 -1.90697,0 -2.96124,-0.604653 -1.03877,-0.604652 -1.47288,-1.581398 -0.4186,-0.976746 -0.4186,-4.124039 l 0,-11.844981 -2.55815,0 0,-2.713183 2.55815,0 0,-5.085281 3.47288,-2.093027 0,7.178308 3.50388,0 0,2.713183 -3.50388,0 0,12.046532 q 0,1.488375 0.18604,1.922484 0.18605,0.418605 0.58915,0.666668 0.41861,0.248062 1.19379,0.248062 0.58916,0 1.5349,-0.124031 z m 3.36822,3.116285 0,-20.589183 3.14729,0 0,3.131789 q 1.1938,-2.201555 2.21707,-2.899231 1.02324,-0.697675 2.23256,-0.697675 1.76743,0 3.5969,1.131785 l -1.2093,3.240316 q -1.27132,-0.759691 -2.55815,-0.759691 -1.14728,0 -2.06201,0.697676 -0.89923,0.682171 -1.28683,1.891476 -0.58914,1.860466 -0.58914,4.077524 l 0,10.775214 -3.48839,0 z m 13.10856,7.922496 -0.38761,-3.271323 q 1.14729,0.310077 2.00001,0.310077 1.16279,0 1.86047,-0.387598 0.69768,-0.387597 1.13179,-1.085272 0.34107,-0.527134 1.06976,-2.589152 0.0929,-0.294576 0.31008,-0.852716 l -7.81397,-20.635695 3.76745,0 4.27908,11.9225 q 0.83721,2.26357 1.48837,4.775203 0.60466,-2.403105 1.44186,-4.697683 l 4.40312,-12.00002 3.48837,0 -7.82947,20.945773 q -1.27131,3.379852 -1.96899,4.666676 -0.93024,1.720934 -2.13954,2.527136 -1.19379,0.806204 -2.85272,0.806204 -1.00775,0 -2.24806,-0.43411 z" />
</svg>
