<?xml version="1.0" encoding="UTF-8" standalone="no"?>
<svg
   xmlns:dc="http://purl.org/dc/elements/1.1/"
   xmlns:cc="http://creativecommons.org/ns#"
   xmlns:rdf="http://www.w3.org/1999/02/22-rdf-syntax-ns#"
   xmlns:svg="http://www.w3.org/2000/svg"
   xmlns="http://www.w3.org/2000/svg"
   xmlns:sodipodi="http://sodipodi.sourceforge.net/DTD/sodipodi-0.dtd"
   xmlns:inkscape="http://www.inkscape.org/namespaces/inkscape"
   version="1.1"
   viewBox="0 0 776.336 506.32941"
   stroke-miterlimit="10"
   id="svg5710"
   inkscape:version="0.91 r13725"
   sodipodi:docname="moab_tree_topology.svg"
   width="776.336"
   height="506.32941"
   style="fill:none;stroke:none;stroke-linecap:square;stroke-miterlimit:10">
  <metadata
     id="metadata5925">
    <rdf:RDF>
      <cc:Work
         rdf:about="">
        <dc:format>image/svg+xml</dc:format>
        <dc:type
           rdf:resource="http://purl.org/dc/dcmitype/StillImage" />
        <dc:title></dc:title>
      </cc:Work>
    </rdf:RDF>
  </metadata>
  <defs
     id="defs5923" />
  <sodipodi:namedview
     pagecolor="#ffffff"
     bordercolor="#666666"
     borderopacity="1"
     objecttolerance="10"
     gridtolerance="10"
     guidetolerance="10"
     inkscape:pageopacity="0"
     inkscape:pageshadow="2"
     inkscape:window-width="1680"
     inkscape:window-height="1000"
     id="namedview5921"
     showgrid="false"
     fit-margin-top="0"
     fit-margin-left="0"
     fit-margin-right="0"
     fit-margin-bottom="0"
     inkscape:zoom="0.64166667"
     inkscape:cx="244.54721"
     inkscape:cy="224.43876"
     inkscape:window-x="1050"
     inkscape:window-y="27"
     inkscape:window-maximized="1"
     inkscape:current-layer="svg5710"
     showborder="true" />
  <clipPath
     id="p.0">
    <path
       d="M 0,0 960,0 960,720 0,720 0,0 Z"
       id="path5713"
       inkscape:connector-curvature="0"
       style="clip-rule:nonzero" />
  </clipPath>
  <path
     style="fill:#000000;fill-opacity:0;fill-rule:evenodd"
     inkscape:connector-curvature="0"
     id="path5717"
     d="m -91.83071,-40.87139 960,0 0,720 -960,0 z" />
  <g
     id="g6787"
     transform="translate(0,-43.191652)">
    <path
       d="m 36.95406,404.99216 0,0 c 0,-20.98682 17.94386,-38 40.07873,-38 l 0,0 c 10.62955,0 20.82374,4.00357 28.33996,11.12994 7.51622,7.12641 11.7388,16.79184 11.7388,26.87006 l 0,0 c 0,20.98682 -17.94387,38 -40.07875,38 l 0,0 c -22.13488,0 -40.07874,-17.01318 -40.07874,-38 z"
       id="path5719"
       inkscape:connector-curvature="0"
       style="fill:#000000;fill-opacity:0;fill-rule:evenodd" />
    <path
       d="m 36.95406,404.99216 0,0 c 0,-20.98682 17.94386,-38 40.07873,-38 l 0,0 c 10.62955,0 20.82374,4.00357 28.33996,11.12994 7.51622,7.12641 11.7388,16.79184 11.7388,26.87006 l 0,0 c 0,20.98682 -17.94387,38 -40.07875,38 l 0,0 c -22.13488,0 -40.07874,-17.01318 -40.07874,-38 z"
       id="path5721"
       inkscape:connector-curvature="0"
       style="fill-rule:evenodd;stroke:#ff0000;stroke-width:1;stroke-linecap:butt;stroke-linejoin:round;stroke-dasharray:4, 3" />
    <path
       d="m 61.89999,409.51219 0,-8.59375 3.23438,0 q 0.98437,0 1.57812,0.26563 0.59375,0.26562 0.92188,0.8125 0.34375,0.53125 0.34375,1.125 0,0.54687 -0.29688,1.03125 -0.29687,0.48437 -0.90625,0.78125 0.78125,0.23437 1.1875,0.79687 0.42188,0.54688 0.42188,1.29688 0,0.59375 -0.25,1.125 -0.25,0.51562 -0.625,0.79687 -0.375,0.28125 -0.95313,0.42188 -0.5625,0.14062 -1.375,0.14062 l -3.28125,0 z m 1.14063,-4.98437 1.85937,0 q 0.75,0 1.07813,-0.0937 0.4375,-0.125 0.65625,-0.42188 0.21875,-0.3125 0.21875,-0.76562 0,-0.42188 -0.20313,-0.75 -0.20312,-0.32813 -0.59375,-0.4375 -0.375,-0.125 -1.29687,-0.125 l -1.71875,0 0,2.59375 z m 0,3.96875 2.14062,0 q 0.54688,0 0.76563,-0.0469 0.40625,-0.0625 0.65625,-0.21875 0.26562,-0.17187 0.4375,-0.48437 0.17187,-0.3125 0.17187,-0.71875 0,-0.48438 -0.25,-0.84375 -0.23437,-0.35938 -0.67187,-0.5 -0.4375,-0.14063 -1.26563,-0.14063 l -1.98437,0 0,2.95313 z m 6.39453,-2.09375 q 0,-1.73438 0.95312,-2.5625 0.79688,-0.6875 1.95313,-0.6875 1.28125,0 2.09375,0.84375 0.82812,0.82812 0.82812,2.3125 0,1.20312 -0.35937,1.89062 -0.35938,0.6875 -1.0625,1.07813 -0.6875,0.375 -1.5,0.375 -1.29688,0 -2.10938,-0.82813 -0.79687,-0.84375 -0.79687,-2.42187 z m 1.07812,0 q 0,1.1875 0.51563,1.78125 0.53125,0.59375 1.3125,0.59375 0.79687,0 1.3125,-0.59375 0.51562,-0.59375 0.51562,-1.8125 0,-1.15625 -0.53125,-1.75 -0.51562,-0.59375 -1.29687,-0.59375 -0.78125,0 -1.3125,0.59375 -0.51563,0.57812 -0.51563,1.78125 z m 5.2832,3.10937 2.26563,-3.23437 -2.09375,-2.98438 1.3125,0 0.95312,1.45313 q 0.26563,0.42187 0.4375,0.70312 0.25,-0.39062 0.46875,-0.6875 l 1.04688,-1.46875 1.26564,0 -2.15627,2.92188 2.31252,3.29687 -1.28127,0 -1.28125,-1.9375 -0.34375,-0.51562 -1.64062,2.45312 -1.26563,0 z m 9.22463,0 3.29687,-8.59375 1.21875,0 3.51563,8.59375 -1.28125,0 -1.01563,-2.60937 -3.57812,0 -0.95313,2.60937 -1.20312,0 z m 2.48437,-3.53125 2.90625,0 -0.89062,-2.375 q -0.42188,-1.07812 -0.60938,-1.78125 -0.17187,0.82813 -0.46875,1.64063 l -0.9375,2.51562 z"
       id="path5723"
       inkscape:connector-curvature="0"
       style="fill:#000000;fill-rule:nonzero" />
    <path
       d="m 84.16142,508.17591 0,0 c 0,-20.98682 15.70177,-38 35.07086,-38 l 0,0 c 9.30138,0 18.22179,4.00354 24.79886,11.12994 6.57706,7.12635 10.27202,16.79181 10.27202,26.87006 l 0,0 c 0,20.98682 -15.70177,38 -35.07088,38 l 0,0 c -19.3691,0 -35.07086,-17.01318 -35.07086,-38 z"
       id="path5725"
       inkscape:connector-curvature="0"
       style="fill:#000000;fill-opacity:0;fill-rule:evenodd" />
    <path
       d="m 84.16142,508.17591 0,0 c 0,-20.98682 15.70177,-38 35.07086,-38 l 0,0 c 9.30138,0 18.22179,4.00354 24.79886,11.12994 6.57706,7.12635 10.27202,16.79181 10.27202,26.87006 l 0,0 c 0,20.98682 -15.70177,38 -35.07088,38 l 0,0 c -19.3691,0 -35.07086,-17.01318 -35.07086,-38 z"
       id="path5727"
       inkscape:connector-curvature="0"
       style="fill-rule:evenodd;stroke:#e06666;stroke-width:3;stroke-linecap:butt;stroke-linejoin:round" />
    <path
       d="m 105.21079,505.69596 0,-8.59375 5.79688,0 0,1.01563 -4.65625,0 0,2.65625 4.03125,0 0,1.01562 -4.03125,0 0,3.90625 -1.14063,0 z m 11.20508,-0.76562 q -0.59375,0.5 -1.14063,0.70312 -0.53125,0.20313 -1.15625,0.20313 -1.03125,0 -1.57812,-0.5 -0.54688,-0.5 -0.54688,-1.28125 0,-0.45313 0.20313,-0.82813 0.20312,-0.39062 0.54687,-0.60937 0.34375,-0.23438 0.76563,-0.34375 0.29687,-0.0937 0.9375,-0.17188 1.26562,-0.14062 1.875,-0.35937 0,-0.21875 0,-0.26563 0,-0.65625 -0.29688,-0.92187 -0.40625,-0.34375 -1.20312,-0.34375 -0.73438,0 -1.09375,0.26562 -0.35938,0.25 -0.53125,0.90625 l -1.03125,-0.14062 q 0.14062,-0.65625 0.46875,-1.0625 0.32812,-0.40625 0.9375,-0.625 0.60937,-0.21875 1.40625,-0.21875 0.79687,0 1.29687,0.1875 0.5,0.1875 0.73438,0.46875 0.23437,0.28125 0.32812,0.71875 0.0469,0.26562 0.0469,0.96875 l 0,1.40625 q 0,1.46875 0.0625,1.85937 0.0781,0.39063 0.28125,0.75 l -1.10938,0 q -0.15625,-0.32812 -0.20312,-0.76562 z m -0.0937,-2.35938 q -0.57813,0.23438 -1.71875,0.40625 -0.65625,0.0937 -0.92188,0.21875 -0.26562,0.10938 -0.42187,0.32813 -0.14063,0.21875 -0.14063,0.5 0,0.42187 0.3125,0.70312 0.32813,0.28125 0.9375,0.28125 0.60938,0 1.07813,-0.26562 0.48437,-0.26563 0.70312,-0.73438 0.17188,-0.35937 0.17188,-1.04687 l 0,-0.39063 z m 6.76758,0.84375 1.03125,0.14063 q -0.17188,1.0625 -0.875,1.67187 -0.70313,0.60938 -1.71875,0.60938 -1.28125,0 -2.0625,-0.82813 -0.76563,-0.84375 -0.76563,-2.40625 0,-1 0.32813,-1.75 0.34375,-0.76562 1.01562,-1.14062 0.6875,-0.375 1.5,-0.375 1,0 1.64063,0.51562 0.65625,0.5 0.84375,1.45313 l -1.03125,0.15625 q -0.14063,-0.625 -0.51563,-0.9375 -0.375,-0.32813 -0.90625,-0.32813 -0.79687,0 -1.29687,0.57813 -0.5,0.5625 -0.5,1.79687 0,1.26563 0.48437,1.82813 0.48438,0.5625 1.25,0.5625 0.625,0 1.03125,-0.375 0.42188,-0.375 0.54688,-1.17188 z m 6.1875,0.28125 1.09375,0.125 q -0.25,0.95313 -0.95313,1.48438 -0.70312,0.53125 -1.78125,0.53125 -1.35937,0 -2.17187,-0.84375 -0.79688,-0.84375 -0.79688,-2.35938 0,-1.5625 0.8125,-2.42187 0.8125,-0.875 2.09375,-0.875 1.25,0 2.03125,0.84375 0.79688,0.84375 0.79688,2.39062 0,0.0937 0,0.28125 l -4.64063,0 q 0.0625,1.03125 0.57813,1.57813 0.51562,0.53125 1.29687,0.53125 0.57813,0 0.98438,-0.29688 0.42187,-0.3125 0.65625,-0.96875 z m -3.45313,-1.70312 3.46875,0 q -0.0625,-0.79688 -0.39062,-1.1875 -0.51563,-0.60938 -1.3125,-0.60938 -0.73438,0 -1.23438,0.48438 -0.48437,0.48437 -0.53125,1.3125 z m 8.17383,2.76562 0.15625,0.92188 q -0.45313,0.0937 -0.79688,0.0937 -0.57812,0 -0.89062,-0.17188 -0.3125,-0.1875 -0.45313,-0.48437 -0.125,-0.29688 -0.125,-1.25 l 0,-3.57813 -0.76562,0 0,-0.8125 0.76562,0 0,-1.54687 1.04688,-0.625 0,2.17187 1.0625,0 0,0.8125 -1.0625,0 0,3.64063 q 0,0.45312 0.0469,0.57812 0.0625,0.125 0.1875,0.20313 0.125,0.0781 0.35938,0.0781 0.1875,0 0.46875,-0.0312 z"
       id="path5729"
       inkscape:connector-curvature="0"
       style="fill:#000000;fill-rule:nonzero" />
    <path
       d="m 121.94224,518.68031 0,1.01562 -5.6875,0 q 0,-0.375 0.125,-0.73437 0.21875,-0.57813 0.6875,-1.14063 0.48437,-0.5625 1.39062,-1.29687 1.40625,-1.15625 1.89063,-1.82813 0.5,-0.67187 0.5,-1.26562 0,-0.625 -0.45313,-1.04688 -0.45312,-0.4375 -1.17187,-0.4375 -0.76563,0 -1.21875,0.45313 -0.45313,0.45312 -0.46875,1.26562 l -1.07813,-0.10937 q 0.10938,-1.21875 0.82813,-1.84375 0.73437,-0.64063 1.96875,-0.64063 1.23437,0 1.95312,0.6875 0.71875,0.6875 0.71875,1.70313 0,0.51562 -0.21875,1.01562 -0.20312,0.48438 -0.70312,1.04688 -0.48438,0.54687 -1.60938,1.5 -0.95312,0.79687 -1.23437,1.09375 -0.26563,0.28125 -0.4375,0.5625 l 4.21875,0 z"
       id="path5731"
       inkscape:connector-curvature="0"
       style="fill:#000000;fill-rule:nonzero" />
    <path
       d="m 179.78346,338.04596 27.1181,28.94489"
       id="path5733"
       inkscape:connector-curvature="0"
       style="fill:#000000;fill-opacity:0;fill-rule:evenodd" />
    <path
       d="m 179.78346,338.04596 27.1181,28.94489"
       id="path5735"
       inkscape:connector-curvature="0"
       style="fill-rule:evenodd;stroke:#ff0000;stroke-width:1;stroke-linecap:butt;stroke-linejoin:round" />
    <path
       d="M 48.69286,431.86222 36.56687,470.16144"
       id="path5737"
       inkscape:connector-curvature="0"
       style="fill:#000000;fill-opacity:0;fill-rule:evenodd" />
    <path
       d="M 48.69286,431.86222 36.56687,470.16144"
       id="path5739"
       inkscape:connector-curvature="0"
       style="fill-rule:evenodd;stroke:#ff0000;stroke-width:1;stroke-linecap:butt;stroke-linejoin:round" />
    <path
       d="m 105.37275,431.86222 13.85828,38.29922"
       id="path5741"
       inkscape:connector-curvature="0"
       style="fill:#000000;fill-opacity:0;fill-rule:evenodd" />
    <path
       d="m 105.37275,431.86222 13.85828,38.29922"
       id="path5743"
       inkscape:connector-curvature="0"
       style="fill-rule:evenodd;stroke:#ff0000;stroke-width:1;stroke-linecap:butt;stroke-linejoin:round" />
    <path
       d="m 105.37275,378.12211 0,0"
       id="path5745"
       inkscape:connector-curvature="0"
       style="fill:#000000;fill-opacity:0;fill-rule:evenodd" />
    <path
       d="m 105.37275,378.12211 0,0"
       id="path5747"
       inkscape:connector-curvature="0"
       style="fill-rule:evenodd;stroke:#ff0000;stroke-width:1;stroke-linecap:butt;stroke-linejoin:round" />
    <path
       d="m 287.19697,507.65101 0,0"
       id="path5749"
       inkscape:connector-curvature="0"
       style="fill:#000000;fill-opacity:0;fill-rule:evenodd" />
    <path
       d="m 287.19697,507.65101 0,0"
       id="path5751"
       inkscape:connector-curvature="0"
       style="fill-rule:evenodd;stroke:#00ff00;stroke-width:1;stroke-linecap:butt;stroke-linejoin:round" />
    <path
       d="m 573.23753,317.02891 0,0 c 0,-20.98682 20.42572,-38 45.62207,-38 l 0,0 c 25.19635,0 45.62201,17.01318 45.62201,38 l 0,0 c 0,20.98685 -20.42566,38 -45.62201,38 l 0,0 c -25.19635,0 -45.62207,-17.01315 -45.62207,-38 z"
       id="path5753"
       inkscape:connector-curvature="0"
       style="fill:#4a86e8;fill-rule:evenodd" />
    <path
       d="m 598.72874,318.7833 1.0625,-0.0937 q 0.0781,0.65625 0.35937,1.0625 0.28125,0.40625 0.85938,0.67187 0.59375,0.25 1.32812,0.25 0.64063,0 1.14063,-0.1875 0.5,-0.20312 0.73437,-0.53125 0.25,-0.34375 0.25,-0.73437 0,-0.40625 -0.23437,-0.70313 -0.23438,-0.3125 -0.76563,-0.51562 -0.35937,-0.14063 -1.54687,-0.42188 -1.17188,-0.28125 -1.64063,-0.53125 -0.625,-0.32812 -0.92187,-0.79687 -0.29688,-0.48438 -0.29688,-1.07813 0,-0.64062 0.35938,-1.20312 0.375,-0.57813 1.07812,-0.85938 0.71875,-0.29687 1.57813,-0.29687 0.95312,0 1.6875,0.3125 0.73437,0.29687 1.125,0.90625 0.39062,0.59375 0.42187,1.34375 l -1.09375,0.0781 q -0.0937,-0.8125 -0.60937,-1.21875 -0.5,-0.42187 -1.48438,-0.42187 -1.03125,0 -1.5,0.375 -0.46875,0.375 -0.46875,0.90625 0,0.46875 0.32813,0.76562 0.32812,0.29688 1.70312,0.60938 1.39063,0.3125 1.90625,0.54687 0.75,0.35938 1.10938,0.89063 0.35937,0.51562 0.35937,1.21875 0,0.6875 -0.39062,1.29687 -0.39063,0.59375 -1.125,0.9375 -0.73438,0.32813 -1.65625,0.32813 -1.17188,0 -1.96875,-0.32813 -0.78125,-0.34375 -1.23438,-1.03125 -0.4375,-0.6875 -0.45312,-1.54687 z m 12.33203,2.76562 0,-0.92187 q -0.73437,1.0625 -1.98437,1.0625 -0.54688,0 -1.03125,-0.20313 -0.46875,-0.21875 -0.70313,-0.53125 -0.23437,-0.32812 -0.32812,-0.79687 -0.0625,-0.29688 -0.0625,-0.98438 l 0,-3.84375 1.0625,0 0,3.45313 q 0,0.8125 0.0625,1.10937 0.0937,0.40625 0.40625,0.65625 0.32812,0.23438 0.8125,0.23438 0.46875,0 0.875,-0.23438 0.42187,-0.25 0.59375,-0.67187 0.1875,-0.42188 0.1875,-1.21875 l 0,-3.32813 1.04687,0 0,6.21875 -0.9375,0 z m 2.58008,0 0,-6.21875 0.95312,0 0,0.9375 q 0.35938,-0.65625 0.65625,-0.85937 0.3125,-0.21875 0.6875,-0.21875 0.53125,0 1.07813,0.32812 l -0.35938,0.98438 q -0.39062,-0.23438 -0.76562,-0.23438 -0.35938,0 -0.64063,0.21875 -0.26562,0.20313 -0.375,0.57813 -0.1875,0.5625 -0.1875,1.21875 l 0,3.26562 -1.04687,0 z m 4.26172,0 0,-5.40625 -0.9375,0 0,-0.8125 0.9375,0 0,-0.67187 q 0,-0.625 0.10937,-0.92188 0.15625,-0.42187 0.53125,-0.67187 0.39063,-0.25 1.07813,-0.25 0.45312,0 0.98437,0.10937 l -0.15625,0.90625 q -0.32812,-0.0469 -0.625,-0.0469 -0.48437,0 -0.6875,0.20312 -0.1875,0.20313 -0.1875,0.76563 l 0,0.57812 1.21875,0 0,0.8125 -1.21875,0 0,5.40625 -1.04687,0 z m 7.14648,-0.76562 q -0.59375,0.5 -1.14062,0.70312 -0.53125,0.20313 -1.15625,0.20313 -1.03125,0 -1.57813,-0.5 -0.54687,-0.5 -0.54687,-1.28125 0,-0.45313 0.20312,-0.82813 0.20313,-0.39062 0.54688,-0.60937 0.34375,-0.23438 0.76562,-0.34375 0.29688,-0.0937 0.9375,-0.17188 1.26563,-0.14062 1.875,-0.35937 0,-0.21875 0,-0.26563 0,-0.65625 -0.29687,-0.92187 -0.40625,-0.34375 -1.20313,-0.34375 -0.73437,0 -1.09375,0.26562 -0.35937,0.25 -0.53125,0.90625 l -1.03125,-0.14062 q 0.14063,-0.65625 0.46875,-1.0625 0.32813,-0.40625 0.9375,-0.625 0.60938,-0.21875 1.40625,-0.21875 0.79688,0 1.29688,0.1875 0.5,0.1875 0.73437,0.46875 0.23438,0.28125 0.32813,0.71875 0.0469,0.26562 0.0469,0.96875 l 0,1.40625 q 0,1.46875 0.0625,1.85937 0.0781,0.39063 0.28125,0.75 l -1.10937,0 q -0.15625,-0.32812 -0.20313,-0.76562 z m -0.0937,-2.35938 q -0.57812,0.23438 -1.71875,0.40625 -0.65625,0.0937 -0.92187,0.21875 -0.26563,0.10938 -0.42188,0.32813 -0.14062,0.21875 -0.14062,0.5 0,0.42187 0.3125,0.70312 0.32812,0.28125 0.9375,0.28125 0.60937,0 1.07812,-0.26562 0.48438,-0.26563 0.70313,-0.73438 0.17187,-0.35937 0.17187,-1.04687 l 0,-0.39063 z m 6.76758,0.84375 1.03125,0.14063 q -0.17187,1.0625 -0.875,1.67187 -0.70312,0.60938 -1.71875,0.60938 -1.28125,0 -2.0625,-0.82813 -0.76562,-0.84375 -0.76562,-2.40625 0,-1 0.32812,-1.75 0.34375,-0.76562 1.01563,-1.14062 0.6875,-0.375 1.5,-0.375 1,0 1.64062,0.51562 0.65625,0.5 0.84375,1.45313 l -1.03125,0.15625 q -0.14062,-0.625 -0.51562,-0.9375 -0.375,-0.32813 -0.90625,-0.32813 -0.79688,0 -1.29688,0.57813 -0.5,0.5625 -0.5,1.79687 0,1.26563 0.48438,1.82813 0.48437,0.5625 1.25,0.5625 0.625,0 1.03125,-0.375 0.42187,-0.375 0.54687,-1.17188 z m 6.1875,0.28125 1.09375,0.125 q -0.25,0.95313 -0.95312,1.48438 -0.70313,0.53125 -1.78125,0.53125 -1.35938,0 -2.17188,-0.84375 -0.79687,-0.84375 -0.79687,-2.35938 0,-1.5625 0.8125,-2.42187 0.8125,-0.875 2.09375,-0.875 1.25,0 2.03125,0.84375 0.79687,0.84375 0.79687,2.39062 0,0.0937 0,0.28125 l -4.64062,0 q 0.0625,1.03125 0.57812,1.57813 0.51563,0.53125 1.29688,0.53125 0.57812,0 0.98437,-0.29688 0.42188,-0.3125 0.65625,-0.96875 z m -3.45312,-1.70312 3.46875,0 q -0.0625,-0.79688 -0.39063,-1.1875 -0.51562,-0.60938 -1.3125,-0.60938 -0.73437,0 -1.23437,0.48438 -0.48438,0.48437 -0.53125,1.3125 z"
       id="path5755"
       inkscape:connector-curvature="0"
       style="fill:#000000;fill-rule:nonzero" />
    <path
       d="M 148.95162,273.17982 321.95951,184.77037"
       id="path5757"
       inkscape:connector-curvature="0"
       style="fill:#000000;fill-opacity:0;fill-rule:evenodd" />
    <path
       d="M 148.95162,273.17982 321.95951,184.77037"
       id="path5759"
       inkscape:connector-curvature="0"
       style="fill-rule:evenodd;stroke:#000000;stroke-width:1;stroke-linecap:butt;stroke-linejoin:round" />
    <path
       d="m 354.21916,273.17854 0,-77.25986"
       id="path5761"
       inkscape:connector-curvature="0"
       style="fill:#000000;fill-opacity:0;fill-rule:evenodd" />
    <path
       d="m 354.21916,273.17854 0,-77.25986"
       id="path5763"
       inkscape:connector-curvature="0"
       style="fill-rule:evenodd;stroke:#000000;stroke-width:1;stroke-linecap:butt;stroke-linejoin:round" />
    <path
       d="m 386.47883,184.77036 232.37796,94.26773"
       id="path5765"
       inkscape:connector-curvature="0"
       style="fill:#000000;fill-opacity:0;fill-rule:evenodd" />
    <path
       d="m 386.47883,184.77036 232.37796,94.26773"
       id="path5767"
       inkscape:connector-curvature="0"
       style="fill-rule:evenodd;stroke:#000000;stroke-width:1;stroke-linecap:butt;stroke-linejoin:round" />
    <path
       d="m 166.82282,404.99086 0,0 c 0,-20.98682 17.94388,-38 40.07873,-38 l 0,0 c 10.62955,0 20.82373,4.00357 28.33997,11.12994 7.51621,7.12641 11.7388,16.79184 11.7388,26.87006 l 0,0 c 0,20.98682 -17.94388,38 -40.07877,38 l 0,0 c -22.13485,0 -40.07873,-17.01318 -40.07873,-38 z"
       id="path5769"
       inkscape:connector-curvature="0"
       style="fill:#000000;fill-opacity:0;fill-rule:evenodd" />
    <path
       d="m 166.82282,404.99086 0,0 c 0,-20.98682 17.94388,-38 40.07873,-38 l 0,0 c 10.62955,0 20.82373,4.00357 28.33997,11.12994 7.51621,7.12641 11.7388,16.79184 11.7388,26.87006 l 0,0 c 0,20.98682 -17.94388,38 -40.07877,38 l 0,0 c -22.13485,0 -40.07873,-17.01318 -40.07873,-38 z"
       id="path5771"
       inkscape:connector-curvature="0"
       style="fill-rule:evenodd;stroke:#ff0000;stroke-width:1;stroke-linecap:butt;stroke-linejoin:round;stroke-dasharray:4, 3" />
    <path
       d="m 191.76875,409.51086 0,-8.59375 3.23438,0 q 0.98437,0 1.57812,0.26563 0.59375,0.26562 0.92188,0.8125 0.34375,0.53125 0.34375,1.125 0,0.54687 -0.29688,1.03125 -0.29687,0.48437 -0.90625,0.78125 0.78125,0.23437 1.1875,0.79687 0.42188,0.54688 0.42188,1.29688 0,0.59375 -0.25,1.125 -0.25,0.51562 -0.625,0.79687 -0.375,0.28125 -0.95313,0.42188 -0.5625,0.14062 -1.375,0.14062 l -3.28125,0 z m 1.14063,-4.98437 1.85937,0 q 0.75,0 1.07813,-0.0937 0.4375,-0.125 0.65625,-0.42188 0.21875,-0.3125 0.21875,-0.76562 0,-0.42188 -0.20313,-0.75 -0.20312,-0.32813 -0.59375,-0.4375 -0.375,-0.125 -1.29687,-0.125 l -1.71875,0 0,2.59375 z m 0,3.96875 2.14062,0 q 0.54688,0 0.76563,-0.0469 0.40625,-0.0625 0.65625,-0.21875 0.26562,-0.17187 0.4375,-0.48437 0.17187,-0.3125 0.17187,-0.71875 0,-0.48438 -0.25,-0.84375 -0.23437,-0.35938 -0.67187,-0.5 -0.4375,-0.14063 -1.26563,-0.14063 l -1.98437,0 0,2.95313 z m 6.39453,-2.09375 q 0,-1.73438 0.95312,-2.5625 0.79688,-0.6875 1.95313,-0.6875 1.28125,0 2.09375,0.84375 0.82812,0.82812 0.82812,2.3125 0,1.20312 -0.35937,1.89062 -0.35938,0.6875 -1.0625,1.07813 -0.6875,0.375 -1.5,0.375 -1.29688,0 -2.10938,-0.82813 -0.79687,-0.84375 -0.79687,-2.42187 z m 1.07812,0 q 0,1.1875 0.51563,1.78125 0.53125,0.59375 1.3125,0.59375 0.79687,0 1.3125,-0.59375 0.51562,-0.59375 0.51562,-1.8125 0,-1.15625 -0.53125,-1.75 -0.51562,-0.59375 -1.29687,-0.59375 -0.78125,0 -1.3125,0.59375 -0.51563,0.57812 -0.51563,1.78125 z m 5.2832,3.10937 2.26563,-3.23437 -2.09375,-2.98438 1.3125,0 0.95312,1.45313 q 0.26563,0.42187 0.4375,0.70312 0.25,-0.39062 0.46875,-0.6875 l 1.04688,-1.46875 1.26565,0 -2.15628,2.92188 2.31253,3.29687 -1.28128,0 -1.28125,-1.9375 -0.34375,-0.51562 -1.64062,2.45312 -1.26563,0 z m 10.11527,0 0,-8.59375 3.23437,0 q 0.98438,0 1.57813,0.26563 0.59375,0.26562 0.92187,0.8125 0.34375,0.53125 0.34375,1.125 0,0.54687 -0.29687,1.03125 -0.29688,0.48437 -0.90625,0.78125 0.78125,0.23437 1.1875,0.79687 0.42187,0.54688 0.42187,1.29688 0,0.59375 -0.25,1.125 -0.25,0.51562 -0.625,0.79687 -0.375,0.28125 -0.95312,0.42188 -0.5625,0.14062 -1.375,0.14062 l -3.28125,0 z m 1.14062,-4.98437 1.85938,0 q 0.75,0 1.07812,-0.0937 0.4375,-0.125 0.65625,-0.42188 0.21875,-0.3125 0.21875,-0.76562 0,-0.42188 -0.20312,-0.75 -0.20313,-0.32813 -0.59375,-0.4375 -0.375,-0.125 -1.29688,-0.125 l -1.71875,0 0,2.59375 z m 0,3.96875 2.14063,0 q 0.54687,0 0.76562,-0.0469 0.40625,-0.0625 0.65625,-0.21875 0.26563,-0.17187 0.4375,-0.48437 0.17188,-0.3125 0.17188,-0.71875 0,-0.48438 -0.25,-0.84375 -0.23438,-0.35938 -0.67188,-0.5 -0.4375,-0.14063 -1.26562,-0.14063 l -1.98438,0 0,2.95313 z"
       id="path5773"
       inkscape:connector-curvature="0"
       style="fill:#000000;fill-rule:nonzero" />
    <path
       d="m 235.24153,378.1208 0,0"
       id="path5775"
       inkscape:connector-curvature="0"
       style="fill:#000000;fill-opacity:0;fill-rule:evenodd" />
    <path
       d="m 235.24153,378.1208 0,0"
       id="path5777"
       inkscape:connector-curvature="0"
       style="fill-rule:evenodd;stroke:#000000;stroke-width:1;stroke-linecap:butt;stroke-linejoin:round" />
    <path
       d="m 1.5,508.17591 0,0 c 0,-20.98682 15.70176,-38 35.07087,-38 l 0,0 c 9.30136,0 18.22177,4.00354 24.79884,11.12994 6.57706,7.12635 10.27202,16.79181 10.27202,26.87006 l 0,0 c 0,20.98682 -15.70177,38 -35.07086,38 l 0,0 c -19.36911,0 -35.070869,-17.01318 -35.070869,-38 z"
       id="path5779"
       inkscape:connector-curvature="0"
       style="fill:#000000;fill-opacity:0;fill-rule:evenodd" />
    <path
       d="m 1.5,508.17591 0,0 c 0,-20.98682 15.70176,-38 35.07087,-38 l 0,0 c 9.30136,0 18.22177,4.00354 24.79884,11.12994 6.57706,7.12635 10.27202,16.79181 10.27202,26.87006 l 0,0 c 0,20.98682 -15.70177,38 -35.07086,38 l 0,0 c -19.36911,0 -35.070869,-17.01318 -35.070869,-38 z"
       id="path5781"
       inkscape:connector-curvature="0"
       style="fill-rule:evenodd;stroke:#e06666;stroke-width:3;stroke-linecap:butt;stroke-linejoin:round" />
    <path
       d="m 22.54938,505.69596 0,-8.59375 5.79687,0 0,1.01563 -4.65625,0 0,2.65625 4.03125,0 0,1.01562 -4.03125,0 0,3.90625 -1.14062,0 z m 11.20508,-0.76562 q -0.59375,0.5 -1.14063,0.70312 -0.53125,0.20313 -1.15625,0.20313 -1.03125,0 -1.57812,-0.5 -0.54688,-0.5 -0.54688,-1.28125 0,-0.45313 0.20313,-0.82813 0.20312,-0.39062 0.54687,-0.60937 0.34375,-0.23438 0.76563,-0.34375 0.29687,-0.0937 0.9375,-0.17188 1.26562,-0.14062 1.875,-0.35937 0,-0.21875 0,-0.26563 0,-0.65625 -0.29688,-0.92187 -0.40625,-0.34375 -1.20312,-0.34375 -0.73438,0 -1.09375,0.26562 -0.35938,0.25 -0.53125,0.90625 l -1.03125,-0.14062 q 0.14062,-0.65625 0.46875,-1.0625 0.32812,-0.40625 0.9375,-0.625 0.60937,-0.21875 1.40625,-0.21875 0.79687,0 1.29687,0.1875 0.5,0.1875 0.73438,0.46875 0.23437,0.28125 0.32812,0.71875 0.0469,0.26562 0.0469,0.96875 l 0,1.40625 q 0,1.46875 0.0625,1.85937 0.0781,0.39063 0.28125,0.75 l -1.10938,0 q -0.15625,-0.32812 -0.20312,-0.76562 z m -0.0937,-2.35938 q -0.57813,0.23438 -1.71875,0.40625 -0.65625,0.0937 -0.92188,0.21875 -0.26562,0.10938 -0.42187,0.32813 -0.14063,0.21875 -0.14063,0.5 0,0.42187 0.3125,0.70312 0.32813,0.28125 0.9375,0.28125 0.60938,0 1.07813,-0.26562 0.48437,-0.26563 0.70312,-0.73438 0.17188,-0.35937 0.17188,-1.04687 l 0,-0.39063 z m 6.76758,0.84375 1.03125,0.14063 q -0.17187,1.0625 -0.875,1.67187 -0.70312,0.60938 -1.71875,0.60938 -1.28125,0 -2.0625,-0.82813 -0.76563,-0.84375 -0.76563,-2.40625 0,-1 0.32813,-1.75 0.34375,-0.76562 1.01563,-1.14062 0.6875,-0.375 1.5,-0.375 1,0 1.64062,0.51562 0.65625,0.5 0.84375,1.45313 l -1.03125,0.15625 q -0.14062,-0.625 -0.51562,-0.9375 -0.375,-0.32813 -0.90625,-0.32813 -0.79688,0 -1.29688,0.57813 -0.5,0.5625 -0.5,1.79687 0,1.26563 0.48438,1.82813 0.48437,0.5625 1.25,0.5625 0.625,0 1.03125,-0.375 0.42187,-0.375 0.54687,-1.17188 z m 6.1875,0.28125 1.09375,0.125 q -0.25,0.95313 -0.95312,1.48438 -0.70313,0.53125 -1.78125,0.53125 -1.35938,0 -2.17188,-0.84375 -0.79687,-0.84375 -0.79687,-2.35938 0,-1.5625 0.8125,-2.42187 0.8125,-0.875 2.09375,-0.875 1.25,0 2.03125,0.84375 0.79687,0.84375 0.79687,2.39062 0,0.0937 0,0.28125 l -4.64062,0 q 0.0625,1.03125 0.57812,1.57813 0.51563,0.53125 1.29688,0.53125 0.57812,0 0.98437,-0.29688 0.42188,-0.3125 0.65625,-0.96875 z m -3.45312,-1.70312 3.46875,0 q -0.0625,-0.79688 -0.39063,-1.1875 -0.51562,-0.60938 -1.3125,-0.60938 -0.73437,0 -1.23437,0.48438 -0.48438,0.48437 -0.53125,1.3125 z m 8.17383,2.76562 0.15625,0.92188 q -0.45313,0.0937 -0.79688,0.0937 -0.57812,0 -0.89062,-0.17188 -0.3125,-0.1875 -0.45313,-0.48437 -0.125,-0.29688 -0.125,-1.25 l 0,-3.57813 -0.76562,0 0,-0.8125 0.76562,0 0,-1.54687 1.04688,-0.625 0,2.17187 1.0625,0 0,0.8125 -1.0625,0 0,3.64063 q 0,0.45312 0.0469,0.57812 0.0625,0.125 0.1875,0.20313 0.125,0.0781 0.35938,0.0781 0.1875,0 0.46875,-0.0312 z"
       id="path5783"
       inkscape:connector-curvature="0"
       style="fill:#000000;fill-rule:nonzero" />
    <path
       d="m 37.70271,519.69596 -1.04688,0 0,-6.71875 q -0.39062,0.35938 -1.01563,0.73438 -0.60937,0.35937 -1.09375,0.53125 l 0,-1.01563 q 0.875,-0.42187 1.53125,-1 0.67188,-0.59375 0.95313,-1.15625 l 0.67188,0 0,8.625 z"
       id="path5785"
       inkscape:connector-curvature="0"
       style="fill:#000000;fill-rule:nonzero" />
    <path
       d="m 174.09319,508.17591 0,0 c 0,-20.98682 15.70175,-38 35.07086,-38 l 0,0 c 9.30136,0 18.22177,4.00354 24.79886,11.12994 6.57706,7.12635 10.272,16.79181 10.272,26.87006 l 0,0 c 0,20.98682 -15.70175,38 -35.07086,38 l 0,0 c -19.36911,0 -35.07086,-17.01318 -35.07086,-38 z"
       id="path5787"
       inkscape:connector-curvature="0"
       style="fill:#000000;fill-opacity:0;fill-rule:evenodd" />
    <path
       d="m 174.09319,508.17591 0,0 c 0,-20.98682 15.70175,-38 35.07086,-38 l 0,0 c 9.30136,0 18.22177,4.00354 24.79886,11.12994 6.57706,7.12635 10.272,16.79181 10.272,26.87006 l 0,0 c 0,20.98682 -15.70175,38 -35.07086,38 l 0,0 c -19.36911,0 -35.07086,-17.01318 -35.07086,-38 z"
       id="path5789"
       inkscape:connector-curvature="0"
       style="fill-rule:evenodd;stroke:#e06666;stroke-width:3;stroke-linecap:butt;stroke-linejoin:round" />
    <path
       d="m 195.14256,505.69596 0,-8.59375 5.79688,0 0,1.01563 -4.65625,0 0,2.65625 4.03125,0 0,1.01562 -4.03125,0 0,3.90625 -1.14063,0 z m 11.20508,-0.76562 q -0.59375,0.5 -1.14063,0.70312 -0.53125,0.20313 -1.15625,0.20313 -1.03125,0 -1.57812,-0.5 -0.54688,-0.5 -0.54688,-1.28125 0,-0.45313 0.20313,-0.82813 0.20312,-0.39062 0.54687,-0.60937 0.34375,-0.23438 0.76563,-0.34375 0.29687,-0.0937 0.9375,-0.17188 1.26562,-0.14062 1.875,-0.35937 0,-0.21875 0,-0.26563 0,-0.65625 -0.29688,-0.92187 -0.40625,-0.34375 -1.20312,-0.34375 -0.73438,0 -1.09375,0.26562 -0.35938,0.25 -0.53125,0.90625 l -1.03125,-0.14062 q 0.14062,-0.65625 0.46875,-1.0625 0.32812,-0.40625 0.9375,-0.625 0.60937,-0.21875 1.40625,-0.21875 0.79687,0 1.29687,0.1875 0.5,0.1875 0.73438,0.46875 0.23437,0.28125 0.32812,0.71875 0.0469,0.26562 0.0469,0.96875 l 0,1.40625 q 0,1.46875 0.0625,1.85937 0.0781,0.39063 0.28125,0.75 l -1.10938,0 q -0.15625,-0.32812 -0.20312,-0.76562 z m -0.0937,-2.35938 q -0.57813,0.23438 -1.71875,0.40625 -0.65625,0.0937 -0.92188,0.21875 -0.26562,0.10938 -0.42187,0.32813 -0.14063,0.21875 -0.14063,0.5 0,0.42187 0.3125,0.70312 0.32813,0.28125 0.9375,0.28125 0.60938,0 1.07813,-0.26562 0.48437,-0.26563 0.70312,-0.73438 0.17188,-0.35937 0.17188,-1.04687 l 0,-0.39063 z m 6.76758,0.84375 1.03125,0.14063 q -0.17188,1.0625 -0.875,1.67187 -0.70313,0.60938 -1.71875,0.60938 -1.28125,0 -2.0625,-0.82813 -0.76563,-0.84375 -0.76563,-2.40625 0,-1 0.32813,-1.75 0.34375,-0.76562 1.01562,-1.14062 0.6875,-0.375 1.5,-0.375 1,0 1.64063,0.51562 0.65625,0.5 0.84375,1.45313 l -1.03125,0.15625 q -0.14063,-0.625 -0.51563,-0.9375 -0.375,-0.32813 -0.90625,-0.32813 -0.79687,0 -1.29687,0.57813 -0.5,0.5625 -0.5,1.79687 0,1.26563 0.48437,1.82813 0.48438,0.5625 1.25,0.5625 0.625,0 1.03125,-0.375 0.42188,-0.375 0.54688,-1.17188 z m 6.1875,0.28125 1.09375,0.125 q -0.25,0.95313 -0.95313,1.48438 -0.70312,0.53125 -1.78125,0.53125 -1.35937,0 -2.17187,-0.84375 -0.79688,-0.84375 -0.79688,-2.35938 0,-1.5625 0.8125,-2.42187 0.8125,-0.875 2.09375,-0.875 1.25,0 2.03125,0.84375 0.79688,0.84375 0.79688,2.39062 0,0.0937 0,0.28125 l -4.64063,0 q 0.0625,1.03125 0.57813,1.57813 0.51562,0.53125 1.29687,0.53125 0.57813,0 0.98438,-0.29688 0.42187,-0.3125 0.65625,-0.96875 z m -3.45313,-1.70312 3.46875,0 q -0.0625,-0.79688 -0.39062,-1.1875 -0.51563,-0.60938 -1.3125,-0.60938 -0.73438,0 -1.23438,0.48438 -0.48437,0.48437 -0.53125,1.3125 z m 8.17383,2.76562 0.15625,0.92188 q -0.45313,0.0937 -0.79688,0.0937 -0.57812,0 -0.89062,-0.17188 -0.3125,-0.1875 -0.45313,-0.48437 -0.125,-0.29688 -0.125,-1.25 l 0,-3.57813 -0.76562,0 0,-0.8125 0.76562,0 0,-1.54687 1.04688,-0.625 0,2.17187 1.0625,0 0,0.8125 -1.0625,0 0,3.64063 q 0,0.45312 0.0469,0.57812 0.0625,0.125 0.1875,0.20313 0.125,0.0781 0.35938,0.0781 0.1875,0 0.46875,-0.0312 z"
       id="path5791"
       inkscape:connector-curvature="0"
       style="fill:#000000;fill-rule:nonzero" />
    <path
       d="m 206.32713,517.43031 1.0625,-0.14063 q 0.17188,0.89063 0.60938,1.29688 0.4375,0.39062 1.0625,0.39062 0.75,0 1.26562,-0.51562 0.51563,-0.51563 0.51563,-1.28125 0,-0.71875 -0.48438,-1.1875 -0.46875,-0.48438 -1.20312,-0.48438 -0.29688,0 -0.75,0.125 l 0.125,-0.9375 q 0.10937,0.0156 0.17187,0.0156 0.67188,0 1.20313,-0.34375 0.54687,-0.35938 0.54687,-1.09375 0,-0.57813 -0.39062,-0.95313 -0.39063,-0.39062 -1.01563,-0.39062 -0.60937,0 -1.03125,0.39062 -0.40625,0.39063 -0.51562,1.15625 l -1.0625,-0.1875 q 0.1875,-1.04687 0.875,-1.625 0.6875,-0.59375 1.70312,-0.59375 0.70313,0 1.29688,0.3125 0.59375,0.29688 0.90625,0.8125 0.3125,0.51563 0.3125,1.10938 0,0.54687 -0.29688,1.01562 -0.29687,0.45313 -0.875,0.71875 0.75,0.17188 1.17188,0.73438 0.42187,0.54687 0.42187,1.39062 0,1.125 -0.82812,1.90625 -0.8125,0.78125 -2.0625,0.78125 -1.125,0 -1.875,-0.67187 -0.75,-0.6875 -0.85938,-1.75 z"
       id="path5793"
       inkscape:connector-curvature="0"
       style="fill:#000000;fill-rule:nonzero" />
    <path
       d="m 77.0328,366.99216 41.10237,-28.94489"
       id="path5795"
       inkscape:connector-curvature="0"
       style="fill:#000000;fill-opacity:0;fill-rule:evenodd" />
    <path
       d="m 77.0328,366.99216 41.10237,-28.94489"
       id="path5797"
       inkscape:connector-curvature="0"
       style="fill-rule:evenodd;stroke:#ff0000;stroke-width:1;stroke-linecap:butt;stroke-linejoin:round" />
    <path
       d="m 209.16404,470.17591 -2.26773,-27.18112"
       id="path5799"
       inkscape:connector-curvature="0"
       style="fill:#000000;fill-opacity:0;fill-rule:evenodd" />
    <path
       d="m 209.16404,470.17591 -2.26773,-27.18112"
       id="path5801"
       inkscape:connector-curvature="0"
       style="fill-rule:evenodd;stroke:#ff0000;stroke-width:1;stroke-linecap:butt;stroke-linejoin:round" />
    <path
       d="m 336.64704,379.96201 0,0"
       id="path5803"
       inkscape:connector-curvature="0"
       style="fill:#000000;fill-opacity:0;fill-rule:evenodd" />
    <path
       d="m 336.64704,379.96201 0,0"
       id="path5805"
       inkscape:connector-curvature="0"
       style="fill-rule:evenodd;stroke:#00ff00;stroke-width:1;stroke-linecap:butt;stroke-linejoin:round" />
    <path
       d="m 280.77952,406.83601 0,0 c 0,-20.98682 15.70178,-38 35.07086,-38 l 0,0 c 9.30139,0 18.2218,4.00357 24.79886,11.12994 6.57706,7.12638 10.27203,16.79184 10.27203,26.87006 l 0,0 c 0,20.98682 -15.70178,38 -35.07089,38 l 0,0 c -19.36908,0 -35.07086,-17.01318 -35.07086,-38 z"
       id="path5807"
       inkscape:connector-curvature="0"
       style="fill:#000000;fill-opacity:0;fill-rule:evenodd" />
    <path
       d="m 280.77952,406.83601 0,0 c 0,-20.98682 15.70178,-38 35.07086,-38 l 0,0 c 9.30139,0 18.2218,4.00357 24.79886,11.12994 6.57706,7.12638 10.27203,16.79184 10.27203,26.87006 l 0,0 c 0,20.98682 -15.70178,38 -35.07089,38 l 0,0 c -19.36908,0 -35.07086,-17.01318 -35.07086,-38 z"
       id="path5809"
       inkscape:connector-curvature="0"
       style="fill-rule:evenodd;stroke:#6aa84f;stroke-width:3;stroke-linecap:butt;stroke-linejoin:round" />
    <path
       d="m 301.82889,404.356 0,-8.59375 5.79687,0 0,1.01562 -4.65625,0 0,2.65625 4.03125,0 0,1.01563 -4.03125,0 0,3.90625 -1.14062,0 z m 11.20508,-0.76563 q -0.59375,0.5 -1.14063,0.70313 -0.53125,0.20312 -1.15625,0.20312 -1.03125,0 -1.57812,-0.5 -0.54688,-0.5 -0.54688,-1.28125 0,-0.45312 0.20313,-0.82812 0.20312,-0.39063 0.54687,-0.60938 0.34375,-0.23437 0.76563,-0.34375 0.29687,-0.0937 0.9375,-0.17187 1.26562,-0.14063 1.875,-0.35938 0,-0.21875 0,-0.26562 0,-0.65625 -0.29688,-0.92188 -0.40625,-0.34375 -1.20312,-0.34375 -0.73438,0 -1.09375,0.26563 -0.35938,0.25 -0.53125,0.90625 l -1.03125,-0.14063 q 0.14062,-0.65625 0.46875,-1.0625 0.32812,-0.40625 0.9375,-0.625 0.60937,-0.21875 1.40625,-0.21875 0.79687,0 1.29687,0.1875 0.5,0.1875 0.73438,0.46875 0.23437,0.28125 0.32812,0.71875 0.0469,0.26563 0.0469,0.96875 l 0,1.40625 q 0,1.46875 0.0625,1.85938 0.0781,0.39062 0.28125,0.75 l -1.10938,0 q -0.15625,-0.32813 -0.20312,-0.76563 z m -0.0937,-2.35937 q -0.57813,0.23437 -1.71875,0.40625 -0.65625,0.0937 -0.92188,0.21875 -0.26562,0.10937 -0.42187,0.32812 -0.14063,0.21875 -0.14063,0.5 0,0.42188 0.3125,0.70313 0.32813,0.28125 0.9375,0.28125 0.60938,0 1.07813,-0.26563 0.48437,-0.26562 0.70312,-0.73437 0.17188,-0.35938 0.17188,-1.04688 l 0,-0.39062 z m 6.76758,0.84375 1.03125,0.14062 q -0.17188,1.0625 -0.875,1.67188 -0.70313,0.60937 -1.71875,0.60937 -1.28125,0 -2.0625,-0.82812 -0.76563,-0.84375 -0.76563,-2.40625 0,-1 0.32813,-1.75 0.34375,-0.76563 1.01562,-1.14063 0.6875,-0.375 1.5,-0.375 1,0 1.64063,0.51563 0.65625,0.5 0.84375,1.45312 l -1.03125,0.15625 q -0.14063,-0.625 -0.51563,-0.9375 -0.375,-0.32812 -0.90625,-0.32812 -0.79687,0 -1.29687,0.57812 -0.5,0.5625 -0.5,1.79688 0,1.26562 0.48437,1.82812 0.48438,0.5625 1.25,0.5625 0.625,0 1.03125,-0.375 0.42188,-0.375 0.54688,-1.17187 z m 6.1875,0.28125 1.09375,0.125 q -0.25,0.95312 -0.95313,1.48437 -0.70312,0.53125 -1.78125,0.53125 -1.35937,0 -2.17187,-0.84375 -0.79688,-0.84375 -0.79688,-2.35937 0,-1.5625 0.8125,-2.42188 0.8125,-0.875 2.09375,-0.875 1.25,0 2.03125,0.84375 0.79688,0.84375 0.79688,2.39063 0,0.0937 0,0.28125 l -4.64063,0 q 0.0625,1.03125 0.57813,1.57812 0.51562,0.53125 1.29687,0.53125 0.57813,0 0.98438,-0.29687 0.42187,-0.3125 0.65625,-0.96875 z m -3.45313,-1.70313 3.46875,0 q -0.0625,-0.79687 -0.39062,-1.1875 -0.51563,-0.60937 -1.3125,-0.60937 -0.73438,0 -1.23438,0.48437 -0.48437,0.48438 -0.53125,1.3125 z m 8.17383,2.76563 0.15625,0.92187 q -0.45313,0.0937 -0.79688,0.0937 -0.57812,0 -0.89062,-0.17187 -0.3125,-0.1875 -0.45313,-0.48438 -0.125,-0.29687 -0.125,-1.25 l 0,-3.57812 -0.76562,0 0,-0.8125 0.76562,0 0,-1.54688 1.04688,-0.625 0,2.17188 1.0625,0 0,0.8125 -1.0625,0 0,3.64062 q 0,0.45313 0.0469,0.57813 0.0625,0.125 0.1875,0.20312 0.125,0.0781 0.35938,0.0781 0.1875,0 0.46875,-0.0312 z"
       id="path5811"
       inkscape:connector-curvature="0"
       style="fill:#000000;fill-rule:nonzero" />
    <path
       d="m 316.98222,418.356 -1.04688,0 0,-6.71875 q -0.39062,0.35937 -1.01562,0.73437 -0.60938,0.35938 -1.09375,0.53125 l 0,-1.01562 q 0.875,-0.42188 1.53125,-1 0.67187,-0.59375 0.95312,-1.15625 l 0.67188,0 0,8.625 z"
       id="path5813"
       inkscape:connector-curvature="0"
       style="fill:#000000;fill-rule:nonzero" />
    <path
       d="m 427.47779,379.96464 0,0"
       id="path5815"
       inkscape:connector-curvature="0"
       style="fill:#000000;fill-opacity:0;fill-rule:evenodd" />
    <path
       d="m 427.47779,379.96464 0,0"
       id="path5817"
       inkscape:connector-curvature="0"
       style="fill-rule:evenodd;stroke:#000000;stroke-width:1;stroke-linecap:butt;stroke-linejoin:round" />
    <path
       d="m 368.70997,406.83601 0,0 c 0,-20.98682 15.70175,-38 35.07086,-38 l 0,0 c 9.30139,0 18.22177,4.00357 24.79886,11.12994 6.57709,7.12638 10.27203,16.79184 10.27203,26.87006 l 0,0 c 0,20.98682 -15.70178,38 -35.07089,38 l 0,0 c -19.36911,0 -35.07086,-17.01318 -35.07086,-38 z"
       id="path5819"
       inkscape:connector-curvature="0"
       style="fill:#000000;fill-opacity:0;fill-rule:evenodd" />
    <path
       d="m 368.70997,406.83601 0,0 c 0,-20.98682 15.70175,-38 35.07086,-38 l 0,0 c 9.30139,0 18.22177,4.00357 24.79886,11.12994 6.57709,7.12638 10.27203,16.79184 10.27203,26.87006 l 0,0 c 0,20.98682 -15.70178,38 -35.07089,38 l 0,0 c -19.36911,0 -35.07086,-17.01318 -35.07086,-38 z"
       id="path5821"
       inkscape:connector-curvature="0"
       style="fill-rule:evenodd;stroke:#6aa84f;stroke-width:3;stroke-linecap:butt;stroke-linejoin:round" />
    <path
       d="m 389.75935,404.356 0,-8.59375 5.79687,0 0,1.01562 -4.65625,0 0,2.65625 4.03125,0 0,1.01563 -4.03125,0 0,3.90625 -1.14062,0 z m 11.20508,-0.76563 q -0.59375,0.5 -1.14063,0.70313 -0.53125,0.20312 -1.15625,0.20312 -1.03125,0 -1.57812,-0.5 -0.54688,-0.5 -0.54688,-1.28125 0,-0.45312 0.20313,-0.82812 0.20312,-0.39063 0.54687,-0.60938 0.34375,-0.23437 0.76563,-0.34375 0.29687,-0.0937 0.9375,-0.17187 1.26562,-0.14063 1.875,-0.35938 0,-0.21875 0,-0.26562 0,-0.65625 -0.29688,-0.92188 -0.40625,-0.34375 -1.20312,-0.34375 -0.73438,0 -1.09375,0.26563 -0.35938,0.25 -0.53125,0.90625 l -1.03125,-0.14063 q 0.14062,-0.65625 0.46875,-1.0625 0.32812,-0.40625 0.9375,-0.625 0.60937,-0.21875 1.40625,-0.21875 0.79687,0 1.29687,0.1875 0.5,0.1875 0.73438,0.46875 0.23437,0.28125 0.32812,0.71875 0.0469,0.26563 0.0469,0.96875 l 0,1.40625 q 0,1.46875 0.0625,1.85938 0.0781,0.39062 0.28125,0.75 l -1.10938,0 q -0.15625,-0.32813 -0.20312,-0.76563 z m -0.0937,-2.35937 q -0.57813,0.23437 -1.71875,0.40625 -0.65625,0.0937 -0.92188,0.21875 -0.26562,0.10937 -0.42187,0.32812 -0.14063,0.21875 -0.14063,0.5 0,0.42188 0.3125,0.70313 0.32813,0.28125 0.9375,0.28125 0.60938,0 1.07813,-0.26563 0.48437,-0.26562 0.70312,-0.73437 0.17188,-0.35938 0.17188,-1.04688 l 0,-0.39062 z m 6.76758,0.84375 1.03125,0.14062 q -0.17188,1.0625 -0.875,1.67188 -0.70313,0.60937 -1.71875,0.60937 -1.28125,0 -2.0625,-0.82812 -0.76563,-0.84375 -0.76563,-2.40625 0,-1 0.32813,-1.75 0.34375,-0.76563 1.01562,-1.14063 0.6875,-0.375 1.5,-0.375 1,0 1.64063,0.51563 0.65625,0.5 0.84375,1.45312 l -1.03125,0.15625 q -0.14063,-0.625 -0.51563,-0.9375 -0.375,-0.32812 -0.90625,-0.32812 -0.79687,0 -1.29687,0.57812 -0.5,0.5625 -0.5,1.79688 0,1.26562 0.48437,1.82812 0.48438,0.5625 1.25,0.5625 0.625,0 1.03125,-0.375 0.42188,-0.375 0.54688,-1.17187 z m 6.1875,0.28125 1.09375,0.125 q -0.25,0.95312 -0.95313,1.48437 -0.70312,0.53125 -1.78125,0.53125 -1.35937,0 -2.17187,-0.84375 -0.79688,-0.84375 -0.79688,-2.35937 0,-1.5625 0.8125,-2.42188 0.8125,-0.875 2.09375,-0.875 1.25,0 2.03125,0.84375 0.79688,0.84375 0.79688,2.39063 0,0.0937 0,0.28125 l -4.64063,0 q 0.0625,1.03125 0.57813,1.57812 0.51562,0.53125 1.29687,0.53125 0.57813,0 0.98438,-0.29687 0.42187,-0.3125 0.65625,-0.96875 z m -3.45313,-1.70313 3.46875,0 q -0.0625,-0.79687 -0.39062,-1.1875 -0.51563,-0.60937 -1.3125,-0.60937 -0.73438,0 -1.23438,0.48437 -0.48437,0.48438 -0.53125,1.3125 z m 8.17383,2.76563 0.15625,0.92187 q -0.45313,0.0937 -0.79688,0.0937 -0.57812,0 -0.89062,-0.17187 -0.3125,-0.1875 -0.45313,-0.48438 -0.125,-0.29687 -0.125,-1.25 l 0,-3.57812 -0.76562,0 0,-0.8125 0.76562,0 0,-1.54688 1.04688,-0.625 0,2.17188 1.0625,0 0,0.8125 -1.0625,0 0,3.64062 q 0,0.45313 0.0469,0.57813 0.0625,0.125 0.1875,0.20312 0.125,0.0781 0.35938,0.0781 0.1875,0 0.46875,-0.0312 z"
       id="path5823"
       inkscape:connector-curvature="0"
       style="fill:#000000;fill-rule:nonzero" />
    <path
       d="m 406.49079,417.34036 0,1.01563 -5.6875,0 q 0,-0.375 0.125,-0.73438 0.21875,-0.57812 0.6875,-1.14062 0.48438,-0.5625 1.39063,-1.29688 1.40625,-1.15625 1.89062,-1.82812 0.5,-0.67188 0.5,-1.26563 0,-0.625 -0.45312,-1.04687 -0.45313,-0.4375 -1.17188,-0.4375 -0.76562,0 -1.21875,0.45312 -0.45312,0.45313 -0.46875,1.26563 l -1.07812,-0.10938 q 0.10937,-1.21875 0.82812,-1.84375 0.73438,-0.64062 1.96875,-0.64062 1.23438,0 1.95313,0.6875 0.71875,0.6875 0.71875,1.70312 0,0.51563 -0.21875,1.01563 -0.20313,0.48437 -0.70313,1.04687 -0.48437,0.54688 -1.60937,1.5 -0.95313,0.79688 -1.23438,1.09375 -0.26562,0.28125 -0.4375,0.5625 l 4.21875,0 z"
       id="path5825"
       inkscape:connector-curvature="0"
       style="fill:#000000;fill-rule:nonzero" />
    <path
       d="M 308.30946,368.8386 323.3961,326.91737"
       id="path5827"
       inkscape:connector-curvature="0"
       style="fill:#000000;fill-opacity:0;fill-rule:evenodd" />
    <path
       d="M 308.30946,368.8386 323.3961,326.91737"
       id="path5829"
       inkscape:connector-curvature="0"
       style="fill-rule:evenodd;stroke:#6aa84f;stroke-width:1;stroke-linecap:butt;stroke-linejoin:round" />
    <path
       d="m 385.04243,326.91736 14.11023,41.92123"
       id="path5831"
       inkscape:connector-curvature="0"
       style="fill:#000000;fill-opacity:0;fill-rule:evenodd" />
    <path
       d="m 385.04243,326.91736 14.11023,41.92123"
       id="path5833"
       inkscape:connector-curvature="0"
       style="fill-rule:evenodd;stroke:#6aa84f;stroke-width:1;stroke-linecap:butt;stroke-linejoin:round" />
    <path
       d="m 492.16269,406.83732 0,0 c 0,-20.98682 17.94391,-38 40.0788,-38 l 0,0 c 10.62951,0 20.82373,4.00357 28.3399,11.12994 7.51624,7.12638 11.73883,16.79184 11.73883,26.87006 l 0,0 c 0,20.98682 -17.94391,38 -40.07873,38 l 0,0 c -22.13489,0 -40.0788,-17.01318 -40.0788,-38 z"
       id="path5835"
       inkscape:connector-curvature="0"
       style="fill:#000000;fill-opacity:0;fill-rule:evenodd" />
    <path
       d="m 492.16269,406.83732 0,0 c 0,-20.98682 17.94391,-38 40.0788,-38 l 0,0 c 10.62951,0 20.82373,4.00357 28.3399,11.12994 7.51624,7.12638 11.73883,16.79184 11.73883,26.87006 l 0,0 c 0,20.98682 -17.94391,38 -40.07873,38 l 0,0 c -22.13489,0 -40.0788,-17.01318 -40.0788,-38 z"
       id="path5837"
       inkscape:connector-curvature="0"
       style="fill-rule:evenodd;stroke:#4a86e8;stroke-width:1;stroke-linecap:butt;stroke-linejoin:round;stroke-dasharray:4, 3" />
    <path
       d="m 517.10869,411.35731 0,-8.59375 3.23437,0 q 0.98438,0 1.57813,0.26563 0.59375,0.26562 0.92187,0.8125 0.34375,0.53125 0.34375,1.125 0,0.54687 -0.29687,1.03125 -0.29688,0.48437 -0.90625,0.78125 0.78125,0.23437 1.1875,0.79687 0.42187,0.54688 0.42187,1.29688 0,0.59375 -0.25,1.125 -0.25,0.51562 -0.625,0.79687 -0.375,0.28125 -0.95312,0.42188 -0.5625,0.14062 -1.375,0.14062 l -3.28125,0 z m 1.14062,-4.98437 1.85938,0 q 0.75,0 1.07812,-0.0937 0.4375,-0.125 0.65625,-0.42188 0.21875,-0.3125 0.21875,-0.76562 0,-0.42188 -0.20312,-0.75 -0.20313,-0.32813 -0.59375,-0.4375 -0.375,-0.125 -1.29688,-0.125 l -1.71875,0 0,2.59375 z m 0,3.96875 2.14063,0 q 0.54687,0 0.76562,-0.0469 0.40625,-0.0625 0.65625,-0.21875 0.26563,-0.17187 0.4375,-0.48437 0.17188,-0.3125 0.17188,-0.71875 0,-0.48438 -0.25,-0.84375 -0.23438,-0.35938 -0.67188,-0.5 -0.4375,-0.14063 -1.26562,-0.14063 l -1.98438,0 0,2.95313 z m 6.39454,-2.09375 q 0,-1.73438 0.95312,-2.5625 0.79688,-0.6875 1.95313,-0.6875 1.28125,0 2.09375,0.84375 0.82812,0.82812 0.82812,2.3125 0,1.20312 -0.35937,1.89062 -0.35938,0.6875 -1.0625,1.07813 -0.6875,0.375 -1.5,0.375 -1.29688,0 -2.10938,-0.82813 -0.79687,-0.84375 -0.79687,-2.42187 z m 1.07812,0 q 0,1.1875 0.51563,1.78125 0.53125,0.59375 1.3125,0.59375 0.79687,0 1.3125,-0.59375 0.51562,-0.59375 0.51562,-1.8125 0,-1.15625 -0.53125,-1.75 -0.51562,-0.59375 -1.29687,-0.59375 -0.78125,0 -1.3125,0.59375 -0.51563,0.57812 -0.51563,1.78125 z m 5.2832,3.10937 2.26563,-3.23437 -2.09375,-2.98438 1.3125,0 0.95312,1.45313 q 0.26563,0.42187 0.4375,0.70312 0.25,-0.39062 0.46875,-0.6875 l 1.04688,-1.46875 1.26562,0 -2.15625,2.92188 2.3125,3.29687 -1.28125,0 -1.28125,-1.9375 -0.34375,-0.51562 -1.64062,2.45312 -1.26563,0 z m 9.22461,0 3.29688,-8.59375 1.21875,0 3.51562,8.59375 -1.28125,0 -1.01562,-2.60937 -3.57813,0 -0.95312,2.60937 -1.20313,0 z m 2.48438,-3.53125 2.90625,0 -0.89063,-2.375 q -0.42187,-1.07812 -0.60937,-1.78125 -0.17188,0.82813 -0.46875,1.64063 l -0.9375,2.51562 z"
       id="path5839"
       inkscape:connector-curvature="0"
       style="fill:#000000;fill-rule:nonzero" />
    <path
       d="m 539.37009,510.02106 0,0 c 0,-20.98682 15.70172,-38 35.07086,-38 l 0,0 c 9.30133,0 18.22174,4.00354 24.79883,11.12994 6.57709,7.12635 10.27203,16.79181 10.27203,26.87006 l 0,0 c 0,20.98682 -15.70178,38 -35.07086,38 l 0,0 c -19.36914,0 -35.07086,-17.01318 -35.07086,-38 z"
       id="path5841"
       inkscape:connector-curvature="0"
       style="fill:#000000;fill-opacity:0;fill-rule:evenodd" />
    <path
       d="m 539.37009,510.02106 0,0 c 0,-20.98682 15.70172,-38 35.07086,-38 l 0,0 c 9.30133,0 18.22174,4.00354 24.79883,11.12994 6.57709,7.12635 10.27203,16.79181 10.27203,26.87006 l 0,0 c 0,20.98682 -15.70178,38 -35.07086,38 l 0,0 c -19.36914,0 -35.07086,-17.01318 -35.07086,-38 z"
       id="path5843"
       inkscape:connector-curvature="0"
       style="fill-rule:evenodd;stroke:#4a86e8;stroke-width:3;stroke-linecap:butt;stroke-linejoin:round" />
    <path
       d="m 560.41949,507.54102 0,-8.59375 5.79687,0 0,1.01563 -4.65625,0 0,2.65625 4.03125,0 0,1.01562 -4.03125,0 0,3.90625 -1.14062,0 z m 11.20508,-0.76562 q -0.59375,0.5 -1.14063,0.70312 -0.53125,0.20313 -1.15625,0.20313 -1.03125,0 -1.57812,-0.5 -0.54688,-0.5 -0.54688,-1.28125 0,-0.45313 0.20313,-0.82813 0.20312,-0.39062 0.54687,-0.60937 0.34375,-0.23438 0.76563,-0.34375 0.29687,-0.0937 0.9375,-0.17188 1.26562,-0.14062 1.875,-0.35937 0,-0.21875 0,-0.26563 0,-0.65625 -0.29688,-0.92187 -0.40625,-0.34375 -1.20312,-0.34375 -0.73438,0 -1.09375,0.26562 -0.35938,0.25 -0.53125,0.90625 l -1.03125,-0.14062 q 0.14062,-0.65625 0.46875,-1.0625 0.32812,-0.40625 0.9375,-0.625 0.60937,-0.21875 1.40625,-0.21875 0.79687,0 1.29687,0.1875 0.5,0.1875 0.73438,0.46875 0.23437,0.28125 0.32812,0.71875 0.0469,0.26562 0.0469,0.96875 l 0,1.40625 q 0,1.46875 0.0625,1.85937 0.0781,0.39063 0.28125,0.75 l -1.10938,0 q -0.15625,-0.32812 -0.20312,-0.76562 z m -0.0937,-2.35938 q -0.57813,0.23438 -1.71875,0.40625 -0.65625,0.0937 -0.92188,0.21875 -0.26562,0.10938 -0.42187,0.32813 -0.14063,0.21875 -0.14063,0.5 0,0.42187 0.3125,0.70312 0.32813,0.28125 0.9375,0.28125 0.60938,0 1.07813,-0.26562 0.48437,-0.26563 0.70312,-0.73438 0.17188,-0.35937 0.17188,-1.04687 l 0,-0.39063 z m 6.76758,0.84375 1.03125,0.14063 q -0.17188,1.0625 -0.875,1.67187 -0.70313,0.60938 -1.71875,0.60938 -1.28125,0 -2.0625,-0.82813 -0.76563,-0.84375 -0.76563,-2.40625 0,-1 0.32813,-1.75 0.34375,-0.76562 1.01562,-1.14062 0.6875,-0.375 1.5,-0.375 1,0 1.64063,0.51562 0.65625,0.5 0.84375,1.45313 l -1.03125,0.15625 q -0.14063,-0.625 -0.51563,-0.9375 -0.375,-0.32813 -0.90625,-0.32813 -0.79687,0 -1.29687,0.57813 -0.5,0.5625 -0.5,1.79687 0,1.26563 0.48437,1.82813 0.48438,0.5625 1.25,0.5625 0.625,0 1.03125,-0.375 0.42188,-0.375 0.54688,-1.17188 z m 6.1875,0.28125 1.09375,0.125 q -0.25,0.95313 -0.95313,1.48438 -0.70312,0.53125 -1.78125,0.53125 -1.35937,0 -2.17187,-0.84375 -0.79688,-0.84375 -0.79688,-2.35938 0,-1.5625 0.8125,-2.42187 0.8125,-0.875 2.09375,-0.875 1.25,0 2.03125,0.84375 0.79688,0.84375 0.79688,2.39062 0,0.0937 0,0.28125 l -4.64063,0 q 0.0625,1.03125 0.57813,1.57813 0.51562,0.53125 1.29687,0.53125 0.57813,0 0.98438,-0.29688 0.42187,-0.3125 0.65625,-0.96875 z m -3.45313,-1.70312 3.46875,0 q -0.0625,-0.79688 -0.39062,-1.1875 -0.51563,-0.60938 -1.3125,-0.60938 -0.73438,0 -1.23438,0.48438 -0.48437,0.48437 -0.53125,1.3125 z m 8.17383,2.76562 0.15625,0.92188 q -0.45313,0.0937 -0.79688,0.0937 -0.57812,0 -0.89062,-0.17188 -0.3125,-0.1875 -0.45313,-0.48437 -0.125,-0.29688 -0.125,-1.25 l 0,-3.57813 -0.76562,0 0,-0.8125 0.76562,0 0,-1.54687 1.04688,-0.625 0,2.17187 1.0625,0 0,0.8125 -1.0625,0 0,3.64063 q 0,0.45312 0.0469,0.57812 0.0625,0.125 0.1875,0.20313 0.125,0.0781 0.35938,0.0781 0.1875,0 0.46875,-0.0312 z"
       id="path5845"
       inkscape:connector-curvature="0"
       style="fill:#000000;fill-rule:nonzero" />
    <path
       d="m 577.15089,520.5254 0,1.01563 -5.6875,0 q 0,-0.375 0.125,-0.73438 0.21875,-0.57812 0.6875,-1.14062 0.48437,-0.5625 1.39062,-1.29688 1.40625,-1.15625 1.89063,-1.82812 0.5,-0.67188 0.5,-1.26563 0,-0.625 -0.45313,-1.04687 -0.45312,-0.4375 -1.17187,-0.4375 -0.76563,0 -1.21875,0.45312 -0.45313,0.45313 -0.46875,1.26563 l -1.07813,-0.10938 q 0.10938,-1.21875 0.82813,-1.84375 0.73437,-0.64062 1.96875,-0.64062 1.23437,0 1.95312,0.6875 0.71875,0.6875 0.71875,1.70312 0,0.51563 -0.21875,1.01563 -0.20312,0.48437 -0.70312,1.04687 -0.48438,0.54688 -1.60938,1.5 -0.95312,0.79688 -1.23437,1.09375 -0.26563,0.28125 -0.4375,0.5625 l 4.21875,0 z"
       id="path5847"
       inkscape:connector-curvature="0"
       style="fill:#000000;fill-rule:nonzero" />
    <path
       d="M 503.90153,433.70738 491.77555,472.0066"
       id="path5849"
       inkscape:connector-curvature="0"
       style="fill:#000000;fill-opacity:0;fill-rule:evenodd" />
    <path
       d="M 503.90153,433.70738 491.77555,472.0066"
       id="path5851"
       inkscape:connector-curvature="0"
       style="fill-rule:evenodd;stroke:#4a86e8;stroke-width:1;stroke-linecap:butt;stroke-linejoin:round" />
    <path
       d="m 560.58139,433.70738 13.85828,38.29922"
       id="path5853"
       inkscape:connector-curvature="0"
       style="fill:#000000;fill-opacity:0;fill-rule:evenodd" />
    <path
       d="m 560.58139,433.70738 13.85828,38.29922"
       id="path5855"
       inkscape:connector-curvature="0"
       style="fill-rule:evenodd;stroke:#4a86e8;stroke-width:1;stroke-linecap:butt;stroke-linejoin:round" />
    <path
       d="m 456.70866,510.02106 0,0 c 0,-20.98682 15.70178,-38 35.07086,-38 l 0,0 c 9.30139,0 18.2218,4.00354 24.79883,11.12994 6.57709,7.12635 10.27203,16.79181 10.27203,26.87006 l 0,0 c 0,20.98682 -15.70172,38 -35.07086,38 l 0,0 c -19.36908,0 -35.07086,-17.01318 -35.07086,-38 z"
       id="path5857"
       inkscape:connector-curvature="0"
       style="fill:#000000;fill-opacity:0;fill-rule:evenodd" />
    <path
       d="m 456.70866,510.02106 0,0 c 0,-20.98682 15.70178,-38 35.07086,-38 l 0,0 c 9.30139,0 18.2218,4.00354 24.79883,11.12994 6.57709,7.12635 10.27203,16.79181 10.27203,26.87006 l 0,0 c 0,20.98682 -15.70172,38 -35.07086,38 l 0,0 c -19.36908,0 -35.07086,-17.01318 -35.07086,-38 z"
       id="path5859"
       inkscape:connector-curvature="0"
       style="fill-rule:evenodd;stroke:#4a86e8;stroke-width:3;stroke-linecap:butt;stroke-linejoin:round" />
    <path
       d="m 477.75804,507.54102 0,-8.59375 5.79687,0 0,1.01563 -4.65625,0 0,2.65625 4.03125,0 0,1.01562 -4.03125,0 0,3.90625 -1.14062,0 z m 11.20508,-0.76562 q -0.59375,0.5 -1.14063,0.70312 -0.53125,0.20313 -1.15625,0.20313 -1.03125,0 -1.57812,-0.5 -0.54688,-0.5 -0.54688,-1.28125 0,-0.45313 0.20313,-0.82813 0.20312,-0.39062 0.54687,-0.60937 0.34375,-0.23438 0.76563,-0.34375 0.29687,-0.0937 0.9375,-0.17188 1.26562,-0.14062 1.875,-0.35937 0,-0.21875 0,-0.26563 0,-0.65625 -0.29688,-0.92187 -0.40625,-0.34375 -1.20312,-0.34375 -0.73438,0 -1.09375,0.26562 -0.35938,0.25 -0.53125,0.90625 l -1.03125,-0.14062 q 0.14062,-0.65625 0.46875,-1.0625 0.32812,-0.40625 0.9375,-0.625 0.60937,-0.21875 1.40625,-0.21875 0.79687,0 1.29687,0.1875 0.5,0.1875 0.73438,0.46875 0.23437,0.28125 0.32812,0.71875 0.0469,0.26562 0.0469,0.96875 l 0,1.40625 q 0,1.46875 0.0625,1.85937 0.0781,0.39063 0.28125,0.75 l -1.10938,0 q -0.15625,-0.32812 -0.20312,-0.76562 z m -0.0937,-2.35938 q -0.57813,0.23438 -1.71875,0.40625 -0.65625,0.0937 -0.92188,0.21875 -0.26562,0.10938 -0.42187,0.32813 -0.14063,0.21875 -0.14063,0.5 0,0.42187 0.3125,0.70312 0.32813,0.28125 0.9375,0.28125 0.60938,0 1.07813,-0.26562 0.48437,-0.26563 0.70312,-0.73438 0.17188,-0.35937 0.17188,-1.04687 l 0,-0.39063 z m 6.76758,0.84375 1.03125,0.14063 q -0.17188,1.0625 -0.875,1.67187 -0.70313,0.60938 -1.71875,0.60938 -1.28125,0 -2.0625,-0.82813 -0.76563,-0.84375 -0.76563,-2.40625 0,-1 0.32813,-1.75 0.34375,-0.76562 1.01562,-1.14062 0.6875,-0.375 1.5,-0.375 1,0 1.64063,0.51562 0.65625,0.5 0.84375,1.45313 l -1.03125,0.15625 q -0.14063,-0.625 -0.51563,-0.9375 -0.375,-0.32813 -0.90625,-0.32813 -0.79687,0 -1.29687,0.57813 -0.5,0.5625 -0.5,1.79687 0,1.26563 0.48437,1.82813 0.48438,0.5625 1.25,0.5625 0.625,0 1.03125,-0.375 0.42188,-0.375 0.54688,-1.17188 z m 6.1875,0.28125 1.09375,0.125 q -0.25,0.95313 -0.95313,1.48438 -0.70312,0.53125 -1.78125,0.53125 -1.35937,0 -2.17187,-0.84375 -0.79688,-0.84375 -0.79688,-2.35938 0,-1.5625 0.8125,-2.42187 0.8125,-0.875 2.09375,-0.875 1.25,0 2.03125,0.84375 0.79688,0.84375 0.79688,2.39062 0,0.0937 0,0.28125 l -4.64063,0 q 0.0625,1.03125 0.57813,1.57813 0.51562,0.53125 1.29687,0.53125 0.57813,0 0.98438,-0.29688 0.42187,-0.3125 0.65625,-0.96875 z m -3.45313,-1.70312 3.46875,0 q -0.0625,-0.79688 -0.39062,-1.1875 -0.51563,-0.60938 -1.3125,-0.60938 -0.73438,0 -1.23438,0.48438 -0.48437,0.48437 -0.53125,1.3125 z m 8.17383,2.76562 0.15625,0.92188 q -0.45313,0.0937 -0.79688,0.0937 -0.57812,0 -0.89062,-0.17188 -0.3125,-0.1875 -0.45313,-0.48437 -0.125,-0.29688 -0.125,-1.25 l 0,-3.57813 -0.76562,0 0,-0.8125 0.76562,0 0,-1.54687 1.04688,-0.625 0,2.17187 1.0625,0 0,0.8125 -1.0625,0 0,3.64063 q 0,0.45312 0.0469,0.57812 0.0625,0.125 0.1875,0.20313 0.125,0.0781 0.35938,0.0781 0.1875,0 0.46875,-0.0312 z"
       id="path5861"
       inkscape:connector-curvature="0"
       style="fill:#000000;fill-rule:nonzero" />
    <path
       d="m 492.91136,521.54102 -1.04688,0 0,-6.71875 q -0.39062,0.35938 -1.01562,0.73438 -0.60938,0.35937 -1.09375,0.53125 l 0,-1.01563 q 0.875,-0.42187 1.53125,-1 0.67187,-0.59375 0.95312,-1.15625 l 0.67188,0 0,8.625 z"
       id="path5863"
       inkscape:connector-curvature="0"
       style="fill:#000000;fill-rule:nonzero" />
    <path
       d="m 657.48686,406.83732 0,0 c 0,-20.98682 17.94391,-38 40.07874,-38 l 0,0 c 10.62957,0 20.82373,4.00357 28.33996,11.12994 7.51624,7.12638 11.73877,16.79184 11.73877,26.87006 l 0,0 c 0,20.98682 -17.94385,38 -40.07873,38 l 0,0 c -22.13483,0 -40.07874,-17.01318 -40.07874,-38 z"
       id="path5865"
       inkscape:connector-curvature="0"
       style="fill:#000000;fill-opacity:0;fill-rule:evenodd" />
    <path
       d="m 657.48686,406.83732 0,0 c 0,-20.98682 17.94391,-38 40.07874,-38 l 0,0 c 10.62957,0 20.82373,4.00357 28.33996,11.12994 7.51624,7.12638 11.73877,16.79184 11.73877,26.87006 l 0,0 c 0,20.98682 -17.94385,38 -40.07873,38 l 0,0 c -22.13483,0 -40.07874,-17.01318 -40.07874,-38 z"
       id="path5867"
       inkscape:connector-curvature="0"
       style="fill-rule:evenodd;stroke:#4a86e8;stroke-width:1;stroke-linecap:butt;stroke-linejoin:round;stroke-dasharray:4, 3" />
    <path
       d="m 682.43279,411.35731 0,-8.59375 3.23438,0 q 0.98437,0 1.57812,0.26563 0.59375,0.26562 0.92188,0.8125 0.34375,0.53125 0.34375,1.125 0,0.54687 -0.29688,1.03125 -0.29687,0.48437 -0.90625,0.78125 0.78125,0.23437 1.1875,0.79687 0.42188,0.54688 0.42188,1.29688 0,0.59375 -0.25,1.125 -0.25,0.51562 -0.625,0.79687 -0.375,0.28125 -0.95313,0.42188 -0.5625,0.14062 -1.375,0.14062 l -3.28125,0 z m 1.14063,-4.98437 1.85937,0 q 0.75,0 1.07813,-0.0937 0.4375,-0.125 0.65625,-0.42188 0.21875,-0.3125 0.21875,-0.76562 0,-0.42188 -0.20313,-0.75 -0.20312,-0.32813 -0.59375,-0.4375 -0.375,-0.125 -1.29687,-0.125 l -1.71875,0 0,2.59375 z m 0,3.96875 2.14062,0 q 0.54688,0 0.76563,-0.0469 0.40625,-0.0625 0.65625,-0.21875 0.26562,-0.17187 0.4375,-0.48437 0.17187,-0.3125 0.17187,-0.71875 0,-0.48438 -0.25,-0.84375 -0.23437,-0.35938 -0.67187,-0.5 -0.4375,-0.14063 -1.26563,-0.14063 l -1.98437,0 0,2.95313 z m 6.39453,-2.09375 q 0,-1.73438 0.95312,-2.5625 0.79688,-0.6875 1.95313,-0.6875 1.28125,0 2.09375,0.84375 0.82812,0.82812 0.82812,2.3125 0,1.20312 -0.35937,1.89062 -0.35938,0.6875 -1.0625,1.07813 -0.6875,0.375 -1.5,0.375 -1.29688,0 -2.10938,-0.82813 -0.79687,-0.84375 -0.79687,-2.42187 z m 1.07812,0 q 0,1.1875 0.51563,1.78125 0.53125,0.59375 1.3125,0.59375 0.79687,0 1.3125,-0.59375 0.51562,-0.59375 0.51562,-1.8125 0,-1.15625 -0.53125,-1.75 -0.51562,-0.59375 -1.29687,-0.59375 -0.78125,0 -1.3125,0.59375 -0.51563,0.57812 -0.51563,1.78125 z m 5.2832,3.10937 2.26563,-3.23437 -2.09375,-2.98438 1.3125,0 0.95312,1.45313 q 0.26563,0.42187 0.4375,0.70312 0.25,-0.39062 0.46875,-0.6875 l 1.04688,-1.46875 1.26562,0 -2.15625,2.92188 2.3125,3.29687 -1.28125,0 -1.28125,-1.9375 -0.34375,-0.51562 -1.64062,2.45312 -1.26563,0 z m 10.11524,0 0,-8.59375 3.23437,0 q 0.98438,0 1.57813,0.26563 0.59375,0.26562 0.92187,0.8125 0.34375,0.53125 0.34375,1.125 0,0.54687 -0.29687,1.03125 -0.29688,0.48437 -0.90625,0.78125 0.78125,0.23437 1.1875,0.79687 0.42187,0.54688 0.42187,1.29688 0,0.59375 -0.25,1.125 -0.25,0.51562 -0.625,0.79687 -0.375,0.28125 -0.95312,0.42188 -0.5625,0.14062 -1.375,0.14062 l -3.28125,0 z m 1.14062,-4.98437 1.85938,0 q 0.75,0 1.07812,-0.0937 0.4375,-0.125 0.65625,-0.42188 0.21875,-0.3125 0.21875,-0.76562 0,-0.42188 -0.20312,-0.75 -0.20313,-0.32813 -0.59375,-0.4375 -0.375,-0.125 -1.29688,-0.125 l -1.71875,0 0,2.59375 z m 0,3.96875 2.14063,0 q 0.54687,0 0.76562,-0.0469 0.40625,-0.0625 0.65625,-0.21875 0.26563,-0.17187 0.4375,-0.48437 0.17188,-0.3125 0.17188,-0.71875 0,-0.48438 -0.25,-0.84375 -0.23438,-0.35938 -0.67188,-0.5 -0.4375,-0.14063 -1.26562,-0.14063 l -1.98438,0 0,2.95313 z"
       id="path5869"
       inkscape:connector-curvature="0"
       style="fill:#000000;fill-rule:nonzero" />
    <path
       d="m 704.69425,510.02106 0,0 c 0,-20.98682 15.70172,-38 35.07086,-38 l 0,0 c 9.30133,0 18.22174,4.00354 24.79883,11.12994 6.57709,7.12635 10.27203,16.79181 10.27203,26.87006 l 0,0 c 0,20.98682 -15.70178,38 -35.07086,38 l 0,0 c -19.36914,0 -35.07086,-17.01318 -35.07086,-38 z"
       id="path5871"
       inkscape:connector-curvature="0"
       style="fill:#000000;fill-opacity:0;fill-rule:evenodd" />
    <path
       d="m 704.69425,510.02106 0,0 c 0,-20.98682 15.70172,-38 35.07086,-38 l 0,0 c 9.30133,0 18.22174,4.00354 24.79883,11.12994 6.57709,7.12635 10.27203,16.79181 10.27203,26.87006 l 0,0 c 0,20.98682 -15.70178,38 -35.07086,38 l 0,0 c -19.36914,0 -35.07086,-17.01318 -35.07086,-38 z"
       id="path5873"
       inkscape:connector-curvature="0"
       style="fill-rule:evenodd;stroke:#4a86e8;stroke-width:3;stroke-linecap:butt;stroke-linejoin:round" />
    <path
       d="m 725.74363,507.54102 0,-8.59375 5.79687,0 0,1.01563 -4.65625,0 0,2.65625 4.03125,0 0,1.01562 -4.03125,0 0,3.90625 -1.14062,0 z m 11.20508,-0.76562 q -0.59375,0.5 -1.14063,0.70312 -0.53125,0.20313 -1.15625,0.20313 -1.03125,0 -1.57812,-0.5 -0.54688,-0.5 -0.54688,-1.28125 0,-0.45313 0.20313,-0.82813 0.20312,-0.39062 0.54687,-0.60937 0.34375,-0.23438 0.76563,-0.34375 0.29687,-0.0937 0.9375,-0.17188 1.26562,-0.14062 1.875,-0.35937 0,-0.21875 0,-0.26563 0,-0.65625 -0.29688,-0.92187 -0.40625,-0.34375 -1.20312,-0.34375 -0.73438,0 -1.09375,0.26562 -0.35938,0.25 -0.53125,0.90625 l -1.03125,-0.14062 q 0.14062,-0.65625 0.46875,-1.0625 0.32812,-0.40625 0.9375,-0.625 0.60937,-0.21875 1.40625,-0.21875 0.79687,0 1.29687,0.1875 0.5,0.1875 0.73438,0.46875 0.23437,0.28125 0.32812,0.71875 0.0469,0.26562 0.0469,0.96875 l 0,1.40625 q 0,1.46875 0.0625,1.85937 0.0781,0.39063 0.28125,0.75 l -1.10938,0 q -0.15625,-0.32812 -0.20312,-0.76562 z m -0.0937,-2.35938 q -0.57813,0.23438 -1.71875,0.40625 -0.65625,0.0937 -0.92188,0.21875 -0.26562,0.10938 -0.42187,0.32813 -0.14063,0.21875 -0.14063,0.5 0,0.42187 0.3125,0.70312 0.32813,0.28125 0.9375,0.28125 0.60938,0 1.07813,-0.26562 0.48437,-0.26563 0.70312,-0.73438 0.17188,-0.35937 0.17188,-1.04687 l 0,-0.39063 z m 6.76758,0.84375 1.03125,0.14063 q -0.17188,1.0625 -0.875,1.67187 -0.70313,0.60938 -1.71875,0.60938 -1.28125,0 -2.0625,-0.82813 -0.76563,-0.84375 -0.76563,-2.40625 0,-1 0.32813,-1.75 0.34375,-0.76562 1.01562,-1.14062 0.6875,-0.375 1.5,-0.375 1,0 1.64063,0.51562 0.65625,0.5 0.84375,1.45313 l -1.03125,0.15625 q -0.14063,-0.625 -0.51563,-0.9375 -0.375,-0.32813 -0.90625,-0.32813 -0.79687,0 -1.29687,0.57813 -0.5,0.5625 -0.5,1.79687 0,1.26563 0.48437,1.82813 0.48438,0.5625 1.25,0.5625 0.625,0 1.03125,-0.375 0.42188,-0.375 0.54688,-1.17188 z m 6.1875,0.28125 1.09375,0.125 q -0.25,0.95313 -0.95313,1.48438 -0.70312,0.53125 -1.78125,0.53125 -1.35937,0 -2.17187,-0.84375 -0.79688,-0.84375 -0.79688,-2.35938 0,-1.5625 0.8125,-2.42187 0.8125,-0.875 2.09375,-0.875 1.25,0 2.03125,0.84375 0.79688,0.84375 0.79688,2.39062 0,0.0937 0,0.28125 l -4.64063,0 q 0.0625,1.03125 0.57813,1.57813 0.51562,0.53125 1.29687,0.53125 0.57813,0 0.98438,-0.29688 0.42187,-0.3125 0.65625,-0.96875 z m -3.45313,-1.70312 3.46875,0 q -0.0625,-0.79688 -0.39062,-1.1875 -0.51563,-0.60938 -1.3125,-0.60938 -0.73438,0 -1.23438,0.48438 -0.48437,0.48437 -0.53125,1.3125 z m 8.17383,2.76562 0.15625,0.92188 q -0.45313,0.0937 -0.79688,0.0937 -0.57812,0 -0.89062,-0.17188 -0.3125,-0.1875 -0.45313,-0.48437 -0.125,-0.29688 -0.125,-1.25 l 0,-3.57813 -0.76562,0 0,-0.8125 0.76562,0 0,-1.54687 1.04688,-0.625 0,2.17187 1.0625,0 0,0.8125 -1.0625,0 0,3.64063 q 0,0.45312 0.0469,0.57812 0.0625,0.125 0.1875,0.20313 0.125,0.0781 0.35938,0.0781 0.1875,0 0.46875,-0.0312 z"
       id="path5875"
       inkscape:connector-curvature="0"
       style="fill:#000000;fill-rule:nonzero" />
    <path
       d="m 740.30319,521.54102 0,-2.0625 -3.71875,0 0,-0.96875 3.92188,-5.5625 0.85937,0 0,5.5625 1.15625,0 0,0.96875 -1.15625,0 0,2.0625 -1.0625,0 z m 0,-3.03125 0,-3.85937 -2.6875,3.85937 2.6875,0 z"
       id="path5877"
       inkscape:connector-curvature="0"
       style="fill:#000000;fill-rule:nonzero" />
    <path
       d="M 669.22569,433.70738 657.09971,472.0066"
       id="path5879"
       inkscape:connector-curvature="0"
       style="fill:#000000;fill-opacity:0;fill-rule:evenodd" />
    <path
       d="M 669.22569,433.70738 657.09971,472.0066"
       id="path5881"
       inkscape:connector-curvature="0"
       style="fill-rule:evenodd;stroke:#4a86e8;stroke-width:1;stroke-linecap:butt;stroke-linejoin:round" />
    <path
       d="m 725.90556,433.70738 13.85828,38.29922"
       id="path5883"
       inkscape:connector-curvature="0"
       style="fill:#000000;fill-opacity:0;fill-rule:evenodd" />
    <path
       d="m 725.90556,433.70738 13.85828,38.29922"
       id="path5885"
       inkscape:connector-curvature="0"
       style="fill-rule:evenodd;stroke:#4a86e8;stroke-width:1;stroke-linecap:butt;stroke-linejoin:round" />
    <path
       d="m 622.03279,510.02106 0,0 c 0,-20.98682 15.70178,-38 35.07086,-38 l 0,0 c 9.30139,0 18.2218,4.00354 24.79883,11.12994 6.57709,7.12635 10.27203,16.79181 10.27203,26.87006 l 0,0 c 0,20.98682 -15.70178,38 -35.07086,38 l 0,0 c -19.36908,0 -35.07086,-17.01318 -35.07086,-38 z"
       id="path5887"
       inkscape:connector-curvature="0"
       style="fill:#000000;fill-opacity:0;fill-rule:evenodd" />
    <path
       d="m 622.03279,510.02106 0,0 c 0,-20.98682 15.70178,-38 35.07086,-38 l 0,0 c 9.30139,0 18.2218,4.00354 24.79883,11.12994 6.57709,7.12635 10.27203,16.79181 10.27203,26.87006 l 0,0 c 0,20.98682 -15.70178,38 -35.07086,38 l 0,0 c -19.36908,0 -35.07086,-17.01318 -35.07086,-38 z"
       id="path5889"
       inkscape:connector-curvature="0"
       style="fill-rule:evenodd;stroke:#4a86e8;stroke-width:3;stroke-linecap:butt;stroke-linejoin:round" />
    <path
       d="m 643.08219,507.54102 0,-8.59375 5.79688,0 0,1.01563 -4.65625,0 0,2.65625 4.03125,0 0,1.01562 -4.03125,0 0,3.90625 -1.14063,0 z m 11.20508,-0.76562 q -0.59375,0.5 -1.14063,0.70312 -0.53125,0.20313 -1.15625,0.20313 -1.03125,0 -1.57812,-0.5 -0.54688,-0.5 -0.54688,-1.28125 0,-0.45313 0.20313,-0.82813 0.20312,-0.39062 0.54687,-0.60937 0.34375,-0.23438 0.76563,-0.34375 0.29687,-0.0937 0.9375,-0.17188 1.26562,-0.14062 1.875,-0.35937 0,-0.21875 0,-0.26563 0,-0.65625 -0.29688,-0.92187 -0.40625,-0.34375 -1.20312,-0.34375 -0.73438,0 -1.09375,0.26562 -0.35938,0.25 -0.53125,0.90625 l -1.03125,-0.14062 q 0.14062,-0.65625 0.46875,-1.0625 0.32812,-0.40625 0.9375,-0.625 0.60937,-0.21875 1.40625,-0.21875 0.79687,0 1.29687,0.1875 0.5,0.1875 0.73438,0.46875 0.23437,0.28125 0.32812,0.71875 0.0469,0.26562 0.0469,0.96875 l 0,1.40625 q 0,1.46875 0.0625,1.85937 0.0781,0.39063 0.28125,0.75 l -1.10938,0 q -0.15625,-0.32812 -0.20312,-0.76562 z m -0.0937,-2.35938 q -0.57813,0.23438 -1.71875,0.40625 -0.65625,0.0937 -0.92188,0.21875 -0.26562,0.10938 -0.42187,0.32813 -0.14063,0.21875 -0.14063,0.5 0,0.42187 0.3125,0.70312 0.32813,0.28125 0.9375,0.28125 0.60938,0 1.07813,-0.26562 0.48437,-0.26563 0.70312,-0.73438 0.17188,-0.35937 0.17188,-1.04687 l 0,-0.39063 z m 6.76758,0.84375 1.03125,0.14063 q -0.17188,1.0625 -0.875,1.67187 -0.70313,0.60938 -1.71875,0.60938 -1.28125,0 -2.0625,-0.82813 -0.76563,-0.84375 -0.76563,-2.40625 0,-1 0.32813,-1.75 0.34375,-0.76562 1.01562,-1.14062 0.6875,-0.375 1.5,-0.375 1,0 1.64063,0.51562 0.65625,0.5 0.84375,1.45313 l -1.03125,0.15625 q -0.14063,-0.625 -0.51563,-0.9375 -0.375,-0.32813 -0.90625,-0.32813 -0.79687,0 -1.29687,0.57813 -0.5,0.5625 -0.5,1.79687 0,1.26563 0.48437,1.82813 0.48438,0.5625 1.25,0.5625 0.625,0 1.03125,-0.375 0.42188,-0.375 0.54688,-1.17188 z m 6.1875,0.28125 1.09375,0.125 q -0.25,0.95313 -0.95313,1.48438 -0.70312,0.53125 -1.78125,0.53125 -1.35937,0 -2.17187,-0.84375 -0.79688,-0.84375 -0.79688,-2.35938 0,-1.5625 0.8125,-2.42187 0.8125,-0.875 2.09375,-0.875 1.25,0 2.03125,0.84375 0.79688,0.84375 0.79688,2.39062 0,0.0937 0,0.28125 l -4.64063,0 q 0.0625,1.03125 0.57813,1.57813 0.51562,0.53125 1.29687,0.53125 0.57813,0 0.98438,-0.29688 0.42187,-0.3125 0.65625,-0.96875 z m -3.45313,-1.70312 3.46875,0 q -0.0625,-0.79688 -0.39062,-1.1875 -0.51563,-0.60938 -1.3125,-0.60938 -0.73438,0 -1.23438,0.48438 -0.48437,0.48437 -0.53125,1.3125 z m 8.17383,2.76562 0.15625,0.92188 q -0.45313,0.0937 -0.79688,0.0937 -0.57812,0 -0.89062,-0.17188 -0.3125,-0.1875 -0.45313,-0.48437 -0.125,-0.29688 -0.125,-1.25 l 0,-3.57813 -0.76562,0 0,-0.8125 0.76562,0 0,-1.54687 1.04688,-0.625 0,2.17187 1.0625,0 0,0.8125 -1.0625,0 0,3.64063 q 0,0.45312 0.0469,0.57812 0.0625,0.125 0.1875,0.20313 0.125,0.0781 0.35938,0.0781 0.1875,0 0.46875,-0.0312 z"
       id="path5891"
       inkscape:connector-curvature="0"
       style="fill:#000000;fill-rule:nonzero" />
    <path
       d="m 654.26679,519.2754 1.0625,-0.14062 q 0.17187,0.89062 0.60937,1.29687 0.4375,0.39063 1.0625,0.39063 0.75,0 1.26563,-0.51563 0.51562,-0.51562 0.51562,-1.28125 0,-0.71875 -0.48437,-1.1875 -0.46875,-0.48437 -1.20313,-0.48437 -0.29687,0 -0.75,0.125 l 0.125,-0.9375 q 0.10938,0.0156 0.17188,0.0156 0.67187,0 1.20312,-0.34375 0.54688,-0.35937 0.54688,-1.09375 0,-0.57812 -0.39063,-0.95312 -0.39062,-0.39063 -1.01562,-0.39063 -0.60938,0 -1.03125,0.39063 -0.40625,0.39062 -0.51563,1.15625 l -1.0625,-0.1875 q 0.1875,-1.04688 0.875,-1.625 0.6875,-0.59375 1.70313,-0.59375 0.70312,0 1.29687,0.3125 0.59375,0.29687 0.90625,0.8125 0.3125,0.51562 0.3125,1.10937 0,0.54688 -0.29687,1.01563 -0.29688,0.45312 -0.875,0.71875 0.75,0.17187 1.17187,0.73437 0.42188,0.54688 0.42188,1.39063 0,1.125 -0.82813,1.90625 -0.8125,0.78125 -2.0625,0.78125 -1.125,0 -1.875,-0.67188 -0.75,-0.6875 -0.85937,-1.75 z"
       id="path5893"
       inkscape:connector-curvature="0"
       style="fill:#000000;fill-rule:nonzero" />
    <path
       d="m 532.24149,368.83732 54.36218,-24.94488"
       id="path5895"
       inkscape:connector-curvature="0"
       style="fill:#000000;fill-opacity:0;fill-rule:evenodd" />
    <path
       d="m 532.24149,368.83732 54.36218,-24.94488"
       id="path5897"
       inkscape:connector-curvature="0"
       style="fill-rule:evenodd;stroke:#4a86e8;stroke-width:1;stroke-linecap:butt;stroke-linejoin:round" />
    <path
       d="m 651.11924,343.89896 46.45666,24.94489"
       id="path5899"
       inkscape:connector-curvature="0"
       style="fill:#000000;fill-opacity:0;fill-rule:evenodd" />
    <path
       d="m 651.11924,343.89896 46.45666,24.94489"
       id="path5901"
       inkscape:connector-curvature="0"
       style="fill-rule:evenodd;stroke:#4a86e8;stroke-width:1;stroke-linecap:butt;stroke-linejoin:round" />
    <path
       d="m 308.59712,311.17854 0,0 c 0,-20.98682 20.42569,-38 45.62204,-38 l 0,0 c 25.19635,0 45.62204,17.01318 45.62204,38 l 0,0 c 0,20.98682 -20.42569,38 -45.62204,38 l 0,0 c -25.19635,0 -45.62204,-17.01318 -45.62204,-38 z"
       id="path5903"
       inkscape:connector-curvature="0"
       style="fill:#93c47d;fill-rule:evenodd" />
    <path
       d="m 334.08829,312.9329 1.0625,-0.0937 q 0.0781,0.65625 0.35937,1.0625 0.28125,0.40625 0.85938,0.67187 0.59375,0.25 1.32812,0.25 0.64063,0 1.14063,-0.1875 0.5,-0.20312 0.73437,-0.53125 0.25,-0.34375 0.25,-0.73437 0,-0.40625 -0.23437,-0.70313 -0.23438,-0.3125 -0.76563,-0.51562 -0.35937,-0.14063 -1.54687,-0.42188 -1.17188,-0.28125 -1.64063,-0.53125 -0.625,-0.32812 -0.92187,-0.79687 -0.29688,-0.48438 -0.29688,-1.07813 0,-0.64062 0.35938,-1.20312 0.375,-0.57813 1.07812,-0.85938 0.71875,-0.29687 1.57813,-0.29687 0.95312,0 1.6875,0.3125 0.73437,0.29687 1.125,0.90625 0.39062,0.59375 0.42187,1.34375 l -1.09375,0.0781 q -0.0937,-0.8125 -0.60937,-1.21875 -0.5,-0.42187 -1.48438,-0.42187 -1.03125,0 -1.5,0.375 -0.46875,0.375 -0.46875,0.90625 0,0.46875 0.32813,0.76562 0.32812,0.29688 1.70312,0.60938 1.39063,0.3125 1.90625,0.54687 0.75,0.35938 1.10938,0.89063 0.35937,0.51562 0.35937,1.21875 0,0.6875 -0.39062,1.29687 -0.39063,0.59375 -1.125,0.9375 -0.73438,0.32813 -1.65625,0.32813 -1.17188,0 -1.96875,-0.32813 -0.78125,-0.34375 -1.23438,-1.03125 -0.4375,-0.6875 -0.45312,-1.54687 z m 12.33203,2.76562 0,-0.92187 q -0.73437,1.0625 -1.98437,1.0625 -0.54688,0 -1.03125,-0.20313 -0.46875,-0.21875 -0.70313,-0.53125 -0.23437,-0.32812 -0.32812,-0.79687 -0.0625,-0.29688 -0.0625,-0.98438 l 0,-3.84375 1.0625,0 0,3.45313 q 0,0.8125 0.0625,1.10937 0.0937,0.40625 0.40625,0.65625 0.32812,0.23438 0.8125,0.23438 0.46875,0 0.875,-0.23438 0.42187,-0.25 0.59375,-0.67187 0.1875,-0.42188 0.1875,-1.21875 l 0,-3.32813 1.04687,0 0,6.21875 -0.9375,0 z m 2.58008,0 0,-6.21875 0.95312,0 0,0.9375 q 0.35938,-0.65625 0.65625,-0.85937 0.3125,-0.21875 0.6875,-0.21875 0.53125,0 1.07813,0.32812 l -0.35938,0.98438 q -0.39062,-0.23438 -0.76562,-0.23438 -0.35938,0 -0.64063,0.21875 -0.26562,0.20313 -0.375,0.57813 -0.1875,0.5625 -0.1875,1.21875 l 0,3.26562 -1.04687,0 z m 4.26172,0 0,-5.40625 -0.9375,0 0,-0.8125 0.9375,0 0,-0.67187 q 0,-0.625 0.10937,-0.92188 0.15625,-0.42187 0.53125,-0.67187 0.39063,-0.25 1.07813,-0.25 0.45312,0 0.98437,0.10937 l -0.15625,0.90625 q -0.32812,-0.0469 -0.625,-0.0469 -0.48437,0 -0.6875,0.20312 -0.1875,0.20313 -0.1875,0.76563 l 0,0.57812 1.21875,0 0,0.8125 -1.21875,0 0,5.40625 -1.04687,0 z m 7.14648,-0.76562 q -0.59375,0.5 -1.14062,0.70312 -0.53125,0.20313 -1.15625,0.20313 -1.03125,0 -1.57813,-0.5 -0.54687,-0.5 -0.54687,-1.28125 0,-0.45313 0.20312,-0.82813 0.20313,-0.39062 0.54688,-0.60937 0.34375,-0.23438 0.76562,-0.34375 0.29688,-0.0937 0.9375,-0.17188 1.26563,-0.14062 1.875,-0.35937 0,-0.21875 0,-0.26563 0,-0.65625 -0.29687,-0.92187 -0.40625,-0.34375 -1.20313,-0.34375 -0.73437,0 -1.09375,0.26562 -0.35937,0.25 -0.53125,0.90625 l -1.03125,-0.14062 q 0.14063,-0.65625 0.46875,-1.0625 0.32813,-0.40625 0.9375,-0.625 0.60938,-0.21875 1.40625,-0.21875 0.79688,0 1.29688,0.1875 0.5,0.1875 0.73437,0.46875 0.23438,0.28125 0.32813,0.71875 0.0469,0.26562 0.0469,0.96875 l 0,1.40625 q 0,1.46875 0.0625,1.85937 0.0781,0.39063 0.28125,0.75 l -1.10937,0 q -0.15625,-0.32812 -0.20313,-0.76562 z m -0.0937,-2.35938 q -0.57812,0.23438 -1.71875,0.40625 -0.65625,0.0937 -0.92187,0.21875 -0.26563,0.10938 -0.42188,0.32813 -0.14062,0.21875 -0.14062,0.5 0,0.42187 0.3125,0.70312 0.32812,0.28125 0.9375,0.28125 0.60937,0 1.07812,-0.26562 0.48438,-0.26563 0.70313,-0.73438 0.17187,-0.35937 0.17187,-1.04687 l 0,-0.39063 z m 6.76758,0.84375 1.03125,0.14063 q -0.17187,1.0625 -0.875,1.67187 -0.70312,0.60938 -1.71875,0.60938 -1.28125,0 -2.0625,-0.82813 -0.76562,-0.84375 -0.76562,-2.40625 0,-1 0.32812,-1.75 0.34375,-0.76562 1.01563,-1.14062 0.6875,-0.375 1.5,-0.375 1,0 1.64062,0.51562 0.65625,0.5 0.84375,1.45313 l -1.03125,0.15625 q -0.14062,-0.625 -0.51562,-0.9375 -0.375,-0.32813 -0.90625,-0.32813 -0.79688,0 -1.29688,0.57813 -0.5,0.5625 -0.5,1.79687 0,1.26563 0.48438,1.82813 0.48437,0.5625 1.25,0.5625 0.625,0 1.03125,-0.375 0.42187,-0.375 0.54687,-1.17188 z m 6.1875,0.28125 1.09375,0.125 q -0.25,0.95313 -0.95312,1.48438 -0.70313,0.53125 -1.78125,0.53125 -1.35938,0 -2.17188,-0.84375 -0.79687,-0.84375 -0.79687,-2.35938 0,-1.5625 0.8125,-2.42187 0.8125,-0.875 2.09375,-0.875 1.25,0 2.03125,0.84375 0.79687,0.84375 0.79687,2.39062 0,0.0937 0,0.28125 l -4.64062,0 q 0.0625,1.03125 0.57812,1.57813 0.51563,0.53125 1.29688,0.53125 0.57812,0 0.98437,-0.29688 0.42188,-0.3125 0.65625,-0.96875 z m -3.45312,-1.70312 3.46875,0 q -0.0625,-0.79688 -0.39063,-1.1875 -0.51562,-0.60938 -1.3125,-0.60938 -0.73437,0 -1.23437,0.48438 -0.48438,0.48437 -0.53125,1.3125 z"
       id="path5905"
       inkscape:connector-curvature="0"
       style="fill:#000000;fill-rule:nonzero" />
    <path
       d="m 99.05906,311.17854 0,0 c 0,-20.98682 20.42567,-38 45.62204,-38 l 0,0 c 25.19635,0 45.62204,17.01318 45.62204,38 l 0,0 c 0,20.98682 -20.42569,38 -45.62204,38 l 0,0 c -25.19637,0 -45.62204,-17.01318 -45.62204,-38 z"
       id="path5907"
       inkscape:connector-curvature="0"
       style="fill:#e06666;fill-rule:evenodd" />
    <path
       d="m 124.55024,312.9329 1.0625,-0.0937 q 0.0781,0.65625 0.35938,1.0625 0.28125,0.40625 0.85937,0.67187 0.59375,0.25 1.32813,0.25 0.64062,0 1.14062,-0.1875 0.5,-0.20312 0.73438,-0.53125 0.25,-0.34375 0.25,-0.73437 0,-0.40625 -0.23438,-0.70313 -0.23437,-0.3125 -0.76562,-0.51562 -0.35938,-0.14063 -1.54688,-0.42188 -1.17187,-0.28125 -1.64062,-0.53125 -0.625,-0.32812 -0.92188,-0.79687 -0.29687,-0.48438 -0.29687,-1.07813 0,-0.64062 0.35937,-1.20312 0.375,-0.57813 1.07813,-0.85938 0.71875,-0.29687 1.57812,-0.29687 0.95313,0 1.6875,0.3125 0.73438,0.29687 1.125,0.90625 0.39063,0.59375 0.42188,1.34375 l -1.09375,0.0781 q -0.0937,-0.8125 -0.60938,-1.21875 -0.5,-0.42187 -1.48437,-0.42187 -1.03125,0 -1.5,0.375 -0.46875,0.375 -0.46875,0.90625 0,0.46875 0.32812,0.76562 0.32813,0.29688 1.70313,0.60938 1.39062,0.3125 1.90625,0.54687 0.75,0.35938 1.10937,0.89063 0.35938,0.51562 0.35938,1.21875 0,0.6875 -0.39063,1.29687 -0.39062,0.59375 -1.125,0.9375 -0.73437,0.32813 -1.65625,0.32813 -1.17187,0 -1.96875,-0.32813 -0.78125,-0.34375 -1.23437,-1.03125 -0.4375,-0.6875 -0.45313,-1.54687 z m 12.33203,2.76562 0,-0.92187 q -0.73437,1.0625 -1.98437,1.0625 -0.54688,0 -1.03125,-0.20313 -0.46875,-0.21875 -0.70313,-0.53125 -0.23437,-0.32812 -0.32812,-0.79687 -0.0625,-0.29688 -0.0625,-0.98438 l 0,-3.84375 1.0625,0 0,3.45313 q 0,0.8125 0.0625,1.10937 0.0937,0.40625 0.40625,0.65625 0.32812,0.23438 0.8125,0.23438 0.46875,0 0.875,-0.23438 0.42187,-0.25 0.59375,-0.67187 0.1875,-0.42188 0.1875,-1.21875 l 0,-3.32813 1.04687,0 0,6.21875 -0.9375,0 z m 2.58008,0 0,-6.21875 0.95312,0 0,0.9375 q 0.35938,-0.65625 0.65625,-0.85937 0.3125,-0.21875 0.6875,-0.21875 0.53125,0 1.07813,0.32812 l -0.35938,0.98438 q -0.39062,-0.23438 -0.76562,-0.23438 -0.35938,0 -0.64063,0.21875 -0.26562,0.20313 -0.375,0.57813 -0.1875,0.5625 -0.1875,1.21875 l 0,3.26562 -1.04687,0 z m 4.26172,0 0,-5.40625 -0.9375,0 0,-0.8125 0.9375,0 0,-0.67187 q 0,-0.625 0.10937,-0.92188 0.15625,-0.42187 0.53125,-0.67187 0.39063,-0.25 1.07813,-0.25 0.45312,0 0.98437,0.10937 l -0.15625,0.90625 q -0.32812,-0.0469 -0.625,-0.0469 -0.48437,0 -0.6875,0.20312 -0.1875,0.20313 -0.1875,0.76563 l 0,0.57812 1.21875,0 0,0.8125 -1.21875,0 0,5.40625 -1.04687,0 z m 7.14648,-0.76562 q -0.59375,0.5 -1.14062,0.70312 -0.53125,0.20313 -1.15625,0.20313 -1.03125,0 -1.57813,-0.5 -0.54687,-0.5 -0.54687,-1.28125 0,-0.45313 0.20312,-0.82813 0.20313,-0.39062 0.54688,-0.60937 0.34375,-0.23438 0.76562,-0.34375 0.29688,-0.0937 0.9375,-0.17188 1.26563,-0.14062 1.875,-0.35937 0,-0.21875 0,-0.26563 0,-0.65625 -0.29687,-0.92187 -0.40625,-0.34375 -1.20313,-0.34375 -0.73437,0 -1.09375,0.26562 -0.35937,0.25 -0.53125,0.90625 l -1.03125,-0.14062 q 0.14063,-0.65625 0.46875,-1.0625 0.32813,-0.40625 0.9375,-0.625 0.60938,-0.21875 1.40625,-0.21875 0.79688,0 1.29688,0.1875 0.5,0.1875 0.73437,0.46875 0.23438,0.28125 0.32813,0.71875 0.0469,0.26562 0.0469,0.96875 l 0,1.40625 q 0,1.46875 0.0625,1.85937 0.0781,0.39063 0.28125,0.75 l -1.10937,0 q -0.15625,-0.32812 -0.20313,-0.76562 z m -0.0937,-2.35938 q -0.57812,0.23438 -1.71875,0.40625 -0.65625,0.0937 -0.92187,0.21875 -0.26563,0.10938 -0.42188,0.32813 -0.14062,0.21875 -0.14062,0.5 0,0.42187 0.3125,0.70312 0.32812,0.28125 0.9375,0.28125 0.60937,0 1.07812,-0.26562 0.48438,-0.26563 0.70313,-0.73438 0.17187,-0.35937 0.17187,-1.04687 l 0,-0.39063 z m 6.76758,0.84375 1.03125,0.14063 q -0.17187,1.0625 -0.875,1.67187 -0.70312,0.60938 -1.71875,0.60938 -1.28125,0 -2.0625,-0.82813 -0.76562,-0.84375 -0.76562,-2.40625 0,-1 0.32812,-1.75 0.34375,-0.76562 1.01563,-1.14062 0.6875,-0.375 1.5,-0.375 1,0 1.64062,0.51562 0.65625,0.5 0.84375,1.45313 l -1.03125,0.15625 q -0.14062,-0.625 -0.51562,-0.9375 -0.375,-0.32813 -0.90625,-0.32813 -0.79688,0 -1.29688,0.57813 -0.5,0.5625 -0.5,1.79687 0,1.26563 0.48438,1.82813 0.48437,0.5625 1.25,0.5625 0.625,0 1.03125,-0.375 0.42187,-0.375 0.54687,-1.17188 z m 6.1875,0.28125 1.09375,0.125 q -0.25,0.95313 -0.95312,1.48438 -0.70313,0.53125 -1.78125,0.53125 -1.35938,0 -2.17188,-0.84375 -0.79687,-0.84375 -0.79687,-2.35938 0,-1.5625 0.8125,-2.42187 0.8125,-0.875 2.09375,-0.875 1.25,0 2.03125,0.84375 0.79687,0.84375 0.79687,2.39062 0,0.0937 0,0.28125 l -4.64062,0 q 0.0625,1.03125 0.57812,1.57813 0.51563,0.53125 1.29688,0.53125 0.57812,0 0.98437,-0.29688 0.42188,-0.3125 0.65625,-0.96875 z m -3.45312,-1.70312 3.46875,0 q -0.0625,-0.79688 -0.39063,-1.1875 -0.51562,-0.60938 -1.3125,-0.60938 -0.73437,0 -1.23437,0.48438 -0.48438,0.48437 -0.53125,1.3125 z"
       id="path5909"
       inkscape:connector-curvature="0"
       style="fill:#000000;fill-rule:nonzero" />
    <path
       d="m 308.59712,157.90031 0,0 c 0,-20.98682 20.42569,-38 45.62204,-38 l 0,0 c 25.19635,0 45.62204,17.01318 45.62204,38 l 0,0 c 0,20.98683 -20.42569,38 -45.62204,38 l 0,0 c -25.19635,0 -45.62204,-17.01317 -45.62204,-38 z"
       id="path5911"
       inkscape:connector-curvature="0"
       style="fill:#000000;fill-opacity:0;fill-rule:evenodd" />
    <path
       d="m 308.59712,157.90031 0,0 c 0,-20.98682 20.42569,-38 45.62204,-38 l 0,0 c 25.19635,0 45.62204,17.01318 45.62204,38 l 0,0 c 0,20.98683 -20.42569,38 -45.62204,38 l 0,0 c -25.19635,0 -45.62204,-17.01317 -45.62204,-38 z"
       id="path5913"
       inkscape:connector-curvature="0"
       style="fill-rule:evenodd;stroke:#000000;stroke-width:1;stroke-linecap:butt;stroke-linejoin:round" />
    <path
       d="m 337.25041,162.42031 -3.32813,-8.59375 1.23438,0 2.23437,6.25 q 0.26563,0.75 0.45313,1.40625 0.20312,-0.70313 0.46875,-1.40625 l 2.3125,-6.25 1.15625,0 -3.35938,8.59375 -1.17187,0 z m 5.03516,-3.10938 q 0,-1.73437 0.95312,-2.5625 0.79688,-0.6875 1.95313,-0.6875 1.28125,0 2.09375,0.84375 0.82812,0.82813 0.82812,2.3125 0,1.20313 -0.35937,1.89063 -0.35938,0.6875 -1.0625,1.07812 -0.6875,0.375 -1.5,0.375 -1.29688,0 -2.10938,-0.82812 -0.79687,-0.84375 -0.79687,-2.42188 z m 1.07812,0 q 0,1.1875 0.51563,1.78125 0.53125,0.59375 1.3125,0.59375 0.79687,0 1.3125,-0.59375 0.51562,-0.59375 0.51562,-1.8125 0,-1.15625 -0.53125,-1.75 -0.51562,-0.59375 -1.29687,-0.59375 -0.78125,0 -1.3125,0.59375 -0.51563,0.57813 -0.51563,1.78125 z m 5.95508,3.10938 0,-8.59375 1.0625,0 0,8.59375 -1.0625,0 z m 6.77539,0 0,-0.92188 q -0.73438,1.0625 -1.98438,1.0625 -0.54687,0 -1.03125,-0.20312 -0.46875,-0.21875 -0.70312,-0.53125 -0.23438,-0.32813 -0.32813,-0.79688 -0.0625,-0.29687 -0.0625,-0.98437 l 0,-3.84375 1.0625,0 0,3.45312 q 0,0.8125 0.0625,1.10938 0.0937,0.40625 0.40625,0.65625 0.32813,0.23437 0.8125,0.23437 0.46875,0 0.875,-0.23437 0.42188,-0.25 0.59375,-0.67188 0.1875,-0.42187 0.1875,-1.21875 l 0,-3.32812 1.04688,0 0,6.21875 -0.9375,0 z m 2.5957,0 0,-6.21875 0.9375,0 0,0.875 q 0.29688,-0.46875 0.78125,-0.73438 0.48438,-0.28125 1.10938,-0.28125 0.6875,0 1.125,0.28125 0.45312,0.28125 0.625,0.79688 0.75,-1.07813 1.92187,-1.07813 0.9375,0 1.42188,0.51563 0.5,0.5 0.5,1.57812 l 0,4.26563 -1.04688,0 0,-3.92188 q 0,-0.625 -0.10937,-0.90625 -0.0937,-0.28125 -0.35938,-0.45312 -0.26562,-0.17188 -0.64062,-0.17188 -0.65625,0 -1.09375,0.4375 -0.42188,0.4375 -0.42188,1.40625 l 0,3.60938 -1.0625,0 0,-4.04688 q 0,-0.70312 -0.26562,-1.04687 -0.25,-0.35938 -0.82813,-0.35938 -0.45312,0 -0.82812,0.23438 -0.375,0.23437 -0.54688,0.6875 -0.17187,0.45312 -0.17187,1.29687 l 0,3.23438 -1.04688,0 z m 14.2461,-2 1.09375,0.125 q -0.25,0.95312 -0.95313,1.48437 -0.70312,0.53125 -1.78125,0.53125 -1.35937,0 -2.17187,-0.84375 -0.79688,-0.84375 -0.79688,-2.35937 0,-1.5625 0.8125,-2.42188 0.8125,-0.875 2.09375,-0.875 1.25,0 2.03125,0.84375 0.79688,0.84375 0.79688,2.39063 0,0.0937 0,0.28125 l -4.64063,0 q 0.0625,1.03125 0.57813,1.57812 0.51562,0.53125 1.29687,0.53125 0.57813,0 0.98438,-0.29687 0.42187,-0.3125 0.65625,-0.96875 z m -3.45313,-1.70313 3.46875,0 q -0.0625,-0.79687 -0.39062,-1.1875 -0.51563,-0.60937 -1.3125,-0.60937 -0.73438,0 -1.23438,0.48437 -0.48437,0.48438 -0.53125,1.3125 z"
       id="path5915"
       inkscape:connector-curvature="0"
       style="fill:#000000;fill-rule:nonzero" />
  </g>
  <path
     style="fill:#000000;fill-opacity:0;fill-rule:evenodd"
     inkscape:connector-curvature="0"
     id="path5917"
     d="m 168.32676,0 439.68506,0 0,122.70866 -439.68506,0 z" />
  <path
     style="fill:#000000;fill-rule:nonzero"
     inkscape:connector-curvature="0"
     id="path5919"
     d="m 212.56056,23.44687 q 0,-7.124999 3.82813,-11.156245 3.82812,-4.0312502 9.875,-4.0312502 3.96875,0 7.15625,1.8906252 3.1875,1.890625 4.84375,5.281246 1.67187,3.390625 1.67187,7.687499 0,4.359375 -1.76562,7.796875 -1.75,3.4375 -4.96875,5.203125 -3.21875,1.765625 -6.95313,1.765625 -4.04687,0 -7.23437,-1.953125 -3.17188,-1.953125 -4.8125,-5.328125 -1.64063,-3.375 -1.64063,-7.15625 z m 3.90625,0.0625 q 0,5.171875 2.78125,8.15625 2.78125,2.984375 6.98438,2.984375 4.28125,0 7.03125,-3 2.76562,-3.015625 2.76562,-8.546875 0,-3.499999 -1.1875,-6.109374 -1.17187,-2.609375 -3.45312,-4.031246 -2.26563,-1.4375 -5.09375,-1.4375 -4.03125,0 -6.9375,2.765621 -2.89063,2.75 -2.89063,9.218749 z m 28.20703,13.890625 0,-28.6406202 10.73438,0 q 3.28125,0 5.26562,0.875 1.98438,0.8750002 3.10938,2.6875002 1.125,1.796871 1.125,3.765621 0,1.84375 -1,3.46875 -1,1.609374 -3.01563,2.609374 2.60938,0.765625 4,2.609375 1.39063,1.828125 1.39063,4.328125 0,2 -0.84375,3.734375 -0.84375,1.734375 -2.09375,2.671875 -1.25,0.9375 -3.14063,1.421875 -1.89062,0.46875 -4.625,0.46875 l -10.90625,0 z m 3.78125,-16.609374 6.1875,0 q 2.53125,0 3.625,-0.328125 1.4375,-0.421875 2.17188,-1.421875 0.73437,-1 0.73437,-2.5 0,-1.421875 -0.6875,-2.5 -0.6875,-1.093746 -1.95312,-1.484371 Q 257.26759,12.15 254.17384,12.15 l -5.71875,0 0,8.640621 z m 0,13.234374 7.125,0 q 1.84375,0 2.57813,-0.140625 1.3125,-0.234375 2.1875,-0.78125 0.89062,-0.546875 1.45312,-1.59375 0.5625,-1.046875 0.5625,-2.40625 0,-1.609375 -0.82812,-2.78125 -0.8125,-1.1875 -2.26563,-1.65625 -1.45312,-0.484375 -4.1875,-0.484375 l -6.625,0 0,9.84375 z m 22.89844,3.375 0,-28.6406202 10.73437,0 q 3.28125,0 5.26563,0.875 1.98437,0.8750002 3.10937,2.6875002 1.125,1.796871 1.125,3.765621 0,1.84375 -1,3.46875 -1,1.609374 -3.01562,2.609374 2.60937,0.765625 4,2.609375 1.39062,1.828125 1.39062,4.328125 0,2 -0.84375,3.734375 -0.84375,1.734375 -2.09375,2.671875 -1.25,0.9375 -3.14062,1.421875 -1.89063,0.46875 -4.625,0.46875 l -10.90625,0 z m 3.78125,-16.609374 6.1875,0 q 2.53125,0 3.625,-0.328125 1.4375,-0.421875 2.17187,-1.421875 0.73438,-1 0.73438,-2.5 0,-1.421875 -0.6875,-2.5 -0.6875,-1.093746 -1.95313,-1.484371 Q 283.94728,12.15 280.85353,12.15 l -5.71875,0 0,8.640621 z m 0,13.234374 7.125,0 q 1.84375,0 2.57812,-0.140625 1.3125,-0.234375 2.1875,-0.78125 0.89063,-0.546875 1.45313,-1.59375 0.5625,-1.046875 0.5625,-2.40625 0,-1.609375 -0.82813,-2.78125 -0.8125,-1.1875 -2.26562,-1.65625 -1.45313,-0.484375 -4.1875,-0.484375 l -6.625,0 0,9.84375 z m 41.44922,3.375 0,-25.249995 -9.4375,0 0,-3.3906252 22.70312,0 0,3.3906252 -9.48437,0 0,25.249995 -3.78125,0 z m 16.65234,0 0,-20.749999 3.17188,0 0,3.15625 q 1.20312,-2.21875 2.23437,-2.921875 1.03125,-0.703125 2.25,-0.703125 1.78125,0 3.625,1.140625 l -1.21875,3.265625 q -1.28125,-0.765625 -2.57812,-0.765625 -1.15625,0 -2.07813,0.703125 -0.90625,0.687499 -1.29687,1.906249 -0.59375,1.875 -0.59375,4.109375 l 0,10.859375 -3.51563,0 z m 27.57031,-6.6875 3.625,0.453125 q -0.85937,3.1875 -3.1875,4.953125 -2.3125,1.75 -5.9375,1.75 -4.54687,0 -7.21875,-2.796875 -2.65625,-2.8125 -2.65625,-7.875 0,-5.234375 2.6875,-8.124999 2.70313,-2.890625 7,-2.890625 4.15625,0 6.79688,2.84375 2.64062,2.828124 2.64062,7.968749 0,0.3125 -0.0312,0.9375 l -15.46875,0 q 0.20313,3.40625 1.9375,5.234375 1.73438,1.8125 4.34375,1.8125 1.92188,0 3.28125,-1.015625 1.375,-1.015625 2.1875,-3.25 z m -11.54687,-5.671875 11.57812,0 q -0.23437,-2.625 -1.32812,-3.9375 -1.67188,-2.031249 -4.35938,-2.031249 -2.42187,0 -4.07812,1.625 -1.64063,1.624999 -1.8125,4.343749 z m 33.79297,5.671875 3.625,0.453125 q -0.85937,3.1875 -3.1875,4.953125 -2.3125,1.75 -5.9375,1.75 -4.54687,0 -7.21875,-2.796875 -2.65625,-2.8125 -2.65625,-7.875 0,-5.234375 2.6875,-8.124999 2.70313,-2.890625 7,-2.890625 4.15625,0 6.79688,2.84375 2.64062,2.828124 2.64062,7.968749 0,0.3125 -0.0312,0.9375 l -15.46875,0 q 0.20313,3.40625 1.9375,5.234375 1.73438,1.8125 4.34375,1.8125 1.92188,0 3.28125,-1.015625 1.375,-1.015625 2.1875,-3.25 z m -11.54687,-5.671875 11.57812,0 q -0.23437,-2.625 -1.32812,-3.9375 -1.67188,-2.031249 -4.35938,-2.031249 -2.42187,0 -4.07812,1.625 -1.64063,1.624999 -1.8125,4.343749 z m 38.4375,12.359375 0,-25.249995 -9.4375,0 0,-3.3906252 22.70312,0 0,3.3906252 -9.48437,0 0,25.249995 -3.78125,0 z m 15.38671,-10.375 q 0,-5.765625 3.20313,-8.531249 2.67187,-2.3125 6.53125,-2.3125 4.26562,0 6.98437,2.8125 2.71875,2.796874 2.71875,7.734374 0,4.015625 -1.20312,6.3125 -1.20313,2.28125 -3.5,3.5625 -2.29688,1.265625 -5,1.265625 -4.35938,0 -7.04688,-2.796875 -2.6875,-2.796875 -2.6875,-8.046875 z m 3.60938,0 q 0,3.984375 1.73437,5.96875 1.75,1.984375 4.39063,1.984375 2.60937,0 4.34375,-1.984375 1.75,-2 1.75,-6.078125 0,-3.859375 -1.75,-5.828125 -1.75,-1.984374 -4.34375,-1.984374 -2.64063,0 -4.39063,1.96875 -1.73437,1.968749 -1.73437,5.953124 z m 19.94922,18.328125 0,-28.703124 3.20312,0 0,2.703125 q 1.125,-1.578125 2.54688,-2.375 1.4375,-0.796875 3.46875,-0.796875 2.65625,0 4.6875,1.375 2.03125,1.359375 3.0625,3.859374 1.03125,2.484375 1.03125,5.453125 0,3.1875 -1.14063,5.734375 -1.14062,2.546875 -3.32812,3.90625 -2.17188,1.359375 -4.5625,1.359375 -1.76563,0 -3.17188,-0.734375 -1.39062,-0.75 -2.28125,-1.890625 l 0,10.109375 -3.51562,0 z m 3.1875,-18.203125 q 0,4 1.60937,5.921875 1.625,1.90625 3.9375,1.90625 2.34375,0 4,-1.984375 1.67188,-1.984375 1.67188,-6.140625 0,-3.96875 -1.625,-5.937499 -1.625,-1.96875 -3.89063,-1.96875 -2.25,0 -3.98437,2.09375 -1.71875,2.093749 -1.71875,6.109374 z m 17.74609,-0.125 q 0,-5.765625 3.20313,-8.531249 2.67187,-2.3125 6.53125,-2.3125 4.26562,0 6.98437,2.8125 2.71875,2.796874 2.71875,7.734374 0,4.015625 -1.20312,6.3125 -1.20313,2.28125 -3.5,3.5625 -2.29688,1.265625 -5,1.265625 -4.35938,0 -7.04688,-2.796875 -2.6875,-2.796875 -2.6875,-8.046875 z m 3.60938,0 q 0,3.984375 1.73437,5.96875 1.75,1.984375 4.39063,1.984375 2.60937,0 4.34375,-1.984375 1.75,-2 1.75,-6.078125 0,-3.859375 -1.75,-5.828125 -1.75,-1.984374 -4.34375,-1.984374 -2.64063,0 -4.39063,1.96875 -1.73437,1.968749 -1.73437,5.953124 z m 19.87109,10.375 0,-28.6406202 3.51563,0 0,28.6406202 -3.51563,0 z m 7.65234,-10.375 q 0,-5.765625 3.20313,-8.531249 2.67187,-2.3125 6.53125,-2.3125 4.26562,0 6.98437,2.8125 2.71875,2.796874 2.71875,7.734374 0,4.015625 -1.20312,6.3125 -1.20313,2.28125 -3.5,3.5625 -2.29688,1.265625 -5,1.265625 -4.35938,0 -7.04688,-2.796875 -2.6875,-2.796875 -2.6875,-8.046875 z m 3.60938,0 q 0,3.984375 1.73437,5.96875 1.75,1.984375 4.39063,1.984375 2.60937,0 4.34375,-1.984375 1.75,-2 1.75,-6.078125 0,-3.859375 -1.75,-5.828125 -1.75,-1.984374 -4.34375,-1.984374 -2.64063,0 -4.39063,1.96875 -1.73437,1.968749 -1.73437,5.953124 z m 19.30859,12.09375 3.40625,0.515625 q 0.21875,1.578125 1.20313,2.296875 1.29687,0.984375 3.5625,0.984375 2.45312,0 3.78125,-0.984375 1.32812,-0.96875 1.79687,-2.734375 0.26563,-1.078125 0.25,-4.515625 -2.3125,2.71875 -5.75,2.71875 -4.26562,0 -6.60937,-3.078125 -2.34375,-3.09375 -2.34375,-7.40625 0,-2.96875 1.0625,-5.484375 1.07812,-2.515624 3.10937,-3.874999 2.04688,-1.375 4.8125,-1.375 3.67188,0 6.04688,2.96875 l 0,-2.5 3.25,0 0,17.937499 q 0,4.84375 -1,6.859375 -0.98438,2.03125 -3.125,3.203125 -2.125,1.171875 -5.25,1.171875 -3.71875,0 -6,-1.671875 -2.28125,-1.671875 -2.20313,-5.03125 z m 2.90625,-12.46875 q 0,4.09375 1.60938,5.96875 1.625,1.875 4.07812,1.875 2.42188,0 4.0625,-1.859375 1.64063,-1.875 1.64063,-5.859375 0,-3.8125 -1.70313,-5.734374 -1.6875,-1.9375 -4.0625,-1.9375 -2.34375,0 -3.98437,1.90625 -1.64063,1.890624 -1.64063,5.640624 z m 19.82422,18.734375 -0.39062,-3.296875 q 1.15625,0.3125 2.01562,0.3125 1.17188,0 1.875,-0.390625 0.70313,-0.390625 1.14063,-1.09375 0.34375,-0.53125 1.07812,-2.609375 0.0937,-0.296875 0.3125,-0.859375 l -7.875,-20.796874 3.79688,0 4.3125,12.015624 q 0.84375,2.28125 1.5,4.8125 0.60937,-2.421875 1.45312,-4.734375 l 4.4375,-12.093749 3.51563,0 -7.89063,21.109374 q -1.28125,3.40625 -1.98437,4.703125 -0.9375,1.734375 -2.15625,2.546875 -1.20313,0.8125 -2.875,0.8125 -1.01563,0 -2.26563,-0.4375 z" />
</svg>
