<?xml version="1.0" encoding="UTF-8" standalone="no"?>
<svg
   xmlns:dc="http://purl.org/dc/elements/1.1/"
   xmlns:cc="http://creativecommons.org/ns#"
   xmlns:rdf="http://www.w3.org/1999/02/22-rdf-syntax-ns#"
   xmlns:svg="http://www.w3.org/2000/svg"
   xmlns="http://www.w3.org/2000/svg"
   xmlns:sodipodi="http://sodipodi.sourceforge.net/DTD/sodipodi-0.dtd"
   xmlns:inkscape="http://www.inkscape.org/namespaces/inkscape"
   version="1.1"
   viewBox="0 0 777 549.99999"
   stroke-miterlimit="10"
   id="svg4740"
   inkscape:version="0.91 r13725"
   sodipodi:docname="moab_geom_2d.svg"
   width="777"
   height="550"
   style="fill:none;stroke:none;stroke-linecap:square;stroke-miterlimit:10">
  <metadata
     id="metadata4821">
    <rdf:RDF>
      <cc:Work
         rdf:about="">
        <dc:format>image/svg+xml</dc:format>
        <dc:type
           rdf:resource="http://purl.org/dc/dcmitype/StillImage" />
        <dc:title></dc:title>
      </cc:Work>
    </rdf:RDF>
  </metadata>
  <defs
     id="defs4819" />
  <sodipodi:namedview
     pagecolor="#ffffff"
     bordercolor="#666666"
     borderopacity="1"
     objecttolerance="10"
     gridtolerance="10"
     guidetolerance="10"
     inkscape:pageopacity="0"
     inkscape:pageshadow="2"
     inkscape:window-width="1680"
     inkscape:window-height="1000"
     id="namedview4817"
     showgrid="false"
     fit-margin-top="0"
     fit-margin-left="0"
     fit-margin-right="0"
     fit-margin-bottom="0"
     inkscape:zoom="0.64166667"
     inkscape:cx="-316.82409"
     inkscape:cy="229.41375"
     inkscape:window-x="1050"
     inkscape:window-y="27"
     inkscape:window-maximized="1"
     inkscape:current-layer="svg4740" />
  <clipPath
     id="p.0">
    <path
       d="M 0,0 960,0 960,720 0,720 0,0 Z"
       id="path4743"
       inkscape:connector-curvature="0"
       style="clip-rule:nonzero" />
  </clipPath>
  <path
     style="fill:#000000;fill-opacity:0;fill-rule:evenodd"
     inkscape:connector-curvature="0"
     id="path4747"
     d="m -196.46037,-30.880635 960,0 0,719.999995 -960,0 z" />
  <path
     style="fill:#000000;fill-opacity:0;fill-rule:evenodd"
     inkscape:connector-curvature="0"
     id="path4749"
     d="m 377.46523,194.78127 165.22833,25.60629 -35.49609,310.6457 -165.22833,-25.60632 z" />
  <path
     style="fill-rule:evenodd;stroke:#4a86e8;stroke-width:2;stroke-linecap:butt;stroke-linejoin:round"
     inkscape:connector-curvature="0"
     id="path4751"
     d="m 377.46523,194.78127 165.22833,25.60629 -35.49609,310.6457 -165.22833,-25.60632 z" />
  <path
     style="fill:#000000;fill-opacity:0;fill-rule:evenodd"
     inkscape:connector-curvature="0"
     id="path4753"
     d="M 341.95323,497.34256 529.03984,317.40558 566.07921,369.56305 378.9926,549.50003 Z" />
  <path
     style="fill-rule:evenodd;stroke:#4a86e8;stroke-width:1;stroke-linecap:butt;stroke-linejoin:round;stroke-dasharray:4, 3"
     inkscape:connector-curvature="0"
     id="path4755"
     d="M 341.95323,497.34256 529.03984,317.40558 566.07921,369.56305 378.9926,549.50003 Z" />
  <path
     style="fill:#000000;fill-opacity:0;fill-rule:evenodd"
     inkscape:connector-curvature="0"
     id="path4757"
     d="m 398.21373,168.41903 141.7323,131.1811 -20.28345,29.66928 -141.7323,-131.18109 z" />
  <path
     style="fill-rule:evenodd;stroke:#4a86e8;stroke-width:1;stroke-linecap:butt;stroke-linejoin:round;stroke-dasharray:4, 3"
     inkscape:connector-curvature="0"
     id="path4759"
     d="m 398.21373,168.41903 141.7323,131.1811 -20.28345,29.66928 -141.7323,-131.18109 z" />
  <path
     style="fill:#000000;fill-opacity:0;fill-rule:evenodd"
     inkscape:connector-curvature="0"
     id="path4761"
     d="m 52.24591,446.48844 75.14961,56.53546" />
  <path
     style="fill-rule:evenodd;stroke:#ff0000;stroke-width:3;stroke-linecap:butt;stroke-linejoin:round"
     inkscape:connector-curvature="0"
     id="path4763"
     d="m 52.24591,446.48844 75.14961,56.53546" />
  <path
     style="fill:#000000;fill-opacity:0;fill-rule:evenodd"
     inkscape:connector-curvature="0"
     id="path4765"
     d="m 127.42556,502.99096 89.29132,-32.75592" />
  <path
     style="fill-rule:evenodd;stroke:#ff0000;stroke-width:3;stroke-linecap:butt;stroke-linejoin:round"
     inkscape:connector-curvature="0"
     id="path4767"
     d="m 127.42556,502.99096 89.29132,-32.75592" />
  <path
     style="fill:#000000;fill-opacity:0;fill-rule:evenodd"
     inkscape:connector-curvature="0"
     id="path4769"
     d="m 216.69905,468.38352 125.25983,36.44092" />
  <path
     style="fill-rule:evenodd;stroke:#ff0000;stroke-width:3;stroke-linecap:butt;stroke-linejoin:round"
     inkscape:connector-curvature="0"
     id="path4771"
     d="m 216.69905,468.38352 125.25983,36.44092" />
  <path
     style="fill:#000000;fill-opacity:0;fill-rule:evenodd"
     inkscape:connector-curvature="0"
     id="path4773"
     d="M 341.95323,504.79876 478.20524,451.91689" />
  <path
     style="fill-rule:evenodd;stroke:#0000ff;stroke-width:3;stroke-linecap:butt;stroke-linejoin:round"
     inkscape:connector-curvature="0"
     id="path4775"
     d="M 341.95323,504.79876 478.20524,451.91689" />
  <path
     style="fill:#000000;fill-opacity:0;fill-rule:evenodd"
     inkscape:connector-curvature="0"
     id="path4777"
     d="m 478.1816,451.94068 48.53546,-129.3858" />
  <path
     style="fill-rule:evenodd;stroke:#0000ff;stroke-width:3;stroke-linecap:butt;stroke-linejoin:round"
     inkscape:connector-curvature="0"
     id="path4779"
     d="m 478.1816,451.94068 48.53546,-129.3858" />
  <path
     style="fill:#000000;fill-opacity:0;fill-rule:evenodd"
     inkscape:connector-curvature="0"
     id="path4781"
     d="M 0.99997006,359.51081 325.15744,108.73914 377.09445,199.69977 52.93698,450.47144 Z" />
  <path
     style="fill-rule:evenodd;stroke:#93c47d;stroke-width:2;stroke-linecap:butt;stroke-linejoin:round"
     inkscape:connector-curvature="0"
     id="path4783"
     d="M 0.99997006,359.51081 325.15744,108.73914 377.09445,199.69977 52.93698,450.47144 Z" />
  <path
     style="fill:#000000;fill-opacity:0;fill-rule:evenodd"
     inkscape:connector-curvature="0"
     id="path4785"
     d="M 528.3055,322.57902 468.77791,240.27983" />
  <path
     style="fill-rule:evenodd;stroke:#0000ff;stroke-width:3;stroke-linecap:butt;stroke-linejoin:round"
     inkscape:connector-curvature="0"
     id="path4787"
     d="M 528.3055,322.57902 468.77791,240.27983" />
  <path
     style="fill:#000000;fill-opacity:0;fill-rule:evenodd"
     inkscape:connector-curvature="0"
     id="path4789"
     d="M 468.79803,240.58016 377.93188,198.69039" />
  <path
     style="fill-rule:evenodd;stroke:#0000ff;stroke-width:3;stroke-linecap:butt;stroke-linejoin:round"
     inkscape:connector-curvature="0"
     id="path4791"
     d="M 468.79803,240.58016 377.93188,198.69039" />
  <path
     style="fill:#000000;fill-opacity:0;fill-rule:evenodd"
     inkscape:connector-curvature="0"
     id="path4793"
     d="M 52.24591,446.4741 89.85222,293.40324" />
  <path
     style="fill-rule:evenodd;stroke:#38761d;stroke-width:3;stroke-linecap:butt;stroke-linejoin:round"
     inkscape:connector-curvature="0"
     id="path4795"
     d="M 52.24591,446.4741 89.85222,293.40324" />
  <path
     style="fill:#000000;fill-opacity:0;fill-rule:evenodd"
     inkscape:connector-curvature="0"
     id="path4797"
     d="M 89.82958,293.40952 379.53036,196.84258" />
  <path
     style="fill-rule:evenodd;stroke:#38761d;stroke-width:3;stroke-linecap:butt;stroke-linejoin:round"
     inkscape:connector-curvature="0"
     id="path4799"
     d="M 89.82958,293.40952 379.53036,196.84258" />
  <path
     style="fill:#000000;fill-opacity:0;fill-rule:evenodd"
     inkscape:connector-curvature="0"
     id="path4801"
     d="m 50.79091,437.05226 293.92126,49.98422 -6.80316,54.14173 -293.92126,-49.98426 z" />
  <path
     style="fill-rule:evenodd;stroke:#e06666;stroke-width:2;stroke-linecap:butt;stroke-linejoin:round"
     inkscape:connector-curvature="0"
     id="path4803"
     d="m 50.79091,437.05226 293.92126,49.98422 -6.80316,54.14173 -293.92126,-49.98426 z" />
  <path
     style="fill:#000000;fill-opacity:0;fill-rule:evenodd"
     inkscape:connector-curvature="0"
     id="path4805"
     d="m 46.94796,442.88233 176.44095,14.55118 -3.52756,57.07086 L 43.4204,499.95316 Z" />
  <path
     style="fill-rule:evenodd;stroke:#e06666;stroke-width:1;stroke-linecap:butt;stroke-linejoin:round;stroke-dasharray:4, 3"
     inkscape:connector-curvature="0"
     id="path4807"
     d="m 46.94796,442.88233 176.44095,14.55118 -3.52756,57.07086 L 43.4204,499.95316 Z" />
  <path
     style="fill:#000000;fill-opacity:0;fill-rule:evenodd"
     inkscape:connector-curvature="0"
     id="path4809"
     d="m 220.58327,458.70316 122.86615,36.22046 -4.78741,22.11023 -122.86612,-36.22046 z" />
  <path
     style="fill-rule:evenodd;stroke:#e06666;stroke-width:1;stroke-linecap:butt;stroke-linejoin:round;stroke-dasharray:4, 3"
     inkscape:connector-curvature="0"
     id="path4811"
     d="m 220.58327,458.70316 122.86615,36.22046 -4.78741,22.11023 -122.86612,-36.22046 z" />
  <path
     style="fill:#000000;fill-opacity:0;fill-rule:evenodd"
     inkscape:connector-curvature="0"
     id="path4813"
     d="m 59.30341,0.47894574 495.1181,0 0,108.25195426 -495.1181,0 z" />
  <path
     style="fill:#000000;fill-rule:nonzero"
     inkscape:connector-curvature="0"
     id="path4815"
     d="m 144.51873,47.87894 0,-28.640621 19.3125,0 0,3.390625 -15.51562,0 0,8.859375 13.4375,0 0,3.374996 -13.4375,0 0,13.015625 -3.79688,0 z m 37.32422,-2.5625 q -1.95313,1.65625 -3.76563,2.34375 -1.79687,0.6875 -3.875,0.6875 -3.40625,0 -5.25,-1.671875 -1.82812,-1.671875 -1.82812,-4.265625 0,-1.53125 0.6875,-2.78125 0.6875,-1.265625 1.8125,-2.015625 1.125,-0.765625 2.53125,-1.15625 1.03125,-0.28125 3.125,-0.53125 4.26562,-0.515625 6.26562,-1.21875 0.0312,-0.71875 0.0312,-0.90625 0,-2.156246 -1,-3.031246 -1.34375,-1.1875 -4,-1.1875 -2.48437,0 -3.67187,0.875 -1.17188,0.859375 -1.75,3.062496 l -3.4375,-0.468746 q 0.46875,-2.203125 1.54687,-3.5625 1.07813,-1.359375 3.10938,-2.09375 2.03125,-0.734375 4.70312,-0.734375 2.65625,0 4.3125,0.625 1.67188,0.625 2.45313,1.578125 0.78125,0.953125 1.09375,2.390625 0.17187,0.90625 0.17187,3.249996 l 0,4.6875 q 0,4.890625 0.21875,6.203125 0.23438,1.296875 0.89063,2.484375 l -3.67188,0 q -0.54687,-1.09375 -0.70312,-2.5625 z m -0.29688,-7.84375 q -1.90625,0.78125 -5.73437,1.328125 -2.17188,0.3125 -3.07813,0.703125 -0.89062,0.390625 -1.375,1.140625 -0.48437,0.75 -0.48437,1.671875 0,1.40625 1.0625,2.34375 1.0625,0.9375 3.10937,0.9375 2.03125,0 3.60938,-0.890625 1.59375,-0.890625 2.32812,-2.4375 0.5625,-1.1875 0.5625,-3.515625 l 0,-1.28125 z m 22.54297,2.8125 3.45313,0.4375 q -0.5625,3.578125 -2.90625,5.609375 -2.32813,2.015625 -5.71875,2.015625 -4.26563,0 -6.85938,-2.78125 -2.57812,-2.78125 -2.57812,-7.984375 0,-3.359375 1.10937,-5.874996 1.125,-2.515625 3.39063,-3.78125 2.28125,-1.265625 4.95312,-1.265625 3.375,0 5.51563,1.71875 2.15625,1.703125 2.76562,4.843746 l -3.42187,0.53125 q -0.48438,-2.093746 -1.73438,-3.140621 -1.23437,-1.0625 -2.98437,-1.0625 -2.65625,0 -4.32813,1.90625 -1.65625,1.906246 -1.65625,6.031246 0,4.171875 1.59375,6.078125 1.60938,1.890625 4.1875,1.890625 2.07813,0 3.45313,-1.265625 1.39062,-1.28125 1.76562,-3.90625 z m 20.67188,0.90625 3.625,0.453125 q -0.85938,3.1875 -3.1875,4.953125 -2.3125,1.75 -5.9375,1.75 -4.54688,0 -7.21875,-2.796875 -2.65625,-2.8125 -2.65625,-7.875 0,-5.234371 2.6875,-8.124996 2.70312,-2.890625 7,-2.890625 4.15625,0 6.79687,2.84375 2.64063,2.828125 2.64063,7.968746 0,0.3125 -0.0312,0.9375 l -15.46875,0 q 0.20312,3.40625 1.9375,5.234375 1.73437,1.8125 4.34375,1.8125 1.92187,0 3.28125,-1.015625 1.375,-1.015625 2.1875,-3.25 z m -11.54688,-5.671875 11.57813,0 q -0.23438,-2.624996 -1.32813,-3.937496 -1.67187,-2.03125 -4.35937,-2.03125 -2.42188,0 -4.07813,1.625 -1.64062,1.625 -1.8125,4.343746 z m 27.26172,9.21875 0.51563,3.09375 q -1.48438,0.328125 -2.65625,0.328125 -1.92188,0 -2.98438,-0.609375 -1.04687,-0.609375 -1.48437,-1.59375 -0.42188,-0.984375 -0.42188,-4.15625 l 0,-11.937496 -2.57812,0 0,-2.734375 2.57812,0 0,-5.125 3.5,-2.109375 0,7.234375 3.53125,0 0,2.734375 -3.53125,0 0,12.140621 q 0,1.5 0.1875,1.9375 0.1875,0.421875 0.59375,0.671875 0.42188,0.25 1.20313,0.25 0.59375,0 1.54687,-0.125 z m 17.64453,-3.546875 3.625,0.453125 q -0.85937,3.1875 -3.1875,4.953125 -2.3125,1.75 -5.9375,1.75 -4.54687,0 -7.21875,-2.796875 -2.65625,-2.8125 -2.65625,-7.875 0,-5.234371 2.6875,-8.124996 2.70313,-2.890625 7,-2.890625 4.15625,0 6.79688,2.84375 2.64062,2.828125 2.64062,7.968746 0,0.3125 -0.0312,0.9375 l -15.46875,0 q 0.20313,3.40625 1.9375,5.234375 1.73438,1.8125 4.34375,1.8125 1.92188,0 3.28125,-1.015625 1.375,-1.015625 2.1875,-3.25 z m -11.54687,-5.671875 11.57812,0 q -0.23437,-2.624996 -1.32812,-3.937496 -1.67188,-2.03125 -4.35938,-2.03125 -2.42187,0 -4.07812,1.625 -1.64063,1.625 -1.8125,4.343746 z m 33.04297,12.359375 0,-2.625 q -1.96875,3.09375 -5.79688,3.09375 -2.48437,0 -4.5625,-1.359375 -2.07812,-1.375 -3.21875,-3.828125 -1.14062,-2.453125 -1.14062,-5.640625 0,-3.09375 1.03125,-5.624996 1.03125,-2.53125 3.09375,-3.875 2.07812,-1.359375 4.64062,-1.359375 1.875,0 3.32813,0.796875 1.46875,0.796875 2.39062,2.0625 l 0,-10.28125 3.5,0 0,28.640621 -3.26562,0 z M 268.50701,37.519565 q 0,3.984375 1.67188,5.96875 1.6875,1.96875 3.96875,1.96875 2.3125,0 3.92187,-1.875 1.60938,-1.890625 1.60938,-5.765625 0,-4.25 -1.64063,-6.234371 -1.64062,-2 -4.04687,-2 -2.34375,0 -3.92188,1.921875 -1.5625,1.906246 -1.5625,6.015621 z m 44.85938,-0.875 0,-3.359375 12.12497,-0.01563 0,10.625 q -2.78125,2.21875 -5.75,3.34375 -2.96875,1.125 -6.09372,1.125 -4.21875,0 -7.67188,-1.796875 -3.45312,-1.8125 -5.21875,-5.234375 -1.75,-3.421875 -1.75,-7.640625 0,-4.171871 1.75,-7.796871 1.75,-3.625 5.03125,-5.375 3.28125,-1.765625 7.5625,-1.765625 3.10935,0 5.60935,1.015625 2.51562,1 3.9375,2.796875 1.42187,1.796875 2.17187,4.6875 l -3.42187,0.9375 q -0.64063,-2.1875 -1.60938,-3.4375 -0.95312,-1.25 -2.73437,-2 -1.7656,-0.75 -3.93747,-0.75 -2.59375,0 -4.5,0.796875 -1.89063,0.78125 -3.04688,2.078125 -1.15625,1.28125 -1.8125,2.828125 -1.09375,2.65625 -1.09375,5.749996 0,3.828125 1.3125,6.40625 1.32813,2.578125 3.84375,3.828125 2.53125,1.25 5.35938,1.25 2.45309,0 4.79684,-0.9375 2.34375,-0.953125 3.5625,-2.03125 l 0,-5.328125 -8.42184,0 z m 31.47262,4.546875 3.625,0.453125 q -0.85937,3.1875 -3.1875,4.953125 -2.3125,1.75 -5.9375,1.75 -4.54687,0 -7.21875,-2.796875 -2.65625,-2.8125 -2.65625,-7.875 0,-5.234371 2.6875,-8.124996 2.70313,-2.890625 7,-2.890625 4.15625,0 6.79688,2.84375 2.64062,2.828125 2.64062,7.968746 0,0.3125 -0.0312,0.9375 l -15.46875,0 q 0.20313,3.40625 1.9375,5.234375 1.73438,1.8125 4.34375,1.8125 1.92188,0 3.28125,-1.015625 1.375,-1.015625 2.1875,-3.25 z m -11.54687,-5.671875 11.57812,0 q -0.23437,-2.624996 -1.32812,-3.937496 -1.67188,-2.03125 -4.35938,-2.03125 -2.42187,0 -4.07812,1.625 -1.64063,1.625 -1.8125,4.343746 z m 18.27734,1.984375 q 0,-5.765621 3.20313,-8.531246 2.67187,-2.3125 6.53125,-2.3125 4.26562,0 6.98437,2.8125 2.71875,2.796875 2.71875,7.734371 0,4.015625 -1.20312,6.3125 -1.20313,2.28125 -3.5,3.5625 -2.29688,1.265625 -5,1.265625 -4.35938,0 -7.04688,-2.796875 -2.6875,-2.796875 -2.6875,-8.046875 z m 3.60938,0 q 0,3.984375 1.73437,5.96875 1.75,1.984375 4.39063,1.984375 2.60937,0 4.34375,-1.984375 1.75,-2 1.75,-6.078125 0,-3.859375 -1.75,-5.828121 -1.75,-1.984375 -4.34375,-1.984375 -2.64063,0 -4.39063,1.96875 -1.73437,1.968746 -1.73437,5.953121 z m 19.94922,10.375 0,-20.749996 3.14062,0 0,2.921875 q 0.98438,-1.53125 2.59375,-2.453125 1.625,-0.9375 3.70313,-0.9375 2.29687,0 3.76562,0.96875 1.48438,0.953125 2.09375,2.671875 2.45313,-3.640625 6.40625,-3.640625 3.07813,0 4.73438,1.71875 1.67187,1.703125 1.67187,5.265621 l 0,14.234375 -3.5,0 0,-13.0625 q 0,-2.109371 -0.34375,-3.031246 -0.34375,-0.9375 -1.25,-1.5 -0.89062,-0.578125 -2.09375,-0.578125 -2.1875,0 -3.64062,1.46875 -1.4375,1.453125 -1.4375,4.656246 l 0,12.046875 -3.51563,0 0,-13.484375 q 0,-2.343746 -0.85937,-3.515621 -0.85938,-1.171875 -2.8125,-1.171875 -1.48438,0 -2.75,0.78125 -1.26563,0.78125 -1.82813,2.296875 -0.5625,1.499996 -0.5625,4.328121 l 0,10.765625 -3.51562,0 z m 47.52344,-6.6875 3.625,0.453125 q -0.85938,3.1875 -3.1875,4.953125 -2.3125,1.75 -5.9375,1.75 -4.54688,0 -7.21875,-2.796875 -2.65625,-2.8125 -2.65625,-7.875 0,-5.234371 2.6875,-8.124996 2.70312,-2.890625 7,-2.890625 4.15625,0 6.79687,2.84375 2.64063,2.828125 2.64063,7.968746 0,0.3125 -0.0312,0.9375 l -15.46875,0 q 0.20312,3.40625 1.9375,5.234375 1.73437,1.8125 4.34375,1.8125 1.92187,0 3.28125,-1.015625 1.375,-1.015625 2.1875,-3.25 z m -11.54688,-5.671875 11.57813,0 q -0.23438,-2.624996 -1.32813,-3.937496 -1.67187,-2.03125 -4.35937,-2.03125 -2.42188,0 -4.07813,1.625 -1.64062,1.625 -1.8125,4.343746 z m 27.26172,9.21875 0.51562,3.09375 q -1.48437,0.328125 -2.65625,0.328125 -1.92187,0 -2.98437,-0.609375 -1.04688,-0.609375 -1.48438,-1.59375 -0.42187,-0.984375 -0.42187,-4.15625 l 0,-11.937496 -2.57813,0 0,-2.734375 2.57813,0 0,-5.125 3.5,-2.109375 0,7.234375 3.53125,0 0,2.734375 -3.53125,0 0,12.140621 q 0,1.5 0.1875,1.9375 0.1875,0.421875 0.59375,0.671875 0.42187,0.25 1.20312,0.25 0.59375,0 1.54688,-0.125 z m 3.39453,3.140625 0,-20.749996 3.17188,0 0,3.15625 q 1.20312,-2.21875 2.23437,-2.921875 1.03125,-0.703125 2.25,-0.703125 1.78125,0 3.625,1.140625 l -1.21875,3.265625 q -1.28125,-0.765625 -2.57812,-0.765625 -1.15625,0 -2.07813,0.703125 -0.90625,0.6875 -1.29687,1.90625 -0.59375,1.874996 -0.59375,4.109371 l 0,10.859375 -3.51563,0 z m 13.21094,7.984375 -0.39063,-3.296875 q 1.15625,0.3125 2.01563,0.3125 1.17187,0 1.875,-0.390625 0.70312,-0.390625 1.14062,-1.09375 0.34375,-0.53125 1.07813,-2.609375 0.0937,-0.296875 0.3125,-0.859375 l -7.875,-20.796871 3.79687,0 4.3125,12.015621 q 0.84375,2.28125 1.5,4.8125 0.60938,-2.421875 1.45313,-4.734375 l 4.4375,-12.093746 3.51562,0 -7.89062,21.109371 q -1.28125,3.40625 -1.98438,4.703125 -0.9375,1.734375 -2.15625,2.546875 -1.20312,0.8125 -2.875,0.8125 -1.01562,0 -2.26562,-0.4375 z" />
</svg>
