<svg class="main-svg" xmlns="http://www.w3.org/2000/svg" xmlns:xlink="http://www.w3.org/1999/xlink" width="900" height="600" viewBox="0 0 900 600"><rect x="0" y="0" width="900" height="600" style="fill: rgb(255, 255, 255); fill-opacity: 1;"/><defs id="defs-37da89"><g class="clips"><clipPath id="clip37da89xyplot" class="plotclip"><rect width="740" height="420"/></clipPath><clipPath class="axesclip" id="clip37da89x"><rect x="80" y="0" width="740" height="600"/></clipPath><clipPath class="axesclip" id="clip37da89y"><rect x="0" y="100" width="900" height="420"/></clipPath><clipPath class="axesclip" id="clip37da89xy"><rect x="80" y="100" width="740" height="420"/></clipPath></g><g class="gradients"/></defs><g class="bglayer"><rect class="bg" x="80" y="100" width="740" height="420" style="fill: rgb(255, 255, 255); fill-opacity: 1; stroke-width: 0;"/></g><g class="layer-below"><g class="imagelayer"/><g class="shapelayer"/></g><g class="cartesianlayer"><g class="subplot xy"><g class="layer-subplot"><g class="shapelayer"/><g class="imagelayer"/></g><g class="gridlayer"><g class="x"><path class="xgrid crisp" d="M0,100v420" transform="translate(154.87,0)" style="stroke: rgb(127, 127, 127); stroke-opacity: 1; stroke-width: 1px;"/><path class="xgrid crisp" d="M0,100v420" transform="translate(229.74,0)" style="stroke: rgb(127, 127, 127); stroke-opacity: 1; stroke-width: 1px;"/><path class="xgrid crisp" d="M0,100v420" transform="translate(304.62,0)" style="stroke: rgb(127, 127, 127); stroke-opacity: 1; stroke-width: 1px;"/><path class="xgrid crisp" d="M0,100v420" transform="translate(379.49,0)" style="stroke: rgb(127, 127, 127); stroke-opacity: 1; stroke-width: 1px;"/><path class="xgrid crisp" d="M0,100v420" transform="translate(454.36,0)" style="stroke: rgb(127, 127, 127); stroke-opacity: 1; stroke-width: 1px;"/><path class="xgrid crisp" d="M0,100v420" transform="translate(529.23,0)" style="stroke: rgb(127, 127, 127); stroke-opacity: 1; stroke-width: 1px;"/><path class="xgrid crisp" d="M0,100v420" transform="translate(604.1,0)" style="stroke: rgb(127, 127, 127); stroke-opacity: 1; stroke-width: 1px;"/><path class="xgrid crisp" d="M0,100v420" transform="translate(678.98,0)" style="stroke: rgb(127, 127, 127); stroke-opacity: 1; stroke-width: 1px;"/><path class="xgrid crisp" d="M0,100v420" transform="translate(753.85,0)" style="stroke: rgb(127, 127, 127); stroke-opacity: 1; stroke-width: 1px;"/></g><g class="y"><path class="ygrid crisp" d="M80,0h740" transform="translate(0,423.32)" style="stroke: rgb(127, 127, 127); stroke-opacity: 1; stroke-width: 1px;"/><path class="ygrid crisp" d="M80,0h740" transform="translate(0,347.65)" style="stroke: rgb(127, 127, 127); stroke-opacity: 1; stroke-width: 1px;"/><path class="ygrid crisp" d="M80,0h740" transform="translate(0,271.97)" style="stroke: rgb(127, 127, 127); stroke-opacity: 1; stroke-width: 1px;"/><path class="ygrid crisp" d="M80,0h740" transform="translate(0,196.3)" style="stroke: rgb(127, 127, 127); stroke-opacity: 1; stroke-width: 1px;"/><path class="ygrid crisp" d="M80,0h740" transform="translate(0,120.62)" style="stroke: rgb(127, 127, 127); stroke-opacity: 1; stroke-width: 1px;"/></g></g><g class="zerolinelayer"><path class="xzl zl crisp" d="M0,100v420" transform="translate(80,0)" style="stroke: rgb(68, 68, 68); stroke-opacity: 1; stroke-width: 1px;"/><path class="yzl zl crisp" d="M80,0h740" transform="translate(0,499)" style="stroke: rgb(68, 68, 68); stroke-opacity: 1; stroke-width: 1px;"/></g><path class="xlines-below"/><path class="ylines-below"/><g class="overlines-below"/><g class="xaxislayer-below"/><g class="yaxislayer-below"/><g class="overaxes-below"/><g class="plot" transform="translate(80, 100)" clip-path="url(#clip37da89xyplot)"><g class="scatterlayer mlayer"><g class="trace scatter trace398ad5" style="stroke-miterlimit: 2; opacity: 1;"><path class="js-line" d="M0,399L0.75,254.84L0.77,254.84L1.49,254.84L1.51,250.68L2,250.3L2.01,249.92L3.06,248.41L3.08,248.41L4.28,248.03L4.29,247.65L35.15,247.27L35.17,246.89L37.25,246.14L37.27,245.76L38.39,244.24L38.41,244.24L39.22,243.49L39.24,243.11L41.16,240.46L41.17,240.46L43.76,240.08L43.78,239.7L45.56,238.95L45.57,238.57L47.3,238.19L47.32,237.81L48.71,237.43L48.72,237.05L50.37,236.3L50.38,235.92L53.28,235.54L53.3,235.16L54.67,234.41L54.69,234.03L55.38,233.65L55.4,233.27L55.72,232.89L55.74,232.51L56.67,231.38L56.69,231.38L57.62,231L57.63,230.62L58.62,229.86L58.64,229.86L60.86,229.11L60.87,228.35L65.7,227.97L65.71,227.59L66.66,226.84L66.68,226.84L69.65,226.46L69.66,226.08L70.29,225.7L70.3,225.32L71.38,224.19L71.4,224.19L72.57,223.81L72.58,223.43L73.63,221.16L73.65,221.16L74.25,220.41L74.27,220.03L76.5,215.11L76.52,215.11L79.74,214.73L79.76,214.35L82.22,213.97L82.23,213.59L86.11,212.84L86.12,212.46L87.65,212.08L87.66,211.7L88.71,209.81L88.73,209.81L89.82,209.05L89.84,209.05L92.56,208.3L92.58,207.92L94.01,207.54L94.03,207.16L97.8,206.41L97.82,206.03L98.36,205.65L98.38,205.27L99.4,204.51L99.41,204.51L101.56,203.76L101.57,203.38L102.49,202.24L102.51,202.24L102.98,201.86L103,201.11L104.02,200.73L104.03,200.35L104.8,199.97L104.82,199.97L109.52,199.22L109.54,198.84L111.24,198.46L111.25,198.08L111.8,197.7L111.82,197.32L112.72,195.43L112.73,195.43L113.62,193.54L113.64,193.54L113.87,193.16L113.89,192.78L114.67,192.41L114.69,192.41L117.91,181.81L117.93,181.05L119.26,176.51L119.28,176.14L119.51,175.76L119.53,175.38L120.39,170.84L120.4,170.84L121.82,166.3L121.84,165.54L124.26,158.35L124.28,158.35L125.03,157.97L125.05,157.97L127.16,157.22L127.18,156.84L128.13,156.46L128.14,156.08L129.24,155.32L129.25,155.32L130.21,154.19L130.23,154.19L131.52,153.81L131.53,153.05L132.61,152.3L132.63,151.92L133.44,151.54L133.45,151.16L133.94,150.41L133.96,150.03L134.99,148.89L135.01,148.89L136.1,148.14L136.12,147.76L136.89,147.38L136.9,147L137.44,146.62L137.45,146.24L138.93,142.08L138.95,142.08L139.27,141.7L139.29,141.32L141.96,135.65L141.98,135.65L143.21,132.62L143.22,132.62L144.76,130.73L144.78,130.73L146.61,130.35L146.63,129.97L147.93,129.22L147.94,128.84L148.48,128.46L148.49,128.08L149.28,127.7L149.29,127.32L150.8,126.57L150.82,126.19L151.64,125.43L151.66,125.43L152.15,124.68L152.16,124.3L152.81,123.92L152.83,123.54L153.89,123.16L153.91,122.78L155.34,122.03L155.36,121.65L156.11,121.27L156.13,121.27L157,120.89L157.02,120.51L158.05,119.76L158.07,119.38L159.44,119L159.46,118.62L160.55,118.24L160.57,117.86L161.04,117.11L161.06,116.73L161.69,116.35L161.71,115.97L162.82,115.22L162.83,114.84L163.82,112.95L163.84,112.95L165.45,106.89L165.47,106.89L166.65,106.14L166.67,105.76L167.36,105.38L167.38,105L168.16,103.86L168.18,103.86L169.27,101.97L169.29,101.97L170.07,101.59L170.09,101.59L171.31,100.46L171.33,100.46L171.95,100.08L171.96,99.7L172.79,98.57L172.81,98.57L174.41,98.19L174.42,97.81L174.85,97.43L174.87,97.05L175.84,95.92L175.86,95.92L176.67,95.54L176.69,95.16L177.88,93.27L177.9,93.27L178.71,92.51L178.73,92.51L179.38,91.76L179.39,91.38L179.63,91L179.65,90.24L180.64,89.49L180.65,89.49L181.57,89.11L181.58,88.73L185.95,88.35L185.97,87.97L186.72,87.59L186.74,87.59L187.56,87.22L187.58,87.22L188.41,86.46L188.42,86.46L189.81,84.95L189.83,84.95L192.02,84.57L192.03,84.19L192.98,83.43L193,83.43L196.21,82.68L196.22,82.3L196.47,82.3L196.49,81.54L197.32,81.16L197.33,81.16L203.87,80.41L203.89,80.03L204.72,79.65L204.73,79.65L205.59,77.38L205.61,77.38L207.87,77L207.88,76.62L209.82,76.24L209.84,75.86L210.8,75.11L210.82,75.11L211.66,74.73L211.67,74.35L211.85,74.35L211.87,73.59L212.71,72.46L212.72,72.46L213.52,71.32L213.54,71.32L215.83,70.57L215.85,70.19L217.8,66.78L217.82,66.78L220.05,66.03L220.07,65.65L220.97,65.27L220.98,64.89L222.24,63.38L222.26,63.38L228.34,63L228.35,62.62L229.24,62.24L229.26,62.24L234.87,61.49L234.88,61.11L237.84,60.73L237.86,60.35L238.36,59.97L238.37,59.59L239.6,58.84L239.62,58.46L243.97,58.08L243.98,57.7L251.29,56.95L251.31,56.57L252.58,56.19L252.6,55.81L253.94,55.43L253.96,55.05L258.47,54.3L258.49,53.92L260.07,53.54L260.09,53.16L267.77,52.41L267.78,52.03L268.85,51.65L268.86,51.27L274.29,50.89L274.31,50.51L278.93,49.76L278.94,49.38L283.35,49L283.37,48.62L284.98,48.24L284.99,47.86L286.5,47.11L286.52,46.73L287.35,46.35L287.36,46.35L292.2,45.97L292.22,45.59L296.3,44.84L296.32,44.46L299.65,44.08L299.66,43.7L302.18,42.95L302.19,42.57L305.66,42.19L305.67,41.81L310.42,41.43L310.44,41.05L315.36,40.3L315.38,39.92L318.03,39.54L318.04,39.16L323.18,38.41L323.19,38.03L323.96,37.65L323.98,37.65L324.81,37.27L324.82,37.27L333.48,36.89L333.5,36.51L354.32,35.76L354.33,35.38L357.04,35L357.06,34.62L362.99,34.24L363.01,33.86L367.65,33.11L367.67,32.73L372.3,32.35L372.32,31.97L373.29,31.22L373.31,31.22L392.71,30.84L392.73,30.46L396.29,30.08L396.31,29.7L419.62,28.95L419.63,28.57L434.3,28.19L434.31,27.81L454.86,27.43L454.87,27.05L460.47,26.3L460.48,25.92L471.95,25.54L471.97,25.16L528.8,24.41L528.81,24.03L576.71,23.65L576.72,23.27L581.62,22.89L581.64,22.51L644.32,21.76L644.33,21.38L740,21" style="vector-effect: non-scaling-stroke; fill: none; stroke: rgb(31, 119, 180); stroke-opacity: 1; stroke-width: 2.5px; opacity: 1;"/><g class="points"/></g></g></g><g class="overplot"/><path class="xlines-above crisp" d="M0,0" style="fill: none;"/><path class="ylines-above crisp" d="M0,0" style="fill: none;"/><g class="overlines-above"/><g class="xaxislayer-above"><g class="xtick"><text text-anchor="middle" x="0" y="535" transform="translate(80,0)" style="font-family: 'Open Sans', verdana, arial, sans-serif; font-size: 14px; fill: rgb(68, 68, 68); fill-opacity: 1; white-space: pre;">0</text></g><g class="xtick"><text text-anchor="middle" x="0" y="535" transform="translate(154.87,0)" style="font-family: 'Open Sans', verdana, arial, sans-serif; font-size: 14px; fill: rgb(68, 68, 68); fill-opacity: 1; white-space: pre;">50</text></g><g class="xtick"><text text-anchor="middle" x="0" y="535" transform="translate(229.74,0)" style="font-family: 'Open Sans', verdana, arial, sans-serif; font-size: 14px; fill: rgb(68, 68, 68); fill-opacity: 1; white-space: pre;">100</text></g><g class="xtick"><text text-anchor="middle" x="0" y="535" transform="translate(304.62,0)" style="font-family: 'Open Sans', verdana, arial, sans-serif; font-size: 14px; fill: rgb(68, 68, 68); fill-opacity: 1; white-space: pre;">150</text></g><g class="xtick"><text text-anchor="middle" x="0" y="535" transform="translate(379.49,0)" style="font-family: 'Open Sans', verdana, arial, sans-serif; font-size: 14px; fill: rgb(68, 68, 68); fill-opacity: 1; white-space: pre;">200</text></g><g class="xtick"><text text-anchor="middle" x="0" y="535" transform="translate(454.36,0)" style="font-family: 'Open Sans', verdana, arial, sans-serif; font-size: 14px; fill: rgb(68, 68, 68); fill-opacity: 1; white-space: pre;">250</text></g><g class="xtick"><text text-anchor="middle" x="0" y="535" transform="translate(529.23,0)" style="font-family: 'Open Sans', verdana, arial, sans-serif; font-size: 14px; fill: rgb(68, 68, 68); fill-opacity: 1; white-space: pre;">300</text></g><g class="xtick"><text text-anchor="middle" x="0" y="535" transform="translate(604.1,0)" style="font-family: 'Open Sans', verdana, arial, sans-serif; font-size: 14px; fill: rgb(68, 68, 68); fill-opacity: 1; white-space: pre;">350</text></g><g class="xtick"><text text-anchor="middle" x="0" y="535" transform="translate(678.98,0)" style="font-family: 'Open Sans', verdana, arial, sans-serif; font-size: 14px; fill: rgb(68, 68, 68); fill-opacity: 1; white-space: pre;">400</text></g><g class="xtick"><text text-anchor="middle" x="0" y="535" transform="translate(753.85,0)" style="font-family: 'Open Sans', verdana, arial, sans-serif; font-size: 14px; fill: rgb(68, 68, 68); fill-opacity: 1; white-space: pre;">450</text></g></g><g class="yaxislayer-above"><g class="ytick"><text text-anchor="end" x="79" y="4.8999999999999995" transform="translate(0,499)" style="font-family: 'Open Sans', verdana, arial, sans-serif; font-size: 14px; fill: rgb(68, 68, 68); fill-opacity: 1; white-space: pre;">0</text></g><g class="ytick"><text text-anchor="end" x="79" y="4.8999999999999995" transform="translate(0,423.32)" style="font-family: 'Open Sans', verdana, arial, sans-serif; font-size: 14px; fill: rgb(68, 68, 68); fill-opacity: 1; white-space: pre;">0.2</text></g><g class="ytick"><text text-anchor="end" x="79" y="4.8999999999999995" transform="translate(0,347.65)" style="font-family: 'Open Sans', verdana, arial, sans-serif; font-size: 14px; fill: rgb(68, 68, 68); fill-opacity: 1; white-space: pre;">0.4</text></g><g class="ytick"><text text-anchor="end" x="79" y="4.8999999999999995" transform="translate(0,271.97)" style="font-family: 'Open Sans', verdana, arial, sans-serif; font-size: 14px; fill: rgb(68, 68, 68); fill-opacity: 1; white-space: pre;">0.6</text></g><g class="ytick"><text text-anchor="end" x="79" y="4.8999999999999995" transform="translate(0,196.3)" style="font-family: 'Open Sans', verdana, arial, sans-serif; font-size: 14px; fill: rgb(68, 68, 68); fill-opacity: 1; white-space: pre;">0.8</text></g><g class="ytick"><text text-anchor="end" x="79" y="4.8999999999999995" transform="translate(0,120.62)" style="font-family: 'Open Sans', verdana, arial, sans-serif; font-size: 14px; fill: rgb(68, 68, 68); fill-opacity: 1; white-space: pre;">1</text></g></g><g class="overaxes-above"/></g></g><g class="polarlayer"/><g class="ternarylayer"/><g class="geolayer"/><g class="pielayer"/><g class="glimages"/><defs id="topdefs-37da89"><g class="clips"/></defs><g class="layer-above"><g class="imagelayer"/><g class="shapelayer"/></g><g class="infolayer"><g class="g-gtitle"><text class="gtitle" x="450" y="50" text-anchor="middle" style="font-family: 'Open Sans', verdana, arial, sans-serif; font-size: 17px; fill: rgb(68, 68, 68); opacity: 1; font-weight: normal; white-space: pre;">ITER Meshtal Difference CDF</text></g><g class="g-xtitle"><text class="xtitle" x="450" y="578" text-anchor="middle" style="font-family: 'Open Sans', verdana, arial, sans-serif; font-size: 16px; fill: rgb(68, 68, 68); opacity: 1; font-weight: normal; white-space: pre;">Standard Deviations</text></g><g class="g-ytitle"><text class="ytitle" transform="rotate(-90,38,310)" x="38" y="310" text-anchor="middle" style="font-family: 'Open Sans', verdana, arial, sans-serif; font-size: 16px; fill: rgb(68, 68, 68); opacity: 1; font-weight: normal; white-space: pre;">Relative Number of Tally Values</text></g></g></svg>