<?xml version="1.0" encoding="UTF-8" standalone="no"?>
<svg
   xmlns:dc="http://purl.org/dc/elements/1.1/"
   xmlns:cc="http://creativecommons.org/ns#"
   xmlns:rdf="http://www.w3.org/1999/02/22-rdf-syntax-ns#"
   xmlns:svg="http://www.w3.org/2000/svg"
   xmlns="http://www.w3.org/2000/svg"
   xmlns:sodipodi="http://sodipodi.sourceforge.net/DTD/sodipodi-0.dtd"
   xmlns:inkscape="http://www.inkscape.org/namespaces/inkscape"
   version="1.1"
   viewBox="0 0 210 130.12"
   stroke-miterlimit="10"
   id="svg3088"
   inkscape:version="0.48.4 r9939"
   width="100%"
   height="100%"
   sodipodi:docname="next-n_prefetch.svg"
   style="fill:none;stroke:none">
  <metadata
     id="metadata3119">
    <rdf:RDF>
      <cc:Work
         rdf:about="">
        <dc:format>image/svg+xml</dc:format>
        <dc:type
           rdf:resource="http://purl.org/dc/dcmitype/StillImage" />
      </cc:Work>
    </rdf:RDF>
  </metadata>
  <defs
     id="defs3117" />
  <sodipodi:namedview
     pagecolor="#ffffff"
     bordercolor="#666666"
     borderopacity="1"
     objecttolerance="10"
     gridtolerance="10"
     guidetolerance="10"
     inkscape:pageopacity="0"
     inkscape:pageshadow="2"
     inkscape:window-width="1366"
     inkscape:window-height="729"
     id="namedview3115"
     showgrid="false"
     fit-margin-top="0"
     fit-margin-left="0"
     fit-margin-right="0"
     fit-margin-bottom="0"
     inkscape:zoom="1.5092593"
     inkscape:cx="99.245811"
     inkscape:cy="88.67678"
     inkscape:window-x="0"
     inkscape:window-y="0"
     inkscape:window-maximized="1"
     inkscape:current-layer="g3093" />
  <clipPath
     id="g3e80e11789_0_0.0">
    <path
       d="M 0,0 960,0 960,540 0,540 0,0 z"
       clip-rule="nonzero"
       id="path3091"
       inkscape:connector-curvature="0" />
  </clipPath>
  <g
     clip-path="url(#g3e80e11789_0_0.0)"
     id="g3093"
     transform="translate(-229.68671,-192.77764)">
    <path
       style="fill:#005599;fill-rule:nonzero"
       inkscape:connector-curvature="0"
       d="m 235.84296,197.42895 q -0.25,-0.0937 -0.60938,-0.14062 -0.35937,-0.0625 -0.71875,-0.0625 -0.25,0 -0.46875,0.0781 -0.21875,0.0625 -0.375,0.21875 -0.15625,0.14062 -0.25,0.375 -0.0937,0.21875 -0.0937,0.53125 l 0,0.96875 2.34375,0 0,1.10937 -2.34375,0 0,3.98438 -1.4375,0 0,-3.98438 -1.73437,0 0,-1.10937 1.73437,0 0,-0.90625 q 0,-0.64063 0.17188,-1.09375 0.1875,-0.45313 0.51562,-0.73438 0.34375,-0.29687 0.8125,-0.42187 0.48438,-0.14063 1.07813,-0.14063 0.375,0 0.71875,0.0469 0.35937,0.0469 0.65625,0.125 l 0,1.15625 z m -6.15625,1.10938 0,0 z m 12.76953,2.92187 q 0,0.70313 -0.20312,1.29688 -0.1875,0.57812 -0.5625,1 -0.375,0.40625 -0.92188,0.64062 -0.54687,0.23438 -1.25,0.23438 -0.65625,0 -1.1875,-0.1875 -0.51562,-0.20313 -0.875,-0.57813 -0.35937,-0.39062 -0.5625,-0.96875 -0.1875,-0.57812 -0.1875,-1.34375 0,-0.71875 0.20313,-1.29687 0.20312,-0.57813 0.57812,-0.98438 0.375,-0.40625 0.92188,-0.625 0.54687,-0.23437 1.23437,-0.23437 0.67188,0 1.1875,0.20312 0.51563,0.1875 0.875,0.57813 0.375,0.375 0.5625,0.95312 0.1875,0.5625 0.1875,1.3125 z m -1.48437,0.0469 q 0,-0.9375 -0.35938,-1.39062 -0.34375,-0.46875 -1.01562,-0.46875 -0.375,0 -0.64063,0.15625 -0.26562,0.14062 -0.4375,0.39062 -0.17187,0.25 -0.25,0.59375 -0.0781,0.34375 -0.0781,0.71875 0,0.9375 0.375,1.40625 0.375,0.46875 1.03125,0.46875 0.35938,0 0.625,-0.14062 0.26563,-0.14063 0.42188,-0.39063 0.17187,-0.26562 0.25,-0.60937 0.0781,-0.34375 0.0781,-0.73438 z m 6.55078,-0.65625 q 0.0156,-0.32812 -0.0312,-0.5625 -0.0312,-0.23437 -0.14063,-0.39062 -0.0937,-0.15625 -0.23437,-0.21875 -0.14063,-0.0781 -0.3125,-0.0781 -0.32813,0 -0.67188,0.26562 -0.32812,0.26563 -0.73437,0.85938 l 0,3.76562 -1.45313,0 0,-5.95312 1.28125,0 0.0625,0.85937 q 0.14063,-0.21875 0.32813,-0.39062 0.1875,-0.1875 0.40625,-0.3125 0.23437,-0.14063 0.5,-0.20313 0.28125,-0.0781 0.60937,-0.0781 0.45313,0 0.79688,0.15625 0.34375,0.15625 0.57812,0.46875 0.25,0.29688 0.35938,0.75 0.10937,0.45313 0.0937,1.0625 l -1.4375,0 z"
       id="path3735" />
    <path
       style="fill:#3e5915;fill-rule:nonzero"
       inkscape:connector-curvature="0"
       d="m 253.9328,206.9602 q -2.6875,-2.51562 -2.6875,-5.54687 0,-0.70313 0.14063,-1.40625 0.14062,-0.70313 0.45312,-1.40625 0.32813,-0.71875 0.84375,-1.42188 0.53125,-0.71875 1.28125,-1.40625 l 0.59375,0.59375 q -2.28125,2.25 -2.28125,4.98438 0,1.35937 0.57813,2.60937 0.57812,1.25 1.70312,2.35938 l -0.625,0.64062 z"
       id="path3737" />
    <path
       style="fill:#005599;fill-rule:nonzero"
       inkscape:connector-curvature="0"
       d="m 260.38983,196.91332 q 0,0.1875 -0.0781,0.35938 -0.0625,0.17187 -0.1875,0.29687 -0.125,0.125 -0.29687,0.20313 -0.15625,0.0625 -0.35938,0.0625 -0.20312,0 -0.375,-0.0625 -0.17187,-0.0781 -0.29687,-0.20313 -0.125,-0.125 -0.20313,-0.29687 -0.0625,-0.17188 -0.0625,-0.35938 0,-0.20312 0.0625,-0.35937 0.0781,-0.17188 0.20313,-0.29688 0.125,-0.14062 0.29687,-0.20312 0.17188,-0.0781 0.375,-0.0781 0.20313,0 0.35938,0.0781 0.17187,0.0625 0.29687,0.20312 0.125,0.125 0.1875,0.29688 0.0781,0.15625 0.0781,0.35937 z m -1.57812,2.73438 -1.67188,0 0,-1.10938 3.14063,0 0,4.84375 1.71875,0 0,1.10938 -5.07813,0 0,-1.10938 1.89063,0 0,-3.73437 z m 8.22266,4.84375 0,-3.875 q 0,-0.98438 -0.71875,-0.98438 -0.35938,0 -0.70313,0.29688 -0.32812,0.29687 -0.6875,0.79687 l 0,3.76563 -1.4375,0 0,-5.95313 1.23438,0 0.0469,0.875 q 0.17187,-0.21875 0.35937,-0.40625 0.20313,-0.1875 0.4375,-0.3125 0.23438,-0.14062 0.48438,-0.20312 0.26562,-0.0781 0.59375,-0.0781 0.46875,0 0.79687,0.15625 0.34375,0.14062 0.5625,0.42187 0.23438,0.26563 0.34375,0.65625 0.125,0.375 0.125,0.84375 l 0,4 -1.4375,0 z m 7.95703,-0.0625 q -0.375,0.0937 -0.78125,0.14062 -0.39063,0.0625 -0.73438,0.0625 -0.59375,0 -1.01562,-0.125 -0.42188,-0.125 -0.70313,-0.375 -0.28125,-0.25 -0.40625,-0.64062 -0.125,-0.39063 -0.125,-0.9375 l 0,-2.90625 -1.60937,0 0,-1.10938 1.60937,0 0,-1.53125 1.45313,-0.375 0,1.90625 2.3125,0 0,1.10938 -2.3125,0 0,2.79687 q 0,0.51563 0.23437,0.78125 0.23438,0.25 0.79688,0.25 0.34375,0 0.67187,-0.0469 0.34375,-0.0625 0.60938,-0.14062 l 0,1.14062 z"
       id="path3739" />
    <path
       style="fill:#3e5915;fill-rule:nonzero"
       inkscape:connector-curvature="0"
       d="m 285.40546,199.44457 -1.73438,0 0,-0.84375 2.76563,0 0,5.04688 1.75,0 0,0.84375 -4.70313,0 0,-0.84375 1.92188,0 0,-4.20313 z m 0.35937,-3.29687 q 0.17188,0 0.3125,0.0625 0.15625,0.0469 0.26563,0.17187 0.10937,0.10938 0.17187,0.25 0.0625,0.14063 0.0625,0.3125 0,0.15625 -0.0625,0.3125 -0.0625,0.14063 -0.17187,0.25 -0.10938,0.10938 -0.26563,0.17188 -0.14062,0.0625 -0.3125,0.0625 -0.17187,0 -0.3125,-0.0625 -0.14062,-0.0625 -0.25,-0.17188 -0.10937,-0.10937 -0.17187,-0.25 -0.0625,-0.15625 -0.0625,-0.3125 0,-0.17187 0.0625,-0.3125 0.0625,-0.14062 0.17187,-0.25 0.10938,-0.125 0.25,-0.17187 0.14063,-0.0625 0.3125,-0.0625 z m 15.71094,4.5625 -5.03125,0 0,-0.85938 5.03125,0 0,0.85938 z m 0,2.03125 -5.03125,0 0,-0.85938 5.03125,0 0,0.85938 z m 13.46094,-2.07813 q 0,0.875 -0.17188,1.60938 -0.17187,0.71875 -0.53125,1.23437 -0.35937,0.51563 -0.89062,0.8125 -0.53125,0.28125 -1.25,0.28125 -0.60938,0 -1.10938,-0.23437 -0.5,-0.23438 -0.85937,-0.70313 -0.35938,-0.48437 -0.5625,-1.23437 -0.1875,-0.75 -0.1875,-1.76563 0,-0.875 0.17187,-1.59375 0.1875,-0.73437 0.53125,-1.25 0.35938,-0.53125 0.89063,-0.8125 0.54687,-0.28125 1.25,-0.28125 0.60937,0 1.10937,0.23438 0.51563,0.23437 0.875,0.71875 0.35938,0.48437 0.54688,1.23437 0.1875,0.73438 0.1875,1.75 z m -1.03125,0.0312 q 0,-0.1875 -0.0156,-0.39062 -0.0156,-0.20313 -0.0312,-0.39063 l -3.23437,2.42188 q 0.0937,0.29687 0.21875,0.5625 0.14062,0.25 0.32812,0.4375 0.1875,0.1875 0.42188,0.29687 0.25,0.0937 0.5625,0.0937 0.40625,0 0.71875,-0.1875 0.32812,-0.20312 0.5625,-0.57812 0.23437,-0.39063 0.34375,-0.95313 0.125,-0.5625 0.125,-1.3125 z m -3.5,-0.0625 q 0,0.17188 0,0.35938 0,0.1875 0.0312,0.35937 l 3.23437,-2.40625 q -0.0937,-0.29687 -0.23437,-0.53125 -0.125,-0.25 -0.3125,-0.42187 -0.1875,-0.1875 -0.4375,-0.28125 -0.23438,-0.10938 -0.53125,-0.10938 -0.39063,0 -0.71875,0.20313 -0.32813,0.1875 -0.5625,0.57812 -0.21875,0.375 -0.34375,0.9375 -0.125,0.5625 -0.125,1.3125 z m 6.51953,5.0625 q 0.29687,0.0156 0.57812,-0.0625 0.28125,-0.0625 0.48438,-0.1875 0.21875,-0.125 0.34375,-0.3125 0.14062,-0.1875 0.14062,-0.42187 0,-0.25 -0.0937,-0.39063 -0.0781,-0.15625 -0.1875,-0.28125 -0.10937,-0.14062 -0.1875,-0.28125 -0.0781,-0.15625 -0.0781,-0.39062 0,-0.125 0.0469,-0.26563 0.0469,-0.14062 0.14063,-0.25 0.0937,-0.10937 0.23437,-0.17187 0.15625,-0.0781 0.35938,-0.0781 0.20312,0 0.39062,0.0937 0.20313,0.0781 0.34375,0.26562 0.14063,0.17188 0.21875,0.4375 0.0937,0.25 0.0937,0.60938 0,0.48437 -0.1875,0.9375 -0.17187,0.45312 -0.53125,0.79687 -0.34375,0.34375 -0.875,0.54688 -0.53125,0.20312 -1.23437,0.20312 l 0,-0.79687 z m 1.82812,-7.1875 q 0.1875,0 0.34375,0.0781 0.17188,0.0625 0.29688,0.1875 0.125,0.125 0.1875,0.29688 0.0781,0.15625 0.0781,0.32812 0,0.1875 -0.0781,0.35938 -0.0625,0.15625 -0.1875,0.28125 -0.125,0.125 -0.29688,0.20312 -0.15625,0.0625 -0.34375,0.0625 -0.1875,0 -0.34375,-0.0625 -0.15625,-0.0781 -0.28125,-0.20312 -0.125,-0.125 -0.20312,-0.28125 -0.0625,-0.17188 -0.0625,-0.35938 0,-0.17187 0.0625,-0.32812 0.0781,-0.17188 0.20312,-0.29688 0.125,-0.125 0.28125,-0.1875 0.15625,-0.0781 0.34375,-0.0781 z m 12.83595,0.9375 -1.73438,0 0,-0.84375 2.76563,0 0,5.04688 1.75,0 0,0.84375 -4.70314,0 0,-0.84375 1.92189,0 0,-4.20313 z m 0.35937,-3.29687 q 0.17188,0 0.3125,0.0625 0.15625,0.0469 0.26563,0.17187 0.10937,0.10938 0.17187,0.25 0.0625,0.14063 0.0625,0.3125 0,0.15625 -0.0625,0.3125 -0.0625,0.14063 -0.17187,0.25 -0.10938,0.10938 -0.26563,0.17188 -0.14062,0.0625 -0.3125,0.0625 -0.17187,0 -0.3125,-0.0625 -0.14062,-0.0625 -0.25,-0.17188 -0.10937,-0.10937 -0.17187,-0.25 -0.0625,-0.15625 -0.0625,-0.3125 0,-0.17187 0.0625,-0.3125 0.0625,-0.14062 0.17187,-0.25 0.10938,-0.125 0.25,-0.17187 0.14063,-0.0625 0.3125,-0.0625 z m 15.27344,7.79687 -0.64062,0.64063 -3.9375,-3.28125 3.9375,-3.29688 0.64062,0.65625 -3.1875,2.625 3.1875,2.65625 z m 13.72656,0.54688 -1.35937,0 -2.23438,-4.78125 -0.64062,-1.53125 0,3.85937 0,2.45313 -0.96875,0 0,-7.65625 1.34375,0 2.125,4.51562 0.76562,1.75 0,-4.09375 0,-2.17187 0.96875,0 0,7.65625 z m 2.16015,1.20312 q 0.29688,0.0156 0.57813,-0.0625 0.28125,-0.0625 0.48437,-0.1875 0.21875,-0.125 0.34375,-0.3125 0.14063,-0.1875 0.14063,-0.42187 0,-0.25 -0.0937,-0.39063 -0.0781,-0.15625 -0.1875,-0.28125 -0.10937,-0.14062 -0.1875,-0.28125 -0.0781,-0.15625 -0.0781,-0.39062 0,-0.125 0.0469,-0.26563 0.0469,-0.14062 0.14063,-0.25 0.0937,-0.10937 0.23437,-0.17187 0.15625,-0.0781 0.35938,-0.0781 0.20312,0 0.39062,0.0937 0.20313,0.0781 0.34375,0.26562 0.14063,0.17188 0.21875,0.4375 0.0937,0.25 0.0937,0.60938 0,0.48437 -0.1875,0.9375 -0.17187,0.45312 -0.53125,0.79687 -0.34375,0.34375 -0.875,0.54688 -0.53125,0.20312 -1.23437,0.20312 l 0,-0.79687 z m 1.82813,-7.1875 q 0.1875,0 0.34375,0.0781 0.17187,0.0625 0.29687,0.1875 0.125,0.125 0.1875,0.29688 0.0781,0.15625 0.0781,0.32812 0,0.1875 -0.0781,0.35938 -0.0625,0.15625 -0.1875,0.28125 -0.125,0.125 -0.29687,0.20312 -0.15625,0.0625 -0.34375,0.0625 -0.1875,0 -0.34375,-0.0625 -0.15625,-0.0781 -0.28125,-0.20312 -0.125,-0.125 -0.20313,-0.28125 -0.0625,-0.17188 -0.0625,-0.35938 0,-0.17187 0.0625,-0.32812 0.0781,-0.17188 0.20313,-0.29688 0.125,-0.125 0.28125,-0.1875 0.15625,-0.0781 0.34375,-0.0781 z m 12.83593,0.9375 -1.73437,0 0,-0.84375 2.76562,0 0,5.04688 1.75,0 0,0.84375 -4.70312,0 0,-0.84375 1.92187,0 0,-4.20313 z m 0.35938,-3.29687 q 0.17187,0 0.3125,0.0625 0.15625,0.0469 0.26562,0.17187 0.10938,0.10938 0.17188,0.25 0.0625,0.14063 0.0625,0.3125 0,0.15625 -0.0625,0.3125 -0.0625,0.14063 -0.17188,0.25 -0.10937,0.10938 -0.26562,0.17188 -0.14063,0.0625 -0.3125,0.0625 -0.17188,0 -0.3125,-0.0625 -0.14063,-0.0625 -0.25,-0.17188 -0.10938,-0.10937 -0.17188,-0.25 -0.0625,-0.15625 -0.0625,-0.3125 0,-0.17187 0.0625,-0.3125 0.0625,-0.14062 0.17188,-0.25 0.10937,-0.125 0.25,-0.17187 0.14062,-0.0625 0.3125,-0.0625 z m 9.41015,5.59375 -2.3125,0 0,2.39062 -1,0 0,-2.39062 -2.29687,0 0,-0.89063 2.29687,0 0,-2.375 1,0 0,2.375 2.3125,0 0,0.89063 z m 6.59766,0 -2.3125,0 0,2.39062 -1,0 0,-2.39062 -2.29687,0 0,-0.89063 2.29687,0 0,-2.375 1,0 0,2.375 2.3125,0 0,0.89063 z m 2.62891,-5.96875 q 2.70312,2.5 2.70312,5.5625 0,0.625 -0.14062,1.3125 -0.125,0.67187 -0.4375,1.39062 -0.29688,0.71875 -0.82813,1.4375 -0.53125,0.73438 -1.32812,1.48438 l -0.57813,-0.60938 q 1.14063,-1.125 1.70313,-2.35937 0.5625,-1.23438 0.5625,-2.57813 0,-2.79687 -2.26563,-5.01562 l 0.60938,-0.625 z m 16.30468,11.125 -0.42187,0 q -1.14063,0 -1.6875,-0.53125 -0.54688,-0.53125 -0.54688,-1.60938 l 0,-2.01562 q 0,-0.29688 -0.0625,-0.51563 -0.0625,-0.21875 -0.23437,-0.375 -0.15625,-0.15625 -0.42188,-0.23437 -0.26562,-0.0937 -0.67187,-0.0937 l -0.25,0 0,-0.8125 0.25,0 q 0.42187,0 0.6875,-0.0625 0.28125,-0.0781 0.42187,-0.21875 0.15625,-0.14063 0.21875,-0.35938 0.0625,-0.23437 0.0625,-0.53125 l 0,-1.39062 q 0,-0.5 0.10938,-0.89063 0.125,-0.39062 0.39062,-0.67187 0.26563,-0.28125 0.6875,-0.42188 0.42188,-0.15625 1.04688,-0.15625 l 0.42187,0 0,0.8125 -0.34375,0 q -1.35937,0 -1.35937,1.32813 l 0,1.35937 q 0,1.4375 -1.23438,1.60938 1.25,0.125 1.25,1.60937 l 0,2 q 0,1.34375 1.34375,1.34375 l 0.34375,0 0,0.82813 z"
       id="path3741" />
    <path
       style="fill:#3e5915;fill-rule:nonzero"
       inkscape:connector-curvature="0"
       d="m 248.85077,218.44457 q 0,0.78125 -0.21875,1.375 -0.21875,0.57813 -0.60937,0.96875 -0.39063,0.39063 -0.92188,0.59375 -0.51562,0.1875 -1.14062,0.1875 -0.28125,0 -0.5625,-0.0312 -0.26563,-0.0312 -0.5625,-0.10937 l 0,2.46874 -1.01563,0 0,-8.29687 0.90625,0 0.0625,0.98438 q 0.4375,-0.59375 0.9375,-0.82813 0.5,-0.25 1.07813,-0.25 0.51562,0 0.89062,0.21875 0.375,0.20313 0.625,0.59375 0.26563,0.375 0.39063,0.92188 0.14062,0.53125 0.14062,1.20312 z m -1.04687,0.0469 q 0,-0.46875 -0.0781,-0.84375 -0.0625,-0.39062 -0.20312,-0.65625 -0.14063,-0.28125 -0.375,-0.4375 -0.23438,-0.15625 -0.54688,-0.15625 -0.1875,0 -0.39062,0.0625 -0.20313,0.0625 -0.42188,0.20313 -0.20312,0.14062 -0.4375,0.375 -0.23437,0.23437 -0.51562,0.59375 l 0,2.84375 q 0.28125,0.125 0.59375,0.20312 0.3125,0.0625 0.60937,0.0625 0.82813,0 1.29688,-0.5625 0.46875,-0.5625 0.46875,-1.6875 z m 2.84766,-2.89062 0.9375,0 0.0312,1.09375 q 0.51562,-0.625 1.01562,-0.90625 0.51563,-0.28125 1.03125,-0.28125 0.92188,0 1.39063,0.59375 0.46875,0.57812 0.4375,1.75 l -1.03125,0 q 0.0156,-0.76563 -0.23438,-1.10938 -0.23437,-0.35937 -0.70312,-0.35937 -0.20313,0 -0.42188,0.0781 -0.20312,0.0625 -0.42187,0.23437 -0.21875,0.15625 -0.46875,0.40625 -0.25,0.25 -0.53125,0.60938 l 0,3.78125 -1.03125,0 0,-5.89063 z m 11.33203,2.64062 q 0,0.21875 -0.0156,0.35938 0,0.14062 0,0.28125 l -4.14063,0 q 0,0.89062 0.5,1.375 0.51563,0.48437 1.45313,0.48437 0.26562,0 0.51562,-0.0156 0.26563,-0.0156 0.5,-0.0469 0.25,-0.0469 0.46875,-0.0781 0.21875,-0.0469 0.40625,-0.10937 l 0,0.84375 q -0.42187,0.10937 -0.95312,0.1875 -0.51563,0.0781 -1.07813,0.0781 -0.75,0 -1.29687,-0.20313 -0.54688,-0.21875 -0.90625,-0.59375 -0.34375,-0.39062 -0.51563,-0.95312 -0.15625,-0.57813 -0.15625,-1.29688 0,-0.60937 0.17188,-1.15625 0.1875,-0.5625 0.53125,-0.98437 0.34375,-0.42188 0.82812,-0.65625 0.5,-0.25 1.14063,-0.25 0.60937,0 1.07812,0.1875 0.48438,0.1875 0.8125,0.54687 0.32813,0.35938 0.48438,0.875 0.17187,0.5 0.17187,1.125 z m -1.0625,-0.15625 q 0.0156,-0.39062 -0.0781,-0.70312 -0.0937,-0.32813 -0.29688,-0.5625 -0.1875,-0.23438 -0.48437,-0.35938 -0.28125,-0.14062 -0.67188,-0.14062 -0.32812,0 -0.60937,0.125 -0.28125,0.125 -0.48438,0.35937 -0.1875,0.23438 -0.3125,0.5625 -0.125,0.32813 -0.15625,0.71875 l 3.09375,0 z m 7.91015,-3.92187 q -0.79687,-0.17188 -1.375,-0.17188 -1.375,0 -1.375,1.4375 l 0,1.03125 2.57813,0 0,0.85938 -2.57813,0 0,4.17187 -1.04687,0 0,-4.17187 -1.89063,0 0,-0.85938 1.89063,0 0,-0.96875 q 0,-2.34375 2.45312,-2.34375 0.60938,0 1.34375,0.14063 l 0,0.875 z m -6.15625,1.4375 0,0 z m 12.50391,2.64062 q 0,0.21875 -0.0156,0.35938 0,0.14062 0,0.28125 l -4.14063,0 q 0,0.89062 0.5,1.375 0.51563,0.48437 1.45313,0.48437 0.26562,0 0.51562,-0.0156 0.26563,-0.0156 0.5,-0.0469 0.25,-0.0469 0.46875,-0.0781 0.21875,-0.0469 0.40625,-0.10937 l 0,0.84375 q -0.42187,0.10937 -0.95312,0.1875 -0.51563,0.0781 -1.07813,0.0781 -0.75,0 -1.29687,-0.20313 -0.54688,-0.21875 -0.90625,-0.59375 -0.34375,-0.39062 -0.51563,-0.95312 -0.15625,-0.57813 -0.15625,-1.29688 0,-0.60937 0.17188,-1.15625 0.1875,-0.5625 0.53125,-0.98437 0.34375,-0.42188 0.82812,-0.65625 0.5,-0.25 1.14063,-0.25 0.60937,0 1.07812,0.1875 0.48438,0.1875 0.8125,0.54687 0.32813,0.35938 0.48438,0.875 0.17187,0.5 0.17187,1.125 z m -1.0625,-0.15625 q 0.0156,-0.39062 -0.0781,-0.70312 -0.0937,-0.32813 -0.29688,-0.5625 -0.1875,-0.23438 -0.48437,-0.35938 -0.28125,-0.14062 -0.67188,-0.14062 -0.32812,0 -0.60937,0.125 -0.28125,0.125 -0.48438,0.35937 -0.1875,0.23438 -0.3125,0.5625 -0.125,0.32813 -0.15625,0.71875 l 3.09375,0 z m 7.42578,3.32813 q -0.34375,0.0781 -0.71875,0.10937 -0.35937,0.0469 -0.73437,0.0469 -1.10938,0 -1.65625,-0.5 -0.54688,-0.5 -0.54688,-1.53125 l 0,-3.07812 -1.64062,0 0,-0.85938 1.64062,0 0,-1.60937 1.01563,-0.26563 0,1.875 2.64062,0 0,0.85938 -2.64062,0 0,2.98437 q 0,0.64063 0.32812,0.95313 0.34375,0.3125 1,0.3125 0.28125,0 0.60938,-0.0469 0.34375,-0.0469 0.70312,-0.14063 l 0,0.89063 z m 6.4414,-0.14063 q -0.40625,0.15625 -0.82812,0.21875 -0.42188,0.0781 -0.85938,0.0781 -1.39062,0 -2.15625,-0.75 -0.75,-0.76562 -0.75,-2.21875 0,-0.6875 0.21875,-1.25 0.21875,-0.57812 0.60938,-0.98437 0.39062,-0.40625 0.9375,-0.625 0.54687,-0.21875 1.20312,-0.21875 0.45313,0 0.84375,0.0625 0.40625,0.0625 0.78125,0.21875 l 0,0.96875 q -0.39062,-0.20313 -0.78125,-0.28125 -0.39062,-0.0937 -0.8125,-0.0937 -0.40625,0 -0.75,0.15625 -0.34375,0.14062 -0.60937,0.42187 -0.26563,0.28125 -0.42188,0.6875 -0.14062,0.40625 -0.14062,0.90625 0,1.0625 0.51562,1.59375 0.51563,0.53125 1.4375,0.53125 0.40625,0 0.79688,-0.0937 0.39062,-0.0937 0.76562,-0.28125 l 0,0.95313 z m 6.75392,0.21875 -1.03125,0 0,-3.75 q 0,-0.6875 -0.25,-1.01562 -0.25,-0.34375 -0.73439,-0.34375 -0.20311,0 -0.39061,0.0625 -0.17189,0.0469 -0.35939,0.1875 -0.1875,0.14062 -0.42186,0.375 -0.23439,0.23437 -0.53125,0.57812 l 0,3.90625 -1.01564,0 0,-8.28125 1.01564,0 0,2.39063 -0.0312,0.9375 q 0.23438,-0.29688 0.46875,-0.48438 0.23438,-0.20312 0.46875,-0.32812 0.23438,-0.125 0.46875,-0.17188 0.23438,-0.0469 0.5,-0.0469 0.875,0 1.35938,0.53125 0.48437,0.53125 0.48437,1.60938 l 0,3.84375 z m 5.37889,2.46874 q -2.6875,-2.51561 -2.6875,-5.54686 0,-0.70313 0.14063,-1.40625 0.14062,-0.70313 0.45312,-1.40625 0.32813,-0.71875 0.84375,-1.42188 0.53125,-0.71875 1.28125,-1.40625 l 0.59375,0.59375 q -2.28125,2.25 -2.28125,4.98438 0,1.35937 0.57813,2.60937 0.57812,1.25 1.70312,2.35938 l -0.625,0.64061 z m 8.14454,-6.46874 q 0,0.76563 -0.15625,1.40625 -0.14062,0.625 -0.42187,1.10938 l 1.17187,1.48437 -1.34375,0 -0.51562,-0.64062 q -0.42188,0.35937 -0.9375,0.54687 -0.51563,0.17188 -1.10938,0.17188 -0.5625,0 -1,-0.15625 -0.4375,-0.15625 -0.75,-0.4375 -0.29687,-0.28125 -0.45312,-0.67188 -0.15625,-0.40625 -0.15625,-0.875 0,-0.45312 0.10937,-0.79687 0.125,-0.34375 0.32813,-0.60938 0.20312,-0.28125 0.45312,-0.48437 0.26563,-0.21875 0.5625,-0.39063 l -0.14062,-0.1875 q -0.32813,-0.39062 -0.48438,-0.8125 -0.15625,-0.42187 -0.15625,-0.8125 0,-0.42187 0.125,-0.78125 0.14063,-0.35937 0.39063,-0.60937 0.26562,-0.26563 0.65625,-0.40625 0.39062,-0.15625 0.875,-0.15625 0.46875,0 0.82812,0.14062 0.35938,0.125 0.59375,0.35938 0.25,0.23437 0.35938,0.54687 0.125,0.3125 0.125,0.65625 0,0.4375 -0.15625,0.76563 -0.14063,0.32812 -0.39063,0.59375 -0.23437,0.25 -0.54687,0.45312 -0.3125,0.1875 -0.64063,0.375 l 1.51563,1.89063 q 0.25,-0.6875 0.23437,-1.67188 l 1.03125,0 z m -4.60937,1.8125 q 0,0.3125 0.0937,0.57813 0.10939,0.25 0.29689,0.4375 0.1875,0.1875 0.45311,0.28125 0.26564,0.0937 0.59375,0.0937 0.76564,0 1.34375,-0.5625 l -1.875,-2.32813 q -0.1875,0.14063 -0.35936,0.29688 -0.17189,0.14062 -0.29689,0.32812 -0.10936,0.17188 -0.1875,0.39063 -0.0625,0.21875 -0.0625,0.48437 z m 2.53125,-4.125 q 0,-0.4375 -0.25,-0.6875 -0.23438,-0.25 -0.65625,-0.25 -0.23438,0 -0.42188,0.0781 -0.17187,0.0781 -0.29687,0.21875 -0.125,0.125 -0.1875,0.3125 -0.0625,0.17188 -0.0625,0.39063 0,0.3125 0.10937,0.59375 0.125,0.26562 0.39063,0.59375 l 0.15625,0.20312 q 0.25,-0.14062 0.46875,-0.28125 0.23437,-0.14062 0.39062,-0.3125 0.17188,-0.17187 0.26563,-0.375 0.0937,-0.21875 0.0937,-0.48437 z m 7.39452,6.3125 -0.0312,-0.79687 q -0.46875,0.48437 -0.96875,0.70312 -0.5,0.20313 -1.04686,0.20313 -0.5,0 -0.85939,-0.125 -0.35936,-0.14063 -0.59375,-0.35938 -0.21875,-0.23437 -0.32811,-0.53125 -0.10939,-0.3125 -0.10939,-0.67187 0,-0.875 0.65625,-1.375 0.65625,-0.5 1.95314,-0.5 l 1.21875,0 0,-0.51563 q 0,-0.53125 -0.34375,-0.84375 -0.32814,-0.3125 -1.01564,-0.3125 -0.5,0 -0.98436,0.10938 -0.48439,0.10937 -1,0.32812 l 0,-0.92187 q 0.20311,-0.0781 0.4375,-0.14063 0.23436,-0.0625 0.5,-0.10937 0.26561,-0.0625 0.54686,-0.0937 0.29689,-0.0312 0.57814,-0.0312 0.54686,0 0.96875,0.125 0.42186,0.10937 0.71875,0.34375 0.29686,0.23437 0.45311,0.60937 0.15625,0.35938 0.15625,0.84375 l 0,4.0625 -0.90625,0 z m -0.10937,-2.67187 -1.29688,0 q -0.375,0 -0.65625,0.0781 -0.28125,0.0625 -0.45312,0.20312 -0.17188,0.14063 -0.26563,0.34375 -0.0781,0.1875 -0.0781,0.4375 0,0.17188 0.0469,0.32813 0.0625,0.15625 0.17188,0.28125 0.125,0.10937 0.3125,0.1875 0.1875,0.0625 0.45312,0.0625 0.34375,0 0.79688,-0.20313 0.46875,-0.21875 0.96875,-0.6875 l 0,-1.03125 z m 6.89454,5.07811 -2.89063,0 0,-10.89061 2.89063,0 0,0.8125 -1.90625,0 0,9.25 1.90625,0 0,0.82811 z m 4.62889,-7.45311 -1.73436,0 0,-0.84375 2.76561,0 0,5.04687 1.75,0 0,0.84375 -4.70311,0 0,-0.84375 1.92186,0 0,-4.20312 z m 0.35939,-3.29688 q 0.17186,0 0.3125,0.0625 0.15625,0.0469 0.26561,0.17188 0.10939,0.10937 0.17189,0.25 0.0625,0.14062 0.0625,0.3125 0,0.15625 -0.0625,0.3125 -0.0625,0.14062 -0.17189,0.25 -0.10936,0.10937 -0.26561,0.17187 -0.14064,0.0625 -0.3125,0.0625 -0.17189,0 -0.3125,-0.0625 -0.14064,-0.0625 -0.25,-0.17187 -0.10939,-0.10938 -0.17189,-0.25 -0.0625,-0.15625 -0.0625,-0.3125 0,-0.17188 0.0625,-0.3125 0.0625,-0.14063 0.17189,-0.25 0.10936,-0.125 0.25,-0.17188 0.14061,-0.0625 0.3125,-0.0625 z m 9.41014,5.59375 -2.3125,0 0,2.39063 -1,0 0,-2.39063 -2.29686,0 0,-0.89062 2.29686,0 0,-2.375 1,0 0,2.375 2.3125,0 0,0.89062 z m 6.33204,2.75 -4.8125,0 0,-0.95312 1.96875,0 0,-5.59375 -1.82813,1 -0.375,-0.85938 2.4375,-1.28125 0.89063,0 0,6.73438 1.71875,0 0,0.95312 z m 5.33203,2.40624 -2.89063,0 0,-0.82811 1.90625,0 0,-9.25 -1.90625,0 0,-0.8125 2.89063,0 0,10.89061 z m 4.16015,-11.12499 q 2.70313,2.5 2.70313,5.5625 0,0.625 -0.14063,1.3125 -0.125,0.67188 -0.4375,1.39063 -0.29687,0.71875 -0.82812,1.4375 -0.53125,0.73437 -1.32813,1.48436 l -0.57812,-0.60936 q 1.14062,-1.125 1.70312,-2.35938 0.5625,-1.23437 0.5625,-2.57812 0,-2.79688 -2.26562,-5.01563 l 0.60937,-0.625 z m 5.92578,9.92188 q 0.29688,0.0156 0.57813,-0.0625 0.28125,-0.0625 0.48437,-0.1875 0.21875,-0.125 0.34375,-0.3125 0.14063,-0.1875 0.14063,-0.42188 0,-0.25 -0.0937,-0.39062 -0.0781,-0.15625 -0.1875,-0.28125 -0.10938,-0.14063 -0.1875,-0.28125 -0.0781,-0.15625 -0.0781,-0.39063 0,-0.125 0.0469,-0.26562 0.0469,-0.14063 0.14062,-0.25 0.0937,-0.10938 0.23438,-0.17188 0.15625,-0.0781 0.35937,-0.0781 0.20313,0 0.39063,0.0937 0.20312,0.0781 0.34375,0.26563 0.14062,0.17187 0.21875,0.4375 0.0937,0.25 0.0937,0.60937 0,0.48438 -0.1875,0.9375 -0.17188,0.45313 -0.53125,0.79688 -0.34375,0.34375 -0.875,0.54687 -0.53125,0.20313 -1.23438,0.20313 l 0,-0.79688 z m 1.82813,-7.1875 q 0.1875,0 0.34375,0.0781 0.17187,0.0625 0.29687,0.1875 0.125,0.125 0.1875,0.29687 0.0781,0.15625 0.0781,0.32813 0,0.1875 -0.0781,0.35937 -0.0625,0.15625 -0.1875,0.28125 -0.125,0.125 -0.29687,0.20313 -0.15625,0.0625 -0.34375,0.0625 -0.1875,0 -0.34375,-0.0625 -0.15625,-0.0781 -0.28125,-0.20313 -0.125,-0.125 -0.20313,-0.28125 -0.0625,-0.17187 -0.0625,-0.35937 0,-0.17188 0.0625,-0.32813 0.0781,-0.17187 0.20313,-0.29687 0.125,-0.125 0.28125,-0.1875 0.15625,-0.0781 0.34375,-0.0781 z"
       id="path3743" />
    <path
       style="fill:#3e5915;fill-rule:nonzero"
       inkscape:connector-curvature="0"
       d="m 248.85077,235.44457 q 0,0.78125 -0.21875,1.375 -0.21875,0.57812 -0.60937,0.96875 -0.39063,0.39062 -0.92188,0.59375 -0.51562,0.1875 -1.14062,0.1875 -0.28125,0 -0.5625,-0.0312 -0.26563,-0.0312 -0.5625,-0.10938 l 0,2.46875 -1.01563,0 0,-8.29687 0.90625,0 0.0625,0.98437 q 0.4375,-0.59375 0.9375,-0.82812 0.5,-0.25 1.07813,-0.25 0.51562,0 0.89062,0.21875 0.375,0.20312 0.625,0.59375 0.26563,0.375 0.39063,0.92187 0.14062,0.53125 0.14062,1.20313 z m -1.04687,0.0469 q 0,-0.46875 -0.0781,-0.84375 -0.0625,-0.39062 -0.20312,-0.65625 -0.14063,-0.28125 -0.375,-0.4375 -0.23438,-0.15625 -0.54688,-0.15625 -0.1875,0 -0.39062,0.0625 -0.20313,0.0625 -0.42188,0.20313 -0.20312,0.14062 -0.4375,0.375 -0.23437,0.23437 -0.51562,0.59375 l 0,2.84375 q 0.28125,0.125 0.59375,0.20312 0.3125,0.0625 0.60937,0.0625 0.82813,0 1.29688,-0.5625 0.46875,-0.5625 0.46875,-1.6875 z m 2.84766,-2.89062 0.9375,0 0.0312,1.09375 q 0.51562,-0.625 1.01562,-0.90625 0.51563,-0.28125 1.03125,-0.28125 0.92188,0 1.39063,0.59375 0.46875,0.57812 0.4375,1.75 l -1.03125,0 q 0.0156,-0.76563 -0.23438,-1.10938 -0.23437,-0.35937 -0.70312,-0.35937 -0.20313,0 -0.42188,0.0781 -0.20312,0.0625 -0.42187,0.23438 -0.21875,0.15625 -0.46875,0.40625 -0.25,0.25 -0.53125,0.60937 l 0,3.78125 -1.03125,0 0,-5.89062 z m 11.33203,2.64062 q 0,0.21875 -0.0156,0.35938 0,0.14062 0,0.28125 l -4.14063,0 q 0,0.89062 0.5,1.375 0.51563,0.48437 1.45313,0.48437 0.26562,0 0.51562,-0.0156 0.26563,-0.0156 0.5,-0.0469 0.25,-0.0469 0.46875,-0.0781 0.21875,-0.0469 0.40625,-0.10938 l 0,0.84375 q -0.42187,0.10938 -0.95312,0.1875 -0.51563,0.0781 -1.07813,0.0781 -0.75,0 -1.29687,-0.20313 -0.54688,-0.21875 -0.90625,-0.59375 -0.34375,-0.39062 -0.51563,-0.95312 -0.15625,-0.57813 -0.15625,-1.29688 0,-0.60937 0.17188,-1.15625 0.1875,-0.5625 0.53125,-0.98437 0.34375,-0.42188 0.82812,-0.65625 0.5,-0.25 1.14063,-0.25 0.60937,0 1.07812,0.1875 0.48438,0.1875 0.8125,0.54687 0.32813,0.35938 0.48438,0.875 0.17187,0.5 0.17187,1.125 z m -1.0625,-0.15625 q 0.0156,-0.39062 -0.0781,-0.70312 -0.0937,-0.32813 -0.29688,-0.5625 -0.1875,-0.23438 -0.48437,-0.35938 -0.28125,-0.14062 -0.67188,-0.14062 -0.32812,0 -0.60937,0.125 -0.28125,0.125 -0.48438,0.35937 -0.1875,0.23438 -0.3125,0.5625 -0.125,0.32813 -0.15625,0.71875 l 3.09375,0 z m 7.91015,-3.92187 q -0.79687,-0.17188 -1.375,-0.17188 -1.375,0 -1.375,1.4375 l 0,1.03125 2.57813,0 0,0.85938 -2.57813,0 0,4.17187 -1.04687,0 0,-4.17187 -1.89063,0 0,-0.85938 1.89063,0 0,-0.96875 q 0,-2.34375 2.45312,-2.34375 0.60938,0 1.34375,0.14063 l 0,0.875 z m -6.15625,1.4375 0,0 z m 12.50391,2.64062 q 0,0.21875 -0.0156,0.35938 0,0.14062 0,0.28125 l -4.14063,0 q 0,0.89062 0.5,1.375 0.51563,0.48437 1.45313,0.48437 0.26562,0 0.51562,-0.0156 0.26563,-0.0156 0.5,-0.0469 0.25,-0.0469 0.46875,-0.0781 0.21875,-0.0469 0.40625,-0.10938 l 0,0.84375 q -0.42187,0.10938 -0.95312,0.1875 -0.51563,0.0781 -1.07813,0.0781 -0.75,0 -1.29687,-0.20313 -0.54688,-0.21875 -0.90625,-0.59375 -0.34375,-0.39062 -0.51563,-0.95312 -0.15625,-0.57813 -0.15625,-1.29688 0,-0.60937 0.17188,-1.15625 0.1875,-0.5625 0.53125,-0.98437 0.34375,-0.42188 0.82812,-0.65625 0.5,-0.25 1.14063,-0.25 0.60937,0 1.07812,0.1875 0.48438,0.1875 0.8125,0.54687 0.32813,0.35938 0.48438,0.875 0.17187,0.5 0.17187,1.125 z m -1.0625,-0.15625 q 0.0156,-0.39062 -0.0781,-0.70312 -0.0937,-0.32813 -0.29688,-0.5625 -0.1875,-0.23438 -0.48437,-0.35938 -0.28125,-0.14062 -0.67188,-0.14062 -0.32812,0 -0.60937,0.125 -0.28125,0.125 -0.48438,0.35937 -0.1875,0.23438 -0.3125,0.5625 -0.125,0.32813 -0.15625,0.71875 l 3.09375,0 z m 7.42578,3.32813 q -0.34375,0.0781 -0.71875,0.10937 -0.35937,0.0469 -0.73437,0.0469 -1.10938,0 -1.65625,-0.5 -0.54688,-0.5 -0.54688,-1.53125 l 0,-3.07813 -1.64062,0 0,-0.85937 1.64062,0 0,-1.60938 1.01563,-0.26562 0,1.875 2.64062,0 0,0.85937 -2.64062,0 0,2.98438 q 0,0.64062 0.32812,0.95312 0.34375,0.3125 1,0.3125 0.28125,0 0.60938,-0.0469 0.34375,-0.0469 0.70312,-0.14063 l 0,0.89063 z m 6.4414,-0.14063 q -0.40625,0.15625 -0.82812,0.21875 -0.42188,0.0781 -0.85938,0.0781 -1.39062,0 -2.15625,-0.75 -0.75,-0.76563 -0.75,-2.21875 0,-0.6875 0.21875,-1.25 0.21875,-0.57813 0.60938,-0.98438 0.39062,-0.40625 0.9375,-0.625 0.54687,-0.21875 1.20312,-0.21875 0.45313,0 0.84375,0.0625 0.40625,0.0625 0.78125,0.21875 l 0,0.96875 q -0.39062,-0.20312 -0.78125,-0.28125 -0.39062,-0.0937 -0.8125,-0.0937 -0.40625,0 -0.75,0.15625 -0.34375,0.14063 -0.60937,0.42188 -0.26563,0.28125 -0.42188,0.6875 -0.14062,0.40625 -0.14062,0.90625 0,1.0625 0.51562,1.59375 0.51563,0.53125 1.4375,0.53125 0.40625,0 0.79688,-0.0937 0.39062,-0.0937 0.76562,-0.28125 l 0,0.95312 z m 6.75392,0.21875 -1.03125,0 0,-3.75 q 0,-0.6875 -0.25,-1.01562 -0.25,-0.34375 -0.73439,-0.34375 -0.20311,0 -0.39061,0.0625 -0.17189,0.0469 -0.35939,0.1875 -0.1875,0.14062 -0.42186,0.375 -0.23439,0.23437 -0.53125,0.57812 l 0,3.90625 -1.01564,0 0,-8.28125 1.01564,0 0,2.39063 -0.0312,0.9375 q 0.23438,-0.29688 0.46875,-0.48438 0.23438,-0.20312 0.46875,-0.32812 0.23438,-0.125 0.46875,-0.17188 0.23438,-0.0469 0.5,-0.0469 0.875,0 1.35938,0.53125 0.48437,0.53125 0.48437,1.60937 l 0,3.84375 z m 5.37889,2.46875 q -2.6875,-2.51562 -2.6875,-5.54687 0,-0.70313 0.14063,-1.40625 0.14062,-0.70313 0.45312,-1.40625 0.32813,-0.71875 0.84375,-1.42188 0.53125,-0.71875 1.28125,-1.40625 l 0.59375,0.59375 q -2.28125,2.25 -2.28125,4.98438 0,1.35937 0.57813,2.60937 0.57812,1.25 1.70312,2.35938 l -0.625,0.64062 z m 8.14454,-6.46875 q 0,0.76563 -0.15625,1.40625 -0.14062,0.625 -0.42187,1.10938 l 1.17187,1.48437 -1.34375,0 -0.51562,-0.64062 q -0.42188,0.35937 -0.9375,0.54687 -0.51563,0.17188 -1.10938,0.17188 -0.5625,0 -1,-0.15625 -0.4375,-0.15625 -0.75,-0.4375 -0.29687,-0.28125 -0.45312,-0.67188 -0.15625,-0.40625 -0.15625,-0.875 0,-0.45312 0.10937,-0.79687 0.125,-0.34375 0.32813,-0.60938 0.20312,-0.28125 0.45312,-0.48437 0.26563,-0.21875 0.5625,-0.39063 l -0.14062,-0.1875 q -0.32813,-0.39062 -0.48438,-0.8125 -0.15625,-0.42187 -0.15625,-0.8125 0,-0.42187 0.125,-0.78125 0.14063,-0.35937 0.39063,-0.60937 0.26562,-0.26563 0.65625,-0.40625 0.39062,-0.15625 0.875,-0.15625 0.46875,0 0.82812,0.14062 0.35938,0.125 0.59375,0.35938 0.25,0.23437 0.35938,0.54687 0.125,0.3125 0.125,0.65625 0,0.4375 -0.15625,0.76563 -0.14063,0.32812 -0.39063,0.59375 -0.23437,0.25 -0.54687,0.45312 -0.3125,0.1875 -0.64063,0.375 l 1.51563,1.89063 q 0.25,-0.6875 0.23437,-1.67188 l 1.03125,0 z m -4.60937,1.8125 q 0,0.3125 0.0937,0.57813 0.10939,0.25 0.29689,0.4375 0.1875,0.1875 0.45311,0.28125 0.26564,0.0937 0.59375,0.0937 0.76564,0 1.34375,-0.5625 l -1.875,-2.32813 q -0.1875,0.14063 -0.35936,0.29688 -0.17189,0.14062 -0.29689,0.32812 -0.10936,0.17188 -0.1875,0.39063 -0.0625,0.21875 -0.0625,0.48437 z m 2.53125,-4.125 q 0,-0.4375 -0.25,-0.6875 -0.23438,-0.25 -0.65625,-0.25 -0.23438,0 -0.42188,0.0781 -0.17187,0.0781 -0.29687,0.21875 -0.125,0.125 -0.1875,0.3125 -0.0625,0.17187 -0.0625,0.39062 0,0.3125 0.10937,0.59375 0.125,0.26563 0.39063,0.59375 l 0.15625,0.20313 q 0.25,-0.14063 0.46875,-0.28125 0.23437,-0.14063 0.39062,-0.3125 0.17188,-0.17188 0.26563,-0.375 0.0937,-0.21875 0.0937,-0.48438 z m 8.64452,3.26563 q 0,0.73437 -0.20312,1.3125 -0.20313,0.57812 -0.57813,0.98437 -0.375,0.39063 -0.90625,0.60938 -0.53125,0.21875 -1.20312,0.21875 -0.51563,0 -1.0625,-0.0937 -0.54688,-0.10938 -1.07813,-0.32813 l 0,-7.9375 1.01563,0 0,2.28125 -0.0469,1.09375 q 0.4375,-0.59375 0.9375,-0.82812 0.51563,-0.25 1.07813,-0.25 0.51562,0 0.89062,0.21875 0.375,0.20312 0.625,0.59375 0.26563,0.375 0.39063,0.92187 0.14062,0.53125 0.14062,1.20313 z m -1.04687,0.0469 q 0,-0.46875 -0.0781,-0.84375 -0.0625,-0.39062 -0.20311,-0.65625 -0.14064,-0.28125 -0.375,-0.4375 -0.23439,-0.15625 -0.54689,-0.15625 -0.1875,0 -0.39061,0.0625 -0.20314,0.0625 -0.42189,0.20313 -0.20311,0.14062 -0.4375,0.375 -0.23436,0.23437 -0.51561,0.59375 l 0,2.84375 q 0.29686,0.125 0.60936,0.20312 0.3125,0.0625 0.59375,0.0625 0.35939,0 0.67189,-0.10937 0.32811,-0.125 0.5625,-0.375 0.25,-0.26563 0.39061,-0.6875 0.14064,-0.4375 0.14064,-1.07813 z m 6.58204,5.40625 -2.89063,0 0,-10.89062 2.89063,0 0,0.8125 -1.90625,0 0,9.25 1.90625,0 0,0.82812 z m 4.62889,-7.45312 -1.73436,0 0,-0.84375 2.76561,0 0,5.04687 1.75,0 0,0.84375 -4.70311,0 0,-0.84375 1.92186,0 0,-4.20312 z m 0.35939,-3.29688 q 0.17186,0 0.3125,0.0625 0.15625,0.0469 0.26561,0.17188 0.10939,0.10937 0.17189,0.25 0.0625,0.14062 0.0625,0.3125 0,0.15625 -0.0625,0.3125 -0.0625,0.14062 -0.17189,0.25 -0.10936,0.10937 -0.26561,0.17187 -0.14064,0.0625 -0.3125,0.0625 -0.17189,0 -0.3125,-0.0625 -0.14064,-0.0625 -0.25,-0.17187 -0.10939,-0.10938 -0.17189,-0.25 -0.0625,-0.15625 -0.0625,-0.3125 0,-0.17188 0.0625,-0.3125 0.0625,-0.14063 0.17189,-0.25 0.10936,-0.125 0.25,-0.17188 0.14061,-0.0625 0.3125,-0.0625 z m 9.41014,5.59375 -2.3125,0 0,2.39063 -1,0 0,-2.39063 -2.29686,0 0,-0.89062 2.29686,0 0,-2.375 1,0 0,2.375 2.3125,0 0,0.89062 z m 6.33204,2.75 -4.8125,0 0,-0.95312 1.96875,0 0,-5.59375 -1.82813,1 -0.375,-0.85938 2.4375,-1.28125 0.89063,0 0,6.73438 1.71875,0 0,0.95312 z m 5.33203,2.40625 -2.89063,0 0,-0.82812 1.90625,0 0,-9.25 -1.90625,0 0,-0.8125 2.89063,0 0,10.89062 z m 4.16015,-11.125 q 2.70313,2.5 2.70313,5.5625 0,0.625 -0.14063,1.3125 -0.125,0.67188 -0.4375,1.39063 -0.29687,0.71875 -0.82812,1.4375 -0.53125,0.73437 -1.32813,1.48437 l -0.57812,-0.60937 q 1.14062,-1.125 1.70312,-2.35938 0.5625,-1.23437 0.5625,-2.57812 0,-2.79688 -2.26562,-5.01563 l 0.60937,-0.625 z m 5.92578,9.92188 q 0.29688,0.0156 0.57813,-0.0625 0.28125,-0.0625 0.48437,-0.1875 0.21875,-0.125 0.34375,-0.3125 0.14063,-0.1875 0.14063,-0.42188 0,-0.25 -0.0937,-0.39062 -0.0781,-0.15625 -0.1875,-0.28125 -0.10938,-0.14063 -0.1875,-0.28125 -0.0781,-0.15625 -0.0781,-0.39063 0,-0.125 0.0469,-0.26562 0.0469,-0.14063 0.14062,-0.25 0.0937,-0.10938 0.23438,-0.17188 0.15625,-0.0781 0.35937,-0.0781 0.20313,0 0.39063,0.0937 0.20312,0.0781 0.34375,0.26562 0.14062,0.17188 0.21875,0.4375 0.0937,0.25 0.0937,0.60938 0,0.48437 -0.1875,0.9375 -0.17188,0.45312 -0.53125,0.79687 -0.34375,0.34375 -0.875,0.54688 -0.53125,0.20312 -1.23438,0.20312 l 0,-0.79687 z m 1.82813,-7.1875 q 0.1875,0 0.34375,0.0781 0.17187,0.0625 0.29687,0.1875 0.125,0.125 0.1875,0.29688 0.0781,0.15625 0.0781,0.32812 0,0.1875 -0.0781,0.35938 -0.0625,0.15625 -0.1875,0.28125 -0.125,0.125 -0.29687,0.20312 -0.15625,0.0625 -0.34375,0.0625 -0.1875,0 -0.34375,-0.0625 -0.15625,-0.0781 -0.28125,-0.20312 -0.125,-0.125 -0.20313,-0.28125 -0.0625,-0.17188 -0.0625,-0.35938 0,-0.17187 0.0625,-0.32812 0.0781,-0.17188 0.20313,-0.29688 0.125,-0.125 0.28125,-0.1875 0.15625,-0.0781 0.34375,-0.0781 z"
       id="path3745" />
    <path
       style="fill:#3e5915;fill-rule:nonzero"
       inkscape:connector-curvature="0"
       d="m 248.47577,253.88207 q 0,0.3125 -0.10937,0.5625 -0.0937,0.25 -0.28125,0.4375 -0.1875,0.1875 -0.42188,0.32812 -0.23437,0.125 -0.51562,0.21875 -0.26563,0.0937 -0.5625,0.125 -0.28125,0.0469 -0.5625,0.0469 -0.59375,0 -1.09375,-0.0625 -0.5,-0.0469 -0.98438,-0.17188 l 0,-0.9375 q 0.51563,0.15625 1.03125,0.23438 0.51563,0.0781 1.01563,0.0781 0.73437,0 1.07812,-0.20312 0.35938,-0.20313 0.35938,-0.57813 0,-0.15625 -0.0625,-0.28125 -0.0469,-0.125 -0.20313,-0.23437 -0.14062,-0.10938 -0.45312,-0.23438 -0.3125,-0.125 -0.84375,-0.28125 -0.39063,-0.125 -0.73438,-0.26562 -0.32812,-0.15625 -0.57812,-0.35938 -0.25,-0.20312 -0.39063,-0.46875 -0.14062,-0.28125 -0.14062,-0.65624 0,-0.25 0.10937,-0.54688 0.125,-0.29687 0.39063,-0.54687 0.28125,-0.25 0.75,-0.40625 0.46875,-0.17188 1.17187,-0.17188 0.34375,0 0.76563,0.0469 0.42187,0.0312 0.875,0.125 l 0,0.90625 q -0.46875,-0.125 -0.90625,-0.17188 -0.42188,-0.0625 -0.75,-0.0625 -0.375,0 -0.64063,0.0625 -0.25,0.0625 -0.42187,0.17188 -0.15625,0.0937 -0.23438,0.23437 -0.0625,0.125 -0.0625,0.28125 0,0.17188 0.0625,0.29688 0.0625,0.125 0.21875,0.24999 0.17188,0.10938 0.46875,0.23438 0.29688,0.125 0.78125,0.26562 0.53125,0.15625 0.875,0.32813 0.35938,0.15625 0.57813,0.35937 0.23437,0.20313 0.32812,0.46875 0.0937,0.25 0.0937,0.57813 z m 6.67579,1.60937 -0.92188,0 -0.0312,-0.95312 q -0.26562,0.3125 -0.5,0.51562 -0.23437,0.20313 -0.46875,0.32813 -0.23437,0.10937 -0.48437,0.15625 -0.23438,0.0625 -0.5,0.0625 -0.90625,0 -1.375,-0.53125 -0.45313,-0.54688 -0.45313,-1.625 l 0,-3.84375 1.01563,0 0,3.76562 q 0,1.35938 1.03125,1.35938 0.1875,0 0.35937,-0.0469 0.17188,-0.0625 0.375,-0.20312 0.20313,-0.14063 0.42188,-0.375 0.21875,-0.23438 0.5,-0.59375 l 0,-3.90625 1.03125,0 0,5.89062 z m 6.0664,0 0,-4.21874 q 0,-0.28125 -0.0312,-0.45313 -0.0156,-0.1875 -0.0625,-0.28125 -0.0469,-0.10937 -0.10937,-0.14062 -0.0625,-0.0469 -0.17188,-0.0469 -0.10937,0 -0.21875,0.0781 -0.0937,0.0625 -0.21875,0.21875 -0.10937,0.15625 -0.25,0.42187 -0.125,0.26563 -0.3125,0.64062 l 0,3.78125 -0.9375,0 0,-4.10937 q 0,-0.32812 -0.0156,-0.51562 -0.0156,-0.20313 -0.0625,-0.3125 -0.0469,-0.125 -0.125,-0.15625 -0.0625,-0.0469 -0.15625,-0.0469 -0.10937,0 -0.20312,0.0625 -0.0937,0.0625 -0.21875,0.21875 -0.10938,0.14063 -0.25,0.40625 -0.14063,0.26563 -0.32813,0.67187 l 0,3.78125 -0.9375,0 0,-5.89062 0.78125,0 0.0469,1.125 q 0.14063,-0.32812 0.28125,-0.5625 0.15625,-0.23437 0.29688,-0.375 0.15625,-0.15625 0.32812,-0.21875 0.17188,-0.0625 0.39063,-0.0625 0.46875,0 0.71875,0.3125 0.25,0.29688 0.25,0.95313 0.14062,-0.29688 0.26562,-0.53125 0.14063,-0.25 0.29688,-0.40625 0.15625,-0.15625 0.34375,-0.23438 0.1875,-0.0937 0.4375,-0.0937 1.10937,0 1.10937,1.70313 l 0,4.28124 -0.9375,0 z m 14.16406,-2.75 -2.3125,0 0,2.39063 -1,0 0,-2.39063 -2.29687,0 0,-0.89062 2.29687,0 0,-2.375 1,0 0,2.375 2.3125,0 0,0.89062 z m 6.30079,-1.03125 -5.03125,0 0,-0.85937 5.03125,0 0,0.85937 z m 0,2.03125 -5.03125,0 0,-0.85937 5.03125,0 0,0.85937 z m 12.10155,1.75 -0.0312,-0.79687 q -0.46875,0.48437 -0.96875,0.70312 -0.5,0.20313 -1.04688,0.20313 -0.5,0 -0.85937,-0.125 -0.35938,-0.14063 -0.59375,-0.35938 -0.21875,-0.23437 -0.32813,-0.53125 -0.10937,-0.3125 -0.10937,-0.67187 0,-0.875 0.65625,-1.375 0.65625,-0.5 1.95312,-0.5 l 1.21875,0 0,-0.51562 q 0,-0.53125 -0.34375,-0.84375 -0.32812,-0.3125 -1.01562,-0.3125 -0.5,0 -0.98438,0.10937 -0.48437,0.10938 -1,0.32813 l 0,-0.92188 q 0.20313,-0.0781 0.4375,-0.14062 0.23438,-0.0625 0.5,-0.10938 0.26563,-0.0625 0.54688,-0.0937 0.29687,-0.0312 0.57812,-0.0312 0.54688,0 0.96875,0.125 0.42188,0.10938 0.71875,0.34375 0.29688,0.23438 0.45313,0.60938 0.15625,0.35937 0.15625,0.84375 l 0,4.06249 -0.90625,0 z m -0.10936,-2.67187 -1.29689,0 q -0.375,0 -0.65625,0.0781 -0.28125,0.0625 -0.45311,0.20313 -0.17189,0.14062 -0.26564,0.34375 -0.0781,0.1875 -0.0781,0.4375 0,0.17187 0.0469,0.32812 0.0625,0.15625 0.17187,0.28125 0.125,0.10938 0.3125,0.1875 0.1875,0.0625 0.45313,0.0625 0.34375,0 0.79687,-0.20312 0.46875,-0.21875 0.96875,-0.6875 l 0,-1.03125 z m 6.89452,5.07812 -2.89063,0 0,-10.89062 2.89063,0 0,0.8125 -1.90625,0 0,9.25 1.90625,0 0,0.82812 z m 4.62891,-7.45312 -1.73437,0 0,-0.84375 2.76562,0 0,5.04687 1.75,0 0,0.84375 -4.70312,0 0,-0.84375 1.92187,0 0,-4.20312 z m 0.35938,-3.29687 q 0.17187,0 0.3125,0.0625 0.15625,0.0469 0.26562,0.17187 0.10938,0.10938 0.17188,0.25 0.0625,0.14063 0.0625,0.3125 0,0.15625 -0.0625,0.3125 -0.0625,0.14063 -0.17188,0.25 -0.10937,0.10938 -0.26562,0.17188 -0.14063,0.0625 -0.3125,0.0625 -0.17188,0 -0.3125,-0.0625 -0.14063,-0.0625 -0.25,-0.17188 -0.10938,-0.10937 -0.17188,-0.25 -0.0625,-0.15625 -0.0625,-0.3125 0,-0.17187 0.0625,-0.3125 0.0625,-0.14062 0.17188,-0.25 0.10937,-0.125 0.25,-0.17187 0.14062,-0.0625 0.3125,-0.0625 z m 7.8789,10.74999 -2.89063,0 0,-0.82812 1.90625,0 0,-9.25 -1.90625,0 0,-0.8125 2.89063,0 0,10.89062 z m 7.64454,-7.32812 -0.39063,0.70313 -1.64062,-1.09375 0.125,1.99999 -0.82813,0 0.125,-1.99999 -1.6875,1.09375 -0.35937,-0.6875 1.79687,-0.89063 -1.79687,-0.90625 0.39062,-0.6875 1.67188,1.10938 -0.14063,-2 0.82813,0 -0.14063,2 1.65625,-1.10938 0.40625,0.71875 -1.79687,0.89063 1.78125,0.85937 z m 6.94139,1.875 q 0,0.73437 -0.20311,1.3125 -0.20314,0.57812 -0.57814,0.98437 -0.375,0.39063 -0.90625,0.60938 -0.53125,0.21875 -1.20311,0.21875 -0.51564,0 -1.0625,-0.0937 -0.54689,-0.10938 -1.07814,-0.32813 l 0,-7.93749 1.01564,0 0,2.28125 -0.0469,1.09375 q 0.4375,-0.59375 0.9375,-0.82813 0.51563,-0.25 1.07813,-0.25 0.51562,0 0.89062,0.21875 0.375,0.20313 0.625,0.59375 0.26563,0.375 0.39063,0.92188 0.14062,0.53124 0.14062,1.20312 z m -1.04686,0.0469 q 0,-0.46875 -0.0781,-0.84375 -0.0625,-0.39062 -0.20311,-0.65624 -0.14064,-0.28125 -0.375,-0.4375 -0.23439,-0.15625 -0.54689,-0.15625 -0.1875,0 -0.39061,0.0625 -0.20314,0.0625 -0.42189,0.20312 -0.20311,0.14063 -0.4375,0.375 -0.23436,0.23438 -0.51561,0.59375 l 0,2.84375 q 0.29686,0.125 0.60936,0.20312 0.3125,0.0625 0.59375,0.0625 0.35939,0 0.67189,-0.10937 0.32811,-0.125 0.5625,-0.375 0.25,-0.26563 0.39061,-0.6875 0.14064,-0.4375 0.14064,-1.07813 z m 6.58202,5.40625 -2.89062,0 0,-10.89062 2.89062,0 0,0.8125 -1.90625,0 0,9.25 1.90625,0 0,0.82812 z m 4.62891,-7.45312 -1.73438,0 0,-0.84375 2.76563,0 0,5.04687 1.75,0 0,0.84375 -4.70313,0 0,-0.84375 1.92188,0 0,-4.20312 z m 0.35937,-3.29687 q 0.17188,0 0.3125,0.0625 0.15625,0.0469 0.26563,0.17187 0.10937,0.10938 0.17187,0.25 0.0625,0.14063 0.0625,0.3125 0,0.15625 -0.0625,0.3125 -0.0625,0.14063 -0.17187,0.25 -0.10938,0.10938 -0.26563,0.17188 -0.14062,0.0625 -0.3125,0.0625 -0.17187,0 -0.3125,-0.0625 -0.14062,-0.0625 -0.25,-0.17188 -0.10937,-0.10937 -0.17187,-0.25 -0.0625,-0.15625 -0.0625,-0.3125 0,-0.17187 0.0625,-0.3125 0.0625,-0.14062 0.17187,-0.25 0.10938,-0.125 0.25,-0.17187 0.14063,-0.0625 0.3125,-0.0625 z m 7.87891,10.74999 -2.89063,0 0,-0.82812 1.90625,0 0,-9.25 -1.90625,0 0,-0.8125 2.89063,0 0,10.89062 z m 3.48828,-1.20312 q 0.29687,0.0156 0.57812,-0.0625 0.28125,-0.0625 0.48438,-0.1875 0.21875,-0.125 0.34375,-0.3125 0.14062,-0.1875 0.14062,-0.42188 0,-0.25 -0.0937,-0.39062 -0.0781,-0.15625 -0.1875,-0.28125 -0.10937,-0.14063 -0.1875,-0.28125 -0.0781,-0.15625 -0.0781,-0.39063 0,-0.125 0.0469,-0.26562 0.0469,-0.14063 0.14063,-0.25 0.0937,-0.10938 0.23437,-0.17188 0.15625,-0.0781 0.35938,-0.0781 0.20312,0 0.39062,0.0937 0.20313,0.0781 0.34375,0.26562 0.14063,0.17188 0.21875,0.4375 0.0937,0.25 0.0937,0.60938 0,0.48437 -0.1875,0.9375 -0.17187,0.45312 -0.53125,0.79687 -0.34375,0.34375 -0.875,0.54688 -0.53125,0.20312 -1.23437,0.20312 l 0,-0.79687 z m 1.82812,-7.1875 q 0.1875,0 0.34375,0.0781 0.17188,0.0625 0.29688,0.1875 0.125,0.125 0.1875,0.29687 0.0781,0.15625 0.0781,0.32813 0,0.1875 -0.0781,0.35937 -0.0625,0.15625 -0.1875,0.28125 -0.125,0.125 -0.29688,0.20313 -0.15625,0.0625 -0.34375,0.0625 -0.1875,0 -0.34375,-0.0625 -0.15625,-0.0781 -0.28125,-0.20313 -0.125,-0.125 -0.20312,-0.28125 -0.0625,-0.17187 -0.0625,-0.35937 0,-0.17188 0.0625,-0.32813 0.0781,-0.17187 0.20312,-0.29687 0.125,-0.125 0.28125,-0.1875 0.15625,-0.0781 0.34375,-0.0781 z"
       id="path3747" />
    <path
       style="fill:#3e5915;fill-rule:nonzero"
       inkscape:connector-curvature="0"
       d="m 231.03046,264.00707 0.4375,0 q 1.125,0 1.67187,0.53125 0.5625,0.53125 0.5625,1.60937 l 0,1.34375 q 0,0.29688 0.0625,0.53125 0.0625,0.21875 0.21875,0.375 0.15625,0.15625 0.42188,0.23438 0.28125,0.0781 0.6875,0.0781 l 0.25,0 0,0.8125 -0.25,0 q -0.4375,0 -0.70313,0.0781 -0.26562,0.0625 -0.42187,0.21875 -0.15625,0.14062 -0.21875,0.35937 -0.0469,0.21875 -0.0469,0.53125 l 0,2.04688 q 0,0.48437 -0.125,0.875 -0.10938,0.40625 -0.375,0.6875 -0.26563,0.28125 -0.70313,0.42187 -0.42187,0.15625 -1.03125,0.15625 l -0.4375,0 0,-0.82812 0.34375,0 q 1.35938,0 1.35938,-1.3125 l 0,-2.03125 q 0,-1.42188 1.23437,-1.60938 -1.25,-0.125 -1.25,-1.60937 l 0,-1.34375 q 0,-1.34375 -1.34375,-1.34375 l -0.34375,0 0,-0.8125 z"
       id="path3749" />
  </g>
</svg>
