<?xml version="1.0" encoding="UTF-8" standalone="no"?>
<!-- Created with Inkscape (http://www.inkscape.org/) -->

<svg
   xmlns:dc="http://purl.org/dc/elements/1.1/"
   xmlns:cc="http://creativecommons.org/ns#"
   xmlns:rdf="http://www.w3.org/1999/02/22-rdf-syntax-ns#"
   xmlns:svg="http://www.w3.org/2000/svg"
   xmlns="http://www.w3.org/2000/svg"
   xmlns:sodipodi="http://sodipodi.sourceforge.net/DTD/sodipodi-0.dtd"
   xmlns:inkscape="http://www.inkscape.org/namespaces/inkscape"
   width="117.51478mm"
   height="79.285774mm"
   viewBox="0 0 416.39095 280.93385"
   id="svg4891"
   version="1.1"
   inkscape:version="0.91 r13725"
   sodipodi:docname="next_vol_query.svg">
  <defs
     id="defs4893" />
  <sodipodi:namedview
     id="base"
     pagecolor="#ffffff"
     bordercolor="#666666"
     borderopacity="1.0"
     inkscape:pageopacity="0.0"
     inkscape:pageshadow="2"
     inkscape:zoom="1.979899"
     inkscape:cx="191.41588"
     inkscape:cy="117.67778"
     inkscape:document-units="px"
     inkscape:current-layer="g5542"
     showgrid="false"
     fit-margin-top="0"
     fit-margin-left="0"
     fit-margin-right="0"
     fit-margin-bottom="0"
     inkscape:window-width="1600"
     inkscape:window-height="827"
     inkscape:window-x="0"
     inkscape:window-y="27"
     inkscape:window-maximized="1" />
  <metadata
     id="metadata4896">
    <rdf:RDF>
      <cc:Work
         rdf:about="">
        <dc:format>image/svg+xml</dc:format>
        <dc:type
           rdf:resource="http://purl.org/dc/dcmitype/StillImage" />
        <dc:title></dc:title>
      </cc:Work>
    </rdf:RDF>
  </metadata>
  <g
     inkscape:label="Layer 1"
     inkscape:groupmode="layer"
     id="layer1"
     transform="translate(28.19547,28.97975)">
    <g
       transform="translate(-220,-222.37369)"
       id="g5542">
      <path
         id="path5094"
         d="m 192.30453,298.10868 102.71182,0 0,102.71179 -102.71182,0 z"
         inkscape:connector-curvature="0"
         style="fill:#ffc000;fill-rule:nonzero;stroke:none;stroke-linecap:square;stroke-miterlimit:10" />
      <path
         id="path5096"
         d="m 192.30453,298.10868 102.71182,0 0,102.71179 -102.71182,0 z"
         inkscape:connector-curvature="0"
         style="fill:none;fill-rule:nonzero;stroke:#000000;stroke-width:1;stroke-linecap:butt;stroke-linejoin:round;stroke-miterlimit:10" />
      <path
         id="path5098"
         d="m 295.01635,244.185 102.71179,0 0,102.71179 -102.71179,0 z"
         inkscape:connector-curvature="0"
         style="fill:#c00000;fill-rule:nonzero;stroke:none;stroke-linecap:square;stroke-miterlimit:10" />
      <path
         id="path5100"
         d="m 295.01635,244.185 102.71179,0 0,102.71179 -102.71179,0 z"
         inkscape:connector-curvature="0"
         style="fill:none;fill-rule:nonzero;stroke:#000000;stroke-width:1;stroke-linecap:butt;stroke-linejoin:round;stroke-miterlimit:10" />
      <path
         id="path5102"
         d="m 295.01635,359.73572 102.71179,0 0,102.71176 -102.71179,0 z"
         inkscape:connector-curvature="0"
         style="fill:#008000;fill-rule:nonzero;stroke:none;stroke-linecap:square;stroke-miterlimit:10" />
      <path
         id="path5104"
         d="m 295.01635,359.73572 102.71179,0 0,102.71176 -102.71179,0 z"
         inkscape:connector-curvature="0"
         style="fill:none;fill-rule:nonzero;stroke:#000000;stroke-width:1;stroke-linecap:butt;stroke-linejoin:round;stroke-miterlimit:10" />
      <path
         id="path5106"
         d="m 399.01195,303.24425 102.71179,0 0,102.71178 -102.71179,0 z"
         inkscape:connector-curvature="0"
         style="fill:#0070c0;fill-rule:nonzero;stroke:none;stroke-linecap:square;stroke-miterlimit:10" />
      <path
         id="path5108"
         d="m 399.01195,303.24425 102.71179,0 0,102.71178 -102.71179,0 z"
         inkscape:connector-curvature="0"
         style="fill:none;fill-rule:nonzero;stroke:#000000;stroke-width:1;stroke-linecap:butt;stroke-linejoin:round;stroke-miterlimit:10" />
      <path
         id="path5110"
         d="m 501.72374,244.9143 102.71179,0 0,102.71179 -102.71179,0 z"
         inkscape:connector-curvature="0"
         style="fill:#c00000;fill-rule:nonzero;stroke:none;stroke-linecap:square;stroke-miterlimit:10" />
      <path
         id="path5112"
         d="m 502.22374,244.9143 102.71179,0 0,102.71179 -102.71179,0 z"
         inkscape:connector-curvature="0"
         style="fill:none;fill-rule:nonzero;stroke:#000000;stroke-width:1;stroke-linecap:butt;stroke-linejoin:round;stroke-miterlimit:10" />
      <path
         id="path5114"
         d="m 501.72374,371.11603 102.71179,0 0,102.71176 -102.71179,0 z"
         inkscape:connector-curvature="0"
         style="fill:#ffc000;fill-rule:nonzero;stroke:none;stroke-linecap:square;stroke-miterlimit:10" />
      <path
         id="path5116"
         d="m 502.22374,371.11603 102.71179,0 0,102.71176 -102.71179,0 z"
         inkscape:connector-curvature="0"
         style="fill:none;fill-rule:nonzero;stroke:#000000;stroke-width:1;stroke-linecap:butt;stroke-linejoin:round;stroke-miterlimit:10" />
      <path
         id="path5118"
         d="m 323.60216,311.89981 0,0 c 0,-3.54541 2.87408,-6.41953 6.41949,-6.41953 l 0,0 c 1.70258,0 3.33539,0.67637 4.53931,1.88025 1.20386,1.20389 1.88025,2.83673 1.88025,4.53928 l 0,0 c 0,3.54541 -2.87415,6.41949 -6.41956,6.41949 l 0,0 c -3.54541,0 -6.41949,-2.87408 -6.41949,-6.41949 z"
         inkscape:connector-curvature="0"
         style="fill:#000000;fill-opacity:1;fill-rule:nonzero;stroke:none;stroke-linecap:square;stroke-miterlimit:10" />
      <path
         id="path5120"
         d="m 323.60216,311.89981 0,0 c 0,-3.54541 2.87408,-6.41953 6.41949,-6.41953 l 0,0 c 1.70258,0 3.33539,0.67637 4.53931,1.88025 1.20386,1.20389 1.88025,2.83673 1.88025,4.53928 l 0,0 c 0,3.54541 -2.87415,6.41949 -6.41956,6.41949 l 0,0 c -3.54541,0 -6.41949,-2.87408 -6.41949,-6.41949 z"
         inkscape:connector-curvature="0"
         style="fill:none;fill-rule:nonzero;stroke:#000000;stroke-width:1;stroke-linecap:butt;stroke-linejoin:round;stroke-miterlimit:10" />
      <path
         id="path5122"
         d="m 501.72374,384.34122 31.37372,0 0,42.78238 -31.37372,0 z"
         inkscape:connector-curvature="0"
         style="fill:#000000;fill-opacity:0;fill-rule:nonzero;stroke:none;stroke-linecap:square;stroke-miterlimit:10" />
      <path
         id="path5124"
         d="m 338.42061,323.18692 5.45313,-0.9375 q 1.48437,2.32812 2.09375,5.125 1.53125,-2.26563 2.3125,-3.17188 1.04687,-1.21875 1.71875,-1.57812 0.6875,-0.375 1.45312,-0.375 0.85938,0 1.3125,0.46875 0.46875,0.46875 0.46875,1.26562 0,0.75 -0.46875,1.23438 -0.45312,0.46875 -1.14062,0.46875 -0.5,0 -1.15625,-0.17188 -0.64063,-0.1875 -0.89063,-0.1875 -0.65625,0 -1.25,0.46875 -0.8125,0.64063 -2,2.73438 1.32813,4.6875 2.125,5.71875 0.46875,0.60937 0.95313,0.60937 0.40625,0 0.70312,-0.20312 0.45313,-0.32813 1.39063,-1.64063 l 0.5625,0.32813 q -1.375,2.21875 -2.6875,3.125 -1,0.70312 -1.96875,0.70312 -1,0 -1.67188,-0.4375 -0.65625,-0.45312 -1.17187,-1.45312 -0.51563,-1.01563 -1.21875,-3.23438 -1.82813,2.32813 -2.875,3.40625 -1.03125,1.0625 -1.71875,1.39063 -0.6875,0.32812 -1.46875,0.32812 -0.8125,0 -1.28125,-0.46875 -0.48438,-0.46875 -0.48438,-1.21875 0,-0.79687 0.51563,-1.3125 0.51562,-0.51562 1.3125,-0.51562 0.42187,0 0.95312,0.25 0.78125,0.375 1.125,0.375 0.45313,0 0.8125,-0.1875 0.46875,-0.23438 1.1875,-1.01563 0.4375,-0.48437 1.60938,-2.0625 -1.5,-5.5625 -2.34375,-6.65625 -0.53125,-0.70312 -1.34375,-0.70312 -0.42188,0 -1.03125,0.125 l 0.10937,-0.59375 z"
         inkscape:connector-curvature="0"
         style="fill:#000000;fill-opacity:1;fill-rule:nonzero;stroke:none;stroke-linecap:square;stroke-miterlimit:10" />
      <path
         id="path5126"
         d="m 501.72374,431.04549 36.12732,0 0,42.78235 -36.12732,0 z"
         inkscape:connector-curvature="0"
         style="fill:#000000;fill-opacity:0;fill-rule:nonzero;stroke:none;stroke-linecap:square;stroke-miterlimit:10" />
      <path
         id="path5168"
         d="m 363.21099,193.39394 210.60352,0 0,48.46877 -210.60352,0 z"
         inkscape:connector-curvature="0"
         style="fill:#000000;fill-opacity:0;fill-rule:nonzero;stroke:none;stroke-linecap:square;stroke-miterlimit:10" />
      <g
         id="g6625"
         transform="translate(-150.51273,-100.51018)">
        <path
           inkscape:connector-curvature="0"
           style="fill:#4948d5;fill-opacity:1;fill-rule:evenodd;stroke:#4948d5;stroke-width:2.23134089;stroke-linecap:butt;stroke-linejoin:round;stroke-miterlimit:10;stroke-opacity:1"
           d="m 476.10989,414.68545 -54.97906,32.06801"
           id="path5062" />
        <path
           inkscape:connector-curvature="0"
           style="fill:#4948d5;fill-opacity:1;fill-rule:evenodd;stroke:#4948d5;stroke-width:2.23134089;stroke-linecap:butt;stroke-miterlimit:10;stroke-opacity:1"
           d="m 421.13083,446.75348 3.40213,0.93082 -7.1766,1.27073 4.69224,-5.6521 z"
           id="path5064" />
      </g>
      <path
         id="path5072"
         d="m 272.55977,331.75802 0.5249,-2.15757 3.45817,0 q -1.9658,-1.62045 -1.9658,-4.2059 0,-2.80393 2.19222,-5.00702 2.20252,-2.20309 5.85625,-2.20309 2.748,0 4.45649,1.52942 1.7188,1.52031 1.7188,4.08755 0,3.34105 -3.60226,5.79904 l 3.13911,0 -0.51461,2.15757 -6.98837,0 0.45285,-1.88445 q 2.2334,-0.45519 3.31408,-2.43069 1.09097,-1.9846 1.09097,-3.78713 0,-1.40196 -0.90572,-2.28502 -0.89542,-0.89216 -2.47011,-0.89216 -2.27458,0 -3.58167,1.86625 -1.30711,1.86626 -1.30711,4.12397 0,2.38516 2.30544,3.40478 l -0.46314,1.88445 -6.71049,0 z"
         style="fill:#4948d5;fill-opacity:1;fill-rule:nonzero;stroke:#4948d5;stroke-width:0.61950034;stroke-linecap:square;stroke-miterlimit:10;stroke-opacity:1"
         inkscape:connector-curvature="0" />
      <text
         xml:space="preserve"
         style="font-style:italic;font-variant:normal;font-weight:normal;font-stretch:normal;font-size:14.375px;line-height:125%;font-family:'Times New Roman';-inkscape-font-specification:'Times New Roman, Italic';letter-spacing:0px;word-spacing:0px;fill:#000000;fill-opacity:1;stroke:none;stroke-width:1px;stroke-linecap:butt;stroke-linejoin:miter;stroke-opacity:1"
         x="301.76965"
         y="272.92328"
         id="text4294"
         sodipodi:linespacing="125%"><tspan
           sodipodi:role="line"
           id="tspan4296"
           x="301.76965"
           y="272.92328"
           style="font-style:italic;font-variant:normal;font-weight:normal;font-stretch:normal;font-size:30px;font-family:'Times New Roman';-inkscape-font-specification:'Times New Roman,  Italic'">A</tspan></text>
      <text
         xml:space="preserve"
         style="font-style:italic;font-variant:normal;font-weight:normal;font-stretch:normal;font-size:14.375px;line-height:125%;font-family:'Times New Roman';-inkscape-font-specification:'Times New Roman, Italic';letter-spacing:0px;word-spacing:0px;fill:#000000;fill-opacity:1;stroke:none;stroke-width:1px;stroke-linecap:butt;stroke-linejoin:miter;stroke-opacity:1"
         x="199.48611"
         y="322.60956"
         id="text4294-2"
         sodipodi:linespacing="125%"><tspan
           sodipodi:role="line"
           id="tspan4296-9"
           x="199.48611"
           y="322.60956"
           style="font-style:italic;font-variant:normal;font-weight:normal;font-stretch:normal;font-size:30px;font-family:'Times New Roman';-inkscape-font-specification:'Times New Roman,  Italic'">B</tspan></text>
    </g>
  </g>
</svg>
