<?xml version="1.0" encoding="UTF-8" standalone="no"?>
<!-- Created with Inkscape (http://www.inkscape.org/) -->

<svg
   xmlns:dc="http://purl.org/dc/elements/1.1/"
   xmlns:cc="http://creativecommons.org/ns#"
   xmlns:rdf="http://www.w3.org/1999/02/22-rdf-syntax-ns#"
   xmlns:svg="http://www.w3.org/2000/svg"
   xmlns="http://www.w3.org/2000/svg"
   xmlns:sodipodi="http://sodipodi.sourceforge.net/DTD/sodipodi-0.dtd"
   xmlns:inkscape="http://www.inkscape.org/namespaces/inkscape"
   width="117.51478mm"
   height="79.285774mm"
   viewBox="0 0 416.39095 280.93385"
   id="svg4891"
   version="1.1"
   inkscape:version="0.91 r13725"
   sodipodi:docname="plc_query.svg">
  <defs
     id="defs4893" />
  <sodipodi:namedview
     id="base"
     pagecolor="#ffffff"
     bordercolor="#666666"
     borderopacity="1.0"
     inkscape:pageopacity="0.0"
     inkscape:pageshadow="2"
     inkscape:zoom="1.979899"
     inkscape:cx="134.96761"
     inkscape:cy="-18.139786"
     inkscape:document-units="px"
     inkscape:current-layer="g5542"
     showgrid="false"
     fit-margin-top="0"
     fit-margin-left="0"
     fit-margin-right="0"
     fit-margin-bottom="0"
     inkscape:window-width="1680"
     inkscape:window-height="1000"
     inkscape:window-x="1050"
     inkscape:window-y="27"
     inkscape:window-maximized="1" />
  <metadata
     id="metadata4896">
    <rdf:RDF>
      <cc:Work
         rdf:about="">
        <dc:format>image/svg+xml</dc:format>
        <dc:type
           rdf:resource="http://purl.org/dc/dcmitype/StillImage" />
        <dc:title></dc:title>
      </cc:Work>
    </rdf:RDF>
  </metadata>
  <g
     inkscape:label="Layer 1"
     inkscape:groupmode="layer"
     id="layer1"
     transform="translate(28.19547,28.97975)">
    <g
       transform="translate(-220,-222.37369)"
       id="g5542">
      <path
         id="path5094"
         d="m 192.30453,298.10868 102.71182,0 0,102.71179 -102.71182,0 z"
         inkscape:connector-curvature="0"
         style="fill:#ffc000;fill-rule:nonzero;stroke:none;stroke-linecap:square;stroke-miterlimit:10" />
      <path
         id="path5096"
         d="m 192.30453,298.10868 102.71182,0 0,102.71179 -102.71182,0 z"
         inkscape:connector-curvature="0"
         style="fill:none;fill-rule:nonzero;stroke:#000000;stroke-width:1;stroke-linecap:butt;stroke-linejoin:round;stroke-miterlimit:10" />
      <path
         id="path5098"
         d="m 295.01635,244.185 102.71179,0 0,102.71179 -102.71179,0 z"
         inkscape:connector-curvature="0"
         style="fill:#c00000;fill-rule:nonzero;stroke:none;stroke-linecap:square;stroke-miterlimit:10" />
      <path
         id="path5100"
         d="m 295.01635,244.185 102.71179,0 0,102.71179 -102.71179,0 z"
         inkscape:connector-curvature="0"
         style="fill:none;fill-rule:nonzero;stroke:#000000;stroke-width:1;stroke-linecap:butt;stroke-linejoin:round;stroke-miterlimit:10" />
      <path
         id="path5102"
         d="m 295.01635,359.73572 102.71179,0 0,102.71176 -102.71179,0 z"
         inkscape:connector-curvature="0"
         style="fill:#008000;fill-rule:nonzero;stroke:none;stroke-linecap:square;stroke-miterlimit:10" />
      <path
         id="path5104"
         d="m 295.01635,359.73572 102.71179,0 0,102.71176 -102.71179,0 z"
         inkscape:connector-curvature="0"
         style="fill:none;fill-rule:nonzero;stroke:#000000;stroke-width:1;stroke-linecap:butt;stroke-linejoin:round;stroke-miterlimit:10" />
      <path
         id="path5106"
         d="m 399.01195,303.24425 102.71179,0 0,102.71178 -102.71179,0 z"
         inkscape:connector-curvature="0"
         style="fill:#0070c0;fill-rule:nonzero;stroke:none;stroke-linecap:square;stroke-miterlimit:10" />
      <path
         id="path5108"
         d="m 399.01195,303.24425 102.71179,0 0,102.71178 -102.71179,0 z"
         inkscape:connector-curvature="0"
         style="fill:none;fill-rule:nonzero;stroke:#000000;stroke-width:1;stroke-linecap:butt;stroke-linejoin:round;stroke-miterlimit:10" />
      <path
         id="path5110"
         d="m 503.87222,244.9143 102.71179,0 0,102.71179 -102.71179,0 z"
         inkscape:connector-curvature="0"
         style="fill:#c00000;fill-rule:nonzero;stroke:none;stroke-linecap:square;stroke-miterlimit:10" />
      <path
         id="path5112"
         d="m 503.87222,244.9143 102.71179,0 0,102.71179 -102.71179,0 z"
         inkscape:connector-curvature="0"
         style="fill:none;fill-rule:nonzero;stroke:#000000;stroke-width:1;stroke-linecap:butt;stroke-linejoin:round;stroke-miterlimit:10" />
      <path
         id="path5114"
         d="m 504.98369,371.11603 102.71179,0 0,102.71176 -102.71179,0 z"
         inkscape:connector-curvature="0"
         style="fill:#ffc000;fill-rule:nonzero;stroke:none;stroke-linecap:square;stroke-miterlimit:10" />
      <path
         id="path5116"
         d="m 504.98369,371.11603 102.71179,0 0,102.71176 -102.71179,0 z"
         inkscape:connector-curvature="0"
         style="fill:none;fill-rule:nonzero;stroke:#000000;stroke-width:1;stroke-linecap:butt;stroke-linejoin:round;stroke-miterlimit:10" />
      <path
         id="path5118"
         d="m 516.54129,394.22724 0,0 c 0,-3.54541 2.87408,-6.41953 6.41949,-6.41953 l 0,0 c 1.70258,0 3.33539,0.67637 4.53931,1.88025 1.20386,1.20389 1.88025,2.83673 1.88025,4.53928 l 0,0 c 0,3.54541 -2.87415,6.41949 -6.41956,6.41949 l 0,0 c -3.54541,0 -6.41949,-2.87408 -6.41949,-6.41949 z"
         inkscape:connector-curvature="0"
         style="fill:#000000;fill-opacity:1;fill-rule:nonzero;stroke:none;stroke-linecap:square;stroke-miterlimit:10" />
      <path
         id="path5120"
         d="m 516.54129,394.22724 0,0 c 0,-3.54541 2.87408,-6.41953 6.41949,-6.41953 l 0,0 c 1.70258,0 3.33539,0.67637 4.53931,1.88025 1.20386,1.20389 1.88025,2.83673 1.88025,4.53928 l 0,0 c 0,3.54541 -2.87415,6.41949 -6.41956,6.41949 l 0,0 c -3.54541,0 -6.41949,-2.87408 -6.41949,-6.41949 z"
         inkscape:connector-curvature="0"
         style="fill:none;fill-rule:nonzero;stroke:#000000;stroke-width:1;stroke-linecap:butt;stroke-linejoin:round;stroke-miterlimit:10" />
      <path
         id="path5122"
         d="m 520.90659,384.34122 31.37372,0 0,42.78238 -31.37372,0 z"
         inkscape:connector-curvature="0"
         style="fill:#000000;fill-opacity:0;fill-rule:nonzero;stroke:none;stroke-linecap:square;stroke-miterlimit:10" />
      <path
         id="path5124"
         d="m 531.35974,405.51435 5.45313,-0.9375 q 1.48437,2.32812 2.09375,5.125 1.53125,-2.26563 2.3125,-3.17188 1.04687,-1.21875 1.71875,-1.57812 0.6875,-0.375 1.45312,-0.375 0.85938,0 1.3125,0.46875 0.46875,0.46875 0.46875,1.26562 0,0.75 -0.46875,1.23438 -0.45312,0.46875 -1.14062,0.46875 -0.5,0 -1.15625,-0.17188 -0.64063,-0.1875 -0.89063,-0.1875 -0.65625,0 -1.25,0.46875 -0.8125,0.64063 -2,2.73438 1.32813,4.6875 2.125,5.71875 0.46875,0.60937 0.95313,0.60937 0.40625,0 0.70312,-0.20312 0.45313,-0.32813 1.39063,-1.64063 l 0.5625,0.32813 q -1.375,2.21875 -2.6875,3.125 -1,0.70312 -1.96875,0.70312 -1,0 -1.67188,-0.4375 -0.65625,-0.45312 -1.17187,-1.45312 -0.51563,-1.01563 -1.21875,-3.23438 -1.82813,2.32813 -2.875,3.40625 -1.03125,1.0625 -1.71875,1.39063 -0.6875,0.32812 -1.46875,0.32812 -0.8125,0 -1.28125,-0.46875 -0.48438,-0.46875 -0.48438,-1.21875 0,-0.79687 0.51563,-1.3125 0.51562,-0.51562 1.3125,-0.51562 0.42187,0 0.95312,0.25 0.78125,0.375 1.125,0.375 0.45313,0 0.8125,-0.1875 0.46875,-0.23438 1.1875,-1.01563 0.4375,-0.48437 1.60938,-2.0625 -1.5,-5.5625 -2.34375,-6.65625 -0.53125,-0.70312 -1.34375,-0.70312 -0.42188,0 -1.03125,0.125 l 0.10937,-0.59375 z"
         inkscape:connector-curvature="0"
         style="fill:#000000;fill-opacity:1;fill-rule:nonzero;stroke:none;stroke-linecap:square;stroke-miterlimit:10" />
      <path
         id="path5126"
         d="m 571.74633,431.04549 36.12732,0 0,42.78235 -36.12732,0 z"
         inkscape:connector-curvature="0"
         style="fill:#000000;fill-opacity:0;fill-rule:nonzero;stroke:none;stroke-linecap:square;stroke-miterlimit:10" />
      <path
         id="path5128"
         d="m 585.74633,466.24985 0.6875,-17.71875 q 0.0469,-1.54688 0.0469,-1.625 0,-0.85938 -0.42187,-1.26563 -0.40625,-0.40625 -1.51563,-0.48437 l 0.1875,-0.57813 8.90625,0 -0.17187,0.57813 q -1.14063,0 -1.73438,0.6875 -0.57812,0.6875 -0.67187,2.84375 l -0.5,11.04687 8.26562,-9.59375 q 1.60938,-1.85937 1.98438,-2.57812 0.375,-0.71875 0.375,-1.25 0,-0.39063 -0.34375,-0.6875 -0.34375,-0.3125 -1.3125,-0.46875 l 0.21875,-0.57813 5.84375,0 0,0.57813 q -0.75,0.1875 -1.21875,0.54687 -0.6875,0.51563 -2.125,2.1875 l -15.8125,18.35938 -0.6875,0 z"
         inkscape:connector-curvature="0"
         style="fill:#000000;fill-rule:nonzero;stroke:none;stroke-linecap:square;stroke-miterlimit:10" />
      <path
         id="path5168"
         d="m 363.21099,193.39394 210.60352,0 0,48.46877 -210.60352,0 z"
         inkscape:connector-curvature="0"
         style="fill:#000000;fill-opacity:0;fill-rule:nonzero;stroke:none;stroke-linecap:square;stroke-miterlimit:10" />
    </g>
  </g>
</svg>
