<?xml version="1.0" encoding="UTF-8" standalone="no"?>
<svg
   xmlns:dc="http://purl.org/dc/elements/1.1/"
   xmlns:cc="http://creativecommons.org/ns#"
   xmlns:rdf="http://www.w3.org/1999/02/22-rdf-syntax-ns#"
   xmlns:svg="http://www.w3.org/2000/svg"
   xmlns="http://www.w3.org/2000/svg"
   xmlns:sodipodi="http://sodipodi.sourceforge.net/DTD/sodipodi-0.dtd"
   xmlns:inkscape="http://www.inkscape.org/namespaces/inkscape"
   version="1.1"
   viewBox="0 0 272.28345 142.26772"
   stroke-miterlimit="10"
   id="svg3088"
   inkscape:version="0.48.4 r9939"
   width="100%"
   height="100%"
   sodipodi:docname="prefetch-loop.svg"
   style="fill:none;stroke:none">
  <metadata
     id="metadata3119">
    <rdf:RDF>
      <cc:Work
         rdf:about="">
        <dc:format>image/svg+xml</dc:format>
        <dc:type
           rdf:resource="http://purl.org/dc/dcmitype/StillImage" />
      </cc:Work>
    </rdf:RDF>
  </metadata>
  <defs
     id="defs3117" />
  <sodipodi:namedview
     pagecolor="#ffffff"
     bordercolor="#666666"
     borderopacity="1"
     objecttolerance="10"
     gridtolerance="10"
     guidetolerance="10"
     inkscape:pageopacity="0"
     inkscape:pageshadow="2"
     inkscape:window-width="1920"
     inkscape:window-height="1014"
     id="namedview3115"
     showgrid="false"
     fit-margin-top="0"
     fit-margin-left="0"
     fit-margin-right="0"
     fit-margin-bottom="0"
     inkscape:zoom="1.5092593"
     inkscape:cx="441.7559"
     inkscape:cy="-67.307082"
     inkscape:window-x="1366"
     inkscape:window-y="27"
     inkscape:window-maximized="1"
     inkscape:current-layer="g3093" />
  <clipPath
     id="g3e80e11789_0_0.0">
    <path
       d="M 0,0 960,0 960,540 0,540 0,0 z"
       clip-rule="nonzero"
       id="path3091"
       inkscape:connector-curvature="0" />
  </clipPath>
  <g
     clip-path="url(#g3e80e11789_0_0.0)"
     id="g3093"
     transform="translate(-38.244095,-60.425198)">
    <path
       d="m 38.244095,60.425198 272.283455,0 0,142.267722 -272.283455,0 z"
       id="path3097"
       inkscape:connector-curvature="0"
       style="fill:#000000;fill-opacity:0;fill-rule:evenodd" />
    <path
       d="m 53.400345,73.8827 q -0.25,-0.09375 -0.609375,-0.140625 -0.359375,-0.0625 -0.71875,-0.0625 -0.25,0 -0.46875,0.07813 -0.21875,0.0625 -0.375,0.21875 -0.15625,0.140625 -0.25,0.375 -0.09375,0.21875 -0.09375,0.53125 l 0,0.96875 2.34375,0 0,1.109375 -2.34375,0 0,3.984375 -1.4375,0 0,-3.984375 -1.734375,0 0,-1.109375 1.734375,0 0,-0.90625 q 0,-0.640625 0.171875,-1.09375 0.1875,-0.453125 0.515625,-0.734375 0.34375,-0.296875 0.8125,-0.421875 0.484375,-0.140625 1.078125,-0.140625 0.375,0 0.71875,0.04687 0.359375,0.04687 0.65625,0.125 l 0,1.15625 z m -6.15625,1.109375 0,0 z m 12.769531,2.921875 q 0,0.703125 -0.203125,1.296875 -0.1875,0.578125 -0.5625,1 -0.375,0.40625 -0.921875,0.640625 -0.546875,0.234375 -1.25,0.234375 -0.65625,0 -1.1875,-0.1875 -0.515625,-0.203125 -0.875,-0.578125 -0.359375,-0.390625 -0.5625,-0.96875 -0.1875,-0.578125 -0.1875,-1.34375 0,-0.71875 0.203125,-1.296875 0.203125,-0.578125 0.578125,-0.984375 0.375,-0.40625 0.921875,-0.625 0.546875,-0.234375 1.234375,-0.234375 0.671875,0 1.1875,0.203125 0.515625,0.1875 0.875,0.578125 0.375,0.375 0.5625,0.953125 0.1875,0.5625 0.1875,1.3125 z m -1.484375,0.04687 q 0,-0.9375 -0.359375,-1.390625 -0.34375,-0.46875 -1.015625,-0.46875 -0.375,0 -0.640625,0.15625 -0.265625,0.140625 -0.4375,0.390625 -0.171875,0.25 -0.25,0.59375 -0.07813,0.34375 -0.07813,0.71875 0,0.9375 0.375,1.40625 0.375,0.46875 1.03125,0.46875 0.359375,0 0.625,-0.140625 0.265625,-0.140625 0.421875,-0.390625 0.171875,-0.265625 0.25,-0.609375 0.07813,-0.34375 0.07813,-0.734375 z m 6.550781,-0.65625 q 0.01563,-0.328125 -0.03125,-0.5625 -0.03125,-0.234375 -0.140625,-0.390625 -0.09375,-0.15625 -0.234375,-0.21875 -0.140625,-0.07813 -0.3125,-0.07813 -0.328125,0 -0.671875,0.265625 -0.328125,0.265625 -0.734375,0.859375 l 0,3.765625 -1.453125,0 0,-5.953125 1.28125,0 0.0625,0.859375 q 0.140625,-0.21875 0.328125,-0.390625 0.1875,-0.1875 0.40625,-0.3125 0.234375,-0.140625 0.5,-0.203125 0.28125,-0.07813 0.609375,-0.07813 0.453125,0 0.796875,0.15625 0.34375,0.15625 0.578125,0.46875 0.25,0.296875 0.359375,0.75 0.109375,0.453125 0.09375,1.0625 l -1.4375,0 z"
       id="path3099"
       inkscape:connector-curvature="0"
       style="fill:#005599;fill-rule:nonzero" />
    <path
       d="m 71.49019,83.41395 q -2.6875,-2.515625 -2.6875,-5.546875 0,-0.703125 0.140625,-1.40625 0.140625,-0.703125 0.453125,-1.40625 0.328125,-0.71875 0.84375,-1.421875 0.53125,-0.71875 1.28125,-1.40625 l 0.59375,0.59375 q -2.28125,2.25 -2.28125,4.984375 0,1.359375 0.578125,2.609375 0.578125,1.25 1.703125,2.359375 l -0.625,0.640625 z"
       id="path3101"
       inkscape:connector-curvature="0"
       style="fill:#3e5915;fill-rule:nonzero" />
    <path
       d="m 84.544876,73.36707 q 0,0.1875 -0.07813,0.359375 -0.0625,0.171875 -0.1875,0.296875 -0.125,0.125 -0.296875,0.203125 -0.15625,0.0625 -0.359375,0.0625 -0.203125,0 -0.375,-0.0625 -0.171875,-0.07813 -0.296875,-0.203125 -0.125,-0.125 -0.203125,-0.296875 -0.0625,-0.171875 -0.0625,-0.359375 0,-0.203125 0.0625,-0.359375 0.07813,-0.171875 0.203125,-0.296875 0.125,-0.140625 0.296875,-0.203125 0.171875,-0.07813 0.375,-0.07813 0.203125,0 0.359375,0.07813 0.171875,0.0625 0.296875,0.203125 0.125,0.125 0.1875,0.296875 0.07813,0.15625 0.07813,0.359375 z m -1.578125,2.734375 -1.671875,0 0,-1.109375 3.140625,0 0,4.84375 1.71875,0 0,1.109375 -5.078125,0 0,-1.109375 1.890625,0 0,-3.734375 z m 8.222656,4.84375 0,-3.875 q 0,-0.984375 -0.71875,-0.984375 -0.359375,0 -0.703125,0.296875 -0.328125,0.296875 -0.6875,0.796875 l 0,3.765625 -1.4375,0 0,-5.953125 1.234375,0 0.04687,0.875 q 0.171875,-0.21875 0.359375,-0.40625 0.203125,-0.1875 0.4375,-0.3125 0.234375,-0.140625 0.484375,-0.203125 0.265625,-0.07813 0.59375,-0.07813 0.46875,0 0.796875,0.15625 0.34375,0.140625 0.5625,0.421875 0.234375,0.265625 0.34375,0.65625 0.125,0.375 0.125,0.84375 l 0,4 -1.4375,0 z m 7.957031,-0.0625 q -0.375,0.09375 -0.78125,0.140625 -0.390625,0.0625 -0.734375,0.0625 -0.59375,0 -1.015625,-0.125 -0.421875,-0.125 -0.703125,-0.375 -0.28125,-0.25 -0.40625,-0.640625 -0.125,-0.390625 -0.125,-0.9375 l 0,-2.90625 -1.609375,0 0,-1.109375 1.609375,0 0,-1.53125 1.453125,-0.375 0,1.90625 2.3125,0 0,1.109375 -2.3125,0 0,2.796875 q 0,0.515625 0.234375,0.78125 0.234375,0.25 0.796875,0.25 0.34375,0 0.671875,-0.04687 0.34375,-0.0625 0.609375,-0.140625 l 0,1.140625 z"
       id="path3103"
       inkscape:connector-curvature="0"
       style="fill:#005599;fill-rule:nonzero" />
    <path
       d="m 109.5605,75.89832 -1.73437,0 0,-0.84375 2.76562,0 0,5.046875 1.75,0 0,0.84375 -4.70312,0 0,-0.84375 1.92187,0 0,-4.203125 z m 0.35938,-3.296875 q 0.17187,0 0.3125,0.0625 0.15625,0.04687 0.26562,0.171875 0.10938,0.109375 0.17188,0.25 0.0625,0.140625 0.0625,0.3125 0,0.15625 -0.0625,0.3125 -0.0625,0.140625 -0.17188,0.25 -0.10937,0.109375 -0.26562,0.171875 -0.14063,0.0625 -0.3125,0.0625 -0.17188,0 -0.3125,-0.0625 -0.14063,-0.0625 -0.25,-0.171875 -0.10938,-0.109375 -0.17188,-0.25 -0.0625,-0.15625 -0.0625,-0.3125 0,-0.171875 0.0625,-0.3125 0.0625,-0.140625 0.17188,-0.25 0.10937,-0.125 0.25,-0.171875 0.14062,-0.0625 0.3125,-0.0625 z m 15.71093,4.5625 -5.03125,0 0,-0.859375 5.03125,0 0,0.859375 z m 0,2.03125 -5.03125,0 0,-0.859375 5.03125,0 0,0.859375 z m 13.46094,-2.078125 q 0,0.875 -0.17188,1.609375 -0.17187,0.71875 -0.53125,1.234375 -0.35937,0.515625 -0.89062,0.8125 -0.53125,0.28125 -1.25,0.28125 -0.60938,0 -1.10938,-0.234375 -0.5,-0.234375 -0.85937,-0.703125 -0.35938,-0.484375 -0.5625,-1.234375 -0.1875,-0.75 -0.1875,-1.765625 0,-0.875 0.17187,-1.59375 0.1875,-0.734375 0.53125,-1.25 0.35938,-0.53125 0.89063,-0.8125 0.54687,-0.28125 1.25,-0.28125 0.60937,0 1.10937,0.234375 0.51563,0.234375 0.875,0.71875 0.35938,0.484375 0.54688,1.234375 0.1875,0.734375 0.1875,1.75 z m -1.03125,0.03125 q 0,-0.1875 -0.0156,-0.390625 -0.0156,-0.203125 -0.0312,-0.390625 l -3.23437,2.421875 q 0.0937,0.296875 0.21875,0.5625 0.14062,0.25 0.32812,0.4375 0.1875,0.1875 0.42188,0.296875 0.25,0.09375 0.5625,0.09375 0.40625,0 0.71875,-0.1875 0.32812,-0.203125 0.5625,-0.578125 0.23437,-0.390625 0.34375,-0.953125 0.125,-0.5625 0.125,-1.3125 z m -3.5,-0.0625 q 0,0.171875 0,0.359375 0,0.1875 0.0312,0.359375 l 3.23437,-2.40625 q -0.0937,-0.296875 -0.23437,-0.53125 -0.125,-0.25 -0.3125,-0.421875 -0.1875,-0.1875 -0.4375,-0.28125 -0.23438,-0.109375 -0.53125,-0.109375 -0.39063,0 -0.71875,0.203125 -0.32813,0.1875 -0.5625,0.578125 -0.21875,0.375 -0.34375,0.9375 -0.125,0.5625 -0.125,1.3125 z m 6.51953,5.0625 q 0.29688,0.01563 0.57813,-0.0625 0.28125,-0.0625 0.48437,-0.1875 0.21875,-0.125 0.34375,-0.3125 0.14063,-0.1875 0.14063,-0.421875 0,-0.25 -0.0937,-0.390625 -0.0781,-0.15625 -0.1875,-0.28125 -0.10938,-0.140625 -0.1875,-0.28125 -0.0781,-0.15625 -0.0781,-0.390625 0,-0.125 0.0469,-0.265625 0.0469,-0.140625 0.14062,-0.25 0.0937,-0.109375 0.23438,-0.171875 0.15625,-0.07813 0.35937,-0.07813 0.20313,0 0.39063,0.09375 0.20312,0.07813 0.34375,0.265625 0.14062,0.171875 0.21875,0.4375 0.0937,0.25 0.0937,0.609375 0,0.484375 -0.1875,0.9375 -0.17188,0.453125 -0.53125,0.796875 -0.34375,0.34375 -0.875,0.546875 -0.53125,0.203125 -1.23438,0.203125 l 0,-0.796875 z m 1.82813,-7.1875 q 0.1875,0 0.34375,0.07813 0.17187,0.0625 0.29687,0.1875 0.125,0.125 0.1875,0.296875 0.0781,0.15625 0.0781,0.328125 0,0.1875 -0.0781,0.359375 -0.0625,0.15625 -0.1875,0.28125 -0.125,0.125 -0.29687,0.203125 -0.15625,0.0625 -0.34375,0.0625 -0.1875,0 -0.34375,-0.0625 -0.15625,-0.07813 -0.28125,-0.203125 -0.125,-0.125 -0.20313,-0.28125 -0.0625,-0.171875 -0.0625,-0.359375 0,-0.171875 0.0625,-0.328125 0.0781,-0.171875 0.20313,-0.296875 0.125,-0.125 0.28125,-0.1875 0.15625,-0.07813 0.34375,-0.07813 z m 12.83593,0.9375 -1.73437,0 0,-0.84375 2.76562,0 0,5.046875 1.75,0 0,0.84375 -4.70312,0 0,-0.84375 1.92187,0 0,-4.203125 z m 0.35938,-3.296875 q 0.17187,0 0.3125,0.0625 0.15625,0.04687 0.26562,0.171875 0.10938,0.109375 0.17188,0.25 0.0625,0.140625 0.0625,0.3125 0,0.15625 -0.0625,0.3125 -0.0625,0.140625 -0.17188,0.25 -0.10937,0.109375 -0.26562,0.171875 -0.14063,0.0625 -0.3125,0.0625 -0.17188,0 -0.3125,-0.0625 -0.14063,-0.0625 -0.25,-0.171875 -0.10938,-0.109375 -0.17188,-0.25 -0.0625,-0.15625 -0.0625,-0.3125 0,-0.171875 0.0625,-0.3125 0.0625,-0.140625 0.17188,-0.25 0.10937,-0.125 0.25,-0.171875 0.14062,-0.0625 0.3125,-0.0625 z m 15.27344,7.796875 -0.64063,0.640625 -3.9375,-3.28125 3.9375,-3.296875 0.64063,0.65625 -3.1875,2.625 3.1875,2.65625 z m 13.72656,0.546875 -1.35938,0 -2.23437,-4.78125 -0.64063,-1.53125 0,3.859375 0,2.453125 -0.96875,0 0,-7.65625 1.34375,0 2.125,4.515625 0.76563,1.75 0,-4.09375 0,-2.171875 0.96875,0 0,7.65625 z m 2.16015,1.203125 q 0.29688,0.01563 0.57813,-0.0625 0.28125,-0.0625 0.48437,-0.1875 0.21875,-0.125 0.34375,-0.3125 0.14063,-0.1875 0.14063,-0.421875 0,-0.25 -0.0937,-0.390625 -0.0781,-0.15625 -0.1875,-0.28125 -0.10938,-0.140625 -0.1875,-0.28125 -0.0781,-0.15625 -0.0781,-0.390625 0,-0.125 0.0469,-0.265625 0.0469,-0.140625 0.14062,-0.25 0.0937,-0.109375 0.23438,-0.171875 0.15625,-0.07813 0.35937,-0.07813 0.20313,0 0.39063,0.09375 0.20312,0.07813 0.34375,0.265625 0.14062,0.171875 0.21875,0.4375 0.0937,0.25 0.0937,0.609375 0,0.484375 -0.1875,0.9375 -0.17188,0.453125 -0.53125,0.796875 -0.34375,0.34375 -0.875,0.546875 -0.53125,0.203125 -1.23438,0.203125 l 0,-0.796875 z m 1.82813,-7.1875 q 0.1875,0 0.34375,0.07813 0.17187,0.0625 0.29687,0.1875 0.125,0.125 0.1875,0.296875 0.0781,0.15625 0.0781,0.328125 0,0.1875 -0.0781,0.359375 -0.0625,0.15625 -0.1875,0.28125 -0.125,0.125 -0.29687,0.203125 -0.15625,0.0625 -0.34375,0.0625 -0.1875,0 -0.34375,-0.0625 -0.15625,-0.07813 -0.28125,-0.203125 -0.125,-0.125 -0.20313,-0.28125 -0.0625,-0.171875 -0.0625,-0.359375 0,-0.171875 0.0625,-0.328125 0.0781,-0.171875 0.20313,-0.296875 0.125,-0.125 0.28125,-0.1875 0.15625,-0.07813 0.34375,-0.07813 z m 12.83594,0.9375 -1.73438,0 0,-0.84375 2.76563,0 0,5.046875 1.75,0 0,0.84375 -4.70313,0 0,-0.84375 1.92188,0 0,-4.203125 z m 0.35937,-3.296875 q 0.17188,0 0.3125,0.0625 0.15625,0.04687 0.26563,0.171875 0.10937,0.109375 0.17187,0.25 0.0625,0.140625 0.0625,0.3125 0,0.15625 -0.0625,0.3125 -0.0625,0.140625 -0.17187,0.25 -0.10938,0.109375 -0.26563,0.171875 -0.14062,0.0625 -0.3125,0.0625 -0.17187,0 -0.3125,-0.0625 -0.14062,-0.0625 -0.25,-0.171875 -0.10937,-0.109375 -0.17187,-0.25 -0.0625,-0.15625 -0.0625,-0.3125 0,-0.171875 0.0625,-0.3125 0.0625,-0.140625 0.17187,-0.25 0.10938,-0.125 0.25,-0.171875 0.14063,-0.0625 0.3125,-0.0625 z m 9.41016,5.59375 -2.3125,0 0,2.390625 -1,0 0,-2.390625 -2.29688,0 0,-0.890625 2.29688,0 0,-2.375 1,0 0,2.375 2.3125,0 0,0.890625 z m 6.59765,0 -2.3125,0 0,2.390625 -1,0 0,-2.390625 -2.29687,0 0,-0.890625 2.29687,0 0,-2.375 1,0 0,2.375 2.3125,0 0,0.890625 z m 2.62891,-5.96875 q 2.70313,2.5 2.70313,5.5625 0,0.625 -0.14063,1.3125 -0.125,0.671875 -0.4375,1.390625 -0.29687,0.71875 -0.82812,1.4375 -0.53125,0.734375 -1.32813,1.484375 l -0.57812,-0.609375 q 1.14062,-1.125 1.70312,-2.359375 0.5625,-1.234375 0.5625,-2.578125 0,-2.796875 -2.26562,-5.015625 l 0.60937,-0.625 z m 12.39844,0.234375 0.4375,0 q 1.125,0 1.67187,0.53125 0.5625,0.53125 0.5625,1.609375 l 0,1.34375 q 0,0.296875 0.0625,0.53125 0.0625,0.21875 0.21875,0.375 0.15625,0.15625 0.42188,0.234375 0.28125,0.07813 0.6875,0.07813 l 0.25,0 0,0.8125 -0.25,0 q -0.4375,0 -0.70313,0.07813 -0.26562,0.0625 -0.42187,0.21875 -0.15625,0.140625 -0.21875,0.359375 -0.0469,0.21875 -0.0469,0.53125 l 0,2.046875 q 0,0.484375 -0.125,0.875 -0.10937,0.40625 -0.375,0.6875 -0.26562,0.28125 -0.70312,0.421875 -0.42188,0.15625 -1.03125,0.15625 l -0.4375,0 0,-0.828125 0.34375,0 q 1.35937,0 1.35937,-1.3125 l 0,-2.03125 q 0,-1.421875 1.23438,-1.609375 -1.25,-0.125 -1.25,-1.609375 l 0,-1.34375 q 0,-1.34375 -1.34375,-1.34375 l -0.34375,0 0,-0.8125 z"
       id="path3105"
       inkscape:connector-curvature="0"
       style="fill:#3e5915;fill-rule:nonzero" />
    <path
       d="m 66.40816,94.89832 q 0,0.78125 -0.21875,1.375 -0.21875,0.578125 -0.609375,0.96875 -0.390625,0.390625 -0.921875,0.59375 -0.515625,0.1875 -1.140625,0.1875 -0.28125,0 -0.5625,-0.03125 -0.265625,-0.03125 -0.5625,-0.109375 l 0,2.468745 -1.015625,0 0,-8.29687 0.90625,0 0.0625,0.984375 q 0.4375,-0.59375 0.9375,-0.828125 0.5,-0.25 1.078125,-0.25 0.515625,0 0.890625,0.21875 0.375,0.203125 0.625,0.59375 0.265625,0.375 0.390625,0.921875 0.140625,0.53125 0.140625,1.203125 z m -1.046875,0.04687 q 0,-0.46875 -0.07813,-0.84375 -0.0625,-0.390625 -0.203125,-0.65625 -0.140625,-0.28125 -0.375,-0.4375 -0.234375,-0.15625 -0.546875,-0.15625 -0.1875,0 -0.390625,0.0625 -0.203125,0.0625 -0.421875,0.203125 -0.203125,0.140625 -0.4375,0.375 -0.234375,0.234375 -0.515625,0.59375 l 0,2.84375 q 0.28125,0.125 0.59375,0.203125 0.3125,0.0625 0.609375,0.0625 0.828125,0 1.296875,-0.5625 0.46875,-0.5625 0.46875,-1.6875 z m 2.847656,-2.890625 0.9375,0 0.03125,1.09375 q 0.515625,-0.625 1.015625,-0.90625 0.515625,-0.28125 1.03125,-0.28125 0.921875,0 1.390625,0.59375 0.46875,0.578125 0.4375,1.75 l -1.03125,0 q 0.01563,-0.765625 -0.234375,-1.109375 -0.234375,-0.359375 -0.703125,-0.359375 -0.203125,0 -0.421875,0.07813 -0.203125,0.0625 -0.421875,0.234375 -0.21875,0.15625 -0.46875,0.40625 -0.25,0.25 -0.53125,0.609375 l 0,3.78125 -1.03125,0 0,-5.890625 z m 11.332031,2.640625 q 0,0.21875 -0.01563,0.359375 0,0.140625 0,0.28125 l -4.140625,0 q 0,0.890625 0.5,1.375 0.515625,0.484375 1.453125,0.484375 0.265625,0 0.515625,-0.01563 0.265625,-0.01563 0.5,-0.04687 0.25,-0.04687 0.46875,-0.07813 0.21875,-0.04687 0.40625,-0.109375 l 0,0.84375 q -0.421875,0.109375 -0.953125,0.1875 -0.515625,0.07813 -1.078125,0.07813 -0.75,0 -1.296875,-0.203125 -0.546875,-0.21875 -0.90625,-0.59375 -0.34375,-0.390625 -0.515625,-0.953125 -0.15625,-0.578125 -0.15625,-1.296875 0,-0.609375 0.171875,-1.15625 0.1875,-0.5625 0.53125,-0.984375 0.34375,-0.421875 0.828125,-0.65625 0.5,-0.25 1.140625,-0.25 0.609375,0 1.078125,0.1875 0.484375,0.1875 0.8125,0.546875 0.328125,0.359375 0.484375,0.875 0.171875,0.5 0.171875,1.125 z m -1.0625,-0.15625 q 0.01563,-0.390625 -0.07813,-0.703125 -0.09375,-0.328125 -0.296875,-0.5625 -0.1875,-0.234375 -0.484375,-0.359375 -0.28125,-0.140625 -0.671875,-0.140625 -0.328125,0 -0.609375,0.125 -0.28125,0.125 -0.484375,0.359375 -0.1875,0.234375 -0.3125,0.5625 -0.125,0.328125 -0.15625,0.71875 l 3.09375,0 z m 7.910156,-3.921875 q -0.796875,-0.171875 -1.375,-0.171875 -1.375,0 -1.375,1.4375 l 0,1.03125 2.578125,0 0,0.859375 -2.578125,0 0,4.171875 -1.046875,0 0,-4.171875 -1.890625,0 0,-0.859375 1.890625,0 0,-0.96875 q 0,-2.34375 2.453125,-2.34375 0.609375,0 1.34375,0.140625 l 0,0.875 z m -6.15625,1.4375 0,0 z m 12.503906,2.640625 q 0,0.21875 -0.01563,0.359375 0,0.140625 0,0.28125 l -4.140625,0 q 0,0.890625 0.5,1.375 0.515625,0.484375 1.453125,0.484375 0.265625,0 0.515625,-0.01563 0.265625,-0.01563 0.5,-0.04687 0.25,-0.04687 0.46875,-0.07813 0.21875,-0.04687 0.40625,-0.109375 l 0,0.84375 q -0.421875,0.109375 -0.953125,0.1875 -0.515625,0.07813 -1.078125,0.07813 -0.75,0 -1.296875,-0.203125 -0.546875,-0.21875 -0.90625,-0.59375 -0.34375,-0.390625 -0.515625,-0.953125 -0.15625,-0.578125 -0.15625,-1.296875 0,-0.609375 0.171875,-1.15625 0.1875,-0.5625 0.53125,-0.984375 0.34375,-0.421875 0.828125,-0.65625 0.5,-0.25 1.140625,-0.25 0.609375,0 1.078125,0.1875 0.484375,0.1875 0.8125,0.546875 0.328125,0.359375 0.484375,0.875 0.171875,0.5 0.171875,1.125 z m -1.0625,-0.15625 q 0.01563,-0.390625 -0.07813,-0.703125 -0.09375,-0.328125 -0.296875,-0.5625 -0.1875,-0.234375 -0.484375,-0.359375 -0.28125,-0.140625 -0.671875,-0.140625 -0.328125,0 -0.609375,0.125 -0.28125,0.125 -0.484375,0.359375 -0.1875,0.234375 -0.3125,0.5625 -0.125,0.328125 -0.15625,0.71875 l 3.09375,0 z m 7.425782,3.328125 q -0.34375,0.07813 -0.71875,0.109375 -0.359375,0.04687 -0.734375,0.04687 -1.109375,0 -1.65625,-0.5 -0.546875,-0.5 -0.546875,-1.53125 l 0,-3.078125 -1.640625,0 0,-0.859375 1.640625,0 0,-1.609375 1.015625,-0.265625 0,1.875 2.640625,0 0,0.859375 -2.640625,0 0,2.984375 q 0,0.640625 0.328125,0.953125 0.34375,0.3125 1,0.3125 0.28125,0 0.609375,-0.04687 0.34375,-0.04687 0.703125,-0.140625 l 0,0.890625 z m 6.441404,-0.140625 q -0.40625,0.15625 -0.82812,0.21875 -0.42188,0.07813 -0.85938,0.07813 -1.39062,0 -2.15625,-0.75 -0.75,-0.765625 -0.75,-2.21875 0,-0.6875 0.21875,-1.25 0.21875,-0.578125 0.60938,-0.984375 0.39062,-0.40625 0.9375,-0.625 0.54687,-0.21875 1.20312,-0.21875 0.45313,0 0.84375,0.0625 0.40625,0.0625 0.78125,0.21875 l 0,0.96875 q -0.39062,-0.203125 -0.78125,-0.28125 -0.39062,-0.09375 -0.8125,-0.09375 -0.40625,0 -0.75,0.15625 -0.34375,0.140625 -0.60937,0.421875 -0.26563,0.28125 -0.42188,0.6875 -0.14062,0.40625 -0.14062,0.90625 0,1.0625 0.51562,1.59375 0.51563,0.53125 1.4375,0.53125 0.40625,0 0.79688,-0.09375 0.39062,-0.09375 0.76562,-0.28125 l 0,0.953125 z m 6.75391,0.21875 -1.03125,0 0,-3.75 q 0,-0.6875 -0.25,-1.015625 -0.25,-0.34375 -0.73438,-0.34375 -0.20312,0 -0.39062,0.0625 -0.17188,0.04687 -0.35938,0.1875 -0.1875,0.140625 -0.42187,0.375 -0.23438,0.234375 -0.53125,0.578125 l 0,3.90625 -1.01563,0 0,-8.28125 1.01563,0 0,2.390625 -0.0312,0.9375 q 0.23437,-0.296875 0.46875,-0.484375 0.23437,-0.203125 0.46875,-0.328125 0.23437,-0.125 0.46875,-0.171875 0.23437,-0.04687 0.5,-0.04687 0.875,0 1.35937,0.53125 0.48438,0.53125 0.48438,1.609375 l 0,3.84375 z m 5.3789,2.46874 q -2.6875,-2.515615 -2.6875,-5.546865 0,-0.703125 0.14063,-1.40625 0.14062,-0.703125 0.45312,-1.40625 0.32813,-0.71875 0.84375,-1.421875 0.53125,-0.71875 1.28125,-1.40625 l 0.59375,0.59375 q -2.28125,2.25 -2.28125,4.984375 0,1.359375 0.57813,2.609375 0.57812,1.25 1.70312,2.359375 l -0.625,0.640615 z m 8.14454,-6.46874 q 0,0.765625 -0.15625,1.40625 -0.14063,0.625 -0.42188,1.109375 l 1.17188,1.484375 -1.34375,0 -0.51563,-0.640625 q -0.42187,0.359375 -0.9375,0.546875 -0.51562,0.171875 -1.10937,0.171875 -0.5625,0 -1,-0.15625 -0.4375,-0.15625 -0.75,-0.4375 -0.29688,-0.28125 -0.45313,-0.671875 -0.15625,-0.40625 -0.15625,-0.875 0,-0.453125 0.10938,-0.796875 0.125,-0.34375 0.32812,-0.609375 0.20313,-0.28125 0.45313,-0.484375 0.26562,-0.21875 0.5625,-0.390625 l -0.14063,-0.1875 q -0.32812,-0.390625 -0.48437,-0.8125 -0.15625,-0.421875 -0.15625,-0.8125 0,-0.421875 0.125,-0.78125 0.14062,-0.359375 0.39062,-0.609375 0.26563,-0.265625 0.65625,-0.40625 0.39063,-0.15625 0.875,-0.15625 0.46875,0 0.82813,0.140625 0.35937,0.125 0.59375,0.359375 0.25,0.234375 0.35937,0.546875 0.125,0.3125 0.125,0.65625 0,0.4375 -0.15625,0.765625 -0.14062,0.328125 -0.39062,0.59375 -0.23438,0.25 -0.54688,0.453125 -0.3125,0.1875 -0.64062,0.375 l 1.51562,1.890625 q 0.25,-0.6875 0.23438,-1.671875 l 1.03125,0 z m -4.60938,1.8125 q 0,0.3125 0.0937,0.578125 0.10938,0.25 0.29688,0.4375 0.1875,0.1875 0.45312,0.28125 0.26563,0.09375 0.59375,0.09375 0.76563,0 1.34375,-0.5625 l -1.875,-2.328125 q -0.1875,0.140625 -0.35937,0.296875 -0.17188,0.140625 -0.29688,0.328125 -0.10937,0.171875 -0.1875,0.390625 -0.0625,0.21875 -0.0625,0.484375 z m 2.53125,-4.125 q 0,-0.4375 -0.25,-0.6875 -0.23437,-0.25 -0.65625,-0.25 -0.23437,0 -0.42187,0.07813 -0.17188,0.07813 -0.29688,0.21875 -0.125,0.125 -0.1875,0.3125 -0.0625,0.171875 -0.0625,0.390625 0,0.3125 0.10938,0.59375 0.125,0.265625 0.39062,0.59375 l 0.15625,0.203125 q 0.25,-0.140625 0.46875,-0.28125 0.23438,-0.140625 0.39063,-0.3125 0.17187,-0.171875 0.26562,-0.375 0.0937,-0.21875 0.0937,-0.484375 z m 7.39453,6.3125 -0.0312,-0.796875 q -0.46875,0.484375 -0.96875,0.703125 -0.5,0.203125 -1.04687,0.203125 -0.5,0 -0.85938,-0.125 -0.35937,-0.140625 -0.59375,-0.359375 -0.21875,-0.234375 -0.32812,-0.53125 -0.10938,-0.3125 -0.10938,-0.671875 0,-0.875 0.65625,-1.375 0.65625,-0.5 1.95313,-0.5 l 1.21875,0 0,-0.515625 q 0,-0.53125 -0.34375,-0.84375 -0.32813,-0.3125 -1.01563,-0.3125 -0.5,0 -0.98437,0.109375 -0.48438,0.109375 -1,0.328125 l 0,-0.921875 q 0.20312,-0.07813 0.4375,-0.140625 0.23437,-0.0625 0.5,-0.109375 0.26562,-0.0625 0.54687,-0.09375 0.29688,-0.03125 0.57813,-0.03125 0.54687,0 0.96875,0.125 0.42187,0.109375 0.71875,0.34375 0.29687,0.234375 0.45312,0.609375 0.15625,0.359375 0.15625,0.84375 l 0,4.0625 -0.90625,0 z m -0.10937,-2.671875 -1.29688,0 q -0.375,0 -0.65625,0.07813 -0.28125,0.0625 -0.45312,0.203125 -0.17188,0.140625 -0.26563,0.34375 -0.0781,0.1875 -0.0781,0.4375 0,0.171875 0.0469,0.328125 0.0625,0.15625 0.17188,0.28125 0.125,0.109375 0.3125,0.1875 0.1875,0.0625 0.45312,0.0625 0.34375,0 0.79688,-0.203125 0.46875,-0.21875 0.96875,-0.6875 l 0,-1.03125 z m 6.89453,5.078115 -2.89063,0 0,-10.890615 2.89063,0 0,0.8125 -1.90625,0 0,9.25 1.90625,0 0,0.828115 z m 4.6289,-7.453115 -1.73437,0 0,-0.84375 2.76562,0 0,5.046875 1.75,0 0,0.84375 -4.70312,0 0,-0.84375 1.92187,0 0,-4.203125 z m 0.35938,-3.296875 q 0.17187,0 0.3125,0.0625 0.15625,0.04687 0.26562,0.171875 0.10938,0.109375 0.17188,0.25 0.0625,0.140625 0.0625,0.3125 0,0.15625 -0.0625,0.3125 -0.0625,0.140625 -0.17188,0.25 -0.10937,0.109375 -0.26562,0.171875 -0.14063,0.0625 -0.3125,0.0625 -0.17188,0 -0.3125,-0.0625 -0.14063,-0.0625 -0.25,-0.171875 -0.10938,-0.109375 -0.17188,-0.25 -0.0625,-0.15625 -0.0625,-0.3125 0,-0.171875 0.0625,-0.3125 0.0625,-0.140625 0.17188,-0.25 0.10937,-0.125 0.25,-0.171875 0.14062,-0.0625 0.3125,-0.0625 z m 9.41015,5.59375 -2.3125,0 0,2.390625 -1,0 0,-2.390625 -2.29687,0 0,-0.890625 2.29687,0 0,-2.375 1,0 0,2.375 2.3125,0 0,0.890625 z m 6.33204,2.75 -4.8125,0 0,-0.953125 1.96875,0 0,-5.59375 -1.82813,1 -0.375,-0.859375 2.4375,-1.28125 0.89063,0 0,6.734375 1.71875,0 0,0.953125 z m 5.33203,2.40624 -2.89063,0 0,-0.828115 1.90625,0 0,-9.25 -1.90625,0 0,-0.8125 2.89063,0 0,10.890615 z m 4.16015,-11.12499 q 2.70313,2.5 2.70313,5.5625 0,0.625 -0.14063,1.3125 -0.125,0.671875 -0.4375,1.390625 -0.29687,0.71875 -0.82812,1.4375 -0.53125,0.734375 -1.32813,1.484365 l -0.57812,-0.609365 q 1.14062,-1.125 1.70312,-2.359375 0.5625,-1.234375 0.5625,-2.578125 0,-2.796875 -2.26562,-5.015625 l 0.60937,-0.625 z m 5.92578,9.921875 q 0.29688,0.01563 0.57813,-0.0625 0.28125,-0.0625 0.48437,-0.1875 0.21875,-0.125 0.34375,-0.3125 0.14063,-0.1875 0.14063,-0.421875 0,-0.25 -0.0937,-0.390625 -0.0781,-0.15625 -0.1875,-0.28125 -0.10938,-0.140625 -0.1875,-0.28125 -0.0781,-0.15625 -0.0781,-0.390625 0,-0.125 0.0469,-0.265625 0.0469,-0.140625 0.14062,-0.25 0.0937,-0.109375 0.23438,-0.171875 0.15625,-0.07813 0.35937,-0.07813 0.20313,0 0.39063,0.09375 0.20312,0.07813 0.34375,0.265625 0.14062,0.171875 0.21875,0.4375 0.0937,0.25 0.0937,0.609375 0,0.484375 -0.1875,0.9375 -0.17188,0.453125 -0.53125,0.796875 -0.34375,0.34375 -0.875,0.546875 -0.53125,0.203125 -1.23438,0.203125 l 0,-0.796875 z m 1.82813,-7.1875 q 0.1875,0 0.34375,0.07813 0.17187,0.0625 0.29687,0.1875 0.125,0.125 0.1875,0.296875 0.0781,0.15625 0.0781,0.328125 0,0.1875 -0.0781,0.359375 -0.0625,0.15625 -0.1875,0.28125 -0.125,0.125 -0.29687,0.203125 -0.15625,0.0625 -0.34375,0.0625 -0.1875,0 -0.34375,-0.0625 -0.15625,-0.07813 -0.28125,-0.203125 -0.125,-0.125 -0.20313,-0.28125 -0.0625,-0.171875 -0.0625,-0.359375 0,-0.171875 0.0625,-0.328125 0.0781,-0.171875 0.20313,-0.296875 0.125,-0.125 0.28125,-0.1875 0.15625,-0.07813 0.34375,-0.07813 z"
       id="path3107"
       inkscape:connector-curvature="0"
       style="fill:#3e5915;fill-rule:nonzero" />
    <path
       d="m 66.40816,111.89832 q 0,0.78125 -0.21875,1.375 -0.21875,0.57812 -0.609375,0.96875 -0.390625,0.39062 -0.921875,0.59375 -0.515625,0.1875 -1.140625,0.1875 -0.28125,0 -0.5625,-0.0312 -0.265625,-0.0312 -0.5625,-0.10938 l 0,2.46875 -1.015625,0 0,-8.29687 0.90625,0 0.0625,0.98437 q 0.4375,-0.59375 0.9375,-0.82812 0.5,-0.25 1.078125,-0.25 0.515625,0 0.890625,0.21875 0.375,0.20312 0.625,0.59375 0.265625,0.375 0.390625,0.92187 0.140625,0.53125 0.140625,1.20313 z m -1.046875,0.0469 q 0,-0.46875 -0.07813,-0.84375 -0.0625,-0.39062 -0.203125,-0.65625 -0.140625,-0.28125 -0.375,-0.4375 -0.234375,-0.15625 -0.546875,-0.15625 -0.1875,0 -0.390625,0.0625 -0.203125,0.0625 -0.421875,0.20313 -0.203125,0.14062 -0.4375,0.375 -0.234375,0.23437 -0.515625,0.59375 l 0,2.84375 q 0.28125,0.125 0.59375,0.20312 0.3125,0.0625 0.609375,0.0625 0.828125,0 1.296875,-0.5625 0.46875,-0.5625 0.46875,-1.6875 z m 2.847656,-2.89062 0.9375,0 0.03125,1.09375 q 0.515625,-0.625 1.015625,-0.90625 0.515625,-0.28125 1.03125,-0.28125 0.921875,0 1.390625,0.59375 0.46875,0.57812 0.4375,1.75 l -1.03125,0 q 0.01563,-0.76563 -0.234375,-1.10938 -0.234375,-0.35937 -0.703125,-0.35937 -0.203125,0 -0.421875,0.0781 -0.203125,0.0625 -0.421875,0.23438 -0.21875,0.15625 -0.46875,0.40625 -0.25,0.25 -0.53125,0.60937 l 0,3.78125 -1.03125,0 0,-5.89062 z m 11.332031,2.64062 q 0,0.21875 -0.01563,0.35938 0,0.14062 0,0.28125 l -4.140625,0 q 0,0.89062 0.5,1.375 0.515625,0.48437 1.453125,0.48437 0.265625,0 0.515625,-0.0156 0.265625,-0.0156 0.5,-0.0469 0.25,-0.0469 0.46875,-0.0781 0.21875,-0.0469 0.40625,-0.10938 l 0,0.84375 q -0.421875,0.10938 -0.953125,0.1875 -0.515625,0.0781 -1.078125,0.0781 -0.75,0 -1.296875,-0.20313 -0.546875,-0.21875 -0.90625,-0.59375 -0.34375,-0.39062 -0.515625,-0.95312 -0.15625,-0.57813 -0.15625,-1.29688 0,-0.60937 0.171875,-1.15625 0.1875,-0.5625 0.53125,-0.98437 0.34375,-0.42188 0.828125,-0.65625 0.5,-0.25 1.140625,-0.25 0.609375,0 1.078125,0.1875 0.484375,0.1875 0.8125,0.54687 0.328125,0.35938 0.484375,0.875 0.171875,0.5 0.171875,1.125 z m -1.0625,-0.15625 q 0.01563,-0.39062 -0.07813,-0.70312 -0.09375,-0.32813 -0.296875,-0.5625 -0.1875,-0.23438 -0.484375,-0.35938 -0.28125,-0.14062 -0.671875,-0.14062 -0.328125,0 -0.609375,0.125 -0.28125,0.125 -0.484375,0.35937 -0.1875,0.23438 -0.3125,0.5625 -0.125,0.32813 -0.15625,0.71875 l 3.09375,0 z m 7.910156,-3.92187 q -0.796875,-0.17188 -1.375,-0.17188 -1.375,0 -1.375,1.4375 l 0,1.03125 2.578125,0 0,0.85938 -2.578125,0 0,4.17187 -1.046875,0 0,-4.17187 -1.890625,0 0,-0.85938 1.890625,0 0,-0.96875 q 0,-2.34375 2.453125,-2.34375 0.609375,0 1.34375,0.14063 l 0,0.875 z m -6.15625,1.4375 0,0 z m 12.503906,2.64062 q 0,0.21875 -0.01563,0.35938 0,0.14062 0,0.28125 l -4.140625,0 q 0,0.89062 0.5,1.375 0.515625,0.48437 1.453125,0.48437 0.265625,0 0.515625,-0.0156 0.265625,-0.0156 0.5,-0.0469 0.25,-0.0469 0.46875,-0.0781 0.21875,-0.0469 0.40625,-0.10938 l 0,0.84375 q -0.421875,0.10938 -0.953125,0.1875 -0.515625,0.0781 -1.078125,0.0781 -0.75,0 -1.296875,-0.20313 -0.546875,-0.21875 -0.90625,-0.59375 -0.34375,-0.39062 -0.515625,-0.95312 -0.15625,-0.57813 -0.15625,-1.29688 0,-0.60937 0.171875,-1.15625 0.1875,-0.5625 0.53125,-0.98437 0.34375,-0.42188 0.828125,-0.65625 0.5,-0.25 1.140625,-0.25 0.609375,0 1.078125,0.1875 0.484375,0.1875 0.8125,0.54687 0.328125,0.35938 0.484375,0.875 0.171875,0.5 0.171875,1.125 z m -1.0625,-0.15625 q 0.01563,-0.39062 -0.07813,-0.70312 -0.09375,-0.32813 -0.296875,-0.5625 -0.1875,-0.23438 -0.484375,-0.35938 -0.28125,-0.14062 -0.671875,-0.14062 -0.328125,0 -0.609375,0.125 -0.28125,0.125 -0.484375,0.35937 -0.1875,0.23438 -0.3125,0.5625 -0.125,0.32813 -0.15625,0.71875 l 3.09375,0 z m 7.425782,3.32813 q -0.34375,0.0781 -0.71875,0.10937 -0.359375,0.0469 -0.734375,0.0469 -1.109375,0 -1.65625,-0.5 -0.546875,-0.5 -0.546875,-1.53125 l 0,-3.07813 -1.640625,0 0,-0.85937 1.640625,0 0,-1.60938 1.015625,-0.26562 0,1.875 2.640625,0 0,0.85937 -2.640625,0 0,2.98438 q 0,0.64062 0.328125,0.95312 0.34375,0.3125 1,0.3125 0.28125,0 0.609375,-0.0469 0.34375,-0.0469 0.703125,-0.14063 l 0,0.89063 z m 6.441404,-0.14063 q -0.40625,0.15625 -0.82812,0.21875 -0.42188,0.0781 -0.85938,0.0781 -1.39062,0 -2.15625,-0.75 -0.75,-0.76563 -0.75,-2.21875 0,-0.6875 0.21875,-1.25 0.21875,-0.57813 0.60938,-0.98438 0.39062,-0.40625 0.9375,-0.625 0.54687,-0.21875 1.20312,-0.21875 0.45313,0 0.84375,0.0625 0.40625,0.0625 0.78125,0.21875 l 0,0.96875 q -0.39062,-0.20312 -0.78125,-0.28125 -0.39062,-0.0937 -0.8125,-0.0937 -0.40625,0 -0.75,0.15625 -0.34375,0.14063 -0.60937,0.42188 -0.26563,0.28125 -0.42188,0.6875 -0.14062,0.40625 -0.14062,0.90625 0,1.0625 0.51562,1.59375 0.51563,0.53125 1.4375,0.53125 0.40625,0 0.79688,-0.0937 0.39062,-0.0937 0.76562,-0.28125 l 0,0.95312 z m 6.75391,0.21875 -1.03125,0 0,-3.75 q 0,-0.6875 -0.25,-1.01562 -0.25,-0.34375 -0.73438,-0.34375 -0.20312,0 -0.39062,0.0625 -0.17188,0.0469 -0.35938,0.1875 -0.1875,0.14062 -0.42187,0.375 -0.23438,0.23437 -0.53125,0.57812 l 0,3.90625 -1.01563,0 0,-8.28125 1.01563,0 0,2.39063 -0.0312,0.9375 q 0.23437,-0.29688 0.46875,-0.48438 0.23437,-0.20312 0.46875,-0.32812 0.23437,-0.125 0.46875,-0.17188 0.23437,-0.0469 0.5,-0.0469 0.875,0 1.35937,0.53125 0.48438,0.53125 0.48438,1.60937 l 0,3.84375 z m 5.3789,2.46875 q -2.6875,-2.51562 -2.6875,-5.54687 0,-0.70313 0.14063,-1.40625 0.14062,-0.70313 0.45312,-1.40625 0.32813,-0.71875 0.84375,-1.42188 0.53125,-0.71875 1.28125,-1.40625 l 0.59375,0.59375 q -2.28125,2.25 -2.28125,4.98438 0,1.35937 0.57813,2.60937 0.57812,1.25 1.70312,2.35938 l -0.625,0.64062 z m 8.14454,-6.46875 q 0,0.76563 -0.15625,1.40625 -0.14063,0.625 -0.42188,1.10938 l 1.17188,1.48437 -1.34375,0 -0.51563,-0.64062 q -0.42187,0.35937 -0.9375,0.54687 -0.51562,0.17188 -1.10937,0.17188 -0.5625,0 -1,-0.15625 -0.4375,-0.15625 -0.75,-0.4375 -0.29688,-0.28125 -0.45313,-0.67188 -0.15625,-0.40625 -0.15625,-0.875 0,-0.45312 0.10938,-0.79687 0.125,-0.34375 0.32812,-0.60938 0.20313,-0.28125 0.45313,-0.48437 0.26562,-0.21875 0.5625,-0.39063 l -0.14063,-0.1875 q -0.32812,-0.39062 -0.48437,-0.8125 -0.15625,-0.42187 -0.15625,-0.8125 0,-0.42187 0.125,-0.78125 0.14062,-0.35937 0.39062,-0.60937 0.26563,-0.26563 0.65625,-0.40625 0.39063,-0.15625 0.875,-0.15625 0.46875,0 0.82813,0.14062 0.35937,0.125 0.59375,0.35938 0.25,0.23437 0.35937,0.54687 0.125,0.3125 0.125,0.65625 0,0.4375 -0.15625,0.76563 -0.14062,0.32812 -0.39062,0.59375 -0.23438,0.25 -0.54688,0.45312 -0.3125,0.1875 -0.64062,0.375 l 1.51562,1.89063 q 0.25,-0.6875 0.23438,-1.67188 l 1.03125,0 z m -4.60938,1.8125 q 0,0.3125 0.0937,0.57813 0.10938,0.25 0.29688,0.4375 0.1875,0.1875 0.45312,0.28125 0.26563,0.0937 0.59375,0.0937 0.76563,0 1.34375,-0.5625 l -1.875,-2.32813 q -0.1875,0.14063 -0.35937,0.29688 -0.17188,0.14062 -0.29688,0.32812 -0.10937,0.17188 -0.1875,0.39063 -0.0625,0.21875 -0.0625,0.48437 z m 2.53125,-4.125 q 0,-0.4375 -0.25,-0.6875 -0.23437,-0.25 -0.65625,-0.25 -0.23437,0 -0.42187,0.0781 -0.17188,0.0781 -0.29688,0.21875 -0.125,0.125 -0.1875,0.3125 -0.0625,0.17187 -0.0625,0.39062 0,0.3125 0.10938,0.59375 0.125,0.26563 0.39062,0.59375 l 0.15625,0.20313 q 0.25,-0.14063 0.46875,-0.28125 0.23438,-0.14063 0.39063,-0.3125 0.17187,-0.17188 0.26562,-0.375 0.0937,-0.21875 0.0937,-0.48438 z m 8.64453,3.26563 q 0,0.73437 -0.20312,1.3125 -0.20313,0.57812 -0.57813,0.98437 -0.375,0.39063 -0.90625,0.60938 -0.53125,0.21875 -1.20312,0.21875 -0.51563,0 -1.0625,-0.0937 -0.54688,-0.10938 -1.07813,-0.32813 l 0,-7.9375 1.01563,0 0,2.28125 -0.0469,1.09375 q 0.4375,-0.59375 0.9375,-0.82812 0.51563,-0.25 1.07813,-0.25 0.51562,0 0.89062,0.21875 0.375,0.20312 0.625,0.59375 0.26563,0.375 0.39063,0.92187 0.14062,0.53125 0.14062,1.20313 z m -1.04687,0.0469 q 0,-0.46875 -0.0781,-0.84375 -0.0625,-0.39062 -0.20312,-0.65625 -0.14063,-0.28125 -0.375,-0.4375 -0.23438,-0.15625 -0.54688,-0.15625 -0.1875,0 -0.39062,0.0625 -0.20313,0.0625 -0.42188,0.20313 -0.20312,0.14062 -0.4375,0.375 -0.23437,0.23437 -0.51562,0.59375 l 0,2.84375 q 0.29687,0.125 0.60937,0.20312 0.3125,0.0625 0.59375,0.0625 0.35938,0 0.67188,-0.10937 0.32812,-0.125 0.5625,-0.375 0.25,-0.26563 0.39062,-0.6875 0.14063,-0.4375 0.14063,-1.07813 z m 6.58203,5.40625 -2.89063,0 0,-10.89062 2.89063,0 0,0.8125 -1.90625,0 0,9.25 1.90625,0 0,0.82812 z m 4.6289,-7.45312 -1.73437,0 0,-0.84375 2.76562,0 0,5.04687 1.75,0 0,0.84375 -4.70312,0 0,-0.84375 1.92187,0 0,-4.20312 z m 0.35938,-3.29688 q 0.17187,0 0.3125,0.0625 0.15625,0.0469 0.26562,0.17188 0.10938,0.10937 0.17188,0.25 0.0625,0.14062 0.0625,0.3125 0,0.15625 -0.0625,0.3125 -0.0625,0.14062 -0.17188,0.25 -0.10937,0.10937 -0.26562,0.17187 -0.14063,0.0625 -0.3125,0.0625 -0.17188,0 -0.3125,-0.0625 -0.14063,-0.0625 -0.25,-0.17187 -0.10938,-0.10938 -0.17188,-0.25 -0.0625,-0.15625 -0.0625,-0.3125 0,-0.17188 0.0625,-0.3125 0.0625,-0.14063 0.17188,-0.25 0.10937,-0.125 0.25,-0.17188 0.14062,-0.0625 0.3125,-0.0625 z m 9.41015,5.59375 -2.3125,0 0,2.39063 -1,0 0,-2.39063 -2.29687,0 0,-0.89062 2.29687,0 0,-2.375 1,0 0,2.375 2.3125,0 0,0.89062 z m 6.33204,2.75 -4.8125,0 0,-0.95312 1.96875,0 0,-5.59375 -1.82813,1 -0.375,-0.85938 2.4375,-1.28125 0.89063,0 0,6.73438 1.71875,0 0,0.95312 z m 5.33203,2.40625 -2.89063,0 0,-0.82812 1.90625,0 0,-9.25 -1.90625,0 0,-0.8125 2.89063,0 0,10.89062 z m 4.16015,-11.125 q 2.70313,2.5 2.70313,5.5625 0,0.625 -0.14063,1.3125 -0.125,0.67188 -0.4375,1.39063 -0.29687,0.71875 -0.82812,1.4375 -0.53125,0.73437 -1.32813,1.48437 l -0.57812,-0.60937 q 1.14062,-1.125 1.70312,-2.35938 0.5625,-1.23437 0.5625,-2.57812 0,-2.79688 -2.26562,-5.01563 l 0.60937,-0.625 z m 5.92578,9.92188 q 0.29688,0.0156 0.57813,-0.0625 0.28125,-0.0625 0.48437,-0.1875 0.21875,-0.125 0.34375,-0.3125 0.14063,-0.1875 0.14063,-0.42188 0,-0.25 -0.0937,-0.39062 -0.0781,-0.15625 -0.1875,-0.28125 -0.10938,-0.14063 -0.1875,-0.28125 -0.0781,-0.15625 -0.0781,-0.39063 0,-0.125 0.0469,-0.26562 0.0469,-0.14063 0.14062,-0.25 0.0937,-0.10938 0.23438,-0.17188 0.15625,-0.0781 0.35937,-0.0781 0.20313,0 0.39063,0.0937 0.20312,0.0781 0.34375,0.26562 0.14062,0.17188 0.21875,0.4375 0.0937,0.25 0.0937,0.60938 0,0.48437 -0.1875,0.9375 -0.17188,0.45312 -0.53125,0.79687 -0.34375,0.34375 -0.875,0.54688 -0.53125,0.20312 -1.23438,0.20312 l 0,-0.79687 z m 1.82813,-7.1875 q 0.1875,0 0.34375,0.0781 0.17187,0.0625 0.29687,0.1875 0.125,0.125 0.1875,0.29688 0.0781,0.15625 0.0781,0.32812 0,0.1875 -0.0781,0.35938 -0.0625,0.15625 -0.1875,0.28125 -0.125,0.125 -0.29687,0.20312 -0.15625,0.0625 -0.34375,0.0625 -0.1875,0 -0.34375,-0.0625 -0.15625,-0.0781 -0.28125,-0.20312 -0.125,-0.125 -0.20313,-0.28125 -0.0625,-0.17188 -0.0625,-0.35938 0,-0.17187 0.0625,-0.32812 0.0781,-0.17188 0.20313,-0.29688 0.125,-0.125 0.28125,-0.1875 0.15625,-0.0781 0.34375,-0.0781 z"
       id="path3109"
       inkscape:connector-curvature="0"
       style="fill:#3e5915;fill-rule:nonzero" />
    <path
       d="m 66.03316,130.33582 q 0,0.3125 -0.109375,0.5625 -0.09375,0.25 -0.28125,0.4375 -0.1875,0.1875 -0.421875,0.32812 -0.234375,0.125 -0.515625,0.21875 -0.265625,0.0937 -0.5625,0.125 -0.28125,0.0469 -0.5625,0.0469 -0.59375,0 -1.09375,-0.0625 -0.5,-0.0469 -0.984375,-0.17188 l 0,-0.9375 q 0.515625,0.15625 1.03125,0.23438 0.515625,0.0781 1.015625,0.0781 0.734375,0 1.078125,-0.20312 0.359375,-0.20313 0.359375,-0.57813 0,-0.15625 -0.0625,-0.28125 -0.04687,-0.125 -0.203125,-0.23437 -0.140625,-0.10938 -0.453125,-0.23438 -0.3125,-0.125 -0.84375,-0.28125 -0.390625,-0.125 -0.734375,-0.26562 -0.328125,-0.15625 -0.578125,-0.35938 -0.25,-0.20312 -0.390625,-0.46875 -0.140625,-0.28125 -0.140625,-0.65624 0,-0.25 0.109375,-0.54688 0.125,-0.29687 0.390625,-0.54687 0.28125,-0.25 0.75,-0.40625 0.46875,-0.17188 1.171875,-0.17188 0.34375,0 0.765625,0.0469 0.421875,0.0312 0.875,0.125 l 0,0.90625 q -0.46875,-0.125 -0.90625,-0.17188 -0.421875,-0.0625 -0.75,-0.0625 -0.375,0 -0.640625,0.0625 -0.25,0.0625 -0.421875,0.17188 -0.15625,0.0937 -0.234375,0.23437 -0.0625,0.125 -0.0625,0.28125 0,0.17188 0.0625,0.29688 0.0625,0.125 0.21875,0.24999 0.171875,0.10938 0.46875,0.23438 0.296875,0.125 0.78125,0.26562 0.53125,0.15625 0.875,0.32813 0.359375,0.15625 0.578125,0.35937 0.234375,0.20313 0.328125,0.46875 0.09375,0.25 0.09375,0.57813 z m 6.675781,1.60937 -0.921875,0 -0.03125,-0.95312 q -0.265625,0.3125 -0.5,0.51562 -0.234375,0.20313 -0.46875,0.32813 -0.234375,0.10937 -0.484375,0.15625 -0.234375,0.0625 -0.5,0.0625 -0.90625,0 -1.375,-0.53125 -0.453125,-0.54688 -0.453125,-1.625 l 0,-3.84375 1.015625,0 0,3.76562 q 0,1.35938 1.03125,1.35938 0.1875,0 0.359375,-0.0469 0.171875,-0.0625 0.375,-0.20312 0.203125,-0.14063 0.421875,-0.375 0.21875,-0.23438 0.5,-0.59375 l 0,-3.90625 1.03125,0 0,5.89062 z m 6.066406,0 0,-4.21874 q 0,-0.28125 -0.03125,-0.45313 -0.01563,-0.1875 -0.0625,-0.28125 -0.04687,-0.10937 -0.109375,-0.14062 -0.0625,-0.0469 -0.171875,-0.0469 -0.109375,0 -0.21875,0.0781 -0.09375,0.0625 -0.21875,0.21875 -0.109375,0.15625 -0.25,0.42187 -0.125,0.26563 -0.3125,0.64062 l 0,3.78125 -0.9375,0 0,-4.10937 q 0,-0.32812 -0.01563,-0.51562 -0.01563,-0.20313 -0.0625,-0.3125 -0.04687,-0.125 -0.125,-0.15625 -0.0625,-0.0469 -0.15625,-0.0469 -0.109375,0 -0.203125,0.0625 -0.09375,0.0625 -0.21875,0.21875 -0.109375,0.14063 -0.25,0.40625 -0.140625,0.26563 -0.328125,0.67187 l 0,3.78125 -0.9375,0 0,-5.89062 0.78125,0 0.04687,1.125 q 0.140625,-0.32812 0.28125,-0.5625 0.15625,-0.23437 0.296875,-0.375 0.15625,-0.15625 0.328125,-0.21875 0.171875,-0.0625 0.390625,-0.0625 0.46875,0 0.71875,0.3125 0.25,0.29688 0.25,0.95313 0.140625,-0.29688 0.265625,-0.53125 0.140625,-0.25 0.296875,-0.40625 0.15625,-0.15625 0.34375,-0.23438 0.1875,-0.0937 0.4375,-0.0937 1.109375,0 1.109375,1.70313 l 0,4.28124 -0.9375,0 z m 14.164063,-2.75 -2.3125,0 0,2.39063 -1,0 0,-2.39063 -2.296875,0 0,-0.89062 2.296875,0 0,-2.375 1,0 0,2.375 2.3125,0 0,0.89062 z m 6.300781,-1.03125 -5.03125,0 0,-0.85937 5.03125,0 0,0.85937 z m 0,2.03125 -5.03125,0 0,-0.85937 5.03125,0 0,0.85937 z m 12.101559,1.75 -0.0312,-0.79687 q -0.46875,0.48437 -0.96875,0.70312 -0.5,0.20313 -1.04687,0.20313 -0.5,0 -0.85938,-0.125 -0.35937,-0.14063 -0.59375,-0.35938 -0.21875,-0.23437 -0.32812,-0.53125 -0.10938,-0.3125 -0.10938,-0.67187 0,-0.875 0.65625,-1.375 0.65625,-0.5 1.95313,-0.5 l 1.21875,0 0,-0.51562 q 0,-0.53125 -0.34375,-0.84375 -0.32813,-0.3125 -1.01563,-0.3125 -0.5,0 -0.98437,0.10937 -0.48438,0.10938 -1,0.32813 l 0,-0.92188 q 0.20312,-0.0781 0.4375,-0.14062 0.23437,-0.0625 0.5,-0.10938 0.26562,-0.0625 0.54687,-0.0937 0.29688,-0.0312 0.57813,-0.0312 0.54687,0 0.96875,0.125 0.42187,0.10938 0.71875,0.34375 0.29687,0.23438 0.45312,0.60938 0.15625,0.35937 0.15625,0.84375 l 0,4.06249 -0.90625,0 z m -0.10937,-2.67187 -1.29688,0 q -0.375,0 -0.65625,0.0781 -0.28125,0.0625 -0.45312,0.20313 -0.17188,0.14062 -0.26563,0.34375 -0.0781,0.1875 -0.0781,0.4375 0,0.17187 0.0469,0.32812 0.0625,0.15625 0.17188,0.28125 0.125,0.10938 0.3125,0.1875 0.1875,0.0625 0.45312,0.0625 0.34375,0 0.79688,-0.20312 0.46875,-0.21875 0.96875,-0.6875 l 0,-1.03125 z m 6.89453,5.07812 -2.89063,0 0,-10.89062 2.89063,0 0,0.8125 -1.90625,0 0,9.25 1.90625,0 0,0.82812 z m 4.62891,-7.45312 -1.73438,0 0,-0.84375 2.76563,0 0,5.04687 1.75,0 0,0.84375 -4.70313,0 0,-0.84375 1.92188,0 0,-4.20312 z m 0.35937,-3.29687 q 0.17188,0 0.3125,0.0625 0.15625,0.0469 0.26563,0.17187 0.10937,0.10938 0.17187,0.25 0.0625,0.14063 0.0625,0.3125 0,0.15625 -0.0625,0.3125 -0.0625,0.14063 -0.17187,0.25 -0.10938,0.10938 -0.26563,0.17188 -0.14062,0.0625 -0.3125,0.0625 -0.17187,0 -0.3125,-0.0625 -0.14062,-0.0625 -0.25,-0.17188 -0.10937,-0.10937 -0.17187,-0.25 -0.0625,-0.15625 -0.0625,-0.3125 0,-0.17187 0.0625,-0.3125 0.0625,-0.14062 0.17187,-0.25 0.10938,-0.125 0.25,-0.17187 0.14063,-0.0625 0.3125,-0.0625 z m 7.87891,10.74999 -2.89063,0 0,-0.82812 1.90625,0 0,-9.25 -1.90625,0 0,-0.8125 2.89063,0 0,10.89062 z m 7.64453,-7.32812 -0.39063,0.70313 -1.64062,-1.09375 0.125,1.99999 -0.82813,0 0.125,-1.99999 -1.6875,1.09375 -0.35937,-0.6875 1.79687,-0.89063 -1.79687,-0.90625 0.39062,-0.6875 1.67188,1.10938 -0.14063,-2 0.82813,0 -0.14063,2 1.65625,-1.10938 0.40625,0.71875 -1.79687,0.89063 1.78125,0.85937 z m 6.9414,1.875 q 0,0.73437 -0.20312,1.3125 -0.20313,0.57812 -0.57813,0.98437 -0.375,0.39063 -0.90625,0.60938 -0.53125,0.21875 -1.20312,0.21875 -0.51563,0 -1.0625,-0.0937 -0.54688,-0.10938 -1.07813,-0.32813 l 0,-7.93749 1.01563,0 0,2.28125 -0.0469,1.09375 q 0.4375,-0.59375 0.9375,-0.82813 0.51563,-0.25 1.07813,-0.25 0.51562,0 0.89062,0.21875 0.375,0.20313 0.625,0.59375 0.26563,0.375 0.39063,0.92188 0.14062,0.53124 0.14062,1.20312 z m -1.04687,0.0469 q 0,-0.46875 -0.0781,-0.84375 -0.0625,-0.39062 -0.20312,-0.65624 -0.14063,-0.28125 -0.375,-0.4375 -0.23438,-0.15625 -0.54688,-0.15625 -0.1875,0 -0.39062,0.0625 -0.20313,0.0625 -0.42188,0.20312 -0.20312,0.14063 -0.4375,0.375 -0.23437,0.23438 -0.51562,0.59375 l 0,2.84375 q 0.29687,0.125 0.60937,0.20312 0.3125,0.0625 0.59375,0.0625 0.35938,0 0.67188,-0.10937 0.32812,-0.125 0.5625,-0.375 0.25,-0.26563 0.39062,-0.6875 0.14063,-0.4375 0.14063,-1.07813 z m 6.58203,5.40625 -2.89062,0 0,-10.89062 2.89062,0 0,0.8125 -1.90625,0 0,9.25 1.90625,0 0,0.82812 z m 4.62891,-7.45312 -1.73438,0 0,-0.84375 2.76563,0 0,5.04687 1.75,0 0,0.84375 -4.70313,0 0,-0.84375 1.92188,0 0,-4.20312 z m 0.35937,-3.29687 q 0.17188,0 0.3125,0.0625 0.15625,0.0469 0.26563,0.17187 0.10937,0.10938 0.17187,0.25 0.0625,0.14063 0.0625,0.3125 0,0.15625 -0.0625,0.3125 -0.0625,0.14063 -0.17187,0.25 -0.10938,0.10938 -0.26563,0.17188 -0.14062,0.0625 -0.3125,0.0625 -0.17187,0 -0.3125,-0.0625 -0.14062,-0.0625 -0.25,-0.17188 -0.10937,-0.10937 -0.17187,-0.25 -0.0625,-0.15625 -0.0625,-0.3125 0,-0.17187 0.0625,-0.3125 0.0625,-0.14062 0.17187,-0.25 0.10938,-0.125 0.25,-0.17187 0.14063,-0.0625 0.3125,-0.0625 z m 7.87891,10.74999 -2.89063,0 0,-0.82812 1.90625,0 0,-9.25 -1.90625,0 0,-0.8125 2.89063,0 0,10.89062 z m 3.48828,-1.20312 q 0.29687,0.0156 0.57812,-0.0625 0.28125,-0.0625 0.48438,-0.1875 0.21875,-0.125 0.34375,-0.3125 0.14062,-0.1875 0.14062,-0.42188 0,-0.25 -0.0937,-0.39062 -0.0781,-0.15625 -0.1875,-0.28125 -0.10937,-0.14063 -0.1875,-0.28125 -0.0781,-0.15625 -0.0781,-0.39063 0,-0.125 0.0469,-0.26562 0.0469,-0.14063 0.14063,-0.25 0.0937,-0.10938 0.23437,-0.17188 0.15625,-0.0781 0.35938,-0.0781 0.20312,0 0.39062,0.0937 0.20313,0.0781 0.34375,0.26562 0.14063,0.17188 0.21875,0.4375 0.0937,0.25 0.0937,0.60938 0,0.48437 -0.1875,0.9375 -0.17187,0.45312 -0.53125,0.79687 -0.34375,0.34375 -0.875,0.54688 -0.53125,0.20312 -1.23437,0.20312 l 0,-0.79687 z m 1.82812,-7.1875 q 0.1875,0 0.34375,0.0781 0.17188,0.0625 0.29688,0.1875 0.125,0.125 0.1875,0.29687 0.0781,0.15625 0.0781,0.32813 0,0.1875 -0.0781,0.35937 -0.0625,0.15625 -0.1875,0.28125 -0.125,0.125 -0.29688,0.20313 -0.15625,0.0625 -0.34375,0.0625 -0.1875,0 -0.34375,-0.0625 -0.15625,-0.0781 -0.28125,-0.20313 -0.125,-0.125 -0.20312,-0.28125 -0.0625,-0.17187 -0.0625,-0.35937 0,-0.17188 0.0625,-0.32813 0.0781,-0.17187 0.20312,-0.29687 0.125,-0.125 0.28125,-0.1875 0.15625,-0.0781 0.34375,-0.0781 z"
       id="path3111"
       inkscape:connector-curvature="0"
       style="fill:#3e5915;fill-rule:nonzero" />
    <path
       d="m 48.587845,140.46082 0.4375,0 q 1.125,0 1.671875,0.53125 0.5625,0.53125 0.5625,1.60937 l 0,1.34375 q 0,0.29688 0.0625,0.53125 0.0625,0.21875 0.21875,0.375 0.15625,0.15625 0.421875,0.23438 0.28125,0.0781 0.6875,0.0781 l 0.25,0 0,0.8125 -0.25,0 q -0.4375,0 -0.703125,0.0781 -0.265625,0.0625 -0.421875,0.21875 -0.15625,0.14062 -0.21875,0.35937 -0.04687,0.21875 -0.04687,0.53125 l 0,2.04688 q 0,0.48437 -0.125,0.875 -0.109375,0.40625 -0.375,0.6875 -0.265625,0.28125 -0.703125,0.42187 -0.421875,0.15625 -1.03125,0.15625 l -0.4375,0 0,-0.82812 0.34375,0 q 1.359375,0 1.359375,-1.3125 l 0,-2.03125 q 0,-1.42188 1.234375,-1.60938 -1.25,-0.125 -1.25,-1.60937 l 0,-1.34375 q 0,-1.34375 -1.34375,-1.34375 l -0.34375,0 0,-0.8125 z"
       id="path3113"
       inkscape:connector-curvature="0"
       style="fill:#3e5915;fill-rule:nonzero" />
  </g>
</svg>
