<?xml version="1.0" encoding="UTF-8" standalone="no"?>
<!-- Created with Inkscape (http://www.inkscape.org/) -->

<svg
   xmlns:dc="http://purl.org/dc/elements/1.1/"
   xmlns:cc="http://creativecommons.org/ns#"
   xmlns:rdf="http://www.w3.org/1999/02/22-rdf-syntax-ns#"
   xmlns:svg="http://www.w3.org/2000/svg"
   xmlns="http://www.w3.org/2000/svg"
   xmlns:sodipodi="http://sodipodi.sourceforge.net/DTD/sodipodi-0.dtd"
   xmlns:inkscape="http://www.inkscape.org/namespaces/inkscape"
   width="100.46169mm"
   height="69.155556mm"
   viewBox="0 0 355.96657 245.03937"
   id="svg5534"
   version="1.1"
   inkscape:version="0.91 r13725"
   sodipodi:docname="sc_query.svg">
  <defs
     id="defs5536" />
  <sodipodi:namedview
     id="base"
     pagecolor="#ffffff"
     bordercolor="#666666"
     borderopacity="1.0"
     inkscape:pageopacity="0.0"
     inkscape:pageshadow="2"
     inkscape:zoom="2.8"
     inkscape:cx="54.280781"
     inkscape:cy="97.941459"
     inkscape:document-units="px"
     inkscape:current-layer="g5564"
     showgrid="false"
     fit-margin-top="0"
     fit-margin-left="0"
     fit-margin-right="0"
     fit-margin-bottom="0"
     inkscape:window-width="1680"
     inkscape:window-height="1000"
     inkscape:window-x="1050"
     inkscape:window-y="27"
     inkscape:window-maximized="1" />
  <metadata
     id="metadata5539">
    <rdf:RDF>
      <cc:Work
         rdf:about="">
        <dc:format>image/svg+xml</dc:format>
        <dc:type
           rdf:resource="http://purl.org/dc/dcmitype/StillImage" />
        <dc:title></dc:title>
      </cc:Work>
    </rdf:RDF>
  </metadata>
  <g
     inkscape:label="Layer 1"
     inkscape:groupmode="layer"
     id="layer1"
     transform="translate(-744.87385,-206.78941)">
    <g
       transform="translate(-14.285723,-15.428565)"
       id="g5564">
      <path
         style="fill:#0070c0;fill-rule:nonzero;stroke:none;stroke-linecap:square;stroke-miterlimit:10"
         inkscape:connector-curvature="0"
         id="path5134"
         d="m 784.61804,222.71798 202.44189,0 0,145.59174 -202.44189,0 z" />
      <path
         style="fill:none;fill-rule:nonzero;stroke:#000000;stroke-width:1;stroke-linecap:butt;stroke-linejoin:round;stroke-miterlimit:10"
         inkscape:connector-curvature="0"
         id="path5136"
         d="m 784.61804,222.71798 202.44189,0 0,145.59174 -202.44189,0 z" />
      <path
         style="fill:#c00000;fill-rule:nonzero;stroke:none;stroke-linecap:square;stroke-miterlimit:10"
         inkscape:connector-curvature="0"
         id="path5130"
         d="M 862.26723,436.25243 988.44673,225.49105 1114.6262,436.25243 Z" />
      <path
         style="fill:none;fill-rule:nonzero;stroke:#000000;stroke-width:1;stroke-linecap:butt;stroke-linejoin:round;stroke-miterlimit:10"
         inkscape:connector-curvature="0"
         id="path5132"
         d="M 862.26723,436.25243 988.44673,225.49105 1114.6262,436.25243 Z" />
      <path
         style="fill:#ffc000;fill-rule:nonzero;stroke:none;stroke-linecap:square;stroke-miterlimit:10"
         inkscape:connector-curvature="0"
         id="path5138"
         d="m 759.65957,388.41519 0,0 c 0,-43.26721 37.86856,-78.34222 84.58196,-78.34222 l 0,0 c 46.7132,0 84.5818,35.07501 84.5818,78.34222 l 0,0 c 0,43.26715 -37.8686,78.34216 -84.5818,78.34216 l 0,0 c -46.7134,0 -84.58196,-35.07501 -84.58196,-78.34216 z" />
      <path
         style="fill:none;fill-rule:nonzero;stroke:#000000;stroke-width:1;stroke-linecap:butt;stroke-linejoin:round;stroke-miterlimit:10"
         inkscape:connector-curvature="0"
         id="path5140"
         d="m 759.65957,388.41519 0,0 c 0,-43.26721 37.86856,-78.34222 84.58196,-78.34222 l 0,0 c 46.7132,0 84.5818,35.07501 84.5818,78.34222 l 0,0 c 0,43.26715 -37.8686,78.34216 -84.5818,78.34216 l 0,0 c -46.7134,0 -84.58196,-35.07501 -84.58196,-78.34216 z" />
      <path
         inkscape:connector-curvature="0"
         style="fill:#000000;fill-opacity:1;fill-rule:nonzero;stroke:none;stroke-linecap:square;stroke-miterlimit:10"
         id="path5142"
         d="m 912.23623,354.40798 0,0 c 0,-3.82898 3.104,-6.93292 6.9329,-6.93292 l 0,0 c 1.8388,0 3.6022,0.73041 4.9024,2.03058 1.3002,1.30023 2.0306,3.06359 2.0306,4.90234 l 0,0 c 0,3.82898 -3.104,6.93298 -6.933,6.93298 l 0,0 c -3.8289,0 -6.9329,-3.104 -6.9329,-6.93298 z" />
      <path
         style="fill:none;fill-rule:nonzero;stroke:#000000;stroke-width:1;stroke-linecap:butt;stroke-linejoin:round;stroke-miterlimit:10"
         inkscape:connector-curvature="0"
         id="path5144"
         d="m 912.23623,354.40798 0,0 c 0,-3.82898 3.104,-6.93292 6.9329,-6.93292 l 0,0 c 1.8388,0 3.6022,0.73041 4.9024,2.03058 1.3002,1.30023 2.0306,3.06359 2.0306,4.90234 l 0,0 c 0,3.82898 -3.104,6.93298 -6.933,6.93298 l 0,0 c -3.8289,0 -6.9329,-3.104 -6.9329,-6.93298 z" />
      <path
         style="fill:#000000;fill-opacity:0;fill-rule:nonzero;stroke:none;stroke-linecap:square;stroke-miterlimit:10"
         inkscape:connector-curvature="0"
         id="path5146"
         d="m 888.04313,348.30703 33.8832,0 0,46.20429 -33.8832,0 z" />
      <path
         inkscape:connector-curvature="0"
         style="fill:#000000;fill-opacity:1;fill-rule:nonzero;stroke:none;stroke-linecap:square;stroke-miterlimit:10"
         id="path5148"
         d="m 898.49633,369.48019 5.4531,-0.9375 q 1.4844,2.32813 2.0938,5.125 1.5312,-2.26562 2.3125,-3.17187 1.0468,-1.21875 1.7187,-1.57813 0.6875,-0.375 1.4531,-0.375 0.8594,0 1.3125,0.46875 0.4688,0.46875 0.4688,1.26563 0,0.75 -0.4688,1.23437 -0.4531,0.46875 -1.1406,0.46875 -0.5,0 -1.1562,-0.17187 -0.6407,-0.1875 -0.8907,-0.1875 -0.6562,0 -1.25,0.46875 -0.8125,0.64062 -2,2.73437 1.3282,4.6875 2.125,5.71875 0.4688,0.60938 0.9532,0.60938 0.4062,0 0.7031,-0.20313 0.4531,-0.32812 1.3906,-1.64062 l 0.5625,0.32812 q -1.375,2.21875 -2.6875,3.125 -1,0.70313 -1.9687,0.70313 -1,0 -1.6719,-0.4375 -0.6563,-0.45313 -1.1719,-1.45313 -0.5156,-1.01562 -1.2187,-3.23437 -1.8282,2.32812 -2.875,3.40625 -1.0313,1.0625 -1.7188,1.39062 -0.6875,0.32813 -1.4687,0.32813 -0.8125,0 -1.2813,-0.46875 -0.4844,-0.46875 -0.4844,-1.21875 0,-0.79688 0.5157,-1.3125 0.5156,-0.51563 1.3125,-0.51563 0.4218,0 0.9531,0.25 0.7812,0.375 1.125,0.375 0.4531,0 0.8125,-0.1875 0.4687,-0.23437 1.1875,-1.01562 0.4375,-0.48438 1.6094,-2.0625 -1.5,-5.5625 -2.3438,-6.65625 -0.5312,-0.70313 -1.3437,-0.70313 -0.4219,0 -1.0313,0.125 l 0.1094,-0.59375 z" />
      <path
         style="fill:#000000;fill-opacity:0;fill-rule:nonzero;stroke:none;stroke-linecap:square;stroke-miterlimit:10"
         inkscape:connector-curvature="0"
         id="path5150"
         d="m 889.80653,233.47448 47.5198,0 0,46.20425 -47.5198,0 z" />
      <path
         style="fill:#000000;fill-opacity:0;fill-rule:nonzero;stroke:none;stroke-linecap:square;stroke-miterlimit:10"
         inkscape:connector-curvature="0"
         id="path5156"
         d="m 791.14583,394.51133 39.0169,0 0,46.20422 -39.0169,0 z" />
      <path
         style="fill:#000000;fill-rule:nonzero;stroke:none;stroke-linecap:square;stroke-miterlimit:10"
         inkscape:connector-curvature="0"
         id="path5158"
         d="m 823.14583,417.71566 0.6875,-17.71875 q 0.047,-1.54687 0.047,-1.625 0,-0.85937 -0.4219,-1.26562 -0.4062,-0.40625 -1.5156,-0.48438 l 0.1875,-0.57812 8.9063,0 -0.1719,0.57812 q -1.1406,0 -1.7344,0.6875 -0.5781,0.6875 -0.6719,2.84375 l -0.5,11.04688 8.2657,-9.59375 q 1.6093,-1.85938 1.9843,-2.57813 0.375,-0.71875 0.375,-1.25 0,-0.39062 -0.3437,-0.6875 -0.3438,-0.3125 -1.3125,-0.46875 l 0.2187,-0.57812 5.8438,0 0,0.57812 q -0.75,0.1875 -1.2188,0.54688 -0.6875,0.51562 -2.125,2.1875 l -15.8125,18.35937 -0.6875,0 z" />
      <path
         style="fill:#000000;fill-opacity:0;fill-rule:nonzero;stroke:none;stroke-linecap:square;stroke-miterlimit:10"
         inkscape:connector-curvature="0"
         id="path5160"
         d="m 823.25043,279.67873 39.0168,0 0,46.20428 -39.0168,0 z" />
      <path
         style="fill:#000000;fill-rule:nonzero;stroke:none;stroke-linecap:square;stroke-miterlimit:10"
         inkscape:connector-curvature="0"
         id="path5162"
         d="m 849.20353,279.49694 8.375,0 q 2.7969,0 4,0.29687 1.5781,0.375 2.4375,1.46875 0.875,1.07813 0.875,2.4531 0,1.125 -0.6875,2.29687 -0.6875,1.17188 -2.0625,1.9375 -1.3594,0.75 -4.1875,1.39063 2.9375,0.82812 4.0781,2.125 1.1407,1.29687 1.1407,3.01562 0,1.60938 -1.125,3.1875 -1.125,1.5625 -2.9844,2.29688 -1.8594,0.71875 -6.8125,0.71875 l -8.8125,0 0.2031,-0.57813 q 1.2813,0 1.8281,-0.23437 0.5625,-0.23438 0.8907,-0.71875 0.3437,-0.5 0.7968,-2.0625 l 3.7813,-13.03125 q 0.5781,-1.98435 0.5781,-2.65622 0,-0.54688 -0.4687,-0.90625 -0.4532,-0.35938 -2,-0.42188 l 0.1562,-0.57812 z m 4.7969,9.35934 q 2.125,-0.0312 3.3437,-0.67187 1.2344,-0.64063 1.9688,-2.09375 0.75,-1.46875 0.75,-2.7656 0,-1.21875 -0.7656,-1.98437 -0.7657,-0.76563 -2.0469,-0.73438 l -0.8594,0.0312 -2.3906,8.21872 z m -0.375,1.17188 -2.7031,9.42187 q 0.7812,0.0312 1.1718,0.0312 3.4844,0 4.8438,-1.9375 1.3594,-1.95312 1.3594,-4.17187 0,-1.0625 -0.5313,-1.875 -0.5156,-0.82813 -1.3437,-1.14063 -0.8282,-0.32812 -2.7969,-0.32812 z" />
      <g
         id="p16.3"
         style="fill:none;stroke:none;stroke-linecap:square;stroke-miterlimit:10"
         transform="translate(254.45034,-214.90177)">
        <path
           style="fill:#000000;fill-opacity:0;fill-rule:nonzero"
           inkscape:connector-curvature="0"
           id="path5196"
           d="M 664.71875,569.3097 708.6759,540.7848" />
        <path
           style="fill-rule:evenodd;stroke:#000000;stroke-width:2.66666675;stroke-linecap:butt;stroke-linejoin:round"
           inkscape:connector-curvature="0"
           id="path5198"
           d="m 664.71875,569.3097 36.29102,-23.55011" />
        <path
           style="fill:#000000;fill-rule:evenodd;stroke:#000000;stroke-width:2.66666675;stroke-linecap:butt"
           inkscape:connector-curvature="0"
           id="path5200"
           d="m 701.0097,545.7596 -0.88318,4.14807 5.27924,-7.00073 -8.54413,1.96948 z" />
      </g>
    </g>
  </g>
</svg>
