<svg class="main-svg" xmlns="http://www.w3.org/2000/svg" xmlns:xlink="http://www.w3.org/1999/xlink" width="900" height="600"><rect x="0" y="0" width="900" height="600" style="fill: rgb(0, 0, 0); fill-opacity: 0;"/><defs id="defs-2e07af"><g class="clips"><clipPath class="axesclip" id="clip2e07afx"><rect x="80" y="0" width="638" height="600"/></clipPath><clipPath class="axesclip" id="clip2e07afy"><rect x="0" y="100" width="900" height="420"/></clipPath><clipPath class="axesclip" id="clip2e07afxy"><rect x="80" y="100" width="638" height="420"/></clipPath><clipPath class="plotclip" id="clip2e07afxyplot"><rect width="638" height="420"/></clipPath></g></defs><g class="bglayer"><rect class="bg" x="80" y="100" width="638" height="420" style="fill: rgb(0, 0, 0); fill-opacity: 0; stroke-width: 0px;"/></g><g class="layer-below"><g class="imagelayer"/><g class="shapelayer"/></g><g class="cartesianlayer"><g class="subplot xy"><g class="layer-subplot"><g class="shapelayer"/><g class="imagelayer"/></g><g class="gridlayer" transform="translate(80,100)"><path class="xgrid crisp" d="M0,0v420" transform="translate(155.61,0)" style="stroke: rgb(127, 127, 127); stroke-opacity: 0.53; stroke-width: 1px;"/><path class="xgrid crisp" d="M0,0v420" transform="translate(311.22,0)" style="stroke: rgb(127, 127, 127); stroke-opacity: 0.53; stroke-width: 1px;"/><path class="xgrid crisp" d="M0,0v420" transform="translate(466.83,0)" style="stroke: rgb(127, 127, 127); stroke-opacity: 0.53; stroke-width: 1px;"/><path class="xgrid crisp" d="M0,0v420" transform="translate(622.44,0)" style="stroke: rgb(127, 127, 127); stroke-opacity: 0.53; stroke-width: 1px;"/><path class="ygrid crisp" d="M0,0h638" transform="translate(0,323.4)" style="stroke: rgb(127, 127, 127); stroke-opacity: 0.52; stroke-width: 1px;"/><path class="ygrid crisp" d="M0,0h638" transform="translate(0,247.8)" style="stroke: rgb(127, 127, 127); stroke-opacity: 0.52; stroke-width: 1px;"/><path class="ygrid crisp" d="M0,0h638" transform="translate(0,172.2)" style="stroke: rgb(127, 127, 127); stroke-opacity: 0.52; stroke-width: 1px;"/><path class="ygrid crisp" d="M0,0h638" transform="translate(0,96.6)" style="stroke: rgb(127, 127, 127); stroke-opacity: 0.52; stroke-width: 1px;"/><path class="ygrid crisp" d="M0,0h638" transform="translate(0,21)" style="stroke: rgb(127, 127, 127); stroke-opacity: 0.52; stroke-width: 1px;"/></g><g class="overgrid"/><g class="zerolinelayer" transform="translate(80,100)"><path class="yzl zl crisp" d="M0,0h638" transform="translate(0,399)" style="stroke: rgb(68, 68, 68); stroke-opacity: 1; stroke-width: 1px;"/></g><g class="overzero"/><g class="plot" transform="translate(80, 100)" clip-path="url(#clip2e07afxyplot)"><g class="imagelayer"/><g class="maplayer"/><g class="barlayer"/><g class="carpetlayer"/><g class="boxlayer"/><g class="scatterlayer"><g class="trace scatter trace6540ad" style="stroke-miterlimit: 2; opacity: 1;"><path class="js-line" d="M0,21L18.69,53.69L21.81,58.87L40.5,88.37L43.61,93.02L62.31,119.21L65.42,123.29L84.11,146.05L87.23,149.57L102.81,166.02L105.92,169.1L124.61,186.19L127.73,188.82L146.42,203.46L149.53,205.72L168.23,218.34L171.34,220.3L193.15,232.95L196.26,234.62L221.19,246.9L224.3,248.32L252.34,259.98L255.46,261.17L283.49,271.04L286.61,272.05L317.76,281.37L320.88,282.23L355.15,290.93L358.26,291.66L401.88,300.92L404.99,301.52L454.84,310.24L457.95,310.73L510.91,318.36L514.03,318.77L573.22,325.82L576.33,326.16L676.02,335.52L679.14,335.77L903.44,349.93L906.56,350.08L1523.39,368.71L1526.5,368.76L3112.2,383.71" style="vector-effect: non-scaling-stroke; fill: none; stroke: rgb(0, 0, 0); stroke-opacity: 1; stroke-width: 2px; opacity: 1;"/><g class="points"/></g><g class="trace scatter trace3c19c5" style="stroke-miterlimit: 2; opacity: 1;"><path class="js-line" d="M0.31,40.75L6.45,51.4L7.25,52.76L23.25,79.11L26.13,83.65L41.65,107.07L46.8,114.45L59.09,131L66.4,140.21L83.84,160.52L94.21,171.35L105.86,182.67L118.94,194.2L133.65,206.02L150.18,217.86L168.75,229.7L189.62,241.41L213.06,252.78L239.41,263.91L269.01,274.69L302.28,284.81L339.66,294.4L381.66,303.49L428.85,312.06L481.88,319.92L541.47,327.26L608.42,334.11L768.2,346.04L863.19,351.25L1546.21,371.04L1737.41,373.97L3112.2,384.72" style="vector-effect: non-scaling-stroke; fill: none; stroke: rgb(255, 127, 14); stroke-opacity: 1; stroke-width: 2px; opacity: 1; stroke-dasharray: 9px, 9px;"/><g class="points"/></g><g class="trace scatter trace9b0b0c" style="stroke-miterlimit: 2; opacity: 1;"><path class="js-line" d="M0.31,131.49L18.42,156.68L20.69,159.71L37.07,180.15L41.65,185.51L59.09,204.58L66.4,211.91L83.84,227.53L94.21,235.99L118.94,253.56L133.65,262.33L150.18,271.22L168.75,280.03L189.62,288.63L213.06,297.01L239.41,304.96L269.01,312.66L302.28,319.83L339.66,326.69L381.66,333.01L428.85,339.06L481.88,344.59L541.47,349.83L683.66,358.76L768.2,362.66L1376.06,377.79L1546.21,379.99L3112.2,389.31" style="vector-effect: non-scaling-stroke; fill: none; stroke: rgb(44, 160, 44); stroke-opacity: 1; stroke-width: 2px; opacity: 1; stroke-dasharray: 15px, 15px;"/><g class="points"/></g><g class="trace scatter trace30f27a" style="stroke-miterlimit: 2; opacity: 1;"><path class="js-line" d="M0.31,266.75L9.15,274.66L10.28,275.64L23.25,286.24L26.13,288.5L41.65,299.72L46.8,303.13L66.4,314.68L74.61,318.88L94.21,327.47L105.86,331.86L133.65,340.54L150.18,344.75L189.62,352.73L213.06,356.5L269.01,363.39L302.28,366.53L381.66,372.19L428.85,374.67L541.47,379.16L608.42,381.13L1376.06,390.67L1546.21,391.54L3112.2,395.26" style="vector-effect: non-scaling-stroke; fill: none; stroke: rgb(214, 39, 40); stroke-opacity: 1; stroke-width: 2px; opacity: 1; stroke-dasharray: 15px, 6px, 3px, 6px;"/><g class="points"/></g><g class="trace scatter trace8cf13a" style="stroke-miterlimit: 2; opacity: 1;"><path class="js-line" d="M0.31,349.88L6.45,352.81L7.25,353.21L32.99,363.67L37.07,365.05L59.09,371.2L66.4,372.82L94.21,377.7L105.86,379.24L150.18,383.56L168.75,384.87L239.41,388.3L269.01,389.3L381.66,391.87L428.85,392.58L3112.2,398.07" style="vector-effect: non-scaling-stroke; fill: none; stroke: rgb(148, 103, 189); stroke-opacity: 1; stroke-width: 2px; opacity: 1; stroke-dasharray: 9px, 3px, 3px, 3px;"/><g class="points"/></g><g class="trace scatter tracee10f63" style="stroke-miterlimit: 2; opacity: 1;"><path class="js-line" d="M0.31,392.48L14.59,394.86L16.39,395.07L37.07,396.56L41.65,396.76L83.84,397.73L94.21,397.84L239.41,398.51L269.01,398.56L3112.2,398.96" style="vector-effect: non-scaling-stroke; fill: none; stroke: rgb(140, 86, 75); stroke-opacity: 1; stroke-width: 2px; opacity: 1; stroke-dasharray: 9px, 9px;"/><g class="points"/></g><g class="trace scatter trace4cd7ca" style="stroke-miterlimit: 2; opacity: 1;"><path class="js-line" d="M0.31,399L3112.2,399" style="vector-effect: non-scaling-stroke; fill: none; stroke: rgb(227, 119, 194); stroke-opacity: 1; stroke-width: 2px; opacity: 1;"/><g class="points"/></g></g></g><g class="overplot"/><path class="xlines crisp" transform="translate(80,100)" d="M-1,420.5h640" style="fill: none; stroke-width: 1px; stroke: rgb(0, 0, 0); stroke-opacity: 0;"/><path class="ylines crisp" transform="translate(80,100)" d="M-0.5,-1v421" stroke-width="1px" style="fill: none; stroke: rgb(0, 0, 0); stroke-opacity: 0;"/><g class="overlines"/><g class="xaxislayer" transform="translate(80,100)"><g class="xtick"><text text-anchor="middle" x="0" y="438" transform="translate(0,0)" style="font-family: 'Open Sans', verdana, arial, sans-serif; font-size: 16px; fill: rgb(68, 68, 68); fill-opacity: 1; visibility: visible; white-space: pre;" data-bb="7568">0</text></g><g class="xtick"><text text-anchor="middle" x="0" y="438" transform="translate(155.61,0)" style="font-family: 'Open Sans', verdana, arial, sans-serif; font-size: 16px; fill: rgb(68, 68, 68); fill-opacity: 1; visibility: visible; white-space: pre;" data-bb="7569">50</text></g><g class="xtick"><text text-anchor="middle" x="0" y="438" transform="translate(311.22,0)" style="font-family: 'Open Sans', verdana, arial, sans-serif; font-size: 16px; fill: rgb(68, 68, 68); fill-opacity: 1; visibility: visible; white-space: pre;" data-bb="7570">100</text></g><g class="xtick"><text text-anchor="middle" x="0" y="438" transform="translate(466.83,0)" style="font-family: 'Open Sans', verdana, arial, sans-serif; font-size: 16px; fill: rgb(68, 68, 68); fill-opacity: 1; visibility: visible; white-space: pre;" data-bb="7571">150</text></g><g class="xtick"><text text-anchor="middle" x="0" y="438" transform="translate(622.44,0)" style="font-family: 'Open Sans', verdana, arial, sans-serif; font-size: 16px; fill: rgb(68, 68, 68); fill-opacity: 1; visibility: visible; white-space: pre;" data-bb="7572">200</text></g></g><g class="yaxislayer" transform="translate(80,100)"><g class="ytick"><text text-anchor="end" x="-2" y="8" transform="translate(0,399)" style="font-family: 'Open Sans', verdana, arial, sans-serif; font-size: 16px; fill: rgb(68, 68, 68); fill-opacity: 1; visibility: visible; white-space: pre;">0</text></g><g class="ytick"><text text-anchor="end" x="-2" y="8" transform="translate(0,323.4)" style="font-family: 'Open Sans', verdana, arial, sans-serif; font-size: 16px; fill: rgb(68, 68, 68); fill-opacity: 1; visibility: visible; white-space: pre;">0.2</text></g><g class="ytick"><text text-anchor="end" x="-2" y="8" transform="translate(0,247.8)" style="font-family: 'Open Sans', verdana, arial, sans-serif; font-size: 16px; fill: rgb(68, 68, 68); fill-opacity: 1; visibility: visible; white-space: pre;">0.4</text></g><g class="ytick"><text text-anchor="end" x="-2" y="8" transform="translate(0,172.2)" style="font-family: 'Open Sans', verdana, arial, sans-serif; font-size: 16px; fill: rgb(68, 68, 68); fill-opacity: 1; visibility: visible; white-space: pre;">0.6</text></g><g class="ytick"><text text-anchor="end" x="-2" y="8" transform="translate(0,96.6)" style="font-family: 'Open Sans', verdana, arial, sans-serif; font-size: 16px; fill: rgb(68, 68, 68); fill-opacity: 1; visibility: visible; white-space: pre;">0.8</text></g><g class="ytick"><text text-anchor="end" x="-2" y="8" transform="translate(0,21)" style="font-family: 'Open Sans', verdana, arial, sans-serif; font-size: 16px; fill: rgb(68, 68, 68); fill-opacity: 1; visibility: visible; white-space: pre;">1</text></g></g><g class="overaxes"/></g></g><g class="ternarylayer"/><g class="geolayer"/><g class="layer-above"><g class="imagelayer"/><g class="shapelayer"/></g><g class="pielayer"/><g class="glimages"/><defs id="topdefs-2e07af"><clipPath id="legend2e07af"><rect width="170" height="177" x="0" y="0"/></clipPath></defs><g class="infolayer"><g class="g-gtitle"/><g class="g-xtitle" transform="translate(0,-2.9921875)"/><g class="g-ytitle"><text class="ytitle" transform="rotate(-90,26,310) translate(0, 0)" x="26" y="310" text-anchor="middle" style="font-family: 'Open Sans', verdana, arial, sans-serif; font-size: 22px; fill: rgb(68, 68, 68); opacity: 1; font-weight: normal; white-space: pre; visibility: visible;">Utilization</text></g><g class="legend" pointer-events="all" transform="translate(718, 100)"><rect class="bg" shape-rendering="crispEdges" style="stroke: rgb(68, 68, 68); stroke-opacity: 1; fill: rgb(0, 0, 0); fill-opacity: 0; stroke-width: 0px;" width="170" height="177" x="0" y="0"/><g class="scrollbox" transform="translate(0, 0)" clip-path="url(#legend2e07af)"><g class="groups"><g class="traces" transform="translate(0, 16.9)" style="opacity: 1;"><g class="layers" style="opacity: 1;"><g class="legendfill"/><g class="legendlines"><path class="js-line" d="M5,0h30" style="fill: none; stroke: rgb(0, 0, 0); stroke-opacity: 1; stroke-width: 2px;"/></g><g class="legendsymbols"><g class="legendpoints"/></g></g><text class="legendtext user-select-none" x="40" y="6.24" style="text-anchor: start; font-family: 'Open Sans', verdana, arial, sans-serif; font-size: 16px; fill: rgb(68, 68, 68); fill-opacity: 1; white-space: pre; visibility: visible;" data-bb="7561">Theoretical Limit</text><rect class="legendtoggle" pointer-events="all" style="cursor: pointer; fill: rgb(0, 0, 0); fill-opacity: 0;" x="0" y="-11.9" width="210" height="23.8"/></g><g class="traces" transform="translate(0, 40.7)" style="opacity: 1;"><g class="layers" style="opacity: 1;"><g class="legendfill"/><g class="legendlines"><path class="js-line" d="M5,0h30" style="fill: none; stroke: rgb(255, 127, 14); stroke-opacity: 1; stroke-dasharray: 9px, 9px; stroke-width: 2px;"/></g><g class="legendsymbols"><g class="legendpoints"/></g></g><text class="legendtext user-select-none" x="40" y="6.24" style="text-anchor: start; font-family: 'Open Sans', verdana, arial, sans-serif; font-size: 16px; fill: rgb(68, 68, 68); fill-opacity: 1; white-space: pre; visibility: visible;" data-bb="7562">h = 1.00 cm</text><rect class="legendtoggle" pointer-events="all" style="cursor: pointer; fill: rgb(0, 0, 0); fill-opacity: 0;" x="0" y="-11.9" width="210" height="23.8"/></g><g class="traces" transform="translate(0, 64.5)" style="opacity: 1;"><g class="layers" style="opacity: 1;"><g class="legendfill"/><g class="legendlines"><path class="js-line" d="M5,0h30" style="fill: none; stroke: rgb(44, 160, 44); stroke-opacity: 1; stroke-dasharray: 15px, 15px; stroke-width: 2px;"/></g><g class="legendsymbols"><g class="legendpoints"/></g></g><text class="legendtext user-select-none" x="40" y="6.24" style="text-anchor: start; font-family: 'Open Sans', verdana, arial, sans-serif; font-size: 16px; fill: rgb(68, 68, 68); fill-opacity: 1; white-space: pre; visibility: visible;" data-bb="7563">h = 6.21 cm</text><rect class="legendtoggle" pointer-events="all" style="cursor: pointer; fill: rgb(0, 0, 0); fill-opacity: 0;" x="0" y="-11.9" width="210" height="23.8"/></g><g class="traces" transform="translate(0, 88.30000000000001)" style="opacity: 1;"><g class="layers" style="opacity: 1;"><g class="legendfill"/><g class="legendlines"><path class="js-line" d="M5,0h30" style="fill: none; stroke: rgb(214, 39, 40); stroke-opacity: 1; stroke-dasharray: 15px, 6px, 3px, 6px; stroke-width: 2px;"/></g><g class="legendsymbols"><g class="legendpoints"/></g></g><text class="legendtext user-select-none" x="40" y="6.24" style="text-anchor: start; font-family: 'Open Sans', verdana, arial, sans-serif; font-size: 16px; fill: rgb(68, 68, 68); fill-opacity: 1; white-space: pre; visibility: visible;" data-bb="7564">h = 16.63 cm</text><rect class="legendtoggle" pointer-events="all" style="cursor: pointer; fill: rgb(0, 0, 0); fill-opacity: 0;" x="0" y="-11.9" width="210" height="23.8"/></g><g class="traces" transform="translate(0, 112.10000000000001)" style="opacity: 1;"><g class="layers" style="opacity: 1;"><g class="legendfill"/><g class="legendlines"><path class="js-line" d="M5,0h30" style="fill: none; stroke: rgb(148, 103, 189); stroke-opacity: 1; stroke-dasharray: 9px, 3px, 3px, 3px; stroke-width: 2px;"/></g><g class="legendsymbols"><g class="legendpoints"/></g></g><text class="legendtext user-select-none" x="40" y="6.24" style="text-anchor: start; font-family: 'Open Sans', verdana, arial, sans-serif; font-size: 16px; fill: rgb(68, 68, 68); fill-opacity: 1; white-space: pre; visibility: visible;" data-bb="7565">h = 27.05 cm</text><rect class="legendtoggle" pointer-events="all" style="cursor: pointer; fill: rgb(0, 0, 0); fill-opacity: 0;" x="0" y="-11.9" width="210" height="23.8"/></g><g class="traces" transform="translate(0, 135.9)" style="opacity: 1;"><g class="layers" style="opacity: 1;"><g class="legendfill"/><g class="legendlines"><path class="js-line" d="M5,0h30" style="fill: none; stroke: rgb(140, 86, 75); stroke-opacity: 1; stroke-dasharray: 9px, 9px; stroke-width: 2px;"/></g><g class="legendsymbols"><g class="legendpoints"/></g></g><text class="legendtext user-select-none" x="40" y="6.24" style="text-anchor: start; font-family: 'Open Sans', verdana, arial, sans-serif; font-size: 16px; fill: rgb(68, 68, 68); fill-opacity: 1; white-space: pre; visibility: visible;" data-bb="7566">h = 37.47 cm</text><rect class="legendtoggle" pointer-events="all" style="cursor: pointer; fill: rgb(0, 0, 0); fill-opacity: 0;" x="0" y="-11.9" width="210" height="23.8"/></g><g class="traces" transform="translate(0, 159.70000000000002)" style="opacity: 1;"><g class="layers" style="opacity: 1;"><g class="legendfill"/><g class="legendlines"><path class="js-line" d="M5,0h30" style="fill: none; stroke: rgb(227, 119, 194); stroke-opacity: 1; stroke-width: 2px;"/></g><g class="legendsymbols"><g class="legendpoints"/></g></g><text class="legendtext user-select-none" x="40" y="6.24" style="text-anchor: start; font-family: 'Open Sans', verdana, arial, sans-serif; font-size: 16px; fill: rgb(68, 68, 68); fill-opacity: 1; white-space: pre; visibility: visible;" data-bb="7567">h = 100.00 cm</text><rect class="legendtoggle" pointer-events="all" x="0" y="-11.9" width="210" height="23.8" style="cursor: pointer; fill: rgb(0, 0, 0); fill-opacity: 0;"/></g></g></g><rect class="scrollbar" rx="20" ry="2" width="0" height="0" style="fill: rgb(128, 139, 164); fill-opacity: 1;"/></g><g class="annotation" data-index="0" style="opacity: 1;"><g class="annotation-text-g" data-index="0" transform="rotate(0,679.9599999999999,570)"><g class="cursor-default" transform="translate(533, 557)"><rect class="bg" x="0.5" y="0.5" width="292" height="25" style="stroke-width: 1px; stroke: rgb(0, 0, 0); stroke-opacity: 0; fill: rgb(0, 0, 0); fill-opacity: 0;"/><text class="annotation" text-anchor="middle" style="font-family: 'Open Sans', verdana, arial, sans-serif; font-size: 16px; fill: rgb(68, 68, 68); fill-opacity: 1; visibility: visible; white-space: pre;" data-bb="7573" x="146.6875" y="19">h - signed distance field mesh step size</text></g></g></g></g></svg>