<svg class="main-svg" xmlns="http://www.w3.org/2000/svg" xmlns:xlink="http://www.w3.org/1999/xlink" width="600" height="400"><rect x="0" y="0" width="600" height="400" style="fill: rgb(255, 255, 255); fill-opacity: 1;"/><defs id="defs-5929a9"><g class="clips"><clipPath class="axesclip" id="clip5929a9x"><rect x="80" y="0" width="440" height="400"/></clipPath><clipPath class="axesclip" id="clip5929a9y"><rect x="0" y="100" width="600" height="220"/></clipPath><clipPath class="axesclip" id="clip5929a9xy"><rect x="80" y="100" width="440" height="220"/></clipPath><clipPath class="plotclip" id="clip5929a9xyplot"><rect width="440" height="220"/></clipPath></g></defs><g class="bglayer"><rect class="bg" x="80" y="100" width="440" height="220" style="fill: rgb(255, 255, 255); fill-opacity: 1; stroke-width: 0px;"/></g><g class="layer-below"><g class="imagelayer"/><g class="shapelayer"/></g><g class="cartesianlayer"><g class="subplot xy"><g class="layer-subplot"><g class="shapelayer"/><g class="imagelayer"/></g><g class="gridlayer" transform="translate(80,100)"><path class="xgrid crisp" d="M0,0v220" transform="translate(80,0)" style="stroke: rgb(127, 127, 127); stroke-opacity: 0.66; stroke-width: 1px;"/><path class="xgrid crisp" d="M0,0v220" transform="translate(160,0)" style="stroke: rgb(127, 127, 127); stroke-opacity: 0.66; stroke-width: 1px;"/><path class="xgrid crisp" d="M0,0v220" transform="translate(240,0)" style="stroke: rgb(127, 127, 127); stroke-opacity: 0.66; stroke-width: 1px;"/><path class="xgrid crisp" d="M0,0v220" transform="translate(320,0)" style="stroke: rgb(127, 127, 127); stroke-opacity: 0.66; stroke-width: 1px;"/><path class="xgrid crisp" d="M0,0v220" transform="translate(400,0)" style="stroke: rgb(127, 127, 127); stroke-opacity: 0.66; stroke-width: 1px;"/><path class="ygrid crisp" d="M0,0h440" transform="translate(0,182.2)" style="stroke: rgb(127, 127, 127); stroke-opacity: 0.66; stroke-width: 1px;"/><path class="ygrid crisp" d="M0,0h440" transform="translate(0,139.4)" style="stroke: rgb(127, 127, 127); stroke-opacity: 0.66; stroke-width: 1px;"/><path class="ygrid crisp" d="M0,0h440" transform="translate(0,96.6)" style="stroke: rgb(127, 127, 127); stroke-opacity: 0.66; stroke-width: 1px;"/><path class="ygrid crisp" d="M0,0h440" transform="translate(0,53.8)" style="stroke: rgb(127, 127, 127); stroke-opacity: 0.66; stroke-width: 1px;"/><path class="ygrid crisp" d="M0,0h440" transform="translate(0,11)" style="stroke: rgb(127, 127, 127); stroke-opacity: 0.66; stroke-width: 1px;"/></g><g class="overgrid"/><g class="zerolinelayer" transform="translate(80,100)"/><g class="overzero"/><g class="plot" transform="translate(80, 100)" clip-path="url(#clip5929a9xyplot)"><g class="imagelayer"/><g class="maplayer"/><g class="barlayer"/><g class="carpetlayer"/><g class="boxlayer"/><g class="scatterlayer"><g class="trace scatter trace46ca15" style="stroke-miterlimit: 2; opacity: 1;"><path class="js-line" d="M4,209L8,191.02L12,166.17L20,98.68L24,74.02L28,58.43L32,48.33L36,41.16L40,36.44L48,30.19L52,28.01L64,23.28L68,22.1L80,19.4L84,18.62L108,15.51L112,15.08L148,12.75L152,12.57L208,11.36L212,11.32L348,11L352,11.01L440,11" style="vector-effect: non-scaling-stroke; fill: none; stroke: rgb(31, 119, 180); stroke-opacity: 1; stroke-width: 2px; opacity: 1;"/><g class="points"/></g></g></g><g class="overplot"/><path class="xlines crisp" transform="translate(80,100)" d="M-1,220.5h442" style="fill: none; stroke-width: 1px; stroke: rgb(68, 68, 68); stroke-opacity: 1;"/><path class="ylines crisp" transform="translate(80,100)" d="M-0.5,-1v221" stroke-width="1px" style="fill: none; stroke: rgb(68, 68, 68); stroke-opacity: 1;"/><g class="overlines"/><g class="xaxislayer" transform="translate(80,100)"><g class="xtick" data-bb="6727"><text text-anchor="middle" x="0" y="235" transform="translate(0,0)" style="font-family: 'Open Sans', verdana, arial, sans-serif; font-size: 12px; fill: rgb(68, 68, 68); fill-opacity: 1; visibility: visible; white-space: pre;" data-bb="6720">0</text></g><g class="xtick" data-bb="6728"><text text-anchor="middle" x="0" y="235" transform="translate(80,0)" style="font-family: 'Open Sans', verdana, arial, sans-serif; font-size: 12px; fill: rgb(68, 68, 68); fill-opacity: 1; visibility: visible; white-space: pre;" data-bb="6721">0.2</text></g><g class="xtick" data-bb="6729"><text text-anchor="middle" x="0" y="235" transform="translate(160,0)" style="font-family: 'Open Sans', verdana, arial, sans-serif; font-size: 12px; fill: rgb(68, 68, 68); fill-opacity: 1; visibility: visible; white-space: pre;" data-bb="6722">0.4</text></g><g class="xtick" data-bb="6730"><text text-anchor="middle" x="0" y="235" transform="translate(240,0)" style="font-family: 'Open Sans', verdana, arial, sans-serif; font-size: 12px; fill: rgb(68, 68, 68); fill-opacity: 1; visibility: visible; white-space: pre;" data-bb="6723">0.6</text></g><g class="xtick" data-bb="6731"><text text-anchor="middle" x="0" y="235" transform="translate(320,0)" style="font-family: 'Open Sans', verdana, arial, sans-serif; font-size: 12px; fill: rgb(68, 68, 68); fill-opacity: 1; visibility: visible; white-space: pre;" data-bb="6724">0.8</text></g><g class="xtick" data-bb="6732"><text text-anchor="middle" x="0" y="235" transform="translate(400,0)" style="font-family: 'Open Sans', verdana, arial, sans-serif; font-size: 12px; fill: rgb(68, 68, 68); fill-opacity: 1; visibility: visible; white-space: pre;" data-bb="6725">1</text></g></g><g class="yaxislayer" transform="translate(80,100)"><g class="ytick" data-bb="6734"><text text-anchor="end" x="-3" y="6" transform="translate(0,182.2)" style="font-family: 'Open Sans', verdana, arial, sans-serif; font-size: 12px; fill: rgb(68, 68, 68); fill-opacity: 1; visibility: visible; white-space: pre;">0.6</text></g><g class="ytick" data-bb="6735"><text text-anchor="end" x="-3" y="6" transform="translate(0,139.4)" style="font-family: 'Open Sans', verdana, arial, sans-serif; font-size: 12px; fill: rgb(68, 68, 68); fill-opacity: 1; visibility: visible; white-space: pre;">0.7</text></g><g class="ytick" data-bb="6736"><text text-anchor="end" x="-3" y="6" transform="translate(0,96.6)" style="font-family: 'Open Sans', verdana, arial, sans-serif; font-size: 12px; fill: rgb(68, 68, 68); fill-opacity: 1; visibility: visible; white-space: pre;">0.8</text></g><g class="ytick" data-bb="6737"><text text-anchor="end" x="-3" y="6" transform="translate(0,53.8)" style="font-family: 'Open Sans', verdana, arial, sans-serif; font-size: 12px; fill: rgb(68, 68, 68); fill-opacity: 1; visibility: visible; white-space: pre;">0.9</text></g><g class="ytick" data-bb="6738"><text text-anchor="end" x="-3" y="6" transform="translate(0,11)" style="font-family: 'Open Sans', verdana, arial, sans-serif; font-size: 12px; fill: rgb(68, 68, 68); fill-opacity: 1; visibility: visible; white-space: pre;">1</text></g></g><g class="overaxes"/></g></g><g class="ternarylayer"/><g class="geolayer"/><g class="layer-above"><g class="imagelayer"/><g class="shapelayer"/></g><g class="pielayer"/><g class="glimages"/><g class="infolayer"><g class="g-gtitle"/><g class="g-xtitle" data-bb="6726"><text class="xtitle" x="300" y="372" text-anchor="middle" style="font-family: 'Open Sans', verdana, arial, sans-serif; font-size: 14px; fill: rgb(68, 68, 68); opacity: 1; font-weight: normal; white-space: pre; visibility: visible;">Hydrogen Density (g/cc)</text></g><g class="g-ytitle" data-bb="6733"><text class="ytitle" transform="rotate(-90,42,210) translate(0, 0)" x="42" y="210" text-anchor="middle" style="font-family: 'Open Sans', verdana, arial, sans-serif; font-size: 14px; fill: rgb(68, 68, 68); opacity: 1; font-weight: normal; white-space: pre; visibility: visible;">Utilization</text></g></g></svg>