<svg class="main-svg" xmlns="http://www.w3.org/2000/svg" xmlns:xlink="http://www.w3.org/1999/xlink" width="600" height="400"><rect x="0" y="0" width="600" height="400" style="fill: rgb(255, 255, 255); fill-opacity: 1;"/><defs id="defs-4551e1"><g class="clips"><clipPath class="axesclip" id="clip4551e1x"><rect x="80" y="0" width="357" height="400"/></clipPath><clipPath class="axesclip" id="clip4551e1y"><rect x="0" y="100" width="600" height="220"/></clipPath><clipPath class="axesclip" id="clip4551e1xy"><rect x="80" y="100" width="357" height="220"/></clipPath><clipPath class="plotclip" id="clip4551e1xyplot"><rect width="357" height="220"/></clipPath></g></defs><g class="bglayer"><rect class="bg" x="80" y="100" width="357" height="220" style="fill: rgb(255, 255, 255); fill-opacity: 1; stroke-width: 0px;"/></g><g class="layer-below"><g class="imagelayer"/><g class="shapelayer"/></g><g class="cartesianlayer"><g class="subplot xy"><g class="layer-subplot"><g class="shapelayer"/><g class="imagelayer"/></g><g class="gridlayer" transform="translate(80,100)"><path class="xgrid crisp" d="M0,0v220" transform="translate(62.23,0)" style="stroke: rgb(127, 127, 127); stroke-opacity: 0.46; stroke-width: 1px;"/><path class="xgrid crisp" d="M0,0v220" transform="translate(127.73,0)" style="stroke: rgb(127, 127, 127); stroke-opacity: 0.46; stroke-width: 1px;"/><path class="xgrid crisp" d="M0,0v220" transform="translate(193.24,0)" style="stroke: rgb(127, 127, 127); stroke-opacity: 0.46; stroke-width: 1px;"/><path class="xgrid crisp" d="M0,0v220" transform="translate(258.74,0)" style="stroke: rgb(127, 127, 127); stroke-opacity: 0.46; stroke-width: 1px;"/><path class="xgrid crisp" d="M0,0v220" transform="translate(324.25,0)" style="stroke: rgb(127, 127, 127); stroke-opacity: 0.46; stroke-width: 1px;"/><path class="ygrid crisp" d="M0,0h357" transform="translate(0,157.32)" style="stroke: rgb(127, 127, 127); stroke-opacity: 0.51; stroke-width: 1px;"/><path class="ygrid crisp" d="M0,0h357" transform="translate(0,105.46)" style="stroke: rgb(127, 127, 127); stroke-opacity: 0.51; stroke-width: 1px;"/><path class="ygrid crisp" d="M0,0h357" transform="translate(0,53.61)" style="stroke: rgb(127, 127, 127); stroke-opacity: 0.51; stroke-width: 1px;"/><path class="ygrid crisp" d="M0,0h357" transform="translate(0,1.75)" style="stroke: rgb(127, 127, 127); stroke-opacity: 0.51; stroke-width: 1px;"/></g><g class="overgrid"/><g class="zerolinelayer" transform="translate(80,100)"><path class="yzl zl crisp" d="M0,0h357" transform="translate(0,209.17)" style="stroke: rgb(68, 68, 68); stroke-opacity: 1; stroke-width: 1px;"/></g><g class="overzero"/><g class="plot" transform="translate(80, 100)" clip-path="url(#clip4551e1xyplot)"><g class="imagelayer"/><g class="maplayer"/><g class="barlayer"/><g class="carpetlayer"/><g class="boxlayer"/><g class="scatterlayer"><g class="trace scatter trace83bca5" style="stroke-miterlimit: 2; opacity: 1;"><path class="js-line" d="M0,209L26.2,208.4L29.48,208.22L42.58,206.58L45.85,205.98L62.23,203.04L65.5,202.43L81.88,198.97L85.16,198.54L101.53,194.74L104.81,195.17L124.46,192.67L127.73,192.41L170.31,189.38L173.59,189.3L196.51,188.78L199.79,188.78L212.89,188.34L216.17,188.34L232.54,188.26L235.82,188L252.19,188.17L255.47,188L271.84,187.83L275.12,187.83L291.5,187.74L294.77,187.39L327.52,187.48L330.8,186.96L334.07,187.83L337.35,187.65L357,187.83" style="vector-effect: non-scaling-stroke; fill: none; stroke: rgb(31, 119, 180); stroke-opacity: 1; stroke-width: 2px; opacity: 1; stroke-dasharray: 9px, 3px, 3px, 3px;"/><g class="points"/></g><g class="trace scatter trace0218e6" style="stroke-miterlimit: 2; opacity: 1;"><path class="js-line" d="M0,206.32L13.1,204.94L16.38,203.73L19.65,202.86L22.93,200.44L32.75,195.52L36.03,192.58L39.3,191.02L42.58,186.88L45.85,186.62L49.13,184.63L52.4,178.49L55.68,181.6L58.95,179.1L62.23,177.97L65.5,176.85L68.78,169.42L72.06,170.71L75.33,170.97L81.88,168.64L85.16,168.21L91.71,166.05L94.98,169.59L98.26,164.92L101.53,167.52L104.81,161.55L108.08,168.73L111.36,166.82L114.63,163.37L117.91,168.21L121.18,165.7L124.46,167.26L127.73,166.82L131.01,164.66L134.28,161.03L137.56,162.85L140.83,165.61L144.11,162.68L147.39,165.36L150.66,161.9L153.94,159.82L157.21,161.21L160.49,164.92L163.76,167.6L167.04,164.75L170.31,163.11L173.59,165.96L176.86,162.16L180.14,167.26L183.41,165.1L186.69,167.26L189.96,163.8L193.24,165.18L196.51,162.42L199.79,167.26L203.06,163.71L206.34,165.36L212.89,166.13L216.17,160.6L219.44,165.18L222.72,163.02L225.99,165.61L229.27,166.65L232.54,157.58L235.82,162.16L239.09,163.11L242.37,159.48L245.64,163.63L248.92,163.19L252.19,163.8L255.47,165.36L258.74,167.78L262.02,165.61L265.29,159.48L268.57,164.75L271.84,160.26L275.12,164.66L278.39,167.17L281.67,166.91L284.94,158.1L288.22,161.12L291.5,166.13L294.77,166.82L298.05,166.22L301.32,166.57L304.6,163.45L307.87,162.59L314.42,159.65L317.7,164.06L320.97,167.86L324.25,164.4L327.52,163.28L330.8,159.48L334.07,162.24L337.35,160.17L340.62,161.47L343.9,166.82L350.45,163.02L353.72,163.11L357,167" style="vector-effect: non-scaling-stroke; fill: none; stroke: rgb(255, 127, 14); stroke-opacity: 1; stroke-width: 2px; opacity: 1; stroke-dasharray: 3px, 3px;"/><g class="points"/></g><g class="trace scatter trace2940a5" style="stroke-miterlimit: 2; opacity: 1;"><path class="js-line" d="M0,207.1L6.55,206.32L9.83,205.2L13.1,203.12L16.38,199.49L19.65,195.17L22.93,186.18L26.2,179.01L29.48,174.08L58.95,93.88L62.23,89.56L72.06,72.19L75.33,68.9L85.16,51.88L88.43,54.82L94.98,49.55L98.26,42.03L101.53,42.98L104.81,37.45L108.08,39.87L111.36,37.53L114.63,38.57L117.91,33.82L121.18,36.84L124.46,31.22L127.73,37.19L131.01,34.33L134.28,32.95L137.56,34.16L144.11,29.84L147.39,31.91L150.66,29.49L153.94,31.4L157.21,30.01L160.49,30.88L163.76,32.52L167.04,30.45L170.31,32.09L173.59,31.4L176.86,29.67L180.14,29.06L183.41,24.14L186.69,29.24L193.24,29.93L196.51,28.89L206.34,27.51L209.61,27.25L212.89,26.82L216.17,28.37L219.44,30.88L222.72,28.46L225.99,30.7L229.27,31.57L232.54,29.15L235.82,28.11L239.09,28.8L242.37,27.25L245.64,28.72L248.92,27.85L252.19,30.62L255.47,31.31L258.74,31.22L262.02,30.01L265.29,29.32L268.57,29.93L275.12,29.41L278.39,30.53L281.67,30.19L284.94,11L288.22,25L291.5,28.11L294.77,23.88L298.05,26.3L301.32,28.03L304.6,25.95L307.87,25.69L311.15,16.1L314.42,28.11L317.7,33.12L320.97,30.36L324.25,32.95L327.52,11.26L330.8,12.64L334.07,30.79L337.35,30.79L340.62,31.66L343.9,33.56L347.17,31.48L350.45,12.73L353.72,33.04L357,32.61" style="vector-effect: non-scaling-stroke; fill: none; stroke: rgb(44, 160, 44); stroke-opacity: 1; stroke-width: 2px; opacity: 1;"/><g class="points"/></g></g></g><g class="overplot"/><path class="xlines crisp" transform="translate(80,100)" d="M-1,220.5h359" style="fill: none; stroke-width: 1px; stroke: rgb(0, 0, 0); stroke-opacity: 0;"/><path class="ylines crisp" transform="translate(80,100)" d="M-0.5,-1v221" stroke-width="1px" style="fill: none; stroke: rgb(68, 68, 68); stroke-opacity: 1;"/><g class="overlines"/><g class="xaxislayer" transform="translate(80,100)"><g class="xtick" data-bb="9461"><text text-anchor="middle" x="0" y="234" transform="translate(62.23,0)" style="font-family: 'Open Sans', verdana, arial, sans-serif; font-size: 12px; fill: rgb(68, 68, 68); fill-opacity: 1; visibility: visible; white-space: pre;" data-bb="9455">0.2</text></g><g class="xtick" data-bb="9462"><text text-anchor="middle" x="0" y="234" transform="translate(127.73,0)" style="font-family: 'Open Sans', verdana, arial, sans-serif; font-size: 12px; fill: rgb(68, 68, 68); fill-opacity: 1; visibility: visible; white-space: pre;" data-bb="9456">0.4</text></g><g class="xtick" data-bb="9463"><text text-anchor="middle" x="0" y="234" transform="translate(193.24,0)" style="font-family: 'Open Sans', verdana, arial, sans-serif; font-size: 12px; fill: rgb(68, 68, 68); fill-opacity: 1; visibility: visible; white-space: pre;" data-bb="9457">0.6</text></g><g class="xtick" data-bb="9464"><text text-anchor="middle" x="0" y="234" transform="translate(258.74,0)" style="font-family: 'Open Sans', verdana, arial, sans-serif; font-size: 12px; fill: rgb(68, 68, 68); fill-opacity: 1; visibility: visible; white-space: pre;" data-bb="9458">0.8</text></g><g class="xtick" data-bb="9465"><text text-anchor="middle" x="0" y="234" transform="translate(324.25,0)" style="font-family: 'Open Sans', verdana, arial, sans-serif; font-size: 12px; fill: rgb(68, 68, 68); fill-opacity: 1; visibility: visible; white-space: pre;" data-bb="9459">1</text></g></g><g class="yaxislayer" transform="translate(80,100)"><g class="ytick" data-bb="9467"><text text-anchor="end" x="-3" y="6" transform="translate(0,209.17)" style="font-family: 'Open Sans', verdana, arial, sans-serif; font-size: 12px; fill: rgb(68, 68, 68); fill-opacity: 1; visibility: visible; white-space: pre;">0</text></g><g class="ytick" data-bb="9468"><text text-anchor="end" x="-3" y="6" transform="translate(0,157.32)" style="font-family: 'Open Sans', verdana, arial, sans-serif; font-size: 12px; fill: rgb(68, 68, 68); fill-opacity: 1; visibility: visible; white-space: pre;">10</text></g><g class="ytick" data-bb="9469"><text text-anchor="end" x="-3" y="6" transform="translate(0,105.46)" style="font-family: 'Open Sans', verdana, arial, sans-serif; font-size: 12px; fill: rgb(68, 68, 68); fill-opacity: 1; visibility: visible; white-space: pre;">20</text></g><g class="ytick" data-bb="9470"><text text-anchor="end" x="-3" y="6" transform="translate(0,53.61)" style="font-family: 'Open Sans', verdana, arial, sans-serif; font-size: 12px; fill: rgb(68, 68, 68); fill-opacity: 1; visibility: visible; white-space: pre;">30</text></g><g class="ytick" data-bb="9471"><text text-anchor="end" x="-3" y="6" transform="translate(0,1.75)" style="font-family: 'Open Sans', verdana, arial, sans-serif; font-size: 12px; fill: rgb(68, 68, 68); fill-opacity: 1; visibility: visible; white-space: pre;">40</text></g></g><g class="overaxes"/></g></g><g class="ternarylayer"/><g class="geolayer"/><g class="layer-above"><g class="imagelayer"/><g class="shapelayer"/></g><g class="pielayer"/><g class="glimages"/><defs id="topdefs-4551e1"><clipPath id="legend4551e1"><rect width="151" height="67" x="0" y="0"/></clipPath></defs><g class="infolayer"><g class="g-gtitle"/><g class="g-xtitle" data-bb="9460"><text class="xtitle" x="258.5" y="372" text-anchor="middle" style="font-family: 'Open Sans', verdana, arial, sans-serif; font-size: 14px; fill: rgb(68, 68, 68); opacity: 1; font-weight: normal; white-space: pre; visibility: visible;">Hydrogen Density (g/cc)</text></g><g class="g-ytitle" data-bb="9466"><text class="ytitle" transform="rotate(-90,42,210) translate(0, 0)" x="42" y="210" text-anchor="middle" style="font-family: 'Open Sans', verdana, arial, sans-serif; font-size: 14px; fill: rgb(68, 68, 68); opacity: 1; font-weight: normal; white-space: pre; visibility: visible;">Wall Time (min)</text></g><g class="legend" pointer-events="all" transform="translate(437, 100)"><rect class="bg" shape-rendering="crispEdges" style="stroke: rgb(68, 68, 68); stroke-opacity: 1; fill: rgb(255, 255, 255); fill-opacity: 1; stroke-width: 0px;" width="151" height="67" x="0" y="0"/><g class="scrollbox" transform="translate(0, 0)" clip-path="url(#legend4551e1)"><g class="groups"><g class="traces" transform="translate(0, 14.5)" style="opacity: 1;"><g class="layers" style="opacity: 1;"><g class="legendfill"/><g class="legendlines"><path class="js-line" d="M5,0h30" style="fill: none; stroke: rgb(31, 119, 180); stroke-opacity: 1; stroke-dasharray: 9px, 3px, 3px, 3px; stroke-width: 2px;"/></g><g class="legendsymbols"><g class="legendpoints"/></g></g><text class="legendtext user-select-none" x="40" y="4.680000000000001" style="text-anchor: start; font-family: 'Open Sans', verdana, arial, sans-serif; font-size: 12px; fill: rgb(68, 68, 68); fill-opacity: 1; white-space: pre; visibility: visible;" data-bb="9472">MCNP Native</text><rect class="legendtoggle" pointer-events="all" style="cursor: pointer; fill: rgb(0, 0, 0); fill-opacity: 0;" x="0" y="-9.5" width="191" height="19"/></g><g class="traces" transform="translate(0, 33.5)" style="opacity: 1;"><g class="layers" style="opacity: 1;"><g class="legendfill"/><g class="legendlines"><path class="js-line" d="M5,0h30" style="fill: none; stroke: rgb(255, 127, 14); stroke-opacity: 1; stroke-dasharray: 3px, 3px; stroke-width: 2px;"/></g><g class="legendsymbols"><g class="legendpoints"/></g></g><text class="legendtext user-select-none" x="40" y="4.680000000000001" style="text-anchor: start; font-family: 'Open Sans', verdana, arial, sans-serif; font-size: 12px; fill: rgb(68, 68, 68); fill-opacity: 1; white-space: pre; visibility: visible;" data-bb="9473">DAG-MCNP w/ SDF</text><rect class="legendtoggle" pointer-events="all" style="cursor: pointer; fill: rgb(0, 0, 0); fill-opacity: 0;" x="0" y="-9.5" width="191" height="19"/></g><g class="traces" transform="translate(0, 52.5)" style="opacity: 1;"><g class="layers" style="opacity: 1;"><g class="legendfill"/><g class="legendlines"><path class="js-line" d="M5,0h30" style="fill: none; stroke: rgb(44, 160, 44); stroke-opacity: 1; stroke-width: 2px;"/></g><g class="legendsymbols"><g class="legendpoints"/></g></g><text class="legendtext user-select-none" x="40" y="4.680000000000001" style="text-anchor: start; font-family: 'Open Sans', verdana, arial, sans-serif; font-size: 12px; fill: rgb(68, 68, 68); fill-opacity: 1; white-space: pre; visibility: visible;" data-bb="9474">DAG-MCNP</text><rect class="legendtoggle" pointer-events="all" x="0" y="-9.5" width="191" height="19" style="cursor: pointer; fill: rgb(0, 0, 0); fill-opacity: 0;"/></g></g></g><rect class="scrollbar" rx="20" ry="2" width="0" height="0" style="fill: rgb(128, 139, 164); fill-opacity: 1;"/></g></g></svg>